G04*
G04 #@! TF.GenerationSoftware,Altium Limited,Altium Designer,23.1.1 (15)*
G04*
G04 Layer_Color=32896*
%FSLAX25Y25*%
%MOIN*%
G70*
G04*
G04 #@! TF.SameCoordinates,1495F0C7-D67D-4403-963C-54D1E027F531*
G04*
G04*
G04 #@! TF.FilePolarity,Positive*
G04*
G01*
G75*
%ADD14C,0.00787*%
%ADD63C,0.00394*%
G36*
X412000Y315722D02*
X410832D01*
X410802Y315726D01*
X410770D01*
X410693Y315729D01*
X410613Y315740D01*
X410526Y315751D01*
X410446Y315770D01*
X410406Y315780D01*
X410373Y315791D01*
X410369D01*
X410366Y315795D01*
X410344Y315806D01*
X410311Y315821D01*
X410271Y315846D01*
X410227Y315879D01*
X410180Y315922D01*
X410136Y315973D01*
X410093Y316032D01*
Y316035D01*
X410089Y316039D01*
X410074Y316061D01*
X410060Y316097D01*
X410038Y316144D01*
X410020Y316199D01*
X410002Y316265D01*
X409991Y316334D01*
X409987Y316410D01*
Y316414D01*
Y316421D01*
Y316436D01*
X409991Y316454D01*
Y316479D01*
X409994Y316505D01*
X410009Y316567D01*
X410031Y316639D01*
X410060Y316716D01*
X410104Y316792D01*
X410133Y316829D01*
X410162Y316865D01*
X410165Y316869D01*
X410169Y316873D01*
X410180Y316883D01*
X410195Y316894D01*
X410213Y316909D01*
X410235Y316923D01*
X410264Y316942D01*
X410293Y316964D01*
X410329Y316982D01*
X410369Y317000D01*
X410413Y317022D01*
X410460Y317040D01*
X410515Y317055D01*
X410569Y317073D01*
X410631Y317084D01*
X410697Y317094D01*
X410690Y317098D01*
X410675Y317105D01*
X410653Y317120D01*
X410624Y317135D01*
X410559Y317175D01*
X410526Y317200D01*
X410497Y317222D01*
X410489Y317229D01*
X410471Y317247D01*
X410442Y317277D01*
X410406Y317313D01*
X410366Y317364D01*
X410318Y317419D01*
X410271Y317484D01*
X410220Y317557D01*
X409787Y318241D01*
X410202D01*
X410533Y317717D01*
Y317713D01*
X410540Y317706D01*
X410548Y317695D01*
X410559Y317681D01*
X410584Y317640D01*
X410617Y317590D01*
X410657Y317535D01*
X410697Y317477D01*
X410737Y317422D01*
X410773Y317371D01*
X410777Y317368D01*
X410788Y317353D01*
X410806Y317331D01*
X410832Y317306D01*
X410886Y317251D01*
X410915Y317226D01*
X410944Y317204D01*
X410948Y317200D01*
X410955Y317196D01*
X410970Y317189D01*
X410992Y317178D01*
X411014Y317167D01*
X411039Y317156D01*
X411097Y317138D01*
X411101D01*
X411108Y317135D01*
X411123D01*
X411141Y317131D01*
X411166Y317127D01*
X411196D01*
X411236Y317124D01*
X411665D01*
Y318241D01*
X412000D01*
Y315722D01*
D02*
G37*
G36*
X408735Y316272D02*
X408739Y316276D01*
X408757Y316290D01*
X408779Y316312D01*
X408815Y316337D01*
X408855Y316370D01*
X408906Y316407D01*
X408964Y316447D01*
X409030Y316487D01*
X409033D01*
X409037Y316490D01*
X409059Y316505D01*
X409095Y316523D01*
X409139Y316545D01*
X409190Y316570D01*
X409244Y316596D01*
X409299Y316621D01*
X409354Y316643D01*
Y316345D01*
X409350D01*
X409343Y316337D01*
X409328Y316334D01*
X409310Y316323D01*
X409288Y316312D01*
X409263Y316297D01*
X409201Y316261D01*
X409128Y316221D01*
X409055Y316170D01*
X408979Y316112D01*
X408902Y316050D01*
X408899Y316046D01*
X408895Y316043D01*
X408884Y316032D01*
X408870Y316021D01*
X408837Y315984D01*
X408793Y315941D01*
X408749Y315890D01*
X408702Y315831D01*
X408662Y315773D01*
X408626Y315711D01*
X408426D01*
Y318241D01*
X408735D01*
Y316272D01*
D02*
G37*
G36*
X407676Y318237D02*
Y318223D01*
Y318201D01*
X407672Y318172D01*
X407668Y318139D01*
X407661Y318103D01*
X407654Y318066D01*
X407639Y318026D01*
Y318023D01*
X407636Y318019D01*
X407628Y317997D01*
X407614Y317965D01*
X407592Y317921D01*
X407563Y317870D01*
X407526Y317812D01*
X407486Y317753D01*
X407435Y317691D01*
Y317688D01*
X407428Y317684D01*
X407410Y317662D01*
X407377Y317630D01*
X407330Y317582D01*
X407275Y317528D01*
X407206Y317462D01*
X407122Y317389D01*
X407031Y317313D01*
X407028Y317309D01*
X407013Y317298D01*
X406991Y317280D01*
X406966Y317258D01*
X406933Y317229D01*
X406893Y317196D01*
X406853Y317160D01*
X406806Y317120D01*
X406715Y317033D01*
X406624Y316945D01*
X406580Y316902D01*
X406540Y316858D01*
X406504Y316818D01*
X406474Y316778D01*
Y316774D01*
X406467Y316771D01*
X406460Y316760D01*
X406453Y316745D01*
X406427Y316705D01*
X406398Y316658D01*
X406373Y316599D01*
X406347Y316538D01*
X406332Y316468D01*
X406325Y316403D01*
Y316399D01*
Y316396D01*
X406329Y316374D01*
X406332Y316337D01*
X406343Y316297D01*
X406358Y316246D01*
X406384Y316195D01*
X406416Y316144D01*
X406460Y316093D01*
X406467Y316086D01*
X406485Y316072D01*
X406511Y316054D01*
X406551Y316028D01*
X406602Y316006D01*
X406660Y315984D01*
X406729Y315970D01*
X406806Y315966D01*
X406828D01*
X406842Y315970D01*
X406886Y315973D01*
X406937Y315984D01*
X406991Y315999D01*
X407053Y316024D01*
X407112Y316057D01*
X407166Y316101D01*
X407173Y316108D01*
X407188Y316126D01*
X407210Y316155D01*
X407232Y316199D01*
X407257Y316250D01*
X407279Y316316D01*
X407294Y316388D01*
X407301Y316472D01*
X407617Y316439D01*
Y316436D01*
X407614Y316425D01*
Y316407D01*
X407610Y316381D01*
X407603Y316352D01*
X407596Y316319D01*
X407585Y316279D01*
X407574Y316239D01*
X407545Y316152D01*
X407501Y316064D01*
X407476Y316021D01*
X407443Y315977D01*
X407410Y315937D01*
X407374Y315901D01*
X407370Y315897D01*
X407363Y315893D01*
X407352Y315882D01*
X407334Y315872D01*
X407312Y315857D01*
X407286Y315842D01*
X407257Y315824D01*
X407221Y315806D01*
X407181Y315788D01*
X407137Y315770D01*
X407090Y315755D01*
X407039Y315740D01*
X406984Y315729D01*
X406926Y315719D01*
X406864Y315715D01*
X406798Y315711D01*
X406762D01*
X406737Y315715D01*
X406707Y315719D01*
X406671Y315722D01*
X406631Y315729D01*
X406591Y315737D01*
X406496Y315762D01*
X406402Y315799D01*
X406354Y315821D01*
X406307Y315846D01*
X406263Y315879D01*
X406223Y315915D01*
X406220Y315919D01*
X406212Y315922D01*
X406205Y315937D01*
X406191Y315952D01*
X406172Y315970D01*
X406154Y315995D01*
X406136Y316021D01*
X406114Y316054D01*
X406078Y316123D01*
X406041Y316210D01*
X406027Y316254D01*
X406019Y316305D01*
X406012Y316356D01*
X406009Y316410D01*
Y316418D01*
Y316436D01*
X406012Y316465D01*
X406016Y316505D01*
X406023Y316548D01*
X406038Y316599D01*
X406052Y316654D01*
X406074Y316709D01*
X406078Y316716D01*
X406085Y316734D01*
X406100Y316763D01*
X406121Y316803D01*
X406150Y316847D01*
X406187Y316902D01*
X406231Y316956D01*
X406282Y317018D01*
X406289Y317025D01*
X406307Y317047D01*
X406325Y317065D01*
X406343Y317084D01*
X406365Y317105D01*
X406394Y317135D01*
X406424Y317164D01*
X406460Y317196D01*
X406496Y317233D01*
X406540Y317273D01*
X406587Y317313D01*
X406638Y317360D01*
X406697Y317408D01*
X406755Y317459D01*
X406758Y317462D01*
X406766Y317469D01*
X406780Y317480D01*
X406798Y317495D01*
X406820Y317517D01*
X406846Y317539D01*
X406904Y317586D01*
X406966Y317640D01*
X407024Y317695D01*
X407075Y317742D01*
X407097Y317761D01*
X407115Y317779D01*
X407119Y317782D01*
X407130Y317793D01*
X407144Y317808D01*
X407162Y317830D01*
X407181Y317855D01*
X407202Y317881D01*
X407246Y317943D01*
X406005D01*
Y318241D01*
X407676D01*
Y318237D01*
D02*
G37*
G36*
X417883Y342259D02*
X417574D01*
Y344228D01*
X417570Y344225D01*
X417552Y344210D01*
X417530Y344188D01*
X417494Y344163D01*
X417454Y344130D01*
X417403Y344093D01*
X417345Y344053D01*
X417279Y344013D01*
X417275D01*
X417272Y344010D01*
X417250Y343995D01*
X417213Y343977D01*
X417170Y343955D01*
X417119Y343930D01*
X417064Y343904D01*
X417010Y343879D01*
X416955Y343857D01*
Y344155D01*
X416959D01*
X416966Y344163D01*
X416981Y344166D01*
X416999Y344177D01*
X417021Y344188D01*
X417046Y344203D01*
X417108Y344239D01*
X417181Y344279D01*
X417253Y344330D01*
X417330Y344388D01*
X417406Y344450D01*
X417410Y344454D01*
X417414Y344457D01*
X417424Y344468D01*
X417439Y344479D01*
X417472Y344516D01*
X417516Y344559D01*
X417559Y344610D01*
X417606Y344669D01*
X417647Y344727D01*
X417683Y344789D01*
X417883D01*
Y342259D01*
D02*
G37*
G36*
X415925D02*
X415616D01*
Y344228D01*
X415612Y344225D01*
X415594Y344210D01*
X415572Y344188D01*
X415535Y344163D01*
X415495Y344130D01*
X415444Y344093D01*
X415386Y344053D01*
X415321Y344013D01*
X415317D01*
X415313Y344010D01*
X415292Y343995D01*
X415255Y343977D01*
X415211Y343955D01*
X415161Y343930D01*
X415106Y343904D01*
X415051Y343879D01*
X414997Y343857D01*
Y344155D01*
X415000D01*
X415008Y344163D01*
X415022Y344166D01*
X415040Y344177D01*
X415062Y344188D01*
X415088Y344203D01*
X415149Y344239D01*
X415222Y344279D01*
X415295Y344330D01*
X415372Y344388D01*
X415448Y344450D01*
X415452Y344454D01*
X415455Y344457D01*
X415466Y344468D01*
X415481Y344479D01*
X415514Y344516D01*
X415557Y344559D01*
X415601Y344610D01*
X415648Y344669D01*
X415688Y344727D01*
X415725Y344789D01*
X415925D01*
Y342259D01*
D02*
G37*
G36*
X413548Y344774D02*
X413581D01*
X413657Y344771D01*
X413737Y344760D01*
X413825Y344749D01*
X413905Y344730D01*
X413945Y344720D01*
X413977Y344709D01*
X413981D01*
X413985Y344705D01*
X414007Y344694D01*
X414039Y344679D01*
X414079Y344654D01*
X414123Y344621D01*
X414170Y344578D01*
X414214Y344527D01*
X414258Y344468D01*
Y344465D01*
X414261Y344461D01*
X414276Y344439D01*
X414291Y344403D01*
X414312Y344356D01*
X414331Y344301D01*
X414349Y344235D01*
X414360Y344166D01*
X414363Y344090D01*
Y344086D01*
Y344079D01*
Y344064D01*
X414360Y344046D01*
Y344021D01*
X414356Y343995D01*
X414341Y343933D01*
X414320Y343861D01*
X414291Y343784D01*
X414247Y343708D01*
X414218Y343671D01*
X414189Y343635D01*
X414185Y343631D01*
X414181Y343628D01*
X414170Y343617D01*
X414156Y343606D01*
X414138Y343591D01*
X414116Y343577D01*
X414087Y343558D01*
X414057Y343536D01*
X414021Y343518D01*
X413981Y343500D01*
X413937Y343478D01*
X413890Y343460D01*
X413835Y343445D01*
X413781Y343427D01*
X413719Y343416D01*
X413654Y343406D01*
X413661Y343402D01*
X413675Y343395D01*
X413697Y343380D01*
X413726Y343365D01*
X413792Y343325D01*
X413825Y343300D01*
X413854Y343278D01*
X413861Y343271D01*
X413879Y343253D01*
X413908Y343224D01*
X413945Y343187D01*
X413985Y343136D01*
X414032Y343081D01*
X414079Y343016D01*
X414130Y342943D01*
X414564Y342259D01*
X414149D01*
X413817Y342783D01*
Y342787D01*
X413810Y342794D01*
X413803Y342805D01*
X413792Y342819D01*
X413766Y342860D01*
X413734Y342910D01*
X413694Y342965D01*
X413654Y343023D01*
X413614Y343078D01*
X413577Y343129D01*
X413573Y343132D01*
X413562Y343147D01*
X413544Y343169D01*
X413519Y343194D01*
X413464Y343249D01*
X413435Y343274D01*
X413406Y343296D01*
X413402Y343300D01*
X413395Y343304D01*
X413380Y343311D01*
X413359Y343322D01*
X413337Y343333D01*
X413311Y343344D01*
X413253Y343362D01*
X413249D01*
X413242Y343365D01*
X413228D01*
X413209Y343369D01*
X413184Y343373D01*
X413155D01*
X413115Y343376D01*
X412685D01*
Y342259D01*
X412350D01*
Y344778D01*
X413519D01*
X413548Y344774D01*
D02*
G37*
G36*
X480344Y315496D02*
X480373Y315493D01*
X480406Y315489D01*
X480442Y315482D01*
X480482Y315475D01*
X480570Y315453D01*
X480661Y315416D01*
X480708Y315394D01*
X480752Y315369D01*
X480795Y315336D01*
X480839Y315303D01*
X480843Y315300D01*
X480850Y315293D01*
X480861Y315282D01*
X480872Y315267D01*
X480890Y315249D01*
X480908Y315223D01*
X480930Y315198D01*
X480952Y315165D01*
X480974Y315129D01*
X480996Y315092D01*
X481036Y315005D01*
X481069Y314903D01*
X481079Y314848D01*
X481087Y314790D01*
X480777Y314750D01*
Y314754D01*
X480774Y314761D01*
X480770Y314776D01*
X480766Y314794D01*
X480763Y314816D01*
X480756Y314841D01*
X480737Y314896D01*
X480712Y314961D01*
X480679Y315023D01*
X480643Y315081D01*
X480599Y315132D01*
X480592Y315136D01*
X480577Y315151D01*
X480548Y315169D01*
X480512Y315187D01*
X480468Y315209D01*
X480413Y315227D01*
X480351Y315242D01*
X480286Y315245D01*
X480264D01*
X480250Y315242D01*
X480209Y315238D01*
X480159Y315227D01*
X480100Y315209D01*
X480038Y315183D01*
X479977Y315147D01*
X479918Y315096D01*
X479911Y315089D01*
X479893Y315067D01*
X479871Y315034D01*
X479842Y314990D01*
X479813Y314936D01*
X479791Y314874D01*
X479773Y314801D01*
X479765Y314721D01*
Y314717D01*
Y314710D01*
Y314699D01*
X479769Y314685D01*
X479773Y314645D01*
X479784Y314597D01*
X479798Y314539D01*
X479824Y314481D01*
X479860Y314423D01*
X479907Y314368D01*
X479915Y314361D01*
X479933Y314346D01*
X479962Y314324D01*
X480002Y314299D01*
X480053Y314273D01*
X480115Y314251D01*
X480184Y314237D01*
X480260Y314230D01*
X480293D01*
X480319Y314233D01*
X480351Y314237D01*
X480388Y314244D01*
X480432Y314251D01*
X480479Y314262D01*
X480442Y313989D01*
X480424D01*
X480410Y313993D01*
X480362D01*
X480322Y313986D01*
X480275Y313979D01*
X480220Y313968D01*
X480159Y313949D01*
X480100Y313924D01*
X480038Y313891D01*
X480035D01*
X480031Y313888D01*
X480013Y313873D01*
X479987Y313847D01*
X479958Y313815D01*
X479929Y313767D01*
X479904Y313713D01*
X479885Y313651D01*
X479878Y313615D01*
Y313575D01*
Y313571D01*
Y313567D01*
Y313545D01*
X479885Y313516D01*
X479893Y313476D01*
X479907Y313433D01*
X479926Y313385D01*
X479955Y313338D01*
X479995Y313294D01*
X479998Y313291D01*
X480017Y313276D01*
X480042Y313258D01*
X480075Y313236D01*
X480119Y313218D01*
X480169Y313199D01*
X480228Y313185D01*
X480293Y313181D01*
X480322D01*
X480355Y313189D01*
X480399Y313196D01*
X480446Y313211D01*
X480493Y313229D01*
X480544Y313258D01*
X480592Y313294D01*
X480595Y313298D01*
X480610Y313316D01*
X480632Y313341D01*
X480657Y313378D01*
X480683Y313425D01*
X480708Y313484D01*
X480730Y313553D01*
X480745Y313633D01*
X481054Y313578D01*
Y313575D01*
X481050Y313563D01*
X481047Y313549D01*
X481043Y313527D01*
X481036Y313502D01*
X481025Y313473D01*
X481003Y313403D01*
X480967Y313323D01*
X480923Y313243D01*
X480868Y313167D01*
X480799Y313098D01*
X480795Y313094D01*
X480788Y313090D01*
X480777Y313083D01*
X480763Y313072D01*
X480745Y313058D01*
X480719Y313043D01*
X480694Y313029D01*
X480661Y313010D01*
X480588Y312981D01*
X480504Y312952D01*
X480406Y312934D01*
X480355Y312927D01*
X480264D01*
X480224Y312930D01*
X480177Y312937D01*
X480119Y312948D01*
X480053Y312967D01*
X479987Y312988D01*
X479922Y313018D01*
X479918D01*
X479915Y313021D01*
X479893Y313032D01*
X479860Y313054D01*
X479824Y313079D01*
X479780Y313116D01*
X479736Y313156D01*
X479693Y313203D01*
X479656Y313258D01*
X479653Y313265D01*
X479642Y313283D01*
X479627Y313316D01*
X479609Y313356D01*
X479591Y313403D01*
X479576Y313458D01*
X479565Y313520D01*
X479562Y313582D01*
Y313589D01*
Y313611D01*
X479565Y313640D01*
X479572Y313680D01*
X479583Y313727D01*
X479602Y313778D01*
X479623Y313829D01*
X479653Y313880D01*
X479656Y313888D01*
X479667Y313902D01*
X479689Y313928D01*
X479718Y313957D01*
X479754Y313989D01*
X479798Y314026D01*
X479849Y314059D01*
X479911Y314091D01*
X479907D01*
X479900Y314095D01*
X479889Y314099D01*
X479875Y314102D01*
X479835Y314117D01*
X479784Y314139D01*
X479725Y314168D01*
X479667Y314204D01*
X479612Y314251D01*
X479562Y314306D01*
X479558Y314313D01*
X479543Y314335D01*
X479522Y314372D01*
X479500Y314419D01*
X479478Y314477D01*
X479456Y314546D01*
X479441Y314626D01*
X479438Y314714D01*
Y314717D01*
Y314728D01*
Y314746D01*
X479441Y314768D01*
X479445Y314797D01*
X479452Y314830D01*
X479460Y314867D01*
X479467Y314907D01*
X479496Y314994D01*
X479518Y315041D01*
X479540Y315085D01*
X479569Y315132D01*
X479602Y315180D01*
X479638Y315227D01*
X479682Y315271D01*
X479685Y315274D01*
X479693Y315282D01*
X479707Y315293D01*
X479725Y315307D01*
X479747Y315325D01*
X479776Y315343D01*
X479809Y315365D01*
X479849Y315384D01*
X479889Y315405D01*
X479937Y315427D01*
X479984Y315445D01*
X480038Y315464D01*
X480097Y315478D01*
X480159Y315489D01*
X480220Y315496D01*
X480290Y315500D01*
X480322D01*
X480344Y315496D01*
D02*
G37*
G36*
X483500Y312937D02*
X482332D01*
X482303Y312941D01*
X482270D01*
X482193Y312945D01*
X482113Y312956D01*
X482026Y312967D01*
X481946Y312985D01*
X481906Y312996D01*
X481873Y313007D01*
X481869D01*
X481866Y313010D01*
X481844Y313021D01*
X481811Y313036D01*
X481771Y313061D01*
X481727Y313094D01*
X481680Y313138D01*
X481636Y313189D01*
X481593Y313247D01*
Y313250D01*
X481589Y313254D01*
X481574Y313276D01*
X481560Y313312D01*
X481538Y313360D01*
X481520Y313414D01*
X481502Y313480D01*
X481491Y313549D01*
X481487Y313625D01*
Y313629D01*
Y313636D01*
Y313651D01*
X481491Y313669D01*
Y313695D01*
X481494Y313720D01*
X481509Y313782D01*
X481531Y313855D01*
X481560Y313931D01*
X481604Y314008D01*
X481633Y314044D01*
X481662Y314080D01*
X481666Y314084D01*
X481669Y314088D01*
X481680Y314099D01*
X481695Y314109D01*
X481713Y314124D01*
X481735Y314139D01*
X481764Y314157D01*
X481793Y314179D01*
X481829Y314197D01*
X481869Y314215D01*
X481913Y314237D01*
X481960Y314255D01*
X482015Y314270D01*
X482069Y314288D01*
X482131Y314299D01*
X482197Y314310D01*
X482190Y314313D01*
X482175Y314321D01*
X482153Y314335D01*
X482124Y314350D01*
X482059Y314390D01*
X482026Y314415D01*
X481997Y314437D01*
X481989Y314444D01*
X481971Y314463D01*
X481942Y314492D01*
X481906Y314528D01*
X481866Y314579D01*
X481818Y314634D01*
X481771Y314699D01*
X481720Y314772D01*
X481287Y315456D01*
X481702D01*
X482033Y314932D01*
Y314929D01*
X482040Y314921D01*
X482048Y314910D01*
X482059Y314896D01*
X482084Y314856D01*
X482117Y314805D01*
X482157Y314750D01*
X482197Y314692D01*
X482237Y314637D01*
X482273Y314586D01*
X482277Y314583D01*
X482288Y314568D01*
X482306Y314546D01*
X482332Y314521D01*
X482386Y314466D01*
X482415Y314441D01*
X482444Y314419D01*
X482448Y314415D01*
X482455Y314412D01*
X482470Y314404D01*
X482492Y314393D01*
X482514Y314383D01*
X482539Y314372D01*
X482597Y314353D01*
X482601D01*
X482608Y314350D01*
X482623D01*
X482641Y314346D01*
X482666Y314342D01*
X482696D01*
X482736Y314339D01*
X483165D01*
Y315456D01*
X483500D01*
Y312937D01*
D02*
G37*
G36*
X483654Y321981D02*
X482485D01*
X482456Y321985D01*
X482423D01*
X482347Y321988D01*
X482267Y321999D01*
X482179Y322010D01*
X482099Y322028D01*
X482059Y322039D01*
X482026Y322050D01*
X482023D01*
X482019Y322054D01*
X481997Y322065D01*
X481965Y322079D01*
X481925Y322105D01*
X481881Y322138D01*
X481834Y322181D01*
X481790Y322232D01*
X481746Y322290D01*
Y322294D01*
X481743Y322298D01*
X481728Y322320D01*
X481713Y322356D01*
X481692Y322403D01*
X481673Y322458D01*
X481655Y322523D01*
X481644Y322593D01*
X481641Y322669D01*
Y322673D01*
Y322680D01*
Y322695D01*
X481644Y322713D01*
Y322738D01*
X481648Y322764D01*
X481663Y322826D01*
X481684Y322898D01*
X481713Y322975D01*
X481757Y323051D01*
X481786Y323088D01*
X481815Y323124D01*
X481819Y323128D01*
X481823Y323131D01*
X481834Y323142D01*
X481848Y323153D01*
X481866Y323168D01*
X481888Y323182D01*
X481917Y323201D01*
X481946Y323222D01*
X481983Y323241D01*
X482023Y323259D01*
X482066Y323281D01*
X482114Y323299D01*
X482168Y323313D01*
X482223Y323332D01*
X482285Y323342D01*
X482350Y323353D01*
X482343Y323357D01*
X482329Y323364D01*
X482307Y323379D01*
X482278Y323394D01*
X482212Y323433D01*
X482179Y323459D01*
X482150Y323481D01*
X482143Y323488D01*
X482125Y323506D01*
X482096Y323535D01*
X482059Y323572D01*
X482019Y323623D01*
X481972Y323677D01*
X481925Y323743D01*
X481874Y323816D01*
X481440Y324500D01*
X481855D01*
X482187Y323976D01*
Y323972D01*
X482194Y323965D01*
X482201Y323954D01*
X482212Y323939D01*
X482238Y323899D01*
X482270Y323849D01*
X482310Y323794D01*
X482350Y323736D01*
X482390Y323681D01*
X482427Y323630D01*
X482431Y323626D01*
X482441Y323612D01*
X482460Y323590D01*
X482485Y323565D01*
X482540Y323510D01*
X482569Y323484D01*
X482598Y323463D01*
X482602Y323459D01*
X482609Y323455D01*
X482623Y323448D01*
X482645Y323437D01*
X482667Y323426D01*
X482693Y323415D01*
X482751Y323397D01*
X482755D01*
X482762Y323394D01*
X482776D01*
X482795Y323390D01*
X482820Y323386D01*
X482849D01*
X482889Y323382D01*
X483319D01*
Y324500D01*
X483654D01*
Y321981D01*
D02*
G37*
G36*
X480254Y323896D02*
X481349D01*
Y323612D01*
X480196Y321981D01*
X479944D01*
Y323612D01*
X479602D01*
Y323896D01*
X479944D01*
Y324500D01*
X480254D01*
Y323896D01*
D02*
G37*
G36*
X487614Y335735D02*
X486606D01*
X486471Y335054D01*
X486475Y335058D01*
X486482Y335062D01*
X486493Y335069D01*
X486511Y335080D01*
X486533Y335091D01*
X486558Y335105D01*
X486616Y335134D01*
X486689Y335163D01*
X486769Y335189D01*
X486857Y335207D01*
X486900Y335214D01*
X486980D01*
X487002Y335211D01*
X487031Y335207D01*
X487064Y335204D01*
X487101Y335196D01*
X487141Y335185D01*
X487228Y335160D01*
X487275Y335142D01*
X487323Y335116D01*
X487370Y335091D01*
X487417Y335062D01*
X487461Y335025D01*
X487505Y334985D01*
X487508Y334981D01*
X487515Y334974D01*
X487527Y334963D01*
X487541Y334945D01*
X487559Y334920D01*
X487577Y334894D01*
X487599Y334861D01*
X487621Y334825D01*
X487639Y334785D01*
X487661Y334741D01*
X487679Y334690D01*
X487698Y334639D01*
X487712Y334585D01*
X487723Y334523D01*
X487730Y334461D01*
X487734Y334395D01*
Y334392D01*
Y334381D01*
Y334363D01*
X487730Y334337D01*
X487727Y334308D01*
X487723Y334275D01*
X487716Y334235D01*
X487708Y334195D01*
X487687Y334101D01*
X487650Y334002D01*
X487628Y333951D01*
X487599Y333904D01*
X487570Y333853D01*
X487534Y333806D01*
X487530Y333802D01*
X487523Y333791D01*
X487508Y333777D01*
X487490Y333758D01*
X487465Y333736D01*
X487435Y333707D01*
X487399Y333682D01*
X487359Y333653D01*
X487315Y333624D01*
X487264Y333598D01*
X487210Y333573D01*
X487151Y333547D01*
X487090Y333529D01*
X487020Y333514D01*
X486948Y333504D01*
X486871Y333500D01*
X486838D01*
X486813Y333504D01*
X486784Y333507D01*
X486751Y333511D01*
X486711Y333514D01*
X486671Y333525D01*
X486580Y333547D01*
X486489Y333580D01*
X486442Y333602D01*
X486394Y333627D01*
X486351Y333657D01*
X486307Y333689D01*
X486303Y333693D01*
X486296Y333697D01*
X486289Y333711D01*
X486274Y333726D01*
X486256Y333744D01*
X486238Y333766D01*
X486216Y333795D01*
X486198Y333828D01*
X486176Y333860D01*
X486154Y333900D01*
X486114Y333988D01*
X486081Y334090D01*
X486070Y334144D01*
X486063Y334203D01*
X486387Y334228D01*
Y334224D01*
Y334217D01*
X486391Y334206D01*
X486394Y334188D01*
X486405Y334148D01*
X486420Y334093D01*
X486442Y334039D01*
X486471Y333977D01*
X486507Y333922D01*
X486551Y333871D01*
X486558Y333868D01*
X486573Y333853D01*
X486602Y333835D01*
X486642Y333813D01*
X486686Y333791D01*
X486740Y333773D01*
X486802Y333758D01*
X486871Y333755D01*
X486893D01*
X486908Y333758D01*
X486951Y333762D01*
X487002Y333777D01*
X487064Y333795D01*
X487126Y333824D01*
X487192Y333868D01*
X487221Y333893D01*
X487250Y333922D01*
X487253Y333926D01*
X487257Y333929D01*
X487264Y333940D01*
X487275Y333951D01*
X487301Y333991D01*
X487330Y334042D01*
X487355Y334104D01*
X487381Y334181D01*
X487399Y334272D01*
X487406Y334319D01*
Y334370D01*
Y334373D01*
Y334381D01*
Y334395D01*
X487403Y334414D01*
Y334435D01*
X487399Y334461D01*
X487388Y334519D01*
X487370Y334588D01*
X487344Y334658D01*
X487308Y334723D01*
X487257Y334785D01*
Y334788D01*
X487250Y334792D01*
X487232Y334810D01*
X487199Y334836D01*
X487155Y334865D01*
X487097Y334890D01*
X487031Y334916D01*
X486955Y334934D01*
X486911Y334941D01*
X486842D01*
X486813Y334938D01*
X486777Y334934D01*
X486733Y334923D01*
X486689Y334912D01*
X486642Y334894D01*
X486595Y334872D01*
X486591Y334869D01*
X486576Y334861D01*
X486555Y334843D01*
X486525Y334825D01*
X486496Y334799D01*
X486467Y334767D01*
X486435Y334734D01*
X486409Y334694D01*
X486118Y334734D01*
X486362Y336030D01*
X487614D01*
Y335735D01*
D02*
G37*
G36*
X484851Y336059D02*
X484884D01*
X484960Y336055D01*
X485040Y336044D01*
X485128Y336033D01*
X485208Y336015D01*
X485248Y336004D01*
X485281Y335993D01*
X485284D01*
X485288Y335990D01*
X485310Y335979D01*
X485343Y335964D01*
X485383Y335939D01*
X485426Y335906D01*
X485473Y335862D01*
X485517Y335811D01*
X485561Y335753D01*
Y335750D01*
X485565Y335746D01*
X485579Y335724D01*
X485594Y335688D01*
X485615Y335640D01*
X485634Y335586D01*
X485652Y335520D01*
X485663Y335451D01*
X485666Y335374D01*
Y335371D01*
Y335364D01*
Y335349D01*
X485663Y335331D01*
Y335305D01*
X485659Y335280D01*
X485645Y335218D01*
X485623Y335145D01*
X485594Y335069D01*
X485550Y334992D01*
X485521Y334956D01*
X485492Y334920D01*
X485488Y334916D01*
X485484Y334912D01*
X485473Y334901D01*
X485459Y334890D01*
X485441Y334876D01*
X485419Y334861D01*
X485390Y334843D01*
X485361Y334821D01*
X485324Y334803D01*
X485284Y334785D01*
X485241Y334763D01*
X485193Y334745D01*
X485139Y334730D01*
X485084Y334712D01*
X485022Y334701D01*
X484957Y334690D01*
X484964Y334687D01*
X484978Y334679D01*
X485000Y334665D01*
X485029Y334650D01*
X485095Y334610D01*
X485128Y334585D01*
X485157Y334563D01*
X485164Y334556D01*
X485182Y334537D01*
X485211Y334508D01*
X485248Y334472D01*
X485288Y334421D01*
X485335Y334366D01*
X485383Y334301D01*
X485433Y334228D01*
X485867Y333544D01*
X485452D01*
X485120Y334068D01*
Y334071D01*
X485113Y334079D01*
X485106Y334090D01*
X485095Y334104D01*
X485069Y334144D01*
X485037Y334195D01*
X484997Y334250D01*
X484957Y334308D01*
X484917Y334363D01*
X484880Y334414D01*
X484876Y334417D01*
X484866Y334432D01*
X484847Y334454D01*
X484822Y334479D01*
X484767Y334534D01*
X484738Y334559D01*
X484709Y334581D01*
X484705Y334585D01*
X484698Y334588D01*
X484684Y334596D01*
X484662Y334607D01*
X484640Y334617D01*
X484615Y334628D01*
X484556Y334647D01*
X484553D01*
X484545Y334650D01*
X484531D01*
X484513Y334654D01*
X484487Y334658D01*
X484458D01*
X484418Y334661D01*
X483988D01*
Y333544D01*
X483653D01*
Y336063D01*
X484822D01*
X484851Y336059D01*
D02*
G37*
G36*
X486852Y345570D02*
X486878D01*
X486907Y345566D01*
X486976Y345552D01*
X487053Y345533D01*
X487133Y345504D01*
X487213Y345461D01*
X487253Y345435D01*
X487289Y345406D01*
X487293Y345402D01*
X487296Y345399D01*
X487307Y345388D01*
X487318Y345377D01*
X487336Y345359D01*
X487351Y345337D01*
X487391Y345286D01*
X487431Y345220D01*
X487468Y345140D01*
X487500Y345049D01*
X487522Y344947D01*
X487213Y344922D01*
Y344925D01*
X487209Y344929D01*
X487206Y344951D01*
X487194Y344984D01*
X487180Y345024D01*
X487165Y345068D01*
X487144Y345111D01*
X487118Y345151D01*
X487093Y345184D01*
X487085Y345191D01*
X487071Y345206D01*
X487045Y345228D01*
X487009Y345253D01*
X486962Y345275D01*
X486911Y345297D01*
X486849Y345311D01*
X486783Y345319D01*
X486758D01*
X486729Y345315D01*
X486696Y345308D01*
X486652Y345297D01*
X486609Y345282D01*
X486565Y345264D01*
X486521Y345235D01*
X486514Y345231D01*
X486496Y345217D01*
X486470Y345191D01*
X486437Y345155D01*
X486401Y345111D01*
X486361Y345060D01*
X486325Y344995D01*
X486288Y344922D01*
Y344918D01*
X486285Y344911D01*
X486281Y344900D01*
X486274Y344885D01*
X486270Y344864D01*
X486263Y344838D01*
X486255Y344809D01*
X486248Y344773D01*
X486237Y344733D01*
X486230Y344689D01*
X486223Y344642D01*
X486219Y344591D01*
X486212Y344532D01*
X486208Y344474D01*
X486204Y344409D01*
Y344343D01*
X486208Y344347D01*
X486223Y344369D01*
X486248Y344398D01*
X486281Y344434D01*
X486317Y344478D01*
X486365Y344518D01*
X486416Y344558D01*
X486474Y344594D01*
X486478D01*
X486481Y344598D01*
X486503Y344609D01*
X486536Y344620D01*
X486579Y344638D01*
X486630Y344653D01*
X486689Y344663D01*
X486751Y344674D01*
X486816Y344678D01*
X486845D01*
X486867Y344674D01*
X486896Y344671D01*
X486925Y344667D01*
X486962Y344660D01*
X486998Y344649D01*
X487082Y344623D01*
X487125Y344605D01*
X487169Y344580D01*
X487213Y344554D01*
X487260Y344525D01*
X487304Y344489D01*
X487344Y344449D01*
X487347Y344445D01*
X487355Y344438D01*
X487366Y344427D01*
X487377Y344409D01*
X487395Y344383D01*
X487413Y344358D01*
X487431Y344325D01*
X487453Y344288D01*
X487475Y344249D01*
X487493Y344205D01*
X487511Y344154D01*
X487529Y344103D01*
X487540Y344048D01*
X487551Y343986D01*
X487559Y343924D01*
X487562Y343859D01*
Y343855D01*
Y343848D01*
Y343837D01*
Y343819D01*
X487559Y343797D01*
Y343775D01*
X487548Y343717D01*
X487537Y343648D01*
X487519Y343575D01*
X487493Y343495D01*
X487457Y343419D01*
Y343415D01*
X487453Y343411D01*
X487446Y343400D01*
X487438Y343386D01*
X487417Y343349D01*
X487384Y343302D01*
X487344Y343251D01*
X487296Y343200D01*
X487238Y343149D01*
X487176Y343106D01*
X487173D01*
X487169Y343102D01*
X487158Y343095D01*
X487144Y343091D01*
X487107Y343073D01*
X487060Y343055D01*
X486998Y343033D01*
X486929Y343018D01*
X486852Y343004D01*
X486769Y343000D01*
X486751D01*
X486732Y343004D01*
X486703D01*
X486670Y343007D01*
X486634Y343015D01*
X486590Y343025D01*
X486547Y343036D01*
X486496Y343051D01*
X486445Y343069D01*
X486394Y343091D01*
X486339Y343120D01*
X486288Y343153D01*
X486237Y343189D01*
X486186Y343233D01*
X486139Y343284D01*
X486135Y343287D01*
X486128Y343298D01*
X486117Y343313D01*
X486102Y343338D01*
X486081Y343371D01*
X486062Y343408D01*
X486041Y343455D01*
X486019Y343506D01*
X485993Y343568D01*
X485971Y343637D01*
X485953Y343713D01*
X485935Y343797D01*
X485917Y343892D01*
X485906Y343994D01*
X485899Y344103D01*
X485895Y344219D01*
Y344223D01*
Y344227D01*
Y344238D01*
Y344252D01*
X485899Y344288D01*
Y344339D01*
X485902Y344398D01*
X485910Y344467D01*
X485917Y344543D01*
X485928Y344627D01*
X485942Y344711D01*
X485961Y344802D01*
X485982Y344889D01*
X486008Y344976D01*
X486041Y345060D01*
X486077Y345140D01*
X486117Y345217D01*
X486164Y345282D01*
X486168Y345286D01*
X486175Y345293D01*
X486190Y345308D01*
X486208Y345330D01*
X486230Y345351D01*
X486259Y345373D01*
X486296Y345402D01*
X486332Y345428D01*
X486376Y345453D01*
X486423Y345482D01*
X486478Y345504D01*
X486532Y345530D01*
X486594Y345548D01*
X486659Y345563D01*
X486729Y345570D01*
X486801Y345573D01*
X486831D01*
X486852Y345570D01*
D02*
G37*
G36*
X484697Y345559D02*
X484730D01*
X484807Y345555D01*
X484887Y345544D01*
X484974Y345533D01*
X485054Y345515D01*
X485094Y345504D01*
X485127Y345493D01*
X485131D01*
X485134Y345490D01*
X485156Y345479D01*
X485189Y345464D01*
X485229Y345439D01*
X485273Y345406D01*
X485320Y345362D01*
X485364Y345311D01*
X485407Y345253D01*
Y345250D01*
X485411Y345246D01*
X485426Y345224D01*
X485440Y345188D01*
X485462Y345140D01*
X485480Y345086D01*
X485498Y345020D01*
X485509Y344951D01*
X485513Y344875D01*
Y344871D01*
Y344864D01*
Y344849D01*
X485509Y344831D01*
Y344805D01*
X485506Y344780D01*
X485491Y344718D01*
X485469Y344645D01*
X485440Y344569D01*
X485396Y344492D01*
X485367Y344456D01*
X485338Y344420D01*
X485334Y344416D01*
X485331Y344412D01*
X485320Y344401D01*
X485305Y344390D01*
X485287Y344376D01*
X485265Y344361D01*
X485236Y344343D01*
X485207Y344321D01*
X485171Y344303D01*
X485131Y344285D01*
X485087Y344263D01*
X485040Y344245D01*
X484985Y344230D01*
X484931Y344212D01*
X484869Y344201D01*
X484803Y344190D01*
X484810Y344187D01*
X484825Y344179D01*
X484847Y344165D01*
X484876Y344150D01*
X484941Y344110D01*
X484974Y344085D01*
X485003Y344063D01*
X485010Y344056D01*
X485029Y344037D01*
X485058Y344008D01*
X485094Y343972D01*
X485134Y343921D01*
X485182Y343866D01*
X485229Y343801D01*
X485280Y343728D01*
X485713Y343044D01*
X485298D01*
X484967Y343568D01*
Y343571D01*
X484960Y343579D01*
X484952Y343590D01*
X484941Y343604D01*
X484916Y343644D01*
X484883Y343695D01*
X484843Y343750D01*
X484803Y343808D01*
X484763Y343863D01*
X484727Y343914D01*
X484723Y343917D01*
X484712Y343932D01*
X484694Y343954D01*
X484668Y343979D01*
X484614Y344034D01*
X484585Y344059D01*
X484556Y344081D01*
X484552Y344085D01*
X484545Y344088D01*
X484530Y344096D01*
X484508Y344107D01*
X484486Y344117D01*
X484461Y344128D01*
X484403Y344146D01*
X484399D01*
X484392Y344150D01*
X484377D01*
X484359Y344154D01*
X484334Y344158D01*
X484304D01*
X484264Y344161D01*
X483835D01*
Y343044D01*
X483500D01*
Y345563D01*
X484668D01*
X484697Y345559D01*
D02*
G37*
%LPC*%
G36*
X411665Y316836D02*
X410915D01*
X410872Y316832D01*
X410821Y316829D01*
X410762Y316825D01*
X410704Y316818D01*
X410646Y316807D01*
X410595Y316792D01*
X410588Y316789D01*
X410573Y316781D01*
X410551Y316771D01*
X410522Y316756D01*
X410489Y316734D01*
X410457Y316709D01*
X410424Y316676D01*
X410398Y316639D01*
X410395Y316636D01*
X410388Y316621D01*
X410377Y316599D01*
X410362Y316570D01*
X410351Y316538D01*
X410340Y316501D01*
X410333Y316458D01*
X410329Y316414D01*
Y316410D01*
Y316407D01*
X410333Y316385D01*
X410336Y316352D01*
X410344Y316308D01*
X410362Y316265D01*
X410384Y316214D01*
X410417Y316166D01*
X410460Y316119D01*
X410468Y316115D01*
X410486Y316101D01*
X410515Y316083D01*
X410562Y316061D01*
X410617Y316039D01*
X410690Y316021D01*
X410773Y316006D01*
X410872Y316002D01*
X411665D01*
Y316836D01*
D02*
G37*
G36*
X413479Y344497D02*
X412685D01*
Y343664D01*
X413435D01*
X413479Y343668D01*
X413530Y343671D01*
X413588Y343675D01*
X413646Y343682D01*
X413704Y343693D01*
X413755Y343708D01*
X413763Y343711D01*
X413777Y343719D01*
X413799Y343729D01*
X413828Y343744D01*
X413861Y343766D01*
X413894Y343791D01*
X413927Y343824D01*
X413952Y343861D01*
X413956Y343864D01*
X413963Y343879D01*
X413974Y343900D01*
X413988Y343930D01*
X413999Y343962D01*
X414010Y343999D01*
X414017Y344042D01*
X414021Y344086D01*
Y344090D01*
Y344093D01*
X414017Y344115D01*
X414014Y344148D01*
X414007Y344192D01*
X413988Y344235D01*
X413967Y344286D01*
X413934Y344334D01*
X413890Y344381D01*
X413883Y344385D01*
X413865Y344399D01*
X413835Y344417D01*
X413788Y344439D01*
X413734Y344461D01*
X413661Y344479D01*
X413577Y344494D01*
X413479Y344497D01*
D02*
G37*
G36*
X483165Y314051D02*
X482415D01*
X482372Y314048D01*
X482321Y314044D01*
X482262Y314040D01*
X482204Y314033D01*
X482146Y314022D01*
X482095Y314008D01*
X482088Y314004D01*
X482073Y313997D01*
X482051Y313986D01*
X482022Y313971D01*
X481989Y313949D01*
X481957Y313924D01*
X481924Y313891D01*
X481898Y313855D01*
X481895Y313851D01*
X481887Y313837D01*
X481877Y313815D01*
X481862Y313786D01*
X481851Y313753D01*
X481840Y313716D01*
X481833Y313673D01*
X481829Y313629D01*
Y313625D01*
Y313622D01*
X481833Y313600D01*
X481837Y313567D01*
X481844Y313524D01*
X481862Y313480D01*
X481884Y313429D01*
X481917Y313382D01*
X481960Y313334D01*
X481968Y313331D01*
X481986Y313316D01*
X482015Y313298D01*
X482062Y313276D01*
X482117Y313254D01*
X482190Y313236D01*
X482273Y313221D01*
X482372Y313218D01*
X483165D01*
Y314051D01*
D02*
G37*
G36*
X483319Y323095D02*
X482569D01*
X482525Y323091D01*
X482474Y323088D01*
X482416Y323084D01*
X482358Y323077D01*
X482300Y323066D01*
X482248Y323051D01*
X482241Y323048D01*
X482227Y323040D01*
X482205Y323029D01*
X482176Y323015D01*
X482143Y322993D01*
X482110Y322968D01*
X482078Y322935D01*
X482052Y322898D01*
X482048Y322895D01*
X482041Y322880D01*
X482030Y322858D01*
X482016Y322829D01*
X482005Y322797D01*
X481994Y322760D01*
X481986Y322716D01*
X481983Y322673D01*
Y322669D01*
Y322666D01*
X481986Y322644D01*
X481990Y322611D01*
X481997Y322567D01*
X482016Y322523D01*
X482037Y322473D01*
X482070Y322425D01*
X482114Y322378D01*
X482121Y322374D01*
X482139Y322360D01*
X482168Y322341D01*
X482216Y322320D01*
X482270Y322298D01*
X482343Y322280D01*
X482427Y322265D01*
X482525Y322261D01*
X483319D01*
Y323095D01*
D02*
G37*
G36*
X481047Y323612D02*
X480254D01*
Y322483D01*
X481047Y323612D01*
D02*
G37*
G36*
X484782Y335782D02*
X483988D01*
Y334949D01*
X484738D01*
X484782Y334952D01*
X484833Y334956D01*
X484891Y334960D01*
X484949Y334967D01*
X485008Y334978D01*
X485058Y334992D01*
X485066Y334996D01*
X485080Y335003D01*
X485102Y335014D01*
X485131Y335029D01*
X485164Y335051D01*
X485197Y335076D01*
X485230Y335109D01*
X485255Y335145D01*
X485259Y335149D01*
X485266Y335163D01*
X485277Y335185D01*
X485291Y335214D01*
X485302Y335247D01*
X485313Y335284D01*
X485321Y335327D01*
X485324Y335371D01*
Y335374D01*
Y335378D01*
X485321Y335400D01*
X485317Y335433D01*
X485310Y335476D01*
X485291Y335520D01*
X485270Y335571D01*
X485237Y335618D01*
X485193Y335666D01*
X485186Y335669D01*
X485168Y335684D01*
X485139Y335702D01*
X485091Y335724D01*
X485037Y335746D01*
X484964Y335764D01*
X484880Y335779D01*
X484782Y335782D01*
D02*
G37*
G36*
X486754Y344405D02*
X486732D01*
X486718Y344401D01*
X486681Y344398D01*
X486630Y344387D01*
X486576Y344369D01*
X486514Y344339D01*
X486456Y344303D01*
X486397Y344252D01*
X486390Y344245D01*
X486376Y344227D01*
X486350Y344194D01*
X486325Y344146D01*
X486299Y344092D01*
X486274Y344023D01*
X486259Y343946D01*
X486252Y343859D01*
Y343852D01*
Y343833D01*
X486255Y343801D01*
X486259Y343761D01*
X486266Y343713D01*
X486281Y343662D01*
X486296Y343608D01*
X486317Y343553D01*
X486321Y343546D01*
X486332Y343528D01*
X486346Y343502D01*
X486368Y343470D01*
X486394Y343437D01*
X486426Y343397D01*
X486463Y343364D01*
X486507Y343331D01*
X486514Y343328D01*
X486528Y343320D01*
X486554Y343306D01*
X486587Y343295D01*
X486623Y343280D01*
X486667Y343266D01*
X486714Y343258D01*
X486765Y343255D01*
X486783D01*
X486798Y343258D01*
X486834Y343262D01*
X486881Y343273D01*
X486933Y343295D01*
X486991Y343320D01*
X487049Y343360D01*
X487078Y343382D01*
X487104Y343411D01*
Y343415D01*
X487111Y343419D01*
X487125Y343440D01*
X487147Y343477D01*
X487176Y343524D01*
X487202Y343586D01*
X487224Y343659D01*
X487238Y343742D01*
X487246Y343841D01*
Y343844D01*
Y343852D01*
Y343866D01*
X487242Y343884D01*
Y343906D01*
X487238Y343932D01*
X487227Y343990D01*
X487213Y344056D01*
X487187Y344125D01*
X487151Y344190D01*
X487104Y344252D01*
X487096Y344259D01*
X487078Y344278D01*
X487049Y344299D01*
X487009Y344328D01*
X486958Y344358D01*
X486900Y344379D01*
X486831Y344398D01*
X486754Y344405D01*
D02*
G37*
G36*
X484628Y345282D02*
X483835D01*
Y344449D01*
X484585D01*
X484628Y344452D01*
X484679Y344456D01*
X484738Y344460D01*
X484796Y344467D01*
X484854Y344478D01*
X484905Y344492D01*
X484912Y344496D01*
X484927Y344503D01*
X484949Y344514D01*
X484978Y344529D01*
X485010Y344551D01*
X485043Y344576D01*
X485076Y344609D01*
X485102Y344645D01*
X485105Y344649D01*
X485112Y344663D01*
X485123Y344685D01*
X485138Y344714D01*
X485149Y344747D01*
X485160Y344784D01*
X485167Y344827D01*
X485171Y344871D01*
Y344875D01*
Y344878D01*
X485167Y344900D01*
X485163Y344933D01*
X485156Y344976D01*
X485138Y345020D01*
X485116Y345071D01*
X485083Y345118D01*
X485040Y345166D01*
X485032Y345169D01*
X485014Y345184D01*
X484985Y345202D01*
X484938Y345224D01*
X484883Y345246D01*
X484810Y345264D01*
X484727Y345279D01*
X484628Y345282D01*
D02*
G37*
%LPD*%
D14*
X417118Y315335D02*
Y319665D01*
X406882D02*
X417118D01*
X406882Y315335D02*
Y319665D01*
Y315335D02*
X417118D01*
X407232Y340835D02*
Y345165D01*
Y340835D02*
X417469D01*
Y345165D01*
X407232D02*
X417469D01*
X489012Y313335D02*
Y317665D01*
X477988D02*
X489012D01*
X477988Y313335D02*
Y317665D01*
Y313335D02*
X489012D01*
X489165Y322335D02*
Y326665D01*
X478142D02*
X489165D01*
X478142Y322335D02*
Y326665D01*
Y322335D02*
X489165D01*
X478142Y331335D02*
Y335665D01*
Y331335D02*
X489165D01*
Y335665D01*
X478142D02*
X489165D01*
X477988Y340835D02*
Y345165D01*
Y340835D02*
X489012D01*
Y345165D01*
X477988D02*
X489012D01*
D63*
X411689Y325138D02*
Y329862D01*
X407752Y325138D02*
Y329862D01*
Y325138D02*
X411689D01*
X407752Y329862D02*
X411689D01*
X373406Y305378D02*
Y352622D01*
X403524Y311402D02*
Y346598D01*
X371437D02*
X403524D01*
X371437Y311402D02*
X403524D01*
X371437D02*
Y346598D01*
M02*
