G04*
G04 #@! TF.GenerationSoftware,Altium Limited,Altium Designer,23.1.1 (15)*
G04*
G04 Layer_Color=128*
%FSLAX25Y25*%
%MOIN*%
G70*
G04*
G04 #@! TF.SameCoordinates,1495F0C7-D67D-4403-963C-54D1E027F531*
G04*
G04*
G04 #@! TF.FilePolarity,Positive*
G04*
G01*
G75*
%ADD66C,0.00500*%
D66*
X399193Y346008D02*
X401555D01*
X400374Y344827D02*
Y347189D01*
X396634Y313173D02*
X398996D01*
X397815Y311992D02*
Y314354D01*
X399193Y311992D02*
X401555D01*
X400374Y310811D02*
Y313173D01*
X391319Y343173D02*
X393681D01*
X392500Y341992D02*
Y344354D01*
X391772Y314827D02*
X393740D01*
X392756Y313843D02*
Y315811D01*
X379114Y346008D02*
X381870D01*
X380492Y344630D02*
Y347386D01*
X379114Y311992D02*
X381870D01*
X380492Y310614D02*
Y313370D01*
X396634Y344827D02*
X398996D01*
X397815Y343646D02*
Y346008D01*
X428319Y357000D02*
X430681D01*
X429500Y355819D02*
Y358181D01*
X433319Y357000D02*
X435681D01*
X434500Y355819D02*
Y358181D01*
X438319Y357000D02*
X440681D01*
X439500Y355819D02*
Y358181D01*
X443319Y357000D02*
X445681D01*
X444500Y355819D02*
Y358181D01*
X473906Y313144D02*
X474906D01*
X474406Y312644D02*
Y313644D01*
X463300Y307100D02*
X464300D01*
X463800Y306600D02*
Y307600D01*
X487000Y306500D02*
X488000D01*
X487500Y306000D02*
Y307000D01*
X436500Y347500D02*
X437500D01*
X437000Y347000D02*
Y348000D01*
X475800Y323600D02*
X476800D01*
X476300Y323100D02*
Y324100D01*
X452500Y340800D02*
X453500D01*
X453000Y340300D02*
Y341300D01*
X457100Y325000D02*
X458300D01*
X457700Y324400D02*
Y325600D01*
X447100Y325000D02*
X448300D01*
X447700Y324400D02*
Y325600D01*
X457100Y332000D02*
X458300D01*
X457700Y331400D02*
Y332600D01*
X447300Y331900D02*
X448500D01*
X447900Y331300D02*
Y332500D01*
X385957Y318654D02*
X387157D01*
X386557Y318054D02*
Y319254D01*
X377357Y318854D02*
X378557D01*
X377957Y318254D02*
Y319454D01*
X384557Y324854D02*
X385757D01*
X385157Y324254D02*
Y325454D01*
X377457Y324954D02*
X378657D01*
X378057Y324354D02*
Y325554D01*
X384257Y331654D02*
X385457D01*
X384857Y331054D02*
Y332254D01*
X377157Y331954D02*
X378357D01*
X377757Y331354D02*
Y332554D01*
X385900Y338600D02*
X387100D01*
X386500Y338000D02*
Y339200D01*
X377557Y338554D02*
X378757D01*
X378157Y337954D02*
Y339154D01*
X476300Y333500D02*
X477300D01*
X476800Y333000D02*
Y334000D01*
X476500Y343400D02*
X477500D01*
X477000Y342900D02*
Y343900D01*
X450514Y349006D02*
X451514D01*
X451014Y348506D02*
Y349506D01*
X412400Y321700D02*
X413600D01*
X413000Y321100D02*
Y322300D01*
X459100Y306900D02*
X460100D01*
X459600Y306400D02*
Y307400D01*
X424200Y300500D02*
X425200D01*
X424700Y300000D02*
Y301000D01*
X448547Y341187D02*
X449547D01*
X449047Y340687D02*
Y341687D01*
X446579Y348903D02*
X447579D01*
X447079Y348403D02*
Y349403D01*
X427400Y328400D02*
X428400D01*
X427900Y327900D02*
Y328900D01*
X427200Y339000D02*
X428200D01*
X427700Y338500D02*
Y339500D01*
X417500Y317500D02*
X418500D01*
X418000Y317000D02*
Y318000D01*
X392500Y327500D02*
X393500D01*
X393000Y327000D02*
Y328000D01*
X392500Y331000D02*
X393500D01*
X393000Y330500D02*
Y331500D01*
X408000D02*
X409000D01*
X408500Y331000D02*
Y332000D01*
X406400Y323500D02*
X407600D01*
X407000Y322900D02*
Y324100D01*
M02*
