G04*
G04 #@! TF.GenerationSoftware,Altium Limited,Altium Designer,23.1.1 (15)*
G04*
G04 Layer_Color=8388736*
%FSLAX25Y25*%
%MOIN*%
G70*
G04*
G04 #@! TF.SameCoordinates,1495F0C7-D67D-4403-963C-54D1E027F531*
G04*
G04*
G04 #@! TF.FilePolarity,Negative*
G04*
G01*
G75*
%ADD19R,0.03150X0.03150*%
%ADD25R,0.03100X0.03100*%
%ADD27R,0.03543X0.03150*%
%ADD30O,0.14580X0.04816*%
%ADD31R,0.14580X0.04816*%
%ADD32R,0.03950X0.04737*%
G04:AMPARAMS|DCode=33|XSize=15.87mil|YSize=24.54mil|CornerRadius=5.97mil|HoleSize=0mil|Usage=FLASHONLY|Rotation=270.000|XOffset=0mil|YOffset=0mil|HoleType=Round|Shape=RoundedRectangle|*
%AMROUNDEDRECTD33*
21,1,0.01587,0.01260,0,0,270.0*
21,1,0.00394,0.02454,0,0,270.0*
1,1,0.01194,-0.00630,-0.00197*
1,1,0.01194,-0.00630,0.00197*
1,1,0.01194,0.00630,0.00197*
1,1,0.01194,0.00630,-0.00197*
%
%ADD33ROUNDEDRECTD33*%
%ADD34R,0.04343X0.04934*%
G04:AMPARAMS|DCode=35|XSize=18.63mil|YSize=43.43mil|CornerRadius=5.33mil|HoleSize=0mil|Usage=FLASHONLY|Rotation=270.000|XOffset=0mil|YOffset=0mil|HoleType=Round|Shape=RoundedRectangle|*
%AMROUNDEDRECTD35*
21,1,0.01863,0.03278,0,0,270.0*
21,1,0.00797,0.04343,0,0,270.0*
1,1,0.01066,-0.01639,-0.00399*
1,1,0.01066,-0.01639,0.00399*
1,1,0.01066,0.01639,0.00399*
1,1,0.01066,0.01639,-0.00399*
%
%ADD35ROUNDEDRECTD35*%
G04:AMPARAMS|DCode=36|XSize=18.63mil|YSize=39.5mil|CornerRadius=5.33mil|HoleSize=0mil|Usage=FLASHONLY|Rotation=270.000|XOffset=0mil|YOffset=0mil|HoleType=Round|Shape=RoundedRectangle|*
%AMROUNDEDRECTD36*
21,1,0.01863,0.02884,0,0,270.0*
21,1,0.00797,0.03950,0,0,270.0*
1,1,0.01066,-0.01442,-0.00399*
1,1,0.01066,-0.01442,0.00399*
1,1,0.01066,0.01442,0.00399*
1,1,0.01066,0.01442,-0.00399*
%
%ADD36ROUNDEDRECTD36*%
%ADD37R,0.04540X0.04540*%
%ADD38O,0.01900X0.07887*%
%ADD39O,0.07887X0.01900*%
%ADD40O,0.09855X0.05524*%
%ADD41O,0.04737X0.06706*%
%ADD42C,0.00800*%
%ADD43O,0.11036X0.05918*%
%ADD44O,0.03950X0.05524*%
%ADD45R,0.03950X0.05524*%
%ADD46C,0.02800*%
D19*
X420748Y300500D02*
D03*
X414252D02*
D03*
X408850Y317500D02*
D03*
X415150D02*
D03*
X415500Y343000D02*
D03*
X409201D02*
D03*
D25*
X400600Y356000D02*
D03*
X406500D02*
D03*
D27*
X480154Y315500D02*
D03*
X486846D02*
D03*
X480307Y324500D02*
D03*
X487000D02*
D03*
Y333500D02*
D03*
X480307D02*
D03*
X486846Y343000D02*
D03*
X480154D02*
D03*
D30*
X500500Y314000D02*
D03*
Y334000D02*
D03*
Y344000D02*
D03*
Y324000D02*
D03*
Y304000D02*
D03*
D31*
Y354000D02*
D03*
D32*
X406469Y300500D02*
D03*
X400563D02*
D03*
X422047Y323699D02*
D03*
X427953D02*
D03*
X414258Y356000D02*
D03*
X420164D02*
D03*
X468000Y303000D02*
D03*
X473906D02*
D03*
D33*
X411000Y325925D02*
D03*
Y327500D02*
D03*
Y329075D02*
D03*
X408441Y325925D02*
D03*
Y327500D02*
D03*
Y329075D02*
D03*
D34*
X422244Y330399D02*
D03*
X427756D02*
D03*
X422244Y337000D02*
D03*
X427756D02*
D03*
D35*
X403130Y317681D02*
D03*
Y319650D02*
D03*
Y321618D02*
D03*
Y323587D02*
D03*
Y325555D02*
D03*
Y327524D02*
D03*
Y329492D02*
D03*
Y331461D02*
D03*
Y333429D02*
D03*
Y335398D02*
D03*
Y337366D02*
D03*
Y339335D02*
D03*
D36*
X396831Y340319D02*
D03*
Y338350D02*
D03*
Y336382D02*
D03*
Y334413D02*
D03*
Y332445D02*
D03*
Y330476D02*
D03*
Y328508D02*
D03*
Y326539D02*
D03*
Y324571D02*
D03*
Y322602D02*
D03*
Y320634D02*
D03*
Y318665D02*
D03*
D37*
X468039Y355500D02*
D03*
X472961D02*
D03*
X459961D02*
D03*
X455039D02*
D03*
X427461Y317000D02*
D03*
X459413Y303000D02*
D03*
X422539Y317000D02*
D03*
X454492Y303000D02*
D03*
D38*
X441173Y312955D02*
D03*
X443142D02*
D03*
X445110D02*
D03*
X447079D02*
D03*
X449047D02*
D03*
X451016D02*
D03*
X452984D02*
D03*
X454953D02*
D03*
X456921D02*
D03*
X458890D02*
D03*
X460858D02*
D03*
X462827D02*
D03*
Y345045D02*
D03*
X460858D02*
D03*
X458890D02*
D03*
X456921D02*
D03*
X454953D02*
D03*
X452984D02*
D03*
X451016D02*
D03*
X449047D02*
D03*
X447079D02*
D03*
X445110D02*
D03*
X443142D02*
D03*
X441173D02*
D03*
D39*
X468045Y318173D02*
D03*
Y320142D02*
D03*
Y322110D02*
D03*
Y324079D02*
D03*
Y326047D02*
D03*
Y328016D02*
D03*
Y329984D02*
D03*
Y331953D02*
D03*
Y333921D02*
D03*
Y335890D02*
D03*
Y337858D02*
D03*
Y339827D02*
D03*
X435955D02*
D03*
Y337858D02*
D03*
Y335890D02*
D03*
Y333921D02*
D03*
Y331953D02*
D03*
Y329984D02*
D03*
Y328016D02*
D03*
Y326047D02*
D03*
Y324079D02*
D03*
Y322110D02*
D03*
Y320142D02*
D03*
Y318173D02*
D03*
D40*
X400374Y346008D02*
D03*
Y311992D02*
D03*
D41*
X397815Y313173D02*
D03*
Y344827D02*
D03*
D42*
X392500Y343173D02*
D03*
X392756Y314827D02*
D03*
D43*
X380492Y346008D02*
D03*
Y311992D02*
D03*
D44*
X429500Y357000D02*
D03*
X434500D02*
D03*
X439500D02*
D03*
D45*
X444500D02*
D03*
D46*
X474406Y313144D02*
D03*
X463800Y307100D02*
D03*
X487500Y306500D02*
D03*
X437000Y347500D02*
D03*
X476300Y323600D02*
D03*
X453000Y340800D02*
D03*
X457700Y325000D02*
D03*
X447700D02*
D03*
X457700Y332000D02*
D03*
X447900Y331900D02*
D03*
X386557Y318654D02*
D03*
X377957Y318854D02*
D03*
X385157Y324854D02*
D03*
X378057Y324954D02*
D03*
X384857Y331654D02*
D03*
X377757Y331954D02*
D03*
X386500Y338600D02*
D03*
X378157Y338554D02*
D03*
X476800Y333500D02*
D03*
X477000Y343400D02*
D03*
X451014Y349006D02*
D03*
X413000Y321700D02*
D03*
X459600Y306900D02*
D03*
X424700Y300500D02*
D03*
X449047Y341187D02*
D03*
X447079Y348903D02*
D03*
X427900Y328400D02*
D03*
X427700Y339000D02*
D03*
X418000Y317500D02*
D03*
X393000Y327500D02*
D03*
Y331000D02*
D03*
X408500Y331500D02*
D03*
X407000Y323500D02*
D03*
M02*
