G04*
G04 #@! TF.GenerationSoftware,Altium Limited,Altium Designer,23.1.1 (15)*
G04*
G04 Layer_Color=32896*
%FSLAX25Y25*%
%MOIN*%
G70*
G04*
G04 #@! TF.SameCoordinates,1495F0C7-D67D-4403-963C-54D1E027F531*
G04*
G04*
G04 #@! TF.FilePolarity,Positive*
G04*
G01*
G75*
%ADD13C,0.01000*%
%ADD14C,0.00787*%
%ADD16C,0.00400*%
%ADD62C,0.00700*%
G36*
X504537Y301261D02*
X504005D01*
X502506Y305102D01*
X503022D01*
X504066Y302310D01*
X504110Y302193D01*
X504149Y302082D01*
X504182Y301977D01*
X504210Y301883D01*
X504238Y301800D01*
X504254Y301738D01*
X504260Y301716D01*
X504265Y301700D01*
X504271Y301689D01*
Y301683D01*
X504338Y301905D01*
X504371Y302010D01*
X504404Y302105D01*
X504432Y302188D01*
X504443Y302221D01*
X504449Y302255D01*
X504460Y302277D01*
X504465Y302293D01*
X504471Y302305D01*
Y302310D01*
X505470Y305102D01*
X506025D01*
X504537Y301261D01*
D02*
G37*
G36*
X500569Y305157D02*
X500747Y305130D01*
X500902Y305096D01*
X500974Y305074D01*
X501041Y305052D01*
X501102Y305030D01*
X501158Y305007D01*
X501202Y304991D01*
X501246Y304974D01*
X501274Y304957D01*
X501296Y304946D01*
X501313Y304941D01*
X501319Y304935D01*
X501468Y304841D01*
X501596Y304730D01*
X501707Y304619D01*
X501801Y304508D01*
X501873Y304408D01*
X501901Y304364D01*
X501923Y304325D01*
X501946Y304297D01*
X501957Y304275D01*
X501962Y304258D01*
X501968Y304253D01*
X502045Y304081D01*
X502101Y303903D01*
X502140Y303725D01*
X502168Y303564D01*
X502179Y303492D01*
X502184Y303420D01*
X502190Y303365D01*
Y303309D01*
X502195Y303270D01*
Y303237D01*
Y303215D01*
Y303209D01*
X502184Y303009D01*
X502162Y302815D01*
X502134Y302643D01*
X502112Y302560D01*
X502096Y302488D01*
X502079Y302421D01*
X502057Y302360D01*
X502040Y302305D01*
X502029Y302260D01*
X502012Y302227D01*
X502007Y302199D01*
X501996Y302182D01*
Y302177D01*
X501912Y302010D01*
X501818Y301860D01*
X501718Y301733D01*
X501668Y301683D01*
X501624Y301633D01*
X501579Y301589D01*
X501535Y301550D01*
X501496Y301516D01*
X501463Y301494D01*
X501441Y301472D01*
X501418Y301455D01*
X501407Y301450D01*
X501402Y301444D01*
X501324Y301400D01*
X501246Y301361D01*
X501080Y301300D01*
X500913Y301256D01*
X500752Y301228D01*
X500675Y301217D01*
X500608Y301206D01*
X500547Y301200D01*
X500497D01*
X500453Y301195D01*
X500392D01*
X500281Y301200D01*
X500175Y301211D01*
X500075Y301222D01*
X499981Y301244D01*
X499892Y301272D01*
X499809Y301300D01*
X499731Y301328D01*
X499659Y301361D01*
X499598Y301389D01*
X499537Y301416D01*
X499493Y301444D01*
X499448Y301472D01*
X499420Y301494D01*
X499393Y301505D01*
X499381Y301516D01*
X499376Y301522D01*
X499298Y301589D01*
X499232Y301655D01*
X499171Y301733D01*
X499110Y301811D01*
X499010Y301966D01*
X498932Y302121D01*
X498899Y302193D01*
X498871Y302260D01*
X498849Y302321D01*
X498832Y302371D01*
X498815Y302415D01*
X498804Y302449D01*
X498799Y302471D01*
Y302477D01*
X499309Y302604D01*
X499332Y302515D01*
X499359Y302432D01*
X499387Y302355D01*
X499415Y302282D01*
X499448Y302216D01*
X499481Y302160D01*
X499520Y302105D01*
X499554Y302055D01*
X499581Y302010D01*
X499615Y301977D01*
X499642Y301944D01*
X499665Y301916D01*
X499687Y301899D01*
X499703Y301883D01*
X499709Y301877D01*
X499715Y301872D01*
X499770Y301827D01*
X499831Y301794D01*
X499953Y301733D01*
X500070Y301689D01*
X500186Y301661D01*
X500286Y301639D01*
X500325Y301633D01*
X500364D01*
X500397Y301627D01*
X500436D01*
X500564Y301633D01*
X500686Y301655D01*
X500797Y301683D01*
X500897Y301716D01*
X500974Y301749D01*
X501008Y301766D01*
X501035Y301777D01*
X501058Y301788D01*
X501074Y301800D01*
X501085Y301805D01*
X501091D01*
X501196Y301883D01*
X501285Y301966D01*
X501363Y302060D01*
X501424Y302149D01*
X501474Y302227D01*
X501507Y302293D01*
X501518Y302321D01*
X501529Y302338D01*
X501535Y302349D01*
Y302355D01*
X501579Y302499D01*
X501613Y302643D01*
X501640Y302787D01*
X501657Y302921D01*
X501663Y302982D01*
X501668Y303037D01*
Y303087D01*
X501674Y303126D01*
Y303159D01*
Y303187D01*
Y303204D01*
Y303209D01*
X501668Y303354D01*
X501657Y303487D01*
X501635Y303609D01*
X501613Y303720D01*
X501596Y303814D01*
X501585Y303853D01*
X501574Y303886D01*
X501568Y303914D01*
X501563Y303931D01*
X501557Y303942D01*
Y303947D01*
X501502Y304075D01*
X501441Y304191D01*
X501374Y304286D01*
X501302Y304369D01*
X501241Y304436D01*
X501191Y304480D01*
X501152Y304508D01*
X501146Y304519D01*
X501141D01*
X501024Y304591D01*
X500897Y304647D01*
X500775Y304685D01*
X500658Y304708D01*
X500553Y304724D01*
X500508Y304730D01*
X500469D01*
X500442Y304735D01*
X500397D01*
X500258Y304730D01*
X500131Y304708D01*
X500025Y304674D01*
X499931Y304641D01*
X499859Y304602D01*
X499803Y304574D01*
X499770Y304552D01*
X499759Y304541D01*
X499670Y304458D01*
X499587Y304364D01*
X499520Y304264D01*
X499465Y304164D01*
X499420Y304075D01*
X499404Y304031D01*
X499393Y303997D01*
X499381Y303970D01*
X499370Y303947D01*
X499365Y303936D01*
Y303931D01*
X498865Y304047D01*
X498899Y304147D01*
X498932Y304236D01*
X498976Y304319D01*
X499015Y304402D01*
X499060Y304475D01*
X499110Y304541D01*
X499154Y304608D01*
X499198Y304663D01*
X499243Y304708D01*
X499282Y304752D01*
X499321Y304791D01*
X499348Y304819D01*
X499376Y304846D01*
X499398Y304863D01*
X499409Y304869D01*
X499415Y304874D01*
X499493Y304924D01*
X499570Y304974D01*
X499648Y305013D01*
X499731Y305046D01*
X499898Y305096D01*
X500047Y305130D01*
X500120Y305146D01*
X500181Y305152D01*
X500242Y305157D01*
X500292Y305163D01*
X500331Y305168D01*
X500386D01*
X500569Y305157D01*
D02*
G37*
G36*
X496695D02*
X496873Y305130D01*
X497028Y305096D01*
X497100Y305074D01*
X497167Y305052D01*
X497228Y305030D01*
X497284Y305007D01*
X497328Y304991D01*
X497372Y304974D01*
X497400Y304957D01*
X497422Y304946D01*
X497439Y304941D01*
X497445Y304935D01*
X497594Y304841D01*
X497722Y304730D01*
X497833Y304619D01*
X497927Y304508D01*
X498000Y304408D01*
X498027Y304364D01*
X498049Y304325D01*
X498072Y304297D01*
X498083Y304275D01*
X498088Y304258D01*
X498094Y304253D01*
X498172Y304081D01*
X498227Y303903D01*
X498266Y303725D01*
X498294Y303564D01*
X498305Y303492D01*
X498310Y303420D01*
X498316Y303365D01*
Y303309D01*
X498321Y303270D01*
Y303237D01*
Y303215D01*
Y303209D01*
X498310Y303009D01*
X498288Y302815D01*
X498260Y302643D01*
X498238Y302560D01*
X498222Y302488D01*
X498205Y302421D01*
X498183Y302360D01*
X498166Y302305D01*
X498155Y302260D01*
X498138Y302227D01*
X498133Y302199D01*
X498122Y302182D01*
Y302177D01*
X498038Y302010D01*
X497944Y301860D01*
X497844Y301733D01*
X497794Y301683D01*
X497750Y301633D01*
X497705Y301589D01*
X497661Y301550D01*
X497622Y301516D01*
X497589Y301494D01*
X497567Y301472D01*
X497544Y301455D01*
X497533Y301450D01*
X497528Y301444D01*
X497450Y301400D01*
X497372Y301361D01*
X497206Y301300D01*
X497039Y301256D01*
X496878Y301228D01*
X496801Y301217D01*
X496734Y301206D01*
X496673Y301200D01*
X496623D01*
X496579Y301195D01*
X496518D01*
X496407Y301200D01*
X496301Y301211D01*
X496201Y301222D01*
X496107Y301244D01*
X496018Y301272D01*
X495935Y301300D01*
X495857Y301328D01*
X495785Y301361D01*
X495724Y301389D01*
X495663Y301416D01*
X495619Y301444D01*
X495574Y301472D01*
X495546Y301494D01*
X495519Y301505D01*
X495508Y301516D01*
X495502Y301522D01*
X495424Y301589D01*
X495358Y301655D01*
X495297Y301733D01*
X495236Y301811D01*
X495136Y301966D01*
X495058Y302121D01*
X495025Y302193D01*
X494997Y302260D01*
X494975Y302321D01*
X494958Y302371D01*
X494942Y302415D01*
X494930Y302449D01*
X494925Y302471D01*
Y302477D01*
X495435Y302604D01*
X495458Y302515D01*
X495485Y302432D01*
X495513Y302355D01*
X495541Y302282D01*
X495574Y302216D01*
X495608Y302160D01*
X495646Y302105D01*
X495680Y302055D01*
X495707Y302010D01*
X495741Y301977D01*
X495768Y301944D01*
X495791Y301916D01*
X495813Y301899D01*
X495829Y301883D01*
X495835Y301877D01*
X495841Y301872D01*
X495896Y301827D01*
X495957Y301794D01*
X496079Y301733D01*
X496196Y301689D01*
X496312Y301661D01*
X496412Y301639D01*
X496451Y301633D01*
X496490D01*
X496523Y301627D01*
X496562D01*
X496690Y301633D01*
X496812Y301655D01*
X496923Y301683D01*
X497023Y301716D01*
X497100Y301749D01*
X497134Y301766D01*
X497161Y301777D01*
X497184Y301788D01*
X497200Y301800D01*
X497212Y301805D01*
X497217D01*
X497323Y301883D01*
X497411Y301966D01*
X497489Y302060D01*
X497550Y302149D01*
X497600Y302227D01*
X497633Y302293D01*
X497644Y302321D01*
X497655Y302338D01*
X497661Y302349D01*
Y302355D01*
X497705Y302499D01*
X497739Y302643D01*
X497766Y302787D01*
X497783Y302921D01*
X497789Y302982D01*
X497794Y303037D01*
Y303087D01*
X497800Y303126D01*
Y303159D01*
Y303187D01*
Y303204D01*
Y303209D01*
X497794Y303354D01*
X497783Y303487D01*
X497761Y303609D01*
X497739Y303720D01*
X497722Y303814D01*
X497711Y303853D01*
X497700Y303886D01*
X497694Y303914D01*
X497689Y303931D01*
X497683Y303942D01*
Y303947D01*
X497628Y304075D01*
X497567Y304191D01*
X497500Y304286D01*
X497428Y304369D01*
X497367Y304436D01*
X497317Y304480D01*
X497278Y304508D01*
X497272Y304519D01*
X497267D01*
X497150Y304591D01*
X497023Y304647D01*
X496901Y304685D01*
X496784Y304708D01*
X496679Y304724D01*
X496634Y304730D01*
X496595D01*
X496568Y304735D01*
X496523D01*
X496384Y304730D01*
X496257Y304708D01*
X496151Y304674D01*
X496057Y304641D01*
X495985Y304602D01*
X495929Y304574D01*
X495896Y304552D01*
X495885Y304541D01*
X495796Y304458D01*
X495713Y304364D01*
X495646Y304264D01*
X495591Y304164D01*
X495546Y304075D01*
X495530Y304031D01*
X495519Y303997D01*
X495508Y303970D01*
X495497Y303947D01*
X495491Y303936D01*
Y303931D01*
X494991Y304047D01*
X495025Y304147D01*
X495058Y304236D01*
X495103Y304319D01*
X495141Y304402D01*
X495186Y304475D01*
X495236Y304541D01*
X495280Y304608D01*
X495325Y304663D01*
X495369Y304708D01*
X495408Y304752D01*
X495447Y304791D01*
X495474Y304819D01*
X495502Y304846D01*
X495524Y304863D01*
X495535Y304869D01*
X495541Y304874D01*
X495619Y304924D01*
X495696Y304974D01*
X495774Y305013D01*
X495857Y305046D01*
X496024Y305096D01*
X496174Y305130D01*
X496246Y305146D01*
X496307Y305152D01*
X496368Y305157D01*
X496418Y305163D01*
X496457Y305168D01*
X496512D01*
X496695Y305157D01*
D02*
G37*
G36*
X501624Y311261D02*
X501091D01*
X500281Y314186D01*
X500258Y314258D01*
X500242Y314336D01*
X500220Y314413D01*
X500203Y314480D01*
X500186Y314541D01*
X500175Y314591D01*
X500170Y314624D01*
X500164Y314630D01*
Y314635D01*
X500159Y314619D01*
X500153Y314591D01*
X500136Y314530D01*
X500114Y314458D01*
X500092Y314380D01*
X500075Y314308D01*
X500059Y314247D01*
X500053Y314219D01*
X500047Y314203D01*
X500042Y314192D01*
Y314186D01*
X499237Y311261D01*
X498738D01*
X497683Y315102D01*
X498199D01*
X498799Y312632D01*
X498843Y312460D01*
X498876Y312304D01*
X498910Y312160D01*
X498938Y312038D01*
X498954Y311983D01*
X498960Y311933D01*
X498971Y311894D01*
X498976Y311860D01*
X498987Y311833D01*
Y311811D01*
X498993Y311800D01*
Y311794D01*
X499032Y312038D01*
X499082Y312277D01*
X499132Y312504D01*
X499154Y312610D01*
X499182Y312715D01*
X499204Y312810D01*
X499226Y312893D01*
X499248Y312965D01*
X499265Y313032D01*
X499276Y313082D01*
X499287Y313120D01*
X499298Y313148D01*
Y313154D01*
X499842Y315102D01*
X500458D01*
X501185Y312504D01*
X501191Y312482D01*
X501202Y312449D01*
X501213Y312404D01*
X501224Y312354D01*
X501241Y312299D01*
X501252Y312238D01*
X501285Y312116D01*
X501313Y311994D01*
X501330Y311938D01*
X501341Y311894D01*
X501346Y311849D01*
X501357Y311822D01*
X501363Y311800D01*
Y311794D01*
X501391Y311938D01*
X501418Y312083D01*
X501446Y312216D01*
X501474Y312332D01*
X501485Y312388D01*
X501496Y312438D01*
X501507Y312477D01*
X501513Y312515D01*
X501518Y312543D01*
X501524Y312565D01*
X501529Y312577D01*
Y312582D01*
X502101Y315102D01*
X502628D01*
X501624Y311261D01*
D02*
G37*
G36*
X497206D02*
X495824D01*
X495696Y311267D01*
X495580Y311272D01*
X495474Y311283D01*
X495386Y311294D01*
X495308Y311305D01*
X495252Y311311D01*
X495236Y311317D01*
X495219Y311322D01*
X495208D01*
X495108Y311350D01*
X495019Y311383D01*
X494942Y311411D01*
X494875Y311444D01*
X494819Y311472D01*
X494781Y311494D01*
X494758Y311511D01*
X494747Y311516D01*
X494675Y311566D01*
X494614Y311627D01*
X494553Y311683D01*
X494503Y311738D01*
X494459Y311788D01*
X494425Y311827D01*
X494403Y311855D01*
X494398Y311866D01*
X494342Y311955D01*
X494287Y312049D01*
X494242Y312138D01*
X494209Y312227D01*
X494176Y312304D01*
X494153Y312366D01*
X494148Y312388D01*
X494142Y312404D01*
X494137Y312416D01*
Y312421D01*
X494103Y312554D01*
X494076Y312687D01*
X494059Y312815D01*
X494042Y312937D01*
X494037Y313043D01*
Y313087D01*
X494031Y313126D01*
Y313154D01*
Y313181D01*
Y313193D01*
Y313198D01*
X494037Y313387D01*
X494054Y313559D01*
X494081Y313714D01*
X494092Y313786D01*
X494109Y313847D01*
X494126Y313909D01*
X494137Y313958D01*
X494148Y314003D01*
X494165Y314042D01*
X494170Y314075D01*
X494181Y314097D01*
X494187Y314108D01*
Y314114D01*
X494248Y314258D01*
X494320Y314386D01*
X494398Y314497D01*
X494470Y314591D01*
X494536Y314669D01*
X494592Y314724D01*
X494614Y314741D01*
X494631Y314758D01*
X494636Y314763D01*
X494642Y314769D01*
X494731Y314841D01*
X494825Y314896D01*
X494919Y314946D01*
X495008Y314985D01*
X495086Y315013D01*
X495147Y315030D01*
X495169Y315041D01*
X495186D01*
X495197Y315046D01*
X495202D01*
X495297Y315063D01*
X495408Y315079D01*
X495519Y315091D01*
X495630Y315096D01*
X495730Y315102D01*
X497206D01*
Y311261D01*
D02*
G37*
G36*
X504676Y315163D02*
X504804Y315146D01*
X504926Y315124D01*
X505031Y315102D01*
X505115Y315079D01*
X505154Y315068D01*
X505181Y315057D01*
X505203Y315046D01*
X505220Y315041D01*
X505231Y315035D01*
X505237D01*
X505348Y314980D01*
X505448Y314919D01*
X505531Y314852D01*
X505597Y314791D01*
X505648Y314735D01*
X505686Y314691D01*
X505714Y314658D01*
X505720Y314652D01*
Y314647D01*
X505775Y314552D01*
X505814Y314458D01*
X505842Y314364D01*
X505858Y314280D01*
X505869Y314208D01*
X505881Y314153D01*
Y314130D01*
Y314114D01*
Y314108D01*
Y314103D01*
X505875Y314008D01*
X505858Y313920D01*
X505836Y313836D01*
X505814Y313764D01*
X505792Y313709D01*
X505770Y313664D01*
X505753Y313636D01*
X505747Y313625D01*
X505692Y313548D01*
X505625Y313476D01*
X505559Y313415D01*
X505492Y313365D01*
X505437Y313320D01*
X505387Y313292D01*
X505353Y313270D01*
X505348Y313265D01*
X505342D01*
X505298Y313243D01*
X505248Y313220D01*
X505137Y313181D01*
X505009Y313143D01*
X504887Y313104D01*
X504776Y313070D01*
X504726Y313059D01*
X504682Y313048D01*
X504648Y313037D01*
X504621Y313032D01*
X504604Y313026D01*
X504599D01*
X504504Y313004D01*
X504415Y312982D01*
X504338Y312959D01*
X504271Y312943D01*
X504205Y312926D01*
X504149Y312910D01*
X504099Y312898D01*
X504060Y312882D01*
X504021Y312871D01*
X503994Y312865D01*
X503949Y312848D01*
X503921Y312843D01*
X503916Y312837D01*
X503833Y312804D01*
X503760Y312765D01*
X503699Y312726D01*
X503655Y312693D01*
X503616Y312660D01*
X503594Y312637D01*
X503577Y312621D01*
X503572Y312615D01*
X503533Y312565D01*
X503505Y312510D01*
X503488Y312454D01*
X503472Y312410D01*
X503466Y312366D01*
X503461Y312332D01*
Y312304D01*
Y312299D01*
X503466Y312232D01*
X503477Y312171D01*
X503494Y312116D01*
X503516Y312071D01*
X503539Y312027D01*
X503555Y311999D01*
X503566Y311977D01*
X503572Y311971D01*
X503616Y311916D01*
X503672Y311872D01*
X503727Y311833D01*
X503777Y311794D01*
X503827Y311772D01*
X503866Y311750D01*
X503894Y311738D01*
X503905Y311733D01*
X503988Y311705D01*
X504077Y311683D01*
X504166Y311672D01*
X504243Y311661D01*
X504310Y311655D01*
X504365Y311650D01*
X504415D01*
X504537Y311655D01*
X504648Y311666D01*
X504748Y311683D01*
X504837Y311705D01*
X504909Y311727D01*
X504965Y311744D01*
X504982Y311750D01*
X504998Y311755D01*
X505004Y311761D01*
X505009D01*
X505098Y311805D01*
X505181Y311855D01*
X505242Y311905D01*
X505298Y311955D01*
X505342Y311994D01*
X505370Y312033D01*
X505387Y312055D01*
X505392Y312060D01*
X505431Y312133D01*
X505470Y312210D01*
X505492Y312293D01*
X505514Y312366D01*
X505531Y312438D01*
X505542Y312488D01*
Y312510D01*
X505548Y312526D01*
Y312532D01*
Y312538D01*
X506025Y312493D01*
X506014Y312354D01*
X505992Y312221D01*
X505958Y312105D01*
X505919Y311999D01*
X505881Y311916D01*
X505864Y311883D01*
X505853Y311855D01*
X505836Y311833D01*
X505831Y311816D01*
X505820Y311805D01*
Y311800D01*
X505736Y311694D01*
X505648Y311600D01*
X505553Y311522D01*
X505464Y311455D01*
X505387Y311405D01*
X505320Y311372D01*
X505298Y311361D01*
X505281Y311350D01*
X505270Y311344D01*
X505265D01*
X505126Y311294D01*
X504982Y311256D01*
X504837Y311233D01*
X504698Y311211D01*
X504632Y311206D01*
X504576Y311200D01*
X504526D01*
X504482Y311194D01*
X504393D01*
X504243Y311200D01*
X504105Y311217D01*
X503977Y311245D01*
X503871Y311272D01*
X503783Y311294D01*
X503744Y311311D01*
X503711Y311322D01*
X503688Y311333D01*
X503672Y311339D01*
X503661Y311344D01*
X503655D01*
X503539Y311405D01*
X503439Y311472D01*
X503350Y311544D01*
X503278Y311611D01*
X503222Y311666D01*
X503183Y311716D01*
X503156Y311750D01*
X503150Y311755D01*
Y311761D01*
X503089Y311866D01*
X503045Y311966D01*
X503017Y312060D01*
X502995Y312149D01*
X502984Y312227D01*
X502972Y312288D01*
Y312310D01*
Y312327D01*
Y312332D01*
Y312338D01*
X502978Y312449D01*
X502995Y312554D01*
X503022Y312649D01*
X503050Y312726D01*
X503083Y312793D01*
X503106Y312843D01*
X503128Y312871D01*
X503133Y312882D01*
X503200Y312965D01*
X503278Y313043D01*
X503361Y313109D01*
X503444Y313170D01*
X503516Y313215D01*
X503577Y313248D01*
X503600Y313259D01*
X503616Y313270D01*
X503627Y313276D01*
X503633D01*
X503677Y313298D01*
X503733Y313315D01*
X503794Y313337D01*
X503860Y313359D01*
X503999Y313398D01*
X504143Y313437D01*
X504210Y313453D01*
X504271Y313470D01*
X504332Y313487D01*
X504382Y313498D01*
X504421Y313509D01*
X504454Y313514D01*
X504476Y313520D01*
X504482D01*
X504593Y313548D01*
X504693Y313570D01*
X504782Y313598D01*
X504859Y313620D01*
X504931Y313648D01*
X504993Y313670D01*
X505048Y313692D01*
X505098Y313709D01*
X505137Y313731D01*
X505170Y313748D01*
X505192Y313759D01*
X505215Y313775D01*
X505242Y313792D01*
X505248Y313797D01*
X505298Y313853D01*
X505331Y313909D01*
X505359Y313964D01*
X505375Y314019D01*
X505387Y314064D01*
X505392Y314103D01*
Y314125D01*
Y314136D01*
X505381Y314225D01*
X505359Y314302D01*
X505326Y314369D01*
X505287Y314430D01*
X505253Y314475D01*
X505220Y314513D01*
X505198Y314536D01*
X505187Y314541D01*
X505142Y314569D01*
X505098Y314597D01*
X504993Y314641D01*
X504882Y314669D01*
X504771Y314691D01*
X504671Y314702D01*
X504626Y314708D01*
X504593Y314713D01*
X504515D01*
X504360Y314708D01*
X504221Y314686D01*
X504110Y314652D01*
X504016Y314619D01*
X503944Y314586D01*
X503888Y314552D01*
X503860Y314530D01*
X503849Y314525D01*
X503772Y314447D01*
X503711Y314364D01*
X503661Y314275D01*
X503627Y314186D01*
X503605Y314103D01*
X503588Y314042D01*
X503583Y314014D01*
X503577Y313997D01*
Y313986D01*
Y313981D01*
X503089Y314019D01*
X503100Y314142D01*
X503128Y314253D01*
X503156Y314358D01*
X503194Y314447D01*
X503228Y314519D01*
X503255Y314575D01*
X503266Y314591D01*
X503278Y314608D01*
X503283Y314613D01*
Y314619D01*
X503355Y314713D01*
X503433Y314796D01*
X503516Y314869D01*
X503600Y314924D01*
X503672Y314974D01*
X503727Y315002D01*
X503749Y315013D01*
X503766Y315024D01*
X503777Y315030D01*
X503783D01*
X503905Y315074D01*
X504038Y315107D01*
X504160Y315135D01*
X504277Y315152D01*
X504382Y315163D01*
X504421D01*
X504460Y315168D01*
X504532D01*
X504676Y315163D01*
D02*
G37*
G36*
X501624Y321261D02*
X501091D01*
X500281Y324186D01*
X500258Y324258D01*
X500242Y324336D01*
X500220Y324413D01*
X500203Y324480D01*
X500186Y324541D01*
X500175Y324591D01*
X500170Y324624D01*
X500164Y324630D01*
Y324636D01*
X500159Y324619D01*
X500153Y324591D01*
X500136Y324530D01*
X500114Y324458D01*
X500092Y324380D01*
X500075Y324308D01*
X500059Y324247D01*
X500053Y324219D01*
X500047Y324203D01*
X500042Y324191D01*
Y324186D01*
X499237Y321261D01*
X498738D01*
X497683Y325102D01*
X498199D01*
X498799Y322632D01*
X498843Y322460D01*
X498876Y322305D01*
X498910Y322160D01*
X498938Y322038D01*
X498954Y321983D01*
X498960Y321933D01*
X498971Y321894D01*
X498976Y321861D01*
X498987Y321833D01*
Y321811D01*
X498993Y321799D01*
Y321794D01*
X499032Y322038D01*
X499082Y322277D01*
X499132Y322504D01*
X499154Y322610D01*
X499182Y322715D01*
X499204Y322810D01*
X499226Y322893D01*
X499248Y322965D01*
X499265Y323032D01*
X499276Y323081D01*
X499287Y323120D01*
X499298Y323148D01*
Y323154D01*
X499842Y325102D01*
X500458D01*
X501185Y322504D01*
X501191Y322482D01*
X501202Y322449D01*
X501213Y322404D01*
X501224Y322355D01*
X501241Y322299D01*
X501252Y322238D01*
X501285Y322116D01*
X501313Y321994D01*
X501330Y321938D01*
X501341Y321894D01*
X501346Y321849D01*
X501357Y321822D01*
X501363Y321799D01*
Y321794D01*
X501391Y321938D01*
X501418Y322082D01*
X501446Y322216D01*
X501474Y322332D01*
X501485Y322388D01*
X501496Y322438D01*
X501507Y322477D01*
X501513Y322515D01*
X501518Y322543D01*
X501524Y322565D01*
X501529Y322576D01*
Y322582D01*
X502101Y325102D01*
X502628D01*
X501624Y321261D01*
D02*
G37*
G36*
X495730Y325157D02*
X495907Y325130D01*
X496063Y325096D01*
X496135Y325074D01*
X496201Y325052D01*
X496262Y325030D01*
X496318Y325007D01*
X496362Y324991D01*
X496407Y324974D01*
X496434Y324957D01*
X496457Y324946D01*
X496473Y324941D01*
X496479Y324935D01*
X496629Y324841D01*
X496756Y324730D01*
X496867Y324619D01*
X496962Y324508D01*
X497034Y324408D01*
X497062Y324364D01*
X497084Y324325D01*
X497106Y324297D01*
X497117Y324275D01*
X497123Y324258D01*
X497128Y324253D01*
X497206Y324080D01*
X497261Y323903D01*
X497300Y323725D01*
X497328Y323564D01*
X497339Y323492D01*
X497345Y323420D01*
X497350Y323365D01*
Y323309D01*
X497356Y323270D01*
Y323237D01*
Y323215D01*
Y323209D01*
X497345Y323009D01*
X497323Y322815D01*
X497295Y322643D01*
X497272Y322560D01*
X497256Y322488D01*
X497239Y322421D01*
X497217Y322360D01*
X497200Y322305D01*
X497189Y322260D01*
X497173Y322227D01*
X497167Y322199D01*
X497156Y322182D01*
Y322177D01*
X497073Y322010D01*
X496978Y321861D01*
X496878Y321733D01*
X496829Y321683D01*
X496784Y321633D01*
X496740Y321589D01*
X496695Y321550D01*
X496657Y321516D01*
X496623Y321494D01*
X496601Y321472D01*
X496579Y321455D01*
X496568Y321450D01*
X496562Y321444D01*
X496484Y321400D01*
X496407Y321361D01*
X496240Y321300D01*
X496074Y321256D01*
X495913Y321228D01*
X495835Y321217D01*
X495768Y321206D01*
X495707Y321200D01*
X495657D01*
X495613Y321195D01*
X495552D01*
X495441Y321200D01*
X495336Y321211D01*
X495236Y321222D01*
X495141Y321245D01*
X495052Y321272D01*
X494969Y321300D01*
X494892Y321328D01*
X494819Y321361D01*
X494758Y321389D01*
X494697Y321416D01*
X494653Y321444D01*
X494608Y321472D01*
X494581Y321494D01*
X494553Y321505D01*
X494542Y321516D01*
X494536Y321522D01*
X494459Y321589D01*
X494392Y321655D01*
X494331Y321733D01*
X494270Y321811D01*
X494170Y321966D01*
X494092Y322121D01*
X494059Y322194D01*
X494031Y322260D01*
X494009Y322321D01*
X493993Y322371D01*
X493976Y322415D01*
X493965Y322449D01*
X493959Y322471D01*
Y322477D01*
X494470Y322604D01*
X494492Y322515D01*
X494520Y322432D01*
X494548Y322355D01*
X494575Y322282D01*
X494608Y322216D01*
X494642Y322160D01*
X494681Y322105D01*
X494714Y322055D01*
X494742Y322010D01*
X494775Y321977D01*
X494803Y321944D01*
X494825Y321916D01*
X494847Y321899D01*
X494864Y321883D01*
X494869Y321877D01*
X494875Y321872D01*
X494930Y321827D01*
X494991Y321794D01*
X495114Y321733D01*
X495230Y321689D01*
X495347Y321661D01*
X495447Y321638D01*
X495485Y321633D01*
X495524D01*
X495558Y321627D01*
X495596D01*
X495724Y321633D01*
X495846Y321655D01*
X495957Y321683D01*
X496057Y321716D01*
X496135Y321749D01*
X496168Y321766D01*
X496196Y321777D01*
X496218Y321788D01*
X496235Y321799D01*
X496246Y321805D01*
X496251D01*
X496357Y321883D01*
X496446Y321966D01*
X496523Y322060D01*
X496584Y322149D01*
X496634Y322227D01*
X496668Y322293D01*
X496679Y322321D01*
X496690Y322338D01*
X496695Y322349D01*
Y322355D01*
X496740Y322499D01*
X496773Y322643D01*
X496801Y322787D01*
X496817Y322921D01*
X496823Y322982D01*
X496829Y323037D01*
Y323087D01*
X496834Y323126D01*
Y323159D01*
Y323187D01*
Y323204D01*
Y323209D01*
X496829Y323354D01*
X496817Y323487D01*
X496795Y323609D01*
X496773Y323720D01*
X496756Y323814D01*
X496745Y323853D01*
X496734Y323886D01*
X496729Y323914D01*
X496723Y323931D01*
X496718Y323942D01*
Y323947D01*
X496662Y324075D01*
X496601Y324191D01*
X496534Y324286D01*
X496462Y324369D01*
X496401Y324436D01*
X496351Y324480D01*
X496312Y324508D01*
X496307Y324519D01*
X496301D01*
X496185Y324591D01*
X496057Y324647D01*
X495935Y324686D01*
X495818Y324708D01*
X495713Y324724D01*
X495669Y324730D01*
X495630D01*
X495602Y324735D01*
X495558D01*
X495419Y324730D01*
X495291Y324708D01*
X495186Y324674D01*
X495091Y324641D01*
X495019Y324602D01*
X494964Y324574D01*
X494930Y324552D01*
X494919Y324541D01*
X494831Y324458D01*
X494747Y324364D01*
X494681Y324264D01*
X494625Y324164D01*
X494581Y324075D01*
X494564Y324031D01*
X494553Y323997D01*
X494542Y323970D01*
X494531Y323947D01*
X494525Y323936D01*
Y323931D01*
X494026Y324047D01*
X494059Y324147D01*
X494092Y324236D01*
X494137Y324319D01*
X494176Y324402D01*
X494220Y324475D01*
X494270Y324541D01*
X494314Y324608D01*
X494359Y324663D01*
X494403Y324708D01*
X494442Y324752D01*
X494481Y324791D01*
X494509Y324819D01*
X494536Y324846D01*
X494559Y324863D01*
X494570Y324869D01*
X494575Y324874D01*
X494653Y324924D01*
X494731Y324974D01*
X494808Y325013D01*
X494892Y325046D01*
X495058Y325096D01*
X495208Y325130D01*
X495280Y325146D01*
X495341Y325152D01*
X495402Y325157D01*
X495452Y325163D01*
X495491Y325168D01*
X495546D01*
X495730Y325157D01*
D02*
G37*
G36*
X504676Y325163D02*
X504804Y325146D01*
X504926Y325124D01*
X505031Y325102D01*
X505115Y325079D01*
X505154Y325068D01*
X505181Y325057D01*
X505203Y325046D01*
X505220Y325041D01*
X505231Y325035D01*
X505237D01*
X505348Y324980D01*
X505448Y324919D01*
X505531Y324852D01*
X505597Y324791D01*
X505648Y324735D01*
X505686Y324691D01*
X505714Y324658D01*
X505720Y324652D01*
Y324647D01*
X505775Y324552D01*
X505814Y324458D01*
X505842Y324364D01*
X505858Y324280D01*
X505869Y324208D01*
X505881Y324153D01*
Y324131D01*
Y324114D01*
Y324108D01*
Y324103D01*
X505875Y324008D01*
X505858Y323920D01*
X505836Y323836D01*
X505814Y323764D01*
X505792Y323709D01*
X505770Y323664D01*
X505753Y323637D01*
X505747Y323625D01*
X505692Y323548D01*
X505625Y323476D01*
X505559Y323414D01*
X505492Y323365D01*
X505437Y323320D01*
X505387Y323292D01*
X505353Y323270D01*
X505348Y323265D01*
X505342D01*
X505298Y323242D01*
X505248Y323220D01*
X505137Y323181D01*
X505009Y323143D01*
X504887Y323104D01*
X504776Y323070D01*
X504726Y323059D01*
X504682Y323048D01*
X504648Y323037D01*
X504621Y323032D01*
X504604Y323026D01*
X504599D01*
X504504Y323004D01*
X504415Y322982D01*
X504338Y322959D01*
X504271Y322943D01*
X504205Y322926D01*
X504149Y322909D01*
X504099Y322898D01*
X504060Y322882D01*
X504021Y322871D01*
X503994Y322865D01*
X503949Y322848D01*
X503921Y322843D01*
X503916Y322837D01*
X503833Y322804D01*
X503760Y322765D01*
X503699Y322726D01*
X503655Y322693D01*
X503616Y322660D01*
X503594Y322638D01*
X503577Y322621D01*
X503572Y322615D01*
X503533Y322565D01*
X503505Y322510D01*
X503488Y322454D01*
X503472Y322410D01*
X503466Y322366D01*
X503461Y322332D01*
Y322305D01*
Y322299D01*
X503466Y322232D01*
X503477Y322171D01*
X503494Y322116D01*
X503516Y322071D01*
X503539Y322027D01*
X503555Y321999D01*
X503566Y321977D01*
X503572Y321972D01*
X503616Y321916D01*
X503672Y321872D01*
X503727Y321833D01*
X503777Y321794D01*
X503827Y321772D01*
X503866Y321749D01*
X503894Y321738D01*
X503905Y321733D01*
X503988Y321705D01*
X504077Y321683D01*
X504166Y321672D01*
X504243Y321661D01*
X504310Y321655D01*
X504365Y321650D01*
X504415D01*
X504537Y321655D01*
X504648Y321666D01*
X504748Y321683D01*
X504837Y321705D01*
X504909Y321727D01*
X504965Y321744D01*
X504982Y321749D01*
X504998Y321755D01*
X505004Y321761D01*
X505009D01*
X505098Y321805D01*
X505181Y321855D01*
X505242Y321905D01*
X505298Y321955D01*
X505342Y321994D01*
X505370Y322033D01*
X505387Y322055D01*
X505392Y322060D01*
X505431Y322132D01*
X505470Y322210D01*
X505492Y322293D01*
X505514Y322366D01*
X505531Y322438D01*
X505542Y322488D01*
Y322510D01*
X505548Y322527D01*
Y322532D01*
Y322538D01*
X506025Y322493D01*
X506014Y322355D01*
X505992Y322221D01*
X505958Y322105D01*
X505919Y321999D01*
X505881Y321916D01*
X505864Y321883D01*
X505853Y321855D01*
X505836Y321833D01*
X505831Y321816D01*
X505820Y321805D01*
Y321799D01*
X505736Y321694D01*
X505648Y321600D01*
X505553Y321522D01*
X505464Y321455D01*
X505387Y321405D01*
X505320Y321372D01*
X505298Y321361D01*
X505281Y321350D01*
X505270Y321344D01*
X505265D01*
X505126Y321294D01*
X504982Y321256D01*
X504837Y321233D01*
X504698Y321211D01*
X504632Y321206D01*
X504576Y321200D01*
X504526D01*
X504482Y321195D01*
X504393D01*
X504243Y321200D01*
X504105Y321217D01*
X503977Y321245D01*
X503871Y321272D01*
X503783Y321294D01*
X503744Y321311D01*
X503711Y321322D01*
X503688Y321333D01*
X503672Y321339D01*
X503661Y321344D01*
X503655D01*
X503539Y321405D01*
X503439Y321472D01*
X503350Y321544D01*
X503278Y321611D01*
X503222Y321666D01*
X503183Y321716D01*
X503156Y321749D01*
X503150Y321755D01*
Y321761D01*
X503089Y321866D01*
X503045Y321966D01*
X503017Y322060D01*
X502995Y322149D01*
X502984Y322227D01*
X502972Y322288D01*
Y322310D01*
Y322327D01*
Y322332D01*
Y322338D01*
X502978Y322449D01*
X502995Y322554D01*
X503022Y322649D01*
X503050Y322726D01*
X503083Y322793D01*
X503106Y322843D01*
X503128Y322871D01*
X503133Y322882D01*
X503200Y322965D01*
X503278Y323043D01*
X503361Y323109D01*
X503444Y323170D01*
X503516Y323215D01*
X503577Y323248D01*
X503600Y323259D01*
X503616Y323270D01*
X503627Y323276D01*
X503633D01*
X503677Y323298D01*
X503733Y323315D01*
X503794Y323337D01*
X503860Y323359D01*
X503999Y323398D01*
X504143Y323437D01*
X504210Y323453D01*
X504271Y323470D01*
X504332Y323487D01*
X504382Y323498D01*
X504421Y323509D01*
X504454Y323514D01*
X504476Y323520D01*
X504482D01*
X504593Y323548D01*
X504693Y323570D01*
X504782Y323598D01*
X504859Y323620D01*
X504931Y323648D01*
X504993Y323670D01*
X505048Y323692D01*
X505098Y323709D01*
X505137Y323731D01*
X505170Y323747D01*
X505192Y323759D01*
X505215Y323775D01*
X505242Y323792D01*
X505248Y323797D01*
X505298Y323853D01*
X505331Y323908D01*
X505359Y323964D01*
X505375Y324020D01*
X505387Y324064D01*
X505392Y324103D01*
Y324125D01*
Y324136D01*
X505381Y324225D01*
X505359Y324303D01*
X505326Y324369D01*
X505287Y324430D01*
X505253Y324475D01*
X505220Y324513D01*
X505198Y324536D01*
X505187Y324541D01*
X505142Y324569D01*
X505098Y324597D01*
X504993Y324641D01*
X504882Y324669D01*
X504771Y324691D01*
X504671Y324702D01*
X504626Y324708D01*
X504593Y324713D01*
X504515D01*
X504360Y324708D01*
X504221Y324686D01*
X504110Y324652D01*
X504016Y324619D01*
X503944Y324586D01*
X503888Y324552D01*
X503860Y324530D01*
X503849Y324524D01*
X503772Y324447D01*
X503711Y324364D01*
X503661Y324275D01*
X503627Y324186D01*
X503605Y324103D01*
X503588Y324042D01*
X503583Y324014D01*
X503577Y323997D01*
Y323986D01*
Y323981D01*
X503089Y324020D01*
X503100Y324142D01*
X503128Y324253D01*
X503156Y324358D01*
X503194Y324447D01*
X503228Y324519D01*
X503255Y324574D01*
X503266Y324591D01*
X503278Y324608D01*
X503283Y324613D01*
Y324619D01*
X503355Y324713D01*
X503433Y324797D01*
X503516Y324869D01*
X503600Y324924D01*
X503672Y324974D01*
X503727Y325002D01*
X503749Y325013D01*
X503766Y325024D01*
X503777Y325030D01*
X503783D01*
X503905Y325074D01*
X504038Y325107D01*
X504160Y325135D01*
X504277Y325152D01*
X504382Y325163D01*
X504421D01*
X504460Y325168D01*
X504532D01*
X504676Y325163D01*
D02*
G37*
G36*
X501724Y331261D02*
X501235D01*
Y334275D01*
X499226Y331261D01*
X498699D01*
Y335102D01*
X499187D01*
Y332083D01*
X501202Y335102D01*
X501724D01*
Y331261D01*
D02*
G37*
G36*
X504310Y335157D02*
X504504Y335129D01*
X504593Y335113D01*
X504676Y335091D01*
X504754Y335074D01*
X504826Y335052D01*
X504893Y335030D01*
X504948Y335007D01*
X504998Y334985D01*
X505043Y334968D01*
X505076Y334952D01*
X505098Y334941D01*
X505115Y334935D01*
X505120Y334930D01*
X505198Y334880D01*
X505276Y334830D01*
X505409Y334713D01*
X505525Y334597D01*
X505620Y334475D01*
X505697Y334369D01*
X505725Y334325D01*
X505747Y334280D01*
X505770Y334247D01*
X505781Y334225D01*
X505786Y334208D01*
X505792Y334203D01*
X505869Y334019D01*
X505925Y333836D01*
X505969Y333659D01*
X505980Y333576D01*
X505997Y333498D01*
X506003Y333426D01*
X506014Y333365D01*
X506019Y333303D01*
Y333254D01*
X506025Y333215D01*
Y333187D01*
Y333165D01*
Y333159D01*
X506014Y332954D01*
X505986Y332760D01*
X505969Y332671D01*
X505953Y332588D01*
X505931Y332504D01*
X505908Y332432D01*
X505886Y332366D01*
X505864Y332310D01*
X505847Y332255D01*
X505831Y332216D01*
X505814Y332177D01*
X505803Y332155D01*
X505792Y332138D01*
Y332133D01*
X505692Y331972D01*
X505581Y331833D01*
X505464Y331711D01*
X505353Y331611D01*
X505248Y331533D01*
X505209Y331505D01*
X505170Y331478D01*
X505137Y331461D01*
X505115Y331444D01*
X505098Y331439D01*
X505092Y331433D01*
X505004Y331389D01*
X504915Y331356D01*
X504737Y331294D01*
X504565Y331256D01*
X504404Y331222D01*
X504332Y331217D01*
X504265Y331206D01*
X504205Y331200D01*
X504154D01*
X504116Y331194D01*
X504060D01*
X503905Y331200D01*
X503755Y331217D01*
X503616Y331244D01*
X503494Y331272D01*
X503444Y331283D01*
X503394Y331294D01*
X503350Y331311D01*
X503311Y331322D01*
X503283Y331333D01*
X503261Y331339D01*
X503250Y331344D01*
X503244D01*
X503094Y331405D01*
X502956Y331478D01*
X502822Y331555D01*
X502706Y331627D01*
X502656Y331661D01*
X502606Y331694D01*
X502567Y331722D01*
X502534Y331744D01*
X502506Y331766D01*
X502484Y331783D01*
X502473Y331788D01*
X502467Y331794D01*
Y333220D01*
X504099D01*
Y332765D01*
X502967D01*
Y332044D01*
X503033Y331988D01*
X503111Y331938D01*
X503194Y331894D01*
X503272Y331855D01*
X503339Y331822D01*
X503400Y331794D01*
X503422Y331783D01*
X503433Y331777D01*
X503444Y331772D01*
X503450D01*
X503566Y331733D01*
X503683Y331700D01*
X503788Y331677D01*
X503888Y331666D01*
X503971Y331655D01*
X504005D01*
X504038Y331650D01*
X504094D01*
X504232Y331655D01*
X504365Y331677D01*
X504488Y331705D01*
X504599Y331733D01*
X504687Y331766D01*
X504726Y331777D01*
X504754Y331788D01*
X504782Y331800D01*
X504798Y331811D01*
X504809Y331816D01*
X504815D01*
X504931Y331888D01*
X505037Y331966D01*
X505126Y332049D01*
X505198Y332133D01*
X505259Y332210D01*
X505298Y332271D01*
X505314Y332293D01*
X505320Y332310D01*
X505331Y332321D01*
Y332327D01*
X505387Y332466D01*
X505431Y332610D01*
X505459Y332754D01*
X505481Y332893D01*
X505486Y332954D01*
X505492Y333009D01*
X505498Y333065D01*
Y333109D01*
X505503Y333143D01*
Y333170D01*
Y333187D01*
Y333192D01*
X505498Y333348D01*
X505481Y333487D01*
X505459Y333620D01*
X505431Y333736D01*
X505420Y333786D01*
X505403Y333831D01*
X505392Y333870D01*
X505381Y333903D01*
X505370Y333931D01*
X505364Y333947D01*
X505359Y333958D01*
Y333964D01*
X505320Y334042D01*
X505281Y334114D01*
X505242Y334180D01*
X505203Y334236D01*
X505170Y334280D01*
X505142Y334319D01*
X505120Y334341D01*
X505115Y334347D01*
X505054Y334408D01*
X504987Y334464D01*
X504915Y334508D01*
X504848Y334552D01*
X504793Y334580D01*
X504748Y334608D01*
X504715Y334619D01*
X504704Y334624D01*
X504604Y334663D01*
X504504Y334691D01*
X504399Y334708D01*
X504304Y334724D01*
X504221Y334730D01*
X504188D01*
X504160Y334735D01*
X504099D01*
X503994Y334730D01*
X503894Y334719D01*
X503805Y334702D01*
X503727Y334685D01*
X503661Y334663D01*
X503611Y334647D01*
X503583Y334635D01*
X503572Y334630D01*
X503488Y334591D01*
X503416Y334547D01*
X503350Y334502D01*
X503300Y334458D01*
X503261Y334419D01*
X503228Y334391D01*
X503211Y334369D01*
X503205Y334364D01*
X503156Y334297D01*
X503117Y334219D01*
X503078Y334147D01*
X503045Y334069D01*
X503022Y334003D01*
X503006Y333953D01*
X503000Y333931D01*
X502995Y333914D01*
X502989Y333909D01*
Y333903D01*
X502528Y334025D01*
X502567Y334164D01*
X502617Y334286D01*
X502667Y334397D01*
X502711Y334486D01*
X502756Y334558D01*
X502789Y334608D01*
X502811Y334641D01*
X502822Y334652D01*
X502900Y334741D01*
X502984Y334813D01*
X503072Y334880D01*
X503156Y334935D01*
X503233Y334974D01*
X503294Y335007D01*
X503316Y335018D01*
X503333Y335024D01*
X503344Y335030D01*
X503350D01*
X503477Y335074D01*
X503611Y335107D01*
X503733Y335135D01*
X503849Y335152D01*
X503955Y335163D01*
X503999D01*
X504032Y335168D01*
X504210D01*
X504310Y335157D01*
D02*
G37*
G36*
X497844Y331261D02*
X496462D01*
X496335Y331267D01*
X496218Y331272D01*
X496113Y331283D01*
X496024Y331294D01*
X495946Y331306D01*
X495891Y331311D01*
X495874Y331317D01*
X495857Y331322D01*
X495846D01*
X495746Y331350D01*
X495657Y331383D01*
X495580Y331411D01*
X495513Y331444D01*
X495458Y331472D01*
X495419Y331494D01*
X495397Y331511D01*
X495386Y331516D01*
X495313Y331566D01*
X495252Y331627D01*
X495191Y331683D01*
X495141Y331738D01*
X495097Y331788D01*
X495064Y331827D01*
X495041Y331855D01*
X495036Y331866D01*
X494980Y331955D01*
X494925Y332049D01*
X494880Y332138D01*
X494847Y332227D01*
X494814Y332305D01*
X494792Y332366D01*
X494786Y332388D01*
X494781Y332404D01*
X494775Y332416D01*
Y332421D01*
X494742Y332554D01*
X494714Y332687D01*
X494697Y332815D01*
X494681Y332937D01*
X494675Y333043D01*
Y333087D01*
X494670Y333126D01*
Y333154D01*
Y333181D01*
Y333192D01*
Y333198D01*
X494675Y333387D01*
X494692Y333559D01*
X494720Y333714D01*
X494731Y333786D01*
X494747Y333847D01*
X494764Y333909D01*
X494775Y333958D01*
X494786Y334003D01*
X494803Y334042D01*
X494808Y334075D01*
X494819Y334097D01*
X494825Y334108D01*
Y334114D01*
X494886Y334258D01*
X494958Y334386D01*
X495036Y334497D01*
X495108Y334591D01*
X495175Y334669D01*
X495230Y334724D01*
X495252Y334741D01*
X495269Y334758D01*
X495274Y334763D01*
X495280Y334769D01*
X495369Y334841D01*
X495463Y334896D01*
X495558Y334946D01*
X495646Y334985D01*
X495724Y335013D01*
X495785Y335030D01*
X495807Y335041D01*
X495824D01*
X495835Y335046D01*
X495841D01*
X495935Y335063D01*
X496046Y335080D01*
X496157Y335091D01*
X496268Y335096D01*
X496368Y335102D01*
X497844D01*
Y331261D01*
D02*
G37*
G36*
X501368Y343181D02*
X502850Y341195D01*
X502240D01*
X501268Y342527D01*
X501246Y342560D01*
X501219Y342599D01*
X501158Y342688D01*
X501130Y342732D01*
X501108Y342765D01*
X501091Y342787D01*
X501085Y342793D01*
X501030Y342710D01*
X500980Y342632D01*
X500958Y342604D01*
X500947Y342582D01*
X500936Y342565D01*
X500930Y342560D01*
X499959Y341195D01*
X499332D01*
X500769Y343209D01*
X499437Y345035D01*
X499992D01*
X500758Y344014D01*
X500824Y343931D01*
X500880Y343853D01*
X500936Y343775D01*
X500980Y343714D01*
X501019Y343659D01*
X501047Y343614D01*
X501063Y343592D01*
X501069Y343581D01*
X501108Y343648D01*
X501152Y343720D01*
X501202Y343797D01*
X501252Y343875D01*
X501302Y343942D01*
X501335Y343997D01*
X501352Y344020D01*
X501363Y344036D01*
X501374Y344042D01*
Y344047D01*
X502073Y345035D01*
X502678D01*
X501368Y343181D01*
D02*
G37*
G36*
X506025Y344580D02*
X504760D01*
Y341195D01*
X504249D01*
Y344580D01*
X502984D01*
Y345035D01*
X506025D01*
Y344580D01*
D02*
G37*
G36*
X498876Y341195D02*
X497495D01*
X497367Y341200D01*
X497250Y341206D01*
X497145Y341217D01*
X497056Y341228D01*
X496978Y341239D01*
X496923Y341245D01*
X496906Y341250D01*
X496890Y341256D01*
X496878D01*
X496779Y341283D01*
X496690Y341317D01*
X496612Y341344D01*
X496546Y341378D01*
X496490Y341405D01*
X496451Y341428D01*
X496429Y341444D01*
X496418Y341450D01*
X496346Y341500D01*
X496285Y341561D01*
X496224Y341616D01*
X496174Y341672D01*
X496129Y341722D01*
X496096Y341761D01*
X496074Y341788D01*
X496068Y341799D01*
X496013Y341888D01*
X495957Y341983D01*
X495913Y342071D01*
X495880Y342160D01*
X495846Y342238D01*
X495824Y342299D01*
X495818Y342321D01*
X495813Y342338D01*
X495807Y342349D01*
Y342354D01*
X495774Y342488D01*
X495746Y342621D01*
X495730Y342748D01*
X495713Y342871D01*
X495707Y342976D01*
Y343021D01*
X495702Y343059D01*
Y343087D01*
Y343115D01*
Y343126D01*
Y343131D01*
X495707Y343320D01*
X495724Y343492D01*
X495752Y343648D01*
X495763Y343720D01*
X495780Y343781D01*
X495796Y343842D01*
X495807Y343892D01*
X495818Y343936D01*
X495835Y343975D01*
X495841Y344008D01*
X495852Y344031D01*
X495857Y344042D01*
Y344047D01*
X495918Y344192D01*
X495991Y344319D01*
X496068Y344430D01*
X496140Y344525D01*
X496207Y344602D01*
X496262Y344658D01*
X496285Y344674D01*
X496301Y344691D01*
X496307Y344697D01*
X496312Y344702D01*
X496401Y344774D01*
X496495Y344830D01*
X496590Y344880D01*
X496679Y344919D01*
X496756Y344946D01*
X496817Y344963D01*
X496840Y344974D01*
X496856D01*
X496867Y344980D01*
X496873D01*
X496967Y344996D01*
X497078Y345013D01*
X497189Y345024D01*
X497300Y345030D01*
X497400Y345035D01*
X498876D01*
Y341195D01*
D02*
G37*
G36*
X501569Y353681D02*
X503051Y351694D01*
X502440D01*
X501469Y353027D01*
X501447Y353060D01*
X501419Y353099D01*
X501358Y353187D01*
X501330Y353232D01*
X501308Y353265D01*
X501291Y353287D01*
X501286Y353293D01*
X501230Y353210D01*
X501180Y353132D01*
X501158Y353104D01*
X501147Y353082D01*
X501136Y353065D01*
X501130Y353060D01*
X500159Y351694D01*
X499532D01*
X500969Y353709D01*
X499637Y355535D01*
X500192D01*
X500958Y354514D01*
X501025Y354431D01*
X501080Y354353D01*
X501136Y354275D01*
X501180Y354214D01*
X501219Y354159D01*
X501247Y354114D01*
X501264Y354092D01*
X501269Y354081D01*
X501308Y354148D01*
X501352Y354220D01*
X501402Y354297D01*
X501452Y354375D01*
X501502Y354442D01*
X501535Y354497D01*
X501552Y354520D01*
X501563Y354536D01*
X501574Y354542D01*
Y354547D01*
X502274Y355535D01*
X502879D01*
X501569Y353681D01*
D02*
G37*
G36*
X506525Y351694D02*
X506014D01*
Y353398D01*
X505359D01*
X505298Y353393D01*
X505254D01*
X505215Y353387D01*
X505187Y353382D01*
X505165D01*
X505154Y353376D01*
X505149D01*
X505060Y353348D01*
X505021Y353332D01*
X504987Y353315D01*
X504954Y353298D01*
X504932Y353287D01*
X504921Y353282D01*
X504915Y353276D01*
X504871Y353243D01*
X504827Y353204D01*
X504743Y353121D01*
X504705Y353082D01*
X504677Y353049D01*
X504660Y353027D01*
X504655Y353021D01*
X504599Y352943D01*
X504538Y352860D01*
X504477Y352771D01*
X504416Y352688D01*
X504366Y352610D01*
X504327Y352549D01*
X504310Y352527D01*
X504299Y352510D01*
X504288Y352499D01*
Y352494D01*
X503783Y351694D01*
X503151D01*
X503811Y352738D01*
X503889Y352849D01*
X503961Y352949D01*
X504033Y353032D01*
X504094Y353110D01*
X504149Y353165D01*
X504194Y353210D01*
X504222Y353237D01*
X504233Y353249D01*
X504277Y353282D01*
X504327Y353321D01*
X504427Y353382D01*
X504471Y353404D01*
X504505Y353426D01*
X504527Y353437D01*
X504538Y353443D01*
X504438Y353459D01*
X504344Y353476D01*
X504260Y353504D01*
X504177Y353526D01*
X504105Y353554D01*
X504038Y353587D01*
X503977Y353615D01*
X503922Y353643D01*
X503877Y353676D01*
X503833Y353704D01*
X503800Y353726D01*
X503772Y353748D01*
X503750Y353765D01*
X503733Y353781D01*
X503728Y353787D01*
X503722Y353792D01*
X503678Y353848D01*
X503633Y353903D01*
X503567Y354020D01*
X503522Y354136D01*
X503489Y354247D01*
X503467Y354342D01*
X503461Y354381D01*
Y354420D01*
X503456Y354447D01*
Y354469D01*
Y354481D01*
Y354486D01*
X503461Y354603D01*
X503478Y354708D01*
X503506Y354808D01*
X503533Y354891D01*
X503567Y354963D01*
X503589Y355019D01*
X503611Y355052D01*
X503617Y355058D01*
Y355063D01*
X503683Y355152D01*
X503750Y355230D01*
X503822Y355296D01*
X503889Y355346D01*
X503950Y355385D01*
X504000Y355408D01*
X504033Y355424D01*
X504038Y355430D01*
X504044D01*
X504094Y355446D01*
X504155Y355463D01*
X504277Y355491D01*
X504410Y355507D01*
X504532Y355524D01*
X504649Y355530D01*
X504699D01*
X504743Y355535D01*
X506525D01*
Y351694D01*
D02*
G37*
G36*
X499077D02*
X497695D01*
X497567Y351700D01*
X497451Y351706D01*
X497345Y351717D01*
X497256Y351728D01*
X497179Y351739D01*
X497123Y351745D01*
X497107Y351750D01*
X497090Y351756D01*
X497079D01*
X496979Y351783D01*
X496890Y351817D01*
X496812Y351844D01*
X496746Y351878D01*
X496690Y351905D01*
X496651Y351928D01*
X496629Y351944D01*
X496618Y351950D01*
X496546Y352000D01*
X496485Y352061D01*
X496424Y352116D01*
X496374Y352172D01*
X496329Y352222D01*
X496296Y352261D01*
X496274Y352288D01*
X496269Y352299D01*
X496213Y352388D01*
X496158Y352483D01*
X496113Y352571D01*
X496080Y352660D01*
X496046Y352738D01*
X496024Y352799D01*
X496019Y352821D01*
X496013Y352838D01*
X496008Y352849D01*
Y352854D01*
X495974Y352988D01*
X495947Y353121D01*
X495930Y353249D01*
X495913Y353371D01*
X495908Y353476D01*
Y353520D01*
X495902Y353559D01*
Y353587D01*
Y353615D01*
Y353626D01*
Y353631D01*
X495908Y353820D01*
X495924Y353992D01*
X495952Y354148D01*
X495963Y354220D01*
X495980Y354281D01*
X495997Y354342D01*
X496008Y354392D01*
X496019Y354436D01*
X496035Y354475D01*
X496041Y354508D01*
X496052Y354531D01*
X496058Y354542D01*
Y354547D01*
X496119Y354692D01*
X496191Y354819D01*
X496269Y354930D01*
X496341Y355025D01*
X496407Y355102D01*
X496463Y355158D01*
X496485Y355174D01*
X496502Y355191D01*
X496507Y355197D01*
X496513Y355202D01*
X496601Y355274D01*
X496696Y355330D01*
X496790Y355380D01*
X496879Y355419D01*
X496957Y355446D01*
X497018Y355463D01*
X497040Y355474D01*
X497057D01*
X497068Y355480D01*
X497073D01*
X497168Y355496D01*
X497279Y355513D01*
X497390Y355524D01*
X497501Y355530D01*
X497601Y355535D01*
X499077D01*
Y351694D01*
D02*
G37*
G36*
X382492Y299830D02*
X382553Y299741D01*
X382625Y299652D01*
X382692Y299574D01*
X382759Y299508D01*
X382808Y299452D01*
X382831Y299435D01*
X382847Y299419D01*
X382853Y299413D01*
X382858Y299408D01*
X382975Y299313D01*
X383092Y299224D01*
X383203Y299147D01*
X383313Y299086D01*
X383408Y299030D01*
X383447Y299008D01*
X383480Y298991D01*
X383508Y298975D01*
X383530Y298969D01*
X383541Y298958D01*
X383547D01*
Y298503D01*
X383463Y298536D01*
X383380Y298575D01*
X383297Y298614D01*
X383219Y298653D01*
X383153Y298686D01*
X383097Y298714D01*
X383064Y298736D01*
X383058Y298742D01*
X383053D01*
X382953Y298803D01*
X382864Y298864D01*
X382786Y298919D01*
X382725Y298969D01*
X382670Y299008D01*
X382636Y299041D01*
X382609Y299064D01*
X382603Y299069D01*
Y296067D01*
X382131D01*
Y299924D01*
X382437D01*
X382492Y299830D01*
D02*
G37*
G36*
X402222Y296067D02*
X401712D01*
Y297399D01*
X401085Y298004D01*
X399719Y296067D01*
X399048D01*
X400729Y298348D01*
X399120Y299907D01*
X399814D01*
X401712Y297998D01*
Y299907D01*
X402222D01*
Y296067D01*
D02*
G37*
G36*
X398870Y297221D02*
X397411D01*
Y297693D01*
X398870D01*
Y297221D01*
D02*
G37*
G36*
X389330D02*
X387870D01*
Y297693D01*
X389330D01*
Y297221D01*
D02*
G37*
G36*
X406080Y296067D02*
X405591D01*
Y299080D01*
X403582Y296067D01*
X403055D01*
Y299907D01*
X403543D01*
Y296888D01*
X405558Y299907D01*
X406080D01*
Y296067D01*
D02*
G37*
G36*
X386205D02*
X385672D01*
X384174Y299907D01*
X384690D01*
X385733Y297115D01*
X385778Y296999D01*
X385817Y296888D01*
X385850Y296782D01*
X385878Y296688D01*
X385905Y296605D01*
X385922Y296544D01*
X385928Y296522D01*
X385933Y296505D01*
X385939Y296494D01*
Y296488D01*
X386005Y296710D01*
X386039Y296816D01*
X386072Y296910D01*
X386100Y296993D01*
X386111Y297027D01*
X386116Y297060D01*
X386127Y297082D01*
X386133Y297099D01*
X386139Y297110D01*
Y297115D01*
X387138Y299907D01*
X387692D01*
X386205Y296067D01*
D02*
G37*
G36*
X410575D02*
X408172D01*
Y296522D01*
X410065D01*
Y299907D01*
X410575D01*
Y296067D01*
D02*
G37*
G36*
X407484D02*
X406973D01*
Y299907D01*
X407484D01*
Y296067D01*
D02*
G37*
G36*
X392682D02*
X391217D01*
X391084Y296072D01*
X390967Y296078D01*
X390862Y296089D01*
X390773Y296100D01*
X390701Y296111D01*
X390645Y296117D01*
X390612Y296128D01*
X390601D01*
X390506Y296155D01*
X390429Y296183D01*
X390356Y296216D01*
X390295Y296250D01*
X390246Y296272D01*
X390207Y296294D01*
X390184Y296311D01*
X390179Y296316D01*
X390118Y296366D01*
X390062Y296427D01*
X390018Y296488D01*
X389973Y296544D01*
X389940Y296599D01*
X389918Y296638D01*
X389901Y296666D01*
X389896Y296677D01*
X389857Y296766D01*
X389829Y296855D01*
X389807Y296938D01*
X389796Y297016D01*
X389785Y297082D01*
X389779Y297138D01*
Y297171D01*
Y297177D01*
Y297182D01*
X389785Y297304D01*
X389807Y297415D01*
X389840Y297510D01*
X389874Y297598D01*
X389907Y297665D01*
X389940Y297715D01*
X389962Y297748D01*
X389968Y297759D01*
X390046Y297848D01*
X390129Y297920D01*
X390223Y297981D01*
X390307Y298031D01*
X390384Y298070D01*
X390451Y298092D01*
X390473Y298103D01*
X390490Y298109D01*
X390501Y298115D01*
X390506D01*
X390412Y298170D01*
X390329Y298226D01*
X390262Y298287D01*
X390207Y298342D01*
X390162Y298387D01*
X390129Y298431D01*
X390112Y298453D01*
X390107Y298464D01*
X390062Y298547D01*
X390029Y298625D01*
X390001Y298703D01*
X389985Y298775D01*
X389973Y298836D01*
X389968Y298886D01*
Y298914D01*
Y298925D01*
X389973Y299019D01*
X389990Y299113D01*
X390018Y299197D01*
X390046Y299274D01*
X390073Y299341D01*
X390101Y299385D01*
X390118Y299419D01*
X390123Y299430D01*
X390184Y299513D01*
X390251Y299591D01*
X390323Y299652D01*
X390390Y299702D01*
X390445Y299741D01*
X390495Y299768D01*
X390528Y299785D01*
X390534Y299791D01*
X390540D01*
X390645Y299830D01*
X390762Y299857D01*
X390878Y299879D01*
X390989Y299890D01*
X391089Y299902D01*
X391133D01*
X391172Y299907D01*
X392682D01*
Y296067D01*
D02*
G37*
G36*
X411896Y297260D02*
Y297143D01*
X411907Y297043D01*
X411913Y296960D01*
X411924Y296894D01*
X411935Y296844D01*
X411940Y296805D01*
X411952Y296782D01*
Y296777D01*
X411974Y296722D01*
X412002Y296677D01*
X412035Y296638D01*
X412063Y296599D01*
X412096Y296577D01*
X412118Y296555D01*
X412135Y296544D01*
X412140Y296538D01*
X412196Y296511D01*
X412251Y296488D01*
X412307Y296477D01*
X412357Y296466D01*
X412407Y296461D01*
X412440Y296455D01*
X412473D01*
X412562Y296461D01*
X412645Y296483D01*
X412712Y296505D01*
X412773Y296538D01*
X412817Y296566D01*
X412851Y296594D01*
X412873Y296610D01*
X412878Y296616D01*
X412906Y296649D01*
X412928Y296688D01*
X412962Y296777D01*
X412995Y296877D01*
X413012Y296977D01*
X413028Y297071D01*
Y297110D01*
X413034Y297143D01*
X413039Y297177D01*
Y297199D01*
Y297210D01*
Y297216D01*
X413500Y297149D01*
Y297043D01*
X413494Y296949D01*
X413478Y296855D01*
X413467Y296772D01*
X413445Y296694D01*
X413422Y296627D01*
X413400Y296561D01*
X413378Y296505D01*
X413350Y296455D01*
X413328Y296411D01*
X413306Y296372D01*
X413284Y296344D01*
X413267Y296322D01*
X413256Y296300D01*
X413250Y296294D01*
X413245Y296289D01*
X413189Y296239D01*
X413134Y296194D01*
X413073Y296155D01*
X413006Y296122D01*
X412878Y296072D01*
X412756Y296039D01*
X412640Y296017D01*
X412595Y296011D01*
X412551Y296006D01*
X412518Y296000D01*
X412468D01*
X412346Y296006D01*
X412235Y296022D01*
X412135Y296044D01*
X412046Y296072D01*
X411974Y296094D01*
X411924Y296117D01*
X411891Y296133D01*
X411879Y296139D01*
X411791Y296194D01*
X411713Y296261D01*
X411652Y296327D01*
X411596Y296389D01*
X411557Y296449D01*
X411530Y296494D01*
X411513Y296527D01*
X411508Y296533D01*
Y296538D01*
X411469Y296649D01*
X411435Y296766D01*
X411413Y296894D01*
X411402Y297016D01*
X411391Y297121D01*
Y297165D01*
X411385Y297210D01*
Y297243D01*
Y297265D01*
Y297282D01*
Y297288D01*
Y299907D01*
X411896D01*
Y297260D01*
D02*
G37*
G36*
X395302Y299968D02*
X395440Y299952D01*
X395573Y299924D01*
X395701Y299890D01*
X395818Y299846D01*
X395929Y299802D01*
X396029Y299752D01*
X396117Y299702D01*
X396201Y299652D01*
X396273Y299602D01*
X396334Y299557D01*
X396384Y299513D01*
X396423Y299480D01*
X396456Y299452D01*
X396473Y299435D01*
X396478Y299430D01*
X396567Y299324D01*
X396645Y299214D01*
X396717Y299091D01*
X396772Y298969D01*
X396822Y298842D01*
X396867Y298720D01*
X396900Y298597D01*
X396922Y298481D01*
X396944Y298370D01*
X396961Y298264D01*
X396972Y298170D01*
X396983Y298092D01*
Y298026D01*
X396989Y297976D01*
Y297942D01*
Y297937D01*
Y297931D01*
X396978Y297743D01*
X396955Y297571D01*
X396922Y297404D01*
X396900Y297332D01*
X396878Y297260D01*
X396861Y297199D01*
X396839Y297143D01*
X396822Y297093D01*
X396806Y297049D01*
X396795Y297016D01*
X396783Y296993D01*
X396772Y296977D01*
Y296971D01*
X396678Y296810D01*
X396578Y296672D01*
X396467Y296549D01*
X396362Y296449D01*
X396267Y296366D01*
X396228Y296333D01*
X396195Y296311D01*
X396162Y296289D01*
X396140Y296272D01*
X396129Y296266D01*
X396123Y296261D01*
X396040Y296216D01*
X395956Y296178D01*
X395790Y296111D01*
X395629Y296067D01*
X395479Y296033D01*
X395407Y296022D01*
X395346Y296017D01*
X395290Y296006D01*
X395240D01*
X395207Y296000D01*
X395152D01*
X394969Y296011D01*
X394796Y296039D01*
X394636Y296072D01*
X394563Y296094D01*
X394497Y296117D01*
X394436Y296139D01*
X394380Y296161D01*
X394336Y296178D01*
X394297Y296194D01*
X394264Y296211D01*
X394236Y296222D01*
X394225Y296233D01*
X394219D01*
X394064Y296333D01*
X393931Y296444D01*
X393820Y296561D01*
X393725Y296672D01*
X393648Y296777D01*
X393620Y296816D01*
X393598Y296855D01*
X393576Y296888D01*
X393564Y296910D01*
X393553Y296927D01*
Y296932D01*
X393509Y297021D01*
X393476Y297110D01*
X393415Y297288D01*
X393370Y297465D01*
X393342Y297626D01*
X393337Y297698D01*
X393326Y297765D01*
X393320Y297826D01*
Y297876D01*
X393315Y297920D01*
Y297948D01*
Y297970D01*
Y297976D01*
X393326Y298187D01*
X393348Y298381D01*
X393365Y298470D01*
X393387Y298559D01*
X393409Y298636D01*
X393426Y298708D01*
X393448Y298775D01*
X393470Y298836D01*
X393487Y298886D01*
X393509Y298930D01*
X393520Y298964D01*
X393531Y298986D01*
X393542Y299003D01*
Y299008D01*
X393631Y299169D01*
X393737Y299313D01*
X393847Y299435D01*
X393947Y299535D01*
X394042Y299613D01*
X394086Y299646D01*
X394119Y299674D01*
X394153Y299691D01*
X394175Y299707D01*
X394186Y299713D01*
X394192Y299718D01*
X394275Y299763D01*
X394358Y299802D01*
X394519Y299868D01*
X394686Y299913D01*
X394830Y299940D01*
X394896Y299952D01*
X394963Y299963D01*
X395013Y299968D01*
X395063D01*
X395102Y299974D01*
X395152D01*
X395302Y299968D01*
D02*
G37*
G36*
X408177Y302627D02*
X408199Y302577D01*
X408210Y302538D01*
X408221Y302516D01*
Y302510D01*
X408254Y302416D01*
X408288Y302338D01*
X408310Y302272D01*
X408332Y302227D01*
X408343Y302194D01*
X408354Y302171D01*
X408365Y302160D01*
Y302155D01*
X408410Y302094D01*
X408460Y302049D01*
X408482Y302033D01*
X408498Y302022D01*
X408509Y302011D01*
X408515D01*
X408554Y301994D01*
X408593Y301977D01*
X408676Y301961D01*
X408709D01*
X408737Y301955D01*
X408765D01*
X408854Y301961D01*
X408943Y301977D01*
X408976Y301988D01*
X409003Y301994D01*
X409026Y301999D01*
X409031D01*
X408981Y301561D01*
X408920Y301539D01*
X408865Y301528D01*
X408815Y301517D01*
X408770Y301505D01*
X408732D01*
X408704Y301500D01*
X408682D01*
X408598Y301505D01*
X408526Y301517D01*
X408460Y301533D01*
X408404Y301555D01*
X408354Y301578D01*
X408321Y301594D01*
X408299Y301606D01*
X408293Y301611D01*
X408232Y301655D01*
X408182Y301711D01*
X408132Y301766D01*
X408088Y301822D01*
X408054Y301872D01*
X408027Y301911D01*
X408010Y301939D01*
X408005Y301950D01*
X407988Y301988D01*
X407966Y302027D01*
X407921Y302122D01*
X407877Y302227D01*
X407838Y302332D01*
X407799Y302427D01*
X407783Y302471D01*
X407766Y302510D01*
X407755Y302538D01*
X407744Y302560D01*
X407738Y302577D01*
Y302582D01*
X406678Y305413D01*
X407150D01*
X407749Y303787D01*
X407794Y303670D01*
X407827Y303559D01*
X407866Y303448D01*
X407894Y303354D01*
X407916Y303270D01*
X407927Y303237D01*
X407932Y303209D01*
X407938Y303187D01*
X407943Y303171D01*
X407949Y303159D01*
Y303154D01*
X407982Y303282D01*
X408016Y303398D01*
X408049Y303509D01*
X408082Y303604D01*
X408110Y303681D01*
X408121Y303714D01*
X408132Y303742D01*
X408138Y303770D01*
X408143Y303787D01*
X408149Y303792D01*
Y303798D01*
X408732Y305413D01*
X409231D01*
X408177Y302627D01*
D02*
G37*
G36*
X403243Y306523D02*
X403420Y306495D01*
X403576Y306462D01*
X403648Y306439D01*
X403714Y306417D01*
X403775Y306395D01*
X403831Y306373D01*
X403875Y306356D01*
X403920Y306340D01*
X403947Y306323D01*
X403970Y306312D01*
X403986Y306306D01*
X403992Y306301D01*
X404142Y306206D01*
X404269Y306095D01*
X404380Y305984D01*
X404475Y305873D01*
X404547Y305773D01*
X404575Y305729D01*
X404597Y305690D01*
X404619Y305662D01*
X404630Y305640D01*
X404636Y305624D01*
X404641Y305618D01*
X404719Y305446D01*
X404774Y305268D01*
X404813Y305091D01*
X404841Y304930D01*
X404852Y304858D01*
X404858Y304786D01*
X404863Y304730D01*
Y304675D01*
X404869Y304636D01*
Y304602D01*
Y304580D01*
Y304575D01*
X404858Y304375D01*
X404835Y304181D01*
X404808Y304009D01*
X404785Y303925D01*
X404769Y303853D01*
X404752Y303787D01*
X404730Y303726D01*
X404713Y303670D01*
X404702Y303626D01*
X404686Y303592D01*
X404680Y303565D01*
X404669Y303548D01*
Y303542D01*
X404586Y303376D01*
X404491Y303226D01*
X404391Y303098D01*
X404342Y303048D01*
X404297Y302998D01*
X404253Y302954D01*
X404208Y302915D01*
X404170Y302882D01*
X404136Y302860D01*
X404114Y302838D01*
X404092Y302821D01*
X404081Y302815D01*
X404075Y302810D01*
X403997Y302765D01*
X403920Y302727D01*
X403753Y302665D01*
X403587Y302621D01*
X403426Y302593D01*
X403348Y302582D01*
X403281Y302571D01*
X403220Y302566D01*
X403170D01*
X403126Y302560D01*
X403065D01*
X402954Y302566D01*
X402848Y302577D01*
X402749Y302588D01*
X402654Y302610D01*
X402565Y302638D01*
X402482Y302665D01*
X402405Y302693D01*
X402332Y302727D01*
X402271Y302754D01*
X402210Y302782D01*
X402166Y302810D01*
X402121Y302838D01*
X402094Y302860D01*
X402066Y302871D01*
X402055Y302882D01*
X402049Y302888D01*
X401972Y302954D01*
X401905Y303021D01*
X401844Y303098D01*
X401783Y303176D01*
X401683Y303331D01*
X401605Y303487D01*
X401572Y303559D01*
X401544Y303626D01*
X401522Y303687D01*
X401506Y303737D01*
X401489Y303781D01*
X401478Y303814D01*
X401472Y303836D01*
Y303842D01*
X401983Y303970D01*
X402005Y303881D01*
X402033Y303798D01*
X402060Y303720D01*
X402088Y303648D01*
X402121Y303581D01*
X402155Y303526D01*
X402194Y303470D01*
X402227Y303420D01*
X402255Y303376D01*
X402288Y303343D01*
X402316Y303309D01*
X402338Y303282D01*
X402360Y303265D01*
X402377Y303248D01*
X402382Y303243D01*
X402388Y303237D01*
X402443Y303193D01*
X402504Y303159D01*
X402627Y303098D01*
X402743Y303054D01*
X402860Y303026D01*
X402959Y303004D01*
X402998Y302998D01*
X403037D01*
X403071Y302993D01*
X403109D01*
X403237Y302998D01*
X403359Y303021D01*
X403470Y303048D01*
X403570Y303082D01*
X403648Y303115D01*
X403681Y303132D01*
X403709Y303143D01*
X403731Y303154D01*
X403748Y303165D01*
X403759Y303171D01*
X403764D01*
X403870Y303248D01*
X403959Y303331D01*
X404036Y303426D01*
X404097Y303515D01*
X404147Y303592D01*
X404180Y303659D01*
X404192Y303687D01*
X404203Y303703D01*
X404208Y303714D01*
Y303720D01*
X404253Y303864D01*
X404286Y304009D01*
X404314Y304153D01*
X404330Y304286D01*
X404336Y304347D01*
X404342Y304403D01*
Y304453D01*
X404347Y304491D01*
Y304525D01*
Y304553D01*
Y304569D01*
Y304575D01*
X404342Y304719D01*
X404330Y304852D01*
X404308Y304974D01*
X404286Y305085D01*
X404269Y305180D01*
X404258Y305219D01*
X404247Y305252D01*
X404242Y305280D01*
X404236Y305296D01*
X404230Y305307D01*
Y305313D01*
X404175Y305440D01*
X404114Y305557D01*
X404047Y305651D01*
X403975Y305735D01*
X403914Y305801D01*
X403864Y305846D01*
X403825Y305873D01*
X403820Y305885D01*
X403814D01*
X403698Y305957D01*
X403570Y306012D01*
X403448Y306051D01*
X403331Y306073D01*
X403226Y306090D01*
X403182Y306095D01*
X403143D01*
X403115Y306101D01*
X403071D01*
X402932Y306095D01*
X402804Y306073D01*
X402699Y306040D01*
X402604Y306007D01*
X402532Y305968D01*
X402477Y305940D01*
X402443Y305918D01*
X402432Y305907D01*
X402344Y305823D01*
X402260Y305729D01*
X402194Y305629D01*
X402138Y305529D01*
X402094Y305440D01*
X402077Y305396D01*
X402066Y305363D01*
X402055Y305335D01*
X402044Y305313D01*
X402038Y305302D01*
Y305296D01*
X401539Y305413D01*
X401572Y305513D01*
X401605Y305602D01*
X401650Y305685D01*
X401689Y305768D01*
X401733Y305840D01*
X401783Y305907D01*
X401827Y305973D01*
X401872Y306029D01*
X401916Y306073D01*
X401955Y306118D01*
X401994Y306156D01*
X402022Y306184D01*
X402049Y306212D01*
X402072Y306229D01*
X402083Y306234D01*
X402088Y306240D01*
X402166Y306290D01*
X402244Y306340D01*
X402321Y306379D01*
X402405Y306412D01*
X402571Y306462D01*
X402721Y306495D01*
X402793Y306512D01*
X402854Y306517D01*
X402915Y306523D01*
X402965Y306528D01*
X403004Y306534D01*
X403059D01*
X403243Y306523D01*
D02*
G37*
G36*
X399369D02*
X399546Y306495D01*
X399702Y306462D01*
X399774Y306439D01*
X399840Y306417D01*
X399902Y306395D01*
X399957Y306373D01*
X400001Y306356D01*
X400046Y306340D01*
X400073Y306323D01*
X400096Y306312D01*
X400112Y306306D01*
X400118Y306301D01*
X400268Y306206D01*
X400395Y306095D01*
X400506Y305984D01*
X400601Y305873D01*
X400673Y305773D01*
X400701Y305729D01*
X400723Y305690D01*
X400745Y305662D01*
X400756Y305640D01*
X400762Y305624D01*
X400767Y305618D01*
X400845Y305446D01*
X400901Y305268D01*
X400939Y305091D01*
X400967Y304930D01*
X400978Y304858D01*
X400984Y304786D01*
X400989Y304730D01*
Y304675D01*
X400995Y304636D01*
Y304602D01*
Y304580D01*
Y304575D01*
X400984Y304375D01*
X400961Y304181D01*
X400934Y304009D01*
X400912Y303925D01*
X400895Y303853D01*
X400878Y303787D01*
X400856Y303726D01*
X400839Y303670D01*
X400828Y303626D01*
X400812Y303592D01*
X400806Y303565D01*
X400795Y303548D01*
Y303542D01*
X400712Y303376D01*
X400618Y303226D01*
X400518Y303098D01*
X400468Y303048D01*
X400423Y302998D01*
X400379Y302954D01*
X400334Y302915D01*
X400296Y302882D01*
X400262Y302860D01*
X400240Y302838D01*
X400218Y302821D01*
X400207Y302815D01*
X400201Y302810D01*
X400124Y302765D01*
X400046Y302727D01*
X399879Y302665D01*
X399713Y302621D01*
X399552Y302593D01*
X399474Y302582D01*
X399408Y302571D01*
X399346Y302566D01*
X399296D01*
X399252Y302560D01*
X399191D01*
X399080Y302566D01*
X398975Y302577D01*
X398875Y302588D01*
X398780Y302610D01*
X398692Y302638D01*
X398608Y302665D01*
X398531Y302693D01*
X398459Y302727D01*
X398397Y302754D01*
X398336Y302782D01*
X398292Y302810D01*
X398248Y302838D01*
X398220Y302860D01*
X398192Y302871D01*
X398181Y302882D01*
X398176Y302888D01*
X398098Y302954D01*
X398031Y303021D01*
X397970Y303098D01*
X397909Y303176D01*
X397809Y303331D01*
X397731Y303487D01*
X397698Y303559D01*
X397670Y303626D01*
X397648Y303687D01*
X397632Y303737D01*
X397615Y303781D01*
X397604Y303814D01*
X397598Y303836D01*
Y303842D01*
X398109Y303970D01*
X398131Y303881D01*
X398159Y303798D01*
X398186Y303720D01*
X398214Y303648D01*
X398248Y303581D01*
X398281Y303526D01*
X398320Y303470D01*
X398353Y303420D01*
X398381Y303376D01*
X398414Y303343D01*
X398442Y303309D01*
X398464Y303282D01*
X398486Y303265D01*
X398503Y303248D01*
X398508Y303243D01*
X398514Y303237D01*
X398569Y303193D01*
X398630Y303159D01*
X398753Y303098D01*
X398869Y303054D01*
X398986Y303026D01*
X399086Y303004D01*
X399125Y302998D01*
X399163D01*
X399197Y302993D01*
X399236D01*
X399363Y302998D01*
X399485Y303021D01*
X399596Y303048D01*
X399696Y303082D01*
X399774Y303115D01*
X399807Y303132D01*
X399835Y303143D01*
X399857Y303154D01*
X399874Y303165D01*
X399885Y303171D01*
X399890D01*
X399996Y303248D01*
X400085Y303331D01*
X400162Y303426D01*
X400223Y303515D01*
X400273Y303592D01*
X400307Y303659D01*
X400318Y303687D01*
X400329Y303703D01*
X400334Y303714D01*
Y303720D01*
X400379Y303864D01*
X400412Y304009D01*
X400440Y304153D01*
X400456Y304286D01*
X400462Y304347D01*
X400468Y304403D01*
Y304453D01*
X400473Y304491D01*
Y304525D01*
Y304553D01*
Y304569D01*
Y304575D01*
X400468Y304719D01*
X400456Y304852D01*
X400434Y304974D01*
X400412Y305085D01*
X400395Y305180D01*
X400384Y305219D01*
X400373Y305252D01*
X400368Y305280D01*
X400362Y305296D01*
X400357Y305307D01*
Y305313D01*
X400301Y305440D01*
X400240Y305557D01*
X400174Y305651D01*
X400101Y305735D01*
X400040Y305801D01*
X399990Y305846D01*
X399952Y305873D01*
X399946Y305885D01*
X399940D01*
X399824Y305957D01*
X399696Y306012D01*
X399574Y306051D01*
X399458Y306073D01*
X399352Y306090D01*
X399308Y306095D01*
X399269D01*
X399241Y306101D01*
X399197D01*
X399058Y306095D01*
X398930Y306073D01*
X398825Y306040D01*
X398730Y306007D01*
X398658Y305968D01*
X398603Y305940D01*
X398569Y305918D01*
X398558Y305907D01*
X398470Y305823D01*
X398386Y305729D01*
X398320Y305629D01*
X398264Y305529D01*
X398220Y305440D01*
X398203Y305396D01*
X398192Y305363D01*
X398181Y305335D01*
X398170Y305313D01*
X398164Y305302D01*
Y305296D01*
X397665Y305413D01*
X397698Y305513D01*
X397731Y305602D01*
X397776Y305685D01*
X397815Y305768D01*
X397859Y305840D01*
X397909Y305907D01*
X397954Y305973D01*
X397998Y306029D01*
X398042Y306073D01*
X398081Y306118D01*
X398120Y306156D01*
X398148Y306184D01*
X398176Y306212D01*
X398198Y306229D01*
X398209Y306234D01*
X398214Y306240D01*
X398292Y306290D01*
X398370Y306340D01*
X398447Y306379D01*
X398531Y306412D01*
X398697Y306462D01*
X398847Y306495D01*
X398919Y306512D01*
X398980Y306517D01*
X399041Y306523D01*
X399091Y306528D01*
X399130Y306534D01*
X399186D01*
X399369Y306523D01*
D02*
G37*
G36*
X395495D02*
X395672Y306495D01*
X395828Y306462D01*
X395900Y306439D01*
X395967Y306417D01*
X396028Y306395D01*
X396083Y306373D01*
X396128Y306356D01*
X396172Y306340D01*
X396200Y306323D01*
X396222Y306312D01*
X396238Y306306D01*
X396244Y306301D01*
X396394Y306206D01*
X396521Y306095D01*
X396633Y305984D01*
X396727Y305873D01*
X396799Y305773D01*
X396827Y305729D01*
X396849Y305690D01*
X396871Y305662D01*
X396882Y305640D01*
X396888Y305624D01*
X396893Y305618D01*
X396971Y305446D01*
X397027Y305268D01*
X397065Y305091D01*
X397093Y304930D01*
X397104Y304858D01*
X397110Y304786D01*
X397115Y304730D01*
Y304675D01*
X397121Y304636D01*
Y304602D01*
Y304580D01*
Y304575D01*
X397110Y304375D01*
X397088Y304181D01*
X397060Y304009D01*
X397038Y303925D01*
X397021Y303853D01*
X397004Y303787D01*
X396982Y303726D01*
X396966Y303670D01*
X396954Y303626D01*
X396938Y303592D01*
X396932Y303565D01*
X396921Y303548D01*
Y303542D01*
X396838Y303376D01*
X396744Y303226D01*
X396644Y303098D01*
X396594Y303048D01*
X396549Y302998D01*
X396505Y302954D01*
X396461Y302915D01*
X396422Y302882D01*
X396388Y302860D01*
X396366Y302838D01*
X396344Y302821D01*
X396333Y302815D01*
X396327Y302810D01*
X396250Y302765D01*
X396172Y302727D01*
X396005Y302665D01*
X395839Y302621D01*
X395678Y302593D01*
X395600Y302582D01*
X395534Y302571D01*
X395473Y302566D01*
X395423D01*
X395378Y302560D01*
X395317D01*
X395206Y302566D01*
X395101Y302577D01*
X395001Y302588D01*
X394906Y302610D01*
X394818Y302638D01*
X394735Y302665D01*
X394657Y302693D01*
X394585Y302727D01*
X394524Y302754D01*
X394462Y302782D01*
X394418Y302810D01*
X394374Y302838D01*
X394346Y302860D01*
X394318Y302871D01*
X394307Y302882D01*
X394302Y302888D01*
X394224Y302954D01*
X394157Y303021D01*
X394096Y303098D01*
X394035Y303176D01*
X393935Y303331D01*
X393858Y303487D01*
X393824Y303559D01*
X393796Y303626D01*
X393774Y303687D01*
X393758Y303737D01*
X393741Y303781D01*
X393730Y303814D01*
X393724Y303836D01*
Y303842D01*
X394235Y303970D01*
X394257Y303881D01*
X394285Y303798D01*
X394313Y303720D01*
X394340Y303648D01*
X394374Y303581D01*
X394407Y303526D01*
X394446Y303470D01*
X394479Y303420D01*
X394507Y303376D01*
X394540Y303343D01*
X394568Y303309D01*
X394590Y303282D01*
X394612Y303265D01*
X394629Y303248D01*
X394635Y303243D01*
X394640Y303237D01*
X394696Y303193D01*
X394757Y303159D01*
X394879Y303098D01*
X394995Y303054D01*
X395112Y303026D01*
X395212Y303004D01*
X395251Y302998D01*
X395289D01*
X395323Y302993D01*
X395362D01*
X395489Y302998D01*
X395611Y303021D01*
X395722Y303048D01*
X395822Y303082D01*
X395900Y303115D01*
X395933Y303132D01*
X395961Y303143D01*
X395983Y303154D01*
X396000Y303165D01*
X396011Y303171D01*
X396017D01*
X396122Y303248D01*
X396211Y303331D01*
X396288Y303426D01*
X396350Y303515D01*
X396399Y303592D01*
X396433Y303659D01*
X396444Y303687D01*
X396455Y303703D01*
X396461Y303714D01*
Y303720D01*
X396505Y303864D01*
X396538Y304009D01*
X396566Y304153D01*
X396583Y304286D01*
X396588Y304347D01*
X396594Y304403D01*
Y304453D01*
X396599Y304491D01*
Y304525D01*
Y304553D01*
Y304569D01*
Y304575D01*
X396594Y304719D01*
X396583Y304852D01*
X396560Y304974D01*
X396538Y305085D01*
X396521Y305180D01*
X396510Y305219D01*
X396499Y305252D01*
X396494Y305280D01*
X396488Y305296D01*
X396483Y305307D01*
Y305313D01*
X396427Y305440D01*
X396366Y305557D01*
X396300Y305651D01*
X396227Y305735D01*
X396166Y305801D01*
X396116Y305846D01*
X396078Y305873D01*
X396072Y305885D01*
X396066D01*
X395950Y305957D01*
X395822Y306012D01*
X395700Y306051D01*
X395584Y306073D01*
X395478Y306090D01*
X395434Y306095D01*
X395395D01*
X395367Y306101D01*
X395323D01*
X395184Y306095D01*
X395056Y306073D01*
X394951Y306040D01*
X394857Y306007D01*
X394784Y305968D01*
X394729Y305940D01*
X394696Y305918D01*
X394685Y305907D01*
X394596Y305823D01*
X394512Y305729D01*
X394446Y305629D01*
X394390Y305529D01*
X394346Y305440D01*
X394329Y305396D01*
X394318Y305363D01*
X394307Y305335D01*
X394296Y305313D01*
X394290Y305302D01*
Y305296D01*
X393791Y305413D01*
X393824Y305513D01*
X393858Y305602D01*
X393902Y305685D01*
X393941Y305768D01*
X393985Y305840D01*
X394035Y305907D01*
X394080Y305973D01*
X394124Y306029D01*
X394168Y306073D01*
X394207Y306118D01*
X394246Y306156D01*
X394274Y306184D01*
X394302Y306212D01*
X394324Y306229D01*
X394335Y306234D01*
X394340Y306240D01*
X394418Y306290D01*
X394496Y306340D01*
X394573Y306379D01*
X394657Y306412D01*
X394823Y306462D01*
X394973Y306495D01*
X395045Y306512D01*
X395106Y306517D01*
X395167Y306523D01*
X395217Y306528D01*
X395256Y306534D01*
X395312D01*
X395495Y306523D01*
D02*
G37*
G36*
X412500Y302627D02*
X411035D01*
X410902Y302632D01*
X410785Y302638D01*
X410680Y302649D01*
X410591Y302660D01*
X410519Y302671D01*
X410463Y302677D01*
X410430Y302688D01*
X410419D01*
X410324Y302715D01*
X410247Y302743D01*
X410175Y302777D01*
X410113Y302810D01*
X410064Y302832D01*
X410025Y302854D01*
X410003Y302871D01*
X409997Y302876D01*
X409936Y302926D01*
X409880Y302987D01*
X409836Y303048D01*
X409792Y303104D01*
X409758Y303159D01*
X409736Y303198D01*
X409719Y303226D01*
X409714Y303237D01*
X409675Y303326D01*
X409647Y303415D01*
X409625Y303498D01*
X409614Y303576D01*
X409603Y303642D01*
X409597Y303698D01*
Y303731D01*
Y303737D01*
Y303742D01*
X409603Y303864D01*
X409625Y303975D01*
X409658Y304070D01*
X409692Y304158D01*
X409725Y304225D01*
X409758Y304275D01*
X409781Y304308D01*
X409786Y304319D01*
X409864Y304408D01*
X409947Y304480D01*
X410041Y304541D01*
X410125Y304591D01*
X410202Y304630D01*
X410269Y304652D01*
X410291Y304663D01*
X410308Y304669D01*
X410319Y304675D01*
X410324D01*
X410230Y304730D01*
X410147Y304786D01*
X410080Y304847D01*
X410025Y304902D01*
X409980Y304946D01*
X409947Y304991D01*
X409930Y305013D01*
X409925Y305024D01*
X409880Y305107D01*
X409847Y305185D01*
X409819Y305263D01*
X409803Y305335D01*
X409792Y305396D01*
X409786Y305446D01*
Y305474D01*
Y305485D01*
X409792Y305579D01*
X409808Y305674D01*
X409836Y305757D01*
X409864Y305835D01*
X409892Y305901D01*
X409919Y305946D01*
X409936Y305979D01*
X409941Y305990D01*
X410003Y306073D01*
X410069Y306151D01*
X410141Y306212D01*
X410208Y306262D01*
X410263Y306301D01*
X410313Y306329D01*
X410347Y306345D01*
X410352Y306351D01*
X410358D01*
X410463Y306390D01*
X410580Y306417D01*
X410696Y306439D01*
X410807Y306451D01*
X410907Y306462D01*
X410952D01*
X410990Y306467D01*
X412500D01*
Y302627D01*
D02*
G37*
%LPC*%
G36*
X496695Y314647D02*
X495807D01*
X495735Y314641D01*
X495663D01*
X495596Y314635D01*
X495485Y314619D01*
X495397Y314608D01*
X495325Y314591D01*
X495274Y314575D01*
X495247Y314569D01*
X495236Y314563D01*
X495136Y314513D01*
X495041Y314452D01*
X494958Y314380D01*
X494886Y314308D01*
X494831Y314242D01*
X494786Y314186D01*
X494775Y314164D01*
X494764Y314147D01*
X494753Y314136D01*
Y314130D01*
X494720Y314069D01*
X494686Y313997D01*
X494636Y313853D01*
X494603Y313698D01*
X494575Y313548D01*
X494570Y313481D01*
X494564Y313415D01*
X494559Y313359D01*
Y313309D01*
X494553Y313265D01*
Y313237D01*
Y313215D01*
Y313209D01*
X494559Y313054D01*
X494570Y312910D01*
X494586Y312782D01*
X494603Y312671D01*
X494614Y312626D01*
X494625Y312588D01*
X494636Y312549D01*
X494642Y312521D01*
X494647Y312499D01*
X494653Y312482D01*
X494659Y312471D01*
Y312466D01*
X494697Y312360D01*
X494742Y312266D01*
X494792Y312182D01*
X494836Y312110D01*
X494875Y312055D01*
X494908Y312016D01*
X494930Y311994D01*
X494936Y311983D01*
X494991Y311938D01*
X495047Y311899D01*
X495103Y311866D01*
X495158Y311833D01*
X495208Y311811D01*
X495247Y311794D01*
X495274Y311788D01*
X495286Y311783D01*
X495369Y311761D01*
X495469Y311744D01*
X495569Y311733D01*
X495663Y311727D01*
X495746Y311722D01*
X495785Y311716D01*
X496695D01*
Y314647D01*
D02*
G37*
G36*
X497334Y334647D02*
X496446D01*
X496373Y334641D01*
X496301D01*
X496235Y334635D01*
X496124Y334619D01*
X496035Y334608D01*
X495963Y334591D01*
X495913Y334575D01*
X495885Y334569D01*
X495874Y334563D01*
X495774Y334513D01*
X495680Y334452D01*
X495596Y334380D01*
X495524Y334308D01*
X495469Y334242D01*
X495424Y334186D01*
X495413Y334164D01*
X495402Y334147D01*
X495391Y334136D01*
Y334131D01*
X495358Y334069D01*
X495325Y333997D01*
X495274Y333853D01*
X495241Y333698D01*
X495214Y333548D01*
X495208Y333481D01*
X495202Y333415D01*
X495197Y333359D01*
Y333309D01*
X495191Y333265D01*
Y333237D01*
Y333215D01*
Y333209D01*
X495197Y333054D01*
X495208Y332909D01*
X495225Y332782D01*
X495241Y332671D01*
X495252Y332626D01*
X495263Y332588D01*
X495274Y332549D01*
X495280Y332521D01*
X495286Y332499D01*
X495291Y332482D01*
X495297Y332471D01*
Y332466D01*
X495336Y332360D01*
X495380Y332266D01*
X495430Y332182D01*
X495474Y332110D01*
X495513Y332055D01*
X495546Y332016D01*
X495569Y331994D01*
X495574Y331983D01*
X495630Y331938D01*
X495685Y331899D01*
X495741Y331866D01*
X495796Y331833D01*
X495846Y331811D01*
X495885Y331794D01*
X495913Y331788D01*
X495924Y331783D01*
X496007Y331761D01*
X496107Y331744D01*
X496207Y331733D01*
X496301Y331727D01*
X496384Y331722D01*
X496423Y331716D01*
X497334D01*
Y334647D01*
D02*
G37*
G36*
X498366Y344580D02*
X497478D01*
X497406Y344574D01*
X497334D01*
X497267Y344569D01*
X497156Y344552D01*
X497067Y344541D01*
X496995Y344525D01*
X496945Y344508D01*
X496917Y344502D01*
X496906Y344497D01*
X496806Y344447D01*
X496712Y344386D01*
X496629Y344314D01*
X496557Y344241D01*
X496501Y344175D01*
X496457Y344119D01*
X496446Y344097D01*
X496434Y344080D01*
X496423Y344069D01*
Y344064D01*
X496390Y344003D01*
X496357Y343931D01*
X496307Y343786D01*
X496274Y343631D01*
X496246Y343481D01*
X496240Y343414D01*
X496235Y343348D01*
X496229Y343292D01*
Y343243D01*
X496224Y343198D01*
Y343170D01*
Y343148D01*
Y343143D01*
X496229Y342987D01*
X496240Y342843D01*
X496257Y342715D01*
X496274Y342604D01*
X496285Y342560D01*
X496296Y342521D01*
X496307Y342482D01*
X496312Y342454D01*
X496318Y342432D01*
X496323Y342415D01*
X496329Y342404D01*
Y342399D01*
X496368Y342293D01*
X496412Y342199D01*
X496462Y342116D01*
X496507Y342044D01*
X496546Y341988D01*
X496579Y341949D01*
X496601Y341927D01*
X496606Y341916D01*
X496662Y341872D01*
X496718Y341833D01*
X496773Y341799D01*
X496829Y341766D01*
X496878Y341744D01*
X496917Y341727D01*
X496945Y341722D01*
X496956Y341716D01*
X497039Y341694D01*
X497139Y341677D01*
X497239Y341666D01*
X497334Y341661D01*
X497417Y341655D01*
X497456Y341650D01*
X498366D01*
Y344580D01*
D02*
G37*
G36*
X506014Y355108D02*
X504804D01*
X504655Y355102D01*
X504527Y355080D01*
X504416Y355052D01*
X504333Y355019D01*
X504260Y354986D01*
X504216Y354958D01*
X504188Y354936D01*
X504177Y354930D01*
X504111Y354858D01*
X504061Y354786D01*
X504027Y354708D01*
X504000Y354642D01*
X503989Y354575D01*
X503983Y354525D01*
X503977Y354492D01*
Y354486D01*
Y354481D01*
X503983Y354414D01*
X503994Y354347D01*
X504011Y354292D01*
X504027Y354242D01*
X504050Y354198D01*
X504066Y354164D01*
X504077Y354142D01*
X504083Y354136D01*
X504122Y354081D01*
X504172Y354031D01*
X504222Y353992D01*
X504272Y353959D01*
X504316Y353937D01*
X504349Y353920D01*
X504372Y353909D01*
X504383Y353903D01*
X504460Y353881D01*
X504549Y353865D01*
X504638Y353854D01*
X504727Y353848D01*
X504804Y353842D01*
X504871Y353837D01*
X506014D01*
Y355108D01*
D02*
G37*
G36*
X498566Y355080D02*
X497678D01*
X497606Y355075D01*
X497534D01*
X497467Y355069D01*
X497356Y355052D01*
X497267Y355041D01*
X497195Y355025D01*
X497145Y355008D01*
X497118Y355002D01*
X497107Y354997D01*
X497007Y354947D01*
X496912Y354886D01*
X496829Y354814D01*
X496757Y354742D01*
X496701Y354675D01*
X496657Y354619D01*
X496646Y354597D01*
X496635Y354580D01*
X496624Y354569D01*
Y354564D01*
X496590Y354503D01*
X496557Y354431D01*
X496507Y354286D01*
X496474Y354131D01*
X496446Y353981D01*
X496441Y353914D01*
X496435Y353848D01*
X496429Y353792D01*
Y353743D01*
X496424Y353698D01*
Y353670D01*
Y353648D01*
Y353643D01*
X496429Y353487D01*
X496441Y353343D01*
X496457Y353215D01*
X496474Y353104D01*
X496485Y353060D01*
X496496Y353021D01*
X496507Y352982D01*
X496513Y352954D01*
X496518Y352932D01*
X496524Y352916D01*
X496529Y352904D01*
Y352899D01*
X496568Y352793D01*
X496613Y352699D01*
X496663Y352616D01*
X496707Y352544D01*
X496746Y352488D01*
X496779Y352449D01*
X496801Y352427D01*
X496807Y352416D01*
X496862Y352372D01*
X496918Y352333D01*
X496973Y352299D01*
X497029Y352266D01*
X497079Y352244D01*
X497118Y352227D01*
X497145Y352222D01*
X497156Y352216D01*
X497240Y352194D01*
X497340Y352177D01*
X497439Y352166D01*
X497534Y352161D01*
X497617Y352155D01*
X497656Y352150D01*
X498566D01*
Y355080D01*
D02*
G37*
G36*
X392171Y299452D02*
X391261D01*
X391139Y299441D01*
X391045Y299435D01*
X390962Y299424D01*
X390900Y299413D01*
X390862Y299408D01*
X390834Y299397D01*
X390828D01*
X390767Y299374D01*
X390712Y299341D01*
X390667Y299308D01*
X390629Y299274D01*
X390601Y299247D01*
X390579Y299219D01*
X390567Y299202D01*
X390562Y299197D01*
X390528Y299141D01*
X390506Y299086D01*
X390490Y299030D01*
X390479Y298975D01*
X390473Y298930D01*
X390468Y298897D01*
Y298875D01*
Y298864D01*
X390473Y298792D01*
X390484Y298725D01*
X390501Y298670D01*
X390517Y298625D01*
X390534Y298586D01*
X390551Y298553D01*
X390562Y298536D01*
X390567Y298531D01*
X390606Y298486D01*
X390656Y298442D01*
X390706Y298409D01*
X390751Y298387D01*
X390795Y298364D01*
X390828Y298348D01*
X390850Y298342D01*
X390862Y298337D01*
X390923Y298325D01*
X391000Y298314D01*
X391078Y298309D01*
X391156Y298303D01*
X391228Y298298D01*
X392171D01*
Y299452D01*
D02*
G37*
G36*
Y297843D02*
X391161D01*
X391045Y297832D01*
X390950Y297820D01*
X390873Y297809D01*
X390812Y297798D01*
X390762Y297787D01*
X390739Y297782D01*
X390728Y297776D01*
X390656Y297748D01*
X390595Y297715D01*
X390540Y297676D01*
X390495Y297637D01*
X390462Y297604D01*
X390440Y297576D01*
X390423Y297554D01*
X390418Y297549D01*
X390379Y297487D01*
X390351Y297426D01*
X390329Y297365D01*
X390318Y297310D01*
X390307Y297260D01*
X390301Y297216D01*
Y297193D01*
Y297182D01*
X390307Y297115D01*
X390312Y297049D01*
X390323Y296993D01*
X390340Y296949D01*
X390356Y296910D01*
X390368Y296877D01*
X390373Y296860D01*
X390379Y296855D01*
X390412Y296805D01*
X390440Y296760D01*
X390479Y296727D01*
X390506Y296694D01*
X390534Y296672D01*
X390556Y296655D01*
X390573Y296644D01*
X390579Y296638D01*
X390673Y296594D01*
X390767Y296561D01*
X390806Y296549D01*
X390839Y296544D01*
X390862Y296538D01*
X390867D01*
X390912Y296533D01*
X390962Y296527D01*
X391078Y296522D01*
X392171D01*
Y297843D01*
D02*
G37*
G36*
X395202Y299535D02*
X395152D01*
X395013Y299530D01*
X394880Y299508D01*
X394763Y299474D01*
X394663Y299441D01*
X394580Y299402D01*
X394547Y299385D01*
X394519Y299374D01*
X394491Y299358D01*
X394475Y299352D01*
X394469Y299341D01*
X394463D01*
X394358Y299263D01*
X394264Y299175D01*
X394180Y299086D01*
X394114Y298997D01*
X394064Y298919D01*
X394025Y298853D01*
X394014Y298831D01*
X394003Y298814D01*
X393997Y298803D01*
Y298797D01*
X393942Y298664D01*
X393903Y298520D01*
X393875Y298387D01*
X393859Y298259D01*
X393847Y298198D01*
X393842Y298148D01*
Y298098D01*
X393836Y298059D01*
Y298026D01*
Y298004D01*
Y297987D01*
Y297981D01*
X393842Y297848D01*
X393853Y297721D01*
X393870Y297598D01*
X393892Y297487D01*
X393925Y297388D01*
X393953Y297293D01*
X393986Y297204D01*
X394020Y297127D01*
X394058Y297060D01*
X394092Y296999D01*
X394119Y296949D01*
X394147Y296910D01*
X394175Y296877D01*
X394192Y296849D01*
X394203Y296838D01*
X394208Y296832D01*
X394280Y296760D01*
X394358Y296699D01*
X394436Y296649D01*
X394514Y296599D01*
X394591Y296561D01*
X394674Y296533D01*
X394746Y296505D01*
X394824Y296483D01*
X394891Y296466D01*
X394957Y296455D01*
X395013Y296444D01*
X395063Y296439D01*
X395102D01*
X395129Y296433D01*
X395157D01*
X395263Y296439D01*
X395363Y296449D01*
X395451Y296472D01*
X395540Y296494D01*
X395623Y296527D01*
X395701Y296561D01*
X395773Y296594D01*
X395840Y296633D01*
X395895Y296672D01*
X395945Y296705D01*
X395990Y296738D01*
X396029Y296772D01*
X396056Y296794D01*
X396078Y296816D01*
X396090Y296827D01*
X396095Y296832D01*
X396162Y296910D01*
X396217Y296993D01*
X396267Y297082D01*
X396312Y297171D01*
X396345Y297265D01*
X396378Y297354D01*
X396423Y297532D01*
X396434Y297609D01*
X396445Y297687D01*
X396456Y297754D01*
X396462Y297809D01*
X396467Y297859D01*
Y297898D01*
Y297920D01*
Y297926D01*
X396462Y298081D01*
X396450Y298226D01*
X396434Y298364D01*
X396406Y298486D01*
X396378Y298597D01*
X396345Y298697D01*
X396306Y298792D01*
X396273Y298869D01*
X396234Y298941D01*
X396201Y299003D01*
X396167Y299053D01*
X396140Y299091D01*
X396112Y299125D01*
X396095Y299147D01*
X396084Y299158D01*
X396078Y299164D01*
X396006Y299230D01*
X395929Y299286D01*
X395851Y299336D01*
X395768Y299380D01*
X395690Y299413D01*
X395612Y299447D01*
X395468Y299491D01*
X395402Y299502D01*
X395340Y299513D01*
X395290Y299524D01*
X395240Y299530D01*
X395202Y299535D01*
D02*
G37*
G36*
X411989Y306012D02*
X411079D01*
X410957Y306001D01*
X410863Y305995D01*
X410779Y305984D01*
X410718Y305973D01*
X410680Y305968D01*
X410652Y305957D01*
X410646D01*
X410585Y305935D01*
X410530Y305901D01*
X410485Y305868D01*
X410447Y305835D01*
X410419Y305807D01*
X410397Y305779D01*
X410386Y305762D01*
X410380Y305757D01*
X410347Y305701D01*
X410324Y305646D01*
X410308Y305590D01*
X410297Y305535D01*
X410291Y305490D01*
X410286Y305457D01*
Y305435D01*
Y305424D01*
X410291Y305352D01*
X410302Y305285D01*
X410319Y305230D01*
X410335Y305185D01*
X410352Y305146D01*
X410369Y305113D01*
X410380Y305096D01*
X410386Y305091D01*
X410424Y305047D01*
X410474Y305002D01*
X410524Y304969D01*
X410569Y304946D01*
X410613Y304924D01*
X410646Y304908D01*
X410669Y304902D01*
X410680Y304897D01*
X410741Y304886D01*
X410818Y304874D01*
X410896Y304869D01*
X410974Y304863D01*
X411046Y304858D01*
X411989D01*
Y306012D01*
D02*
G37*
G36*
Y304403D02*
X410979D01*
X410863Y304392D01*
X410768Y304380D01*
X410691Y304369D01*
X410630Y304358D01*
X410580Y304347D01*
X410558Y304342D01*
X410546Y304336D01*
X410474Y304308D01*
X410413Y304275D01*
X410358Y304236D01*
X410313Y304197D01*
X410280Y304164D01*
X410258Y304136D01*
X410241Y304114D01*
X410236Y304109D01*
X410197Y304047D01*
X410169Y303986D01*
X410147Y303925D01*
X410136Y303870D01*
X410125Y303820D01*
X410119Y303776D01*
Y303753D01*
Y303742D01*
X410125Y303676D01*
X410130Y303609D01*
X410141Y303554D01*
X410158Y303509D01*
X410175Y303470D01*
X410186Y303437D01*
X410191Y303420D01*
X410197Y303415D01*
X410230Y303365D01*
X410258Y303320D01*
X410297Y303287D01*
X410324Y303254D01*
X410352Y303232D01*
X410374Y303215D01*
X410391Y303204D01*
X410397Y303198D01*
X410491Y303154D01*
X410585Y303121D01*
X410624Y303110D01*
X410657Y303104D01*
X410680Y303098D01*
X410685D01*
X410730Y303093D01*
X410779Y303087D01*
X410896Y303082D01*
X411989D01*
Y304403D01*
D02*
G37*
%LPD*%
D13*
X420540Y337900D02*
G03*
X420540Y337900I-100J0D01*
G01*
X422900Y332300D02*
G03*
X422900Y332300I-300J0D01*
G01*
X539622Y345378D02*
X541000Y344000D01*
X539083Y345378D02*
X539622D01*
Y342622D02*
X541000Y344000D01*
X539083Y342622D02*
X539622D01*
X508500Y347000D02*
Y349000D01*
Y347000D02*
X510500D01*
Y346000D02*
Y347000D01*
Y341000D02*
Y346000D01*
X508500Y341000D02*
X510500D01*
X508500Y339000D02*
Y341000D01*
X518500Y339000D02*
Y349000D01*
Y342622D02*
X539083D01*
X518500Y345378D02*
X539083D01*
X539622Y325378D02*
X541000Y324000D01*
X539083Y325378D02*
X539622D01*
Y322622D02*
X541000Y324000D01*
X539083Y322622D02*
X539622D01*
X508500Y327000D02*
Y329000D01*
Y327000D02*
X510500D01*
Y326000D02*
Y327000D01*
Y321000D02*
Y326000D01*
X508500Y321000D02*
X510500D01*
X508500Y319000D02*
Y321000D01*
X518500Y319000D02*
Y329000D01*
Y322622D02*
X539083D01*
X518500Y325378D02*
X539083D01*
X518500Y315378D02*
X539083D01*
X518500Y312622D02*
X539083D01*
X518500Y309000D02*
Y319000D01*
X508500Y309000D02*
Y311000D01*
X510500D01*
Y316000D01*
Y317000D01*
X508500D02*
X510500D01*
X508500D02*
Y319000D01*
X539083Y312622D02*
X539622D01*
X541000Y314000D01*
X539083Y315378D02*
X539622D01*
X541000Y314000D01*
X539622Y305378D02*
X541000Y304000D01*
X539083Y305378D02*
X539622D01*
Y302622D02*
X541000Y304000D01*
X539083Y302622D02*
X539622D01*
X508500Y307000D02*
Y309000D01*
Y307000D02*
X510500D01*
Y306000D02*
Y307000D01*
Y301000D02*
Y306000D01*
X508500Y301000D02*
X510500D01*
X508500Y299000D02*
Y301000D01*
X518500Y299000D02*
Y309000D01*
X508500Y299000D02*
X518500D01*
Y302622D02*
X539083D01*
X518500Y305378D02*
X539083D01*
X518500Y335378D02*
X539083D01*
X518500Y332622D02*
X539083D01*
X518500Y329000D02*
Y339000D01*
X508500Y329000D02*
Y331000D01*
X510500D01*
Y336000D01*
Y337000D01*
X508500D02*
X510500D01*
X508500D02*
Y339000D01*
X539083Y332622D02*
X539622D01*
X541000Y334000D01*
X539083Y335378D02*
X539622D01*
X541000Y334000D01*
X518500Y355378D02*
X539083D01*
X518500Y352622D02*
X539083D01*
X518500Y349000D02*
Y359000D01*
X508500D02*
X518500D01*
X508500Y349000D02*
Y351000D01*
X510500D01*
Y356000D01*
Y357000D01*
X508500D02*
X510500D01*
X508500D02*
Y359000D01*
X539083Y352622D02*
X539622D01*
X541000Y354000D01*
X539083Y355378D02*
X539622D01*
X541000Y354000D01*
X502200Y367498D02*
X498201Y363500D01*
X502200D02*
X498201Y367498D01*
X502200Y365499D02*
X498201D01*
X500201Y363500D02*
Y367498D01*
X496202Y362500D02*
X494203D01*
X495202D01*
Y368498D01*
X496202Y367498D01*
D14*
X416500Y349819D02*
Y352181D01*
D16*
X408366Y344200D02*
Y342534D01*
X408033Y342200D01*
X407366D01*
X407033Y342534D01*
Y344200D01*
X406367Y343866D02*
X405034Y342534D01*
X406367D02*
X405034Y343866D01*
X406367Y343200D02*
X405034D01*
X405700Y342534D02*
Y343866D01*
X413533Y356366D02*
X413866Y356700D01*
X414533D01*
X414866Y356366D01*
Y355034D01*
X414533Y354700D01*
X413866D01*
X413533Y355034D01*
X411534Y356700D02*
X412200Y356366D01*
X412867Y355700D01*
Y355034D01*
X412534Y354700D01*
X411867D01*
X411534Y355034D01*
Y355367D01*
X411867Y355700D01*
X412867D01*
X416233Y321766D02*
X416566Y322100D01*
X417233D01*
X417566Y321766D01*
Y320434D01*
X417233Y320100D01*
X416566D01*
X416233Y320434D01*
X414234Y322100D02*
X415567D01*
Y321100D01*
X414900Y321433D01*
X414567D01*
X414234Y321100D01*
Y320434D01*
X414567Y320100D01*
X415234D01*
X415567Y320434D01*
D62*
X410595Y336700D02*
X422405D01*
X410595Y341200D02*
X422405D01*
X410595Y336700D02*
Y341200D01*
X422405Y336700D02*
Y341200D01*
M02*
