G04*
G04 #@! TF.GenerationSoftware,Altium Limited,Altium Designer,23.1.1 (15)*
G04*
G04 Layer_Color=2752767*
%FSLAX25Y25*%
%MOIN*%
G70*
G04*
G04 #@! TF.SameCoordinates,1495F0C7-D67D-4403-963C-54D1E027F531*
G04*
G04*
G04 #@! TF.FilePolarity,Positive*
G04*
G01*
G75*
%ADD65C,0.00667*%
%ADD66C,0.00500*%
D65*
X402374Y346008D02*
G03*
X402374Y346008I-2000J0D01*
G01*
Y311992D02*
G03*
X402374Y311992I-2000J0D01*
G01*
D66*
X397815Y311173D02*
X395815Y315173D01*
X399815D01*
X397815Y311173D01*
X392500Y341173D02*
X393500Y342173D01*
X394500D01*
X393500Y343173D01*
X394500Y344173D01*
X393500D01*
X392500Y345173D01*
X391500Y344173D01*
X390500D01*
X391500Y343173D01*
X390500Y342173D01*
X391500D01*
X392500Y341173D01*
X390756Y312827D02*
X391756Y314827D01*
X390756Y316827D01*
X392756Y315827D01*
X394756Y316827D01*
X393756Y314827D01*
X394756Y312827D01*
X392756Y313827D01*
X390756Y312827D01*
X379492Y345008D02*
Y344008D01*
X381492D01*
Y345008D01*
X382492D01*
Y347008D01*
X381492D01*
Y348008D01*
X379492D01*
Y347008D01*
X378492D01*
Y345008D01*
X379492D01*
Y310992D02*
Y309992D01*
X381492D01*
Y310992D01*
X382492D01*
Y312992D01*
X381492D01*
Y313992D01*
X379492D01*
Y312992D01*
X378492D01*
Y310992D01*
X379492D01*
X397815Y342827D02*
X395815Y346827D01*
X399815D01*
X397815Y342827D01*
X427500Y355000D02*
Y359000D01*
X431500D01*
Y355000D01*
X427500D01*
X432500D02*
Y359000D01*
X436500D01*
Y355000D01*
X432500D01*
X437500D02*
Y359000D01*
X441500D01*
Y355000D01*
X437500D01*
X442500D02*
Y359000D01*
X446500D01*
Y355000D01*
X442500D01*
X472406Y311144D02*
Y315144D01*
X476406D01*
Y311144D01*
X472406D01*
X473206Y311944D02*
Y314344D01*
X475606D01*
Y311944D01*
X473206D01*
X461800Y305100D02*
Y309100D01*
X465800D01*
Y305100D01*
X461800D01*
X462600Y305900D02*
Y308300D01*
X465000D01*
Y305900D01*
X462600D01*
X485500Y304500D02*
Y308500D01*
X489500D01*
Y304500D01*
X485500D01*
X486300Y305300D02*
Y307700D01*
X488700D01*
Y305300D01*
X486300D01*
X435000Y345500D02*
Y349500D01*
X439000D01*
Y345500D01*
X435000D01*
X435800Y346300D02*
Y348700D01*
X438200D01*
Y346300D01*
X435800D01*
X474300Y321600D02*
Y325600D01*
X478300D01*
Y321600D01*
X474300D01*
X475100Y322400D02*
Y324800D01*
X477500D01*
Y322400D01*
X475100D01*
X451000Y338800D02*
Y342800D01*
X455000D01*
Y338800D01*
X451000D01*
X451800Y339600D02*
Y342000D01*
X454200D01*
Y339600D01*
X451800D01*
X455700Y325000D02*
X457700Y327000D01*
X459700Y325000D01*
X457700Y323000D01*
X455700Y325000D01*
X445700D02*
X447700Y327000D01*
X449700Y325000D01*
X447700Y323000D01*
X445700Y325000D01*
X455700Y332000D02*
X457700Y334000D01*
X459700Y332000D01*
X457700Y330000D01*
X455700Y332000D01*
X445900Y331900D02*
X447900Y333900D01*
X449900Y331900D01*
X447900Y329900D01*
X445900Y331900D01*
X384557Y318654D02*
X386557Y320654D01*
X388557Y318654D01*
X386557Y316654D01*
X384557Y318654D01*
X375957Y318854D02*
X377957Y320854D01*
X379957Y318854D01*
X377957Y316854D01*
X375957Y318854D01*
X383157Y324854D02*
X385157Y326854D01*
X387157Y324854D01*
X385157Y322854D01*
X383157Y324854D01*
X376057Y324954D02*
X378057Y326954D01*
X380057Y324954D01*
X378057Y322954D01*
X376057Y324954D01*
X382857Y331654D02*
X384857Y333654D01*
X386857Y331654D01*
X384857Y329654D01*
X382857Y331654D01*
X375757Y331954D02*
X377757Y333954D01*
X379757Y331954D01*
X377757Y329954D01*
X375757Y331954D01*
X384500Y338600D02*
X386500Y340600D01*
X388500Y338600D01*
X386500Y336600D01*
X384500Y338600D01*
X376157Y338554D02*
X378157Y340554D01*
X380157Y338554D01*
X378157Y336554D01*
X376157Y338554D01*
X474800Y331500D02*
Y335500D01*
X478800D01*
Y331500D01*
X474800D01*
X475600Y332300D02*
Y334700D01*
X478000D01*
Y332300D01*
X475600D01*
X475000Y341400D02*
Y345400D01*
X479000D01*
Y341400D01*
X475000D01*
X475800Y342200D02*
Y344600D01*
X478200D01*
Y342200D01*
X475800D01*
X449014Y347006D02*
Y351006D01*
X453014D01*
Y347006D01*
X449014D01*
X449814Y347806D02*
Y350206D01*
X452214D01*
Y347806D01*
X449814D01*
X411000Y321700D02*
X413000Y323700D01*
X415000Y321700D01*
X413000Y319700D01*
X411000Y321700D01*
X457600Y304900D02*
Y308900D01*
X461600D01*
Y304900D01*
X457600D01*
X458400Y305700D02*
Y308100D01*
X460800D01*
Y305700D01*
X458400D01*
X422700Y298500D02*
Y302500D01*
X426700D01*
Y298500D01*
X422700D01*
X423500Y299300D02*
Y301700D01*
X425900D01*
Y299300D01*
X423500D01*
X447047Y339187D02*
Y343187D01*
X451047D01*
Y339187D01*
X447047D01*
X447847Y339987D02*
Y342387D01*
X450247D01*
Y339987D01*
X447847D01*
X445079Y346903D02*
Y350903D01*
X449079D01*
Y346903D01*
X445079D01*
X445879Y347703D02*
Y350103D01*
X448279D01*
Y347703D01*
X445879D01*
X425900Y326400D02*
Y330400D01*
X429900D01*
Y326400D01*
X425900D01*
X426700Y327200D02*
Y329600D01*
X429100D01*
Y327200D01*
X426700D01*
X425700Y337000D02*
Y341000D01*
X429700D01*
Y337000D01*
X425700D01*
X426500Y337800D02*
Y340200D01*
X428900D01*
Y337800D01*
X426500D01*
X416000Y315500D02*
Y319500D01*
X420000D01*
Y315500D01*
X416000D01*
X416800Y316300D02*
Y318700D01*
X419200D01*
Y316300D01*
X416800D01*
X391000Y325500D02*
Y329500D01*
X395000D01*
Y325500D01*
X391000D01*
X391800Y326300D02*
Y328700D01*
X394200D01*
Y326300D01*
X391800D01*
X391000Y329000D02*
Y333000D01*
X395000D01*
Y329000D01*
X391000D01*
X391800Y329800D02*
Y332200D01*
X394200D01*
Y329800D01*
X391800D01*
X406500Y329500D02*
Y333500D01*
X410500D01*
Y329500D01*
X406500D01*
X407300Y330300D02*
Y332700D01*
X409700D01*
Y330300D01*
X407300D01*
X405000Y323500D02*
X407000Y325500D01*
X409000Y323500D01*
X407000Y321500D01*
X405000Y323500D01*
M02*
