G04*
G04 #@! TF.GenerationSoftware,Altium Limited,Altium Designer,23.1.1 (15)*
G04*
G04 Layer_Color=16711935*
%FSLAX25Y25*%
%MOIN*%
G70*
G04*
G04 #@! TF.SameCoordinates,1495F0C7-D67D-4403-963C-54D1E027F531*
G04*
G04*
G04 #@! TF.FilePolarity,Positive*
G04*
G01*
G75*
%ADD15C,0.00591*%
%ADD63C,0.00394*%
D15*
X443732Y318764D02*
G03*
X443732Y318764I-1969J0D01*
G01*
X465779Y315220D02*
Y342779D01*
X438221Y315220D02*
Y342779D01*
X465779D01*
X438221Y315220D02*
X465779D01*
D63*
X421406Y337850D02*
G03*
X421406Y337850I-1000J0D01*
G01*
X418347Y324728D02*
Y328272D01*
X411654Y324728D02*
Y328272D01*
X418347D01*
X411654Y324728D02*
X418347D01*
X410594Y342150D02*
X422405D01*
X410594Y335850D02*
Y342150D01*
Y335850D02*
X422405D01*
Y342150D01*
X400170Y298728D02*
X406863D01*
X400170Y302272D02*
X406863D01*
Y298728D02*
Y302272D01*
X400170Y298728D02*
Y302272D01*
X421654Y325471D02*
X428346D01*
X421654Y321928D02*
X428346D01*
X421654D02*
Y325471D01*
X428346Y321928D02*
Y325471D01*
X421752Y332269D02*
X428248D01*
X421752Y328529D02*
X428248D01*
X421752D02*
Y332269D01*
X428248Y328529D02*
Y332269D01*
X421752Y338870D02*
X428248D01*
X421752Y335130D02*
X428248D01*
X421752D02*
Y338870D01*
X428248Y335130D02*
Y338870D01*
X413865Y357772D02*
X420557D01*
X413865Y354228D02*
X420557D01*
X413865D02*
Y357772D01*
X420557Y354228D02*
Y357772D01*
X467154Y353728D02*
Y357272D01*
X473846Y353728D02*
Y357272D01*
X467154D02*
X473846D01*
X467154Y353728D02*
X473846D01*
X460847D02*
Y357272D01*
X454153Y353728D02*
Y357272D01*
Y353728D02*
X460847D01*
X454153Y357272D02*
X460847D01*
X421654Y318772D02*
X428346D01*
X421654Y315228D02*
X428346D01*
X421654D02*
Y318772D01*
X428346Y315228D02*
Y318772D01*
X453606Y304772D02*
X460299D01*
X453606Y301228D02*
X460299D01*
X453606D02*
Y304772D01*
X460299Y301228D02*
Y304772D01*
X467606Y304772D02*
X474299D01*
X467606Y301228D02*
X474299D01*
X467606D02*
Y304772D01*
X474299Y301228D02*
Y304772D01*
M02*
