G04*
G04 #@! TF.GenerationSoftware,Altium Limited,Altium Designer,23.1.1 (15)*
G04*
G04 Layer_Color=8388736*
%FSLAX25Y25*%
%MOIN*%
G70*
G04*
G04 #@! TF.SameCoordinates,1495F0C7-D67D-4403-963C-54D1E027F531*
G04*
G04*
G04 #@! TF.FilePolarity,Positive*
G04*
G01*
G75*
%ADD14C,0.00787*%
%ADD63C,0.00394*%
%ADD64C,0.00197*%
D14*
X417118Y315335D02*
Y319665D01*
X406882D02*
X417118D01*
X406882Y315335D02*
Y319665D01*
Y315335D02*
X417118D01*
X407232Y340835D02*
Y345165D01*
Y340835D02*
X417469D01*
Y345165D01*
X407232D02*
X417469D01*
X489012Y313335D02*
Y317665D01*
X477988D02*
X489012D01*
X477988Y313335D02*
Y317665D01*
Y313335D02*
X489012D01*
X489165Y322335D02*
Y326665D01*
X478142D02*
X489165D01*
X478142Y322335D02*
Y326665D01*
Y322335D02*
X489165D01*
X478142Y331335D02*
Y335665D01*
Y331335D02*
X489165D01*
Y335665D01*
X478142D02*
X489165D01*
X477988Y340835D02*
Y345165D01*
Y340835D02*
X489012D01*
Y345165D01*
X477988D02*
X489012D01*
D63*
X407752Y327500D02*
X411689D01*
X409721Y325532D02*
Y329468D01*
X390531Y329000D02*
X394468D01*
X392500Y327031D02*
Y330968D01*
D64*
X412476Y324350D02*
Y330650D01*
X406965Y324350D02*
Y330650D01*
X412476D01*
X406965Y324350D02*
X412476D01*
X371043Y349079D02*
X405492D01*
X371043Y308921D02*
X405492D01*
X371043D02*
Y349079D01*
X405492Y308921D02*
Y349079D01*
M02*
