G04*
G04 #@! TF.GenerationSoftware,Altium Limited,Altium Designer,23.1.1 (15)*
G04*
G04 Layer_Color=255*
%FSLAX25Y25*%
%MOIN*%
G70*
G04*
G04 #@! TF.SameCoordinates,1495F0C7-D67D-4403-963C-54D1E027F531*
G04*
G04*
G04 #@! TF.FilePolarity,Positive*
G04*
G01*
G75*
%ADD17O,0.13780X0.04016*%
%ADD18R,0.13780X0.04016*%
%ADD49O,0.09055X0.04724*%
%ADD50O,0.03937X0.05906*%
%ADD51O,0.10236X0.05118*%
%ADD52O,0.03150X0.04724*%
%ADD53R,0.03150X0.04724*%
%ADD56R,0.03347X0.03347*%
G04:AMPARAMS|DCode=57|XSize=29.92mil|YSize=26mil|CornerRadius=3.25mil|HoleSize=0mil|Usage=FLASHONLY|Rotation=270.000|XOffset=0mil|YOffset=0mil|HoleType=Round|Shape=RoundedRectangle|*
%AMROUNDEDRECTD57*
21,1,0.02992,0.01950,0,0,270.0*
21,1,0.02342,0.02600,0,0,270.0*
1,1,0.00650,-0.00975,-0.01171*
1,1,0.00650,-0.00975,0.01171*
1,1,0.00650,0.00975,0.01171*
1,1,0.00650,0.00975,-0.01171*
%
%ADD57ROUNDEDRECTD57*%
%ADD58R,0.01968X0.04724*%
D17*
X500500Y344000D02*
D03*
Y324000D02*
D03*
Y314000D02*
D03*
Y334000D02*
D03*
Y354000D02*
D03*
D18*
Y304000D02*
D03*
D49*
X400374Y346008D02*
D03*
Y311992D02*
D03*
D50*
X397815Y313173D02*
D03*
Y344827D02*
D03*
D51*
X380492Y346008D02*
D03*
Y311992D02*
D03*
D52*
X429500Y357000D02*
D03*
X434500D02*
D03*
X439500D02*
D03*
D53*
X444500D02*
D03*
D56*
X417264Y326500D02*
D03*
X412736D02*
D03*
D57*
X413744Y351000D02*
D03*
X419256D02*
D03*
D58*
X412760Y333488D02*
D03*
X420240D02*
D03*
X416500D02*
D03*
X420240Y344512D02*
D03*
X412760D02*
D03*
M02*
