G04*
G04 #@! TF.GenerationSoftware,Altium Limited,Altium Designer,23.1.1 (15)*
G04*
G04 Layer_Color=32768*
%FSLAX25Y25*%
%MOIN*%
G70*
G04*
G04 #@! TF.SameCoordinates,1495F0C7-D67D-4403-963C-54D1E027F531*
G04*
G04*
G04 #@! TF.FilePolarity,Positive*
G04*
G01*
G75*
G36*
X414229Y331799D02*
X413357D01*
X413355D01*
X413348D01*
X413337D01*
X413324D01*
X413309Y331797D01*
X413289D01*
X413248Y331795D01*
X413200Y331791D01*
X413152Y331784D01*
X413106Y331775D01*
X413087Y331771D01*
X413067Y331765D01*
X413063Y331762D01*
X413052Y331758D01*
X413037Y331747D01*
X413015Y331734D01*
X412993Y331719D01*
X412969Y331697D01*
X412945Y331671D01*
X412925Y331640D01*
X412923Y331636D01*
X412917Y331625D01*
X412910Y331605D01*
X412901Y331579D01*
X412890Y331549D01*
X412884Y331509D01*
X412877Y331468D01*
X412875Y331422D01*
Y331400D01*
X412877Y331387D01*
Y331368D01*
X412880Y331348D01*
X412888Y331300D01*
X412899Y331248D01*
X412917Y331198D01*
X412941Y331150D01*
X412956Y331128D01*
X412973Y331108D01*
X412976Y331106D01*
X412978Y331104D01*
X412984Y331100D01*
X412993Y331093D01*
X413006Y331087D01*
X413019Y331078D01*
X413039Y331069D01*
X413058Y331060D01*
X413082Y331052D01*
X413111Y331045D01*
X413143Y331036D01*
X413178Y331030D01*
X413217Y331023D01*
X413259Y331019D01*
X413307Y331015D01*
X413357D01*
X414229D01*
Y330814D01*
X413357D01*
X413355D01*
X413346D01*
X413335D01*
X413320D01*
X413300Y330816D01*
X413278D01*
X413252Y330818D01*
X413226Y330821D01*
X413167Y330827D01*
X413106Y330836D01*
X413048Y330849D01*
X413019Y330858D01*
X412993Y330866D01*
X412991D01*
X412986Y330869D01*
X412980Y330873D01*
X412971Y330877D01*
X412947Y330890D01*
X412917Y330910D01*
X412882Y330936D01*
X412847Y330967D01*
X412810Y331006D01*
X412777Y331054D01*
Y331056D01*
X412773Y331060D01*
X412771Y331067D01*
X412764Y331078D01*
X412757Y331091D01*
X412751Y331108D01*
X412744Y331126D01*
X412736Y331148D01*
X412727Y331172D01*
X412720Y331198D01*
X412714Y331226D01*
X412707Y331259D01*
X412703Y331292D01*
X412699Y331326D01*
X412694Y331405D01*
Y331424D01*
X412697Y331440D01*
Y331457D01*
X412699Y331479D01*
X412701Y331503D01*
X412703Y331527D01*
X412712Y331581D01*
X412725Y331640D01*
X412742Y331697D01*
X412766Y331751D01*
Y331754D01*
X412771Y331758D01*
X412775Y331765D01*
X412779Y331773D01*
X412797Y331797D01*
X412821Y331826D01*
X412851Y331858D01*
X412886Y331889D01*
X412930Y331919D01*
X412978Y331943D01*
X412980D01*
X412984Y331945D01*
X412993Y331948D01*
X413004Y331952D01*
X413017Y331956D01*
X413034Y331961D01*
X413054Y331967D01*
X413078Y331972D01*
X413104Y331976D01*
X413132Y331983D01*
X413163Y331987D01*
X413196Y331991D01*
X413233Y331996D01*
X413272Y331998D01*
X413313Y332000D01*
X413357D01*
X414229D01*
Y331799D01*
D02*
G37*
G36*
X412762Y330581D02*
X412781Y330579D01*
X412803Y330574D01*
X412825Y330570D01*
X412849Y330561D01*
X412851D01*
X412853Y330559D01*
X412866Y330555D01*
X412886Y330546D01*
X412912Y330533D01*
X412943Y330515D01*
X412978Y330494D01*
X413013Y330470D01*
X413050Y330439D01*
X413052D01*
X413054Y330435D01*
X413067Y330424D01*
X413087Y330404D01*
X413115Y330376D01*
X413148Y330343D01*
X413187Y330302D01*
X413231Y330252D01*
X413276Y330197D01*
X413278Y330195D01*
X413285Y330186D01*
X413296Y330173D01*
X413309Y330158D01*
X413327Y330138D01*
X413346Y330114D01*
X413368Y330090D01*
X413392Y330062D01*
X413444Y330008D01*
X413497Y329953D01*
X413523Y329927D01*
X413549Y329903D01*
X413573Y329881D01*
X413597Y329864D01*
X413599D01*
X413601Y329859D01*
X413608Y329855D01*
X413616Y329851D01*
X413640Y329835D01*
X413669Y329818D01*
X413704Y329803D01*
X413741Y329787D01*
X413782Y329779D01*
X413821Y329774D01*
X413824D01*
X413826D01*
X413839Y329776D01*
X413861Y329779D01*
X413885Y329785D01*
X413915Y329794D01*
X413946Y329809D01*
X413976Y329829D01*
X414007Y329855D01*
X414011Y329859D01*
X414020Y329870D01*
X414031Y329885D01*
X414046Y329909D01*
X414059Y329940D01*
X414072Y329975D01*
X414081Y330016D01*
X414083Y330062D01*
Y330075D01*
X414081Y330084D01*
X414079Y330110D01*
X414072Y330140D01*
X414063Y330173D01*
X414048Y330210D01*
X414029Y330245D01*
X414002Y330278D01*
X413998Y330282D01*
X413987Y330291D01*
X413970Y330304D01*
X413943Y330317D01*
X413913Y330332D01*
X413874Y330345D01*
X413830Y330354D01*
X413780Y330359D01*
X413800Y330548D01*
X413802D01*
X413808Y330546D01*
X413819D01*
X413834Y330544D01*
X413852Y330539D01*
X413871Y330535D01*
X413896Y330528D01*
X413919Y330522D01*
X413972Y330504D01*
X414024Y330478D01*
X414050Y330463D01*
X414076Y330444D01*
X414100Y330424D01*
X414122Y330402D01*
X414124Y330400D01*
X414127Y330396D01*
X414133Y330389D01*
X414140Y330378D01*
X414148Y330365D01*
X414157Y330350D01*
X414168Y330332D01*
X414179Y330311D01*
X414190Y330287D01*
X414201Y330260D01*
X414209Y330232D01*
X414218Y330202D01*
X414225Y330169D01*
X414231Y330134D01*
X414233Y330097D01*
X414236Y330058D01*
Y330036D01*
X414233Y330021D01*
X414231Y330003D01*
X414229Y329981D01*
X414225Y329957D01*
X414220Y329933D01*
X414205Y329877D01*
X414183Y329820D01*
X414170Y329792D01*
X414155Y329763D01*
X414135Y329737D01*
X414114Y329713D01*
X414111Y329711D01*
X414109Y329707D01*
X414100Y329702D01*
X414092Y329694D01*
X414081Y329683D01*
X414066Y329672D01*
X414050Y329661D01*
X414031Y329648D01*
X413989Y329626D01*
X413937Y329604D01*
X413911Y329595D01*
X413880Y329591D01*
X413850Y329587D01*
X413817Y329585D01*
X413813D01*
X413802D01*
X413784Y329587D01*
X413760Y329589D01*
X413734Y329593D01*
X413704Y329602D01*
X413671Y329611D01*
X413638Y329624D01*
X413634Y329626D01*
X413623Y329630D01*
X413606Y329639D01*
X413582Y329652D01*
X413555Y329670D01*
X413523Y329691D01*
X413490Y329717D01*
X413453Y329748D01*
X413449Y329752D01*
X413436Y329763D01*
X413425Y329774D01*
X413414Y329785D01*
X413401Y329798D01*
X413383Y329816D01*
X413366Y329833D01*
X413346Y329855D01*
X413324Y329877D01*
X413300Y329903D01*
X413276Y329931D01*
X413248Y329962D01*
X413220Y329997D01*
X413189Y330031D01*
X413187Y330034D01*
X413183Y330038D01*
X413176Y330047D01*
X413167Y330058D01*
X413154Y330071D01*
X413141Y330086D01*
X413113Y330121D01*
X413080Y330158D01*
X413048Y330193D01*
X413019Y330223D01*
X413008Y330236D01*
X412997Y330247D01*
X412995Y330250D01*
X412989Y330256D01*
X412980Y330265D01*
X412967Y330276D01*
X412952Y330287D01*
X412936Y330300D01*
X412899Y330326D01*
Y329582D01*
X412720D01*
Y330583D01*
X412723D01*
X412731D01*
X412744D01*
X412762Y330581D01*
D02*
G37*
G36*
X400304Y336498D02*
X400326D01*
X400348Y336496D01*
X400376Y336493D01*
X400405Y336489D01*
X400468Y336478D01*
X400538Y336463D01*
X400607Y336441D01*
X400675Y336411D01*
X400677Y336408D01*
X400684Y336406D01*
X400693Y336402D01*
X400703Y336393D01*
X400719Y336385D01*
X400736Y336374D01*
X400775Y336345D01*
X400819Y336308D01*
X400863Y336265D01*
X400906Y336214D01*
X400943Y336156D01*
X400945Y336153D01*
X400948Y336147D01*
X400952Y336138D01*
X400958Y336127D01*
X400965Y336110D01*
X400972Y336092D01*
X400980Y336070D01*
X400989Y336047D01*
X400998Y336020D01*
X401006Y335992D01*
X401019Y335931D01*
X401030Y335861D01*
X401035Y335789D01*
Y335768D01*
X401032Y335752D01*
X401030Y335733D01*
X401028Y335709D01*
X401026Y335685D01*
X401019Y335656D01*
X401006Y335597D01*
X400987Y335532D01*
X400974Y335499D01*
X400958Y335469D01*
X400939Y335438D01*
X400919Y335408D01*
X400917Y335406D01*
X400915Y335401D01*
X400908Y335393D01*
X400897Y335382D01*
X400886Y335371D01*
X400871Y335355D01*
X400854Y335340D01*
X400836Y335323D01*
X400814Y335305D01*
X400788Y335288D01*
X400762Y335268D01*
X400734Y335251D01*
X400701Y335236D01*
X400668Y335218D01*
X400634Y335205D01*
X400594Y335192D01*
X400549Y335388D01*
X400551D01*
X400555Y335390D01*
X400564Y335395D01*
X400575Y335399D01*
X400588Y335403D01*
X400605Y335410D01*
X400640Y335427D01*
X400679Y335449D01*
X400719Y335475D01*
X400756Y335508D01*
X400788Y335543D01*
X400793Y335547D01*
X400802Y335560D01*
X400812Y335582D01*
X400828Y335611D01*
X400841Y335648D01*
X400854Y335689D01*
X400863Y335739D01*
X400865Y335794D01*
Y335811D01*
X400863Y335822D01*
Y335837D01*
X400860Y335855D01*
X400854Y335896D01*
X400845Y335942D01*
X400830Y335990D01*
X400808Y336040D01*
X400780Y336086D01*
Y336088D01*
X400775Y336090D01*
X400764Y336105D01*
X400747Y336125D01*
X400721Y336149D01*
X400688Y336177D01*
X400651Y336204D01*
X400605Y336227D01*
X400555Y336249D01*
X400553D01*
X400549Y336251D01*
X400542Y336254D01*
X400531Y336256D01*
X400518Y336260D01*
X400503Y336265D01*
X400466Y336271D01*
X400422Y336280D01*
X400374Y336288D01*
X400322Y336293D01*
X400265Y336295D01*
X400263D01*
X400256D01*
X400246D01*
X400233D01*
X400217Y336293D01*
X400198D01*
X400176Y336291D01*
X400152Y336288D01*
X400100Y336282D01*
X400043Y336271D01*
X399986Y336258D01*
X399929Y336241D01*
X399927D01*
X399923Y336238D01*
X399916Y336234D01*
X399905Y336230D01*
X399879Y336217D01*
X399849Y336197D01*
X399814Y336173D01*
X399777Y336142D01*
X399744Y336108D01*
X399714Y336066D01*
Y336064D01*
X399711Y336060D01*
X399707Y336053D01*
X399703Y336044D01*
X399698Y336034D01*
X399692Y336020D01*
X399679Y335990D01*
X399666Y335951D01*
X399655Y335907D01*
X399646Y335859D01*
X399644Y335809D01*
Y335794D01*
X399646Y335781D01*
Y335765D01*
X399648Y335750D01*
X399657Y335711D01*
X399668Y335665D01*
X399685Y335619D01*
X399709Y335571D01*
X399722Y335547D01*
X399740Y335525D01*
X399742Y335523D01*
X399744Y335521D01*
X399751Y335515D01*
X399757Y335506D01*
X399768Y335497D01*
X399781Y335486D01*
X399794Y335473D01*
X399812Y335462D01*
X399831Y335449D01*
X399853Y335434D01*
X399875Y335421D01*
X399901Y335408D01*
X399929Y335397D01*
X399960Y335386D01*
X399993Y335375D01*
X400028Y335366D01*
X399977Y335166D01*
X399975D01*
X399967Y335168D01*
X399953Y335172D01*
X399936Y335179D01*
X399916Y335186D01*
X399892Y335194D01*
X399866Y335205D01*
X399838Y335218D01*
X399777Y335249D01*
X399716Y335288D01*
X399685Y335312D01*
X399655Y335336D01*
X399629Y335362D01*
X399603Y335393D01*
X399600Y335395D01*
X399596Y335399D01*
X399592Y335410D01*
X399583Y335421D01*
X399572Y335438D01*
X399561Y335456D01*
X399550Y335480D01*
X399539Y335504D01*
X399526Y335532D01*
X399515Y335563D01*
X399504Y335595D01*
X399494Y335630D01*
X399485Y335667D01*
X399480Y335706D01*
X399476Y335748D01*
X399474Y335791D01*
Y335816D01*
X399476Y335833D01*
Y335853D01*
X399478Y335876D01*
X399483Y335903D01*
X399487Y335933D01*
X399498Y335996D01*
X399515Y336062D01*
X399539Y336127D01*
X399554Y336158D01*
X399572Y336188D01*
X399574Y336190D01*
X399576Y336195D01*
X399583Y336204D01*
X399592Y336212D01*
X399600Y336225D01*
X399613Y336241D01*
X399629Y336258D01*
X399646Y336276D01*
X399666Y336293D01*
X399685Y336313D01*
X399735Y336352D01*
X399794Y336389D01*
X399860Y336421D01*
X399862D01*
X399868Y336426D01*
X399879Y336428D01*
X399892Y336435D01*
X399910Y336439D01*
X399932Y336445D01*
X399956Y336454D01*
X399982Y336461D01*
X400010Y336467D01*
X400043Y336476D01*
X400110Y336487D01*
X400187Y336496D01*
X400265Y336500D01*
X400267D01*
X400276D01*
X400289D01*
X400304Y336498D01*
D02*
G37*
G36*
X401009Y334717D02*
X399823Y333925D01*
X401009D01*
Y333734D01*
X399500D01*
Y333941D01*
X400684Y334730D01*
X399500D01*
Y334922D01*
X401009D01*
Y334717D01*
D02*
G37*
G36*
X400636Y333330D02*
X400640Y333326D01*
X400642Y333317D01*
X400649Y333306D01*
X400655Y333293D01*
X400664Y333278D01*
X400686Y333241D01*
X400710Y333197D01*
X400740Y333154D01*
X400775Y333108D01*
X400812Y333062D01*
X400814Y333060D01*
X400817Y333058D01*
X400823Y333051D01*
X400830Y333043D01*
X400852Y333023D01*
X400878Y332997D01*
X400908Y332971D01*
X400943Y332942D01*
X400978Y332918D01*
X401015Y332896D01*
Y332777D01*
X399500D01*
Y332962D01*
X400679D01*
X400677Y332964D01*
X400668Y332975D01*
X400655Y332988D01*
X400640Y333010D01*
X400621Y333034D01*
X400599Y333064D01*
X400575Y333099D01*
X400551Y333138D01*
Y333141D01*
X400549Y333143D01*
X400540Y333156D01*
X400529Y333178D01*
X400516Y333204D01*
X400501Y333234D01*
X400485Y333267D01*
X400470Y333300D01*
X400457Y333332D01*
X400636D01*
Y333330D01*
D02*
G37*
M02*
