**ABCDEFGHIJKLMNOPQRSTUVWXYZabcdefghijklmnopqrstuvwxyz**************************
**PARASOLID !"#$%&'()*+,-./:;<=>?@[\]^_`{|}~0123456789**************************
**PART1;
MC=AMD64;
MC_MODEL=Intel64 Family 6 Model 151 Stepping 2, GenuineIntel;
MC_ID=unknown;
OS=Windows_NT;
OS_RELEASE=unknown;
FRU=CAD Exchanger 3.13.0 (cadexchanger.com);
APPL=unknown;
SITE=unknown;
USER=unknown;
FORMAT=text;
GUISE=transmit;
KEY=CAPC0603(1608)100_L_CMP-001-00076-4;
FILE=CAPC0603(1608)100_L_CMP-001-00076-4.x_t;
DATE=Thu Apr 13 23:42:07 2023;
**PART2;
SCH=SCH_1200000_12103;
USFLD_SIZE=0;
**PART3;
**END_OF_HEADER*****************************************************************
T51 : TRANSMIT FILE created by modeller version 120000017 SCH_1200000_121030 74
 9 1 9 0 2 547 581 615 649 683 717 751 785 12 2 362 0 3 0 0 0 0 1000.0 1.0e-08 0
 0 0 1 0 3 1 10 12 18 16 9 17 15 70 3 0 2 0 0 4 1 20 0 4 4 1 T74 20 4 1 0 5 0 0
 0 0 0 0 0 0 0 0 0 0 0 0 0 0 0 0 0 81 1 5 5 6 11 0 0 40 0 8 80 1 6 0 7 8001 0 0
 0 0 3 5 0 0 0 FFFFTFTFFFFFFF2 79 15 7 SDL/TYSA_COLOUR83 3 8 0.7529411911964418
 0.7529411911964418 0.7529411911964418 19 9 1 0 2 0 0 10 V13 10 2 0 2 0 11 0 0 9
 11 14 11 3 5 1.0e-08 38 0 13 10 12 -0 0 38 0 10 50 12 4 0 11 39 0 0 +8.00000000
00000018e-04 4.0000253999999993e-04 9.5e-04 -1.4997597826618576e-32 -6.123233995
7367659e-17 -1.0 2.4492935982947066e-16 1.0 -6.1232339957367659e-17 15 13 6 0 14
 11 0 17 14 0 13 22 34 15 19 17 0 27 -18 15 7 0 14 0 20 16 ?2 29 16 8 0 15 21 0
 -4.9999999999999992e-04 3.5000254000000016e-04 9.5e-04 16 17 9 0 ?19 0 25 18 0
 0 2 30 18 10 0 17 26 0 0 +-4.9999999999999992e-04 4.000025400000002e-04 9.5e-04
 -2.4492935982947066e-16 -1.0 6.1232339957367659e-17 17 19 0 0 0 0 20 14 17 0 34
 +18 20 11 0 19 15 23 21 ?2 29 21 12 0 20 24 16 -5.0000000000000009e-04 -3.49997
4599999998e-04 9.5e-04 17 22 0 13 28 14 23 27 25 0 33 +18 23 13 0 22 20 29 24 ?2
 29 24 14 0 23 30 21 -7.4999999999999992e-04 3.500025400000002e-04 9.5e-04 16 25
 15 0 ?22 17 31 26 0 0 2 30 26 16 0 25 32 18 0 +8.0000000000000018e-04 3.5000253
999999988e-04 9.5e-04 -1.0 2.4492935982947066e-16 0.0 17 27 0 239 240 252 15 22
 25 0 245 -17 28 0 13 34 22 29 33 31 0 37 +18 29 17 0 87 23 44 30 ?2 29 30 18 0
 29 45 24 -7.500000000000001e-04 -3.4999745999999972e-04 9.5e-04 16 31 19 0 ?28
 25 35 32 0 0 2 30 32 20 0 31 36 26 0 +-7.4999999999999992e-04 4.000025400000002
e-04 9.5e-04 -2.4492935982947066e-16 -1.0 6.1232339957367659e-17 17 33 0 438 439
 424 23 28 31 0 442 -17 34 0 13 14 28 20 37 35 0 80 +16 35 21 0 ?34 31 46 36 0 0
 2 30 36 22 0 35 47 32 0 +7.9999999999999992e-04 -3.4999746000000012e-04 9.5e-04
 1.0 -2.4492935982947066e-16 0.0 17 37 0 71 84 80 29 34 35 0 424 -14 38 23 40 1.
0e-08 67 11 42 10 39 -0 0 67 11 10 50 39 24 0 38 68 12 0 +8.0000000000000018e-04
 4.0000253999999993e-04 9.5e-04 -1.4997597826618576e-32 -6.1232339957367659e-17
 -1.0 2.4492935982947066e-16 1.0 -6.1232339957367659e-17 81 1 40 25 6 38 0 0 69
 5 41 83 3 41 0.7529411911964418 0.7529411911964418 0.7529411911964418 15 42 26
 0 43 38 0 17 43 0 42 51 63 44 48 46 0 56 -18 44 27 0 98 29 49 45 ?2 29 45 28 0
 44 50 30 4.9999999999999992e-04 -3.4999746000000008e-04 9.5e-04 16 46 29 0 ?48
 35 54 47 0 0 2 30 47 30 0 46 55 36 0 +5.0000000000000009e-04 4.0000253999999993
e-04 9.5e-04 -2.6121183291905368e-17 1.0 -6.1232339957367659e-17 17 48 0 0 0 0 4
9 43 46 0 63 +18 49 31 0 48 44 52 50 ?2 29 50 32 0 49 53 45 5.0000000000000009e-
04 3.5000253999999994e-04 9.5e-04 17 51 0 42 57 43 52 56 54 0 62 +18 52 33 0 51
 49 58 53 ?2 29 53 34 0 52 59 50 7.4999999999999992e-04 -3.4999746000000012e-04
 9.5e-04 16 54 35 0 ?51 46 60 55 0 0 2 30 55 36 0 54 61 47 0 +7.9999999999999992
e-04 -3.4999746000000012e-04 9.5e-04 1.0 -2.4492935982947066e-16 0.0 17 56 0 92
 93 105 44 51 54 0 0 -17 57 0 42 63 51 58 62 60 0 66 +18 58 37 0 511 52 73 59 ?2
 29 59 38 0 58 74 53 7.500000000000001e-04 3.5000253999999988e-04 9.5e-04 16 60
 39 0 ?57 54 64 61 0 0 2 30 61 40 0 60 65 55 0 +7.500000000000001e-04 4.00002539
99999993e-04 9.5e-04 2.4492935982947066e-16 1.0 -6.1232339957367659e-17 17 62 0
 510 486 511 52 57 60 0 483 -17 63 0 42 43 57 49 66 64 0 269 +16 64 41 0 ?63 60
 75 65 0 0 2 30 65 42 0 64 76 61 0 +8.0000000000000018e-04 3.5000253999999988e-0
4 9.5e-04 -1.0 2.4492935982947066e-16 0.0 17 66 0 260 273 269 58 63 64 0 276 -14
 67 43 69 1.0e-08 88 38 71 10 68 +0 0 88 38 10 51 68 44 0 67 89 39 0 +7.99999999
99999992e-04 -3.4999746000000016e-04 9.0e-04 1.0 -2.4492935982947066e-16 0.0 5.0
000000000000027e-05 2.4492935982947066e-16 1.0 -6.1232339957367659e-17 81 1 69 4
5 6 67 0 0 90 40 70 83 3 70 0.7529411911964418 0.7529411911964418 0.752941191196
4418 15 71 46 0 72 67 0 17 72 0 71 80 84 73 77 75 0 83 -18 73 47 0 72 58 78 74 ?
2 29 74 48 0 73 79 59 -5.0000000000000009e-04 -3.9999745999999984e-04 9.0e-04 16
 75 49 0 ?77 64 81 76 0 0 2 30 76 50 0 75 82 65 0 +-8.0000000000000018e-04 -3.99
99745999999976e-04 9.0e-04 -1.0 2.4492935982947066e-16 0.0 17 77 0 113 120 114 7
8 72 75 0 125 +18 78 51 0 84 73 94 79 ?2 29 79 52 0 78 95 74 -7.500000000000001e
-04 -3.999974599999998e-04 9.0e-04 17 80 0 71 37 72 20 83 81 0 0 +16 81 53 0 ?80
 75 85 82 0 0 2 31 82 54 0 81 86 76 0 +-5.0000000000000009e-04 -3.49997459999999
86e-04 9.0e-04 -1.0 2.4492935982947066e-16 0.0 2.4492935982947066e-16 1.0 -6.123
2339957367659e-17 5.0000000000000027e-05 17 83 0 0 0 0 73 80 81 0 114 -17 84 0 7
1 72 37 78 87 85 0 77 +16 85 55 0 ?84 81 96 86 0 0 2 31 86 56 0 85 97 82 0 +-7.5
00000000000001e-04 -3.499974599999998e-04 9.0e-04 1.0 -2.4492935982947049e-16 2.
1684043449710107e-15 2.1684043449710107e-15 -6.1232339957368192e-17 -1.0 5.00000
00000000027e-05 17 87 0 420 421 411 29 84 85 0 28 -14 88 57 90 1.0e-08 109 67 92
 10 89 +0 0 109 67 10 51 89 58 0 88 110 68 0 +7.9999999999999992e-04 -3.49997460
00000016e-04 9.0e-04 1.0 -2.4492935982947066e-16 0.0 5.0000000000000027e-05 2.44
92935982947066e-16 1.0 -6.1232339957367659e-17 81 1 90 59 6 88 0 0 111 69 91 83
 3 91 0.7529411911964418 0.7529411911964418 0.7529411911964418 15 92 60 0 56 88
 0 17 93 0 92 99 56 94 98 96 0 104 +18 94 61 0 93 78 100 95 ?2 29 95 62 0 94 101
 79 4.9999999999999992e-04 -3.9999746000000008e-04 9.0e-04 16 96 63 0 ?93 85 102
 97 0 0 2 31 97 64 0 96 103 86 0 +4.9999999999999992e-04 -3.4999746000000008e-04
 9.0e-04 1.0 -2.4492935982947066e-16 0.0 -2.4492935982947066e-16 -1.0 6.12323399
57367659e-17 5.0000000000000027e-05 17 98 0 0 0 0 44 93 96 0 43 -17 99 0 92 105
 93 100 104 102 0 470 -18 100 65 0 99 94 118 101 ?2 29 101 66 0 100 119 95 7.499
9999999999992e-04 -3.9999746000000016e-04 9.0e-04 16 102 67 0 ?104 96 106 103 0
 0 2 30 103 68 0 102 107 97 0 +-8.0000000000000018e-04 -3.9999745999999976e-04 9
.0e-04 -1.0 2.4492935982947066e-16 0.0 17 104 0 134 135 147 94 99 102 0 140 +17
 105 0 92 56 99 52 108 106 0 0 -16 106 69 0 ?108 102 115 107 0 0 2 31 107 70 0 1
06 116 103 0 +7.4999999999999992e-04 -3.4999746000000012e-04 9.0e-04 1.0 -2.4492
935982947066e-16 0.0 2.4492935982947066e-16 1.0 -6.1232339957367659e-17 5.000000
0000000027e-05 17 108 0 482 473 483 100 105 106 0 147 +14 109 71 111 1.0e-08 130
 88 113 10 110 -0 0 130 88 10 50 110 72 0 109 131 89 0 +-8.0000000000000018e-04
 -3.9999745999999976e-04 9.5e-04 2.4492935982947066e-16 1.0 -6.1232339957367659e
-17 -1.4997597826618576e-32 -6.1232339957367659e-17 -1.0 81 1 111 73 6 109 0 0 1
32 90 112 83 3 112 0.7529411911964418 0.7529411911964418 0.7529411911964418 15 1
13 74 0 114 109 0 17 114 0 113 77 126 73 117 115 0 0 -16 115 75 0 ?117 106 123 1
16 0 0 2 30 116 76 0 115 124 107 0 +-5.0000000000000009e-04 -3.9999745999999984e
-04 9.5e-04 -1.4997597826618576e-32 -6.1232339957367659e-17 -1.0 17 117 0 0 0 0
 118 114 115 0 0 +18 118 77 0 164 100 121 119 ?2 29 119 78 0 118 122 101 -5.0000
000000000009e-04 -3.9999745999999994e-04 5.0000000000000027e-05 17 120 0 113 126
 77 121 125 123 0 129 +18 121 79 0 171 118 136 122 ?2 29 122 80 0 121 137 119 -7
.500000000000001e-04 -3.9999745999999984e-04 5.0000000000000027e-05 16 123 81 0
 ?120 115 127 124 0 0 2 30 124 82 0 123 128 116 0 +-7.500000000000001e-04 -3.999
974599999998e-04 9.5e-04 -1.4997597826618576e-32 -6.1232339957367659e-17 -1.0 17
 125 0 407 408 412 78 120 123 0 411 -17 126 0 113 114 120 118 129 127 0 117 +16
 127 83 0 ?126 123 138 128 0 0 2 30 128 84 0 127 139 124 0 +7.9999999999999992e-
04 -3.999974600000002e-04 5.0000000000000027e-05 1.0 -2.4492935982947066e-16 0.0
 17 129 0 155 168 164 121 126 127 0 412 -14 130 85 132 1.0e-08 151 109 134 10 13
1 -0 0 151 109 10 50 131 86 0 130 152 110 0 +-8.0000000000000018e-04 -3.99997459
99999976e-04 9.5e-04 2.4492935982947066e-16 1.0 -6.1232339957367659e-17 -1.49975
97826618576e-32 -6.1232339957367659e-17 -1.0 81 1 132 87 6 130 0 0 153 111 133 8
3 3 133 0.7529411911964418 0.7529411911964418 0.7529411911964418 15 134 88 0 135
 130 0 17 135 0 134 141 104 136 140 138 0 146 -18 136 89 0 182 121 142 137 ?2 29
 137 90 0 136 143 122 4.9999999999999992e-04 -3.9999746000000016e-04 5.000000000
0000027e-05 16 138 91 0 ?140 127 144 139 0 0 2 30 139 92 0 138 145 128 0 +4.9999
999999999992e-04 -3.9999746000000008e-04 9.5e-04 1.4997597826618576e-32 6.123233
9957367659e-17 1.0 17 140 0 0 0 0 94 135 138 0 0 +17 141 0 134 147 135 142 146 1
44 0 150 +18 142 93 0 189 136 157 143 ?2 29 143 94 0 142 158 137 7.4999999999999
992e-04 -3.999974600000002e-04 5.0000000000000027e-05 16 144 95 0 ?141 138 148 1
45 0 0 2 30 145 96 0 144 149 139 0 +7.9999999999999992e-04 -3.999974600000002e-0
4 5.0000000000000027e-05 1.0 -2.4492935982947066e-16 0.0 17 146 0 176 177 189 13
6 141 144 0 0 -17 147 0 134 104 141 100 150 148 0 0 +16 148 97 0 ?147 144 159 14
9 0 0 2 30 149 98 0 148 160 145 0 +7.4999999999999992e-04 -3.9999746000000016e-0
4 9.5e-04 1.4997597826618576e-32 6.1232339957367659e-17 1.0 17 150 0 469 474 470
 142 147 148 0 0 -14 151 99 153 1.0e-08 172 130 155 10 152 +0 0 172 130 10 51 15
2 100 0 151 173 131 0 +-8.0000000000000018e-04 -3.499974599999998e-04 5.00000000
00000027e-05 -1.0 2.4492935982947066e-16 0.0 5.0000000000000027e-05 -2.449293598
2947066e-16 -1.0 6.1232339957367659e-17 81 1 153 101 6 151 0 0 174 132 154 83 3
 154 0.7529411911964418 0.7529411911964418 0.7529411911964418 15 155 102 0 156 1
51 0 17 156 0 155 164 168 157 161 159 0 167 -18 157 103 0 156 142 162 158 ?2 29
 158 104 0 157 163 143 -5.0000000000000009e-04 -3.4999745999999986e-04 2.1431318
98507868e-20 16 159 105 0 ?161 148 165 160 0 0 2 30 160 106 0 159 166 149 0 +-8.
0000000000000018e-04 -3.4999745999999972e-04 2.143131898507868e-20 -1.0 2.449293
5982947066e-16 0.0 17 161 0 197 210 206 162 156 159 0 430 +18 162 107 0 161 157
 178 163 ?2 29 163 108 0 162 179 158 -7.500000000000001e-04 -3.499974599999998e-
04 2.143131898507868e-20 17 164 0 155 129 156 118 167 165 0 126 +16 165 109 0 ?1
64 159 169 166 0 0 2 31 166 110 0 165 170 160 0 +-5.0000000000000009e-04 -3.4999
74599999999e-04 5.0000000000000027e-05 -1.0 2.4492935982947066e-16 0.0 2.4492935
982947066e-16 1.0 -6.1232339957367659e-17 5.0000000000000027e-05 17 167 0 0 0 0
 157 164 165 0 206 -17 168 0 155 156 129 162 171 169 0 213 +16 169 111 0 ?168 16
5 180 170 0 0 2 31 170 112 0 169 181 166 0 +-7.500000000000001e-04 -3.4999745999
999986e-04 5.0000000000000027e-05 1.0 -2.4492935982947066e-16 0.0 -2.44929359829
47066e-16 -1.0 6.1232339957367659e-17 5.0000000000000027e-05 17 171 0 429 415 43
0 121 168 169 0 120 -14 172 113 174 1.0e-08 193 151 176 10 173 +0 0 193 151 10 5
1 173 114 0 172 194 152 0 +-8.0000000000000018e-04 -3.499974599999998e-04 5.0000
000000000027e-05 -1.0 2.4492935982947066e-16 0.0 5.0000000000000027e-05 -2.44929
35982947066e-16 -1.0 6.1232339957367659e-17 81 1 174 115 6 172 0 0 195 153 175 8
3 3 175 0.7529411911964418 0.7529411911964418 0.7529411911964418 15 176 116 0 14
6 172 0 17 177 0 176 183 146 178 182 180 0 188 +18 178 117 0 177 162 184 179 ?2
 29 179 118 0 178 185 163 4.9999999999999992e-04 -3.4999746000000012e-04 2.14313
1898507868e-20 16 180 119 0 ?177 169 186 181 0 0 2 31 181 120 0 180 187 170 0 +4
.9999999999999992e-04 -3.4999746000000012e-04 5.0000000000000027e-05 1.0 -2.4492
935982947066e-16 0.0 -2.4492935982947066e-16 -1.0 6.1232339957367659e-17 5.00000
00000000027e-05 17 182 0 0 0 0 136 177 180 0 135 -17 183 0 176 189 177 184 188 1
86 0 192 -18 184 121 0 505 178 199 185 ?2 29 185 122 0 184 200 179 7.49999999999
99992e-04 -3.4999746000000016e-04 2.143131898507868e-20 16 186 123 0 ?188 180 19
0 187 0 0 2 30 187 124 0 186 191 181 0 +-8.0000000000000018e-04 -3.4999745999999
972e-04 2.143131898507868e-20 -1.0 2.4492935982947066e-16 0.0 17 188 0 218 219 2
31 178 183 186 0 224 +17 189 0 176 146 183 142 192 190 0 477 -16 190 125 0 ?192
 186 201 191 0 0 2 31 191 126 0 190 202 187 0 +7.4999999999999992e-04 -3.4999746
000000016e-04 5.0000000000000027e-05 1.0 -2.4492935982947066e-16 0.0 2.449293598
2947066e-16 1.0 -6.1232339957367659e-17 5.0000000000000027e-05 17 192 0 501 502
 477 184 189 190 0 231 +14 193 127 195 1.0e-08 214 172 197 10 194 +0 0 214 172 1
0 50 194 128 0 193 215 173 0 +8.0000000000000018e-04 4.0000253999999975e-04 -2.4
492935982947066e-20 -1.4997597826618576e-32 -6.1232339957367659e-17 -1.0 2.44929
35982947066e-16 1.0 -6.1232339957367659e-17 81 1 195 129 6 193 0 0 216 174 196 8
3 3 196 0.7529411911964418 0.7529411911964418 0.7529411911964418 15 197 130 0 19
8 193 0 17 198 0 197 206 210 199 203 201 0 209 +18 199 131 0 198 184 204 200 ?2
 29 200 132 0 199 205 185 -4.9999999999999992e-04 3.5000254000000012e-04 -2.1431
31898507868e-20 16 201 133 0 ?198 190 207 202 0 0 2 30 202 134 0 201 208 191 0 +
8.0000000000000018e-04 3.5000253999999976e-04 -2.143131898507868e-20 1.0 -2.4492
935982947066e-16 0.0 17 203 0 281 294 290 204 198 201 0 210 -18 204 135 0 297 19
9 220 205 ?2 29 205 136 0 204 221 200 -7.4999999999999992e-04 3.5000254000000016
e-04 -2.143131898507868e-20 17 206 0 197 161 198 157 209 207 0 0 +16 207 137 0 ?
206 201 211 208 0 0 2 30 208 138 0 207 212 202 0 +-4.9999999999999992e-04 4.0000
254000000011e-04 -2.4492935982947066e-20 -2.4492935982947066e-16 -1.0 6.12323399
57367659e-17 17 209 0 0 0 0 199 206 207 0 290 -17 210 0 197 198 161 204 213 211
 0 0 +16 211 139 0 ?210 207 222 212 0 0 2 30 212 140 0 211 223 208 0 +-7.4999999
999999992e-04 4.000025400000002e-04 -2.4492935982947066e-20 2.4492935982947066e-
16 1.0 -6.1232339957367659e-17 17 213 0 460 433 461 162 210 211 0 0 -14 214 141
 216 1.0e-08 235 193 218 10 215 +0 0 235 193 10 50 215 142 0 214 236 194 0 +8.00
00000000000018e-04 4.0000253999999975e-04 -2.4492935982947066e-20 -1.49975978266
18576e-32 -6.1232339957367659e-17 -1.0 2.4492935982947066e-16 1.0 -6.12323399573
67659e-17 81 1 216 143 6 214 0 0 237 195 217 83 3 217 0.7529411911964418 0.75294
11911964418 0.7529411911964418 15 218 144 0 188 214 0 17 219 0 218 225 188 220 2
24 222 0 0 +18 220 145 0 308 204 226 221 ?2 29 221 146 0 220 227 205 5.000000000
0000009e-04 3.5000253999999988e-04 -2.143131898507868e-20 16 222 147 0 ?219 211
 228 223 0 0 2 30 223 148 0 222 229 212 0 +5.0000000000000009e-04 4.000025399999
9993e-04 -2.4492935982947066e-20 -2.6121183291905368e-17 1.0 -6.1232339957367659
e-17 17 224 0 0 0 0 178 219 222 0 0 -17 225 0 218 231 219 226 230 228 0 234 +18
 226 149 0 523 220 241 227 ?2 29 227 150 0 226 242 221 7.500000000000001e-04 3.5
000253999999984e-04 -2.143131898507868e-20 16 228 151 0 ?225 222 232 229 0 0 2 3
0 229 152 0 228 233 223 0 +8.0000000000000018e-04 3.5000253999999976e-04 -2.1431
31898507868e-20 1.0 -2.4492935982947066e-16 0.0 17 230 0 302 303 315 220 225 228
 0 219 -17 231 0 218 188 225 184 234 232 0 0 +16 232 153 0 ?231 228 243 233 0 0
 2 30 233 154 0 232 244 229 0 +7.4999999999999992e-04 -3.999974600000002e-04 2.4
492935982947066e-20 -2.4492935982947066e-16 -1.0 6.1232339957367659e-17 17 234 0
 519 520 505 226 231 232 0 0 -14 235 155 237 1.0e-08 256 214 239 10 236 +0 0 256
 214 10 51 236 156 0 235 257 215 0 +8.0000000000000018e-04 3.5000253999999984e-0
4 9.0e-04 -1.0 2.4492935982947066e-16 0.0 5.0000000000000027e-05 -2.449293598294
7066e-16 -1.0 6.1232339957367659e-17 81 1 237 157 6 235 0 0 258 216 238 83 3 238
 0.7529411911964418 0.7529411911964418 0.7529411911964418 15 239 158 0 27 235 0
 17 240 0 239 246 27 241 245 243 0 251 +18 241 159 0 327 226 247 242 ?2 29 242 1
60 0 241 248 227 -4.9999999999999992e-04 4.000025400000002e-04 9.0e-04 16 243 16
1 0 ?240 232 249 244 0 0 2 31 244 162 0 243 250 233 0 +-4.9999999999999992e-04 3
.5000254000000016e-04 9.0e-04 -1.0 2.4492935982947066e-16 0.0 2.4492935982947066
e-16 1.0 -6.1232339957367659e-17 5.0000000000000027e-05 17 245 0 0 0 0 15 240 24
3 0 0 -17 246 0 239 252 240 247 251 249 0 255 -18 247 163 0 452 241 262 248 ?2 2
9 248 164 0 247 263 242 -7.4999999999999992e-04 4.000025400000002e-04 9.0e-04 16
 249 165 0 ?251 243 253 250 0 0 2 30 250 166 0 249 254 244 0 +-7.999999999999999
2e-04 4.0000254000000028e-04 9.0e-04 1.0 -2.4492935982947066e-16 0.0 17 251 0 32
3 324 328 241 246 249 0 0 +17 252 0 239 27 246 23 255 253 0 0 +16 253 167 0 ?252
 249 264 254 0 0 2 31 254 168 0 253 265 250 0 +-7.4999999999999992e-04 3.5000254
00000002e-04 9.0e-04 1.0 -2.4133337048004813e-15 1.3277647201629806e-31 -2.41333
37048004813e-15 -1.0 6.1232339957367659e-17 5.0000000000000027e-05 17 255 0 491
 455 442 247 252 253 0 0 -14 256 169 258 1.0e-08 277 235 260 10 257 +0 0 277 235
 10 51 257 170 0 256 278 236 0 +8.0000000000000018e-04 3.5000253999999984e-04 9.
0e-04 -1.0 2.4492935982947066e-16 0.0 5.0000000000000027e-05 -2.4492935982947066
e-16 -1.0 6.1232339957367659e-17 81 1 258 171 6 256 0 0 279 237 259 83 3 259 0.7
529411911964418 0.7529411911964418 0.7529411911964418 15 260 172 0 261 256 0 17
 261 0 260 269 273 262 266 264 0 272 -18 262 173 0 337 247 267 263 ?2 29 263 174
 0 262 268 248 5.0000000000000009e-04 4.0000253999999993e-04 9.0e-04 16 264 175
 0 ?266 253 270 265 0 0 2 30 265 176 0 264 271 254 0 +-7.9999999999999992e-04 4.
0000254000000028e-04 9.0e-04 1.0 -2.4492935982947066e-16 0.0 17 266 0 336 341 33
7 267 261 264 0 273 +18 267 177 0 529 262 283 268 ?2 29 268 178 0 267 284 263 7.
500000000000001e-04 4.0000253999999993e-04 9.0e-04 17 269 0 260 66 261 49 272 27
0 0 0 +16 270 179 0 ?269 264 274 271 0 0 2 31 271 180 0 270 275 265 0 +5.0000000
000000009e-04 3.5000253999999994e-04 9.0e-04 1.0 -2.4492935982947066e-16 0.0 -2.
4492935982947066e-16 -1.0 6.1232339957367659e-17 5.0000000000000027e-05 17 272 0
 0 0 0 262 269 270 0 0 -17 273 0 260 261 66 267 276 274 0 0 -16 274 181 0 ?276 2
70 285 275 0 0 2 31 275 182 0 274 286 271 0 +7.500000000000001e-04 3.50002539999
99988e-04 9.0e-04 1.0 -2.4492935982947049e-16 2.1684043449710107e-15 -2.16840434
49710107e-15 6.1232339957368192e-17 1.0 5.0000000000000027e-05 17 276 0 528 514
 529 58 273 274 0 0 +14 277 183 279 1.0e-08 298 256 281 10 278 +0 0 298 256 10 5
1 278 184 0 277 299 257 0 +-7.9999999999999992e-04 3.500025400000002e-04 4.99999
99999999982e-05 1.0 -2.4492935982947066e-16 0.0 5.0000000000000027e-05 2.4492935
982947066e-16 1.0 -6.1232339957367659e-17 81 1 279 185 6 277 0 0 300 258 280 83
 3 280 0.7529411911964418 0.7529411911964418 0.7529411911964418 15 281 186 0 282
 277 0 17 282 0 281 290 294 283 287 285 0 293 -18 283 187 0 324 267 288 284 ?2 2
9 284 188 0 283 289 268 -4.9999999999999992e-04 4.0000254000000011e-04 4.9999999
999999974e-05 16 285 189 0 ?287 274 291 286 0 0 2 30 286 190 0 285 292 275 0 +-7
.9999999999999992e-04 4.000025400000002e-04 4.9999999999999974e-05 -1.0 2.449293
5982947066e-16 0.0 17 287 0 323 328 324 288 282 285 0 0 +18 288 191 0 294 283 30
4 289 ?2 29 289 192 0 288 305 284 -7.4999999999999992e-04 4.000025400000002e-04
 4.9999999999999974e-05 17 290 0 281 203 282 199 293 291 0 0 +16 291 193 0 ?290
 285 295 292 0 0 2 31 292 194 0 291 296 286 0 +-4.9999999999999992e-04 3.5000254
000000012e-04 4.9999999999999982e-05 -1.0 2.4492935982947066e-16 0.0 2.449293598
2947066e-16 1.0 -6.1232339957367659e-17 5.0000000000000027e-05 17 293 0 0 0 0 28
3 290 291 0 0 -17 294 0 281 282 203 288 297 295 0 451 +16 295 195 0 ?294 291 306
 296 0 0 2 31 296 196 0 295 307 292 0 +-7.4999999999999992e-04 3.500025400000001
6e-04 4.9999999999999982e-05 1.0 -2.4492935982947066e-16 0.0 -2.4492935982947066
e-16 -1.0 6.1232339957367659e-17 5.0000000000000027e-05 17 297 0 496 464 451 204
 294 295 0 461 -14 298 197 300 1.0e-08 319 277 302 10 299 +0 0 319 277 10 51 299
 198 0 298 320 278 0 +-7.9999999999999992e-04 3.500025400000002e-04 4.9999999999
999982e-05 1.0 -2.4492935982947066e-16 0.0 5.0000000000000027e-05 2.449293598294
7066e-16 1.0 -6.1232339957367659e-17 81 1 300 199 6 298 0 0 321 279 301 83 3 301
 0.7529411911964418 0.7529411911964418 0.7529411911964418 15 302 200 0 230 298 0
 17 303 0 302 309 230 304 308 306 0 314 +18 304 201 0 303 288 310 305 ?2 29 305
 202 0 304 311 289 5.0000000000000009e-04 4.0000253999999993e-04 4.9999999999999
974e-05 16 306 203 0 ?303 295 312 307 0 0 2 31 307 204 0 306 313 296 0 +5.000000
0000000009e-04 3.5000253999999988e-04 4.9999999999999982e-05 1.0 -2.449293598294
7066e-16 0.0 -2.4492935982947066e-16 -1.0 6.1232339957367659e-17 5.0000000000000
027e-05 17 308 0 0 0 0 220 303 306 0 230 -17 309 0 302 315 303 310 314 312 0 318
 -18 310 205 0 309 304 351 311 ?2 29 311 206 0 310 352 305 7.500000000000001e-04
 4.0000253999999984e-04 4.9999999999999974e-05 16 312 207 0 ?314 306 316 313 0 0
 2 30 313 208 0 312 317 307 0 +-7.9999999999999992e-04 4.000025400000002e-04 4.9
999999999999974e-05 -1.0 2.4492935982947066e-16 0.0 17 314 0 336 337 341 304 309
 312 0 340 +17 315 0 302 230 309 226 318 316 0 225 -16 316 209 0 ?318 312 325 31
7 0 0 2 31 317 210 0 316 326 313 0 +7.500000000000001e-04 3.5000253999999984e-04
 4.9999999999999982e-05 1.0 -2.4133337048004813e-15 1.3277647201629806e-31 2.413
3337048004813e-15 1.0 -6.1232339957367659e-17 5.0000000000000027e-05 17 318 0 53
7 538 523 310 315 316 0 541 +14 319 211 321 1.0e-08 332 298 323 10 320 -0 0 332
 298 10 50 320 212 0 319 333 299 0 +-7.9999999999999992e-04 4.0000254000000028e-
04 9.5e-04 -2.4492935982947066e-16 -1.0 6.1232339957367659e-17 1.0 -2.4492935982
947066e-16 0.0 81 1 321 213 6 319 0 0 334 300 322 83 3 322 0.7529411911964418 0.
7529411911964418 0.7529411911964418 15 323 214 0 324 319 0 17 324 0 323 287 251
 283 327 325 0 282 -16 325 215 0 ?327 316 329 326 0 0 2 30 326 216 0 325 330 317
 0 +-4.9999999999999992e-04 4.000025400000002e-04 9.5e-04 1.4997597826618576e-32
 6.1232339957367659e-17 1.0 17 327 0 0 0 0 241 324 325 0 240 +17 328 0 323 251 2
87 247 331 329 0 246 +16 329 217 0 ?328 325 338 330 0 0 2 30 330 218 0 329 339 3
26 0 +-7.4999999999999992e-04 4.000025400000002e-04 9.5e-04 1.4997597826618576e-
32 6.1232339957367659e-17 1.0 17 331 0 447 448 452 288 328 329 0 287 -14 332 219
 334 1.0e-08 345 319 336 10 333 -0 0 345 319 10 50 333 220 0 332 346 320 0 +-7.9
999999999999992e-04 4.0000254000000028e-04 9.5e-04 -2.4492935982947066e-16 -1.0
 6.1232339957367659e-17 1.0 -2.4492935982947066e-16 0.0 81 1 334 221 6 332 0 0 3
47 321 335 83 3 335 0.7529411911964418 0.7529411911964418 0.7529411911964418 15
 336 222 0 337 332 0 17 337 0 336 266 314 262 340 338 0 261 -16 338 223 0 ?340 3
29 342 339 0 0 2 30 339 224 0 338 343 330 0 +5.0000000000000009e-04 4.0000253999
999993e-04 9.5e-04 -1.4997597826618576e-32 -6.1232339957367659e-17 -1.0 17 340 0
 0 0 0 304 337 338 0 0 +17 341 0 336 314 266 310 344 342 0 0 +16 342 225 0 ?341
 338 353 343 0 0 2 30 343 226 0 342 354 339 0 +7.500000000000001e-04 4.000025399
9999993e-04 9.5e-04 -1.4997597826618576e-32 -6.1232339957367659e-17 -1.0 17 344
 0 546 532 541 267 341 342 0 266 -14 345 227 347 1.0e-08 374 332 349 10 346 -0 0
 374 332 10 50 346 228 0 345 375 333 0 +7.9999999999999992e-04 -3.99997460000000
16e-04 9.5e-04 -1.0 2.4492935982947066e-16 0.0 -2.4492935982947066e-16 -1.0 6.12
32339957367659e-17 81 1 347 229 6 345 0 0 376 334 348 83 3 348 0.752941191196441
8 0.7529411911964418 0.7529411911964418 15 349 230 0 350 345 0 17 350 0 349 358
 370 351 355 353 0 363 +18 351 231 0 514 310 356 352 ?2 29 352 232 0 351 357 311
 8.0000000000000018e-04 3.5000253999999984e-04 9.0e-04 16 353 233 0 ?350 342 361
 354 0 0 2 30 354 234 0 353 362 343 0 +8.0000000000000018e-04 3.5000253999999988
e-04 9.5e-04 1.4997597826618576e-32 6.1232339957367659e-17 1.0 17 355 0 546 541
 532 356 350 353 0 0 -18 356 235 0 520 351 359 357 ?2 29 357 236 0 356 360 352 8
.0000000000000018e-04 3.5000253999999984e-04 4.9999999999999982e-05 17 358 0 349
 364 350 359 363 361 0 0 +18 359 237 0 369 356 365 360 ?2 29 360 238 0 359 366 3
57 7.9999999999999992e-04 -3.4999746000000016e-04 9.0e-04 16 361 239 0 ?358 353
 367 362 0 0 2 30 362 240 0 361 368 354 0 +7.9999999999999992e-04 -3.99997460000
0002e-04 9.0e-04 -2.4492935982947066e-16 -1.0 6.1232339957367659e-17 17 363 0 51
0 511 486 351 358 361 0 0 -17 364 0 349 370 358 365 369 367 0 373 +18 365 241 0
 502 359 380 366 ?2 29 366 242 0 365 381 360 7.9999999999999992e-04 -3.499974600
0000016e-04 5.0000000000000027e-05 16 367 243 0 ?364 361 371 368 0 0 2 30 368 24
4 0 367 372 362 0 +7.9999999999999992e-04 -3.4999746000000012e-04 9.5e-04 -1.499
7597826618576e-32 -6.1232339957367659e-17 -1.0 17 369 0 469 470 474 359 364 367
 0 473 -17 370 0 349 350 364 356 373 371 0 355 +16 371 245 0 ?370 367 382 372 0
 0 2 30 372 246 0 371 383 368 0 +8.0000000000000018e-04 4.0000253999999984e-04 4
.9999999999999974e-05 2.4492935982947066e-16 1.0 -6.1232339957367659e-17 17 373
 0 519 505 520 365 370 371 0 474 -14 374 247 376 1.0e-08 403 345 378 10 375 -0 0
 403 345 10 50 375 248 0 374 404 346 0 +-8.0000000000000018e-04 -3.9999745999999
976e-04 9.5e-04 1.0 -2.4492935982947066e-16 0.0 1.4997597826618576e-32 6.1232339
957367659e-17 1.0 81 1 376 249 6 374 0 0 405 347 377 83 3 377 0.7529411911964418
 0.7529411911964418 0.7529411911964418 15 378 250 0 379 374 0 17 379 0 378 387 3
99 380 384 382 0 392 +18 380 251 0 379 365 385 381 ?2 29 381 252 0 380 386 366 -
8.0000000000000018e-04 -3.4999745999999968e-04 9.0e-04 16 382 253 0 ?379 371 390
 383 0 0 2 30 383 254 0 382 391 372 0 +-8.0000000000000018e-04 -3.49997459999999
68e-04 9.5e-04 1.4997597826618576e-32 6.1232339957367659e-17 1.0 17 384 0 407 41
2 408 385 379 382 0 399 -18 385 255 0 433 380 388 386 ?2 29 386 256 0 385 389 38
1 -8.0000000000000018e-04 -3.4999745999999972e-04 5.0000000000000027e-05 17 387
 0 378 393 379 388 392 390 0 398 +18 388 257 0 439 385 394 389 ?2 29 389 258 0 3
88 395 386 -7.9999999999999992e-04 3.5000254000000024e-04 9.0e-04 16 390 259 0 ?
387 382 396 391 0 0 2 30 391 260 0 390 397 383 0 +-8.0000000000000018e-04 -3.999
9745999999976e-04 9.0e-04 2.4492935982947066e-16 1.0 -6.1232339957367659e-17 17
 392 0 438 424 439 380 387 390 0 408 -17 393 0 378 399 387 394 398 396 0 402 +18
 394 261 0 448 388 0 395 ?2 29 395 262 0 394 0 389 -7.9999999999999992e-04 3.500
025400000002e-04 4.9999999999999982e-05 16 396 263 0 ?393 390 400 397 0 0 2 30 3
97 264 0 396 401 391 0 +-7.9999999999999992e-04 3.5000254000000024e-04 9.5e-04 -
1.4997597826618576e-32 -6.1232339957367659e-17 -1.0 17 398 0 447 452 448 388 393
 396 0 0 -17 399 0 378 379 393 385 402 400 0 415 +16 400 265 0 ?399 396 409 401
 0 0 2 30 401 266 0 400 410 397 0 +-8.0000000000000018e-04 -3.999974599999998e-0
4 5.0000000000000027e-05 -2.4492935982947066e-16 -1.0 6.1232339957367659e-17 17
 402 0 460 461 433 394 399 400 0 0 -14 403 267 405 1.0e-08 416 374 407 10 404 +0
 0 416 374 10 51 404 268 0 403 417 375 0 +-7.500000000000001e-04 -3.499974599999
998e-04 9.5e-04 -1.4997597826618576e-32 -6.1232339957367659e-17 -1.0 5.000000000
0000027e-05 2.4492935982947066e-16 1.0 -6.1232339957367659e-17 81 1 405 269 6 40
3 0 0 418 376 406 83 3 406 0.7529411911964418 0.7529411911964418 0.7529411911964
418 15 407 270 0 408 403 0 17 408 0 407 384 125 380 411 409 0 421 -16 409 271 0
 ?411 400 413 410 0 0 2 31 410 272 0 409 414 401 0 +-7.500000000000001e-04 -3.49
9974599999998e-04 9.0e-04 1.4997597826618576e-32 6.1232339957367659e-17 1.0 -2.4
492935982947066e-16 -1.0 6.1232339957367659e-17 5.0000000000000027e-05 17 411 0
 420 87 421 78 408 409 0 0 +17 412 0 407 125 384 121 415 413 0 0 -16 413 273 0 ?
415 409 422 414 0 0 2 31 414 274 0 413 423 410 0 +-7.500000000000001e-04 -3.4999
745999999986e-04 5.0000000000000027e-05 -1.4997597826618576e-32 -6.1232339957367
659e-17 -1.0 2.4492935982947066e-16 1.0 -6.1232339957367659e-17 5.00000000000000
27e-05 17 415 0 429 430 171 385 412 413 0 0 +14 416 275 418 1.0e-08 425 403 420
 10 417 +0 0 425 403 10 53 417 276 0 416 426 404 0 +-7.500000000000001e-04 -3.49
9974599999998e-04 9.0e-04 5.0e-05 2.4492935982947066e-16 1.0 -6.1232339957367659
e-17 1.0 -2.4492935982947066e-16 0.0 81 1 418 277 6 416 0 0 427 405 419 83 3 419
 0.7529411911964418 0.7529411911964418 0.7529411911964418 15 420 278 0 421 416 0
 17 421 0 420 411 87 380 424 422 0 0 -16 422 279 0 ?424 413 431 423 0 0 2 31 423
 280 0 422 432 414 0 +-7.500000000000001e-04 -3.499974599999998e-04 9.0e-04 2.44
92935982947066e-16 1.0 -6.1232339957367659e-17 1.0 -2.4492935982947066e-16 0.0 5
.0000000000000027e-05 17 424 0 438 33 392 29 421 422 0 0 +14 425 281 427 1.0e-08
 434 416 429 10 426 +0 0 434 416 10 53 426 282 0 425 435 417 0 +-7.5000000000000
01e-04 -3.4999745999999986e-04 5.0000000000000027e-05 5.0e-05 2.4492935982947066
e-16 1.0 -6.1232339957367659e-17 1.0 -2.4492935982947066e-16 0.0 81 1 427 283 6
 425 0 0 436 418 428 83 3 428 0.7529411911964418 0.7529411911964418 0.7529411911
964418 15 429 284 0 171 425 0 17 430 0 429 171 415 162 433 431 0 168 -16 431 285
 0 ?433 422 440 432 0 0 2 31 432 286 0 431 441 423 0 +-7.500000000000001e-04 -3.
4999745999999986e-04 5.0000000000000027e-05 2.4492935982947066e-16 1.0 -6.123233
9957367659e-17 1.0 -2.4492935982947066e-16 0.0 5.0000000000000027e-05 17 433 0 4
60 402 213 385 430 431 0 384 +14 434 287 436 1.0e-08 443 425 438 10 435 +0 0 443
 425 10 51 435 288 0 434 444 426 0 +-7.4999999999999992e-04 4.000025400000002e-0
4 9.0e-04 -2.4492935982947066e-16 -1.0 6.1232339957367659e-17 5.0000000000000027
e-05 1.0 -2.4492935982947066e-16 0.0 81 1 436 289 6 434 0 0 445 427 437 83 3 437
 0.7529411911964418 0.7529411911964418 0.7529411911964418 15 438 290 0 424 434 0
 17 439 0 438 392 33 388 442 440 0 455 -16 440 291 0 ?442 431 449 441 0 0 2 31 4
41 292 0 440 450 432 0 +-7.4999999999999992e-04 3.500025400000002e-04 9.0e-04 2.
4492935982947066e-16 1.0 -6.1232339957367659e-17 -1.0 2.4492935982947066e-16 0.0
 5.0000000000000027e-05 17 442 0 491 255 455 23 439 440 0 252 +14 443 293 445 1.
0e-08 456 434 447 10 444 +0 0 456 434 10 51 444 294 0 443 457 435 0 +-7.49999999
99999992e-04 3.500025400000002e-04 9.5e-04 -1.4997597826618576e-32 -6.1232339957
367659e-17 -1.0 5.0000000000000027e-05 2.4492935982947066e-16 1.0 -6.12323399573
67659e-17 81 1 445 295 6 443 0 0 458 436 446 83 3 446 0.7529411911964418 0.75294
11911964418 0.7529411911964418 15 447 296 0 448 443 0 17 448 0 447 398 331 394 4
51 449 0 464 -16 449 297 0 ?451 440 453 450 0 0 2 31 450 298 0 449 454 441 0 +-7
.4999999999999992e-04 3.5000254000000016e-04 4.9999999999999982e-05 -1.499759782
6618576e-32 -6.1232339957367659e-17 -1.0 2.4492935982947066e-16 1.0 -6.123233995
7367659e-17 5.0000000000000027e-05 17 451 0 496 297 464 288 448 449 0 331 +17 45
2 0 447 331 398 247 455 453 0 328 -16 453 299 0 ?455 449 462 454 0 0 2 31 454 30
0 0 453 463 450 0 +-7.4999999999999992e-04 3.500025400000002e-04 9.0e-04 1.49975
97826618576e-32 6.1232339957367659e-17 1.0 -2.4492935982947066e-16 -1.0 6.123233
9957367659e-17 5.0000000000000027e-05 17 455 0 491 442 255 388 452 453 0 387 +14
 456 301 458 1.0e-08 465 443 460 10 457 +0 0 465 443 10 51 457 302 0 456 466 444
 0 +-7.500000000000001e-04 -3.9999745999999984e-04 5.0000000000000027e-05 2.4492
935982947066e-16 1.0 -6.1232339957367659e-17 5.0000000000000027e-05 -1.0 2.44929
35982947066e-16 0.0 81 1 458 303 6 456 0 0 467 445 459 83 3 459 0.75294119119644
18 0.7529411911964418 0.7529411911964418 15 460 304 0 433 456 0 17 461 0 460 213
 402 204 464 462 0 203 -16 462 305 0 ?464 453 471 463 0 0 2 31 463 306 0 462 472
 454 0 +-7.4999999999999992e-04 3.5000254000000016e-04 4.9999999999999982e-05 2.
4492935982947066e-16 1.0 -6.1232339957367659e-17 -1.0 2.4492935982947066e-16 0.0
 5.0000000000000027e-05 17 464 0 496 451 297 394 461 462 0 393 +14 465 307 467 1
.0e-08 478 456 469 10 466 +0 0 478 456 10 51 466 308 0 465 479 457 0 +7.49999999
99999992e-04 -3.4999746000000012e-04 9.5e-04 -1.4997597826618576e-32 -6.12323399
57367659e-17 -1.0 5.0000000000000027e-05 2.4492935982947066e-16 1.0 -6.123233995
7367659e-17 81 1 467 309 6 465 0 0 480 458 468 83 3 468 0.7529411911964418 0.752
9411911964418 0.7529411911964418 15 469 310 0 470 465 0 17 470 0 469 150 369 100
 473 471 0 108 -16 471 311 0 ?473 462 475 472 0 0 2 31 472 312 0 471 476 463 0 +
7.4999999999999992e-04 -3.4999746000000012e-04 9.0e-04 1.4997597826618576e-32 6.
1232339957367659e-17 1.0 -2.4492935982947066e-16 -1.0 6.1232339957367659e-17 5.0
000000000000027e-05 17 473 0 482 483 108 359 470 471 0 486 +17 474 0 469 369 150
 365 477 475 0 0 -16 475 313 0 ?477 471 484 476 0 0 2 31 476 314 0 475 485 472 0
 +7.4999999999999992e-04 -3.4999746000000016e-04 5.0000000000000027e-05 -1.49975
97826618576e-32 -6.1232339957367659e-17 -1.0 2.4492935982947066e-16 1.0 -6.12323
39957367659e-17 5.0000000000000027e-05 17 477 0 501 192 502 142 474 475 0 141 +1
4 478 315 480 1.0e-08 487 465 482 10 479 +0 0 487 465 10 53 479 316 0 478 488 46
6 0 +7.4999999999999992e-04 -3.4999746000000012e-04 9.0e-04 5.0e-05 2.4492935982
947066e-16 1.0 -6.1232339957367659e-17 1.0 -2.4492935982947066e-16 0.0 81 1 480
 317 6 478 0 0 489 467 481 83 3 481 0.7529411911964418 0.7529411911964418 0.7529
411911964418 15 482 318 0 108 478 0 17 483 0 482 108 473 52 486 484 0 105 -16 48
4 319 0 ?486 475 503 485 0 0 2 31 485 320 0 484 504 476 0 +7.4999999999999992e-0
4 -3.4999746000000012e-04 9.0e-04 2.4492935982947066e-16 1.0 -6.1232339957367659
e-17 1.0 -2.4492935982947066e-16 0.0 5.0000000000000027e-05 17 486 0 510 363 62
 359 483 484 0 358 +14 487 321 489 1.0e-08 492 478 491 10 488 +0 0 492 478 10 53
 488 322 0 487 493 479 0 +-7.4999999999999992e-04 3.500025400000002e-04 9.0e-04
 5.0e-05 2.4492935982947066e-16 1.0 -6.1232339957367659e-17 1.0 -2.4492935982947
066e-16 0.0 81 1 489 323 6 487 0 0 494 480 490 83 3 490 0.7529411911964418 0.752
9411911964418 0.7529411911964418 15 491 324 0 455 487 0 14 492 325 494 1.0e-08 4
97 487 496 10 493 +0 0 497 487 10 53 493 326 0 492 498 488 0 +-7.499999999999999
2e-04 3.5000254000000016e-04 4.9999999999999982e-05 5.0e-05 2.4492935982947066e-
16 1.0 -6.1232339957367659e-17 1.0 -2.4492935982947066e-16 0.0 81 1 494 327 6 49
2 0 0 499 489 495 83 3 495 0.7529411911964418 0.7529411911964418 0.7529411911964
418 15 496 328 0 464 492 0 14 497 329 499 1.0e-08 506 492 501 10 498 +0 0 506 49
2 10 53 498 330 0 497 507 493 0 +7.4999999999999992e-04 -3.4999746000000016e-04
 5.0000000000000027e-05 5.0e-05 2.4492935982947066e-16 1.0 -6.1232339957367659e-
17 1.0 -2.4492935982947066e-16 0.0 81 1 499 331 6 497 0 0 508 494 500 83 3 500 0
.7529411911964418 0.7529411911964418 0.7529411911964418 15 501 332 0 477 497 0 1
7 502 0 501 477 192 365 505 503 0 364 -16 503 333 0 ?505 484 512 504 0 0 2 31 50
4 334 0 503 513 485 0 +7.4999999999999992e-04 -3.4999746000000016e-04 5.00000000
00000027e-05 2.4492935982947066e-16 1.0 -6.1232339957367659e-17 1.0 -2.449293598
2947066e-16 0.0 5.0000000000000027e-05 17 505 0 519 234 373 184 502 503 0 183 +1
4 506 335 508 1.0e-08 515 497 510 10 507 +0 0 515 497 10 51 507 336 0 506 516 49
8 0 +7.500000000000001e-04 4.0000253999999993e-04 9.0e-04 2.4492935982947066e-16
 1.0 -6.1232339957367659e-17 5.0000000000000027e-05 -1.0 2.4492935982947066e-16
 0.0 81 1 508 337 6 506 0 0 517 499 509 83 3 509 0.7529411911964418 0.7529411911
964418 0.7529411911964418 15 510 338 0 486 506 0 17 511 0 510 62 363 58 514 512
 0 57 -16 512 339 0 ?514 503 521 513 0 0 2 31 513 340 0 512 522 504 0 +7.5000000
00000001e-04 3.5000253999999988e-04 9.0e-04 2.4492935982947066e-16 1.0 -6.123233
9957367659e-17 -1.0 2.4492935982947066e-16 0.0 5.0000000000000027e-05 17 514 0 5
28 529 276 351 511 512 0 532 +14 515 341 517 1.0e-08 524 506 519 10 516 +0 0 524
 506 10 51 516 342 0 515 525 507 0 +7.4999999999999992e-04 -3.999974600000002e-0
4 5.0000000000000027e-05 -2.4492935982947066e-16 -1.0 6.1232339957367659e-17 5.0
000000000000027e-05 1.0 -2.4492935982947066e-16 0.0 81 1 517 343 6 515 0 0 526 5
08 518 83 3 518 0.7529411911964418 0.7529411911964418 0.7529411911964418 15 519
 344 0 505 515 0 17 520 0 519 373 234 356 523 521 0 538 -16 521 345 0 ?523 512 5
30 522 0 0 2 31 522 346 0 521 531 513 0 +7.500000000000001e-04 3.500025399999998
4e-04 4.9999999999999982e-05 2.4492935982947066e-16 1.0 -6.1232339957367659e-17
 -1.0 2.4492935982947066e-16 0.0 5.0000000000000027e-05 17 523 0 537 318 538 226
 520 521 0 315 +14 524 347 526 1.0e-08 533 515 528 10 525 +0 0 533 515 10 53 525
 348 0 524 534 516 0 +7.500000000000001e-04 3.5000253999999988e-04 9.0e-04 5.0e-
05 2.4492935982947066e-16 1.0 -6.1232339957367659e-17 1.0 -2.4492935982947066e-1
6 0.0 81 1 526 349 6 524 0 0 535 517 527 83 3 527 0.7529411911964418 0.752941191
1964418 0.7529411911964418 15 528 350 0 276 524 0 17 529 0 528 276 514 267 532 5
30 0 344 -16 530 351 0 ?532 521 539 531 0 0 2 31 531 352 0 530 540 522 0 +7.5000
00000000001e-04 3.5000253999999988e-04 9.0e-04 -1.4997597826618576e-32 -6.123233
9957367659e-17 -1.0 -2.4492935982947066e-16 -1.0 6.1232339957367659e-17 5.000000
0000000027e-05 17 532 0 546 355 344 351 529 530 0 350 +14 533 353 535 1.0e-08 54
2 524 537 10 534 +0 0 542 524 10 53 534 354 0 533 543 525 0 +7.500000000000001e-
04 3.5000253999999984e-04 4.9999999999999982e-05 5.0e-05 2.4492935982947066e-16
 1.0 -6.1232339957367659e-17 1.0 -2.4492935982947066e-16 0.0 81 1 535 355 6 533
 0 0 544 526 536 83 3 536 0.7529411911964418 0.7529411911964418 0.75294119119644
18 15 537 356 0 523 533 0 17 538 0 537 523 318 356 541 539 0 370 -16 539 357 0 ?
541 530 0 540 0 0 2 31 540 358 0 539 0 531 0 +7.500000000000001e-04 3.5000253999
999984e-04 4.9999999999999982e-05 1.4997597826618576e-32 6.1232339957367659e-17
 1.0 2.4492935982947066e-16 1.0 -6.1232339957367659e-17 5.0000000000000027e-05 1
7 541 0 546 344 355 310 538 539 0 341 +14 542 359 544 1.0e-08 0 533 546 10 543 +
0 0 0 533 10 51 543 360 0 542 0 534 0 +7.500000000000001e-04 3.5000253999999988e
-04 9.5e-04 -1.4997597826618576e-32 -6.1232339957367659e-17 -1.0 5.0000000000000
027e-05 2.4492935982947066e-16 1.0 -6.1232339957367659e-17 81 1 544 361 6 542 0
 0 0 535 545 83 3 545 0.7529411911964418 0.7529411911964418 0.7529411911964418 1
5 546 362 0 532 542 0 12 547 22 0 548 0 0 0 0 1000.0 1.0e-08 0 0 0 1 0 3 1 553 5
55 561 559 552 560 558 70 548 0 547 0 0 4 1 20 0 549 549 1 T74 20 549 1 0 550 0
 0 0 0 0 0 0 0 0 0 0 0 0 0 0 0 0 0 0 81 1 550 5 6 554 0 0 0 0 551 83 3 551 0.470
5882370471954 0.2470588237047196 0.0156862754374743 19 552 1 0 547 0 0 553 V13 5
53 2 0 547 0 554 0 0 552 554 14 554 3 550 1.0e-08 0 0 556 553 555 -0 0 0 0 553 5
0 555 4 0 554 0 0 0 +-7.9999999999999992e-04 4.0000254000000028e-04 9.5e-04 -2.4
492935982947066e-16 -1.0 6.1232339957367659e-17 1.0 -2.4492935982947066e-16 0.0
 15 556 6 0 557 554 0 17 557 0 556 565 577 558 562 560 0 570 +18 558 7 0 557 0 5
63 559 ?547 29 559 8 0 558 564 0 -4.9999999999999992e-04 4.0000254000000011e-04
 4.9999999999999974e-05 16 560 9 0 ?557 0 568 561 0 0 547 30 561 10 0 560 569 0
 0 +-7.9999999999999992e-04 4.000025400000002e-04 4.9999999999999974e-05 -1.0 2.
4492935982947066e-16 0.0 17 562 0 0 0 0 563 557 560 0 577 -18 563 11 0 562 558 5
66 564 ?547 29 564 12 0 563 567 559 5.0000000000000009e-04 4.0000253999999993e-0
4 4.9999999999999974e-05 17 565 0 556 571 557 566 570 568 0 576 +18 566 13 0 565
 563 572 567 ?547 29 567 14 0 566 573 564 -4.9999999999999992e-04 4.000025400000
002e-04 9.0e-04 16 568 15 0 ?565 560 574 569 0 0 547 30 569 16 0 568 575 561 0 +
-4.9999999999999992e-04 4.000025400000002e-04 9.5e-04 1.4997597826618576e-32 6.1
232339957367659e-17 1.0 17 570 0 0 0 0 558 565 568 0 0 -17 571 0 556 577 565 572
 576 574 0 580 +18 572 17 0 571 566 0 573 ?547 29 573 18 0 572 0 567 5.000000000
0000009e-04 4.0000253999999993e-04 9.0e-04 16 574 19 0 ?571 568 578 575 0 0 547
 30 575 20 0 574 579 569 0 +-7.9999999999999992e-04 4.0000254000000028e-04 9.0e-
04 1.0 -2.4492935982947066e-16 0.0 17 576 0 0 0 0 566 571 574 0 0 -17 577 0 556
 557 571 563 580 578 0 0 +16 578 21 0 ?577 574 0 579 0 0 547 30 579 22 0 578 0 5
75 0 +5.0000000000000009e-04 4.0000253999999993e-04 9.5e-04 -1.4997597826618576e
-32 -6.1232339957367659e-17 -1.0 17 580 0 0 0 0 572 577 578 0 0 -12 581 22 0 582
 0 0 0 0 1000.0 1.0e-08 0 0 0 1 0 3 1 587 589 595 593 586 594 592 70 582 0 581 0
 0 4 1 20 0 583 583 1 T74 20 583 1 0 584 0 0 0 0 0 0 0 0 0 0 0 0 0 0 0 0 0 0 0 8
1 1 584 5 6 588 0 0 0 0 585 83 3 585 0.4705882370471954 0.2470588237047196 0.015
6862754374743 19 586 1 0 581 0 0 587 V13 587 2 0 581 0 588 0 0 586 588 14 588 3
 584 1.0e-08 0 0 590 587 589 -0 0 0 0 587 50 589 4 0 588 0 0 0 +-8.0000000000000
018e-04 -3.9999745999999976e-04 9.5e-04 2.4492935982947066e-16 1.0 -6.1232339957
367659e-17 -1.4997597826618576e-32 -6.1232339957367659e-17 -1.0 15 590 6 0 591 5
88 0 17 591 0 590 599 611 592 596 594 0 604 +18 592 7 0 591 0 597 593 ?581 29 59
3 8 0 592 598 0 -5.0000000000000009e-04 -3.9999745999999984e-04 9.0e-04 16 594 9
 0 ?591 0 602 595 0 0 581 30 595 10 0 594 603 0 0 +-8.0000000000000018e-04 -3.99
99745999999976e-04 9.0e-04 -1.0 2.4492935982947066e-16 0.0 17 596 0 0 0 0 597 59
1 594 0 611 -18 597 11 0 596 592 600 598 ?581 29 598 12 0 597 601 593 4.99999999
99999992e-04 -3.9999746000000008e-04 9.0e-04 17 599 0 590 605 591 600 604 602 0
 610 +18 600 13 0 599 597 606 601 ?581 29 601 14 0 600 607 598 -5.00000000000000
09e-04 -3.9999745999999994e-04 5.0000000000000027e-05 16 602 15 0 ?599 594 608 6
03 0 0 581 30 603 16 0 602 609 595 0 +-5.0000000000000009e-04 -3.999974599999998
4e-04 9.5e-04 -1.4997597826618576e-32 -6.1232339957367659e-17 -1.0 17 604 0 0 0
 0 592 599 602 0 0 -17 605 0 590 611 599 606 610 608 0 614 +18 606 17 0 605 600
 0 607 ?581 29 607 18 0 606 0 601 4.9999999999999992e-04 -3.9999746000000016e-04
 5.0000000000000027e-05 16 608 19 0 ?605 602 612 609 0 0 581 30 609 20 0 608 613
 603 0 +7.9999999999999992e-04 -3.999974600000002e-04 5.0000000000000027e-05 1.0
 -2.4492935982947066e-16 0.0 17 610 0 0 0 0 600 605 608 0 0 -17 611 0 590 591 60
5 597 614 612 0 0 +16 612 21 0 ?611 608 0 613 0 0 581 30 613 22 0 612 0 609 0 +4
.9999999999999992e-04 -3.9999746000000008e-04 9.5e-04 1.4997597826618576e-32 6.1
232339957367659e-17 1.0 17 614 0 0 0 0 606 611 612 0 0 -12 615 22 0 616 0 0 0 0
 1000.0 1.0e-08 0 0 0 1 0 3 1 621 623 629 627 620 628 626 70 616 0 615 0 0 4 1 2
0 0 617 617 1 T74 20 617 1 0 618 0 0 0 0 0 0 0 0 0 0 0 0 0 0 0 0 0 0 0 81 1 618
 5 6 622 0 0 0 0 619 83 3 619 0.4705882370471954 0.2470588237047196 0.0156862754
374743 19 620 1 0 615 0 0 621 V13 621 2 0 615 0 622 0 0 620 622 14 622 3 618 1.0
e-08 0 0 624 621 623 -0 0 0 0 621 50 623 4 0 622 0 0 0 +8.0000000000000018e-04 4
.0000253999999993e-04 9.5e-04 -1.4997597826618576e-32 -6.1232339957367659e-17 -1
.0 2.4492935982947066e-16 1.0 -6.1232339957367659e-17 15 624 6 0 625 622 0 17 62
5 0 624 633 645 626 630 628 0 638 +18 626 7 0 625 0 631 627 ?615 29 627 8 0 626
 632 0 -4.9999999999999992e-04 3.5000254000000016e-04 9.5e-04 16 628 9 0 ?625 0
 636 629 0 0 615 30 629 10 0 628 637 0 0 +8.0000000000000018e-04 3.5000253999999
988e-04 9.5e-04 -1.0 2.4492935982947066e-16 0.0 17 630 0 0 0 0 631 625 628 0 645
 -18 631 11 0 630 626 634 632 ?615 29 632 12 0 631 635 627 5.0000000000000009e-0
4 3.5000253999999994e-04 9.5e-04 17 633 0 624 639 625 634 638 636 0 644 +18 634
 13 0 633 631 640 635 ?615 29 635 14 0 634 641 632 -5.0000000000000009e-04 -3.49
9974599999998e-04 9.5e-04 16 636 15 0 ?633 628 642 637 0 0 615 30 637 16 0 636 6
43 629 0 +-4.9999999999999992e-04 4.000025400000002e-04 9.5e-04 -2.4492935982947
066e-16 -1.0 6.1232339957367659e-17 17 638 0 0 0 0 626 633 636 0 0 -17 639 0 624
 645 633 640 644 642 0 648 +18 640 17 0 639 634 0 641 ?615 29 641 18 0 640 0 635
 4.9999999999999992e-04 -3.4999746000000008e-04 9.5e-04 16 642 19 0 ?639 636 646
 643 0 0 615 30 643 20 0 642 647 637 0 +7.9999999999999992e-04 -3.49997460000000
12e-04 9.5e-04 1.0 -2.4492935982947066e-16 0.0 17 644 0 0 0 0 634 639 642 0 0 -1
7 645 0 624 625 639 631 648 646 0 0 +16 646 21 0 ?645 642 0 647 0 0 615 30 647 2
2 0 646 0 643 0 +5.0000000000000009e-04 4.0000253999999993e-04 9.5e-04 -2.612118
3291905368e-17 1.0 -6.1232339957367659e-17 17 648 0 0 0 0 640 645 646 0 0 -12 64
9 22 0 650 0 0 0 0 1000.0 1.0e-08 0 0 0 1 0 3 1 655 657 663 661 654 662 660 70 6
50 0 649 0 0 4 1 20 0 651 651 1 T74 20 651 1 0 652 0 0 0 0 0 0 0 0 0 0 0 0 0 0 0
 0 0 0 0 81 1 652 5 6 656 0 0 0 0 653 83 3 653 0.4705882370471954 0.247058823704
7196 0.0156862754374743 19 654 1 0 649 0 0 655 V13 655 2 0 649 0 656 0 0 654 656
 14 656 3 652 1.0e-08 0 0 658 655 657 +0 0 0 0 655 50 657 4 0 656 0 0 0 +8.00000
00000000018e-04 4.0000253999999975e-04 -2.4492935982947066e-20 -1.49975978266185
76e-32 -6.1232339957367659e-17 -1.0 2.4492935982947066e-16 1.0 -6.12323399573676
59e-17 15 658 6 0 659 656 0 17 659 0 658 667 679 660 664 662 0 672 -18 660 7 0 6
59 0 665 661 ?649 29 661 8 0 660 666 0 -4.9999999999999992e-04 3.500025400000001
2e-04 -2.143131898507868e-20 16 662 9 0 ?664 0 670 663 0 0 649 30 663 10 0 662 6
71 0 0 +-4.9999999999999992e-04 4.0000254000000011e-04 -2.4492935982947066e-20 -
2.4492935982947066e-16 -1.0 6.1232339957367659e-17 17 664 0 0 0 0 665 659 662 0
 679 +18 665 11 0 664 660 668 666 ?649 29 666 12 0 665 669 661 -5.00000000000000
09e-04 -3.4999745999999986e-04 2.143131898507868e-20 17 667 0 658 673 659 668 67
2 670 0 678 +18 668 13 0 667 665 674 669 ?649 29 669 14 0 668 675 666 5.00000000
00000009e-04 3.5000253999999988e-04 -2.143131898507868e-20 16 670 15 0 ?667 662
 676 671 0 0 649 30 671 16 0 670 677 663 0 +8.0000000000000018e-04 3.50002539999
99976e-04 -2.143131898507868e-20 1.0 -2.4492935982947066e-16 0.0 17 672 0 0 0 0
 660 667 670 0 0 -17 673 0 658 679 667 674 678 676 0 682 -18 674 17 0 673 668 0
 675 ?649 29 675 18 0 674 0 669 4.9999999999999992e-04 -3.4999746000000012e-04 2
.143131898507868e-20 16 676 19 0 ?678 670 680 677 0 0 649 30 677 20 0 676 681 67
1 0 +5.0000000000000009e-04 4.0000253999999993e-04 -2.4492935982947066e-20 -2.61
21183291905368e-17 1.0 -6.1232339957367659e-17 17 678 0 0 0 0 668 673 676 0 0 +1
7 679 0 658 659 673 665 682 680 0 0 +16 680 21 0 ?679 676 0 681 0 0 649 30 681 2
2 0 680 0 677 0 +-8.0000000000000018e-04 -3.4999745999999972e-04 2.1431318985078
68e-20 -1.0 2.4492935982947066e-16 0.0 17 682 0 0 0 0 674 679 680 0 0 -12 683 22
 0 684 0 0 0 0 1000.0 1.0e-08 0 0 0 1 0 3 1 689 691 697 695 688 696 694 70 684 0
 683 0 0 4 1 20 0 685 685 1 T74 20 685 1 0 686 0 0 0 0 0 0 0 0 0 0 0 0 0 0 0 0 0
 0 0 81 1 686 5 6 690 0 0 0 0 687 83 3 687 0.4705882370471954 0.2470588237047196
 0.0156862754374743 19 688 1 0 683 0 0 689 V13 689 2 0 683 0 690 0 0 688 690 14
 690 3 686 1.0e-08 0 0 692 689 691 +0 0 0 0 689 51 691 4 0 690 0 0 0 +7.99999999
99999992e-04 -3.4999746000000016e-04 9.0e-04 1.0 -2.4492935982947066e-16 0.0 5.0
000000000000027e-05 2.4492935982947066e-16 1.0 -6.1232339957367659e-17 15 692 6
 0 693 690 0 17 693 0 692 701 713 694 698 696 0 706 -18 694 7 0 693 0 699 695 ?6
83 29 695 8 0 694 700 0 -5.0000000000000009e-04 -3.9999745999999984e-04 9.0e-04
 16 696 9 0 ?698 0 704 697 0 0 683 31 697 10 0 696 705 0 0 +-5.0000000000000009e
-04 -3.4999745999999986e-04 9.0e-04 -1.0 2.4492935982947066e-16 0.0 2.4492935982
947066e-16 1.0 -6.1232339957367659e-17 5.0000000000000027e-05 17 698 0 0 0 0 699
 693 696 0 713 +18 699 11 0 698 694 702 700 ?683 29 700 12 0 699 703 695 -5.0000
000000000009e-04 -3.499974599999998e-04 9.5e-04 17 701 0 692 707 693 702 706 704
 0 712 -18 702 13 0 701 699 708 703 ?683 29 703 14 0 702 709 700 4.9999999999999
992e-04 -3.9999746000000008e-04 9.0e-04 16 704 15 0 ?706 696 710 705 0 0 683 30
 705 16 0 704 711 697 0 +-8.0000000000000018e-04 -3.9999745999999976e-04 9.0e-04
 -1.0 2.4492935982947066e-16 0.0 17 706 0 0 0 0 694 701 704 0 0 +17 707 0 692 71
3 701 708 712 710 0 716 -18 708 17 0 707 702 0 709 ?683 29 709 18 0 708 0 703 4.
9999999999999992e-04 -3.4999746000000008e-04 9.5e-04 16 710 19 0 ?712 704 714 71
1 0 0 683 31 711 20 0 710 715 705 0 +4.9999999999999992e-04 -3.4999746000000008e
-04 9.0e-04 1.0 -2.4492935982947066e-16 0.0 -2.4492935982947066e-16 -1.0 6.12323
39957367659e-17 5.0000000000000027e-05 17 712 0 0 0 0 702 707 710 0 0 +17 713 0
 692 693 707 699 716 714 0 0 -16 714 21 0 ?716 710 0 715 0 0 683 30 715 22 0 714
 0 711 0 +7.9999999999999992e-04 -3.4999746000000012e-04 9.5e-04 1.0 -2.44929359
82947066e-16 0.0 17 716 0 0 0 0 708 713 714 0 0 +12 717 22 0 718 0 0 0 0 1000.0
 1.0e-08 0 0 0 1 0 3 1 723 725 731 729 722 730 728 70 718 0 717 0 0 4 1 20 0 719
 719 1 T74 20 719 1 0 720 0 0 0 0 0 0 0 0 0 0 0 0 0 0 0 0 0 0 0 81 1 720 5 6 724
 0 0 0 0 721 83 3 721 0.4705882370471954 0.2470588237047196 0.0156862754374743 1
9 722 1 0 717 0 0 723 V13 723 2 0 717 0 724 0 0 722 724 14 724 3 720 1.0e-08 0 0
 726 723 725 +0 0 0 0 723 51 725 4 0 724 0 0 0 +-8.0000000000000018e-04 -3.49997
4599999998e-04 5.0000000000000027e-05 -1.0 2.4492935982947066e-16 0.0 5.00000000
00000027e-05 -2.4492935982947066e-16 -1.0 6.1232339957367659e-17 15 726 6 0 727
 724 0 17 727 0 726 735 747 728 732 730 0 740 -18 728 7 0 727 0 733 729 ?717 29
 729 8 0 728 734 0 -5.0000000000000009e-04 -3.4999745999999986e-04 2.14313189850
7868e-20 16 730 9 0 ?732 0 738 731 0 0 717 31 731 10 0 730 739 0 0 +-5.000000000
0000009e-04 -3.499974599999999e-04 5.0000000000000027e-05 -1.0 2.449293598294706
6e-16 0.0 2.4492935982947066e-16 1.0 -6.1232339957367659e-17 5.0000000000000027e
-05 17 732 0 0 0 0 733 727 730 0 747 +18 733 11 0 732 728 736 734 ?717 29 734 12
 0 733 737 729 -5.0000000000000009e-04 -3.9999745999999994e-04 5.000000000000002
7e-05 17 735 0 726 741 727 736 740 738 0 746 -18 736 13 0 735 733 742 737 ?717 2
9 737 14 0 736 743 734 4.9999999999999992e-04 -3.4999746000000012e-04 2.14313189
8507868e-20 16 738 15 0 ?740 730 744 739 0 0 717 30 739 16 0 738 745 731 0 +-8.0
000000000000018e-04 -3.4999745999999972e-04 2.143131898507868e-20 -1.0 2.4492935
982947066e-16 0.0 17 740 0 0 0 0 728 735 738 0 0 +17 741 0 726 747 735 742 746 7
44 0 750 -18 742 17 0 741 736 0 743 ?717 29 743 18 0 742 0 737 4.999999999999999
2e-04 -3.9999746000000016e-04 5.0000000000000027e-05 16 744 19 0 ?746 738 748 74
5 0 0 717 31 745 20 0 744 749 739 0 +4.9999999999999992e-04 -3.4999746000000012e
-04 5.0000000000000027e-05 1.0 -2.4492935982947066e-16 0.0 -2.4492935982947066e-
16 -1.0 6.1232339957367659e-17 5.0000000000000027e-05 17 746 0 0 0 0 736 741 744
 0 0 +17 747 0 726 727 741 733 750 748 0 0 -16 748 21 0 ?750 744 0 749 0 0 717 3
0 749 22 0 748 0 745 0 +7.9999999999999992e-04 -3.999974600000002e-04 5.00000000
00000027e-05 1.0 -2.4492935982947066e-16 0.0 17 750 0 0 0 0 742 747 748 0 0 +12
 751 22 0 752 0 0 0 0 1000.0 1.0e-08 0 0 0 1 0 3 1 757 759 765 763 756 764 762 7
0 752 0 751 0 0 4 1 20 0 753 753 1 T74 20 753 1 0 754 0 0 0 0 0 0 0 0 0 0 0 0 0
 0 0 0 0 0 0 81 1 754 5 6 758 0 0 0 0 755 83 3 755 0.4705882370471954 0.24705882
37047196 0.0156862754374743 19 756 1 0 751 0 0 757 V13 757 2 0 751 0 758 0 0 756
 758 14 758 3 754 1.0e-08 0 0 760 757 759 +0 0 0 0 757 51 759 4 0 758 0 0 0 +8.0
000000000000018e-04 3.5000253999999984e-04 9.0e-04 -1.0 2.4492935982947066e-16 0
.0 5.0000000000000027e-05 -2.4492935982947066e-16 -1.0 6.1232339957367659e-17 15
 760 6 0 761 758 0 17 761 0 760 769 781 762 766 764 0 774 -18 762 7 0 761 0 767
 763 ?751 29 763 8 0 762 768 0 -4.9999999999999992e-04 3.5000254000000016e-04 9.
5e-04 16 764 9 0 ?766 0 772 765 0 0 751 31 765 10 0 764 773 0 0 +-4.999999999999
9992e-04 3.5000254000000016e-04 9.0e-04 -1.0 2.4492935982947066e-16 0.0 2.449293
5982947066e-16 1.0 -6.1232339957367659e-17 5.0000000000000027e-05 17 766 0 0 0 0
 767 761 764 0 781 +18 767 11 0 766 762 770 768 ?751 29 768 12 0 767 771 763 -4.
9999999999999992e-04 4.000025400000002e-04 9.0e-04 17 769 0 760 775 761 770 774
 772 0 780 -18 770 13 0 769 767 776 771 ?751 29 771 14 0 770 777 768 5.000000000
0000009e-04 3.5000253999999994e-04 9.5e-04 16 772 15 0 ?774 764 778 773 0 0 751
 30 773 16 0 772 779 765 0 +8.0000000000000018e-04 3.5000253999999988e-04 9.5e-0
4 -1.0 2.4492935982947066e-16 0.0 17 774 0 0 0 0 762 769 772 0 0 +17 775 0 760 7
81 769 776 780 778 0 784 -18 776 17 0 775 770 0 777 ?751 29 777 18 0 776 0 771 5
.0000000000000009e-04 4.0000253999999993e-04 9.0e-04 16 778 19 0 ?780 772 782 77
9 0 0 751 31 779 20 0 778 783 773 0 +5.0000000000000009e-04 3.5000253999999994e-
04 9.0e-04 1.0 -2.4492935982947066e-16 0.0 -2.4492935982947066e-16 -1.0 6.123233
9957367659e-17 5.0000000000000027e-05 17 780 0 0 0 0 770 775 778 0 0 +17 781 0 7
60 761 775 767 784 782 0 0 -16 782 21 0 ?784 778 0 783 0 0 751 30 783 22 0 782 0
 779 0 +-7.9999999999999992e-04 4.0000254000000028e-04 9.0e-04 1.0 -2.4492935982
947066e-16 0.0 17 784 0 0 0 0 776 781 782 0 0 +12 785 22 0 786 0 0 0 0 1000.0 1.
0e-08 0 0 0 1 0 3 1 791 793 799 797 790 798 796 70 786 0 785 0 0 4 1 20 0 787 78
7 1 T74 20 787 1 0 788 0 0 0 0 0 0 0 0 0 0 0 0 0 0 0 0 0 0 0 81 1 788 5 6 792 0
 0 0 0 789 83 3 789 0.4705882370471954 0.2470588237047196 0.0156862754374743 19
 790 1 0 785 0 0 791 V13 791 2 0 785 0 792 0 0 790 792 14 792 3 788 1.0e-08 0 0
 794 791 793 +0 0 0 0 791 51 793 4 0 792 0 0 0 +-7.9999999999999992e-04 3.500025
400000002e-04 4.9999999999999982e-05 1.0 -2.4492935982947066e-16 0.0 5.000000000
0000027e-05 2.4492935982947066e-16 1.0 -6.1232339957367659e-17 15 794 6 0 795 79
2 0 17 795 0 794 803 815 796 800 798 0 808 -18 796 7 0 795 0 801 797 ?785 29 797
 8 0 796 802 0 -4.9999999999999992e-04 4.0000254000000011e-04 4.9999999999999974
e-05 16 798 9 0 ?800 0 806 799 0 0 785 31 799 10 0 798 807 0 0 +-4.9999999999999
992e-04 3.5000254000000012e-04 4.9999999999999982e-05 -1.0 2.4492935982947066e-1
6 0.0 2.4492935982947066e-16 1.0 -6.1232339957367659e-17 5.0000000000000027e-05
 17 800 0 0 0 0 801 795 798 0 815 +18 801 11 0 800 796 804 802 ?785 29 802 12 0
 801 805 797 -4.9999999999999992e-04 3.5000254000000012e-04 -2.143131898507868e-
20 17 803 0 794 809 795 804 808 806 0 0 -18 804 13 0 814 801 810 805 ?785 29 805
 14 0 804 811 802 5.0000000000000009e-04 4.0000253999999993e-04 4.99999999999999
74e-05 16 806 15 0 ?808 798 812 807 0 0 785 30 807 16 0 806 813 799 0 +-7.999999
9999999992e-04 4.000025400000002e-04 4.9999999999999974e-05 -1.0 2.4492935982947
066e-16 0.0 17 808 0 0 0 0 796 803 806 0 0 +17 809 0 794 815 803 810 814 812 0 8
18 -18 810 17 0 809 804 0 811 ?785 29 811 18 0 810 0 805 5.0000000000000009e-04
 3.5000253999999988e-04 -2.143131898507868e-20 16 812 19 0 ?814 806 816 813 0 0
 785 31 813 20 0 812 817 807 0 +5.0000000000000009e-04 3.5000253999999988e-04 4.
9999999999999982e-05 1.0 -2.4492935982947066e-16 0.0 -2.4492935982947066e-16 -1.
0 6.1232339957367659e-17 5.0000000000000027e-05 17 814 0 0 0 0 804 809 812 0 803
 +17 815 0 794 795 809 801 818 816 0 0 -16 816 21 0 ?818 812 0 817 0 0 785 30 81
7 22 0 816 0 813 0 +8.0000000000000018e-04 3.5000253999999976e-04 -2.14313189850
7868e-20 1.0 -2.4492935982947066e-16 0.0 17 818 0 0 0 0 810 815 816 0 0 +1 0 
