**ABCDEFGHIJKLMNOPQRSTUVWXYZabcdefghijklmnopqrstuvwxyz**************************
**PARASOLID !"#$%&'()*+,-./:;<=>?@[\]^_`{|}~0123456789**************************
**PART1;
MC=AMD64;
MC_MODEL=Intel64 Family 6 Model 151 Stepping 2, GenuineIntel;
MC_ID=unknown;
OS=Windows_NT;
OS_RELEASE=unknown;
FRU=CAD Exchanger 3.13.0 (cadexchanger.com);
APPL=unknown;
SITE=unknown;
USER=unknown;
FORMAT=text;
GUISE=transmit;
KEY=ONSC-UDFN-6-517AA-01_V_CMP-004-00025-1;
FILE=ONSC-UDFN-6-517AA-01_V_CMP-004-00025-1.x_t;
DATE=Thu Apr 13 23:42:07 2023;
**PART2;
SCH=SCH_1200000_12103;
USFLD_SIZE=0;
**PART3;
**END_OF_HEADER*****************************************************************
T51 : TRANSMIT FILE created by modeller version 120000017 SCH_1200000_121030 12
 1 68 0 2 0 0 0 0 1000.0 1.0e-08 0 0 0 1 0 1 1 11 13 19 17 8 18 16 70 2 0 1 0 0
 4 1 20 0 3 3 1 T74 20 3 1 0 4 0 0 0 0 0 0 0 0 0 0 0 0 0 0 0 0 0 0 0 81 1 4 7 5
 12 0 0 41 0 7 80 1 5 0 6 8001 0 0 0 0 3 5 0 0 0 FFFFTFTFFFFFFF2 79 15 6 SDL/TYS
A_COLOUR83 3 7 0.2627451121807099 0.2627451121807099 0.2627451121807099 19 8 1 0
 1 10 0 9 V13 9 2 0 1 0 0 0 0 8 12 19 10 3 0 1 0 8 11 S13 11 4 0 1 0 12 0 0 10 0
 14 12 5 4 1.0e-08 39 0 14 11 13 +0 0 39 0 9 50 13 6 0 12 40 0 0 +-5.00001540000
00006e-04 -6.0000133999999994e-04 0.0 -1.0 1.2246467991473533e-16 0.0 1.22464679
91473533e-16 1.0 0.0 15 14 8 0 15 12 0 17 15 0 14 23 35 16 20 18 0 28 +18 16 9 0
 15 0 21 17 ?1 29 17 10 0 16 22 0 -5.0000154000000006e-04 -6.0000133999999994e-0
4 5.4999890000000002e-04 16 18 11 0 ?15 0 26 19 0 0 1 30 19 12 0 18 27 0 0 +-5.0
000154000000006e-04 -6.0000133999999994e-04 0.0 0.0 0.0 1.0 17 20 0 85 90 86 21
 15 18 0 35 -18 21 13 0 20 16 24 22 ?1 29 22 14 0 21 25 17 -5.0000154000000006e-
04 -6.0000133999999994e-04 0.0 17 23 0 14 29 15 24 28 26 0 34 +18 24 15 0 49 21
 30 25 ?1 29 25 16 0 24 31 22 -5.0000153999999979e-04 5.9999880000000018e-04 5.4
999890000000002e-04 16 26 17 0 ?23 18 32 27 0 0 1 30 27 18 0 26 33 19 0 +-5.0000
154000000006e-04 -6.0000133999999994e-04 5.4999890000000002e-04 1.22464679914735
33e-16 1.0 0.0 17 28 0 103 89 49 16 23 26 0 86 -17 29 0 14 35 23 30 34 32 0 0 -1
8 30 19 0 56 24 45 31 ?1 29 31 20 0 30 46 25 -5.0000153999999979e-04 5.999988000
0000018e-04 0.0 16 32 21 0 ?34 26 36 33 0 0 1 30 33 22 0 32 37 27 0 +-5.00001539
99999979e-04 5.9999880000000018e-04 0.0 0.0 0.0 1.0 17 34 0 43 44 56 24 29 32 0
 0 +17 35 0 14 15 29 21 38 36 0 93 -16 36 23 0 ?38 32 47 37 0 0 1 30 37 24 0 36
 48 33 0 +-5.0000154000000006e-04 -6.0000133999999994e-04 0.0 1.2246467991473533
e-16 1.0 0.0 17 38 0 98 59 93 30 35 36 0 29 +14 39 25 41 1.0e-08 60 12 43 11 40
 +0 0 60 12 9 50 40 26 0 39 61 13 0 +-5.0000153999999979e-04 5.9999880000000018e
-04 0.0 1.2246467991473533e-16 1.0 0.0 1.0 -1.2246467991473533e-16 0.0 81 1 41 2
7 5 39 0 0 62 4 42 83 3 42 0.2627451121807099 0.2627451121807099 0.2627451121807
099 15 43 28 0 34 39 0 17 44 0 43 50 34 45 49 47 0 70 +18 45 29 0 44 30 51 46 ?1
 29 46 30 0 45 52 31 4.9999900000000012e-04 5.999988e-04 5.4999890000000002e-04
 16 47 31 0 ?44 36 53 48 0 0 1 30 48 32 0 47 54 37 0 +-5.0000153999999979e-04 5.
9999880000000018e-04 5.4999890000000002e-04 1.0 -1.2246467991473533e-16 0.0 17 4
9 0 103 28 70 24 44 47 0 23 -17 50 0 43 56 44 51 55 53 0 0 -18 51 33 0 59 45 66
 52 ?1 29 52 34 0 51 67 46 4.9999900000000012e-04 5.999988e-04 0.0 16 53 35 0 ?5
5 47 57 54 0 0 1 30 54 36 0 53 58 48 0 +4.9999900000000012e-04 5.999988e-04 0.0
 0.0 0.0 1.0 17 55 0 64 65 77 45 50 53 0 0 +17 56 0 43 34 50 30 59 57 0 38 -16 5
7 37 0 ?59 53 68 58 0 0 1 30 58 38 0 57 69 54 0 +-5.0000153999999979e-04 5.99998
80000000018e-04 0.0 1.0 -1.2246467991473533e-16 0.0 17 59 0 98 80 38 51 56 57 0
 77 +14 60 39 62 1.0e-08 81 39 64 11 61 +0 0 81 39 9 50 61 40 0 60 82 40 0 +4.99
99900000000012e-04 5.999988e-04 0.0 1.0 -1.2246467991473533e-16 0.0 -1.224646799
1473533e-16 -1.0 0.0 81 1 62 41 5 60 0 0 83 41 63 83 3 63 0.2627451121807099 0.2
627451121807099 0.2627451121807099 15 64 42 0 55 60 0 17 65 0 64 71 55 66 70 68
 0 76 +18 66 43 0 65 51 72 67 ?1 29 67 44 0 66 73 52 4.9999900000000004e-04 -6.0
000134000000012e-04 5.4999890000000002e-04 16 68 45 0 ?65 57 74 69 0 0 1 30 69 4
6 0 68 75 58 0 +4.9999900000000012e-04 5.999988e-04 5.4999890000000002e-04 -1.22
46467991473533e-16 -1.0 0.0 17 70 0 103 49 89 45 65 68 0 55 -17 71 0 64 77 65 72
 76 74 0 90 -18 72 47 0 80 66 0 73 ?1 29 73 48 0 72 0 67 4.9999900000000004e-04
 -6.0000134000000012e-04 0.0 16 74 49 0 ?76 68 78 75 0 0 1 30 75 50 0 74 79 69 0
 +4.9999900000000004e-04 -6.0000134000000012e-04 0.0 0.0 0.0 1.0 17 76 0 85 86 9
0 66 71 74 0 89 +17 77 0 64 55 71 51 80 78 0 50 -16 78 51 0 ?80 74 87 79 0 0 1 3
0 79 52 0 78 88 75 0 +4.9999900000000012e-04 5.999988e-04 0.0 -1.224646799147353
3e-16 -1.0 0.0 17 80 0 98 93 59 72 77 78 0 71 +14 81 53 83 1.0e-08 94 60 85 11 8
2 +0 0 94 60 9 50 82 54 0 81 95 61 0 +4.9999900000000004e-04 -6.0000134000000012
e-04 0.0 -1.2246467991473533e-16 -1.0 0.0 -1.0 1.2246467991473533e-16 0.0 81 1 8
3 55 5 81 0 0 96 62 84 83 3 84 0.2627451121807099 0.2627451121807099 0.262745112
1807099 15 85 56 0 76 81 0 17 86 0 85 20 76 16 89 87 0 0 +16 87 57 0 ?86 78 91 8
8 0 0 1 30 88 58 0 87 92 79 0 +4.9999900000000004e-04 -6.0000134000000012e-04 5.
4999890000000002e-04 -1.0 1.2246467991473533e-16 0.0 17 89 0 103 70 28 66 86 87
 0 0 -17 90 0 85 76 20 72 93 91 0 0 -16 91 59 0 ?93 87 0 92 0 0 1 30 92 60 0 91
 0 88 0 +4.9999900000000004e-04 -6.0000134000000012e-04 0.0 -1.0 1.2246467991473
533e-16 0.0 17 93 0 98 38 80 21 90 91 0 0 +14 94 61 96 1.0e-08 99 81 98 11 95 +0
 0 99 81 9 50 95 62 0 94 100 82 0 +-1.2699999984930002e-09 -1.269999991377e-09 0
.0 0.0 0.0 -1.0 1.0 -1.2246467991473533e-16 0.0 81 1 96 63 5 94 0 0 101 83 97 83
 3 97 0.2627451121807099 0.2627451121807099 0.2627451121807099 15 98 64 0 38 94
 0 14 99 65 101 1.0e-08 0 94 103 11 100 -0 0 0 94 9 50 100 66 0 99 0 95 0 +-1.26
99999984930002e-09 -1.269999991377e-09 5.4999890000000002e-04 0.0 0.0 -1.0 1.0 -
1.2246467991473533e-16 0.0 81 1 101 67 5 99 0 0 0 96 102 83 3 102 0.262745112180
7099 0.2627451121807099 0.2627451121807099 15 103 68 0 89 99 0 1 0 
