<svg width="35.00000112mm" height="17.99999956mm" viewBox="0 0 13779528 7086614"  version="1.1" xmlns="http://www.w3.org/2000/svg" xmlns:xlink="http://www.w3.org/1999/xlink">
<desc>
Origin 0 0 Bound 37350000 29300000 13779528 7086614
</desc>
<g fill-rule="evenodd" fill="rgb(255, 0, 255)" stroke="black" stroke-width="1" transform="translate(0, 7086614) scale(1, -1) translate(-37350000, -29300000)">
<path id="N" d="M 51129528.00 35854227.00 L 51129528.00 29832386.00 A 593414.34 593414.34 0 0 0 50597141.00 29300000.00 L 37882386.00 29300000.00 A 593388.45 593388.45 0 0 0 37350000.00 29832386.00 L 37350000.00 35854227.00 A 593388.45 593388.45 0 0 0 37882386.00 36386614.00 L 50597141.00 36386614.00 A 593412.54 593412.54 0 0 0 51129528.00 35854227.00  zM 38305119.00 31497672.00 L 37793307.00 31497672.00 A 298460.45 298460.45 0 0 1 37793307.00 30900756.00 L 38305119.00 30900756.00 A 298460.45 298460.45 0 0 1 38305119.00 31497672.00  zM 37795735.14 31885360.22 m -142752.78 0 a 142752.78 142752.78 0 1 1 285505.57 0a 142752.78 142752.78 0 1 1 -285505.57 0M 38655735.14 31865360.22 m -142752.78 0 a 142752.78 142752.78 0 1 1 285505.57 0a 142752.78 142752.78 0 1 1 -285505.57 0M 39175238.00 31551576.00 L 39175238.00 31413780.00 A 100353.26 100353.26 0 0 1 39375944.00 31413780.00 L 39375944.00 31551576.00 A 100353.26 100353.26 0 1 1 39175238.00 31551576.00  zM 37805735.14 32495360.22 m -142752.78 0 a 142752.78 142752.78 0 1 1 285505.57 0a 142752.78 142752.78 0 1 1 -285505.57 0M 38515735.14 32485360.22 m -142752.78 0 a 142752.78 142752.78 0 1 1 285505.57 0a 142752.78 142752.78 0 1 1 -285505.57 0M 39300003.14 32749990.22 m -142752.78 0 a 142752.78 142752.78 0 1 1 285505.57 0a 142752.78 142752.78 0 1 1 -285505.57 0M 39300003.14 33099990.22 m -142752.78 0 a 142752.78 142752.78 0 1 1 285505.57 0a 142752.78 142752.78 0 1 1 -285505.57 0M 37775735.14 33195360.22 m -142752.78 0 a 142752.78 142752.78 0 1 1 285505.57 0a 142752.78 142752.78 0 1 1 -285505.57 0M 38485735.14 33165360.22 m -142752.78 0 a 142752.78 142752.78 0 1 1 285505.57 0a 142752.78 142752.78 0 1 1 -285505.57 0M 37815735.14 33855360.22 m -142752.78 0 a 142752.78 142752.78 0 1 1 285505.57 0a 142752.78 142752.78 0 1 1 -285505.57 0M 38305119.00 34899246.00 L 37793307.00 34899246.00 A 298460.45 298460.45 0 0 1 37793307.00 34302330.00 L 38305119.00 34302330.00 A 298460.45 298460.45 0 0 1 38305119.00 34899246.00  zM 38650003.14 33859990.22 m -142752.78 0 a 142752.78 142752.78 0 1 1 285505.57 0a 142752.78 142752.78 0 1 1 -285505.57 0M 39250002.46 34317316.27 m -120431.73 0 a 120431.73 120431.73 0 1 1 240863.46 0a 120431.73 120431.73 0 1 1 -240863.46 0M 40253938.00 34879391.00 L 39820866.00 34879391.00 A 278596.85 278596.85 0 0 1 39542263.00 34600788.00 L 39542923.61 34595770.05 L 39540006.00 34581102.00 L 39540006.00 34384252.00 A 241485.30 241485.30 0 0 1 40004604.00 34291838.00 L 40010640.30 34322185.00 L 40253938.00 34322185.00 A 278596.85 278596.85 0 0 1 40253938.00 34879391.00  zM 39540006.00 31415748.00 L 39540006.00 31218898.00 L 39542923.45 31204230.74 L 39542263.00 31199214.00 A 278596.85 278596.85 0 0 1 39820866.00 30920611.00 L 40253938.00 30920611.00 A 278596.85 278596.85 0 1 1 40253938.00 31477817.00 L 40010639.90 31477817.00 L 40004604.00 31508162.00 A 241496.63 241496.63 0 0 1 39540006.00 31415748.00  zM 40700003.14 32349990.22 m -142752.78 0 a 142752.78 142752.78 0 1 1 285505.57 0a 142752.78 142752.78 0 1 1 -285505.57 0M 41480945.00 32857323.00 L 41066299.00 32857323.00 L 41066299.00 32442677.00 L 41480945.00 32442677.00 L 41480945.00 32857323.00  zM 40850003.14 33149990.22 m -142752.78 0 a 142752.78 142752.78 0 1 1 285505.57 0a 142752.78 142752.78 0 1 1 -285505.57 0M 41300003.14 32169990.22 m -142752.78 0 a 142752.78 142752.78 0 1 1 285505.57 0a 142752.78 142752.78 0 1 1 -285505.57 0M 41800003.14 31749990.22 m -142752.78 0 a 142752.78 142752.78 0 1 1 285505.57 0a 142752.78 142752.78 0 1 1 -285505.57 0M 41933701.00 32857323.00 L 41519055.00 32857323.00 L 41519055.00 32442677.00 L 41933701.00 32442677.00 L 41933701.00 32857323.00  zM 41788424.00 33625039.00 L 41511574.00 33625039.00 L 41511574.00 33072599.00 L 41788424.00 33072599.00 L 41788424.00 33625039.00  zM 42162440.00 33625039.00 L 41885590.00 33625039.00 L 41885590.00 33072599.00 L 42162440.00 33072599.00 L 42162440.00 33625039.00  zM 41414408.00 33625039.00 L 41137558.00 33625039.00 L 41137558.00 33072599.00 L 41414408.00 33072599.00 L 41414408.00 33625039.00  zM 41414409.00 34727401.00 L 41137559.00 34727401.00 L 41137559.00 34174961.00 L 41414409.00 34174961.00 L 41414409.00 34727401.00  zM 42162441.00 34727401.00 L 41885591.00 34727401.00 L 41885591.00 34174961.00 L 42162441.00 34174961.00 L 42162441.00 34727401.00  zM 41471909.00 35291025.00 L 41276909.00 35291025.00 A 73918.68 73918.68 0 0 1 41202989.00 35217105.00 L 41202989.00 34982893.00 A 73918.68 73918.68 0 0 1 41276909.00 34908973.00 L 41471909.00 34908973.00 A 73918.68 73918.68 0 0 1 41545829.00 34982893.00 L 41545829.00 35217105.00 A 73918.68 73918.68 0 0 1 41471909.00 35291025.00  zM 42023091.00 35291025.00 L 41828091.00 35291025.00 A 73918.68 73918.68 0 0 1 41754171.00 35217105.00 L 41754171.00 34982893.00 A 73918.68 73918.68 0 0 1 41828091.00 34908973.00 L 42023091.00 34908973.00 A 73918.68 73918.68 0 0 1 42097011.00 34982893.00 L 42097011.00 35217105.00 A 73918.68 73918.68 0 0 1 42023091.00 35291025.00  zM 42470003.14 30049990.22 m -142752.78 0 a 142752.78 142752.78 0 1 1 285505.57 0a 142752.78 142752.78 0 1 1 -285505.57 0M 44770003.14 32499990.22 m -142752.78 0 a 142752.78 142752.78 0 1 1 285505.57 0a 142752.78 142752.78 0 1 1 -285505.57 0M 42790003.14 32839990.22 m -142752.78 0 a 142752.78 142752.78 0 1 1 285505.57 0a 142752.78 142752.78 0 1 1 -285505.57 0M 44790003.14 33189990.22 m -142752.78 0 a 142752.78 142752.78 0 1 1 285505.57 0a 142752.78 142752.78 0 1 1 -285505.57 0M 42770003.14 33899990.22 m -142752.78 0 a 142752.78 142752.78 0 1 1 285505.57 0a 142752.78 142752.78 0 1 1 -285505.57 0M 44904728.14 34118688.22 m -142752.78 0 a 142752.78 142752.78 0 1 1 285505.57 0a 142752.78 142752.78 0 1 1 -285505.57 0M 45770003.14 33199990.22 m -142752.78 0 a 142752.78 142752.78 0 1 1 285505.57 0a 142752.78 142752.78 0 1 1 -285505.57 0M 45300003.14 34079990.22 m -142752.78 0 a 142752.78 142752.78 0 1 1 285505.57 0a 142752.78 142752.78 0 1 1 -285505.57 0M 42748651.00 35778740.00 L 42748651.00 35621260.00 A 201348.87 201348.87 0 1 1 43151349.00 35621260.00 L 43151349.00 35778740.00 A 201348.87 201348.87 0 0 1 42748651.00 35778740.00  zM 43248651.00 35778740.00 L 43248651.00 35621260.00 A 201348.87 201348.87 0 1 1 43651349.00 35621260.00 L 43651349.00 35778740.00 A 201348.87 201348.87 0 0 1 43248651.00 35778740.00  zM 43700003.14 34749990.22 m -142752.78 0 a 142752.78 142752.78 0 1 1 285505.57 0a 142752.78 142752.78 0 1 1 -285505.57 0M 43748651.00 35778740.00 L 43748651.00 35621260.00 A 201348.87 201348.87 0 1 1 44151349.00 35621260.00 L 44151349.00 35778740.00 A 201348.87 201348.87 0 0 1 43748651.00 35778740.00  zM 44707878.14 34890265.22 m -142752.78 0 a 142752.78 142752.78 0 1 1 285505.57 0a 142752.78 142752.78 0 1 1 -285505.57 0M 45101424.14 34900617.22 m -142752.78 0 a 142752.78 142752.78 0 1 1 285505.57 0a 142752.78 142752.78 0 1 1 -285505.57 0M 44647480.00 35976220.00 L 44252520.00 35976220.00 L 44252520.00 35423780.00 L 44647480.00 35423780.00 L 44647480.00 35976220.00  zM 45960003.14 30689990.22 m -142752.78 0 a 142752.78 142752.78 0 1 1 285505.57 0a 142752.78 142752.78 0 1 1 -285505.57 0M 46380003.14 30709990.22 m -142752.78 0 a 142752.78 142752.78 0 1 1 285505.57 0a 142752.78 142752.78 0 1 1 -285505.57 0M 47440636.14 31314348.22 m -142752.78 0 a 142752.78 142752.78 0 1 1 285505.57 0a 142752.78 142752.78 0 1 1 -285505.57 0M 47630003.14 32359990.22 m -142752.78 0 a 142752.78 142752.78 0 1 1 285505.57 0a 142752.78 142752.78 0 1 1 -285505.57 0M 48750003.14 30649990.22 m -142752.78 0 a 142752.78 142752.78 0 1 1 285505.57 0a 142752.78 142752.78 0 1 1 -285505.57 0M 50538189.00 31645504.00 L 49561811.00 31645504.00 A 245511.05 245511.05 0 0 1 49561811.00 31154496.00 L 50538189.00 31154496.00 A 245511.05 245511.05 0 0 1 50538189.00 31645504.00  zM 50778976.00 30640787.00 L 49321024.00 30640787.00 L 49321024.00 30159213.00 L 50778976.00 30159213.00 L 50778976.00 30640787.00  zM 45770003.14 32499990.22 m -142752.78 0 a 142752.78 142752.78 0 1 1 285505.57 0a 142752.78 142752.78 0 1 1 -285505.57 0M 47680003.14 33349990.22 m -142752.78 0 a 142752.78 142752.78 0 1 1 285505.57 0a 142752.78 142752.78 0 1 1 -285505.57 0M 47700003.14 34339990.22 m -142752.78 0 a 142752.78 142752.78 0 1 1 285505.57 0a 142752.78 142752.78 0 1 1 -285505.57 0M 50538189.00 33645504.00 L 49561811.00 33645504.00 A 245511.05 245511.05 0 0 1 49561811.00 33154496.00 L 50538189.00 33154496.00 A 245511.05 245511.05 0 1 1 50538189.00 33645504.00  zM 50538189.00 32645504.00 L 49561811.00 32645504.00 A 245511.05 245511.05 0 0 1 49561811.00 32154496.00 L 50538189.00 32154496.00 A 245511.05 245511.05 0 1 1 50538189.00 32645504.00  zM 50538189.00 34645504.00 L 49561811.00 34645504.00 A 245511.05 245511.05 0 0 1 49561811.00 34154496.00 L 50538189.00 34154496.00 A 245511.05 245511.05 0 1 1 50538189.00 34645504.00  zM 50538189.00 35645504.00 L 49561811.00 35645504.00 A 245511.05 245511.05 0 0 1 49561811.00 35154496.00 L 50538189.00 35154496.00 A 245511.05 245511.05 0 0 1 50538189.00 35645504.00  z"/>
</g>
</svg>
