<svg width="35.00000112mm" height="17.99999956mm" viewBox="0 0 13779528 7086614"  version="1.1" xmlns="http://www.w3.org/2000/svg" xmlns:xlink="http://www.w3.org/1999/xlink">
<desc>
Origin 0 0 Bound 37350000 29300000 13779528 7086614
</desc>
<g fill-rule="evenodd" fill="rgb(0, 0, 255)" stroke="black" stroke-width="1" transform="translate(0, 7086614) scale(1, -1) translate(-37350000, -29300000)">
<path id="N" d="M 45173517.00 34972723.00 L 45178931.00 34964927.00 L 45199788.00 34951427.00 L 45222042.51 34943923.00 L 46725397.45 34943824.23 A 1042454.85 1042454.85 0 0 0 47462881.00 34638349.00 L 47645322.86 34455907.14 L 47666365.00 34445477.00 L 47691407.47 34440249.87 L 47700000.00 34441959.00 A 101958.15 101958.15 0 1 0 47598041.00 34340000.00 L 47599725.00 34349341.00 L 47594523.00 34373635.00 L 47584092.86 34394677.14 L 47401651.00 34577119.00 L 47399293.99 34582809.40 L 47258296.00 34698523.00 L 47092390.00 34787201.00 L 46912372.00 34841809.00 L 46730848.48 34859687.63 L 46725159.00 34857331.00 L 45222042.51 34857331.00 L 45199788.00 34849827.00 L 45178384.98 34835816.45 L 45173517.00 34828531.00 A 101958.15 101958.15 0 1 0 45173517.00 34972723.00  z"/>
<path id="N" d="M 45401959.00 34080000.00 L 45400275.00 34070659.00 L 45405477.00 34046365.00 L 45415907.14 34025322.86 L 45767722.00 33673508.00 L 45770079.01 33667817.60 L 45911077.00 33552104.00 L 46076983.00 33463426.00 L 46257001.00 33408818.00 L 46438524.52 33390939.37 L 46444214.00 33393296.00 L 47559378.49 33393296.00 L 47581633.00 33400800.00 L 47603036.02 33414810.55 L 47607904.00 33422096.00 A 101958.15 101958.15 0 1 0 47607904.00 33277904.00 L 47602490.00 33285700.00 L 47581633.00 33299200.00 L 47559378.49 33306704.00 L 46443975.55 33306802.77 A 1042454.85 1042454.85 0 0 0 45706492.00 33612278.00 L 45354677.14 33964092.86 L 45333635.00 33974523.00 L 45308592.53 33979750.13 L 45300000.00 33978041.00 A 101958.15 101958.15 0 1 0 45401959.00 34080000.00  z"/>
<path id="N" d="M 39401959.00 32750000.00 L 39400275.00 32740659.00 L 39405477.00 32716365.00 L 39415907.14 32695322.86 L 40037722.00 32073508.00 L 40040079.01 32067817.60 L 40181077.00 31952104.00 L 40346983.00 31863426.00 L 40527001.00 31808818.00 L 40708524.52 31790939.37 L 40714214.00 31793296.00 L 41679378.49 31793296.00 L 41701633.00 31800800.00 L 41723036.02 31814810.55 L 41727904.00 31822096.00 A 101958.15 101958.15 0 1 0 41727904.00 31677904.00 L 41722490.00 31685700.00 L 41701633.00 31699200.00 L 41679378.49 31706704.00 L 40713975.55 31706802.77 A 1042454.85 1042454.85 0 0 0 39976492.00 32012278.00 L 39354677.14 32634092.86 L 39333635.00 32644523.00 L 39308592.53 32649750.13 L 39300000.00 32648041.00 A 101958.15 101958.15 0 1 0 39401959.00 32750000.00  z"/>
<path id="N" d="M 44607480.00 35786613.97 L 44614188.00 35774500.00 L 44621272.00 35768000.00 L 44630380.00 35762500.00 L 44654668.00 35754500.00 L 47395786.00 35754120.00 L 47560550.00 35740280.00 L 47721257.00 35701697.00 L 47873950.00 35638450.00 L 48014869.00 35552095.00 L 48141162.00 35445376.00 L 48218269.00 35368268.00 L 48300676.00 35266437.00 L 48362385.00 35150988.00 L 48400385.00 35025718.00 L 48414120.00 34895442.00 L 48414120.00 31072417.96 L 48724721.66 30761815.51 L 48744846.00 30751979.00 L 48750000.00 30751959.00 A 101958.15 101958.15 0 1 0 48648041.00 30650000.00 L 48650354.76 30661632.32 L 48647970.00 30676180.00 L 48639433.67 30694029.15 L 48321731.00 31011731.00 L 48305880.00 31050002.41 L 48305880.00 34895442.00 L 48308875.79 34902674.73 L 48290597.00 35041516.00 L 48234215.00 35177635.00 L 48148964.20 35288735.16 L 48141730.29 35291732.71 L 48064624.00 35368838.00 L 48061640.71 35376040.09 L 47923340.00 35489540.00 L 47759171.00 35577290.00 L 47581038.00 35631326.00 L 47402987.20 35648862.73 L 47395786.00 35645880.00 L 44656975.36 35645880.00 L 44641512.00 35642000.00 L 44621272.00 35632000.00 L 44614188.00 35625500.00 L 44607480.00 35613386.03 L 44607480.00 35463780.00 L 44380007.96 35463780.00 L 44350996.00 35445181.00 L 44067009.00 35161731.00 L 44028737.59 35145880.00 L 42103145.27 35145880.00 L 42087207.00 35142000.00 L 42066967.00 35132000.00 L 42058269.00 35122125.08 L 42058269.00 34982893.00 L 42057086.85 34980038.89 L 42064079.00 34963158.00 L 42078136.00 34862380.00 L 42078266.00 34735201.00 L 42085822.00 34711201.00 L 42097156.00 34695201.00 L 42104240.00 34690201.00 L 42111732.80 34687401.00 L 42122441.00 34687401.00 L 42122441.00 34214961.00 L 41925591.00 34214961.00 L 41925591.00 34687401.00 L 41936299.20 34687401.00 L 41943792.00 34690201.00 L 41950876.00 34695201.00 L 41962210.00 34711201.00 L 41969896.00 34736026.92 L 41969896.00 34862380.00 L 41971068.36 34865210.43 L 41966493.05 34899963.21 L 41959539.00 34922522.00 L 41949122.00 34940482.00 L 41940992.83 34947715.00 L 41828091.00 34947715.00 L 41803216.00 34958018.00 L 41792913.00 34982893.00 L 41792913.00 35217105.00 L 41803216.00 35241980.00 L 41828091.00 35252283.00 L 42002107.17 35252283.00 L 42005591.00 35253726.00 L 44006322.04 35254120.00 L 44270963.89 35518761.22 L 44292520.00 35551267.96 L 44292520.00 35936220.00 L 44607480.00 35936220.00 L 44607480.00 35786613.97  zM 44450002.46 35699992.27 m -120431.73 0 a 120431.73 120431.73 0 1 1 240863.46 0a 120431.73 120431.73 0 1 1 -240863.46 0"/>
<path id="N" d="M 41973625.71 33802912.29 L 41988313.22 33788219.22 L 41990530.97 33782865.25 L 42035723.00 33723970.00 L 42066224.00 33650333.00 L 42068072.81 33636289.48 L 42082620.00 33608196.00 L 42096947.00 33592608.00 L 42112142.88 33585039.00 L 42122440.00 33585039.00 L 42122440.00 33112599.00 L 41925590.00 33112599.00 L 41925590.00 33585039.00 L 41934829.04 33585039.00 L 41940456.00 33587612.00 L 41945355.00 33592327.00 L 41951289.00 33607418.00 L 41952067.00 33630054.00 L 41946651.94 33664753.29 L 41916637.00 33709674.34 L 41911731.00 33711731.00 L 41896810.46 33727041.20 L 41875639.00 33741187.00 L 41850000.00 33745880.00 L 41591421.00 33745880.00 L 41588504.47 33747088.02 A 283273.01 283273.01 0 0 1 41389477.31 33664648.22 L 41388269.00 33661731.00 L 41382985.83 33659109.36 L 41380982.00 33653323.00 L 41375152.00 33623420.00 L 41373250.87 33585039.00 L 41374408.00 33585039.00 L 41374408.00 33112599.00 L 41363225.00 33112599.00 L 41355357.00 33109799.00 L 41347919.00 33104799.00 L 41336018.00 33088799.00 L 41328085.00 33064799.00 L 41327742.00 32866818.36 L 41331622.00 32851355.00 L 41341622.00 32831115.00 L 41348122.00 32824031.00 L 41360235.97 32817323.00 L 41440945.00 32817323.00 L 41440945.00 32482677.00 L 41106299.00 32482677.00 L 41106299.00 32536551.12 L 41100169.00 32546414.00 L 41093535.00 32550811.00 L 41085005.00 32553533.00 L 41062259.00 32553953.00 L 41034637.90 32548340.32 L 40935551.00 32495377.00 L 40846445.75 32422250.63 L 40844789.00 32418251.00 L 40802478.20 32375940.20 L 40798919.00 32367805.00 L 40801959.00 32350000.00 A 101958.15 101958.15 0 1 0 40700000.00 32451959.00 L 40715672.78 32448841.56 L 40724718.00 32451722.00 L 40768251.00 32494789.00 L 40876934.00 32583104.00 L 41000378.00 32649086.00 L 41040193.01 32661163.73 L 41061431.00 32671627.00 L 41084582.00 32687741.00 L 41100017.00 32705304.00 L 41106299.00 32719514.17 L 41106299.00 32817323.00 L 41187008.03 32817323.00 L 41199122.00 32824031.00 L 41205622.00 32831115.00 L 41211122.00 32840223.00 L 41219122.00 32864511.00 L 41219502.00 33065138.49 L 41212406.00 33088799.00 L 41201639.00 33104799.00 L 41194909.00 33109799.00 L 41187790.47 33112599.00 L 41177558.00 33112599.00 L 41177558.00 33585039.00 L 41188742.66 33585039.00 L 41196925.00 33587547.00 L 41215014.00 33598670.00 L 41233025.00 33617208.00 L 41250957.00 33643162.00 L 41264276.00 33673968.00 L 41309519.20 33732929.06 L 41311731.00 33738269.00 A 406008.71 406008.71 0 0 0 41591421.00 33854120.00 L 41850000.00 33854120.00 L 41916608.00 33840095.00 L 41973625.71 33802912.29  z"/>
<path id="N" d="M 44924240.00 34348807.00 L 44930202.39 34318826.51 L 44934173.00 34310916.00 L 44939168.62 34242139.50 L 44948265.00 34220487.00 L 44963241.00 34200662.00 L 44976821.00 34190794.00 A 101958.15 101958.15 0 1 0 44832629.00 34190794.00 L 44836217.61 34193191.83 L 44846932.00 34213126.00 L 44852804.64 34235865.55 L 44847887.16 34304877.72 L 44837990.00 34328773.00 L 44811202.00 34339869.00 L 44778211.44 34326251.52 L 44776649.00 34322577.00 L 44056990.00 33602428.00 A 1181563.82 1181563.82 0 0 0 43406338.00 33270905.00 L 43221502.00 33256704.00 L 42858576.65 33257293.98 L 42832620.60 33245362.59 L 42822705.99 33221425.43 L 42823296.00 32965503.88 L 42831703.00 32942926.00 L 42846331.00 32923515.00 L 42862096.00 32912096.00 A 101958.15 101958.15 0 1 0 42717904.00 32912096.00 L 42720267.58 32913675.30 L 42726873.00 32924974.00 L 42735714.00 32949189.00 L 42736704.00 33220001.00 L 42746962.00 33266822.00 L 42772816.00 33307183.00 L 42813179.00 33333037.00 L 42860001.00 33343296.00 L 43221502.00 33343296.00 L 43224902.22 33341887.60 L 43393000.00 33355117.00 L 43560276.00 33395277.00 L 43719210.00 33461109.00 L 43865889.00 33550994.00 L 43994106.75 33660503.14 L 43995515.00 33663903.00 L 44715488.00 34383876.00 L 44762888.00 34414928.00 L 44772579.00 34416653.00 L 44785666.00 34421096.00 L 44788666.49 34419853.17 L 44811202.00 34424336.00 A 122361.35 122361.35 0 0 0 44924240.00 34348807.00  z"/>
<path id="N" d="M 45960000.00 30588041.00 L 45950905.93 30589849.88 L 45937571.00 30588940.00 L 45909079.00 30582510.00 L 45888260.62 30572338.62 L 45635854.00 30319932.00 L 45637630.00 30318156.00 A 1034983.13 1034983.13 0 0 0 44905786.00 30015016.00 L 44905786.00 30017528.00 L 42603925.26 30017528.00 L 42599032.00 30016400.00 L 42573671.00 30005600.00 L 42549311.00 29987600.00 L 42542096.00 29977904.00 A 101958.15 101958.15 0 1 0 42542096.00 30122096.00 L 42547248.13 30114385.29 L 42557320.00 30105600.00 L 42582013.00 30090000.00 L 42603925.26 30082472.00 L 44905786.00 30082472.00 L 44909961.80 30080742.28 L 45094959.00 30098963.00 L 45276862.00 30154143.00 L 45444505.00 30243750.00 L 45588202.15 30361677.87 L 45589932.00 30365854.00 L 45842338.62 30618260.62 L 45845002.00 30622520.00 L 45855298.00 30648089.00 L 45859795.00 30678042.00 L 45858041.00 30690000.00 A 101958.15 101958.15 0 1 0 45960000.00 30588041.00  z"/>
<path id="N" d="M 51150000.00 29300000.00 L 37350000.00 29300000.00 L 37350000.00 36400000.00 L 51150000.00 36400000.00 L 51150000.00 29300000.00  zM 38305119.00 31517845.00 L 37793307.00 31517845.00 A 318636.42 318636.42 0 1 1 37793307.00 30880583.00 L 38305119.00 30880583.00 A 318636.42 318636.42 0 1 1 38305119.00 31517845.00  zM 37795732.00 31885365.92 m -163138.59 0 a 163138.59 163138.59 0 1 1 326277.17 0a 163138.59 163138.59 0 1 1 -326277.17 0M 38655732.00 31865365.92 m -163138.59 0 a 163138.59 163138.59 0 1 1 326277.17 0a 163138.59 163138.59 0 1 1 -326277.17 0M 37805732.00 32495365.92 m -163138.59 0 a 163138.59 163138.59 0 1 1 326277.17 0a 163138.59 163138.59 0 1 1 -326277.17 0M 38515732.00 32485365.92 m -163138.59 0 a 163138.59 163138.59 0 1 1 326277.17 0a 163138.59 163138.59 0 1 1 -326277.17 0M 37775732.00 33195365.92 m -163138.59 0 a 163138.59 163138.59 0 1 1 326277.17 0a 163138.59 163138.59 0 1 1 -326277.17 0M 37815732.00 33855365.92 m -163138.59 0 a 163138.59 163138.59 0 1 1 326277.17 0a 163138.59 163138.59 0 1 1 -326277.17 0M 38485732.00 33165365.92 m -163138.59 0 a 163138.59 163138.59 0 1 1 326277.17 0a 163138.59 163138.59 0 1 1 -326277.17 0M 38305119.00 34919419.00 L 37793307.00 34919419.00 A 318636.42 318636.42 0 1 1 37793307.00 34282157.00 L 38305119.00 34282157.00 A 318636.42 318636.42 0 1 1 38305119.00 34919419.00  zM 38650000.00 33859995.92 m -163138.59 0 a 163138.59 163138.59 0 1 1 326277.17 0a 163138.59 163138.59 0 1 1 -326277.17 0M 39114062.00 31551576.00 L 39114062.00 31413780.00 A 161532.64 161532.64 0 0 1 39437120.00 31413780.00 L 39437120.00 31551576.00 A 161532.64 161532.64 0 0 1 39114062.00 31551576.00  zM 39522430.00 31415748.00 L 39522430.00 31218898.00 L 39523555.73 31210346.83 L 39522090.00 31199214.00 A 298792.86 298792.86 0 0 1 39820866.00 30900438.00 L 40253938.00 30900438.00 A 298792.86 298792.86 0 1 1 40253938.00 31497990.00 L 40025442.66 31497990.00 L 40005854.00 31545281.00 A 259085.72 259085.72 0 0 1 39522430.00 31415748.00  zM 40759367.00 33285642.00 L 40745009.67 33271284.67 L 40733552.00 33266794.00 L 40722323.56 33256530.45 L 40706678.27 33247254.60 L 40691690.00 33244878.00 L 40685032.03 33241763.00 L 40086607.00 33241763.00 L 40051491.00 33234778.00 L 40021721.00 33214886.00 L 39998598.00 33191763.00 L 39464967.97 33191763.00 L 39458310.00 33194878.00 L 39452368.02 33195145.09 L 39436216.23 33200658.08 L 39416448.00 33216794.00 L 39404990.33 33221284.67 L 39390633.00 33235642.00 A 163138.59 163138.59 0 1 1 39209367.00 32964358.00 L 39239057.97 32952059.93 L 39239057.97 32897940.07 L 39209367.00 32885642.00 A 163131.20 163131.20 0 0 1 39268174.00 32590000.00 L 39288026.20 32590000.00 L 39298821.00 32585098.00 L 39304291.10 32584914.37 L 39317598.76 32580637.12 L 39334435.00 32567195.00 L 39341165.88 32564642.12 L 39935011.00 31970797.00 L 39933992.00 31969778.00 A 1103374.91 1103374.91 0 0 1 40714214.00 31646599.00 L 40714214.00 31648041.00 L 41639821.92 31648041.00 L 41646391.00 31645085.00 L 41654269.74 31644847.52 L 41671031.37 31641626.56 L 41684230.00 31632563.00 L 41695328.59 31628396.41 L 41709367.00 31614358.00 A 163138.59 163138.59 0 1 1 41709367.00 31885642.00 L 41695328.59 31871603.59 L 41684230.00 31867437.00 L 41680232.45 31863699.13 L 41667791.14 31857311.46 L 41646391.00 31854915.00 L 41639821.92 31851959.00 L 40709876.37 31851096.21 L 40538763.00 31867949.00 L 40370055.00 31919126.00 L 40214572.00 32002234.00 L 40081659.57 32111312.49 L 39485357.88 32708834.12 L 39482805.00 32715565.00 L 39477412.67 32721293.12 L 39467825.77 32735436.98 L 39464902.00 32751179.00 L 39460000.00 32761973.80 L 39460000.00 32781826.00 L 39435642.00 32840633.00 L 39390633.00 32885642.00 L 39360942.03 32897940.07 L 39360942.03 32952059.93 L 39390633.00 32964358.00 L 39404990.33 32978715.33 L 39416448.00 32983206.00 L 39427676.44 32993469.55 L 39443321.73 33002745.40 L 39458310.00 33005122.00 L 39464967.97 33008237.00 L 40036607.00 33008237.00 L 40071723.00 33015222.00 L 40101493.00 33035114.00 L 40124616.00 33058237.00 L 40685032.03 33058237.00 L 40691690.00 33055122.00 L 40697631.98 33054854.91 L 40713783.77 33049341.92 L 40733552.00 33033206.00 L 40745009.67 33028715.33 L 40759367.00 33014358.00 A 163138.59 163138.59 0 1 1 40759367.00 33285642.00  zM 41748424.00 33137733.65 L 41748424.00 33112599.00 L 41684195.51 33112599.00 L 41671113.00 33105421.00 L 41660772.00 33090527.00 L 41654120.00 33069156.97 L 41653183.00 33018448.81 L 41661714.00 32975563.00 L 41686006.33 32939206.20 L 41688269.00 32938269.00 L 41690377.24 32933179.08 L 41747849.00 32858553.00 L 41770646.00 32837183.00 L 41792985.00 32822937.00 L 41808714.37 32817323.00 L 41889582.88 32817323.00 L 41874922.14 32857041.48 L 41871554.00 32860845.00 L 41830982.00 32879646.00 L 41825352.03 32880111.33 L 41816720.58 32884086.83 L 41796196.56 32902025.70 L 41766059.00 32941117.00 L 41753990.50 32948836.31 L 41730044.88 32980044.06 L 41715039.54 33023829.45 L 41715311.00 33034969.32 L 41719190.84 33059667.42 L 41739010.00 33067877.00 L 41740499.69 33071473.33 L 41743905.78 33073359.38 L 41749828.38 33093994.21 L 41758032.00 33113799.00 L 41756543.87 33117391.57 L 41757618.98 33121137.34 L 41748424.00 33137733.65  zM 41850000.00 33914520.00 L 41850000.00 33912155.00 L 41591421.00 33912155.00 L 41591421.00 33913895.00 L 41473577.00 33898380.00 L 41363763.00 33852894.00 L 41270005.00 33779995.00 L 41229680.43 33727443.15 L 41227784.00 33726875.00 L 41217478.13 33711540.84 L 41210870.00 33705868.00 L 41195365.42 33676787.48 L 41177505.76 33652444.99 L 41165846.39 33645039.00 L 41117558.00 33645039.00 L 41117558.00 33592877.59 L 41113814.00 33583839.00 L 41115153.48 33580605.30 L 41114149.00 33577253.00 L 41117558.00 33570927.39 L 41117558.00 33127274.52 L 41114257.00 33121366.00 L 41115349.79 33117506.62 L 41113814.00 33113799.00 L 41117558.00 33104760.41 L 41117558.00 33052599.00 L 41155780.14 33052345.00 L 41158696.00 33012265.00 L 41161467.00 33005998.48 L 41161467.00 32924028.77 L 41158700.00 32917811.00 L 41155327.44 32877323.00 L 41046299.00 32877323.00 L 41046299.00 32744804.59 L 41043885.37 32738840.50 L 41029148.11 32728041.88 L 40989681.00 32711080.00 L 40985609.09 32707306.74 L 40977306.00 32704788.00 L 40843438.00 32633234.00 L 40725141.14 32536274.20 L 40687258.98 32510000.00 L 40668174.00 32510000.00 A 163131.20 163131.20 0 1 1 40860000.00 32318174.00 L 40860000.00 32344852.55 L 40885307.00 32372754.00 L 40889060.54 32382025.27 L 40996298.57 32464311.44 L 41002076.17 32463400.09 L 41046299.00 32431671.35 L 41046299.00 32422677.00 L 41500945.00 32422677.00 L 41500945.00 32742862.57 L 41550945.51 32764120.59 L 41559055.00 32761173.77 L 41559055.00 32817323.00 L 41608669.30 32817323.00 L 41614916.00 32819398.00 L 41624242.00 32827354.00 L 41626084.00 32832823.00 L 41624126.00 32846745.00 L 41616870.05 32859602.41 L 41611587.00 32861587.00 L 41562806.00 32934594.00 L 41545880.00 33020711.00 L 41545676.00 33228111.00 L 41551574.00 33257763.18 L 41551574.00 33403642.32 L 41525510.00 33369676.00 L 41497225.00 33301390.00 L 41487845.00 33228111.00 L 41487845.00 33115263.20 L 41485085.00 33022645.00 L 41488753.11 33011785.61 L 41497226.00 32947431.00 L 41506509.39 32925018.59 L 41472145.21 32877323.00 L 41391692.32 32878165.66 L 41388544.00 32917811.00 L 41385777.00 32924028.77 L 41385777.00 33005889.04 L 41388544.00 33012105.00 L 41388988.21 33029120.21 L 41392046.65 33052599.00 L 41434408.00 33052599.00 L 41434408.00 33104760.41 L 41438152.00 33113799.00 L 41436758.71 33117162.61 L 41437789.00 33120654.00 L 41434408.00 33126865.66 L 41434408.00 33573412.13 L 41438111.00 33581520.00 L 41439136.13 33610213.23 L 41442246.58 33631218.82 L 41503076.00 33671863.00 L 41587421.69 33688640.48 L 41827736.75 33687845.00 L 41852221.81 33677985.49 L 41861323.67 33655552.06 L 41865590.00 33638306.56 L 41865590.00 33592877.59 L 41861846.00 33583839.00 L 41863492.58 33579863.90 L 41862356.00 33575713.00 L 41865590.00 33570040.66 L 41865590.00 33052599.00 L 42182440.00 33052599.00 L 42182440.00 33570447.95 L 42185759.00 33576421.00 L 42184678.37 33580204.17 L 42186184.00 33583839.00 L 42182440.00 33592877.59 L 42182440.00 33645039.00 L 42135865.59 33645583.24 L 42129616.11 33657083.40 L 42115940.00 33698549.00 L 42105815.50 33711539.28 L 42088133.00 33754228.00 L 42059343.36 33791746.84 L 42016331.23 33845623.18 L 41940019.00 33896614.00 L 41850000.00 33914520.00  zM 39250000.00 34317326.46 m -181596.91 0 a 181596.91 181596.91 0 1 1 363193.83 0a 181596.91 181596.91 0 1 1 -363193.83 0M 40253938.00 34899564.00 L 39820866.00 34899564.00 A 298792.86 298792.86 0 0 1 39522090.00 34600788.00 L 39523555.86 34589654.17 L 39522430.00 34581102.00 L 39522430.00 34384252.00 A 259058.32 259058.32 0 0 1 40005854.00 34254719.00 L 40025443.48 34302012.00 L 40253938.00 34302012.00 A 298792.86 298792.86 0 0 1 40253938.00 34899564.00  zM 41748424.00 33399510.98 L 41748424.00 33298125.26 L 41753617.92 33305898.62 L 41762154.00 33348819.00 L 41753617.00 33391739.00 L 41748424.00 33399510.98  zM 41434409.00 34747401.00 L 41117559.00 34747401.00 L 41117559.00 34154961.00 L 41434409.00 34154961.00 L 41434409.00 34747401.00  zM 45800000.00 30721826.00 L 45800000.00 30701522.52 L 45795073.00 30690244.00 L 45794388.76 30675033.25 L 45789887.56 30657427.92 L 45780968.00 30645146.00 L 45778463.23 30638235.90 L 45545833.18 30404525.70 L 45411010.00 30293879.00 L 45253790.00 30209843.00 L 45083197.00 30158094.00 L 44909625.93 30140999.19 L 42634967.97 30141763.00 L 42628310.00 30144878.00 L 42622368.02 30145145.09 L 42606216.23 30150658.08 L 42586448.00 30166794.00 L 42574990.33 30171284.67 L 42560633.00 30185642.00 A 163138.59 163138.59 0 1 1 42560633.00 29914358.00 L 42574990.33 29928715.33 L 42586448.00 29933206.00 L 42597676.44 29943469.55 L 42613321.73 29952745.40 L 42628310.00 29955122.00 L 42634967.97 29958237.00 L 44905786.00 29958237.00 L 44905786.00 29956630.00 A 1093365.23 1093365.23 0 0 1 45678915.00 30276871.00 L 45677779.00 30278007.00 L 45908235.90 30508463.23 L 45915146.00 30510968.00 L 45919540.52 30514984.22 L 45934868.43 30522507.61 L 45960244.00 30525073.00 L 45971522.52 30530000.00 L 45991826.00 30530000.00 A 163131.20 163131.20 0 1 1 45800000.00 30721826.00  zM 44572233.00 34799642.00 L 44583846.61 34788028.39 L 44587447.00 34777619.00 L 44591074.18 34773530.73 L 44597131.38 34760937.09 L 44598969.00 34739470.00 L 44601751.65 34732825.97 L 44598041.00 34547380.96 L 43853193.43 33801312.49 L 43720281.00 33692234.00 L 43564798.00 33609126.00 L 43396090.00 33557949.00 L 43224976.63 33541096.21 L 42873628.21 33541959.00 L 42871959.00 33543628.77 L 42871959.00 33739821.92 L 42874915.00 33746391.00 L 42875152.48 33754269.74 L 42878373.44 33771031.37 L 42887437.00 33784230.00 L 42891603.59 33795328.59 L 42905642.00 33809367.00 A 163138.59 163138.59 0 1 1 42634358.00 33809367.00 L 42648396.41 33795328.59 L 42652563.00 33784230.00 L 42656300.87 33780232.45 L 42662688.54 33767791.14 L 42665085.00 33746391.00 L 42668041.00 33739821.92 L 42668041.00 33537071.00 L 42666139.00 33537071.00 L 42681434.00 33460178.00 L 42724989.54 33394991.69 L 42721720.20 33337040.78 L 42690444.00 33290233.00 L 42676474.00 33220001.00 L 42678041.00 33220001.00 L 42678041.00 32994994.88 L 42675080.00 32988360.00 L 42674862.04 32980305.99 L 42670177.10 32957220.18 L 42661766.00 32943696.00 L 42659673.21 32935948.21 L 42654358.00 32930633.00 A 163138.59 163138.59 0 1 1 42925642.00 32930633.00 L 42901203.82 32955071.18 L 42895515.00 32966719.00 L 42891771.65 32970027.24 L 42886355.53 32981087.28 L 42884556.00 33002488.00 L 42881959.00 33007217.51 L 42881959.00 33198041.00 L 43221502.00 33198041.00 L 43221502.00 33196172.00 A 1241754.79 1241754.79 0 0 1 44099548.00 33559870.00 L 44098226.00 33561192.00 L 44698530.51 34161496.51 L 44704437.71 34160093.29 L 44744725.00 34136979.74 L 44744725.00 34086872.00 A 163131.20 163131.20 0 1 1 45040367.00 34209331.00 L 45018965.05 34230732.95 L 45013465.00 34242673.00 L 45009451.01 34246384.97 L 45002181.32 34258320.75 L 44998236.00 34279502.00 L 44994812.07 34285839.74 L 44992682.00 34315165.00 L 44980758.00 34372217.00 A 183533.45 183533.45 0 0 1 44811202.74 34485510.93 L 44801959.00 34534448.95 L 44801959.00 34588661.56 L 44805599.66 34727480.62 L 44808726.00 34733968.00 L 44809169.67 34741829.87 L 44812827.16 34758502.72 L 44822235.00 34771463.00 L 44826943.02 34783068.02 L 44843517.00 34799642.00 A 163138.59 163138.59 0 1 1 44572233.00 34799642.00  zM 42793727.00 35844790.00 L 42773715.91 35836500.92 L 42752978.00 35830412.00 L 42751212.84 35827179.61 L 42747696.02 35825504.05 L 42740090.85 35807141.86 L 42710699.00 35804922.00 L 42704036.10 35801959.00 L 42388624.00 35801959.00 L 42388624.00 35803401.00 A 1103439.71 1103439.71 0 0 1 41608402.00 35480222.00 L 41609421.00 35479203.00 L 41485769.73 35355551.73 L 41479105.00 35353055.00 L 41447328.30 35323383.31 L 41427357.44 35308062.63 L 41421495.52 35311790.95 L 41415844.25 35310531.40 L 41410513.01 35312764.00 L 41392251.43 35305273.05 L 41372889.75 35300835.65 L 41369879.61 35296096.06 L 41364523.88 35293899.13 L 41356901.48 35275672.99 L 41346321.00 35259023.00 L 41347119.48 35252283.00 L 41460755.67 35252283.00 L 41475319.00 35262461.00 L 41651142.26 35437821.52 A 1042459.30 1042459.30 0 0 0 42388624.00 35743296.00 L 42752085.46 35743296.00 L 42764439.00 35746375.00 L 42780710.00 35754344.00 L 42789435.00 35763975.99 L 42789435.00 35778740.00 L 42801657.00 35840186.00 L 42803465.01 35842891.88 L 42800486.66 35844361.75 L 42797136.55 35843377.53 L 42793727.00 35844790.00  zM 42950002.46 35699992.27 m -120431.73 0 a 120431.73 120431.73 0 1 1 240863.46 0a 120431.73 120431.73 0 1 1 -240863.46 0M 43228259.00 35778740.00 L 43228259.00 35621260.00 A 221742.90 221742.90 0 1 1 43671741.00 35621260.00 L 43671741.00 35778740.00 A 221742.90 221742.90 0 1 1 43228259.00 35778740.00  zM 44770000.00 32499995.92 m -163138.59 0 a 163138.59 163138.59 0 1 1 326277.17 0a 163138.59 163138.59 0 1 1 -326277.17 0M 44790000.00 33189995.92 m -163138.59 0 a 163138.59 163138.59 0 1 1 326277.17 0a 163138.59 163138.59 0 1 1 -326277.17 0M 43728259.00 35778740.00 L 43728259.00 35621260.00 A 221742.90 221742.90 0 0 1 43950000.00 35399519.00 L 44011086.93 35411669.87 L 44035717.46 35365589.26 L 43982283.08 35312155.00 L 42161737.07 35312155.00 L 42154556.00 35314942.00 L 42075497.00 35314396.00 L 42031797.62 35312155.00 L 41828091.00 35311417.00 L 41791999.75 35304238.15 L 41764920.28 35345951.11 L 41888982.00 35447766.00 L 42044465.00 35530874.00 L 42213173.00 35582051.00 L 42384286.37 35598903.79 L 42704036.95 35598041.00 L 42710700.00 35595078.00 L 42740090.90 35592858.01 L 42747805.00 35574235.00 L 42751211.42 35572823.98 L 42752976.12 35569586.67 L 42773760.05 35563483.79 L 42793727.00 35555210.00 L 42797132.78 35556620.76 L 42800670.33 35555582.02 L 42803464.92 35557108.24 L 42801657.00 35559814.00 L 42789435.00 35621260.00 L 42789435.00 35636024.01 L 42786405.00 35640477.00 L 42773388.00 35650039.00 L 42753862.00 35656414.00 L 42388624.00 35656704.00 L 42382934.52 35659060.63 L 42201411.00 35641182.00 L 42021393.00 35586574.00 L 41855487.00 35497896.00 L 41714489.01 35382182.40 L 41712132.00 35376492.00 L 41523080.00 35187440.00 L 41507087.00 35163320.88 L 41507087.00 35055795.74 L 41531928.35 35058316.32 L 41535133.33 35062045.60 L 41539934.73 35063115.55 L 41550948.91 35080448.46 L 41564311.22 35096206.61 L 41563954.68 35100915.50 L 41566530.24 35105348.30 L 41562125.53 35125110.85 L 41562561.35 35128892.67 L 41572915.47 35145795.45 L 41607132.00 35184323.00 L 41609858.92 35191256.92 L 41699336.00 35280734.00 L 41738092.14 35255092.25 L 41740572.62 35251259.52 L 41733779.00 35217105.00 L 41733779.00 34982893.00 A 94312.71 94312.71 0 0 1 41828091.00 34888581.00 L 41880486.21 34888581.00 L 41911861.00 34846555.16 L 41911861.00 34794055.48 L 41909092.00 34787814.00 L 41905857.10 34747401.00 L 41865591.00 34747401.00 L 41865591.00 34695239.59 L 41861847.00 34686201.00 L 41863307.97 34682674.01 L 41862247.00 34679008.00 L 41865591.00 34672940.13 L 41865591.00 34154961.00 L 42182441.00 34154961.00 L 42182441.00 34672938.31 L 42185786.00 34679008.00 L 42184724.58 34682675.32 L 42186185.00 34686201.00 L 42182441.00 34695239.59 L 42182441.00 34747401.00 L 42141949.87 34748285.86 L 42138940.00 34787814.00 L 42136171.00 34794055.48 L 42136171.00 34862377.85 L 42137867.13 34862377.89 L 42137605.99 34894080.24 L 42124338.00 34971718.00 L 42117403.00 34991210.81 L 42117403.00 35082383.61 L 42156598.00 35085076.00 L 42162844.64 35087845.00 L 44028740.00 35087844.00 L 44071660.00 35096382.00 L 44108046.00 35120694.00 L 44331736.36 35344384.89 L 44337912.00 35346679.00 L 44375749.07 35381814.72 L 44405906.11 35403780.00 L 44426104.16 35403780.00 L 44435141.00 35400037.00 L 44440074.60 35402080.51 L 44445268.00 35400831.00 L 44450085.84 35403780.00 L 44667480.00 35403780.00 L 44668322.66 35581929.68 L 44707968.00 35585078.00 L 44714185.77 35587845.00 L 47400617.96 35588806.10 L 47569276.00 35572195.00 L 47736099.00 35521589.00 L 47889845.00 35439411.00 L 48020850.35 35331896.75 L 48100693.60 35250693.32 L 48181805.00 35147376.00 L 48232142.00 35025853.00 L 48248727.13 34899876.93 L 48247844.00 31050000.00 L 48256382.00 31007080.00 L 48280694.00 30970694.00 L 48562112.03 30689276.69 L 48563833.00 30683920.00 L 48580981.56 30664640.23 L 48590000.00 30647188.99 L 48590000.00 30618174.00 A 163131.20 163131.20 0 1 1 48781826.00 30810000.00 L 48771720.82 30810000.00 L 48760271.49 30816167.44 L 48735023.00 30837521.00 L 48728522.89 30840088.37 L 48472155.00 31096456.92 L 48472155.00 34895442.00 L 48473506.00 34895442.00 A 728078.55 728078.55 0 0 1 48260262.00 35410261.01 L 48223950.15 35444661.31 L 48183101.00 35487315.00 A 1113438.00 1113438.00 0 0 1 47395786.00 35813432.00 L 47395786.00 35812155.00 L 44714185.77 35812155.00 L 44707968.00 35814922.00 L 44667480.00 35818294.56 L 44667480.00 35996220.00 L 44232520.00 35996220.00 L 44232520.00 35621346.91 L 44229571.00 35616529.00 L 44230820.32 35611336.29 L 44228776.00 35606401.00 L 44232520.00 35597362.41 L 44232520.00 35585374.30 L 44211984.75 35567285.27 L 44166244.37 35593626.38 L 44171741.00 35621260.00 L 44171741.00 35778740.00 A 221742.90 221742.90 0 1 1 43728259.00 35778740.00  zM 45770000.00 32499995.92 m -163138.59 0 a 163138.59 163138.59 0 1 1 326277.17 0a 163138.59 163138.59 0 1 1 -326277.17 0M 45770000.00 33199995.92 m -163138.59 0 a 163138.59 163138.59 0 1 1 326277.17 0a 163138.59 163138.59 0 1 1 -326277.17 0M 47539367.00 32495642.00 L 47525009.67 32481284.67 L 47513552.00 32476794.00 L 47502323.56 32466530.45 L 47486678.27 32457254.60 L 47471690.00 32454878.00 L 47465032.03 32451763.00 L 46810000.00 32451763.00 L 46774884.00 32444778.00 L 46745114.00 32424886.00 L 46315114.00 31994886.00 L 46295222.00 31965116.00 L 46288237.00 31930000.00 L 46288237.00 30874967.97 L 46285122.00 30868310.00 L 46284854.91 30862368.02 L 46279341.92 30846216.23 L 46263206.00 30826448.00 L 46258715.33 30814990.33 L 46244358.00 30800633.00 A 163138.59 163138.59 0 1 1 46515642.00 30800633.00 L 46501284.67 30814990.33 L 46496794.00 30826448.00 L 46486530.45 30837676.44 L 46477254.60 30853321.73 L 46474878.00 30868310.00 L 46471763.00 30874967.97 L 46471763.00 31891991.00 L 46848009.00 32268237.00 L 47465032.03 32268237.00 L 47471690.00 32265122.00 L 47477631.98 32264854.91 L 47493783.77 32259341.92 L 47513552.00 32243206.00 L 47525009.67 32238715.33 L 47539367.00 32224358.00 A 163138.59 163138.59 0 1 1 47539367.00 32495642.00  zM 45268174.00 33920000.00 L 45288026.20 33920000.00 L 45298821.00 33915098.00 L 45304291.10 33914914.37 L 45317598.76 33910637.12 L 45334435.00 33897195.00 L 45341165.88 33894642.12 L 45665011.00 33570797.00 L 45663992.00 33569778.00 A 1103374.91 1103374.91 0 0 1 46444214.00 33246599.00 L 46444214.00 33248041.00 L 47519821.92 33248041.00 L 47526391.00 33245085.00 L 47534269.74 33244847.52 L 47551031.37 33241626.56 L 47564230.00 33232563.00 L 47575328.59 33228396.41 L 47589367.00 33214358.00 A 163138.59 163138.59 0 1 1 47589367.00 33485642.00 L 47575328.59 33471603.59 L 47564230.00 33467437.00 L 47560232.45 33463699.13 L 47547791.14 33457311.46 L 47526391.00 33454915.00 L 47519821.92 33451959.00 L 46439876.37 33451096.21 L 46268763.00 33467949.00 L 46100055.00 33519126.00 L 45944572.00 33602234.00 L 45811659.57 33711312.49 L 45485357.88 34038834.12 L 45482805.00 34045565.00 L 45477412.67 34051293.12 L 45467825.77 34065436.98 L 45464902.00 34081179.00 L 45460000.00 34091973.80 L 45460000.00 34111826.00 A 163131.20 163131.20 0 1 1 45268174.00 33920000.00  zM 45192054.00 34764985.00 L 45206092.41 34779023.41 L 45217191.00 34783190.00 L 45221188.55 34786927.87 L 45233629.86 34793315.54 L 45255030.00 34795712.00 L 45261599.08 34798668.00 L 46729496.63 34799530.79 L 46900610.00 34782678.00 L 47069318.00 34731501.00 L 47224801.00 34648393.00 L 47357713.43 34539314.51 L 47514642.12 34381165.88 L 47517195.00 34374435.00 L 47522587.33 34368706.88 L 47532174.23 34354563.02 L 47535098.00 34338821.00 L 47540000.00 34328026.20 L 47540000.00 34308174.00 A 163131.20 163131.20 0 1 1 47731826.00 34500000.00 L 47711973.80 34500000.00 L 47701179.00 34504902.00 L 47695708.90 34505085.63 L 47682401.24 34509362.88 L 47665565.00 34522805.00 L 47658834.12 34525357.88 L 47504362.00 34679830.00 L 47505381.00 34680849.00 A 1103374.91 1103374.91 0 0 1 46725159.00 35004028.00 L 46725159.00 35002586.00 L 45261599.08 35002586.00 L 45255030.00 35005542.00 L 45247151.26 35005779.48 L 45230389.63 35009000.44 L 45217191.00 35018064.00 L 45206092.41 35022230.59 L 45192054.00 35036269.00 A 163138.59 163138.59 0 1 1 45192054.00 34764985.00  zM 50538189.00 35663037.00 L 49561811.00 35663037.00 A 263050.41 263050.41 0 0 1 49299476.48 35410065.81 L 49277579.00 35394433.00 L 49274058.17 35389362.02 L 49184301.00 35315699.00 L 49109055.00 35224013.00 A 605026.79 605026.79 0 0 1 49007087.00 34887868.00 L 49008237.00 34887868.00 L 49007844.00 30682843.00 A 590703.54 590703.54 0 0 0 48834836.06 30265165.00 L 48748234.00 30197768.00 L 48646761.00 30155737.00 L 48538963.10 30141545.17 L 48450000.00 30142131.00 L 48392869.00 30153495.00 L 48344437.00 30185857.00 L 47756538.84 30773234.55 A 754191.53 754191.53 0 0 0 47548057.17 31160365.83 L 47549726.00 31165138.00 L 47548514.44 31175561.70 L 47550792.31 31186315.66 L 47564150.00 31205072.00 L 47567259.67 31214709.67 L 47576275.00 31223725.00 A 163138.59 163138.59 0 1 1 47304991.00 31223725.00 L 47325266.86 31203449.14 L 47330975.00 31191162.00 L 47337637.99 31185038.96 L 47352706.37 31166671.82 L 47363097.66 31141282.01 L 47364336.00 31128709.00 A 951603.16 951603.16 0 0 1 47624769.00 30641470.97 L 47662119.19 30608108.81 L 48213628.00 30055049.00 A 334280.45 334280.45 0 0 1 48450000.00 29957140.00 L 48450000.00 29958237.00 L 48537868.00 29958237.00 L 48537868.00 29957087.00 A 605071.16 605071.16 0 0 1 48874013.00 30059055.00 L 48966283.00 30133717.00 A 776571.25 776571.25 0 0 1 49193739.00 30682843.00 L 49191763.00 30682843.00 L 49191763.00 34887868.00 A 415490.30 415490.30 0 0 0 49313957.50 35184493.59 L 49367034.41 35225449.30 L 49375816.00 35214005.00 A 263014.80 263014.80 0 0 1 49561811.00 35136963.00 L 50538189.00 35136963.00 A 263050.41 263050.41 0 0 1 50538189.00 35663037.00  zM 50538189.00 33663037.00 L 49561811.00 33663037.00 A 263050.41 263050.41 0 0 1 49561811.00 33136963.00 L 50538189.00 33136963.00 A 263050.41 263050.41 0 0 1 50538189.00 33663037.00  zM 50798976.00 30660787.00 L 49301024.00 30660787.00 L 49301024.00 30139213.00 L 50798976.00 30139213.00 L 50798976.00 30660787.00  zM 50538189.00 31663037.00 L 49561811.00 31663037.00 A 263050.41 263050.41 0 0 1 49561811.00 31136963.00 L 50538189.00 31136963.00 A 263050.41 263050.41 0 0 1 50538189.00 31663037.00  zM 50538189.00 32663037.00 L 49561811.00 32663037.00 A 263050.41 263050.41 0 0 1 49561811.00 32136963.00 L 50538189.00 32136963.00 A 263050.41 263050.41 0 0 1 50538189.00 32663037.00  zM 50538189.00 34663037.00 L 49561811.00 34663037.00 A 263050.41 263050.41 0 0 1 49561811.00 34136963.00 L 50538189.00 34136963.00 A 263050.41 263050.41 0 0 1 50538189.00 34663037.00  z"/>
<path id="N" d="M 47557904.00 32287904.00 L 47552751.87 32295614.71 L 47542680.00 32304400.00 L 47517987.00 32320000.00 L 47496074.74 32327528.00 L 46823450.00 32327528.00 L 46412472.00 31916550.00 L 46412472.00 30843925.26 L 46413600.00 30839032.00 L 46424400.00 30813671.00 L 46442400.00 30789311.00 L 46452096.00 30782096.00 A 101958.15 101958.15 0 1 0 46307904.00 30782096.00 L 46315614.71 30787248.13 L 46324400.00 30797320.00 L 46340000.00 30822013.00 L 46347528.00 30843925.26 L 46347528.00 31930000.00 L 46357039.00 31952961.00 L 46787039.00 32382961.00 L 46810000.00 32392472.00 L 47496074.74 32392472.00 L 47500968.00 32393600.00 L 47526329.00 32404400.00 L 47550689.00 32422400.00 L 47557904.00 32432096.00 A 101958.15 101958.15 0 1 0 47557904.00 32287904.00  z"/>
<path id="N" d="M 44110565.00 35778740.00 L 44110565.00 35621260.00 A 160563.52 160563.52 0 0 0 43789435.00 35621260.00 L 43789435.00 35778740.00 A 160563.52 160563.52 0 0 0 44110565.00 35778740.00  zM 43950002.46 35699992.27 m -120431.73 0 a 120431.73 120431.73 0 1 1 240863.46 0a 120431.73 120431.73 0 1 1 -240863.46 0"/>
<path id="N" d="M 50538189.00 35195279.00 L 49561811.00 35195279.00 L 49483468.00 35210862.00 L 49417051.00 35255240.00 L 49388279.97 35298299.30 L 49377449.00 35299398.00 L 49356551.03 35293165.04 L 49274166.18 35229948.49 L 49272961.00 35227039.00 L 49270051.51 35225833.82 A 475624.34 475624.34 0 0 1 49131266.23 34890778.92 L 49132472.00 34887868.00 L 49133449.00 30682843.00 A 716281.64 716281.64 0 0 0 49012732.00 30284892.00 L 48924521.00 30175479.00 L 48811273.00 30088581.00 L 48679393.00 30033954.00 L 48537868.00 30015322.00 L 48537868.00 30017528.00 L 48449539.95 30017718.57 A 272875.37 272875.37 0 0 0 48256328.00 30097750.00 L 47668688.71 30685389.71 L 47667401.00 30684102.00 A 891338.79 891338.79 0 0 0 47423467.00 31140471.00 L 47419968.00 31175599.00 L 47416690.00 31184107.00 L 47402821.00 31208628.00 L 47382903.00 31231644.00 L 47368537.00 31242262.00 A 101958.15 101958.15 0 1 0 47512729.00 31242262.00 L 47507537.00 31238751.00 L 47491660.00 31213332.00 L 47484130.93 31187694.77 L 47487527.00 31153213.00 L 47534532.00 30998261.00 L 47610862.00 30855456.00 L 47711784.90 30732481.64 L 47714611.71 30731310.29 L 48302250.29 30143671.29 L 48303273.85 30141200.27 L 48369459.00 30096977.00 L 48447527.49 30081447.83 L 48537868.00 30082472.00 L 48540778.92 30081266.23 A 475622.80 475622.80 0 0 1 48875833.82 30220051.51 L 48958425.00 30321179.00 L 49018582.00 30433725.00 L 49055627.00 30555843.00 L 49068018.40 30681659.10 L 49067528.00 34887868.00 L 49065322.00 34887868.00 A 546801.67 546801.67 0 0 0 49338727.00 35361419.00 L 49348611.00 35367166.00 L 49360322.14 35383750.51 L 49357090.00 35400000.00 A 204721.07 204721.07 0 0 0 49561811.00 35604721.00 L 50538189.00 35604721.00 A 204718.14 204718.14 0 0 0 50538189.00 35195279.00  z"/>
<path id="N" d="M 40253938.00 34359940.00 L 39977367.00 34359940.00 L 39966925.00 34307445.00 A 200709.51 200709.51 0 0 0 39580789.00 34384252.00 L 39580789.00 34581102.00 L 39582361.37 34589006.75 L 39580018.00 34600788.00 A 240838.32 240838.32 0 0 0 39820866.00 34841636.00 L 40253938.00 34841636.00 A 240860.29 240860.29 0 1 0 40253938.00 34359940.00  zM 40293307.00 34721212.00 L 39781497.00 34721212.00 A 120431.73 120431.73 0 0 1 39661073.00 34600788.00 L 39663030.46 34590947.51 L 39661072.00 34581102.00 L 39661072.00 34384252.00 A 120431.73 120431.73 0 0 1 39901920.00 34384252.00 L 39901920.00 34480364.00 L 40293307.00 34480364.00 A 120431.73 120431.73 0 0 1 40293307.00 34721212.00  z"/>
<path id="N" d="M 39966925.00 31492555.00 L 39977366.60 31440062.00 L 40253938.00 31440062.00 A 240838.32 240838.32 0 0 0 40253938.00 30958366.00 L 39820866.00 30958366.00 A 240838.32 240838.32 0 0 0 39580018.00 31199214.00 L 39582361.17 31210994.25 L 39580789.00 31218898.00 L 39580789.00 31415748.00 A 200706.53 200706.53 0 0 0 39966925.00 31492555.00  zM 39661072.00 31415748.00 L 39661072.00 31218898.00 L 39663030.26 31209053.49 L 39661073.00 31199214.00 A 120431.73 120431.73 0 0 1 39781497.00 31078790.00 L 40293307.00 31078790.00 A 120431.73 120431.73 0 1 1 40293307.00 31319638.00 L 39901920.00 31319638.00 L 39901920.00 31415748.00 A 120431.73 120431.73 0 0 1 39661072.00 31415748.00  z"/>
<path id="N" d="M 38305119.00 30941101.00 L 37793307.00 30941101.00 A 258101.18 258101.18 0 0 0 37793307.00 31457327.00 L 38305119.00 31457327.00 A 258122.37 258122.37 0 0 0 38305119.00 30941101.00  zM 38305119.00 31339709.00 L 37793307.00 31339709.00 A 140500.91 140500.91 0 0 1 37793307.00 31058719.00 L 38305119.00 31058719.00 A 140500.91 140500.91 0 1 1 38305119.00 31339709.00  z"/>
<path id="N" d="M 38305119.00 34342675.00 L 37793307.00 34342675.00 A 258101.18 258101.18 0 0 0 37793307.00 34858901.00 L 38305119.00 34858901.00 A 258122.37 258122.37 0 0 0 38305119.00 34342675.00  zM 38305119.00 34741283.00 L 37793307.00 34741283.00 A 140500.91 140500.91 0 0 1 37793307.00 34460293.00 L 38305119.00 34460293.00 A 140500.91 140500.91 0 0 1 38305119.00 34741283.00  z"/>
<path id="N" d="M 50538189.00 34195279.00 L 49561811.00 34195279.00 A 204721.07 204721.07 0 0 0 49561811.00 34604721.00 L 50538189.00 34604721.00 A 204718.14 204718.14 0 0 0 50538189.00 34195279.00  z"/>
<path id="N" d="M 50538189.00 32195279.00 L 49561811.00 32195279.00 A 204721.07 204721.07 0 0 0 49561811.00 32604721.00 L 50538189.00 32604721.00 A 204718.14 204718.14 0 0 0 50538189.00 32195279.00  z"/>
<path id="N" d="M 50538189.00 31195279.00 L 49561811.00 31195279.00 A 204721.07 204721.07 0 0 0 49561811.00 31604721.00 L 50538189.00 31604721.00 A 204718.14 204718.14 0 0 0 50538189.00 31195279.00  z"/>
<path id="N" d="M 50538189.00 33195279.00 L 49561811.00 33195279.00 A 204721.07 204721.07 0 0 0 49561811.00 33604721.00 L 50538189.00 33604721.00 A 204718.14 204718.14 0 0 0 50538189.00 33195279.00  z"/>
<path id="N" d="M 45769999.95 33199999.95 m -101959.21 0 a 101959.21 101959.21 0 1 1 203918.42 0a 101959.21 101959.21 0 1 1 -203918.42 0"/>
<path id="N" d="M 38485731.95 33165369.95 m -101959.21 0 a 101959.21 101959.21 0 1 1 203918.42 0a 101959.21 101959.21 0 1 1 -203918.42 0"/>
<path id="N" d="M 37795731.95 31885369.95 m -101959.21 0 a 101959.21 101959.21 0 1 1 203918.42 0a 101959.21 101959.21 0 1 1 -203918.42 0"/>
<path id="N" d="M 38655731.95 31865369.95 m -101959.21 0 a 101959.21 101959.21 0 1 1 203918.42 0a 101959.21 101959.21 0 1 1 -203918.42 0"/>
<path id="N" d="M 45769999.95 32499999.95 m -101959.21 0 a 101959.21 101959.21 0 1 1 203918.42 0a 101959.21 101959.21 0 1 1 -203918.42 0"/>
<path id="N" d="M 44769999.95 32499999.95 m -101959.21 0 a 101959.21 101959.21 0 1 1 203918.42 0a 101959.21 101959.21 0 1 1 -203918.42 0"/>
<path id="N" d="M 44789999.95 33189999.95 m -101959.21 0 a 101959.21 101959.21 0 1 1 203918.42 0a 101959.21 101959.21 0 1 1 -203918.42 0"/>
<path id="N" d="M 37815731.95 33855369.95 m -101959.21 0 a 101959.21 101959.21 0 1 1 203918.42 0a 101959.21 101959.21 0 1 1 -203918.42 0"/>
<path id="N" d="M 38649999.95 33859999.95 m -101959.21 0 a 101959.21 101959.21 0 1 1 203918.42 0a 101959.21 101959.21 0 1 1 -203918.42 0"/>
<path id="N" d="M 37775731.95 33195369.95 m -101959.21 0 a 101959.21 101959.21 0 1 1 203918.42 0a 101959.21 101959.21 0 1 1 -203918.42 0"/>
<path id="N" d="M 37805731.95 32495369.95 m -101959.21 0 a 101959.21 101959.21 0 1 1 203918.42 0a 101959.21 101959.21 0 1 1 -203918.42 0"/>
<path id="N" d="M 38515731.95 32485369.95 m -101959.21 0 a 101959.21 101959.21 0 1 1 203918.42 0a 101959.21 101959.21 0 1 1 -203918.42 0"/>
<path id="N" d="M 41374409.00 34214961.00 L 41177559.00 34214961.00 L 41177559.00 34687401.00 L 41374409.00 34687401.00 L 41374409.00 34214961.00  z"/>
<path id="N" d="M 50738976.00 30199213.00 L 49361024.00 30199213.00 L 49361024.00 30600787.00 L 50738976.00 30600787.00 L 50738976.00 30199213.00  z"/>
<path id="N" d="M 40777904.00 33077904.00 L 40772751.87 33085614.71 L 40762680.00 33094400.00 L 40737987.00 33110000.00 L 40716074.74 33117528.00 L 40100057.00 33117528.00 L 40059568.00 33077039.00 L 40036607.00 33067528.00 L 39433925.26 33067528.00 L 39429032.00 33066400.00 L 39403671.00 33055600.00 L 39379311.00 33037600.00 L 39372096.00 33027904.00 A 101958.15 101958.15 0 1 0 39372096.00 33172096.00 L 39377248.13 33164385.29 L 39387320.00 33155600.00 L 39412013.00 33140000.00 L 39433925.26 33132472.00 L 40023157.00 33132472.00 L 40063646.00 33172961.00 L 40086607.00 33182472.00 L 40716074.74 33182472.00 L 40720968.00 33183600.00 L 40746329.00 33194400.00 L 40770689.00 33212400.00 L 40777904.00 33222096.00 A 101958.15 101958.15 0 1 0 40777904.00 33077904.00  z"/>
<path id="N" d="M 44779971.00 34818179.00 L 44771539.30 34812545.12 L 44756079.00 34790610.00 L 44747993.62 34768558.12 L 44743296.00 34589436.95 L 44743296.00 34505148.00 L 44730615.00 34474533.00 L 43958120.74 33702178.48 A 1042459.30 1042459.30 0 0 0 43220639.00 33396704.00 L 42867072.00 33396704.00 L 42813589.00 33407953.00 L 42767816.00 33437817.00 L 42737953.00 33483589.00 L 42726704.00 33537071.00 L 42726704.00 33779378.49 L 42719200.00 33801633.00 L 42705189.45 33823036.02 L 42697904.00 33827904.00 A 101958.15 101958.15 0 1 0 42842096.00 33827904.00 L 42834300.00 33822490.00 L 42820800.00 33801633.00 L 42813296.00 33779378.49 L 42813296.00 33537071.00 L 42812002.98 33533949.34 L 42825923.77 33500340.25 L 42829046.00 33499047.00 L 42830339.26 33495924.75 L 42863950.36 33482002.99 L 42867072.00 33483296.00 L 43220639.00 33483296.00 L 43226328.48 33480939.37 L 43407852.00 33498818.00 L 43587870.00 33553426.00 L 43753776.00 33642104.00 L 43894773.99 33757817.60 L 43897131.00 33763508.00 L 44656704.00 34523081.98 L 44656704.00 34590000.00 L 44661431.68 34770830.37 L 44654514.00 34793274.00 L 44641806.79 34814151.36 L 44635779.00 34818179.00 A 101958.15 101958.15 0 1 0 44779971.00 34818179.00  z"/>
<path id="N" d="M 43610565.00 35778740.00 L 43610565.00 35621260.00 A 160563.52 160563.52 0 0 0 43289435.00 35621260.00 L 43289435.00 35778740.00 A 160563.52 160563.52 0 0 0 43610565.00 35778740.00  zM 43450002.46 35699992.27 m -120431.73 0 a 120431.73 120431.73 0 1 1 240863.46 0a 120431.73 120431.73 0 1 1 -240863.46 0"/>
</g>
</svg>
