<svg width="35.00000112mm" height="17.99999956mm" viewBox="0 0 13779528 7086614"  version="1.1" xmlns="http://www.w3.org/2000/svg" xmlns:xlink="http://www.w3.org/1999/xlink">
<desc>
Origin 0 0 Bound 37350000 29300000 13779528 7086614
</desc>
<g fill-rule="evenodd" fill="rgb(128, 128, 0)" stroke="black" stroke-width="1" transform="translate(0, 7086614) scale(1, -1) translate(-37350000, -29300000)">
<path id="N" d="M 51904120.00 35900000.00 L 51904120.00 35591915.00 L 53962205.00 35591916.00 L 54000474.00 35576064.00 L 54138269.00 35438269.00 L 54154121.00 35400000.00 L 54138267.29 35361730.29 L 54000474.00 35223936.00 L 53962202.59 35208085.00 L 51904120.00 35208085.00 L 51904120.00 34591915.00 L 53962205.00 34591916.00 L 54000474.00 34576064.00 L 54138269.00 34438269.00 L 54154121.00 34400000.00 L 54138267.29 34361730.29 L 54000474.00 34223936.00 L 53962202.59 34208085.00 L 51904120.00 34208085.00 L 51904120.00 33591915.00 L 53962205.00 33591916.00 L 54000474.00 33576064.00 L 54138269.00 33438269.00 L 54154121.00 33400000.00 L 54138267.29 33361730.29 L 54000474.00 33223936.00 L 53962202.59 33208085.00 L 51904120.00 33208085.00 L 51904120.00 32591915.00 L 53962205.00 32591916.00 L 54000474.00 32576064.00 L 54138269.00 32438269.00 L 54154121.00 32400000.00 L 54138267.29 32361730.29 L 54000474.00 32223936.00 L 53962202.59 32208085.00 L 51904120.00 32208085.00 L 51904120.00 31591915.00 L 53962205.00 31591916.00 L 54000474.00 31576064.00 L 54138269.00 31438269.00 L 54154121.00 31400000.00 L 54138267.29 31361730.29 L 54000474.00 31223936.00 L 53962202.59 31208085.00 L 51904120.00 31208085.00 L 51904120.00 30591915.00 L 53962205.00 30591916.00 L 54000474.00 30576064.00 L 54138269.00 30438269.00 L 54154121.00 30400000.00 L 54138267.29 30361730.29 L 54000474.00 30223936.00 L 53962202.59 30208085.00 L 51904120.00 30208085.00 L 51904120.00 29900000.00 L 51888269.00 29861731.00 L 51850000.00 29845880.00 L 50850000.00 29845880.00 L 50811731.00 29861731.00 L 50795880.00 29900000.00 L 50795880.00 30100000.00 L 50811731.00 30138269.00 L 50850000.00 30154120.00 L 50995880.00 30154120.00 L 50995880.00 30645880.00 L 50850000.00 30645880.00 L 50811731.00 30661731.00 L 50795880.00 30700000.00 L 50795880.00 31100000.00 L 50811731.00 31138269.00 L 50850000.00 31154120.00 L 50995880.00 31154120.00 L 50995880.00 31645880.00 L 50850000.00 31645880.00 L 50811731.00 31661731.00 L 50795880.00 31700000.00 L 50795880.00 32100000.00 L 50811731.00 32138269.00 L 50850000.00 32154120.00 L 50995880.00 32154120.00 L 50995880.00 32645880.00 L 50850000.00 32645880.00 L 50811731.00 32661731.00 L 50795880.00 32700000.00 L 50795880.00 33100000.00 L 50811731.00 33138269.00 L 50850000.00 33154120.00 L 50995880.00 33154120.00 L 50995880.00 33645880.00 L 50850000.00 33645880.00 L 50811731.00 33661731.00 L 50795880.00 33700000.00 L 50795880.00 34100000.00 L 50811731.00 34138269.00 L 50850000.00 34154120.00 L 50995880.00 34154120.00 L 50995880.00 34645880.00 L 50850000.00 34645880.00 L 50811731.00 34661731.00 L 50795880.00 34700000.00 L 50795880.00 35100000.00 L 50811731.00 35138269.00 L 50850000.00 35154120.00 L 50995880.00 35154120.00 L 50995880.00 35645880.00 L 50850000.00 35645880.00 L 50811731.00 35661731.00 L 50795880.00 35700000.00 L 50795880.00 35900000.00 L 50811731.00 35938269.00 L 50850000.00 35954120.00 L 51850000.00 35954120.00 L 51888269.00 35938269.00 L 51904120.00 35900000.00  zM 53939787.12 30483675.00 L 51904120.00 30483675.00 L 51904120.00 30316325.00 L 53939787.12 30316325.00 L 54023462.72 30400000.00 L 53939787.12 30483675.00  zM 53939787.12 31483675.00 L 51904120.00 31483675.00 L 51904120.00 31316325.00 L 53939787.12 31316325.00 L 54023462.72 31400000.00 L 53939787.12 31483675.00  zM 53939787.12 32483675.00 L 51904120.00 32483675.00 L 51904120.00 32316325.00 L 53939787.12 32316325.00 L 54023462.72 32400000.00 L 53939787.12 32483675.00  zM 51795880.00 35845880.00 L 50904120.00 35845880.00 L 50904120.00 35754120.00 L 51050000.00 35754120.00 L 51088269.00 35738269.00 L 51104120.00 35700000.00 L 51104120.00 35100000.00 L 51088269.00 35061731.00 L 51050000.00 35045880.00 L 50904120.00 35045880.00 L 50904120.00 34754120.00 L 51050000.00 34754120.00 L 51088269.00 34738269.00 L 51104120.00 34700000.00 L 51104120.00 34100000.00 L 51088269.00 34061731.00 L 51050000.00 34045880.00 L 50904120.00 34045880.00 L 50904120.00 33754120.00 L 51050000.00 33754120.00 L 51088269.00 33738269.00 L 51104120.00 33700000.00 L 51104120.00 33100000.00 L 51088269.00 33061731.00 L 51050000.00 33045880.00 L 50904120.00 33045880.00 L 50904120.00 32754120.00 L 51050000.00 32754120.00 L 51088269.00 32738269.00 L 51104120.00 32700000.00 L 51104120.00 32100000.00 L 51088269.00 32061731.00 L 51050000.00 32045880.00 L 50904120.00 32045880.00 L 50904120.00 31754120.00 L 51050000.00 31754120.00 L 51088269.00 31738269.00 L 51104120.00 31700000.00 L 51104120.00 31100000.00 L 51088269.00 31061731.00 L 51050000.00 31045880.00 L 50904120.00 31045880.00 L 50904120.00 30754120.00 L 51050000.00 30754120.00 L 51088269.00 30738269.00 L 51104120.00 30700000.00 L 51104120.00 30100000.00 L 51088269.00 30061731.00 L 51050000.00 30045880.00 L 50904120.00 30045880.00 L 50904120.00 29954120.00 L 51795880.00 29954120.00 L 51795880.00 35845880.00  zM 53939787.12 33483675.00 L 51904120.00 33483675.00 L 51904120.00 33316325.00 L 53939787.12 33316325.00 L 54023462.72 33400000.00 L 53939787.12 33483675.00  zM 53939787.12 35483675.00 L 51904120.00 35483675.00 L 51904120.00 35316325.00 L 53939787.12 35316325.00 L 54023462.72 35400000.00 L 53939787.12 35483675.00  zM 53939787.12 34483675.00 L 51904120.00 34483675.00 L 51904120.00 34316325.00 L 53939787.12 34316325.00 L 54023462.72 34400000.00 L 53939787.12 34483675.00  z"/>
<path id="N" d="M 50465134.93 33146824.98 L 50508979.93 33138499.98 A 117196.43 117196.43 0 0 0 50568919.94 33096319.99 L 50578909.94 33076340.00 L 50584459.95 33051365.00 L 50585014.95 33031385.00 L 50576689.96 33001415.00 L 50566699.96 32985319.99 L 50553379.96 32971999.99 L 50531734.96 32957014.99 L 50498434.97 32944804.98 L 50399644.97 32917609.96 L 50373559.97 32907064.96 L 50356909.98 32894299.96 L 50348029.98 32881534.96 L 50343589.98 32863774.96 L 50346919.99 32842129.96 L 50359129.99 32822149.96 L 50375224.99 32809939.96 L 50396314.99 32801059.96 L 50428504.99 32796064.97 L 50462359.99 32797174.98 L 50493994.99 32804944.98 L 50515639.99 32816044.99 L 50531734.99 32829919.99 L 50544499.98 32851564.99 L 50552269.98 32884309.99 L 50599999.98 32879870.00 L 50598889.98 32865995.00 L 50593339.99 32841020.00 L 50583904.99 32818820.00 L 50571139.99 32799949.99 L 50552825.00 32782744.99 L 50527295.00 32766649.99 L 50495660.00 32756104.98 L 50445710.00 32749999.97 L 50407970.00 32752219.97 L 50375780.00 32759989.96 L 50351360.00 32771089.96 L 50332490.00 32784964.95 L 50315839.99 32802169.95 L 50301964.99 32827144.95 L 50294749.98 32859334.95 A 95867.55 95867.55 0 0 0 50333599.97 32941474.95 L 50355244.97 32955349.96 L 50376889.96 32964229.96 L 50466799.96 32987539.98 L 50502319.96 32999749.98 L 50522299.96 33010294.99 L 50530624.95 33021394.99 L 50536174.95 33036934.99 L 50535619.95 33053029.99 L 50530069.95 33067459.99 L 50517304.94 33084109.99 L 50496769.94 33094654.98 L 50464579.94 33100759.98 L 50433499.94 33101314.97 L 50408524.94 33095764.97 L 50386324.94 33085774.96 L 50374669.94 33075229.96 L 50363569.95 33058024.96 L 50355244.95 33028609.96 L 50306404.95 33032494.95 L 50307514.95 33044704.95 L 50313064.95 33066349.95 L 50320279.94 33082444.95 L 50333044.94 33101869.95 L 50349139.94 33117409.96 L 50372449.93 33131839.96 L 50401309.93 33141274.97 L 50443489.93 33147379.97 L 50465134.93 33146824.98  z"/>
<path id="N" d="M 50471402.93 32050898.98 L 50515247.93 32042573.98 A 117196.43 117196.43 0 0 0 50575187.94 32000393.99 L 50585177.94 31980414.00 L 50590727.95 31955439.00 L 50591282.95 31935459.00 L 50582957.96 31905489.00 L 50572967.96 31889393.99 L 50559647.96 31876073.99 L 50538002.96 31861088.99 L 50504702.97 31848878.98 L 50405912.97 31821683.96 L 50379827.97 31811138.96 L 50363177.98 31798373.96 L 50354297.98 31785608.96 L 50349857.98 31767848.96 L 50353187.99 31746203.96 L 50365397.99 31726223.96 L 50381492.99 31714013.96 L 50402582.99 31705133.96 L 50434772.99 31700138.97 L 50468627.99 31701248.98 L 50500262.99 31709018.98 L 50521907.99 31720118.99 L 50538002.99 31733993.99 L 50550767.98 31755638.99 L 50558537.98 31788383.99 L 50606267.98 31783944.00 L 50605157.98 31770069.00 L 50599607.99 31745094.00 L 50590172.99 31722894.00 L 50577407.99 31704023.99 L 50559093.00 31686818.99 L 50533563.00 31670723.99 L 50501928.00 31660178.98 L 50451978.00 31654073.97 L 50414238.00 31656293.97 L 50382048.00 31664063.96 L 50357628.00 31675163.96 L 50338758.00 31689038.95 L 50322107.99 31706243.95 L 50308232.99 31731218.95 L 50301017.98 31763408.95 A 95867.55 95867.55 0 0 0 50339867.97 31845548.95 L 50361512.97 31859423.96 L 50383157.96 31868303.96 L 50473067.96 31891613.98 L 50508587.96 31903823.98 L 50528567.96 31914368.99 L 50536892.95 31925468.99 L 50542442.95 31941008.99 L 50541887.95 31957103.99 L 50536337.95 31971533.99 L 50523572.94 31988183.99 L 50503037.94 31998728.98 L 50470847.94 32004833.98 L 50439767.94 32005388.97 L 50414792.94 31999838.97 L 50392592.94 31989848.96 L 50380937.94 31979303.96 L 50369837.95 31962098.96 L 50361512.95 31932683.96 L 50312672.95 31936568.95 L 50313782.95 31948778.95 L 50319332.95 31970423.95 L 50326547.94 31986518.95 L 50339312.94 32005943.95 L 50355407.94 32021483.96 L 50378717.93 32035913.96 L 50407577.93 32045348.97 L 50449757.93 32051453.97 L 50471402.93 32050898.98  z"/>
<path id="N" d="M 39592869.93 29980174.69 L 39620064.94 29965189.70 L 39645594.94 29945209.70 L 39664464.94 29921344.71 L 39677229.95 29896924.71 L 39689994.96 29859739.71 L 39698319.96 29809234.71 A 236460.34 236460.34 0 0 0 39680559.98 29704894.71 L 39667794.99 29681029.71 L 39646704.99 29654944.70 L 39619510.00 29631079.70 L 39595645.00 29617759.69 L 39562900.00 29606659.69 L 39529045.00 29600554.68 L 39496855.00 29601109.68 L 39463555.00 29607214.67 L 39429700.00 29619424.66 L 39406390.00 29633299.66 L 39381969.99 29656054.66 L 39361989.99 29681584.65 L 39347559.98 29710999.65 L 39337014.98 29746519.65 L 39332019.97 29782594.65 L 39332574.96 29818669.65 L 39336459.96 29846974.65 L 39348669.95 29888599.65 L 39363099.95 29916904.65 L 39373644.94 29931334.65 L 39394734.94 29953534.66 L 39417489.94 29970739.66 L 39451899.93 29986834.67 L 39468549.93 29991274.67 L 39510174.93 29997379.68 A 180284.28 180284.28 0 0 0 39592869.93 29980174.69  zM 39501294.94 29952979.68 L 39476319.94 29947429.67 L 39451899.94 29937439.67 L 39435804.94 29926339.67 L 39418044.95 29908579.66 L 39400284.95 29881384.66 L 39390294.96 29851969.66 L 39384744.96 29819779.66 L 39384189.97 29784814.66 L 39389184.98 29748739.66 L 39398619.98 29720434.66 L 39411939.98 29694904.66 L 39428034.99 29676034.66 L 39451344.99 29659939.67 L 39474654.99 29650504.67 L 39501294.99 29644399.68 L 39526269.99 29643844.68 L 39554019.99 29649394.69 L 39577329.99 29659384.69 L 39598974.99 29673814.69 L 39616179.99 29691019.70 L 39631164.98 29717104.70 L 39642264.97 29753179.70 L 39646149.97 29780929.70 L 39645039.96 29822554.70 L 39640599.96 29848639.70 L 39630609.95 29879164.70 L 39616734.95 29905249.70 L 39600639.94 29923009.69 A 146243.38 146243.38 0 0 1 39501294.94 29952979.68  z"/>
<path id="N" d="M 50478504.93 34096269.97 L 50522904.93 34087944.98 L 50551764.94 34077399.98 L 50575074.94 34063524.99 L 50600049.94 34040214.99 L 50620029.95 34013019.99 L 50634459.95 33982495.00 L 50644449.96 33946420.00 L 50649444.96 33910900.00 L 50648889.97 33875935.00 L 50642784.98 33839305.00 L 50630574.98 33802120.00 L 50616699.99 33777699.99 L 50605599.99 33763824.99 L 50582844.99 33741624.99 L 50556760.00 33723864.98 L 50521240.00 33709989.98 L 50487940.00 33702774.97 L 50459080.00 33699999.97 L 50423005.00 33702219.96 L 50391925.00 33708879.95 L 50356960.00 33721089.95 L 50329764.99 33736074.94 L 50294244.99 33759939.94 L 50294244.97 33902574.94 L 50457414.97 33902574.97 L 50457414.97 33857064.97 L 50344194.97 33857064.95 L 50344194.99 33784914.95 L 50350854.99 33779364.95 L 50387484.99 33759939.95 L 50415789.99 33750504.96 L 50456859.99 33745509.97 L 50484054.99 33748284.97 L 50520129.99 33758274.98 A 123868.54 123868.54 0 0 1 50578959.98 33809889.99 L 50590614.98 33841524.99 L 50596719.97 33881484.99 L 50597274.96 33915339.99 L 50593389.96 33942534.99 L 50584509.95 33973614.99 L 50567859.95 34004139.99 L 50552874.94 34021344.98 L 50532339.94 34035774.98 L 50507919.94 34046874.98 L 50487384.94 34051314.97 A 145827.38 145827.38 0 0 1 50405799.94 34044099.96 L 50382489.94 34030779.95 L 50368059.95 34016904.95 L 50355294.95 33995259.95 L 50346414.95 33970839.95 L 50300349.95 33983049.94 L 50304234.95 33996924.94 L 50314224.95 34020234.94 L 50328654.94 34044654.94 L 50345859.94 34061859.95 L 50370834.94 34077954.95 L 50395254.93 34087944.96 L 50432439.93 34095714.96 L 50468514.93 34097379.97 L 50478504.93 34096269.97  z"/>
<path id="N" d="M 39549479.93 30652274.70 L 39582779.93 30646169.71 L 39612749.93 30635624.71 L 39639389.94 30620639.72 L 39663254.94 30598439.72 L 39682679.95 30572909.73 L 39697109.95 30544604.73 L 39706544.96 30509084.73 L 39711539.96 30473009.73 L 39710984.97 30437489.73 L 39705989.98 30400859.73 L 39693224.98 30356459.73 L 39674354.99 30322604.72 L 39659369.99 30304844.72 L 39636615.00 30283754.72 L 39617190.00 30272654.71 L 39583890.00 30262109.71 L 39537825.00 30256004.70 L 39500085.00 30258779.69 L 39465675.00 30269324.69 L 39437370.00 30283754.68 L 39422384.99 30295409.68 L 39403514.99 30317609.68 L 39385754.98 30348689.67 L 39372434.98 30384209.67 L 39423494.98 30396974.68 L 39434039.98 30364784.68 L 39450689.99 30337589.69 L 39469559.99 30319274.69 L 39499529.99 30305399.69 L 39521174.99 30300404.70 L 39548924.99 30299849.70 L 39572234.99 30304844.71 L 39596099.99 30314279.71 L 39612194.99 30324824.71 L 39628844.99 30342584.72 L 39643274.98 30365894.72 L 39653819.98 30400859.72 L 39659369.97 30440264.72 L 39658259.96 30485219.72 L 39649934.95 30525179.72 L 39636614.95 30555704.72 L 39616634.94 30580124.71 L 39594989.94 30595664.71 L 39570014.94 30605099.71 L 39547814.94 30608984.70 L 39518399.94 30609539.70 L 39495089.94 30603989.69 L 39472889.94 30593999.69 L 39451244.95 30572909.69 L 39439034.95 30552929.68 L 39429044.95 30529619.68 L 39379094.95 30541274.67 L 39382424.95 30551264.67 L 39394079.95 30576794.68 L 39407954.94 30597329.68 L 39430154.94 30621194.68 L 39457349.93 30637844.69 L 39497309.93 30649499.69 L 39531164.93 30653384.70 L 39549479.93 30652274.70  z"/>
<path id="N" d="M 49667044.93 31096269.84 L 49700344.93 31090164.84 L 49730314.93 31079619.85 L 49756954.94 31064634.85 L 49780819.94 31042434.86 L 49800244.95 31016904.86 L 49814674.95 30988599.86 L 49824109.96 30953079.86 L 49829104.96 30917004.87 L 49828549.97 30881484.87 L 49823554.98 30844854.86 L 49810789.98 30800454.86 L 49791919.99 30766599.86 L 49776934.99 30748839.86 L 49754180.00 30727749.85 L 49734755.00 30716649.85 L 49701455.00 30706104.84 L 49655390.00 30699999.83 L 49617650.00 30702774.83 L 49583240.00 30713319.82 L 49554935.00 30727749.82 L 49539949.99 30739404.81 L 49521079.99 30761604.81 L 49503319.98 30792684.81 L 49489999.98 30828204.81 L 49541059.98 30840969.81 L 49551604.98 30808779.82 L 49568254.99 30781584.82 L 49587124.99 30763269.82 L 49617094.99 30749394.83 L 49638739.99 30744399.83 L 49666489.99 30743844.84 L 49689799.99 30748839.84 L 49713664.99 30758274.85 L 49729759.99 30768819.85 L 49746409.99 30786579.85 L 49760839.98 30809889.85 L 49771384.98 30844854.86 L 49776934.97 30884259.86 L 49775824.96 30929214.86 L 49767499.95 30969174.85 L 49754179.95 30999699.85 L 49734199.94 31024119.85 L 49712554.94 31039659.84 L 49687579.94 31049094.84 L 49665379.94 31052979.84 L 49635964.94 31053534.83 L 49612654.94 31047984.83 L 49590454.94 31037994.82 L 49568809.95 31016904.82 L 49556599.95 30996924.82 L 49546609.95 30973614.82 L 49496659.95 30985269.81 L 49499989.95 30995259.81 L 49511644.95 31020789.81 L 49525519.94 31041324.81 L 49547719.94 31065189.82 L 49574914.93 31081839.82 L 49614874.93 31093494.83 L 49648729.93 31097379.83 L 49667044.93 31096269.84  z"/>
<path id="N" d="M 50054434.93 31096269.90 L 50087734.93 31090164.91 L 50117704.93 31079619.92 L 50144344.94 31064634.92 L 50168209.94 31042434.92 L 50187634.95 31016904.93 L 50202064.95 30988599.93 L 50211499.96 30953079.93 L 50216494.96 30917004.93 L 50215939.97 30881484.93 L 50210944.98 30844854.93 L 50198179.98 30800454.93 L 50179309.99 30766599.93 L 50164324.99 30748839.92 L 50141570.00 30727749.92 L 50122145.00 30716649.92 L 50088845.00 30706104.91 L 50042780.00 30699999.90 L 50005040.00 30702774.90 L 49970630.00 30713319.89 L 49942325.00 30727749.89 L 49927339.99 30739404.88 L 49908469.99 30761604.88 L 49890709.98 30792684.88 L 49877389.98 30828204.87 L 49928449.98 30840969.88 L 49938994.98 30808779.88 L 49955644.99 30781584.89 L 49974514.99 30763269.89 L 50004484.99 30749394.90 L 50026129.99 30744399.90 L 50053879.99 30743844.90 L 50077189.99 30748839.91 L 50101054.99 30758274.91 L 50117149.99 30768819.92 L 50133799.99 30786579.92 L 50148229.98 30809889.92 L 50158774.98 30844854.92 L 50164324.97 30884259.92 L 50163214.96 30929214.92 L 50154889.95 30969174.92 L 50141569.95 30999699.92 L 50121589.94 31024119.92 L 50099944.94 31039659.91 L 50074969.94 31049094.91 L 50052769.94 31052979.90 L 50023354.94 31053534.90 L 50000044.94 31047984.90 L 49977844.94 31037994.89 L 49956199.95 31016904.89 L 49943989.95 30996924.89 L 49933999.95 30973614.88 L 49884049.95 30985269.87 L 49887379.95 30995259.88 L 49899034.95 31020789.88 L 49912909.94 31041324.88 L 49935109.94 31065189.88 L 49962304.93 31081839.89 L 50002264.93 31093494.90 L 50036119.93 31097379.90 L 50054434.93 31096269.90  z"/>
<path id="N" d="M 49570474.93 33146269.82 L 49603774.93 33140164.83 L 49633744.93 33129619.83 L 49660384.94 33114634.84 L 49684249.94 33092434.84 L 49703674.95 33066904.84 L 49718104.95 33038599.85 L 49727539.96 33003079.85 L 49732534.96 32967004.85 L 49731979.97 32931484.85 L 49726984.98 32894854.85 L 49714219.98 32850454.85 L 49695349.99 32816599.84 L 49680364.99 32798839.84 L 49657610.00 32777749.84 L 49638185.00 32766649.83 L 49604885.00 32756104.83 L 49558820.00 32749999.82 L 49521080.00 32752774.81 L 49486670.00 32763319.81 L 49458365.00 32777749.80 L 49443379.99 32789404.80 L 49424509.99 32811604.79 L 49406749.98 32842684.79 L 49393429.98 32878204.79 L 49444489.98 32890969.80 L 49455034.98 32858779.80 L 49471684.99 32831584.80 L 49490554.99 32813269.81 L 49520524.99 32799394.81 L 49542169.99 32794399.82 L 49569919.99 32793844.82 L 49593229.99 32798839.82 L 49617094.99 32808274.83 L 49633189.99 32818819.83 L 49649839.99 32836579.83 L 49664269.98 32859889.84 L 49674814.98 32894854.84 L 49680364.97 32934259.84 L 49679254.96 32979214.84 L 49670929.95 33019174.84 L 49657609.95 33049699.84 L 49637629.94 33074119.83 L 49615984.94 33089659.83 L 49591009.94 33099094.82 L 49568809.94 33102979.82 L 49539394.94 33103534.81 L 49516084.94 33097984.81 L 49493884.94 33087994.81 L 49472239.95 33066904.80 L 49460029.95 33046924.80 L 49450039.95 33023614.80 L 49400089.95 33035269.79 L 49403419.95 33045259.79 L 49415074.95 33070789.79 L 49428949.94 33091324.80 L 49451149.94 33115189.80 L 49478344.93 33131839.80 L 49518304.93 33143494.81 L 49552159.93 33147379.82 L 49570474.93 33146269.82  z"/>
<path id="N" d="M 40324259.93 30652274.84 L 40357559.93 30646169.84 L 40387529.93 30635624.85 L 40414169.94 30620639.85 L 40438034.94 30598439.86 L 40457459.95 30572909.86 L 40471889.95 30544604.86 L 40481324.96 30509084.87 L 40486319.96 30473009.87 L 40485764.97 30437489.87 L 40480769.98 30400859.87 L 40468004.98 30356459.86 L 40449134.99 30322604.86 L 40434149.99 30304844.86 L 40411395.00 30283754.85 L 40391970.00 30272654.85 L 40358670.00 30262109.84 L 40312605.00 30256004.84 L 40274865.00 30258779.83 L 40240455.00 30269324.82 L 40212150.00 30283754.82 L 40197164.99 30295409.82 L 40178294.99 30317609.81 L 40160534.98 30348689.81 L 40147214.98 30384209.81 L 40198274.98 30396974.82 L 40208819.98 30364784.82 L 40225469.99 30337589.82 L 40244339.99 30319274.82 L 40274309.99 30305399.83 L 40295954.99 30300404.83 L 40323704.99 30299849.84 L 40347014.99 30304844.84 L 40370879.99 30314279.85 L 40386974.99 30324824.85 L 40403624.99 30342584.85 L 40418054.98 30365894.85 L 40428599.98 30400859.86 L 40434149.97 30440264.86 L 40433039.96 30485219.86 L 40424714.95 30525179.86 L 40411394.95 30555704.85 L 40391414.94 30580124.85 L 40369769.94 30595664.85 L 40344794.94 30605099.84 L 40322594.94 30608984.84 L 40293179.94 30609539.83 L 40269869.94 30603989.83 L 40247669.94 30593999.82 L 40226024.95 30572909.82 L 40213814.95 30552929.82 L 40203824.95 30529619.82 L 40153874.95 30541274.81 L 40157204.95 30551264.81 L 40168859.95 30576794.81 L 40182734.94 30597329.81 L 40204934.94 30621194.82 L 40232129.93 30637844.82 L 40272089.93 30649499.83 L 40305944.93 30653384.83 L 40324259.93 30652274.84  z"/>
<path id="N" d="M 39936869.93 30652274.77 L 39970169.93 30646169.78 L 40000139.93 30635624.78 L 40026779.94 30620639.79 L 40050644.94 30598439.79 L 40070069.95 30572909.79 L 40084499.95 30544604.80 L 40093934.96 30509084.80 L 40098929.96 30473009.80 L 40098374.97 30437489.80 L 40093379.98 30400859.80 L 40080614.98 30356459.80 L 40061744.99 30322604.79 L 40046759.99 30304844.79 L 40024005.00 30283754.79 L 40004580.00 30272654.78 L 39971280.00 30262109.78 L 39925215.00 30256004.77 L 39887475.00 30258779.76 L 39853065.00 30269324.76 L 39824760.00 30283754.75 L 39809774.99 30295409.75 L 39790904.99 30317609.74 L 39773144.98 30348689.74 L 39759824.98 30384209.74 L 39810884.98 30396974.75 L 39821429.98 30364784.75 L 39838079.99 30337589.75 L 39856949.99 30319274.76 L 39886919.99 30305399.76 L 39908564.99 30300404.77 L 39936314.99 30299849.77 L 39959624.99 30304844.77 L 39983489.99 30314279.78 L 39999584.99 30324824.78 L 40016234.99 30342584.78 L 40030664.98 30365894.79 L 40041209.98 30400859.79 L 40046759.97 30440264.79 L 40045649.96 30485219.79 L 40037324.95 30525179.79 L 40024004.95 30555704.79 L 40004024.94 30580124.78 L 39982379.94 30595664.78 L 39957404.94 30605099.77 L 39935204.94 30608984.77 L 39905789.94 30609539.76 L 39882479.94 30603989.76 L 39860279.94 30593999.76 L 39838634.95 30572909.75 L 39826424.95 30552929.75 L 39816434.95 30529619.75 L 39766484.95 30541274.74 L 39769814.95 30551264.74 L 39781469.95 30576794.74 L 39795344.94 30597329.75 L 39817544.94 30621194.75 L 39844739.93 30637844.75 L 39884699.93 30649499.76 L 39918554.93 30653384.77 L 39936869.93 30652274.77  z"/>
<path id="N" d="M 41250000.00 30262665.00 L 41103480.00 30262664.97 L 41059080.00 30265994.97 L 41032440.00 30271544.96 L 41006355.00 30283199.96 L 40993589.99 30292634.96 A 118867.79 118867.79 0 0 0 40959734.98 30373109.95 L 40962509.98 30397529.95 L 40969169.97 30415844.95 L 40978049.97 30430829.95 L 40994699.97 30448034.96 L 41012459.97 30459134.96 L 41032439.96 30467459.96 L 41014679.96 30478559.96 L 40994699.96 30499094.96 L 40984709.96 30518519.95 L 40978604.95 30544604.95 L 40980824.95 30567359.95 L 40989149.94 30590114.95 L 41000249.94 30607319.96 L 41014124.94 30621194.96 L 41034659.93 30634514.96 L 41057969.93 30641729.97 L 41090714.93 30646169.97 L 41249999.93 30646725.00 L 41250000.00 30262665.00  zM 41198939.97 30440264.99 L 41097929.97 30440264.97 L 41057969.97 30434714.97 A 62285.29 62285.29 0 0 1 41012459.98 30367559.96 L 41015789.98 30350909.96 L 41025779.99 30332039.96 L 41037434.99 30321494.96 L 41058524.99 30312059.97 L 41072954.99 30309284.97 L 41198939.99 30308174.99 L 41198939.97 30440264.99  zM 41198939.94 30601214.99 L 41107919.94 30601214.98 L 41077949.94 30598439.97 A 50188.76 50188.76 0 0 1 41029109.95 30549044.96 L 41030219.95 30528509.96 L 41036879.96 30511304.96 L 41047424.96 30500204.96 L 41064629.96 30490769.97 L 41089604.96 30486884.97 L 41198939.96 30485774.99 L 41198939.94 30601214.99  z"/>
<path id="N" d="M 39268195.00 29606659.64 L 39121675.00 29606659.61 L 39077275.00 29609989.60 L 39050635.00 29615539.60 L 39024550.00 29627194.59 L 39011784.99 29636629.59 A 118867.79 118867.79 0 0 0 38977929.98 29717104.59 L 38980704.98 29741524.59 L 38987364.97 29759839.59 L 38996244.97 29774824.59 L 39012894.97 29792029.59 L 39030654.97 29803129.59 L 39050634.96 29811454.60 L 39032874.96 29822554.59 L 39012894.96 29843089.59 L 39002904.96 29862514.59 L 38996799.95 29888599.59 L 38999019.95 29911354.59 L 39007344.94 29934109.59 L 39018444.94 29951314.59 L 39032319.94 29965189.59 L 39052854.93 29978509.60 L 39076164.93 29985724.60 L 39108909.93 29990164.61 L 39268194.93 29990719.64 L 39268195.00 29606659.64  zM 39217134.97 29784259.63 L 39116124.97 29784259.61 L 39076164.97 29778709.60 A 62285.29 62285.29 0 0 1 39030654.98 29711554.59 L 39033984.98 29694904.59 L 39043974.99 29676034.60 L 39055629.99 29665489.60 L 39076719.99 29656054.60 L 39091149.99 29653279.60 L 39217134.99 29652169.63 L 39217134.97 29784259.63  zM 39217134.94 29945209.63 L 39126114.94 29945209.61 L 39096144.94 29942434.61 A 50188.76 50188.76 0 0 1 39047304.95 29893039.60 L 39048414.95 29872504.60 L 39055074.96 29855299.60 L 39065619.96 29844199.60 L 39082824.96 29834764.60 L 39107799.96 29830879.61 L 39217134.96 29829769.63 L 39217134.94 29945209.63  z"/>
<path id="N" d="M 40585339.00 34401953.00 L 40591680.00 34386646.00 L 40591680.00 34372263.22 L 40621370.00 34401953.00 L 40636677.00 34408293.00 L 40651984.00 34401953.00 L 40658324.00 34386646.00 L 40651984.00 34371339.00 L 40622294.22 34341649.00 L 40636677.00 34341649.00 L 40651984.00 34335308.00 L 40658325.00 34320001.00 L 40651984.00 34304694.00 L 40636677.00 34298353.00 L 40622294.22 34298353.00 L 40651984.00 34268663.00 L 40658324.00 34253356.00 L 40651984.00 34238049.00 L 40636677.00 34231709.00 L 40621370.00 34238049.00 L 40591680.00 34267738.78 L 40591680.00 34253356.00 L 40585339.00 34238049.00 L 40570032.00 34231708.00 L 40554725.00 34238049.00 L 40548384.00 34253356.00 L 40548384.00 34267738.22 L 40518694.00 34238048.00 L 40503387.00 34231708.00 L 40488079.00 34238048.00 L 40481739.00 34253356.00 L 40488079.00 34268663.00 L 40517769.22 34298353.00 L 40503387.00 34298353.00 L 40488080.00 34304694.00 L 40481739.00 34320001.00 L 40488080.00 34335308.00 L 40503387.00 34341649.00 L 40517769.22 34341649.00 L 40488079.00 34371339.00 L 40481739.00 34386646.00 L 40488079.00 34401954.00 L 40503387.00 34408294.00 L 40518694.00 34401954.00 L 40548384.00 34372263.78 L 40548384.00 34386646.00 L 40554725.00 34401953.00 L 40570032.00 34408294.00 L 40585339.00 34401953.00  z"/>
<path id="N" d="M 50650000.00 35800000.00 L 50598940.00 35799999.99 L 50598939.97 35970384.99 L 50533449.97 35970384.98 L 50514024.97 35968719.98 L 50490714.97 35959284.97 L 50467959.98 35938749.97 L 50445204.98 35907669.96 L 50375830.00 35799999.95 L 50312560.00 35799999.94 L 50378604.98 35904339.95 L 50393589.98 35925429.96 L 50420784.97 35955399.96 L 50450199.97 35974269.97 L 50441319.97 35976489.96 L 50415234.97 35983149.96 L 50395254.97 35992029.96 L 50377494.96 36003129.95 A 89005.11 89005.11 0 0 0 50346414.96 36055299.95 L 50343084.95 36075279.95 L 50345304.95 36101364.95 L 50356404.94 36132444.95 L 50372499.94 36153534.95 L 50392479.94 36169074.95 L 50413014.93 36176844.96 L 50450754.93 36182949.97 L 50649999.93 36184060.00 L 50650000.00 35800000.00  zM 50598939.94 36141324.99 L 50462964.94 36140769.97 L 50439099.94 36135774.96 L 50419119.94 36126339.96 L 50408574.94 36116349.96 L 50400249.95 36101364.96 A 60280.08 60280.08 0 0 1 50443539.96 36018669.96 L 50470179.96 36015339.97 L 50598939.96 36014229.99 L 50598939.94 36141324.99  z"/>
<path id="N" d="M 41571984.00 32225275.00 L 41578325.00 32209968.00 L 41578325.00 32110001.00 L 41576040.00 32100320.00 L 41571984.00 32094694.00 L 41563523.00 32089465.00 L 41556677.00 32088353.00 L 41546996.00 32090638.00 L 41484921.07 32121675.00 L 41465675.19 32121675.00 L 41445035.00 32101034.19 L 41445035.00 32052322.81 L 41465676.19 32031681.00 L 41514387.81 32031681.00 L 41541370.00 32058664.00 L 41556677.00 32065003.00 L 41571985.00 32058664.00 L 41578324.00 32043356.00 L 41571985.00 32028049.00 L 41538661.00 31994726.00 L 41523354.00 31988385.00 L 41456709.00 31988385.00 L 41441401.00 31994726.00 L 41408079.00 32028049.00 L 41401739.00 32043356.00 L 41401739.00 32110001.00 L 41408080.00 32125309.00 L 41441402.00 32158630.00 L 41456709.00 32164971.00 L 41490032.00 32164971.00 L 41499713.00 32162686.00 L 41535029.00 32145028.26 L 41535029.00 32188320.00 L 41423387.00 32188320.00 L 41408080.00 32194661.00 L 41401739.00 32209968.00 L 41408080.00 32225275.00 L 41423387.00 32231616.00 L 41556677.00 32231616.00 L 41571984.00 32225275.00  z"/>
<path id="N" d="M 49724373.00 31660733.85 L 49573413.00 31661288.82 L 49529013.00 31665728.81 L 49497933.00 31675718.81 L 49471292.99 31691258.80 L 49449647.99 31713458.80 L 49432442.99 31739543.79 L 49421342.98 31765073.79 L 49414127.98 31790048.79 L 49408022.97 31828343.79 L 49407467.96 31873298.79 L 49411907.96 31906043.79 A 172640.38 172640.38 0 0 0 49457417.94 32001503.80 L 49476842.94 32018708.80 L 49495712.94 32029253.81 L 49518467.93 32037578.81 L 49555652.93 32043683.82 L 49724372.93 32044793.85 L 49724373.00 31660733.85  zM 49673312.94 31999283.84 L 49584512.94 31999283.82 L 49552322.94 31996508.82 L 49528457.94 31991513.81 L 49507922.94 31979858.81 L 49492382.95 31965428.81 L 49479062.95 31947668.80 L 49467407.95 31919918.80 L 49461302.96 31889393.80 L 49459082.96 31861088.80 L 49462412.97 31812803.80 A 148078.06 148078.06 0 0 1 49497377.99 31732883.81 L 49519577.99 31717898.81 L 49540667.99 31710683.81 L 49570082.99 31707353.82 L 49673312.99 31706243.84 L 49673312.94 31999283.84  z"/>
<path id="N" d="M 49935160.00 34699999.88 L 49784200.00 34700554.85 L 49739800.00 34704994.84 L 49708720.00 34714984.84 L 49682079.99 34730524.83 L 49660434.99 34752724.83 L 49643229.99 34778809.82 L 49632129.98 34804339.82 L 49624914.98 34829314.82 L 49618809.97 34867609.82 L 49618254.96 34912564.82 L 49622694.96 34945309.82 A 172640.38 172640.38 0 0 0 49668204.94 35040769.83 L 49687629.94 35057974.83 L 49706499.94 35068519.84 L 49729254.93 35076844.84 L 49766439.93 35082949.85 L 49935159.93 35084059.88 L 49935160.00 34699999.88  zM 49884099.94 35038549.87 L 49795299.94 35038549.85 L 49763109.94 35035774.84 L 49739244.94 35030779.84 L 49718709.94 35019124.84 L 49703169.95 35004694.83 L 49689849.95 34986934.83 L 49678194.95 34959184.83 L 49672089.96 34928659.83 L 49669869.96 34900354.83 L 49673199.97 34852069.83 A 148078.06 148078.06 0 0 1 49708164.99 34772149.84 L 49730364.99 34757164.84 L 49751454.99 34749949.84 L 49780869.99 34746619.85 L 49884099.99 34745509.87 L 49884099.94 35038549.87  z"/>
<path id="N" d="M 49831930.00 33706659.86 L 49680970.00 33707214.83 L 49636570.00 33711654.82 L 49605490.00 33721644.82 L 49578849.99 33737184.81 L 49557204.99 33759384.81 L 49539999.99 33785469.81 L 49528899.98 33810999.80 L 49521684.98 33835974.80 L 49515579.97 33874269.80 L 49515024.96 33919224.80 L 49519464.96 33951969.80 A 172640.38 172640.38 0 0 0 49564974.94 34047429.81 L 49584399.94 34064634.81 L 49603269.94 34075179.82 L 49626024.93 34083504.82 L 49663209.93 34089609.83 L 49831929.93 34090719.86 L 49831930.00 33706659.86  zM 49780869.94 34045209.85 L 49692069.94 34045209.83 L 49659879.94 34042434.83 L 49636014.94 34037439.82 L 49615479.94 34025784.82 L 49599939.95 34011354.82 L 49586619.95 33993594.81 L 49574964.95 33965844.81 L 49568859.96 33935319.81 L 49566639.96 33907014.81 L 49569969.97 33858729.81 A 148078.06 148078.06 0 0 1 49604934.99 33778809.82 L 49627134.99 33763824.82 L 49648224.99 33756609.82 L 49677639.99 33753279.83 L 49780869.99 33752169.85 L 49780869.94 34045209.85  z"/>
<path id="N" d="M 49905190.00 35799999.87 L 49754230.00 35800554.84 L 49709830.00 35804994.84 L 49678750.00 35814984.83 L 49652109.99 35830524.83 L 49630464.99 35852724.82 L 49613259.99 35878809.82 L 49602159.98 35904339.82 L 49594944.98 35929314.82 L 49588839.97 35967609.81 L 49588284.96 36012564.81 L 49592724.96 36045309.82 A 172640.38 172640.38 0 0 0 49638234.94 36140769.82 L 49657659.94 36157974.83 L 49676529.94 36168519.83 L 49699284.93 36176844.83 L 49736469.93 36182949.84 L 49905189.93 36184059.87 L 49905190.00 35799999.87  zM 49854129.94 36138549.86 L 49765329.94 36138549.85 L 49733139.94 36135774.84 L 49709274.94 36130779.84 L 49688739.94 36119124.83 L 49673199.95 36104694.83 L 49659879.95 36086934.83 L 49648224.95 36059184.82 L 49642119.96 36028659.82 L 49639899.96 36000354.82 L 49643229.97 35952069.82 A 148078.06 148078.06 0 0 1 49678194.99 35872149.83 L 49700394.99 35857164.83 L 49721484.99 35849949.84 L 49750899.99 35846619.84 L 49854129.99 35845509.86 L 49854129.94 36138549.86  z"/>
<path id="N" d="M 41163068.00 35689331.00 L 41229713.00 35656009.00 L 41235339.00 35651953.00 L 41301984.00 35585309.00 L 41308325.00 35570001.00 L 41308325.00 35503356.00 L 41301984.00 35488049.00 L 41268661.00 35454725.00 L 41253354.00 35448385.00 L 41186709.00 35448385.00 L 41171401.00 35454726.00 L 41138079.00 35488049.00 L 41131739.00 35503356.00 L 41131739.00 35536678.00 L 41138079.00 35551985.00 L 41171401.00 35585308.00 L 41186709.00 35591649.00 L 41234414.55 35591649.00 L 41207210.97 35618852.99 L 41143706.00 35650605.00 L 41132851.00 35663122.00 L 41134024.00 35679649.00 L 41146541.00 35690504.00 L 41163068.00 35689331.00  zM 41265029.00 35548353.00 L 41195676.19 35548353.00 L 41175035.00 35527711.19 L 41175035.00 35512322.81 L 41195676.19 35491681.00 L 41244387.19 35491681.00 L 41265029.00 35512322.19 L 41265029.00 35548353.00  z"/>
<path id="N" d="M 41738596.00 32225276.00 L 41771919.00 32191954.00 L 41778260.00 32176646.00 L 41778260.00 32043356.00 L 41771919.00 32028049.00 L 41738596.00 31994725.00 L 41723289.00 31988385.00 L 41656644.00 31988385.00 L 41641336.00 31994726.00 L 41608014.00 32028049.00 L 41601675.00 32043356.00 L 41608015.00 32058664.00 L 41623322.00 32065003.00 L 41638630.00 32058663.00 L 41665611.19 32031681.00 L 41714322.19 32031681.00 L 41734964.00 32052322.19 L 41734964.00 32167678.81 L 41714322.19 32188320.00 L 41665610.81 32188320.00 L 41638629.00 32161339.00 L 41623322.00 32154999.00 L 41608015.00 32161339.00 L 41601675.00 32176646.00 L 41608015.00 32191953.00 L 41641336.00 32225275.00 L 41656644.00 32231616.00 L 41723289.00 32231616.00 L 41738596.00 32225276.00  z"/>
<path id="N" d="M 41468596.00 35685276.00 L 41501919.00 35651954.00 L 41508260.00 35636646.00 L 41508260.00 35503356.00 L 41501919.00 35488049.00 L 41468596.00 35454725.00 L 41453289.00 35448385.00 L 41386644.00 35448385.00 L 41371336.00 35454726.00 L 41338014.00 35488049.00 L 41331675.00 35503356.00 L 41338015.00 35518664.00 L 41353322.00 35525003.00 L 41368630.00 35518663.00 L 41395611.19 35491681.00 L 41444322.19 35491681.00 L 41464964.00 35512322.19 L 41464964.00 35627678.81 L 41444322.19 35648320.00 L 41395610.81 35648320.00 L 41368629.00 35621339.00 L 41353322.00 35614999.00 L 41338015.00 35621339.00 L 41331675.00 35636646.00 L 41338015.00 35651953.00 L 41371336.00 35685275.00 L 41386644.00 35691616.00 L 41453289.00 35691616.00 L 41468596.00 35685276.00  z"/>
<path id="N" d="M 41189604.98 29714329.97 L 41193489.99 29684359.97 L 41200149.99 29667709.97 L 41211804.99 29655499.98 L 41225124.99 29648839.98 L 41247324.99 29645509.98 L 41264529.99 29648284.98 L 41277294.99 29653834.99 L 41290614.99 29664934.99 L 41299494.99 29687689.99 L 41303934.98 29721544.99 L 41349999.98 29714885.00 L 41349999.98 29704340.00 L 41346669.99 29677145.00 L 41340009.99 29656055.00 L 41325580.00 29629970.00 L 41307265.00 29615539.99 L 41287840.00 29607214.99 L 41251765.00 29599999.98 L 41223460.00 29602219.98 L 41197375.00 29609434.97 L 41179060.00 29619424.97 L 41165185.00 29632744.97 L 41152974.99 29649394.97 L 41143539.99 29676589.96 L 41139099.98 29712109.96 L 41138544.93 29990719.96 L 41189604.93 29990719.97 L 41189604.98 29714329.97  z"/>
<path id="N" d="M 48956596.00 36003990.53 L 48956596.00 35817465.70 L 48977370.30 35796691.00 L 48985011.30 35796691.00 L 49021638.00 35833317.00 A 54118.22 54118.22 0 0 0 49098175.00 35756780.00 L 49045698.00 35704302.00 L 49007426.59 35688451.00 L 48954953.00 35688450.00 L 48916683.29 35704303.71 L 48864207.00 35756779.00 L 48848356.00 35795050.41 L 48848356.00 36003990.94 A 52958.44 52958.44 0 0 0 48850000.00 36111550.00 L 48954953.00 36111550.00 A 54121.84 54121.84 0 0 0 48956596.00 36003990.53  z"/>
<path id="N" d="M 40851919.00 34435275.00 L 40858260.00 34419968.00 L 40858260.00 34253356.00 L 40851919.00 34238049.00 L 40818596.00 34204725.00 L 40803289.00 34198385.00 L 40736644.00 34198385.00 L 40721336.00 34204726.00 L 40688014.00 34238049.00 L 40681674.00 34253356.00 L 40681674.00 34419968.00 L 40688015.00 34435275.00 L 40703322.00 34441616.00 L 40718629.00 34435275.00 L 40724970.00 34419968.00 L 40724970.00 34262322.81 L 40745611.19 34241681.00 L 40794322.19 34241681.00 L 40814964.00 34262322.19 L 40814964.00 34419968.00 L 40821305.00 34435275.00 L 40836612.00 34441616.00 L 40851919.00 34435275.00  z"/>
<path id="N" d="M 40817655.00 30262664.92 L 40835415.01 30217154.93 L 40845960.01 30204944.93 L 40859280.01 30197729.93 L 40876485.01 30195509.93 L 40903125.01 30199949.94 L 40898130.02 30156104.94 L 40877040.02 30150554.93 A 74222.71 74222.71 0 0 0 40823205.02 30165539.93 L 40805445.01 30187184.92 L 40787685.01 30222704.92 L 40667804.95 30541274.90 L 40714979.95 30541274.91 L 40774919.98 30378659.92 L 40794899.99 30315389.92 L 40801559.99 30339809.92 L 40873154.95 30541274.93 L 40923104.95 30541274.94 L 40817655.00 30262664.92  z"/>
<path id="N" d="M 50159885.00 32756659.92 L 50106605.00 32756659.91 L 50025574.95 33049144.90 L 50014474.94 33092989.90 L 49921235.00 32756659.88 L 49871285.00 32756659.87 L 49765834.93 33140719.85 L 49817449.93 33140719.86 L 49877389.98 32893744.87 L 49896259.99 32811604.88 L 49912909.98 32891524.88 L 49981729.93 33140719.89 L 50043334.93 33140719.90 L 50116039.98 32880979.92 L 50133799.99 32809939.92 L 50136574.99 32824369.92 L 50207614.93 33140719.93 L 50260339.93 33140719.94 L 50159885.00 32756659.92  z"/>
<path id="N" d="M 48730839.71 36095697.29 L 48783315.00 36043223.00 A 54117.01 54117.01 0 0 0 48746690.00 35951513.22 L 48746690.00 35796010.47 A 52959.15 52959.15 0 0 0 48745047.00 35688451.00 L 48640094.00 35688451.00 A 54118.70 54118.70 0 0 0 48638450.00 35796010.06 L 48638449.00 36057429.00 A 54122.11 54122.11 0 0 0 48730839.71 36095697.29  z"/>
<path id="N" d="M 50166153.00 31660733.92 L 50112873.00 31660733.91 L 50031842.95 31953218.90 L 50020742.94 31997063.90 L 49927503.00 31660733.88 L 49877553.00 31660733.87 L 49772102.93 32044793.85 L 49823717.93 32044793.86 L 49883657.98 31797818.87 L 49902527.99 31715678.88 L 49919177.98 31795598.88 L 49987997.93 32044793.89 L 50049602.93 32044793.90 L 50122307.98 31785053.92 L 50140067.99 31714013.92 L 50142842.99 31728443.92 L 50213882.93 32044793.93 L 50266607.93 32044793.94 L 50166153.00 31660733.92  z"/>
<path id="N" d="M 42267339.00 34146788.00 L 42278435.00 34120000.00 L 42278435.00 33670000.00 L 42267339.00 33643212.00 L 42240551.00 33632116.00 L 41059449.00 33632116.00 L 41032661.00 33643212.00 L 41021565.00 33670000.00 L 41021565.00 34120000.00 L 41032661.00 34146788.00 L 41059449.00 34157884.00 L 42240551.00 34157884.00 L 42267339.00 34146788.00  zM 42202667.00 34082116.00 L 41097333.00 34082116.00 L 41097333.00 33707884.00 L 42202667.00 33707884.00 L 42202667.00 34082116.00  z"/>
<path id="N" d="M 42260007.44 33230007.44 m -81557.07 0 a 81557.07 81557.07 0 1 1 163114.14 0a 81557.07 81557.07 0 1 1 -163114.14 0"/>
<path id="N" d="M 50184354.97 34898689.92 L 50332540.00 34699999.94 L 50271490.00 34699999.93 L 50156049.97 34859839.91 L 50043385.00 34699999.89 L 49980670.00 34699999.88 L 50124414.96 34901464.91 L 49991214.93 35084059.88 L 50046714.93 35084059.89 L 50123304.95 34981939.91 L 50154384.96 34938649.91 L 50162709.96 34952524.91 L 50254839.93 35084059.93 L 50315334.93 35084059.94 L 50184354.97 34898689.92  z"/>
<path id="N" d="M 50154384.97 35998689.91 L 50302570.00 35799999.94 L 50241520.00 35799999.93 L 50126079.97 35959839.91 L 50013415.00 35799999.89 L 49950700.00 35799999.88 L 50094444.96 36001464.90 L 49961244.93 36184059.88 L 50016744.93 36184059.89 L 50093334.95 36081939.90 L 50124414.96 36038649.91 L 50132739.96 36052524.91 L 50224869.93 36184059.93 L 50285364.93 36184059.94 L 50154384.97 35998689.91  z"/>
<path id="N" d="M 40222240.00 29606659.80 L 40171180.00 29606659.79 L 40171179.98 29739859.79 L 40108464.97 29800354.78 L 39971935.00 29606659.76 L 39904780.00 29606659.75 L 40072944.96 29834764.78 L 39911994.93 29990719.75 L 39981369.93 29990719.76 L 40171179.97 29799799.79 L 40171179.93 29990719.79 L 40222239.93 29990719.80 L 40222240.00 29606659.80  z"/>
<path id="N" d="M 38255319.94 29974069.46 L 38280849.94 29945209.46 L 38320254.95 29914684.47 L 38354664.95 29895814.48 L 38354664.96 29850304.48 L 38329689.96 29861404.47 L 38295279.95 29880274.47 L 38260314.95 29906914.46 L 38260315.00 29606659.46 L 38213140.00 29606659.45 L 38213139.93 29992384.45 L 38243664.93 29992384.46 L 38255319.94 29974069.46  z"/>
<path id="N" d="M 40607965.00 29606659.87 L 40559125.00 29606659.86 L 40559124.95 29908024.86 L 40358215.00 29606659.83 L 40305490.00 29606659.82 L 40305489.93 29990719.82 L 40354329.93 29990719.83 L 40354329.99 29688799.83 L 40555794.93 29990719.86 L 40607964.93 29990719.87 L 40607965.00 29606659.87  z"/>
<path id="N" d="M 41680133.00 35248243.00 L 41692614.00 35218110.00 L 41692614.00 34981890.00 L 41680133.00 34951757.00 L 41650000.00 34939276.00 L 41619867.00 34951757.00 L 41607386.00 34981890.00 L 41607386.00 35218110.00 L 41619867.00 35248243.00 L 41650000.00 35260724.00 L 41680133.00 35248243.00  z"/>
<path id="N" d="M 50219875.00 33706659.92 L 50171035.00 33706659.92 L 50171034.95 34008024.92 L 49970125.00 33706659.88 L 49917400.00 33706659.87 L 49917399.93 34090719.87 L 49966239.93 34090719.88 L 49966239.99 33788799.88 L 50167704.93 34090719.92 L 50219874.93 34090719.92 L 50219875.00 33706659.92  z"/>
<path id="N" d="M 38620510.00 29606659.52 L 38567230.00 29606659.51 L 38417379.93 29990719.49 L 38468994.93 29990719.50 L 38573334.98 29711554.51 L 38593869.99 29648839.52 L 38603859.99 29681584.52 L 38713749.93 29990719.54 L 38769249.93 29990719.55 L 38620510.00 29606659.52  z"/>
<path id="N" d="M 50451260.00 30706659.97 L 50397980.00 30706659.96 L 50248129.93 31090719.94 L 50299744.93 31090719.95 L 50404084.98 30811554.97 L 50424619.99 30748839.97 L 50434609.99 30781584.97 L 50544499.93 31090719.99 L 50599999.93 31090720.00 L 50451260.00 30706659.97  z"/>
<path id="N" d="M 50649999.94 35038550.00 L 50523459.94 35038549.98 L 50523460.00 34699999.98 L 50472400.00 34699999.97 L 50472399.94 35038549.97 L 50345859.94 35038549.95 L 50345859.93 35084059.95 L 50649999.93 35084060.00 L 50649999.94 35038550.00  z"/>
<path id="N" d="M 42044016.66 33790000.00 m -64942.34 0 a 64942.34 64942.34 0 1 1 129884.69 0a 64942.34 64942.34 0 1 1 -129884.69 0"/>
<path id="N" d="M 41057515.00 29606659.95 L 40817200.00 29606659.91 L 40817199.99 29652169.91 L 41006454.99 29652169.94 L 41006454.93 29990719.94 L 41057514.93 29990719.95 L 41057515.00 29606659.95  z"/>
<path id="N" d="M 39887019.98 29722099.74 L 39741054.98 29722099.72 L 39741054.97 29769274.72 L 39887019.97 29769274.74 L 39887019.98 29722099.74  z"/>
<path id="N" d="M 40748380.00 29606659.89 L 40697320.00 29606659.89 L 40697319.93 29990719.89 L 40748379.93 29990719.89 L 40748380.00 29606659.89  z"/>
<path id="N" d="M 38932974.98 29722099.58 L 38787009.98 29722099.55 L 38787009.97 29769274.55 L 38932974.97 29769274.58 L 38932974.98 29722099.58  z"/>
</g>
</svg>
