<svg width="35.00000112mm" height="17.99999956mm" viewBox="0 0 13779528 7086614"  version="1.1" xmlns="http://www.w3.org/2000/svg" xmlns:xlink="http://www.w3.org/1999/xlink">
<desc>
Origin 0 0 Bound 37350000 29300000 13779528 7086614
</desc>
<g fill-rule="evenodd" fill="rgb(128, 0, 128)" stroke="black" stroke-width="1" transform="translate(0, 7086614) scale(1, -1) translate(-37350000, -29300000)">
<path id="N" d="M 51129528.00 35854227.00 L 51129528.00 29832386.00 A 593414.34 593414.34 0 0 0 50597141.00 29300000.00 L 37882386.00 29300000.00 A 593388.45 593388.45 0 0 0 37350000.00 29832386.00 L 37350000.00 35854227.00 A 593388.45 593388.45 0 0 0 37882386.00 36386614.00 L 50597141.00 36386614.00 A 593412.54 593412.54 0 0 0 51129528.00 35854227.00  zM 38305119.00 31497672.00 L 37793307.00 31497672.00 A 298460.45 298460.45 0 0 1 37793307.00 30900756.00 L 38305119.00 30900756.00 A 298460.45 298460.45 0 0 1 38305119.00 31497672.00  zM 37795735.14 31885360.22 m -142752.78 0 a 142752.78 142752.78 0 1 1 285505.57 0a 142752.78 142752.78 0 1 1 -285505.57 0M 38655735.14 31865360.22 m -142752.78 0 a 142752.78 142752.78 0 1 1 285505.57 0a 142752.78 142752.78 0 1 1 -285505.57 0M 39175238.00 31551576.00 L 39175238.00 31413780.00 A 100353.26 100353.26 0 0 1 39375944.00 31413780.00 L 39375944.00 31551576.00 A 100353.26 100353.26 0 1 1 39175238.00 31551576.00  zM 39827264.00 31964075.00 L 39538878.00 31964075.00 L 39498094.00 31947182.00 L 39481201.00 31906398.00 L 39481201.00 31826674.00 L 39498094.00 31785890.00 L 39538878.00 31768997.00 L 39827264.00 31768997.00 L 39868048.00 31785890.00 L 39884941.00 31826674.00 L 39884941.00 31906398.00 L 39868048.00 31947182.00 L 39827264.00 31964075.00  zM 40253819.00 30286850.00 L 39858859.00 30286850.00 L 39858859.00 29813150.00 L 40253819.00 29813150.00 L 40253819.00 30286850.00  zM 39540006.00 31415748.00 L 39540006.00 31218898.00 L 39542923.45 31204230.74 L 39542263.00 31199214.00 A 278596.85 278596.85 0 0 1 39820866.00 30920611.00 L 40253938.00 30920611.00 A 278596.85 278596.85 0 1 1 40253938.00 31477817.00 L 40010639.90 31477817.00 L 40004604.00 31508162.00 A 241496.63 241496.63 0 0 1 39540006.00 31415748.00  zM 39827264.00 32160925.00 L 39538878.00 32160925.00 L 39498094.00 32144032.00 L 39481201.00 32103248.00 L 39481201.00 32023524.00 L 39498094.00 31982740.00 L 39538878.00 31965847.00 L 39827264.00 31965847.00 L 39868048.00 31982740.00 L 39884941.00 32023524.00 L 39884941.00 32103248.00 L 39868048.00 32144032.00 L 39827264.00 32160925.00  zM 39827264.00 32357775.00 L 39538878.00 32357775.00 L 39498094.00 32340882.00 L 39481201.00 32300098.00 L 39481201.00 32220374.00 L 39498094.00 32179590.00 L 39538878.00 32162697.00 L 39827264.00 32162697.00 L 39868048.00 32179590.00 L 39884941.00 32220374.00 L 39884941.00 32300098.00 L 39868048.00 32340882.00 L 39827264.00 32357775.00  zM 39827264.00 32554626.00 L 39538878.00 32554626.00 L 39498094.00 32537733.00 L 39481201.00 32496949.00 L 39481201.00 32417225.00 L 39498094.00 32376441.00 L 39538878.00 32359548.00 L 39827264.00 32359548.00 L 39868048.00 32376441.00 L 39884941.00 32417225.00 L 39884941.00 32496949.00 L 39868048.00 32537733.00 L 39827264.00 32554626.00  zM 37805735.14 32495360.22 m -142752.78 0 a 142752.78 142752.78 0 1 1 285505.57 0a 142752.78 142752.78 0 1 1 -285505.57 0M 38515735.14 32485360.22 m -142752.78 0 a 142752.78 142752.78 0 1 1 285505.57 0a 142752.78 142752.78 0 1 1 -285505.57 0M 39300003.14 32749990.22 m -142752.78 0 a 142752.78 142752.78 0 1 1 285505.57 0a 142752.78 142752.78 0 1 1 -285505.57 0M 39827264.00 32751476.00 L 39538878.00 32751476.00 L 39498094.00 32734583.00 L 39481201.00 32693799.00 L 39481201.00 32614075.00 L 39498094.00 32573291.00 L 39538878.00 32556398.00 L 39827264.00 32556398.00 L 39868048.00 32573291.00 L 39884941.00 32614075.00 L 39884941.00 32693799.00 L 39868048.00 32734583.00 L 39827264.00 32751476.00  zM 39827264.00 33145177.00 L 39538878.00 33145177.00 L 39498094.00 33128284.00 L 39481201.00 33087500.00 L 39481201.00 33007776.00 L 39498094.00 32966992.00 L 39538878.00 32950099.00 L 39827264.00 32950099.00 L 39868048.00 32966992.00 L 39884941.00 33007776.00 L 39884941.00 33087500.00 L 39868048.00 33128284.00 L 39827264.00 33145177.00  zM 39827264.00 32948327.00 L 39538878.00 32948327.00 L 39498094.00 32931434.00 L 39481201.00 32890650.00 L 39481201.00 32810926.00 L 39498094.00 32770142.00 L 39538878.00 32753249.00 L 39827264.00 32753249.00 L 39868048.00 32770142.00 L 39884941.00 32810926.00 L 39884941.00 32890650.00 L 39868048.00 32931434.00 L 39827264.00 32948327.00  zM 40476870.00 32849902.00 L 40149114.00 32849902.00 L 40108330.00 32833009.00 L 40091437.00 32792225.00 L 40091437.00 32712501.00 L 40108330.00 32671717.00 L 40149114.00 32654824.00 L 40476870.00 32654824.00 L 40517654.00 32671717.00 L 40534547.00 32712501.00 L 40534547.00 32792225.00 L 40517654.00 32833009.00 L 40476870.00 32849902.00  zM 40476870.00 32653051.00 L 40149114.00 32653051.00 L 40108330.00 32636158.00 L 40091437.00 32595374.00 L 40091437.00 32515650.00 L 40108330.00 32474866.00 L 40149114.00 32457973.00 L 40476870.00 32457973.00 L 40517654.00 32474866.00 L 40534547.00 32515650.00 L 40534547.00 32595374.00 L 40517654.00 32636158.00 L 40476870.00 32653051.00  zM 40476870.00 33046752.00 L 40149114.00 33046752.00 L 40108330.00 33029859.00 L 40091437.00 32989075.00 L 40091437.00 32909351.00 L 40108330.00 32868567.00 L 40149114.00 32851674.00 L 40476870.00 32851674.00 L 40517654.00 32868567.00 L 40534547.00 32909351.00 L 40534547.00 32989075.00 L 40517654.00 33029859.00 L 40476870.00 33046752.00  zM 37775735.14 33195360.22 m -142752.78 0 a 142752.78 142752.78 0 1 1 285505.57 0a 142752.78 142752.78 0 1 1 -285505.57 0M 37815735.14 33855360.22 m -142752.78 0 a 142752.78 142752.78 0 1 1 285505.57 0a 142752.78 142752.78 0 1 1 -285505.57 0M 38485735.14 33165360.22 m -142752.78 0 a 142752.78 142752.78 0 1 1 285505.57 0a 142752.78 142752.78 0 1 1 -285505.57 0M 38305119.00 34899246.00 L 37793307.00 34899246.00 A 298460.45 298460.45 0 0 1 37793307.00 34302330.00 L 38305119.00 34302330.00 A 298460.45 298460.45 0 0 1 38305119.00 34899246.00  zM 38650003.14 33859990.22 m -142752.78 0 a 142752.78 142752.78 0 1 1 285505.57 0a 142752.78 142752.78 0 1 1 -285505.57 0M 39300003.14 33099990.22 m -142752.78 0 a 142752.78 142752.78 0 1 1 285505.57 0a 142752.78 142752.78 0 1 1 -285505.57 0M 39827264.00 33735728.00 L 39538878.00 33735728.00 L 39498094.00 33718835.00 L 39481201.00 33678051.00 L 39481201.00 33598327.00 L 39498094.00 33557543.00 L 39538878.00 33540650.00 L 39827264.00 33540650.00 L 39868048.00 33557543.00 L 39884941.00 33598327.00 L 39884941.00 33678051.00 L 39868048.00 33718835.00 L 39827264.00 33735728.00  zM 39250002.46 34317316.27 m -120431.73 0 a 120431.73 120431.73 0 1 1 240863.46 0a 120431.73 120431.73 0 1 1 -240863.46 0M 39827264.00 33932579.00 L 39538878.00 33932579.00 L 39498094.00 33915686.00 L 39481201.00 33874902.00 L 39481201.00 33795178.00 L 39498094.00 33754394.00 L 39538878.00 33737501.00 L 39827264.00 33737501.00 L 39868048.00 33754394.00 L 39884941.00 33795178.00 L 39884941.00 33874902.00 L 39868048.00 33915686.00 L 39827264.00 33932579.00  zM 39827264.00 33342027.00 L 39538878.00 33342027.00 L 39498094.00 33325134.00 L 39481201.00 33284350.00 L 39481201.00 33204626.00 L 39498094.00 33163842.00 L 39538878.00 33146949.00 L 39827264.00 33146949.00 L 39868048.00 33163842.00 L 39884941.00 33204626.00 L 39884941.00 33284350.00 L 39868048.00 33325134.00 L 39827264.00 33342027.00  zM 39827264.00 33538878.00 L 39538878.00 33538878.00 L 39498094.00 33521985.00 L 39481201.00 33481201.00 L 39481201.00 33401477.00 L 39498094.00 33360693.00 L 39538878.00 33343800.00 L 39827264.00 33343800.00 L 39868048.00 33360693.00 L 39884941.00 33401477.00 L 39884941.00 33481201.00 L 39868048.00 33521985.00 L 39827264.00 33538878.00  zM 40476870.00 33440453.00 L 40149114.00 33440453.00 L 40108330.00 33423560.00 L 40091437.00 33382776.00 L 40091437.00 33303052.00 L 40108330.00 33262268.00 L 40149114.00 33245375.00 L 40476870.00 33245375.00 L 40517654.00 33262268.00 L 40534547.00 33303052.00 L 40534547.00 33382776.00 L 40517654.00 33423560.00 L 40476870.00 33440453.00  zM 40476870.00 33243602.00 L 40149114.00 33243602.00 L 40108330.00 33226709.00 L 40091437.00 33185925.00 L 40091437.00 33106201.00 L 40108330.00 33065417.00 L 40149114.00 33048524.00 L 40476870.00 33048524.00 L 40517654.00 33065417.00 L 40534547.00 33106201.00 L 40534547.00 33185925.00 L 40517654.00 33226709.00 L 40476870.00 33243602.00  zM 40476870.00 33637303.00 L 40149114.00 33637303.00 L 40108330.00 33620410.00 L 40091437.00 33579626.00 L 40091437.00 33499902.00 L 40108330.00 33459118.00 L 40149114.00 33442225.00 L 40476870.00 33442225.00 L 40517654.00 33459118.00 L 40534547.00 33499902.00 L 40534547.00 33579626.00 L 40517654.00 33620410.00 L 40476870.00 33637303.00  zM 39827264.00 34129429.00 L 39538878.00 34129429.00 L 39498094.00 34112536.00 L 39481201.00 34071752.00 L 39481201.00 33992028.00 L 39498094.00 33951244.00 L 39538878.00 33934351.00 L 39827264.00 33934351.00 L 39868048.00 33951244.00 L 39884941.00 33992028.00 L 39884941.00 34071752.00 L 39868048.00 34112536.00 L 39827264.00 34129429.00  zM 40476870.00 34031004.00 L 40149114.00 34031004.00 L 40108330.00 34014111.00 L 40091437.00 33973327.00 L 40091437.00 33893603.00 L 40108330.00 33852819.00 L 40149114.00 33835926.00 L 40476870.00 33835926.00 L 40517654.00 33852819.00 L 40534547.00 33893603.00 L 40534547.00 33973327.00 L 40517654.00 34014111.00 L 40476870.00 34031004.00  zM 40253938.00 34879391.00 L 39820866.00 34879391.00 A 278596.85 278596.85 0 0 1 39542263.00 34600788.00 L 39542923.61 34595770.05 L 39540006.00 34581102.00 L 39540006.00 34384252.00 A 241485.30 241485.30 0 0 1 40004604.00 34291838.00 L 40010640.30 34322185.00 L 40253938.00 34322185.00 A 278596.85 278596.85 0 0 1 40253938.00 34879391.00  zM 40215000.00 35755000.00 L 39905000.00 35755000.00 L 39905000.00 35445000.00 L 40215000.00 35445000.00 L 40215000.00 35755000.00  zM 40844370.00 30286850.00 L 40449410.00 30286850.00 L 40449410.00 29813150.00 L 40844370.00 29813150.00 L 40844370.00 30286850.00  zM 41582677.00 30207480.00 L 41267717.00 30207480.00 L 41267717.00 29892520.00 L 41582677.00 29892520.00 L 41582677.00 30207480.00  zM 41042519.00 31907480.00 L 40727559.00 31907480.00 L 40727559.00 31592520.00 L 41042519.00 31592520.00 L 41042519.00 31907480.00  zM 40476870.00 31865650.00 L 40149114.00 31865650.00 L 40108330.00 31848757.00 L 40091437.00 31807973.00 L 40091437.00 31728249.00 L 40108330.00 31687465.00 L 40149114.00 31670572.00 L 40476870.00 31670572.00 L 40517654.00 31687465.00 L 40534547.00 31728249.00 L 40534547.00 31807973.00 L 40517654.00 31848757.00 L 40476870.00 31865650.00  zM 40476870.00 32062500.00 L 40149114.00 32062500.00 L 40108330.00 32045607.00 L 40091437.00 32004823.00 L 40091437.00 31925099.00 L 40108330.00 31884315.00 L 40149114.00 31867422.00 L 40476870.00 31867422.00 L 40517654.00 31884315.00 L 40534547.00 31925099.00 L 40534547.00 32004823.00 L 40517654.00 32045607.00 L 40476870.00 32062500.00  zM 40476870.00 32259350.00 L 40149114.00 32259350.00 L 40108330.00 32242457.00 L 40091437.00 32201673.00 L 40091437.00 32121949.00 L 40108330.00 32081165.00 L 40149114.00 32064272.00 L 40476870.00 32064272.00 L 40517654.00 32081165.00 L 40534547.00 32121949.00 L 40534547.00 32201673.00 L 40517654.00 32242457.00 L 40476870.00 32259350.00  zM 40476870.00 32456201.00 L 40149114.00 32456201.00 L 40108330.00 32439308.00 L 40091437.00 32398524.00 L 40091437.00 32318800.00 L 40108330.00 32278016.00 L 40149114.00 32261123.00 L 40476870.00 32261123.00 L 40517654.00 32278016.00 L 40534547.00 32318800.00 L 40534547.00 32398524.00 L 40517654.00 32439308.00 L 40476870.00 32456201.00  zM 40700003.14 32349990.22 m -142752.78 0 a 142752.78 142752.78 0 1 1 285505.57 0a 142752.78 142752.78 0 1 1 -285505.57 0M 41300003.14 32169990.22 m -142752.78 0 a 142752.78 142752.78 0 1 1 285505.57 0a 142752.78 142752.78 0 1 1 -285505.57 0M 42232283.00 30207480.00 L 41917323.00 30207480.00 L 41917323.00 29892520.00 L 42232283.00 29892520.00 L 42232283.00 30207480.00  zM 42470003.14 30049990.22 m -142752.78 0 a 142752.78 142752.78 0 1 1 285505.57 0a 142752.78 142752.78 0 1 1 -285505.57 0M 42480945.00 31927008.00 L 42026929.00 31927008.00 L 42026929.00 31472992.00 L 42480945.00 31472992.00 L 42480945.00 31927008.00  zM 41672441.00 31907480.00 L 41357481.00 31907480.00 L 41357481.00 31592520.00 L 41672441.00 31592520.00 L 41672441.00 31688912.37 L 41699065.00 31649065.00 A 142752.78 142752.78 0 1 1 41699065.00 31850935.00 L 41672441.00 31811087.63 L 41672441.00 31907480.00  zM 42973071.00 31927008.00 L 42519055.00 31927008.00 L 42519055.00 31472992.00 L 42973071.00 31472992.00 L 42973071.00 31927008.00  zM 42402205.00 32606797.00 L 42007245.00 32606797.00 L 42007245.00 32133097.00 L 42402205.00 32133097.00 L 42402205.00 32606797.00  zM 42992756.00 32606797.00 L 42597796.00 32606797.00 L 42597796.00 32133097.00 L 42992756.00 32133097.00 L 42992756.00 32606797.00  zM 43894843.00 32307884.00 L 43296183.00 32307884.00 A 96859.64 96859.64 0 0 1 43296183.00 32114162.00 L 43894843.00 32114162.00 A 96859.64 96859.64 0 0 1 43894843.00 32307884.00  zM 43894843.00 31914183.00 L 43296183.00 31914183.00 A 96859.64 96859.64 0 0 1 43296183.00 31720461.00 L 43894843.00 31720461.00 A 96859.64 96859.64 0 0 1 43894843.00 31914183.00  zM 40907086.00 32991769.00 L 40781102.00 32991769.00 L 40735421.00 32972847.00 L 40716499.00 32927166.00 L 40716499.00 32887796.00 L 40735421.00 32842115.00 L 40767709.37 32828740.50 L 40735421.00 32815366.00 L 40716499.00 32769685.00 L 40716499.00 32730315.00 L 40735421.00 32684634.00 L 40767708.16 32671260.00 L 40735421.00 32657886.00 L 40716499.00 32612205.00 L 40716499.00 32572835.00 L 40735421.00 32527154.00 L 40781102.00 32508232.00 L 40907086.00 32508232.00 L 40952767.00 32527154.00 L 40971689.00 32572835.00 L 40971689.00 32612205.00 L 40952767.00 32657886.00 L 40920479.84 32671260.00 L 40952767.00 32684634.00 L 40971689.00 32730315.00 L 40971689.00 32769685.00 L 40952767.00 32815366.00 L 40920478.63 32828740.50 L 40952767.00 32842115.00 L 40971689.00 32887796.00 L 40971689.00 32927166.00 L 40952767.00 32972847.00 L 40907086.00 32991769.00  zM 41162992.00 32991769.00 L 41037008.00 32991769.00 L 40991327.00 32972847.00 L 40972405.00 32927166.00 L 40972405.00 32887796.00 L 40991327.00 32842115.00 L 41023615.37 32828740.50 L 40991327.00 32815366.00 L 40972405.00 32769685.00 L 40972405.00 32730315.00 L 40991327.00 32684634.00 L 41023614.16 32671260.00 L 40991327.00 32657886.00 L 40972405.00 32612205.00 L 40972405.00 32572835.00 L 40991327.00 32527154.00 L 41037008.00 32508232.00 L 41162992.00 32508232.00 L 41208673.00 32527154.00 L 41227595.00 32572835.00 L 41227595.00 32612205.00 L 41208673.00 32657886.00 L 41176385.84 32671260.00 L 41208673.00 32684634.00 L 41227595.00 32730315.00 L 41227595.00 32769685.00 L 41208673.00 32815366.00 L 41176384.63 32828740.50 L 41208673.00 32842115.00 L 41227595.00 32887796.00 L 41227595.00 32927166.00 L 41208673.00 32972847.00 L 41162992.00 32991769.00  zM 40850003.14 33149990.22 m -142752.78 0 a 142752.78 142752.78 0 1 1 285505.57 0a 142752.78 142752.78 0 1 1 -285505.57 0M 40476870.00 33834154.00 L 40149114.00 33834154.00 L 40108330.00 33817261.00 L 40091437.00 33776477.00 L 40091437.00 33696753.00 L 40108330.00 33655969.00 L 40149114.00 33639076.00 L 40476870.00 33639076.00 L 40517654.00 33655969.00 L 40534547.00 33696753.00 L 40534547.00 33776477.00 L 40517654.00 33817261.00 L 40476870.00 33834154.00  zM 41077558.00 34457480.00 L 40762598.00 34457480.00 L 40762598.00 34142520.00 L 41077558.00 34142520.00 L 41077558.00 34457480.00  zM 40805000.00 35755000.00 L 40495000.00 35755000.00 L 40495000.00 35445000.00 L 40805000.00 35445000.00 L 40805000.00 35755000.00  zM 41623306.00 35836850.00 L 41228346.00 35836850.00 L 41228346.00 35363150.00 L 41623306.00 35363150.00 L 41623306.00 35836850.00  zM 41707480.00 34457480.00 L 41392520.00 34457480.00 L 41392520.00 34142520.00 L 41707480.00 34142520.00 L 41707480.00 34457480.00  zM 42213857.00 35836850.00 L 41818897.00 35836850.00 L 41818897.00 35363150.00 L 42213857.00 35363150.00 L 42213857.00 35836850.00  zM 42441575.00 33286588.00 L 42007245.00 33286588.00 L 42007245.00 32793202.00 L 42441575.00 32793202.00 L 42441575.00 33286588.00  zM 42992756.00 33286588.00 L 42558426.00 33286588.00 L 42558426.00 32793202.00 L 42656566.05 32793202.00 L 42658123.00 32785375.00 A 142729.17 142729.17 0 0 1 42921877.00 32785375.00 L 42923433.95 32793202.00 L 42992756.00 32793202.00 L 42992756.00 33286588.00  zM 42441575.00 33946693.00 L 42007245.00 33946693.00 L 42007245.00 33453307.00 L 42441575.00 33453307.00 L 42441575.00 33946693.00  zM 43894843.00 32701585.00 L 43296183.00 32701585.00 A 96859.64 96859.64 0 0 1 43296183.00 32507863.00 L 43894843.00 32507863.00 A 96859.64 96859.64 0 0 1 43894843.00 32701585.00  zM 43894843.00 33685837.00 L 43296183.00 33685837.00 A 96859.64 96859.64 0 0 1 43296183.00 33492115.00 L 43894843.00 33492115.00 A 96859.64 96859.64 0 0 1 43894843.00 33685837.00  zM 42638123.00 33954625.00 L 42636545.17 33946693.00 L 42558426.00 33946693.00 L 42558426.00 33453307.00 L 42992756.00 33453307.00 L 42992756.00 33946693.00 L 42903454.83 33946693.00 L 42901877.00 33954625.00 A 142729.17 142729.17 0 0 1 42638123.00 33954625.00  zM 43894843.00 34079537.00 L 43296183.00 34079537.00 A 96859.64 96859.64 0 0 1 43296183.00 33885815.00 L 43894843.00 33885815.00 A 96859.64 96859.64 0 0 1 43894843.00 34079537.00  zM 42748651.00 35778740.00 L 42748651.00 35621260.00 A 201348.87 201348.87 0 1 1 43151349.00 35621260.00 L 43151349.00 35778740.00 A 201348.87 201348.87 0 0 1 42748651.00 35778740.00  zM 43248651.00 35778740.00 L 43248651.00 35621260.00 A 201348.87 201348.87 0 1 1 43651349.00 35621260.00 L 43651349.00 35778740.00 A 201348.87 201348.87 0 0 1 43248651.00 35778740.00  zM 44020463.00 31594841.00 L 44020463.00 30996181.00 A 96859.64 96859.64 0 0 1 44214185.00 30996181.00 L 44214185.00 31594841.00 A 96859.64 96859.64 0 0 1 44020463.00 31594841.00  zM 43894843.00 32111033.00 L 43296183.00 32111033.00 A 96859.64 96859.64 0 0 1 43296183.00 31917311.00 L 43894843.00 31917311.00 A 96859.64 96859.64 0 0 1 43894843.00 32111033.00  zM 44217313.00 31594841.00 L 44217313.00 30996181.00 A 96859.64 96859.64 0 0 1 44411035.00 30996181.00 L 44411035.00 31594841.00 A 96859.64 96859.64 0 0 1 44217313.00 31594841.00  zM 43894843.00 32504734.00 L 43296183.00 32504734.00 A 96859.64 96859.64 0 0 1 43296183.00 32311012.00 L 43894843.00 32311012.00 A 96859.64 96859.64 0 0 1 43894843.00 32504734.00  zM 43894843.00 32898435.00 L 43296183.00 32898435.00 A 96859.64 96859.64 0 0 1 43296183.00 32704713.00 L 43894843.00 32704713.00 A 96859.64 96859.64 0 0 1 43894843.00 32898435.00  zM 44414163.00 31594841.00 L 44414163.00 30996181.00 A 96859.64 96859.64 0 0 1 44607885.00 30996181.00 L 44607885.00 31594841.00 A 96859.64 96859.64 0 1 1 44414163.00 31594841.00  zM 44611013.00 31594841.00 L 44611013.00 30996181.00 A 96859.64 96859.64 0 0 1 44804735.00 30996181.00 L 44804735.00 31594841.00 A 96859.64 96859.64 0 1 1 44611013.00 31594841.00  zM 45004715.00 31594841.00 L 45004715.00 30996181.00 A 96859.64 96859.64 0 0 1 45198437.00 30996181.00 L 45198437.00 31594841.00 A 96859.64 96859.64 0 0 1 45004715.00 31594841.00  zM 44807865.00 31594841.00 L 44807865.00 30996181.00 A 96859.64 96859.64 0 0 1 45001587.00 30996181.00 L 45001587.00 31594841.00 A 96859.64 96859.64 0 0 1 44807865.00 31594841.00  zM 44770003.14 32499990.22 m -142752.78 0 a 142752.78 142752.78 0 1 1 285505.57 0a 142752.78 142752.78 0 1 1 -285505.57 0M 45676220.00 30527008.00 L 45222204.00 30527008.00 L 45222204.00 30072992.00 L 45676220.00 30072992.00 L 45676220.00 30527008.00  zM 46168346.00 30527008.00 L 45714330.00 30527008.00 L 45714330.00 30072992.00 L 46168346.00 30072992.00 L 46168346.00 30527008.00  zM 45960003.14 30689990.22 m -142752.78 0 a 142752.78 142752.78 0 1 1 285505.57 0a 142752.78 142752.78 0 1 1 -285505.57 0M 45792117.00 31594841.00 L 45792117.00 30996181.00 A 96859.64 96859.64 0 0 1 45985839.00 30996181.00 L 45985839.00 31594841.00 A 96859.64 96859.64 0 1 1 45792117.00 31594841.00  zM 45398416.00 31594841.00 L 45398416.00 30996181.00 A 96859.64 96859.64 0 0 1 45592138.00 30996181.00 L 45592138.00 31594841.00 A 96859.64 96859.64 0 0 1 45398416.00 31594841.00  zM 45201565.00 31594841.00 L 45201565.00 30996181.00 A 96859.64 96859.64 0 0 1 45395287.00 30996181.00 L 45395287.00 31594841.00 A 96859.64 96859.64 0 0 1 45201565.00 31594841.00  zM 45988967.00 31594841.00 L 45988967.00 30996181.00 A 96859.64 96859.64 0 0 1 46182689.00 30996181.00 L 46182689.00 31594841.00 A 96859.64 96859.64 0 1 1 45988967.00 31594841.00  zM 45595267.00 31594841.00 L 45595267.00 30996181.00 A 96859.64 96859.64 0 0 1 45788989.00 30996181.00 L 45788989.00 31594841.00 A 96859.64 96859.64 0 1 1 45595267.00 31594841.00  zM 45770003.14 32499990.22 m -142752.78 0 a 142752.78 142752.78 0 1 1 285505.57 0a 142752.78 142752.78 0 1 1 -285505.57 0M 43894843.00 33292136.00 L 43296183.00 33292136.00 A 96859.64 96859.64 0 0 1 43296183.00 33098414.00 L 43894843.00 33098414.00 A 96859.64 96859.64 0 0 1 43894843.00 33292136.00  zM 43894843.00 33095285.00 L 43296183.00 33095285.00 A 96859.64 96859.64 0 0 1 43296183.00 32901563.00 L 43894843.00 32901563.00 A 96859.64 96859.64 0 0 1 43894843.00 33095285.00  zM 43894843.00 33488986.00 L 43296183.00 33488986.00 A 96859.64 96859.64 0 0 1 43296183.00 33295264.00 L 43894843.00 33295264.00 A 96859.64 96859.64 0 0 1 43894843.00 33488986.00  zM 43894843.00 33882687.00 L 43296183.00 33882687.00 A 96859.64 96859.64 0 0 1 43296183.00 33688965.00 L 43894843.00 33688965.00 A 96859.64 96859.64 0 0 1 43894843.00 33882687.00  zM 44217313.00 34803817.00 L 44217313.00 34205157.00 A 96859.64 96859.64 0 0 1 44411035.00 34205157.00 L 44411035.00 34803817.00 A 96859.64 96859.64 0 0 1 44217313.00 34803817.00  zM 44020463.00 34803817.00 L 44020463.00 34205157.00 A 96859.64 96859.64 0 0 1 44214185.00 34205157.00 L 44214185.00 34803817.00 A 96859.64 96859.64 0 0 1 44020463.00 34803817.00  zM 43700003.14 34749990.22 m -142752.78 0 a 142752.78 142752.78 0 1 1 285505.57 0a 142752.78 142752.78 0 1 1 -285505.57 0M 43748651.00 35778740.00 L 43748651.00 35621260.00 A 201348.87 201348.87 0 1 1 44151349.00 35621260.00 L 44151349.00 35778740.00 A 201348.87 201348.87 0 0 1 43748651.00 35778740.00  zM 44647480.00 35976220.00 L 44252520.00 35976220.00 L 44252520.00 35423780.00 L 44647480.00 35423780.00 L 44647480.00 35976220.00  zM 44790003.14 33189990.22 m -142752.78 0 a 142752.78 142752.78 0 1 1 285505.57 0a 142752.78 142752.78 0 1 1 -285505.57 0M 45770003.14 33199990.22 m -142752.78 0 a 142752.78 142752.78 0 1 1 285505.57 0a 142752.78 142752.78 0 1 1 -285505.57 0M 44958678.00 34900627.00 L 44962946.05 34879170.88 L 44941793.00 34893305.00 L 44904726.00 34900678.00 L 44867659.00 34893305.00 L 44848700.91 34880637.52 L 44850618.00 34890275.00 A 142752.78 142752.78 0 0 1 44565132.00 34890275.00 L 44567048.93 34880638.29 L 44548092.00 34893305.00 A 96861.77 96861.77 0 0 1 44414164.00 34803817.00 L 44414164.00 34205157.00 A 96859.64 96859.64 0 0 1 44607886.00 34205157.00 L 44607886.00 34788707.93 L 44611014.00 34786617.96 L 44611014.00 34205157.00 A 96859.64 96859.64 0 0 1 44744942.00 34115669.00 L 44763899.16 34128335.86 L 44761982.00 34118698.00 A 142752.78 142752.78 0 1 1 45047468.00 34118698.00 L 45045550.68 34128336.64 L 45064509.00 34115669.00 A 96861.77 96861.77 0 0 1 45169018.67 34135965.52 A 140833.67 140833.67 0 1 1 45432189.17 34133055.69 L 45458210.00 34115669.00 A 96861.77 96861.77 0 0 1 45592138.00 34205157.00 L 45592138.00 34803817.00 A 96859.64 96859.64 0 0 1 45398416.00 34803817.00 L 45398416.00 34205157.00 L 45404208.54 34176035.58 L 45400935.00 34180935.00 L 45391696.78 34187107.51 L 45395287.00 34205157.00 L 45395287.00 34803817.00 A 96859.64 96859.64 0 0 1 45261359.00 34893305.00 L 45239848.43 34878931.99 L 45244164.00 34900627.00 A 142752.78 142752.78 0 0 1 44958678.00 34900627.00  zM 45792117.00 34803817.00 L 45792117.00 34205157.00 A 96859.64 96859.64 0 1 1 45985839.00 34205157.00 L 45985839.00 34803817.00 A 96859.64 96859.64 0 1 1 45792117.00 34803817.00  zM 45595266.00 34803817.00 L 45595266.00 34205157.00 A 96859.64 96859.64 0 0 1 45788988.00 34205157.00 L 45788988.00 34803817.00 A 96859.64 96859.64 0 0 1 45595266.00 34803817.00  zM 45988967.00 34803817.00 L 45988967.00 34205157.00 A 96859.64 96859.64 0 1 1 46182689.00 34205157.00 L 46182689.00 34803817.00 A 96859.64 96859.64 0 1 1 45988967.00 34803817.00  zM 46185817.00 34803817.00 L 46185817.00 34205157.00 A 96859.64 96859.64 0 0 1 46379539.00 34205157.00 L 46379539.00 34803817.00 A 96859.64 96859.64 0 0 1 46185817.00 34803817.00  zM 45730945.00 35777008.00 L 45276929.00 35777008.00 L 45276929.00 35322992.00 L 45730945.00 35322992.00 L 45730945.00 35777008.00  zM 46223071.00 35777008.00 L 45769055.00 35777008.00 L 45769055.00 35322992.00 L 46223071.00 35322992.00 L 46223071.00 35777008.00  zM 46997480.00 30536850.00 L 46602520.00 30536850.00 L 46602520.00 30063150.00 L 46997480.00 30063150.00 L 46997480.00 30536850.00  zM 46380003.14 30709990.22 m -142752.78 0 a 142752.78 142752.78 0 1 1 285505.57 0a 142752.78 142752.78 0 1 1 -285505.57 0M 47588031.00 30536850.00 L 47193071.00 30536850.00 L 47193071.00 30063150.00 L 47588031.00 30063150.00 L 47588031.00 30536850.00  zM 46185817.00 31594841.00 L 46185817.00 30996181.00 A 96859.64 96859.64 0 0 1 46379539.00 30996181.00 L 46379539.00 31594841.00 A 96859.64 96859.64 0 0 1 46185817.00 31594841.00  zM 47440636.14 31314348.22 m -142752.78 0 a 142752.78 142752.78 0 1 1 285505.57 0a 142752.78 142752.78 0 1 1 -285505.57 0M 47103819.00 32111033.00 L 46505159.00 32111033.00 A 96859.64 96859.64 0 0 1 46505159.00 31917311.00 L 47103819.00 31917311.00 A 96859.64 96859.64 0 0 1 47103819.00 32111033.00  zM 47103819.00 32504734.00 L 46505159.00 32504734.00 A 96859.64 96859.64 0 0 1 46505159.00 32311012.00 L 47103819.00 32311012.00 A 96859.64 96859.64 0 0 1 47103819.00 32504734.00  zM 47103819.00 31914183.00 L 46505159.00 31914183.00 A 96859.64 96859.64 0 0 1 46505159.00 31720461.00 L 47103819.00 31720461.00 A 96859.64 96859.64 0 0 1 47103819.00 31914183.00  zM 47103819.00 32307884.00 L 46505159.00 32307884.00 A 96859.64 96859.64 0 0 1 46505159.00 32114162.00 L 47103819.00 32114162.00 A 96859.64 96859.64 0 0 1 47103819.00 32307884.00  zM 48192519.00 31707480.00 L 47838189.00 31707480.00 L 47838189.00 31392520.00 L 48192519.00 31392520.00 L 48192519.00 31707480.00  zM 47630003.14 32359990.22 m -142752.78 0 a 142752.78 142752.78 0 1 1 285505.57 0a 142752.78 142752.78 0 1 1 -285505.57 0M 48207873.00 32607480.00 L 47853543.00 32607480.00 L 47853543.00 32292520.00 L 48207873.00 32292520.00 L 48207873.00 32607480.00  zM 48861811.00 31707480.00 L 48507481.00 31707480.00 L 48507481.00 31392520.00 L 48861811.00 31392520.00 L 48861811.00 31707480.00  zM 48877165.00 32607480.00 L 48522835.00 32607480.00 L 48522835.00 32292520.00 L 48877165.00 32292520.00 L 48877165.00 32607480.00  zM 48750003.14 30649990.22 m -142752.78 0 a 142752.78 142752.78 0 1 1 285505.57 0a 142752.78 142752.78 0 1 1 -285505.57 0M 50538189.00 30645504.00 L 49561811.00 30645504.00 A 245511.05 245511.05 0 0 1 49561811.00 30154496.00 L 50538189.00 30154496.00 A 245511.05 245511.05 0 1 1 50538189.00 30645504.00  zM 50538189.00 31645504.00 L 49561811.00 31645504.00 A 245511.05 245511.05 0 0 1 49561811.00 31154496.00 L 50538189.00 31154496.00 A 245511.05 245511.05 0 0 1 50538189.00 31645504.00  zM 50538189.00 32645504.00 L 49561811.00 32645504.00 A 245511.05 245511.05 0 0 1 49561811.00 32154496.00 L 50538189.00 32154496.00 A 245511.05 245511.05 0 1 1 50538189.00 32645504.00  zM 47103819.00 32898435.00 L 46505159.00 32898435.00 A 96859.64 96859.64 0 0 1 46505159.00 32704713.00 L 47103819.00 32704713.00 A 96859.64 96859.64 0 0 1 47103819.00 32898435.00  zM 47103819.00 32701585.00 L 46505159.00 32701585.00 A 96859.64 96859.64 0 0 1 46505159.00 32507863.00 L 47103819.00 32507863.00 A 96859.64 96859.64 0 0 1 47103819.00 32701585.00  zM 47103819.00 33095285.00 L 46505159.00 33095285.00 A 96859.64 96859.64 0 0 1 46505159.00 32901563.00 L 47103819.00 32901563.00 A 96859.64 96859.64 0 0 1 47103819.00 33095285.00  zM 47103819.00 33292136.00 L 46505159.00 33292136.00 A 96859.64 96859.64 0 0 1 46505159.00 33098414.00 L 47103819.00 33098414.00 A 96859.64 96859.64 0 0 1 47103819.00 33292136.00  zM 47103819.00 33488986.00 L 46505159.00 33488986.00 A 96859.64 96859.64 0 0 1 46505159.00 33295264.00 L 47103819.00 33295264.00 A 96859.64 96859.64 0 0 1 47103819.00 33488986.00  zM 47103819.00 33685837.00 L 46505159.00 33685837.00 A 96859.64 96859.64 0 0 1 46505159.00 33492115.00 L 47103819.00 33492115.00 A 96859.64 96859.64 0 0 1 47103819.00 33685837.00  zM 47103819.00 33882687.00 L 46505159.00 33882687.00 A 96859.64 96859.64 0 0 1 46505159.00 33688965.00 L 47103819.00 33688965.00 A 96859.64 96859.64 0 0 1 47103819.00 33882687.00  zM 47103819.00 34079537.00 L 46505159.00 34079537.00 A 96859.64 96859.64 0 0 1 46505159.00 33885815.00 L 47103819.00 33885815.00 A 96859.64 96859.64 0 0 1 47103819.00 34079537.00  zM 47030945.00 35777008.00 L 46576929.00 35777008.00 L 46576929.00 35322992.00 L 47030945.00 35322992.00 L 47030945.00 35777008.00  zM 47680003.14 33349990.22 m -142752.78 0 a 142752.78 142752.78 0 1 1 285505.57 0a 142752.78 142752.78 0 1 1 -285505.57 0M 48207873.00 33507480.00 L 47853543.00 33507480.00 L 47853543.00 33192520.00 L 48207873.00 33192520.00 L 48207873.00 33507480.00  zM 48861811.00 34457480.00 L 48507481.00 34457480.00 L 48507481.00 34142520.00 L 48861811.00 34142520.00 L 48861811.00 34457480.00  zM 47831877.00 34285375.00 L 47838189.00 34317106.36 L 47838189.00 34142520.00 L 48192519.00 34142520.00 L 48192519.00 34457480.00 L 47838189.00 34457480.00 L 47838189.00 34362893.64 L 47831877.00 34394625.00 A 142729.17 142729.17 0 1 1 47831877.00 34285375.00  zM 47523071.00 35777008.00 L 47069055.00 35777008.00 L 47069055.00 35322992.00 L 47523071.00 35322992.00 L 47523071.00 35777008.00  zM 48877165.00 33507480.00 L 48522835.00 33507480.00 L 48522835.00 33192520.00 L 48877165.00 33192520.00 L 48877165.00 33507480.00  zM 50538189.00 33645504.00 L 49561811.00 33645504.00 A 245511.05 245511.05 0 0 1 49561811.00 33154496.00 L 50538189.00 33154496.00 A 245511.05 245511.05 0 1 1 50538189.00 33645504.00  zM 50538189.00 34645504.00 L 49561811.00 34645504.00 A 245511.05 245511.05 0 0 1 49561811.00 34154496.00 L 50538189.00 34154496.00 A 245511.05 245511.05 0 1 1 50538189.00 34645504.00  zM 50778976.00 35640787.00 L 49321024.00 35640787.00 L 49321024.00 35159213.00 L 50778976.00 35159213.00 L 50778976.00 35640787.00  z"/>
<path id="N" d="M 45201565.00 34205157.00 L 45205524.52 34185250.92 L 45199065.00 34180935.00 L 45191310.45 34169328.98 L 45198437.00 34205157.00 L 45198437.00 34797073.52 L 45201565.00 34799163.49 L 45201565.00 34205157.00  z"/>
<path id="N" d="M 44807865.00 34222355.71 L 44804736.00 34220265.07 L 44804736.00 34786617.96 L 44807865.00 34788708.60 L 44807865.00 34222355.71  z"/>
<path id="N" d="M 45004715.00 34796866.40 L 45004715.00 34220264.40 L 45001587.00 34222354.37 L 45001587.00 34798956.37 L 45004715.00 34796866.40  z"/>
</g>
</svg>
