<svg width="35.00000112mm" height="17.99999956mm" viewBox="0 0 13779528 7086614"  version="1.1" xmlns="http://www.w3.org/2000/svg" xmlns:xlink="http://www.w3.org/1999/xlink">
<desc>
Origin 0 0 Bound 37350000 29300000 13779528 7086614
</desc>
<g fill-rule="evenodd" fill="rgb(255, 0, 0)" stroke="black" stroke-width="1" transform="translate(0, 7086614) scale(1, -1) translate(-37350000, -29300000)">
<path id="N" d="M 48861811.00 31526652.36 L 48868677.00 31513881.00 L 48884876.00 31500960.00 L 48909093.00 31491585.00 L 49333326.00 31467480.00 L 49362905.00 31473708.00 L 49372673.00 31478343.00 A 204718.14 204718.14 0 0 0 49561811.00 31604721.00 L 50538189.00 31604721.00 A 204721.07 204721.07 0 0 0 50538189.00 31195279.00 L 49561811.00 31195279.00 A 204721.07 204721.07 0 0 0 49372673.00 31321657.00 L 49368770.73 31341275.53 L 49355969.00 31349200.00 L 49327334.00 31358752.00 L 48808749.00 31388486.00 L 48800383.01 31392520.00 L 48507481.00 31392520.00 L 48507481.00 31707480.00 L 48861811.00 31707480.00 L 48861811.00 31526652.36  z"/>
<path id="N" d="M 45173517.00 34828531.00 L 45165840.00 34823217.00 L 45157719.98 34811996.08 L 45161108.00 34803817.00 L 45161108.00 34205157.00 A 59533.64 59533.64 0 0 0 45042044.00 34205157.00 L 45042044.00 34803817.00 L 45045369.30 34811844.67 L 45036676.32 34823619.01 L 45029325.00 34828531.00 A 101958.15 101958.15 0 1 0 45173517.00 34828531.00  z"/>
<path id="N" d="M 48192519.00 34142520.00 L 47838189.00 34142520.00 L 47838189.00 34256704.00 L 47796569.00 34256541.00 L 47764605.48 34262899.00 L 47739018.00 34245802.00 A 101960.92 101960.92 0 1 0 47801303.40 34343296.00 L 47838189.00 34343296.00 L 47838189.00 34457480.00 L 48192519.00 34457480.00 L 48192519.00 34142520.00  z"/>
<path id="N" d="M 48207873.00 33192520.00 L 47853543.00 33192520.00 L 47853543.00 33282032.84 L 47848635.00 33290400.00 L 47835643.00 33300000.00 L 47816155.00 33306400.00 L 47800621.51 33306704.00 L 47778367.00 33299200.00 L 47756963.98 33285189.45 L 47752096.00 33277904.00 A 101958.15 101958.15 0 1 0 47752096.00 33422096.00 L 47757510.00 33414300.00 L 47778367.00 33400800.00 L 47800621.51 33393296.00 L 47814303.64 33393296.00 L 47826711.00 33396400.00 L 47842951.00 33404400.00 L 47852695.00 33415600.00 L 47853543.00 33507480.00 L 48207873.00 33507480.00 L 48207873.00 33192520.00  z"/>
<path id="N" d="M 45357958.00 34803817.00 L 45357958.00 34205157.00 L 45348810.84 34183074.67 L 45350800.00 34178367.00 L 45364810.55 34156963.98 L 45372096.00 34152096.00 A 101958.15 101958.15 0 1 0 45227904.00 34152096.00 L 45235700.00 34157510.00 L 45249599.53 34179312.56 L 45238894.00 34205157.00 L 45238894.00 34803817.00 A 59533.64 59533.64 0 0 0 45357958.00 34803817.00  z"/>
<path id="N" d="M 39401192.50 32753853.52 L 39406606.00 32739695.00 L 39420882.45 32721613.48 L 39458044.00 32706221.00 L 39520884.00 32700192.00 L 39527704.93 32701547.05 L 39528708.00 32703969.00 L 39538878.00 32708181.00 L 39827264.00 32708181.00 L 39837434.00 32703969.00 L 39841646.00 32693799.00 L 39841646.00 32614075.00 L 39837434.00 32603905.00 L 39827264.00 32599693.00 L 39538878.00 32599693.00 L 39528708.00 32603905.00 L 39527494.44 32606835.17 L 39500990.12 32614833.66 L 39435855.00 32623409.00 L 39398880.58 32638724.17 L 39363868.00 32648948.00 L 39330625.00 32652559.00 L 39300000.00 32648041.00 A 101958.15 101958.15 0 1 0 39401192.50 32753853.52  z"/>
<path id="N" d="M 41673289.00 31815600.00 L 41683033.00 31804400.00 L 41695151.27 31798061.24 L 41701633.00 31800800.00 L 41723036.02 31814810.55 L 41727904.00 31822096.00 A 101958.15 101958.15 0 1 0 41727904.00 31677904.00 L 41722490.00 31685700.00 L 41715966.00 31690800.00 L 41695151.27 31701938.76 L 41683033.00 31695600.00 L 41673289.00 31684400.00 L 41672441.00 31592520.00 L 41357481.00 31592520.00 L 41357481.00 31907480.00 L 41672441.00 31907480.00 L 41673289.00 31815600.00  z"/>
<path id="N" d="M 39837434.00 33491371.00 L 39838648.43 33488438.72 L 39863665.94 33472263.22 L 39870876.00 33470829.00 L 39930615.00 33430615.00 L 39931448.11 33428603.67 L 39979328.00 33396611.00 L 40035806.96 33385377.01 L 40124697.20 33386210.00 L 40137716.19 33389981.42 L 40138944.00 33392946.00 L 40149114.00 33397158.00 L 40476870.00 33397158.00 L 40487040.00 33392946.00 L 40491252.00 33382776.00 L 40491252.00 33303052.00 L 40487040.00 33292882.00 L 40476870.00 33288670.00 L 40149114.00 33288670.00 L 40138944.00 33292882.00 L 40137716.19 33295846.58 L 40124697.20 33299618.00 L 40037818.00 33299618.00 L 40037818.00 33298312.00 L 39946163.00 33316543.00 L 39868462.00 33368462.00 L 39869263.67 33369677.92 L 39846471.74 33384906.47 L 39831875.60 33389004.94 L 39827264.00 33387095.00 L 39538878.00 33387095.00 L 39528708.00 33391307.00 L 39527644.72 33393874.33 L 39514751.00 33395929.00 L 39426996.00 33385077.00 L 39320554.00 33340987.00 L 39232187.85 33273181.03 L 39230580.35 33269370.65 L 39226452.43 33267660.83 L 39154952.00 33174478.00 L 39108411.00 33062119.00 L 39093054.23 32945471.81 L 39094817.00 32941086.00 L 39093323.00 32799461.00 A 305200.11 305200.11 0 0 1 39183025.00 32577959.00 A 267662.37 267662.37 0 0 1 39373130.38 32499893.56 L 39514461.20 32500383.00 L 39527480.19 32504154.42 L 39528708.00 32507119.00 L 39538878.00 32511331.00 L 39827264.00 32511331.00 L 39837434.00 32507119.00 L 39838564.48 32504389.41 L 39871589.56 32489871.39 L 39903836.00 32483457.00 L 39981538.00 32431538.00 L 39980736.33 32430322.07 L 40012288.00 32409240.00 L 40049799.00 32401958.00 L 40124697.20 32401958.00 L 40137716.19 32405729.42 L 40138944.00 32408694.00 L 40149114.00 32412906.00 L 40476870.00 32412906.00 L 40487040.00 32408694.00 L 40488686.66 32404718.10 L 40491256.00 32402935.00 L 40510352.43 32397627.00 L 40582053.56 32397627.00 L 40603949.00 32404662.00 L 40624445.38 32416919.80 L 40627904.00 32422096.00 L 40654333.07 32439755.33 L 40658513.00 32449171.00 L 40658801.00 32492570.00 L 40671482.00 32523185.00 L 40757666.00 32610762.00 L 40766036.00 32627271.00 L 40781102.00 32633512.00 L 40797375.56 32633512.00 L 40801417.00 32635186.00 L 40805458.44 32633512.00 L 40907086.00 32633512.00 L 40922152.00 32627271.00 L 40928393.00 32612205.00 L 40928393.00 32572835.00 L 40922152.00 32557769.00 L 40907086.00 32551528.00 L 40832581.77 32551528.00 L 40806099.00 32535020.00 L 40745393.00 32474636.00 L 40745482.00 32447527.00 L 40749713.00 32437305.00 L 40772096.00 32422096.00 A 101958.15 101958.15 0 0 0 40627904.00 32277904.00 L 40619788.00 32289081.00 L 40599528.00 32303109.00 L 40577054.13 32311035.00 L 40487809.46 32310487.89 L 40487040.00 32308630.00 L 40476870.00 32304418.00 L 40149114.00 32304418.00 L 40138944.00 32308630.00 L 40137716.19 32311594.58 L 40124697.20 32315366.00 L 40049799.00 32315113.00 L 39979123.00 32329171.00 L 39919385.00 32369385.00 L 39918551.90 32371396.30 L 39895149.83 32387032.92 L 39833854.00 32404574.00 L 39827264.00 32402843.00 L 39538878.00 32402843.00 L 39528708.00 32407055.00 L 39527480.19 32410019.58 L 39514461.20 32413791.00 L 39373554.63 32414104.71 A 358845.23 358845.23 0 0 0 39060883.00 32597182.00 L 39020376.00 32694974.00 L 39006735.00 32800375.00 L 39008224.18 32941543.00 L 39006804.00 32941543.00 A 551587.90 551587.90 0 0 0 39168528.00 33331472.00 L 39277688.00 33415234.00 L 39404807.00 33467888.00 L 39478844.16 33477635.44 L 39525153.00 33486986.00 L 39528708.00 33491371.00 L 39538878.00 33495583.00 L 39827264.00 33495583.00 L 39837434.00 33491371.00  z"/>
<path id="N" d="M 44110565.00 35778740.00 L 44110565.00 35621260.00 L 44098343.00 35559814.00 L 44063537.00 35507723.00 L 44055889.89 35502613.38 L 44056775.00 35496598.00 L 44079027.00 35466895.00 L 44282961.00 35262961.00 L 44284248.00 35264248.00 L 44395098.00 35129177.00 L 44477467.00 34975075.00 L 44500819.44 34898092.94 L 44510291.00 34873873.00 L 44517299.64 34860749.86 L 44553120.00 34845912.00 L 44570557.00 34803817.00 L 44570557.00 34205157.00 A 59533.64 59533.64 0 0 0 44451493.00 34205157.00 L 44451493.00 34803817.00 L 44456858.01 34816768.77 L 44417125.00 34950080.00 L 44340792.00 35092890.00 L 44239866.34 35215867.85 L 44237039.00 35217039.00 L 44032460.00 35420328.00 L 44013354.66 35445226.50 L 44001132.00 35456386.00 L 43983078.92 35467274.61 L 43950000.00 35460695.00 A 160563.52 160563.52 0 0 0 43789435.00 35621260.00 L 43789435.00 35778740.00 A 160563.52 160563.52 0 0 0 44110565.00 35778740.00  zM 43950002.46 35699992.27 m -120431.73 0 a 120431.73 120431.73 0 1 1 240863.46 0a 120431.73 120431.73 0 1 1 -240863.46 0"/>
<path id="N" d="M 51150000.00 29300000.00 L 37350000.00 29300000.00 L 37350000.00 36400000.00 L 51150000.00 36400000.00 L 51150000.00 29300000.00  zM 38305119.00 31517845.00 L 37793307.00 31517845.00 A 318636.42 318636.42 0 1 1 37793307.00 30880583.00 L 38305119.00 30880583.00 A 318636.42 318636.42 0 1 1 38305119.00 31517845.00  zM 37795732.00 31885365.92 m -163138.59 0 a 163138.59 163138.59 0 1 1 326277.17 0a 163138.59 163138.59 0 1 1 -326277.17 0M 37805732.00 32495365.92 m -163138.59 0 a 163138.59 163138.59 0 1 1 326277.17 0a 163138.59 163138.59 0 1 1 -326277.17 0M 38515732.00 32485365.92 m -163138.59 0 a 163138.59 163138.59 0 1 1 326277.17 0a 163138.59 163138.59 0 1 1 -326277.17 0M 37775732.00 33195365.92 m -163138.59 0 a 163138.59 163138.59 0 1 1 326277.17 0a 163138.59 163138.59 0 1 1 -326277.17 0M 38485732.00 33165365.92 m -163138.59 0 a 163138.59 163138.59 0 1 1 326277.17 0a 163138.59 163138.59 0 1 1 -326277.17 0M 37815732.00 33855365.92 m -163138.59 0 a 163138.59 163138.59 0 1 1 326277.17 0a 163138.59 163138.59 0 1 1 -326277.17 0M 38305119.00 34919419.00 L 37793307.00 34919419.00 A 318636.42 318636.42 0 1 1 37793307.00 34282157.00 L 38305119.00 34282157.00 A 318636.42 318636.42 0 1 1 38305119.00 34919419.00  zM 38655732.00 31865365.92 m -163138.59 0 a 163138.59 163138.59 0 1 1 326277.17 0a 163138.59 163138.59 0 1 1 -326277.17 0M 39114062.00 31551576.00 L 39114062.00 31413780.00 A 161532.64 161532.64 0 0 1 39437120.00 31413780.00 L 39437120.00 31551576.00 A 161532.64 161532.64 0 0 1 39114062.00 31551576.00  zM 39522430.00 31415748.00 L 39522430.00 31218898.00 L 39523555.73 31210346.83 L 39522090.00 31199214.00 A 298792.86 298792.86 0 0 1 39820866.00 30900438.00 L 40253938.00 30900438.00 A 298792.86 298792.86 0 1 1 40253938.00 31497990.00 L 40025442.66 31497990.00 L 40005854.00 31545281.00 A 259085.72 259085.72 0 0 1 39522430.00 31415748.00  zM 39828928.26 31812981.27 L 39599046.68 31812292.00 L 39610975.00 31794440.00 L 39644053.00 31772338.00 L 39683071.00 31764577.00 L 39793521.67 31763102.75 L 39804923.00 31752611.00 L 39876396.41 31726395.73 L 39945488.00 31680230.00 L 40026986.63 31664018.29 L 40110382.56 31661200.27 L 40122574.79 31660661.22 L 40135826.00 31654180.00 L 40139863.00 31654054.00 L 40152820.97 31659421.51 L 40158461.00 31658983.00 L 40164240.73 31663928.37 L 40170722.19 31666152.00 L 40455261.81 31666152.00 L 40461745.24 31663927.70 L 40467524.00 31658983.00 L 40473163.17 31659421.45 L 40486121.00 31654054.00 L 40490158.00 31654180.00 L 40503379.59 31660646.74 L 40570284.00 31663168.00 L 40577367.91 31666152.00 L 40640416.51 31666152.00 L 40647076.00 31663189.00 L 40676252.24 31660982.60 L 40684034.88 31642186.88 L 40687424.39 31640782.86 L 40689176.00 31637570.00 L 40709924.57 31631462.74 L 40727559.00 31624158.14 L 40727559.00 31700143.84 L 40722651.00 31708511.00 L 40709659.00 31718111.00 L 40690171.00 31724511.00 L 40501286.80 31724815.00 L 40488267.81 31721043.58 L 40487040.00 31718079.00 L 40476870.00 31713867.00 L 40149114.00 31713867.00 L 40138944.00 31718079.00 L 40137716.19 31721043.58 L 40124697.20 31724815.00 L 40026987.00 31724815.00 L 39968898.00 31736749.00 L 39921145.39 31768655.83 L 39918124.84 31772427.34 L 39892031.80 31789862.10 L 39828928.26 31812981.27  zM 38650000.00 33859995.92 m -163138.59 0 a 163138.59 163138.59 0 1 1 326277.17 0a 163138.59 163138.59 0 1 1 -326277.17 0M 39905000.00 35743949.88 L 39887406.04 35736661.02 L 39866517.09 35730380.96 L 39864851.23 35727318.28 L 39861478.00 35725921.00 L 39852676.61 35704968.01 L 39821166.00 35700511.00 L 39809853.23 35694732.07 L 39747390.00 35689816.00 A 1103348.93 1103348.93 0 0 1 38816599.00 34600000.00 L 38818041.00 34600000.00 L 38818041.00 34480000.00 L 38815270.00 34480000.00 A 552842.21 552842.21 0 0 1 39368110.00 33927160.00 L 39368110.00 33929931.00 L 39428001.57 33929931.00 L 39437835.65 33923717.96 L 39451564.93 33909229.74 L 39464483.04 33876551.15 L 39464155.00 33795178.00 L 39469843.00 33766583.00 L 39486040.53 33742341.71 L 39486040.53 33730887.29 L 39469843.00 33706646.00 L 39464155.00 33678051.00 L 39464155.00 33598327.00 L 39465409.11 33592022.26 L 39459966.36 33570773.28 L 39442013.83 33542629.48 L 39433413.76 33534253.69 L 39317207.00 33499599.00 L 39216003.00 33445504.00 L 39127198.89 33372751.87 A 609824.83 609824.83 0 0 1 38960305.00 33060513.00 L 38949548.39 32940570.86 L 38948076.01 32800994.67 L 38946042.03 32799917.76 L 38961920.00 32679311.00 L 39008473.00 32566923.00 L 39079027.66 32474969.67 A 415556.01 415556.01 0 0 1 39374312.00 32353487.00 L 39374312.00 32355128.00 L 39428001.76 32355128.00 L 39437837.49 32348913.66 L 39451564.71 32334427.46 L 39464483.24 32301748.14 L 39464155.00 32220374.00 L 39469843.00 32191779.00 L 39486040.53 32167537.71 L 39486040.53 32156084.29 L 39469843.00 32131843.00 L 39464155.00 32103248.00 L 39464155.00 32023524.00 A 74723.44 74723.44 0 0 1 39538878.00 31948801.00 L 39557634.67 31948801.00 L 39577874.44 31920780.00 L 39827264.00 31920780.00 L 39837434.00 31916568.00 L 39838997.25 31912793.48 L 39866651.00 31896828.00 L 39924104.00 31872738.00 L 39977106.48 31832068.26 L 39980935.00 31830935.00 L 40002064.00 31816817.00 L 40026987.00 31811407.00 L 40124697.20 31811407.00 L 40137716.19 31815178.42 L 40138944.00 31818143.00 L 40149114.00 31822355.00 L 40476870.00 31822355.00 L 40487040.00 31818143.00 L 40488267.81 31815178.42 L 40501286.80 31811407.00 L 40688319.64 31811407.00 L 40700727.00 31814511.00 L 40716967.00 31822511.00 L 40726711.00 31833711.00 L 40727559.00 31907480.00 L 40967198.08 31907480.00 L 40990989.00 31922648.00 L 41184092.86 32115322.86 L 41194523.00 32136365.00 L 41199750.13 32161407.47 L 41198041.00 32170000.00 L 41205802.00 32209018.00 L 41233493.00 32248795.00 L 41241724.00 32272069.00 L 41242129.00 32297702.00 L 41192734.00 32418229.00 L 41116699.27 32517320.09 L 41112040.00 32519250.00 L 41079762.00 32551528.00 L 41037008.00 32551528.00 L 41021942.00 32557769.00 L 41015701.00 32572835.00 L 41015701.00 32612205.00 L 41021942.00 32627271.00 L 41037008.00 32633512.00 L 41094437.59 32633512.00 L 41100000.00 32635816.00 L 41105562.41 32633512.00 L 41162992.00 32633512.00 L 41178058.00 32627271.00 L 41184299.00 32612205.00 L 41184299.00 32572835.00 L 41183227.20 32570247.64 L 41266982.00 32461096.00 L 41325143.00 32320682.00 L 41328210.10 32297385.44 L 41341865.00 32271240.00 L 41357293.00 32252696.00 L 41372096.00 32242096.00 L 41377510.00 32234300.00 L 41398367.00 32220800.00 L 41420621.51 32213296.00 L 41506863.00 32213296.00 L 41588608.00 32201940.00 L 41664782.00 32170388.00 L 41730615.00 32120615.00 L 41732294.57 32116560.10 L 41799608.00 32071583.00 L 41879010.37 32055788.53 L 41883065.00 32057468.00 L 42172253.00 32057468.00 L 42172253.00 32144113.64 L 42169925.00 32153465.00 L 42163925.00 32165705.00 L 42155391.67 32173097.00 L 42080774.14 32173097.00 L 42083659.91 32166130.32 L 42071907.32 32138866.83 L 42049829.54 32116131.00 L 41883065.00 32116157.00 L 41823019.00 32128101.00 L 41773142.18 32161427.00 L 41772987.66 32162988.26 A 376350.26 376350.26 0 0 1 41506863.00 32273220.00 L 41506863.00 32271959.00 L 41460178.08 32271959.00 L 41453609.00 32274915.00 L 41445730.26 32275152.48 L 41428968.63 32278373.44 L 41415770.00 32287437.00 L 41409141.66 32289925.39 L 41406009.00 32296324.00 L 41393553.65 32311103.24 L 41381521.00 32341809.00 L 41373598.43 32351555.79 L 41354344.00 32415030.00 L 41295174.00 32525728.00 L 41222593.19 32614167.77 L 41219851.45 32667582.01 L 41228118.95 32679304.34 L 41331191.00 32692874.00 L 41464776.00 32748207.00 L 41579489.03 32836228.00 L 41612739.80 32873688.80 L 41937244.61 33198193.61 L 41949788.13 33196978.06 L 41987245.00 33167946.96 L 41987245.00 32773202.00 L 42461575.00 32773202.00 L 42461575.00 33306588.00 L 42158916.15 33306588.00 L 42142213.27 33332910.19 L 42129468.44 33369947.00 L 42142213.27 33406983.81 L 42158916.35 33433307.00 L 42461575.00 33433307.00 L 42461575.00 33966693.00 L 41987245.00 33966693.00 L 41987245.00 33559499.90 L 41955807.06 33522520.88 L 41877932.00 33512268.00 L 41805364.00 33482210.00 L 41743621.00 33433819.00 L 41363057.52 33053257.59 L 41283072.00 32997964.00 L 41219415.14 32985302.10 L 41194083.00 33002228.00 L 41162992.00 33008412.00 L 41037008.00 33008412.00 L 41015363.74 33004106.96 L 41010589.00 33005087.95 L 40995038.90 33017991.24 L 40985642.32 33059367.77 A 163137.52 163137.52 0 0 1 40940633.00 33285642.00 L 40895019.02 33304535.42 L 40875966.57 33356194.34 L 41515891.50 33996118.50 L 41517256.00 33994754.00 L 41553121.25 34041494.57 L 41559000.00 34043599.00 L 41562460.99 34050919.27 L 41569215.00 34055388.00 L 41583160.25 34074128.17 L 41593196.05 34081706.53 L 41767480.00 34082520.00 L 41767480.00 34517480.00 L 41332520.00 34517480.00 L 41332517.84 34082521.17 L 41305269.71 34045042.61 L 40601593.43 33341365.48 L 40551593.00 33362076.32 L 40551593.00 33382776.00 L 40545905.00 33411371.00 L 40529707.47 33435612.29 L 40529707.47 33447065.71 L 40545905.00 33471307.00 L 40551593.00 33499902.00 L 40551593.00 33579626.00 L 40545905.00 33608221.00 L 40529707.47 33632462.29 L 40529707.47 33643916.71 L 40545905.00 33668158.00 L 40551593.00 33696753.00 L 40551593.00 33776477.00 L 40540304.15 33844894.14 L 40558524.03 33871100.03 L 40590269.00 33887094.00 L 40597410.20 33894346.38 L 40609021.00 33899195.00 L 40609852.46 33900996.99 L 40693021.00 33945452.00 L 40796678.22 34030519.22 L 40832989.74 34063567.62 L 40855420.92 34082316.52 L 40862970.87 34081570.13 L 40875307.31 34091694.41 L 40890043.12 34097794.88 L 40893803.61 34106873.96 L 40901412.39 34113297.19 L 40902955.42 34128969.45 L 40908567.97 34142520.00 L 40829761.38 34142520.00 L 40818100.00 34135516.00 L 40753325.80 34072560.95 L 40659526.00 33995581.00 L 40551689.00 33937941.00 L 40536247.51 33933256.82 L 40513565.00 33918665.00 L 40494225.00 33898806.00 L 40487040.00 33883433.00 L 40476870.00 33879221.00 L 40149114.00 33879221.00 L 40138944.00 33883433.00 L 40136154.22 33890169.00 L 40110630.00 33890169.00 L 40040886.00 33900342.00 L 39975895.00 33927262.00 L 39922893.41 33967931.79 L 39919065.00 33969065.00 L 39897935.00 33983183.00 L 39873011.00 33988594.00 L 39840223.78 33988594.00 L 39837434.00 33981858.00 L 39827264.00 33977646.00 L 39538878.00 33977646.00 L 39528708.00 33981858.00 L 39527480.19 33984822.58 L 39514461.20 33988594.00 L 39368110.00 33987678.00 A 492306.97 492306.97 0 0 0 38876704.00 34480000.00 L 38876802.77 34600238.45 A 1042454.85 1042454.85 0 0 0 39756805.00 35630372.00 L 39842634.89 35637127.10 L 39867674.00 35641586.00 L 39887132.00 35649012.00 L 39900103.00 35659277.00 L 39905000.00 35667869.16 L 39905000.00 35743949.88  zM 39732787.00 35541182.00 A 959637.37 959637.37 0 0 1 38960939.37 34605689.48 L 38963296.00 34600000.00 L 38963296.00 34480000.00 L 38961949.85 34476750.08 L 38975376.00 34374767.00 L 39015994.00 34276706.00 A 406605.06 406605.06 0 0 1 39364860.08 34073839.85 L 39368110.00 34075186.00 L 39514461.20 34075186.00 L 39527480.19 34078957.42 L 39528708.00 34081922.00 L 39538878.00 34086134.00 L 39827264.00 34086134.00 L 39837434.00 34081922.00 L 39840223.78 34075186.00 L 39873011.00 34075186.00 L 39931101.00 34063252.00 L 39978854.65 34031344.15 L 39981875.15 34027572.68 L 40039553.00 33989034.00 L 40107588.18 33975501.05 L 40110630.00 33976761.00 L 40136154.22 33976761.00 L 40138944.00 33983497.00 L 40149114.00 33987709.00 L 40418324.56 33987709.00 L 40452848.00 33992254.00 L 40583174.00 34046237.00 L 40690808.09 34128827.67 L 40693023.00 34134175.00 L 40755594.00 34198022.00 L 40762598.00 34209683.38 L 40762598.00 34288489.93 L 40749051.26 34282878.54 L 40733181.59 34281318.65 L 40726948.33 34273722.98 L 40717811.72 34269809.83 L 40711774.94 34255233.11 L 40701669.20 34242701.53 L 40702356.46 34235727.95 L 40660890.00 34189222.00 L 40658035.96 34182149.96 L 40649719.58 34172928.56 L 40552915.00 34098647.00 L 40484027.00 34070212.00 L 40420798.32 34048552.69 L 40369309.95 34041774.25 L 40346046.77 34044672.77 L 40325080.00 34048988.00 L 40321785.72 34046818.45 L 40317856.00 34047166.00 L 40303834.99 34035424.00 L 40110630.00 34036072.00 L 40062964.00 34045553.00 L 40023789.13 34071728.71 L 40023603.64 34073604.24 L 39954511.00 34119771.00 L 39943681.58 34121925.06 L 39931216.19 34175384.49 L 39964683.00 34201065.00 L 40005854.00 34254719.00 L 40025443.48 34302012.00 L 40253938.00 34302012.00 A 298792.86 298792.86 0 0 1 40253938.00 34899564.00 L 39820866.00 34899564.00 A 298792.86 298792.86 0 0 1 39522090.00 34600788.00 L 39523555.86 34589654.17 L 39522430.00 34581102.00 L 39522430.00 34384252.00 A 259058.32 259058.32 0 0 1 39598309.00 34201065.00 L 39617903.71 34186029.15 L 39602750.38 34140847.16 L 39557408.52 34134904.87 L 39548224.00 34141018.00 L 39542584.83 34140579.55 L 39529627.00 34145947.00 L 39525590.00 34145821.00 L 39512368.41 34139354.26 L 39445464.00 34136833.00 L 39438380.09 34133849.00 L 39389121.28 34133849.00 L 39368807.82 34182890.02 L 39400994.00 34216433.00 A 181596.91 181596.91 0 0 1 39099006.00 34418215.00 L 39087724.03 34390978.25 L 39033830.93 34390430.56 L 39021959.00 34480000.00 L 39021096.21 34604337.63 L 39037949.00 34775451.00 A 899318.36 899318.36 0 0 0 39744549.00 35482051.00 L 39831223.44 35490587.48 L 39854746.25 35490139.46 L 39861478.00 35473888.00 L 39864879.69 35472478.94 L 39866644.00 35469247.00 L 39887408.47 35463146.98 L 39905000.00 35455860.14 L 39905000.00 35531718.51 L 39900105.00 35539805.00 L 39887137.00 35548701.00 L 39867685.00 35554049.00 L 39732787.00 35541182.00  zM 41643306.00 35856850.00 L 41208346.00 35856850.00 L 41208346.00 35718472.08 L 41206728.38 35718036.56 L 41167838.00 35714922.00 L 41161625.66 35712155.00 L 40911705.77 35712155.00 L 40905488.00 35714922.00 L 40865000.00 35718294.56 L 40865000.00 35815000.00 L 40435000.00 35815000.00 L 40435000.00 35385000.00 L 40865000.00 35385000.00 L 40865842.66 35481929.68 L 40905488.00 35485078.00 L 40911705.77 35487845.00 L 41161624.66 35487845.00 L 41167837.00 35485078.00 L 41184836.39 35484630.67 L 41208346.00 35481527.92 L 41208346.00 35343150.00 L 41643306.00 35343150.00 L 41643306.00 35856850.00  zM 42292283.00 30267480.00 L 41857323.00 30267480.00 L 41857323.00 29832520.00 L 42292283.00 29832520.00 L 42292283.00 29909753.00 L 42299482.81 29925031.93 L 42322036.25 29931984.07 L 42349796.80 29936819.97 L 42353552.00 29933206.00 L 42365009.67 29928715.33 L 42379367.00 29914358.00 A 163138.59 163138.59 0 1 1 42379367.00 30185642.00 L 42365009.67 30171284.67 L 42353552.00 30166794.00 L 42349048.75 30163268.71 L 42322021.63 30168019.65 L 42299482.88 30174968.19 L 42292283.00 30190247.00 L 42292283.00 30267480.00  zM 41511372.71 32128571.96 L 41506863.00 32126704.00 L 41420621.51 32126704.00 L 41398367.00 32119200.00 L 41376963.98 32105189.45 L 41372096.00 32097904.00 L 41339018.00 32075802.00 L 41300000.00 32068041.00 L 41290659.00 32069725.00 L 41266365.00 32064523.00 L 41245322.86 32054092.86 L 41059023.03 31867793.03 L 41042519.00 31843175.26 L 41042519.00 31733915.46 L 41044209.13 31733300.00 L 41062373.01 31741788.98 L 41081658.87 31747281.65 L 41084307.64 31752040.25 L 41089322.30 31754576.57 L 41096073.58 31773178.05 L 41105751.86 31790996.40 L 41104340.11 31795953.31 L 41106198.00 31801072.00 L 41100377.93 31813525.21 L 41108149.73 31825311.77 L 41147703.00 31869653.00 L 41149465.38 31875273.38 L 41238098.60 31963906.60 L 41292570.93 31955630.66 L 41297479.19 31949894.15 L 41297481.00 31532520.00 L 41732441.00 31532520.00 L 41732441.00 31566123.16 L 41768174.85 31590000.00 A 163137.50 163137.50 0 0 1 41935642.00 31840633.00 L 41914062.43 31862212.57 L 41934773.28 31912213.00 L 42037095.32 31912213.00 L 42063007.82 31895454.82 L 42071152.14 31887008.00 L 42155525.00 31887056.00 L 42160025.00 31890116.00 L 42167225.00 31899908.00 L 42172025.00 31914596.00 L 42172253.00 31970876.00 L 41883065.00 31970876.00 A 312342.96 312342.96 0 0 0 41669385.00 32059385.00 L 41667517.20 32063894.33 L 41595877.00 32111763.00 L 41511372.71 32128571.96  zM 43012756.00 33306588.00 L 42538426.00 33306588.00 L 42538426.00 32773202.00 L 42644485.49 32773202.00 L 42654358.00 32749367.00 A 163131.20 163131.20 0 0 1 42925642.00 32749367.00 L 42935514.51 32773202.00 L 43012756.00 32773202.00 L 43012756.00 33306588.00  zM 42950002.46 35699992.27 m -120431.73 0 a 120431.73 120431.73 0 1 1 240863.46 0a 120431.73 120431.73 0 1 1 -240863.46 0M 44770000.00 32499995.92 m -163138.59 0 a 163138.59 163138.59 0 1 1 326277.17 0a 163138.59 163138.59 0 1 1 -326277.17 0M 44790000.00 33189995.92 m -163138.59 0 a 163138.59 163138.59 0 1 1 326277.17 0a 163138.59 163138.59 0 1 1 -326277.17 0M 43860000.00 36234491.00 L 43860000.00 36232155.00 L 42950591.00 36232155.00 L 42950591.00 36233432.00 A 1113422.41 1113422.41 0 0 1 42296132.00 36020785.00 L 42168333.65 35911634.65 L 42163826.00 35909948.00 L 42123995.03 35872787.39 L 42103516.54 35856850.00 L 42081645.76 35856850.00 L 42077733.00 35859001.00 L 42070328.83 35856850.00 L 41798897.00 35856850.00 L 41798897.00 35343150.00 L 42233857.00 35343150.00 L 42233857.00 35640561.81 L 42240332.10 35652473.17 L 42273523.43 35693971.45 L 42290144.00 35711228.00 L 42292680.52 35717692.39 L 42322790.37 35747800.07 L 42359533.68 35779805.84 L 42456532.00 35859411.00 L 42610278.00 35941589.00 L 42777101.00 35992195.00 L 42945759.04 36008806.10 L 43311426.73 36007845.00 L 43326594.06 35957844.65 L 43293205.00 35935535.00 L 43245138.00 35863597.00 L 43228259.00 35778740.00 L 43228259.00 35621260.00 L 43245138.00 35536403.00 L 43293205.00 35464465.00 L 43324331.66 35443667.02 L 43323727.64 35440001.88 L 43290157.00 35326210.00 L 43206121.00 35168990.00 L 43095474.30 35034166.82 L 43054183.00 34995817.00 A 639353.87 639353.87 0 0 1 42866921.00 34543726.00 L 42868237.00 34543726.00 L 42868237.00 34390000.00 L 42865265.00 34390000.00 L 42884123.00 34246760.00 L 42939411.00 34113282.00 L 43013886.13 34016225.20 L 42990345.18 33966694.98 L 42915558.01 33966693.00 L 42905642.00 33990633.00 A 163131.20 163131.20 0 0 1 42634358.00 33990633.00 L 42624441.99 33966693.00 L 42538426.00 33966693.00 L 42538426.00 33433307.00 L 43012756.00 33433307.00 L 43012757.99 33946759.58 L 43024062.59 33951620.45 L 43073347.79 33953347.38 L 43145270.00 33905291.00 L 43175757.46 33899226.79 L 43196786.83 33844063.81 L 43187855.00 33830697.00 L 43178930.00 33785826.00 L 43187855.00 33740955.00 L 43199827.58 33723037.59 L 43209194.39 33687401.00 L 43199827.58 33651764.41 L 43187855.00 33633847.00 L 43178930.00 33588976.00 L 43187855.00 33544105.00 L 43199828.04 33526186.90 L 43209194.43 33490550.50 L 43199828.04 33454914.10 L 43187855.00 33436996.00 L 43178930.00 33392125.00 L 43187855.00 33347254.00 L 43199827.58 33329336.59 L 43209194.39 33293700.00 L 43199827.58 33258063.41 L 43187855.00 33240146.00 L 43178930.00 33195275.00 L 43187855.00 33150404.00 L 43199828.04 33132485.90 L 43209194.43 33096849.50 L 43199828.04 33061213.10 L 43187855.00 33043295.00 L 43178930.00 32998424.00 L 43187855.00 32953553.00 L 43199827.58 32935635.59 L 43209194.39 32899999.00 L 43199827.58 32864362.41 L 43187855.00 32846445.00 L 43178930.00 32801574.00 L 43187855.00 32756703.00 L 43196557.99 32743678.65 L 43172837.89 32690123.95 L 43140305.00 32685841.00 L 43056349.00 32651065.00 L 43012753.96 32626797.00 L 42577796.00 32626797.00 L 42577795.92 32113098.00 L 42530762.10 32105935.00 L 42352335.83 32105935.00 L 42321387.28 32155503.68 L 42328674.86 32173097.00 L 42253925.00 32173049.00 L 42249425.00 32169989.00 L 42242225.00 32160197.00 L 42237425.00 32145509.00 L 42237197.00 32045922.42 L 43225003.72 32046644.00 L 43253040.84 32053739.02 L 43254088.00 32056267.00 L 43296183.00 32073704.00 L 43894843.00 32073704.00 A 59533.64 59533.64 0 0 0 43894843.00 31954640.00 L 43296183.00 31954640.00 L 43254088.00 31972077.00 L 43253040.84 31974604.98 L 43230215.00 31980864.00 L 42238939.00 31981700.00 L 42237197.00 31979553.38 L 42237197.00 31915991.36 L 42239525.00 31906640.00 L 42245525.00 31894400.00 L 42254058.33 31887008.00 L 42334531.62 31887008.00 L 42337502.31 31892306.01 L 42368131.27 31922409.00 L 42499055.00 31922409.00 L 42499055.00 31452992.00 L 42615078.00 31452517.00 L 42618237.00 31445414.57 L 42618237.00 31290000.00 L 42603703.00 31214029.00 L 42561494.38 31150857.80 L 42425833.18 31014525.70 L 42291010.00 30903879.00 L 42133790.00 30819843.00 L 41963197.00 30768094.00 L 41789625.93 30750999.19 L 41050000.00 30751763.00 L 41050000.00 30754917.00 A 1021143.29 1021143.29 0 0 1 40327933.00 30455827.00 L 40330160.99 30453593.99 L 40214722.95 30338155.95 L 40207585.00 30335468.00 L 40176705.70 30307205.99 L 39838859.00 30306850.00 L 39838859.00 29793150.00 L 40273819.00 29793150.00 L 40273819.00 30123636.04 L 40277738.03 30132726.81 L 40302649.00 30162105.00 L 40305265.23 30169154.23 L 40383215.60 30247104.60 L 40429410.00 30227970.25 L 40429410.00 29793150.00 L 40864370.00 29793150.00 L 40864878.00 29955078.00 L 40871970.44 29958237.00 L 41200139.57 29958237.00 L 41207717.00 29955065.75 L 41207717.00 29832520.00 L 41642677.00 29832520.00 L 41642677.00 30267480.00 L 41207717.00 30267480.00 L 41207242.00 30144922.00 L 41200139.57 30141763.00 L 40871971.29 30141763.00 L 40864370.00 30144935.39 L 40864370.00 30306850.00 L 40516837.67 30306850.00 L 40498947.10 30356850.39 L 40585953.00 30428255.00 L 40730359.00 30505441.00 L 40887048.00 30552973.00 L 41047360.47 30568762.03 L 41785786.00 30568237.00 L 41785786.00 30566630.00 A 1093365.23 1093365.23 0 0 1 42558915.00 30886871.00 L 42557779.00 30888007.00 L 42690034.35 31020259.65 L 42691103.00 31019191.00 A 382978.92 382978.92 0 0 1 42803276.00 31290000.00 L 42801763.00 31290000.00 L 42801763.00 31445414.57 L 42804934.25 31452992.00 L 42993071.00 31452992.00 L 42993071.00 31625805.17 L 43010441.00 31632363.00 L 43021176.71 31641803.84 L 43076151.00 31664575.00 L 43154286.14 31724530.83 L 43182986.83 31725559.00 L 43190221.00 31722391.00 L 43223172.69 31719087.70 L 43241244.00 31711279.00 L 43263374.28 31706594.77 L 43275191.00 31701700.00 L 43279340.84 31703418.96 L 43296183.00 31700069.00 L 43894843.00 31700069.00 L 43939713.03 31708993.81 L 43986659.57 31699046.07 L 44008404.85 31663960.07 L 44010437.19 31652097.02 L 44000071.00 31594841.00 L 44000071.00 30996181.00 A 117244.38 117244.38 0 0 1 44162195.00 30887853.00 L 44180112.41 30899825.58 L 44215749.00 30909192.39 L 44251385.59 30899825.58 L 44269303.00 30887853.00 L 44314174.00 30878928.00 L 44359045.00 30887853.00 L 44376962.41 30899825.58 L 44412599.00 30909192.39 L 44448235.59 30899825.58 L 44466153.00 30887853.00 L 44511024.00 30878928.00 L 44555895.00 30887853.00 L 44573812.41 30899825.58 L 44609449.00 30909192.39 L 44645085.59 30899825.58 L 44663003.00 30887853.00 L 44707874.00 30878928.00 L 44752745.00 30887853.00 L 44770663.80 30899826.50 L 44806300.00 30909192.46 L 44841936.20 30899826.50 L 44859855.00 30887853.00 L 44904726.00 30878928.00 L 44949597.00 30887853.00 L 44967514.41 30899825.58 L 45003151.00 30909192.39 L 45038787.59 30899825.58 L 45056705.00 30887853.00 L 45101576.00 30878928.00 L 45130027.21 30884587.05 L 45164885.67 30850746.27 L 45167745.92 30844990.45 L 45142700.00 30784524.00 L 45095629.39 30723180.38 L 45063519.55 30686479.42 A 469572.21 469572.21 0 0 1 44925983.00 30354437.00 L 44928237.00 30354437.00 L 44928237.00 30008284.00 L 44926899.00 30008284.00 L 44939184.00 29946525.00 L 44974066.00 29894066.00 A 673693.62 673693.62 0 0 1 45450416.00 29696756.00 L 45450416.00 29698237.00 L 46466337.00 29698237.00 L 46466337.00 29696630.00 A 1093365.23 1093365.23 0 0 1 47109004.00 29905445.00 L 47234694.70 30012795.89 L 47239305.00 30014532.00 L 47270184.30 30042794.01 L 47608031.00 30043150.00 L 47608031.00 30537845.00 L 48594942.53 30537845.00 L 48600901.00 30535104.00 L 48624813.82 30533816.55 L 48645906.46 30527818.54 L 48659367.00 30514358.00 L 48718174.00 30490000.00 L 48737210.88 30490000.00 L 48749313.28 30484120.39 L 48773248.00 30464212.00 L 48779715.21 30461673.23 L 48920694.00 30320694.00 L 48957080.00 30296382.00 L 49000000.00 30287845.00 L 49259379.00 30287845.00 L 49265689.00 30285071.00 L 49303999.76 30283390.01 L 49329842.86 30278552.14 L 49334014.00 30268482.00 L 49339658.88 30261125.50 L 49342388.00 30254537.00 L 49345798.47 30253124.30 L 49375816.00 30214005.00 A 263014.80 263014.80 0 0 1 49561811.00 30136963.00 L 50538189.00 30136963.00 A 263050.41 263050.41 0 0 1 50538189.00 30663037.00 L 49561811.00 30663037.00 A 263050.41 263050.41 0 0 1 49375816.00 30585995.00 L 49347758.74 30549430.35 L 49342388.00 30545463.00 L 49339658.88 30538874.50 L 49334014.00 30531518.00 L 49329842.95 30521448.08 L 49327346.34 30520613.38 L 49286106.43 30515367.81 L 49265689.00 30514929.00 L 49259379.00 30512155.00 L 49046456.13 30512155.00 L 48938947.09 30619664.47 L 48936672.00 30625816.00 L 48920667.92 30643642.50 L 48910000.00 30662790.12 L 48910000.00 30681826.00 A 163131.20 163131.20 0 0 1 48659367.00 30785642.00 L 48645906.46 30772181.46 L 48633193.29 30767780.76 L 48602190.00 30764933.00 L 48595821.13 30762155.00 L 47000000.00 30762156.00 L 46957080.00 30753618.00 L 46920691.99 30729302.99 L 46826761.50 30635373.50 L 46825403.23 30636730.23 L 46806970.78 30618444.02 L 46794631.51 30603508.12 L 46757556.19 30565227.34 L 46744160.83 30556850.00 L 46582520.00 30556850.00 L 46582012.00 30394922.00 L 46574919.56 30391763.00 L 46195923.43 30391763.00 L 46188346.00 30394934.25 L 46188346.00 30547008.00 L 46113994.28 30547008.00 L 46093283.43 30597008.43 L 46095642.00 30599367.00 A 163138.59 163138.59 0 0 1 46050633.00 30825642.00 L 46044445.74 30828204.78 L 46034873.37 30858768.18 L 46060257.57 30884014.05 L 46085828.00 30878928.00 L 46130699.00 30887853.00 L 46140245.44 30894232.02 L 46174405.91 30885165.75 L 46194573.18 30870398.38 L 46195544.00 30863640.00 L 46200782.51 30855717.37 L 46203547.00 30834719.00 L 46212910.87 30812112.78 L 46212184.00 30802557.00 L 46216102.22 30789568.62 L 46219250.74 30764141.61 L 46216979.00 30735053.00 L 46220000.00 30723387.45 L 46220000.00 30678174.00 A 163131.20 163131.20 0 1 1 46470633.00 30845642.00 L 46405550.00 30872926.00 L 46387431.39 30877915.28 L 46382765.03 30896010.99 L 46383147.35 30926497.24 L 46389013.00 30941723.00 L 46393405.23 30963372.28 L 46398300.00 30975189.00 L 46396581.04 30979338.84 L 46399931.00 30996181.00 L 46399931.00 31594841.00 A 117244.38 117244.38 0 0 1 46237807.00 31703169.00 L 46219889.59 31691196.42 L 46184253.00 31681829.61 L 46148616.41 31691196.42 L 46130699.00 31703169.00 L 46085828.00 31712094.00 L 46040957.00 31703169.00 L 46023039.59 31691196.42 L 45987403.00 31681829.61 L 45951766.41 31691196.42 L 45933849.00 31703169.00 L 45888978.00 31712094.00 L 45844107.00 31703169.00 L 45826189.59 31691196.42 L 45790553.00 31681829.61 L 45754916.41 31691196.42 L 45736999.00 31703169.00 A 117258.39 117258.39 0 0 1 45574875.00 31594841.00 L 45574875.00 31410701.95 L 45554809.00 31396982.86 L 45554809.00 30996181.00 L 45537372.00 30954086.00 L 45534844.02 30953038.84 L 45528585.00 30930213.00 L 45527749.00 30515991.36 L 45530077.00 30506640.00 L 45536077.00 30494400.00 L 45544610.33 30487008.00 L 45619227.61 30487008.00 L 45611939.09 30504601.78 L 45605839.00 30525365.00 L 45602607.86 30527128.80 L 45601199.00 30530530.00 L 45590702.81 30534877.78 L 45590199.00 30547483.00 L 45587040.00 30554585.43 L 45587040.00 30635110.29 L 45637040.19 30642522.69 L 45676938.35 30510913.97 L 45676200.00 30502401.00 L 45683290.00 30480141.00 L 45693401.38 30456608.76 L 45694330.00 30052992.00 L 46188346.00 30052992.00 L 46188821.00 30205078.00 L 46195923.43 30208237.00 L 46574918.71 30208237.00 L 46582520.00 30205064.61 L 46582520.00 30043150.00 L 46882837.54 30043150.00 L 46895361.99 29993149.70 L 46814341.00 29949843.00 L 46643748.00 29898094.00 L 46470176.93 29880999.19 L 45450416.00 29881763.00 L 45323697.00 29897494.00 L 45205614.00 29946406.00 L 45113579.85 30017025.63 L 45111763.00 30021411.60 L 45112579.00 30354437.00 L 45122221.00 30427679.00 L 45150492.00 30495929.00 L 45195915.26 30554085.32 L 45279022.00 30655351.00 L 45340776.00 30770884.00 L 45353513.81 30812874.75 L 45403514.00 30805457.90 L 45403514.00 30554585.43 L 45400355.00 30547483.00 L 45399851.19 30534877.78 L 45389355.00 30530530.00 L 45387946.14 30527128.80 L 45384715.00 30525365.00 L 45378614.91 30504601.78 L 45371327.14 30487008.00 L 45446077.00 30487056.00 L 45450577.00 30490116.00 L 45457777.00 30499908.00 L 45462577.00 30514596.00 L 45462805.00 30925001.72 L 45455709.98 30953038.84 L 45453182.00 30954086.00 L 45435745.00 30996181.00 L 45435745.00 31396982.86 L 45415679.00 31410701.95 L 45415679.00 31594841.00 A 117244.38 117244.38 0 0 1 45253555.00 31703169.00 L 45235637.59 31691196.42 L 45200001.00 31681829.61 L 45164364.41 31691196.42 L 45146447.00 31703169.00 L 45101576.00 31712094.00 L 45056705.00 31703169.00 L 45038787.59 31691196.42 L 45003151.00 31681829.61 L 44967514.41 31691196.42 L 44949597.00 31703169.00 L 44904726.00 31712094.00 L 44859855.00 31703169.00 L 44841936.20 31691195.50 L 44806300.00 31681829.54 L 44770663.80 31691195.50 L 44752745.00 31703169.00 L 44707874.00 31712094.00 L 44663003.00 31703169.00 L 44645085.59 31691196.42 L 44609449.00 31681829.61 L 44573812.41 31691196.42 L 44555895.00 31703169.00 L 44511024.00 31712094.00 L 44466153.00 31703169.00 L 44448235.59 31691196.42 L 44412599.00 31681829.61 L 44376962.41 31691196.42 L 44359045.00 31703169.00 L 44314174.00 31712094.00 L 44269303.00 31703169.00 L 44255293.21 31693807.54 L 44197022.65 31707948.52 L 44192400.00 31719170.00 L 44182727.72 31730468.89 L 44165920.27 31770000.00 L 44199091.00 31849035.00 L 44209087.00 31932535.00 L 44209087.00 33688041.00 L 45682721.00 33688041.00 L 45682721.00 33686486.00 L 45789042.00 33700483.00 L 45888118.00 33741522.00 L 46011084.96 33836043.91 L 46052070.00 33863429.00 L 46143432.74 33881602.00 L 46380338.66 33880717.00 L 46387243.00 33877739.00 L 46415440.98 33877330.00 L 46455139.89 33873919.55 L 46466038.80 33873204.15 L 46484167.00 33867054.00 L 46488316.84 33868772.96 L 46505159.00 33865423.00 L 46677269.97 33865423.00 L 46692509.62 33845358.00 L 47103819.00 33845358.00 L 47143014.64 33829122.00 L 47183315.65 33828427.52 L 47208690.62 33838938.59 L 47211283.33 33841401.30 L 47242568.00 33888221.00 L 47253553.37 33943449.50 L 47252767.00 35323752.64 L 47249663.00 35336160.00 L 47241663.00 35352400.00 L 47230463.00 35362144.00 L 47152113.14 35362992.00 L 47165778.11 35324466.01 L 47168739.23 35322854.09 L 47170141.00 35319470.00 L 47188934.60 35311685.24 L 47191141.00 35282509.00 L 47194104.00 35275849.51 L 47194104.00 34120793.86 L 47151869.75 34093090.41 L 47144103.50 34091916.27 L 47103819.00 34099929.00 L 46909714.85 34099929.00 L 46908859.00 34119213.00 L 46905896.00 34125872.49 L 46905896.00 35275849.51 L 46908859.00 35282509.00 L 46909819.03 35302992.00 L 47050945.00 35302992.00 L 47050945.00 35797008.00 L 46556929.00 35797008.00 L 46556929.00 35655882.09 L 46536446.00 35654922.00 L 46529786.51 35651959.00 L 46270213.49 35651959.00 L 46263554.00 35654922.00 L 46243071.00 35655882.03 L 46243071.00 35797008.00 L 45749055.00 35797008.00 L 45749054.05 35302992.61 L 45707685.45 35282155.00 L 45287638.65 35282155.00 L 45248116.83 35311087.40 L 44957000.00 35603447.00 L 44848347.00 35692616.00 L 44728489.11 35756680.86 L 44724624.00 35760370.00 L 44695379.59 35772529.41 L 44672557.87 35786914.97 L 44667480.00 35795952.93 L 44667480.00 35996220.00 L 44320954.91 35996220.00 L 44266025.47 36044898.12 L 44231164.44 36080749.43 A 524884.40 524884.40 0 0 1 43860000.00 36234491.00  zM 45770000.00 33199995.92 m -163138.59 0 a 163138.59 163138.59 0 1 1 326277.17 0a 163138.59 163138.59 0 1 1 -326277.17 0M 45770000.00 32499995.92 m -163138.59 0 a 163138.59 163138.59 0 1 1 326277.17 0a 163138.59 163138.59 0 1 1 -326277.17 0M 48267873.00 32667480.00 L 47793543.00 32667480.00 L 47793543.00 32536353.42 L 47743568.00 32529774.00 L 47733208.81 32525483.02 L 47726142.00 32526252.00 L 47705691.16 32521404.82 L 47686421.42 32519980.35 L 47657106.00 32522693.00 L 47646124.03 32520000.00 L 47598174.00 32520000.00 A 163131.20 163131.20 0 1 1 47720633.00 32224358.00 L 47743542.59 32247267.59 L 47793543.60 32232520.00 L 48267873.00 32232520.00 L 48267873.00 32667480.00  zM 47440012.86 35362992.00 L 47364030.16 35362992.00 L 47355663.00 35358084.00 L 47346063.00 35345092.00 L 47339663.00 35325604.00 L 47339359.00 33945348.00 L 47340597.00 33945348.00 L 47322637.00 33855056.00 L 47270615.00 33779385.00 L 47229450.00 33752935.00 L 47181639.00 33742530.00 L 47143014.64 33742530.00 L 47103819.00 33726294.00 L 46692509.62 33726294.00 L 46677269.97 33706229.00 L 46505159.00 33706229.00 A 117244.38 117244.38 0 0 1 46396831.00 33544105.00 L 46408804.04 33526186.90 L 46418170.43 33490550.50 L 46408804.04 33454914.10 L 46396831.00 33436996.00 L 46387906.00 33392125.00 L 46396831.00 33347254.00 L 46408803.58 33329336.59 L 46418170.39 33293700.00 L 46408803.58 33258063.41 L 46396831.00 33240146.00 L 46387906.00 33195275.00 L 46396831.00 33150404.00 L 46408804.04 33132485.90 L 46418170.43 33096849.50 L 46408804.04 33061213.10 L 46396831.00 33043295.00 L 46387906.00 32998424.00 L 46396831.00 32953553.00 L 46408803.58 32935635.59 L 46418170.39 32899999.00 L 46408803.58 32864362.41 L 46396831.00 32846445.00 L 46387906.00 32801574.00 L 46396831.00 32756703.00 L 46408803.58 32738785.59 L 46418170.39 32703149.00 L 46408803.58 32667512.41 L 46396831.00 32649595.00 L 46387906.00 32604724.00 L 46396831.00 32559853.00 L 46408804.04 32541934.90 L 46418170.43 32506298.50 L 46408804.04 32470662.10 L 46396831.00 32452744.00 L 46387906.00 32407873.00 L 46396831.00 32363002.00 L 46408803.58 32345084.59 L 46418170.39 32309448.00 L 46408803.58 32273811.41 L 46396831.00 32255894.00 L 46387906.00 32211023.00 L 46396831.00 32166152.00 L 46408804.04 32148233.90 L 46418170.43 32112597.50 L 46408804.04 32076961.10 L 46396831.00 32059043.00 L 46387906.00 32014172.00 L 46396831.00 31969301.00 L 46408803.58 31951383.59 L 46418170.39 31915747.00 L 46408803.58 31880110.41 L 46396831.00 31862193.00 A 117258.39 117258.39 0 0 1 46505159.00 31700069.00 L 47103819.00 31700069.00 L 47126558.85 31704592.04 L 47134224.00 31704089.00 L 47137106.55 31706616.38 L 47159856.46 31694969.35 L 47213390.00 31641435.00 L 47287528.00 31546000.00 L 47325918.89 31453315.06 L 47326578.85 31444845.27 L 47325484.69 31437489.24 L 47313620.00 31419556.00 L 47311243.55 31411243.55 L 47304991.00 31404991.00 A 163138.59 163138.59 0 1 1 47576275.00 31404991.00 L 47552385.99 31428880.01 L 47546224.00 31441059.00 L 47534278.53 31451794.13 L 47519668.40 31470199.80 L 47511335.00 31489990.00 L 47503521.26 31499311.87 L 47484468.00 31562122.00 L 47424638.00 31674055.00 L 47343163.00 31771208.00 L 47279156.40 31835213.63 L 47279156.38 31839459.25 L 47296963.90 31887696.03 L 47310458.00 31886367.00 L 47477281.00 31835761.00 L 47631027.00 31753583.00 L 47762032.35 31646068.75 L 47778189.00 31628553.00 L 47778189.00 31332520.00 L 48252519.00 31332520.00 L 48252519.00 31767480.00 L 47960197.38 31767480.00 L 47924282.45 31801487.47 A 1113435.71 1113435.71 0 0 1 47311147.00 32113896.00 L 47280334.80 32116320.94 L 47272278.00 32120874.00 L 47243418.89 32122955.90 L 47224379.44 32149255.84 L 47213928.82 32175110.19 L 47221072.00 32211023.00 L 47212147.00 32255894.00 L 47200174.42 32273811.41 L 47190807.61 32309448.00 L 47200174.42 32345084.59 L 47212147.00 32363002.00 L 47221072.00 32407873.00 L 47212147.00 32452744.00 L 47200173.96 32470662.10 L 47190807.57 32506298.50 L 47200173.96 32541934.90 L 47212147.00 32559853.00 L 47221072.00 32604724.00 L 47212147.00 32649595.00 L 47200174.42 32667512.41 L 47190807.61 32703149.00 L 47200174.42 32738785.59 L 47212147.00 32756703.00 L 47221072.00 32801574.00 L 47212147.00 32846445.00 L 47200174.42 32864362.41 L 47190807.61 32899999.00 L 47200174.42 32935635.59 L 47212147.00 32953553.00 L 47221072.00 32998424.00 L 47212147.00 33043295.00 L 47200173.96 33061213.10 L 47190807.57 33096849.50 L 47200173.96 33132485.90 L 47212147.00 33150404.00 L 47221072.00 33195275.00 L 47212147.00 33240146.00 L 47200174.42 33258063.41 L 47190807.61 33293700.00 L 47200174.42 33329336.59 L 47212147.00 33347254.00 L 47221072.00 33392125.00 L 47212147.00 33436996.00 L 47200173.96 33454914.10 L 47190807.57 33490550.50 L 47200173.96 33526186.90 L 47212147.00 33544105.00 L 47221072.00 33588976.00 L 47212147.00 33633847.00 L 47210087.76 33636928.73 L 47233099.71 33692486.22 L 47252861.00 33696417.00 L 47312489.00 33737511.00 L 47359199.00 33798385.00 L 47388563.00 33869274.00 L 47398022.00 33945348.00 L 47398022.00 35275849.51 L 47400985.00 35282509.00 L 47403191.40 35311685.24 L 47421985.00 35319470.00 L 47423387.27 35322855.28 L 47426604.00 35324609.00 L 47432718.62 35345382.60 L 47440012.86 35362992.00  zM 48267873.00 33567480.00 L 47793543.00 33567480.00 L 47793543.00 33528060.53 L 47743542.48 33496862.96 L 47711826.00 33510000.00 A 163138.59 163138.59 0 1 1 47711826.00 33190000.00 L 47743542.48 33203137.04 L 47793543.00 33171939.47 L 47793543.00 33132520.00 L 48267873.00 33132520.00 L 48267873.00 33567480.00  zM 48921811.00 31767480.00 L 48447481.00 31767480.00 L 48447481.00 31332520.00 L 48797819.81 31332520.00 L 48805464.00 31330544.00 L 48885644.18 31325998.42 L 48955784.00 31319255.00 L 48962099.50 31321664.01 L 49254581.97 31305082.57 L 49260725.00 31301956.00 L 49298940.87 31298107.29 L 49324315.20 31291897.24 L 49334014.00 31268482.00 A 263053.89 263053.89 0 0 1 49561811.00 31136963.00 L 50538189.00 31136963.00 A 263050.41 263050.41 0 0 1 50538189.00 31663037.00 L 49561811.00 31663037.00 A 263050.41 263050.41 0 0 1 49375816.00 31585995.00 L 49354486.25 31558197.75 L 49352055.00 31557347.00 L 49349057.26 31551122.61 L 49335622.49 31533614.21 L 49293963.84 31530737.30 L 49273457.00 31531461.00 L 49266996.42 31529048.53 L 48971862.56 31545780.28 L 48965811.00 31548895.00 L 48948661.48 31550315.53 L 48921811.00 31555729.87 L 48921811.00 31767480.00  zM 48937165.00 32667480.00 L 48462835.00 32667480.00 L 48462835.00 32232520.00 L 48937165.00 32232520.00 L 48938007.66 32281929.68 L 48977653.00 32285078.00 L 48983870.77 32287845.00 L 49259379.00 32287845.00 L 49265689.00 32285071.00 L 49303999.76 32283390.01 L 49329842.86 32278552.14 L 49334014.00 32268482.00 L 49339658.88 32261125.50 L 49342388.00 32254537.00 L 49345798.47 32253124.30 L 49375816.00 32214005.00 A 263014.80 263014.80 0 0 1 49561811.00 32136963.00 L 50538189.00 32136963.00 A 263050.41 263050.41 0 0 1 50538189.00 32663037.00 L 49561811.00 32663037.00 A 263050.41 263050.41 0 0 1 49375816.00 32585995.00 L 49347758.74 32549430.35 L 49342388.00 32545463.00 L 49339658.88 32538874.50 L 49334014.00 32531518.00 L 49329842.95 32521448.08 L 49327346.34 32520613.38 L 49286106.43 32515367.81 L 49265689.00 32514929.00 L 49259379.00 32512155.00 L 48983870.77 32512155.00 L 48977653.00 32514922.00 L 48937165.00 32518294.56 L 48937165.00 32667480.00  zM 47778189.47 34517480.88 L 47744297.05 34494834.46 L 47731826.00 34500000.00 A 163138.59 163138.59 0 1 1 47731825.18 34180000.00 L 47778189.00 34145083.71 L 47778189.00 34082520.00 L 48252519.00 34082520.00 L 48252519.00 34517480.00 L 47778189.47 34517480.88  zM 50798976.00 35660787.00 L 49301024.00 35660787.00 L 49301024.00 35350408.23 L 49299011.00 35346897.00 L 49300421.20 35341696.64 L 49298510.00 35336658.00 L 49301024.00 35331071.05 L 49300936.34 35315486.02 L 49262650.84 35276275.16 L 49242901.00 35259359.00 L 49238352.83 35251994.17 L 49095374.00 35133809.00 L 49079140.00 35121688.00 L 49046226.37 35074030.50 L 48781220.13 34586426.78 L 48778417.00 34584892.00 L 48776859.51 34579564.61 L 48772487.00 34576144.00 L 48759354.18 34552897.16 L 48735441.71 34517480.00 L 48731467.00 34519651.00 L 48726806.46 34518283.15 L 48722259.00 34519984.00 L 48716762.38 34517480.00 L 48447481.00 34517480.00 L 48447481.00 34082520.00 L 48899128.21 34082520.00 L 48935385.60 34038142.33 L 48774229.96 33629090.49 L 48769299.00 33624157.00 L 48742747.06 33569909.68 L 48735735.56 33567480.00 L 48462835.00 33567480.00 L 48462835.00 33132520.00 L 48937165.00 33132520.00 L 48937165.00 33294563.75 L 48938652.00 33296867.00 L 48937165.00 33303772.89 L 48937165.00 33404331.46 L 48960891.77 33482084.29 L 48973351.00 33514967.00 L 48973135.83 33522013.87 L 49182430.60 34053255.24 L 49185942.00 34054710.00 L 49188108.94 34059941.46 L 49353900.52 34153651.84 L 49360760.00 34154342.00 L 49394927.76 34171724.55 L 49419828.68 34180231.99 L 49430292.00 34172203.00 L 49442673.00 34165494.00 L 49445610.07 34165858.22 L 49493732.00 34145926.00 L 49561811.00 34136963.00 L 50538189.00 34136963.00 A 263050.41 263050.41 0 0 1 50538189.00 34663037.00 L 49561811.00 34663037.00 A 263050.41 263050.41 0 0 1 49307737.00 34468079.00 L 49301976.37 34424323.80 L 49299244.00 34418293.00 L 49300184.11 34410710.60 L 49298774.00 34400000.00 L 49299914.51 34391337.18 L 49298359.55 34389619.70 L 49264893.42 34364693.51 L 49247273.00 34354231.00 L 49243143.47 34348710.63 L 49070068.00 34250883.00 L 49060302.91 34242475.95 L 49023060.00 34217592.00 L 48976644.15 34148127.77 L 48975906.52 34144416.42 L 48971811.54 34143897.56 L 48921811.00 34187202.53 L 48921811.00 34274583.95 L 48923982.00 34280695.00 L 48921811.00 34288092.03 L 48921811.00 34353467.57 L 48929455.41 34374744.74 L 48951344.31 34422752.24 L 48965808.00 34450417.00 L 48966432.05 34457407.10 L 49217995.08 34921589.01 L 49243802.75 34963099.96 L 49278254.68 34993955.09 L 49386590.90 35083505.77 L 49392990.00 35085229.00 L 49435692.86 35118081.64 L 49470561.85 35139213.00 L 49504275.01 35139213.00 L 49510903.00 35136699.00 L 49515849.54 35138924.77 L 49521161.00 35137829.00 L 49523264.69 35139213.00 L 50798976.00 35139213.00 L 50798976.00 35660787.00  z"/>
<path id="N" d="M 43826594.06 35957844.65 L 43793205.00 35935535.00 L 43745138.00 35863597.00 L 43728259.00 35778740.00 L 43728259.00 35621260.00 A 221742.90 221742.90 0 0 1 43950000.00 35399519.00 L 43964354.92 35402374.35 L 43984974.41 35380860.79 L 44026229.31 35343998.69 L 44181357.62 35188870.38 L 44156726.94 35142789.89 L 44150000.00 35144128.00 L 44150000.00 35141763.00 L 43920711.00 35142250.00 A 262963.28 262963.28 0 0 1 43734769.00 35065231.00 L 43733728.00 35066272.00 L 43664575.00 34976151.00 L 43649636.93 34940087.41 L 43641117.00 34932227.00 L 43635186.08 34920165.68 L 43620257.54 34899700.66 L 43598722.00 34880177.00 L 43574973.04 34837672.93 L 43588738.52 34788797.02 L 43604077.35 34780347.40 L 43605802.00 34789018.00 L 43627904.00 34822096.00 L 43641126.62 34830931.07 L 43662493.00 34849810.00 L 43681440.00 34872139.00 L 43691702.00 34888121.00 L 43716985.00 34945892.00 L 43776007.00 35023993.00 L 43842398.00 35068354.00 L 43920711.00 35083932.00 L 43920711.00 35082472.00 L 44150000.00 35082953.00 L 44208805.00 35071256.00 L 44258317.71 35037604.29 L 44272961.00 35022961.00 L 44274664.00 35024664.00 L 44329721.00 34942265.00 L 44338025.92 34900512.73 L 44351611.40 34847841.32 L 44356269.00 34845912.00 L 44373706.00 34803817.00 L 44373706.00 34205157.00 A 59533.64 59533.64 0 0 0 44254642.00 34205157.00 L 44254642.00 34803817.00 L 44273375.05 34846448.86 L 44277020.00 34869269.00 L 44268492.00 34916904.00 L 44228798.90 34976310.01 L 44211794.00 34991083.00 L 44183443.00 35010027.00 L 44150000.00 35017528.00 L 43920497.35 35017616.50 L 43867759.00 35007126.00 L 43822748.55 34976951.00 L 43773763.00 34913112.00 L 43755520.73 34869071.42 L 43758611.00 34847339.00 L 43766197.00 34830003.00 L 43794198.00 34789018.00 L 43800752.85 34756063.84 L 43816795.78 34760040.59 L 43842221.62 34803519.54 L 43830478.00 34850863.00 L 43820506.40 34867540.37 L 43822302.48 34874192.04 L 43836868.57 34895991.71 L 43866127.64 34933873.43 L 43891170.00 34950607.00 L 43920711.00 34956483.00 L 43920711.00 34958237.00 L 44028806.27 34958237.00 L 44036775.09 34948440.67 L 44034413.52 34886726.28 L 44008996.00 34848688.00 L 44000071.00 34803817.00 L 44000071.00 34205157.00 L 44003420.96 34188314.84 L 44001702.00 34184165.00 L 44006596.77 34172348.28 L 44011280.00 34150219.00 L 44019090.46 34132143.96 L 44022392.92 34099195.72 L 43983199.63 34068599.02 L 43975560.55 34067051.01 L 43939714.00 34091004.00 L 43894843.00 34099929.00 L 43296183.00 34099929.00 L 43251312.00 34091004.00 L 43228416.17 34075704.80 L 43204886.00 34084886.00 L 43159307.00 34130606.00 A 366818.70 366818.70 0 0 0 43051763.00 34390000.00 L 43051763.00 34543726.00 A 445710.39 445710.39 0 0 0 43183203.09 34863989.50 L 43221993.00 34902221.00 L 43223129.00 34901085.00 A 1093348.00 1093348.00 0 0 1 43489857.00 35336344.00 L 43500517.72 35380749.20 L 43507308.00 35389606.00 L 43514293.93 35412307.78 L 43534857.00 35416398.00 A 221735.85 221735.85 0 0 1 43671741.00 35621260.00 L 43671741.00 35778740.00 L 43654862.00 35863597.00 L 43606795.00 35935535.00 L 43573405.94 35957844.65 L 43588573.27 36007845.00 L 43811426.73 36007845.00 L 43826594.06 35957844.65  z"/>
<path id="N" d="M 46342210.00 31594841.00 L 46342210.00 30996181.00 L 46324773.00 30954086.00 L 46322983.33 30953344.67 L 46317874.00 30928584.00 L 46325330.00 30867351.00 L 46338890.46 30834612.40 L 46355804.00 30821031.00 L 46373169.00 30813621.00 L 46419018.00 30804198.00 A 101959.21 101959.21 0 1 0 46278041.00 30710000.00 L 46281445.72 30727117.06 L 46284200.00 30756732.00 L 46282713.00 30785997.00 L 46276833.00 30813829.00 L 46262003.00 30850382.00 L 46251579.00 30924889.00 L 46243141.55 30953026.17 L 46240583.00 30954086.00 L 46223146.00 30996181.00 L 46223146.00 31594841.00 A 59533.64 59533.64 0 0 0 46342210.00 31594841.00  z"/>
<path id="N" d="M 48207873.00 32292520.00 L 47853543.00 32292520.00 L 47853543.00 32417528.00 L 47776200.00 32407991.00 L 47756004.94 32399626.07 L 47741401.00 32382645.00 L 47733719.00 32365516.00 L 47724198.00 32320982.00 A 101959.21 101959.21 0 1 0 47630000.00 32461959.00 L 47647838.48 32458410.78 L 47677774.00 32455172.00 L 47707103.00 32456089.00 L 47734603.53 32461116.67 L 47759232.00 32471318.00 L 47853543.00 32482472.00 L 47853543.00 32607480.00 L 48207873.00 32607480.00 L 48207873.00 32292520.00  z"/>
<path id="N" d="M 41583306.00 35403150.00 L 41268346.00 35403150.00 L 41268346.00 35510066.67 L 41265546.00 35518000.00 L 41260546.00 35525500.00 L 41253546.00 35532000.00 L 41244546.00 35537500.00 L 41220546.00 35545500.00 L 40854495.36 35545880.00 L 40839032.00 35542000.00 L 40818792.00 35532000.00 L 40811708.00 35525500.00 L 40805000.00 35513386.03 L 40805000.00 35445000.00 L 40495000.00 35445000.00 L 40495000.00 35755000.00 L 40805000.00 35755000.00 L 40805000.00 35686613.97 L 40811708.00 35674500.00 L 40818792.00 35668000.00 L 40827900.00 35662500.00 L 40852188.00 35654500.00 L 41218266.00 35654120.00 L 41233546.00 35658000.00 L 41253546.00 35668000.00 L 41260546.00 35674500.00 L 41265546.00 35682000.00 L 41268346.00 35689933.33 L 41268346.00 35796850.00 L 41583306.00 35796850.00 L 41583306.00 35403150.00  z"/>
<path id="N" d="M 47145914.00 31859417.00 L 47149154.74 31851593.47 L 47171619.25 31837425.12 L 47175300.00 31836693.00 L 47235108.00 31795412.00 L 47301489.00 31729534.00 L 47374508.00 31640559.00 L 47428766.00 31539049.00 L 47452474.17 31460894.07 L 47459435.00 31444866.00 L 47474890.00 31420968.00 L 47495751.00 31398800.00 L 47512729.00 31386454.00 A 101958.15 101958.15 0 1 0 47368537.00 31386454.00 L 47371987.89 31388759.81 L 47382105.00 31405075.00 L 47390800.00 31430873.00 L 47391014.79 31452948.67 L 47339938.00 31576258.00 L 47258892.72 31681878.18 L 47255315.00 31683360.00 L 47189036.00 31749340.00 L 47165730.40 31764912.04 L 47143481.85 31774219.53 L 47103819.00 31757790.00 L 46505159.00 31757790.00 A 59533.64 59533.64 0 0 0 46505159.00 31876854.00 L 47103819.00 31876854.00 L 47145914.00 31859417.00  z"/>
<path id="N" d="M 48877165.00 32486613.97 L 48883873.00 32474500.00 L 48890957.00 32468000.00 L 48900065.00 32462500.00 L 48924353.00 32454500.00 L 49328909.00 32454459.00 L 49358003.00 32462385.00 L 49370879.63 32469326.89 L 49372673.00 32478343.00 A 204718.14 204718.14 0 0 0 49561811.00 32604721.00 L 50538189.00 32604721.00 A 204721.07 204721.07 0 0 0 50538189.00 32195279.00 L 49561811.00 32195279.00 A 204721.07 204721.07 0 0 0 49372673.00 32321657.00 L 49370879.63 32330673.11 L 49358003.00 32337615.00 L 49328909.00 32345541.00 L 48926660.36 32345880.00 L 48911197.00 32342000.00 L 48890957.00 32332000.00 L 48883873.00 32325500.00 L 48877165.00 32313386.03 L 48877165.00 32292520.00 L 48522835.00 32292520.00 L 48522835.00 32607480.00 L 48877165.00 32607480.00 L 48877165.00 32486613.97  z"/>
<path id="N" d="M 45357958.00 31594841.00 L 45357958.00 30996181.00 L 45340521.00 30954086.00 L 45331184.56 30950218.57 L 45321361.32 30925158.92 L 45319672.00 30908007.00 A 607980.34 607980.34 0 0 0 45153284.00 30596716.00 L 45098082.00 30526188.00 L 45063766.00 30443342.00 L 45052472.00 30354437.00 L 45052365.00 30008025.69 L 45064613.69 29978971.15 L 45175355.00 29893996.00 L 45308034.00 29839039.00 L 45446426.09 29820819.28 L 45450416.00 29822472.00 L 46466337.00 29822472.00 L 46470512.80 29820742.28 L 46655510.00 29838963.00 L 46837413.00 29894143.00 L 47005056.00 29983750.00 L 47148753.15 30101677.87 L 47150483.00 30105854.00 L 47218258.00 30173952.00 L 47233071.00 30200533.55 L 47233071.00 30496850.00 L 47548031.00 30496850.00 L 47548031.00 30103150.00 L 47242580.72 30103150.00 L 47233400.00 30096604.00 L 47196405.00 30059932.00 L 47198181.00 30058156.00 A 1034983.13 1034983.13 0 0 0 46466337.00 29755016.00 L 46466337.00 29757528.00 L 45450416.00 29757046.00 A 613383.80 613383.80 0 0 0 45109646.00 29860417.00 L 45017039.00 29937039.00 L 44995703.00 29969936.00 L 44987528.00 30008284.00 L 44987528.00 30354437.00 L 44986500.00 30354437.00 L 45000438.00 30460310.00 L 45041304.00 30558968.00 L 45107039.00 30642961.00 L 45110943.38 30644578.29 L 45195110.00 30754265.00 L 45249526.00 30885637.00 L 45256938.19 30941938.91 L 45255004.60 30957288.08 L 45238894.00 30996181.00 L 45238894.00 31594841.00 A 59533.64 59533.64 0 0 0 45357958.00 31594841.00  z"/>
<path id="N" d="M 50538189.00 34195279.00 L 49561811.00 34195279.00 L 49483468.00 34210862.00 L 49431512.77 34245577.05 L 49415250.00 34245501.00 L 49386022.00 34238084.00 L 49152154.00 34105658.00 L 49140020.00 34100632.00 L 49131774.95 34083006.88 L 48885995.77 33459159.12 L 48877165.00 33430220.61 L 48877165.00 33192520.00 L 48522835.00 33192520.00 L 48522835.00 33507480.00 L 48781236.03 33507480.00 L 48797455.00 33530641.00 L 49031069.00 34122683.00 L 49066318.00 34174334.00 L 49091353.81 34191062.19 L 49098625.00 34200361.00 L 49332165.00 34332726.00 L 49353651.00 34353927.00 L 49363067.75 34369947.05 L 49357090.00 34400000.00 A 204721.07 204721.07 0 0 0 49561811.00 34604721.00 L 50538189.00 34604721.00 A 204718.14 204718.14 0 0 0 50538189.00 34195279.00  z"/>
<path id="N" d="M 47116884.21 32068292.00 L 47136968.00 32068292.00 L 47301732.00 32054452.00 L 47462439.00 32015869.00 L 47615132.00 31952622.00 L 47756051.00 31866267.00 L 47882344.00 31759548.00 L 47934412.00 31707480.00 L 48192519.00 31707480.00 L 48192519.00 31392520.00 L 47838189.00 31392520.00 L 47838189.00 31650627.00 L 47805806.00 31683010.00 L 47802822.71 31690212.09 L 47664522.00 31803712.00 L 47500353.00 31891462.00 L 47322220.00 31945498.00 L 47143082.24 31962584.52 L 47136968.00 31960052.00 L 47116884.21 31960052.00 L 47103819.00 31954640.00 L 46505159.00 31954640.00 A 59533.64 59533.64 0 0 0 46505159.00 32073704.00 L 47103819.00 32073704.00 L 47116884.21 32068292.00  z"/>
<path id="N" d="M 41980661.00 33342419.00 L 42017243.00 33342419.00 L 42052360.00 33334725.00 L 42082631.00 33315334.00 L 42102022.00 33285063.00 L 42110622.92 33246588.00 L 42401575.00 33246588.00 L 42401575.00 32833202.00 L 42047245.00 32833202.00 L 42047245.00 33232033.28 L 42044304.00 33249946.00 L 42036378.00 33269081.00 L 42017243.00 33277475.00 L 41980661.00 33277167.00 L 41936447.00 33268372.00 L 41898746.00 33243545.00 L 41535459.29 32880258.71 L 41536696.00 32879022.00 L 41434518.00 32800617.00 L 41315528.00 32751330.00 L 41195514.49 32735529.89 L 41187413.00 32732174.00 L 41187413.00 32734950.36 L 41184299.00 32733660.49 L 41184299.00 32730315.00 L 41178058.00 32715249.00 L 41162992.00 32709008.00 L 41037008.00 32709008.00 L 41021942.00 32715249.00 L 41015701.00 32730315.00 L 41015701.00 32733660.49 L 41012587.00 32734950.36 L 41012587.00 32732174.00 L 41002703.64 32736268.00 L 40941390.36 32736268.00 L 40931507.00 32732174.00 L 40931507.00 32734950.36 L 40928393.00 32733660.49 L 40928393.00 32730315.00 L 40922152.00 32715249.00 L 40907086.00 32709008.00 L 40781102.00 32709008.00 L 40766036.00 32715249.00 L 40765249.44 32717147.79 L 40513829.85 32717528.00 L 40505548.00 32715812.00 L 40490895.00 32709280.00 L 40487040.00 32702331.00 L 40476870.00 32698119.00 L 40149114.00 32698119.00 L 40138944.00 32702331.00 L 40136285.88 32708749.11 L 40126152.00 32716991.00 L 40105934.00 32725873.00 L 40058817.00 32735570.00 L 39983520.00 32785883.00 L 39933207.00 32861180.00 L 39911366.00 32974440.00 A 63876.31 63876.31 0 0 1 39852362.00 33013865.00 L 39852362.00 33015166.00 L 39841646.00 33015166.00 L 39841646.00 33007776.00 L 39837434.00 32997606.00 L 39827264.00 32993394.00 L 39538878.00 32993394.00 L 39528708.00 32997606.00 L 39524496.00 33007776.00 L 39524496.00 33087500.00 L 39528708.00 33097670.00 L 39538878.00 33101882.00 L 39827264.00 33101882.00 L 39837434.00 33097670.00 L 39841646.00 33087500.00 L 39841646.00 33080110.00 L 39852362.00 33080139.00 A 130134.90 130134.90 0 0 0 39972595.00 32999802.00 L 39994437.00 32886542.00 L 40030382.00 32832745.00 L 40084179.00 32796800.00 L 40097688.33 32794112.74 L 40121164.00 32792550.00 L 40135298.00 32796249.00 L 40138944.00 32802395.00 L 40149114.00 32806607.00 L 40476870.00 32806607.00 L 40487040.00 32802395.00 L 40489798.01 32795735.71 L 40495602.00 32790523.00 L 40513371.00 32783436.00 L 40765335.68 32783060.41 L 40766036.00 32784751.00 L 40781102.00 32790992.00 L 40899001.64 32791842.00 L 40908885.00 32795936.00 L 40908885.00 32793159.64 L 40931507.00 32802530.00 L 40931507.00 32801212.00 L 41012587.00 32801212.00 L 41012587.00 32802530.00 L 41035209.00 32793159.64 L 41035209.00 32795936.00 L 41045092.36 32791842.00 L 41154907.64 32791842.00 L 41164791.00 32795936.00 L 41164791.00 32793159.64 L 41187413.00 32802530.00 L 41189909.73 32800353.01 A 423793.39 423793.39 0 0 1 41488678.87 32924106.92 L 41852102.00 33290189.00 L 41911085.00 33329601.00 L 41980661.00 33343440.00 L 41980661.00 33342419.00  z"/>
<path id="N" d="M 40804370.00 30102600.00 L 40808570.00 30094700.00 L 40818170.00 30087500.00 L 40832570.00 30082700.00 L 41238733.64 30082472.00 L 41248085.00 30084800.00 L 41260325.00 30090800.00 L 41267717.00 30099333.33 L 41267717.00 30207480.00 L 41582677.00 30207480.00 L 41582677.00 29892520.00 L 41267717.00 29892520.00 L 41267669.00 30000800.00 L 41264609.00 30005300.00 L 41254817.00 30012500.00 L 41240129.00 30017300.00 L 40833938.00 30017528.00 L 40818170.00 30012500.00 L 40808570.00 30005300.00 L 40804370.00 29997400.00 L 40804370.00 29853150.00 L 40489410.00 29853150.00 L 40489410.00 30246850.00 L 40804370.00 30246850.00 L 40804370.00 30102600.00  z"/>
<path id="N" d="M 43860520.27 36173904.50 A 463391.34 463391.34 0 0 0 44188477.00 36038061.00 L 44191405.77 36030990.08 L 44198477.00 36028061.00 L 44292520.00 35934639.01 L 44292520.00 35936220.00 L 44607480.00 35936220.00 L 44607480.00 35770603.45 L 44608924.00 35765723.00 L 44620455.00 35747237.00 L 44639674.00 35730089.00 L 44666581.00 35714279.00 L 44701314.00 35703173.00 L 44814851.00 35642486.00 L 44915046.00 35561492.00 L 45228268.29 35248268.29 L 45254742.00 35229733.00 L 45285397.94 35223634.95 L 45762721.00 35224120.00 L 45769346.19 35221375.85 L 45861155.00 35239638.00 L 45938986.27 35291642.41 L 45941943.00 35298780.00 L 45941943.00 35349683.35 L 45935852.81 35362992.00 L 45809055.00 35362992.00 L 45809055.00 35737008.00 L 46183071.00 35737008.00 L 46183071.00 35617967.16 L 46187979.00 35609600.00 L 46200971.00 35600000.00 L 46220459.00 35593600.00 L 46577689.64 35593296.00 L 46590097.00 35596400.00 L 46606337.00 35604400.00 L 46616081.00 35615600.00 L 46616929.00 35737008.00 L 46990945.00 35737008.00 L 46990945.00 35362992.00 L 46871904.16 35362992.00 L 46863537.00 35358084.00 L 46853937.00 35345092.00 L 46847537.00 35325604.00 L 46847233.00 34077969.36 L 46850337.00 34065562.00 L 46858337.00 34049322.00 L 46865650.30 34042208.00 L 47103819.00 34042208.00 A 59533.64 59533.64 0 0 0 47103819.00 33923144.00 L 46505159.00 33923144.00 L 46473421.32 33936290.69 L 46461139.00 33938832.00 L 46147882.00 33939380.00 L 46068115.00 33929812.00 L 45993784.00 33899023.00 L 45857859.00 33793931.00 L 45773379.00 33758938.00 L 45683779.18 33747142.31 L 44149796.00 33746704.00 L 44149458.84 31931721.04 L 44140635.00 31864698.00 L 44114451.00 31801484.00 L 44090292.21 31769999.62 L 44114451.00 31738516.00 L 44140635.00 31675302.00 L 44141393.29 31669542.24 L 44153058.35 31639570.77 L 44159419.00 31636936.00 L 44176856.00 31594841.00 L 44176856.00 30996181.00 A 59533.64 59533.64 0 0 0 44057792.00 30996181.00 L 44057792.00 31594841.00 L 44074093.19 31634194.02 L 44075249.00 31656938.00 L 44070187.40 31684739.59 L 44029142.60 31746167.64 L 43985139.00 31774979.00 L 43968095.00 31777706.00 L 43943092.00 31777066.00 L 43894843.00 31757790.00 L 43296183.00 31757790.00 L 43254088.00 31775227.00 L 43253040.84 31777754.98 L 43230215.00 31784014.00 L 43141819.00 31784311.00 L 43123480.00 31776520.00 L 43045892.00 31716985.00 L 42956653.56 31680021.66 L 42940081.00 31667445.00 L 42933071.00 31656858.03 L 42933071.00 31512992.00 L 42759200.00 31512944.00 L 42754700.00 31509884.00 L 42747500.00 31500092.00 L 42742700.00 31485404.00 L 42742759.00 31290000.00 A 322470.88 322470.88 0 0 0 42648108.00 31062186.00 L 42515854.00 30929932.00 L 42517630.00 30928156.00 A 1034983.13 1034983.13 0 0 0 41785786.00 30625016.00 L 41785786.00 30627528.00 L 41050000.00 30627528.00 L 41046520.49 30628969.30 L 40875286.00 30612104.00 L 40707287.00 30561142.00 L 40552458.00 30478384.00 L 40419452.31 30369229.54 L 40418011.00 30365750.00 L 40228632.00 30176048.00 L 40213819.00 30149466.45 L 40213819.00 29853150.00 L 39898859.00 29853150.00 L 39898859.00 30246850.00 L 40204309.28 30246850.00 L 40213490.00 30253396.00 L 40372088.00 30411672.00 L 40370564.00 30413196.00 A 960866.12 960866.12 0 0 0 41050000.00 30694627.00 L 41050000.00 30692472.00 L 41785786.00 30692472.00 L 41789961.80 30690742.28 L 41974959.00 30708963.00 L 42156862.00 30764143.00 L 42324505.00 30853750.00 L 42468202.15 30971677.87 L 42469932.00 30975854.00 L 42602186.00 31108108.00 L 42606201.58 31109771.18 L 42660222.00 31190619.00 L 42679191.29 31285984.57 L 42677528.00 31290000.00 L 42677528.00 31484008.64 L 42675200.00 31493360.00 L 42669200.00 31505600.00 L 42660666.67 31512992.00 L 42559055.00 31512992.00 L 42559055.00 31887008.00 L 42933071.00 31887008.00 L 42933071.00 31760388.19 L 42935873.00 31756828.00 L 42945121.00 31752404.00 L 42958993.00 31751874.00 L 43013112.00 31773763.00 L 43077039.00 31822961.00 L 43107038.00 31842150.00 L 43141819.00 31849794.00 L 43225003.72 31849794.00 L 43253040.84 31856889.02 L 43254088.00 31859417.00 L 43296183.00 31876854.00 L 43894843.00 31876854.00 L 43936938.00 31859417.00 L 43939192.07 31853975.40 L 43977687.16 31842734.12 L 44010501.00 31836207.00 L 44042962.42 31814516.87 L 44071019.00 31856505.00 L 44085723.51 31930431.05 L 44084852.00 34133977.72 L 44077756.98 34162014.84 L 44075229.00 34163062.00 L 44057792.00 34205157.00 L 44057792.00 34803817.00 A 59533.64 59533.64 0 0 0 44176856.00 34803817.00 L 44176856.00 34205157.00 L 44159419.00 34163062.00 L 44156891.02 34162014.84 L 44150632.00 34139189.00 L 44149796.00 33833296.00 L 45682721.00 33833296.00 L 45751190.00 33841751.00 L 45814992.00 33868179.00 L 45950918.00 33973270.00 L 46045926.00 34012623.00 L 46147882.00 34025972.00 L 46452693.32 34025972.00 L 46468816.00 34027908.00 L 46505159.00 34042208.00 L 46742223.70 34042208.00 L 46744337.00 34043638.00 L 46753937.00 34056630.00 L 46760337.00 34076118.00 L 46760641.00 35323752.64 L 46757537.00 35336160.00 L 46749537.00 35352400.00 L 46738337.00 35362144.00 L 46616929.00 35362992.00 L 46616929.00 35482032.84 L 46612021.00 35490400.00 L 46599029.00 35500000.00 L 46579541.00 35506400.00 L 46222310.36 35506704.00 L 46209903.00 35503600.00 L 46193663.00 35495600.00 L 46183919.00 35484400.00 L 46183071.00 35362992.00 L 46055927.00 35362728.00 L 46050183.00 35349683.35 L 46050183.00 35298780.00 L 46046208.19 35289183.63 L 46039980.00 35257872.00 L 46022243.87 35231327.50 L 46018269.00 35221731.00 A 376230.80 376230.80 0 0 0 45762721.00 35115880.00 L 45286569.00 35115880.00 L 45213773.00 35130825.00 L 45153888.25 35170838.41 L 44838507.71 35484954.71 L 44835584.03 35492012.88 L 44726643.00 35575607.00 L 44665284.00 35600872.00 L 44651173.00 35603377.00 L 44628597.00 35603283.00 L 44620131.00 35600685.00 L 44613546.00 35596386.00 L 44607480.00 35586667.49 L 44607480.00 35463780.00 L 44292520.00 35463780.00 L 44292520.00 35739085.19 L 44288288.00 35756941.00 L 44276752.00 35785160.00 L 44259524.00 35813510.00 L 44121939.00 35951523.00 L 44119009.92 35958594.23 L 44111939.00 35961523.00 L 44113486.00 35963070.00 L 44039242.00 36020039.00 L 43952782.00 36055852.00 L 43864006.58 36067539.52 L 43860000.00 36065880.00 L 42950591.00 36065880.00 L 42943389.80 36068862.73 L 42765339.00 36051326.00 L 42587206.00 35997290.00 L 42423037.00 35909540.00 L 42284735.78 35796039.68 L 42281751.29 35788837.29 L 42198430.52 35705516.16 L 42185346.00 35687137.00 L 42173857.00 35665449.93 L 42173857.00 35403150.00 L 41858897.00 35403150.00 L 41858897.00 35796850.00 L 42130858.47 35796850.00 L 42148491.00 35809080.00 L 42205216.00 35865376.00 L 42331508.00 35972095.00 L 42472427.00 36058450.00 L 42625120.00 36121697.00 L 42785827.00 36160280.00 L 42950591.00 36174120.00 L 43860520.27 36173904.50  zM 44450002.46 35699992.27 m -120431.73 0 a 120431.73 120431.73 0 1 1 240863.46 0a 120431.73 120431.73 0 1 1 -240863.46 0"/>
<path id="N" d="M 45751660.00 31594841.00 L 45751660.00 30996181.00 L 45734223.00 30954086.00 L 45731695.02 30953038.84 L 45725436.00 30930213.00 L 45725068.00 30786000.00 L 45728088.00 30778712.00 L 45725783.04 30778012.88 L 45806175.00 30513511.00 L 45820397.00 30494192.00 L 45831485.26 30487008.00 L 46128346.00 30487008.00 L 46128394.00 30349200.00 L 46131454.00 30344700.00 L 46141246.00 30337500.00 L 46155934.00 30332700.00 L 46612952.00 30332472.00 L 46628720.00 30337500.00 L 46638320.00 30344700.00 L 46642520.00 30352600.00 L 46642520.00 30496850.00 L 46769344.21 30496850.00 L 46780519.00 30501969.00 L 46799028.00 30515205.00 L 46831820.00 30547391.00 L 46866969.75 30592337.91 L 46961731.00 30688269.00 L 47000002.41 30704120.00 L 48646135.04 30704120.00 L 48657146.00 30707200.00 L 48673680.82 30715775.55 L 48677904.00 30722096.00 A 101958.15 101958.15 0 0 0 48851959.00 30650000.00 L 48850476.11 30642544.87 L 48851466.00 30637346.00 L 48859611.00 30618171.00 L 49022417.06 30454120.00 L 49328909.00 30454459.00 L 49358003.00 30462385.00 L 49370879.63 30469326.89 L 49372673.00 30478343.00 A 204718.14 204718.14 0 0 0 49561811.00 30604721.00 L 50538189.00 30604721.00 A 204721.07 204721.07 0 0 0 50538189.00 30195279.00 L 49561811.00 30195279.00 A 204721.07 204721.07 0 0 0 49372673.00 30321657.00 L 49370879.63 30330673.11 L 49358003.00 30337615.00 L 49328909.00 30345541.00 L 49000000.00 30345880.00 L 48961730.29 30361732.71 L 48785173.83 30538288.46 L 48775211.00 30543896.00 L 48757455.13 30549523.89 L 48750000.00 30548041.00 L 48710982.00 30555802.00 L 48677904.00 30577904.00 L 48673680.82 30584224.45 L 48669305.00 30587200.00 L 48649987.00 30595000.00 L 47022417.17 30595880.00 L 46944335.00 30517797.00 L 46941091.32 30516453.39 L 46934260.09 30507550.73 L 46935043.00 30501915.00 L 46940224.00 30497905.00 L 46957480.00 30496850.00 L 46957480.00 30103150.00 L 46642520.00 30103150.00 L 46642520.00 30247400.00 L 46638320.00 30255300.00 L 46628720.00 30262500.00 L 46614320.00 30267300.00 L 46157329.36 30267528.00 L 46147978.00 30265200.00 L 46135738.00 30259200.00 L 46128346.00 30250666.67 L 46128346.00 30112992.00 L 45754330.00 30112992.00 L 45754330.00 30459996.42 L 45663633.00 30759171.00 L 45664318.77 30766122.32 L 45659656.00 30785999.00 L 45659656.00 30925001.72 L 45652560.98 30953038.84 L 45650033.00 30954086.00 L 45632596.00 30996181.00 L 45632596.00 31594841.00 A 59533.64 59533.64 0 1 0 45751660.00 31594841.00  z"/>
<path id="N" d="M 42232331.00 30099200.00 L 42235391.00 30094700.00 L 42245183.00 30087500.00 L 42259871.00 30082700.00 L 42336074.74 30082472.00 L 42340968.00 30083600.00 L 42366329.00 30094400.00 L 42390689.00 30112400.00 L 42397904.00 30122096.00 A 101958.15 101958.15 0 1 0 42397904.00 29977904.00 L 42392751.87 29985614.71 L 42382680.00 29994400.00 L 42357987.00 30010000.00 L 42336074.74 30017528.00 L 42261266.36 30017528.00 L 42251915.00 30015200.00 L 42239675.00 30009200.00 L 42232283.00 30000666.67 L 42232283.00 29892520.00 L 41917323.00 29892520.00 L 41917323.00 30207480.00 L 42232283.00 30207480.00 L 42232331.00 30099200.00  z"/>
<path id="N" d="M 45948510.00 31594841.00 L 45948510.00 30996181.00 L 45931073.00 30954086.00 L 45928545.02 30953038.84 L 45922286.00 30930213.00 L 45920411.63 30858955.21 L 45928708.29 30817244.70 L 45942976.00 30802515.00 L 45959197.00 30793927.00 L 45999018.00 30784198.00 L 46032096.00 30762096.00 A 101958.15 101958.15 0 1 0 45858041.00 30690000.00 L 45867120.00 30741271.00 L 45868217.00 30770681.00 L 45856506.00 30861462.00 L 45856506.00 30925001.72 L 45849410.98 30953038.84 L 45846883.00 30954086.00 L 45829446.00 30996181.00 L 45829446.00 31594841.00 A 59533.64 59533.64 0 0 0 45948510.00 31594841.00  z"/>
<path id="N" d="M 44964258.00 34803817.00 L 44964258.00 34205157.00 L 44962321.56 34200482.21 L 44976821.00 34190794.00 A 101958.15 101958.15 0 1 0 44832629.00 34190794.00 L 44847130.00 34200483.26 L 44845194.00 34205157.00 L 44845194.00 34803817.00 A 59533.64 59533.64 0 0 0 44964258.00 34803817.00  z"/>
<path id="N" d="M 42952756.00 32833202.00 L 42890606.82 32833202.00 L 42884198.00 32800982.00 A 101959.21 101959.21 0 0 0 42689393.18 32833202.00 L 42598426.00 32833202.00 L 42598426.00 33246588.00 L 42952756.00 33246588.00 L 42952756.00 32833202.00  z"/>
<path id="N" d="M 39966925.00 31492555.00 L 39977366.60 31440062.00 L 40253938.00 31440062.00 A 240838.32 240838.32 0 0 0 40253938.00 30958366.00 L 39820866.00 30958366.00 A 240838.32 240838.32 0 0 0 39580018.00 31199214.00 L 39582361.17 31210994.25 L 39580789.00 31218898.00 L 39580789.00 31415748.00 A 200706.53 200706.53 0 0 0 39966925.00 31492555.00  zM 39661072.00 31415748.00 L 39661072.00 31218898.00 L 39663030.26 31209053.49 L 39661073.00 31199214.00 A 120431.73 120431.73 0 0 1 39781497.00 31078790.00 L 40293307.00 31078790.00 A 120431.73 120431.73 0 1 1 40293307.00 31319638.00 L 39901920.00 31319638.00 L 39901920.00 31415748.00 A 120431.73 120431.73 0 0 1 39661072.00 31415748.00  z"/>
<path id="N" d="M 40253938.00 34359940.00 L 39977367.00 34359940.00 L 39966925.00 34307445.00 A 200709.51 200709.51 0 0 0 39580789.00 34384252.00 L 39580789.00 34581102.00 L 39582361.37 34589006.75 L 39580018.00 34600788.00 A 240838.32 240838.32 0 0 0 39820866.00 34841636.00 L 40253938.00 34841636.00 A 240860.29 240860.29 0 1 0 40253938.00 34359940.00  zM 40293307.00 34721212.00 L 39781497.00 34721212.00 A 120431.73 120431.73 0 0 1 39661073.00 34600788.00 L 39663030.46 34590947.51 L 39661072.00 34581102.00 L 39661072.00 34384252.00 A 120431.73 120431.73 0 0 1 39901920.00 34384252.00 L 39901920.00 34480364.00 L 40293307.00 34480364.00 A 120431.73 120431.73 0 0 1 40293307.00 34721212.00  z"/>
<path id="N" d="M 38305119.00 34342675.00 L 37793307.00 34342675.00 A 258101.18 258101.18 0 0 0 37793307.00 34858901.00 L 38305119.00 34858901.00 A 258122.37 258122.37 0 0 0 38305119.00 34342675.00  zM 38305119.00 34741283.00 L 37793307.00 34741283.00 A 140500.91 140500.91 0 0 1 37793307.00 34460293.00 L 38305119.00 34460293.00 A 140500.91 140500.91 0 0 1 38305119.00 34741283.00  z"/>
<path id="N" d="M 38305119.00 30941101.00 L 37793307.00 30941101.00 A 258101.18 258101.18 0 0 0 37793307.00 31457327.00 L 38305119.00 31457327.00 A 258122.37 258122.37 0 0 0 38305119.00 30941101.00  zM 38305119.00 31339709.00 L 37793307.00 31339709.00 A 140500.91 140500.91 0 0 1 37793307.00 31058719.00 L 38305119.00 31058719.00 A 140500.91 140500.91 0 1 1 38305119.00 31339709.00  z"/>
<path id="N" d="M 45769999.95 33199999.95 m -101959.21 0 a 101959.21 101959.21 0 1 1 203918.42 0a 101959.21 101959.21 0 1 1 -203918.42 0"/>
<path id="N" d="M 37775731.95 33195369.95 m -101959.21 0 a 101959.21 101959.21 0 1 1 203918.42 0a 101959.21 101959.21 0 1 1 -203918.42 0"/>
<path id="N" d="M 38649999.95 33859999.95 m -101959.21 0 a 101959.21 101959.21 0 1 1 203918.42 0a 101959.21 101959.21 0 1 1 -203918.42 0"/>
<path id="N" d="M 37795731.95 31885369.95 m -101959.21 0 a 101959.21 101959.21 0 1 1 203918.42 0a 101959.21 101959.21 0 1 1 -203918.42 0"/>
<path id="N" d="M 37815731.95 33855369.95 m -101959.21 0 a 101959.21 101959.21 0 1 1 203918.42 0a 101959.21 101959.21 0 1 1 -203918.42 0"/>
<path id="N" d="M 44789999.95 33189999.95 m -101959.21 0 a 101959.21 101959.21 0 1 1 203918.42 0a 101959.21 101959.21 0 1 1 -203918.42 0"/>
<path id="N" d="M 45769999.95 32499999.95 m -101959.21 0 a 101959.21 101959.21 0 1 1 203918.42 0a 101959.21 101959.21 0 1 1 -203918.42 0"/>
<path id="N" d="M 44769999.95 32499999.95 m -101959.21 0 a 101959.21 101959.21 0 1 1 203918.42 0a 101959.21 101959.21 0 1 1 -203918.42 0"/>
<path id="N" d="M 37805731.95 32495369.95 m -101959.21 0 a 101959.21 101959.21 0 1 1 203918.42 0a 101959.21 101959.21 0 1 1 -203918.42 0"/>
<path id="N" d="M 38485731.95 33165369.95 m -101959.21 0 a 101959.21 101959.21 0 1 1 203918.42 0a 101959.21 101959.21 0 1 1 -203918.42 0"/>
<path id="N" d="M 38655731.95 31865369.95 m -101959.21 0 a 101959.21 101959.21 0 1 1 203918.42 0a 101959.21 101959.21 0 1 1 -203918.42 0"/>
<path id="N" d="M 38515731.95 32485369.95 m -101959.21 0 a 101959.21 101959.21 0 1 1 203918.42 0a 101959.21 101959.21 0 1 1 -203918.42 0"/>
<path id="N" d="M 40487040.00 33589796.00 L 40491252.00 33579626.00 L 40491252.00 33499902.00 L 40487040.00 33489732.00 L 40476870.00 33485520.00 L 40149114.00 33485520.00 L 40138944.00 33489732.00 L 40134732.00 33499902.00 L 40134732.00 33579626.00 L 40138944.00 33589796.00 L 40149114.00 33594008.00 L 40476870.00 33594008.00 L 40487040.00 33589796.00  z"/>
<path id="N" d="M 40487040.00 32605544.00 L 40491252.00 32595374.00 L 40491252.00 32515650.00 L 40487040.00 32505480.00 L 40476870.00 32501268.00 L 40149114.00 32501268.00 L 40138944.00 32505480.00 L 40134732.00 32515650.00 L 40134732.00 32595374.00 L 40138944.00 32605544.00 L 40149114.00 32609756.00 L 40476870.00 32609756.00 L 40487040.00 32605544.00  z"/>
<path id="N" d="M 40487040.00 32014993.00 L 40491252.00 32004823.00 L 40491252.00 31925099.00 L 40487040.00 31914929.00 L 40476870.00 31910717.00 L 40149114.00 31910717.00 L 40138944.00 31914929.00 L 40134732.00 31925099.00 L 40134732.00 32004823.00 L 40138944.00 32014993.00 L 40149114.00 32019205.00 L 40476870.00 32019205.00 L 40487040.00 32014993.00  z"/>
<path id="N" d="M 40487040.00 32211843.00 L 40491252.00 32201673.00 L 40491252.00 32121949.00 L 40487040.00 32111779.00 L 40476870.00 32107567.00 L 40149114.00 32107567.00 L 40138944.00 32111779.00 L 40134732.00 32121949.00 L 40134732.00 32201673.00 L 40138944.00 32211843.00 L 40149114.00 32216055.00 L 40476870.00 32216055.00 L 40487040.00 32211843.00  z"/>
<path id="N" d="M 40487040.00 33786647.00 L 40491252.00 33776477.00 L 40491252.00 33696753.00 L 40487040.00 33686583.00 L 40476870.00 33682371.00 L 40149114.00 33682371.00 L 40138944.00 33686583.00 L 40134732.00 33696753.00 L 40134732.00 33776477.00 L 40138944.00 33786647.00 L 40149114.00 33790859.00 L 40476870.00 33790859.00 L 40487040.00 33786647.00  z"/>
<path id="N" d="M 39837434.00 32310268.00 L 39841646.00 32300098.00 L 39841646.00 32220374.00 L 39837434.00 32210204.00 L 39827264.00 32205992.00 L 39538878.00 32205992.00 L 39528708.00 32210204.00 L 39524496.00 32220374.00 L 39524496.00 32300098.00 L 39528708.00 32310268.00 L 39538878.00 32314480.00 L 39827264.00 32314480.00 L 39837434.00 32310268.00  z"/>
<path id="N" d="M 39837434.00 33294520.00 L 39841646.00 33284350.00 L 39841646.00 33204626.00 L 39837434.00 33194456.00 L 39827264.00 33190244.00 L 39538878.00 33190244.00 L 39528708.00 33194456.00 L 39524496.00 33204626.00 L 39524496.00 33284350.00 L 39528708.00 33294520.00 L 39538878.00 33298732.00 L 39827264.00 33298732.00 L 39837434.00 33294520.00  z"/>
<path id="N" d="M 39837434.00 32113418.00 L 39841646.00 32103248.00 L 39841646.00 32023524.00 L 39837434.00 32013354.00 L 39827264.00 32009142.00 L 39538878.00 32009142.00 L 39528708.00 32013354.00 L 39524496.00 32023524.00 L 39524496.00 32103248.00 L 39528708.00 32113418.00 L 39538878.00 32117630.00 L 39827264.00 32117630.00 L 39837434.00 32113418.00  z"/>
<path id="N" d="M 39837434.00 33688221.00 L 39841646.00 33678051.00 L 39841646.00 33598327.00 L 39837434.00 33588157.00 L 39827264.00 33583945.00 L 39538878.00 33583945.00 L 39528708.00 33588157.00 L 39524496.00 33598327.00 L 39524496.00 33678051.00 L 39528708.00 33688221.00 L 39538878.00 33692433.00 L 39827264.00 33692433.00 L 39837434.00 33688221.00  z"/>
<path id="N" d="M 39837434.00 33885072.00 L 39841646.00 33874902.00 L 39841646.00 33795178.00 L 39837434.00 33785008.00 L 39827264.00 33780796.00 L 39538878.00 33780796.00 L 39528708.00 33785008.00 L 39524496.00 33795178.00 L 39524496.00 33874902.00 L 39528708.00 33885072.00 L 39538878.00 33889284.00 L 39827264.00 33889284.00 L 39837434.00 33885072.00  z"/>
<path id="N" d="M 43894843.00 32938892.00 L 43296183.00 32938892.00 A 59533.64 59533.64 0 1 0 43296183.00 33057956.00 L 43894843.00 33057956.00 A 59529.68 59529.68 0 0 0 43894843.00 32938892.00  z"/>
<path id="N" d="M 47103819.00 33135743.00 L 46505159.00 33135743.00 A 59533.64 59533.64 0 0 0 46505159.00 33254807.00 L 47103819.00 33254807.00 A 59529.68 59529.68 0 0 0 47103819.00 33135743.00  z"/>
<path id="N" d="M 47103819.00 32545192.00 L 46505159.00 32545192.00 A 59533.64 59533.64 0 0 0 46505159.00 32664256.00 L 47103819.00 32664256.00 A 59529.68 59529.68 0 0 0 47103819.00 32545192.00  z"/>
<path id="N" d="M 47103819.00 32742042.00 L 46505159.00 32742042.00 A 59533.64 59533.64 0 0 0 46505159.00 32861106.00 L 47103819.00 32861106.00 A 59529.68 59529.68 0 0 0 47103819.00 32742042.00  z"/>
<path id="N" d="M 43894843.00 33135743.00 L 43296183.00 33135743.00 A 59533.64 59533.64 0 0 0 43296183.00 33254807.00 L 43894843.00 33254807.00 A 59529.68 59529.68 0 0 0 43894843.00 33135743.00  z"/>
<path id="N" d="M 44964258.00 31594841.00 L 44964258.00 30996181.00 A 59533.64 59533.64 0 0 0 44845194.00 30996181.00 L 44845194.00 31594841.00 A 59533.64 59533.64 0 0 0 44964258.00 31594841.00  z"/>
<path id="N" d="M 43894843.00 33332593.00 L 43296183.00 33332593.00 A 59533.64 59533.64 0 1 0 43296183.00 33451657.00 L 43894843.00 33451657.00 A 59529.68 59529.68 0 0 0 43894843.00 33332593.00  z"/>
<path id="N" d="M 47103819.00 32938892.00 L 46505159.00 32938892.00 A 59533.64 59533.64 0 0 0 46505159.00 33057956.00 L 47103819.00 33057956.00 A 59529.68 59529.68 0 0 0 47103819.00 32938892.00  z"/>
<path id="N" d="M 43894843.00 32742042.00 L 43296183.00 32742042.00 A 59533.64 59533.64 0 0 0 43296183.00 32861106.00 L 43894843.00 32861106.00 A 59529.68 59529.68 0 0 0 43894843.00 32742042.00  z"/>
<path id="N" d="M 46145360.00 31594841.00 L 46145360.00 30996181.00 A 59533.64 59533.64 0 0 0 46026296.00 30996181.00 L 46026296.00 31594841.00 A 59533.64 59533.64 0 0 0 46145360.00 31594841.00  z"/>
<path id="N" d="M 43894843.00 32151491.00 L 43296183.00 32151491.00 A 59533.64 59533.64 0 1 0 43296183.00 32270555.00 L 43894843.00 32270555.00 A 59529.68 59529.68 0 1 0 43894843.00 32151491.00  z"/>
<path id="N" d="M 43894843.00 32348341.00 L 43296183.00 32348341.00 A 59533.64 59533.64 0 0 0 43296183.00 32467405.00 L 43894843.00 32467405.00 A 59529.68 59529.68 0 0 0 43894843.00 32348341.00  z"/>
<path id="N" d="M 47103819.00 32348341.00 L 46505159.00 32348341.00 A 59533.64 59533.64 0 0 0 46505159.00 32467405.00 L 47103819.00 32467405.00 A 59529.68 59529.68 0 0 0 47103819.00 32348341.00  z"/>
<path id="N" d="M 47103819.00 32151491.00 L 46505159.00 32151491.00 A 59533.64 59533.64 0 0 0 46505159.00 32270555.00 L 47103819.00 32270555.00 A 59529.68 59529.68 0 0 0 47103819.00 32151491.00  z"/>
<path id="N" d="M 44767406.00 31594841.00 L 44767406.00 30996181.00 A 59533.64 59533.64 0 0 0 44648342.00 30996181.00 L 44648342.00 31594841.00 A 59533.64 59533.64 0 0 0 44767406.00 31594841.00  z"/>
<path id="N" d="M 45161108.00 31594841.00 L 45161108.00 30996181.00 A 59533.64 59533.64 0 0 0 45042044.00 30996181.00 L 45042044.00 31594841.00 A 59533.64 59533.64 0 0 0 45161108.00 31594841.00  z"/>
<path id="N" d="M 44373706.00 31594841.00 L 44373706.00 30996181.00 A 59533.64 59533.64 0 0 0 44254642.00 30996181.00 L 44254642.00 31594841.00 A 59533.64 59533.64 0 0 0 44373706.00 31594841.00  z"/>
<path id="N" d="M 44570556.00 31594841.00 L 44570556.00 30996181.00 A 59533.64 59533.64 0 0 0 44451492.00 30996181.00 L 44451492.00 31594841.00 A 59533.64 59533.64 0 0 0 44570556.00 31594841.00  z"/>
<path id="N" d="M 45751659.00 34803817.00 L 45751659.00 34205157.00 A 59533.64 59533.64 0 0 0 45632595.00 34205157.00 L 45632595.00 34803817.00 A 59533.64 59533.64 0 0 0 45751659.00 34803817.00  z"/>
<path id="N" d="M 46342210.00 34803817.00 L 46342210.00 34205157.00 A 59533.64 59533.64 0 0 0 46223146.00 34205157.00 L 46223146.00 34803817.00 A 59533.64 59533.64 0 0 0 46342210.00 34803817.00  z"/>
<path id="N" d="M 47103819.00 33332593.00 L 46505159.00 33332593.00 A 59533.64 59533.64 0 0 0 46505159.00 33451657.00 L 47103819.00 33451657.00 A 59529.68 59529.68 0 0 0 47103819.00 33332593.00  z"/>
<path id="N" d="M 45948510.00 34803817.00 L 45948510.00 34205157.00 A 59533.64 59533.64 0 0 0 45829446.00 34205157.00 L 45829446.00 34803817.00 A 59533.64 59533.64 0 0 0 45948510.00 34803817.00  z"/>
<path id="N" d="M 46145360.00 34803817.00 L 46145360.00 34205157.00 A 59533.64 59533.64 0 0 0 46026296.00 34205157.00 L 46026296.00 34803817.00 A 59533.64 59533.64 0 0 0 46145360.00 34803817.00  z"/>
<path id="N" d="M 45554809.00 34803817.00 L 45554809.00 34205157.00 A 59533.64 59533.64 0 0 0 45435745.00 34205157.00 L 45435745.00 34803817.00 A 59533.64 59533.64 0 0 0 45554809.00 34803817.00  z"/>
<path id="N" d="M 43894843.00 33726294.00 L 43296183.00 33726294.00 A 59533.64 59533.64 0 1 0 43296183.00 33845358.00 L 43894843.00 33845358.00 A 59529.68 59529.68 0 0 0 43894843.00 33726294.00  z"/>
<path id="N" d="M 47103819.00 33529444.00 L 46505159.00 33529444.00 A 59533.64 59533.64 0 0 0 46505159.00 33648508.00 L 47103819.00 33648508.00 A 59529.68 59529.68 0 0 0 47103819.00 33529444.00  z"/>
<path id="N" d="M 43894843.00 33529444.00 L 43296183.00 33529444.00 A 59533.64 59533.64 0 0 0 43296183.00 33648508.00 L 43894843.00 33648508.00 A 59529.68 59529.68 0 0 0 43894843.00 33529444.00  z"/>
<path id="N" d="M 50738976.00 35199213.00 L 49445500.31 35199213.00 L 49417597.00 35184046.00 L 49201311.00 35005649.00 L 49195777.38 35003949.06 L 48871086.42 34403272.20 L 48861811.00 34379046.37 L 48861811.00 34142520.00 L 48507481.00 34142520.00 L 48507481.00 34457480.00 L 48768448.23 34457480.00 L 48789846.00 34481227.00 L 49095053.00 35043742.00 L 49101303.58 35048819.49 L 49104385.00 35056260.00 L 49108808.18 35058092.08 L 49122398.00 35078430.00 L 49129068.57 35082887.35 L 49132349.00 35089077.00 L 49337585.79 35258724.94 L 49361024.00 35288171.85 L 49361024.00 35600787.00 L 50738976.00 35600787.00 L 50738976.00 35199213.00  z"/>
<path id="N" d="M 43894843.00 32545192.00 L 43296183.00 32545192.00 L 43254088.00 32562629.00 L 43250101.87 32572252.00 L 43230400.00 32572252.00 L 43227490.36 32573457.24 L 43144512.00 32556952.00 L 43074165.65 32509947.51 L 43072961.00 32507039.00 L 42978997.98 32413575.66 L 42952756.00 32393439.15 L 42952756.00 32173097.00 L 42637796.00 32173097.00 L 42637796.00 32566797.00 L 42952756.00 32566797.00 L 42952756.00 32478678.00 L 43027079.04 32552977.58 A 287518.08 287518.08 0 0 0 43230400.00 32637196.00 L 43250101.87 32637196.00 L 43254088.00 32646819.00 L 43296183.00 32664256.00 L 43894843.00 32664256.00 A 59529.68 59529.68 0 1 0 43894843.00 32545192.00  z"/>
<path id="N" d="M 41707480.00 34142520.00 L 41573053.41 34142520.00 L 41555649.00 34135399.00 L 41534652.87 34117326.76 L 41473966.00 34038044.00 L 40643145.00 33206855.00 L 40577014.00 33156111.00 L 40534198.69 33138375.99 L 40507130.00 33122789.00 L 40492297.00 33107878.00 L 40487040.00 33096031.00 L 40476870.00 33091819.00 L 40149114.00 33091819.00 L 40138944.00 33096031.00 L 40134732.00 33106201.00 L 40134732.00 33185925.00 L 40138944.00 33196095.00 L 40149114.00 33200307.00 L 40476870.00 33200307.00 L 40484482.54 33197154.20 L 40496645.00 33197069.00 L 40526280.00 33203550.00 L 40595416.69 33249044.50 L 40597039.00 33252961.00 L 41428202.04 34084031.46 L 41454074.00 34117748.75 L 41456757.00 34126289.00 L 41456441.00 34135973.00 L 41451040.00 34141783.00 L 41392520.00 34142520.00 L 41392520.00 34457480.00 L 41707480.00 34457480.00 L 41707480.00 34142520.00  z"/>
<path id="N" d="M 42401575.00 33493307.00 L 42110623.17 33493307.00 L 42102022.00 33454831.00 L 42082631.00 33424560.00 L 42052360.00 33405169.00 L 42017243.00 33397475.00 L 41955808.00 33397475.00 L 41888184.00 33384891.00 L 41832053.69 33347385.94 L 41451416.00 32964899.00 L 41374092.00 32905566.00 L 41284046.00 32868268.00 L 41187415.00 32854950.00 L 41164791.00 32864321.29 L 41164791.00 32861545.00 L 41154907.64 32865639.00 L 40781102.00 32866489.00 L 40766036.00 32872730.00 L 40765249.44 32874628.79 L 40644366.00 32875009.00 L 40602662.00 32883683.00 L 40568792.76 32906312.63 L 40561181.00 32912897.00 L 40560167.00 32911883.00 L 40550000.00 32916741.00 L 40516327.22 32916741.00 L 40506038.00 32914435.00 L 40491208.00 32906981.00 L 40487040.00 32899181.00 L 40476870.00 32894969.00 L 40149114.00 32894969.00 L 40138944.00 32899181.00 L 40134732.00 32909351.00 L 40134732.00 32989075.00 L 40138944.00 32999245.00 L 40149114.00 33003457.00 L 40476870.00 33003457.00 L 40487040.00 32999245.00 L 40489518.37 32993260.91 L 40495191.00 32988578.00 L 40512901.00 32982271.00 L 40550000.00 32982472.00 A 94277.12 94277.12 0 0 0 40612961.00 32952961.00 L 40643251.88 32939491.50 L 40765335.68 32940541.41 L 40766036.00 32942232.00 L 40781102.00 32948473.00 L 40801009.27 32948473.00 L 40805300.00 32951364.00 L 40812500.00 32961134.00 L 40817300.00 32975844.00 L 40817528.00 33016074.74 L 40816400.00 33020968.00 L 40805600.00 33046329.00 L 40787600.00 33070689.00 L 40777904.00 33077904.00 A 101958.15 101958.15 0 1 0 40922096.00 33077904.00 L 40914385.29 33072751.87 L 40905600.00 33062680.00 L 40890000.00 33037987.00 L 40882472.00 33016074.74 L 40882659.00 32975509.00 L 40890635.00 32954961.00 L 40897448.73 32948473.00 L 40907086.00 32948473.00 L 40922152.00 32942232.00 L 40925603.00 32936561.00 L 40940335.00 32931412.00 L 40998813.59 32930583.00 L 41018491.00 32936561.00 L 41021942.00 32942232.00 L 41037008.00 32948473.00 L 41162992.00 32948473.00 L 41178058.00 32942232.00 L 41184299.00 32927166.00 L 41184299.00 32923820.51 L 41187415.00 32922529.82 L 41187415.00 32925306.00 L 41195107.24 32922119.72 L 41267078.00 32931595.00 L 41341312.00 32962343.00 L 41404984.71 33011332.71 L 41785546.00 33391894.00 L 41783992.00 33393448.00 L 41862822.00 33446120.00 L 41955808.00 33464616.00 L 41955808.00 33462419.00 L 42017243.00 33462887.00 L 42036378.00 33470813.00 L 42043682.00 33489948.00 L 42047245.00 33507860.97 L 42047245.00 33906693.00 L 42401575.00 33906693.00 L 42401575.00 33493307.00  z"/>
<path id="N" d="M 39401959.00 33100000.00 L 39400150.12 33090905.93 L 39401060.00 33077571.00 L 39407490.00 33049079.00 L 39417661.38 33028260.62 L 39488231.22 32957855.31 L 39490406.00 32958034.00 L 39497147.00 32953530.00 L 39494842.00 32950535.00 L 39497061.27 32949615.69 L 39499009.00 32951965.00 L 39537746.00 32922241.00 L 39574949.00 32906832.00 L 39574220.21 32905032.00 L 39827264.00 32905032.00 L 39837434.00 32900820.00 L 39841646.00 32890650.00 L 39841646.00 32810926.00 L 39837434.00 32800756.00 L 39827264.00 32796544.00 L 39538878.00 32796544.00 L 39528708.00 32800756.00 L 39524496.00 32810926.00 L 39524190.00 32846539.00 L 39509967.00 32861665.00 L 39460848.99 32899315.38 L 39456898.00 32900952.00 L 39454815.00 32899209.00 L 39456365.79 32901172.81 L 39452935.00 32902946.00 L 39451817.56 32905643.68 L 39445909.26 32909591.37 L 39371739.38 32982338.62 L 39367480.00 32985002.00 L 39341911.00 32995298.00 L 39311958.00 32999795.00 L 39300000.00 32998041.00 A 101958.15 101958.15 0 1 0 39401959.00 33100000.00  z"/>
<path id="N" d="M 44779971.00 34818179.00 L 44765471.10 34808490.48 L 44767407.00 34803817.00 L 44767407.00 34205157.00 A 59533.64 59533.64 0 0 0 44648343.00 34205157.00 L 44648343.00 34803817.00 L 44650278.90 34808490.48 L 44635779.00 34818179.00 A 101958.15 101958.15 0 1 0 44779971.00 34818179.00  z"/>
<path id="N" d="M 42864198.00 33939018.00 L 42870627.71 33906693.00 L 42952756.00 33906693.00 L 42952756.00 33493307.00 L 42598426.00 33493307.00 L 42598426.00 33906693.00 L 42669372.29 33906693.00 L 42675802.00 33939018.00 A 101959.21 101959.21 0 0 0 42864198.00 33939018.00  z"/>
<path id="N" d="M 43610565.00 35778740.00 L 43610565.00 35621260.00 A 160563.52 160563.52 0 0 0 43511446.00 35472917.00 L 43473043.43 35465278.48 L 43468984.00 35461820.00 L 43455624.00 35440543.00 L 43406201.00 35278143.00 L 43310558.00 35099208.00 L 43181844.00 34942370.00 L 43180068.00 34944146.00 L 43142961.00 34907039.00 L 43139510.06 34905609.54 A 509015.59 509015.59 0 0 1 42991042.39 34547177.31 L 42992472.00 34543726.00 L 42991616.05 34387933.61 A 423366.86 423366.86 0 0 1 43115245.02 34089466.78 L 43163535.00 34043424.00 L 43194043.00 34023039.00 L 43230108.00 34015148.00 L 43250101.87 34015148.00 L 43254088.00 34024771.00 L 43296183.00 34042208.00 L 43894843.00 34042208.00 A 59533.64 59533.64 0 0 0 43894843.00 33923144.00 L 43296183.00 33923144.00 L 43254088.00 33940581.00 L 43250101.87 33950204.00 L 43230108.00 33949592.00 L 43168681.00 33961811.00 L 43117039.00 33997039.00 L 43071389.00 34042688.00 L 43070155.00 34041454.00 A 492911.46 492911.46 0 0 0 42925783.00 34390000.00 L 42927528.00 34390000.00 L 42927528.00 34543726.00 L 42925027.00 34543726.00 A 581266.76 581266.76 0 0 0 43095270.00 34954730.00 L 43097039.00 34952961.00 L 43134146.00 34990068.00 L 43138322.13 34991797.85 L 43256250.00 35135495.00 L 43345857.00 35303138.00 L 43390411.81 35450014.64 L 43390475.00 35458490.00 L 43387865.00 35472674.00 A 163880.42 163880.42 0 0 0 43289435.00 35621260.00 L 43289435.00 35778740.00 A 160563.52 160563.52 0 0 0 43610565.00 35778740.00  zM 43450002.46 35699992.27 m -120431.73 0 a 120431.73 120431.73 0 1 1 240863.46 0a 120431.73 120431.73 0 1 1 -240863.46 0"/>
</g>
</svg>
