**ABCDEFGHIJKLMNOPQRSTUVWXYZabcdefghijklmnopqrstuvwxyz**************************
**PARASOLID !"#$%&'()*+,-./:;<=>?@[\]^_`{|}~0123456789**************************
**PART1;
MC=AMD64;
MC_MODEL=Intel64 Family 6 Model 151 Stepping 2, GenuineIntel;
MC_ID=unknown;
OS=Windows_NT;
OS_RELEASE=unknown;
FRU=CAD Exchanger 3.13.0 (cadexchanger.com);
APPL=unknown;
SITE=unknown;
USER=unknown;
FORMAT=text;
GUISE=transmit;
KEY=CAPC1608X90X40NL10T20_CMP-001-00017-6;
FILE=CAPC1608X90X40NL10T20_CMP-001-00017-6.x_t;
DATE=Thu Apr 13 23:12:24 2023;
**PART2;
SCH=SCH_1200000_12103;
USFLD_SIZE=0;
**PART3;
**END_OF_HEADER*****************************************************************
T51 : TRANSMIT FILE created by modeller version 120000017 SCH_1200000_121030 74
 3 1 3 0 2 189 470 12 2 124 0 3 0 0 0 0 1000.0 1.0e-08 0 0 0 1 0 1 1 12 14 20 18
 9 19 17 70 3 0 2 0 0 4 1 20 0 4 4 1 T74 20 4 1 0 5 0 0 0 0 0 0 0 0 0 0 0 0 0 0
 0 0 0 0 0 81 1 5 7 6 13 0 0 42 0 8 80 1 6 0 7 8001 0 0 0 0 3 5 0 0 0 FFFFTFTFFF
FFFF2 79 15 7 SDL/TYSA_COLOUR83 3 8 0.7215686440467834 0.5254902243614198 0.0431
372560560703 19 9 1 0 2 11 0 10 V13 10 2 0 2 0 0 0 0 9 13 19 11 3 0 2 0 9 12 S13
 12 4 0 2 0 13 0 0 11 0 14 13 5 5 1.0e-08 40 0 15 12 14 -0 0 40 0 10 50 14 6 0 1
3 41 0 0 +-8.5e-04 -4.4999999999999982e-04 0.0 2.4492935982947066e-16 1.0 0.0 0.
0 0.0 1.0 15 15 8 0 16 13 0 17 16 0 15 24 36 17 21 19 0 0 +18 17 9 0 29 0 22 18
 ?2 29 18 10 0 17 23 0 6.4999999999999982e-04 -4.5000000000000018e-04 8.5e-04 16
 19 11 0 ?16 0 27 20 0 0 2 30 20 12 0 19 28 0 0 +6.4999999999999982e-04 -4.50000
00000000018e-04 0.0 0.0 0.0 1.0 17 21 0 65 60 96 22 16 19 0 57 -18 22 13 0 36 17
 25 23 ?2 29 23 14 0 22 26 18 6.4999999999999982e-04 -4.5000000000000018e-04 5.0
e-05 17 24 0 15 30 16 25 29 27 0 111 -18 25 15 0 35 22 31 26 ?2 29 26 16 0 25 32
 23 -6.5000000000000018e-04 -4.4999999999999982e-04 8.5e-04 16 27 17 0 ?29 19 33
 28 0 0 2 30 28 18 0 27 34 20 0 +-8.5e-04 -4.4999999999999974e-04 8.5e-04 1.0 -2
.4492935982947066e-16 0.0 17 29 0 104 99 111 17 24 27 0 96 +17 30 0 15 36 24 31
 35 33 0 50 -18 31 19 0 39 25 46 32 ?2 29 32 20 0 31 47 26 -6.5000000000000018e-
04 -4.4999999999999982e-04 5.0e-05 16 33 21 0 ?35 27 37 34 0 0 2 30 34 22 0 33 3
8 28 0 +-6.5000000000000018e-04 -4.4999999999999982e-04 0.0 0.0 0.0 1.0 17 35 0
 119 114 50 25 30 33 0 24 +17 36 0 15 16 30 22 39 37 0 21 +16 37 23 0 ?36 33 48
 38 0 0 2 30 38 24 0 37 49 34 0 +-8.5e-04 -4.4999999999999974e-04 5.0e-05 1.0 -2
.4492935982947066e-16 0.0 17 39 0 44 45 57 31 36 37 0 30 -14 40 25 42 1.0e-08 61
 13 44 12 41 +0 0 61 13 10 51 41 26 0 40 62 14 0 +-8.5e-04 -3.9999999999999982e-
04 5.0e-05 1.0 -2.4492935982947066e-16 0.0 5.0e-05 -2.4492935982947066e-16 -1.0
 0.0 81 1 42 27 6 40 0 0 63 5 43 83 3 43 0.7215686440467834 0.5254902243614198 0
.0431372560560703 15 44 28 0 39 40 0 17 45 0 44 51 39 46 50 48 0 56 +18 46 29 0
 144 31 52 47 ?2 29 47 30 0 46 53 32 -6.5000000000000018e-04 -3.9999999999999986
e-04 -3.4694469519540002e-21 16 48 31 0 ?45 37 54 49 0 0 2 31 49 32 0 48 55 38 0
 +-6.5000000000000018e-04 -3.9999999999999986e-04 5.0e-05 1.0 -2.449293598294706
6e-16 0.0 -2.4492935982947066e-16 -1.0 0.0 5.0e-05 17 50 0 119 35 144 31 45 48 0
 0 -17 51 0 44 57 45 52 56 54 0 60 +18 52 33 0 51 46 67 53 ?2 29 53 34 0 52 68 4
7 6.4999999999999982e-04 -4.0000000000000009e-04 -3.4694469519540002e-21 16 54 3
5 0 ?51 48 58 55 0 0 2 30 55 36 0 54 59 49 0 +-8.5e-04 -3.9999999999999982e-04 -
6.9388939039070002e-21 1.0 -2.4492935982947066e-16 0.0 17 56 0 152 147 71 46 51
 54 0 0 -17 57 0 44 39 51 22 60 58 0 0 -16 58 37 0 ?60 54 69 59 0 0 2 31 59 38 0
 58 70 55 0 +6.5e-04 -4.0000000000000009e-04 5.0e-05 1.0 -2.4492935982947066e-16
 0.0 -2.4492935982947066e-16 -1.0 0.0 5.0e-05 17 60 0 65 66 21 52 57 58 0 71 +14
 61 39 63 1.0e-08 100 40 65 12 62 +0 0 100 40 10 50 62 40 0 61 101 41 0 +6.5e-04
 -4.5000000000000018e-04 0.0 1.0 -2.4492935982947066e-16 0.0 0.0 0.0 1.0 81 1 63
 41 6 61 0 0 102 42 64 83 3 64 0.7215686440467834 0.5254902243614198 0.043137256
0560703 15 65 42 0 21 61 0 17 66 0 65 72 60 67 71 69 0 77 +18 67 43 0 153 52 73
 68 ?2 29 68 44 0 67 74 53 6.5000000000000018e-04 3.9999999999999986e-04 -3.4694
469519540002e-21 16 69 45 0 ?66 58 75 70 0 0 2 30 70 46 0 69 76 59 0 +6.49999999
99999982e-04 -4.5000000000000018e-04 0.0 2.4492935982947066e-16 1.0 0.0 17 71 0
 152 56 153 52 66 69 0 0 -17 72 0 65 78 66 73 77 75 0 0 +18 73 47 0 183 67 79 74
 ?2 29 74 48 0 73 80 68 6.5000000000000018e-04 4.4999999999999992e-04 5.0e-05 16
 75 49 0 ?72 69 81 76 0 0 2 31 76 50 0 75 82 70 0 +6.5000000000000018e-04 3.9999
999999999986e-04 5.0e-05 1.0 -2.4492935982947066e-16 0.0 2.4492935982947066e-16
 1.0 0.0 5.0e-05 17 77 0 188 156 183 67 72 75 0 0 -17 78 0 65 84 72 79 83 81 0 8
9 +18 79 51 0 174 73 85 80 ?2 29 80 52 0 79 86 74 6.5000000000000018e-04 4.49999
99999999992e-04 8.5e-04 16 81 53 0 ?78 75 87 82 0 0 2 30 82 54 0 81 88 76 0 +6.5
000000000000018e-04 4.4999999999999992e-04 0.0 0.0 0.0 1.0 17 83 0 179 180 174 7
3 78 81 0 72 -17 84 0 65 90 78 85 89 87 0 95 +18 85 55 0 165 79 91 86 ?2 29 86 5
6 0 85 92 80 6.5000000000000018e-04 3.9999999999999986e-04 9.0e-04 16 87 57 0 ?8
4 81 93 88 0 0 2 31 88 58 0 87 94 82 0 +6.5000000000000018e-04 3.999999999999998
6e-04 8.5e-04 1.0 -2.4492935982947066e-16 0.0 2.4492935982947066e-16 1.0 0.0 5.0
e-05 17 89 0 170 171 165 79 84 87 0 0 -17 90 0 65 96 84 91 95 93 0 0 -18 91 59 0
 99 85 106 92 ?2 29 92 60 0 91 107 86 6.4999999999999982e-04 -4.0000000000000009
e-04 9.0e-04 16 93 61 0 ?95 87 97 94 0 0 2 30 94 62 0 93 98 88 0 +6.499999999999
9982e-04 -4.5000000000000018e-04 9.0e-04 2.4492935982947066e-16 1.0 0.0 17 95 0
 161 162 110 85 90 93 0 0 +17 96 0 65 21 90 17 99 97 0 16 +16 97 63 0 ?96 93 108
 98 0 0 2 31 98 64 0 97 109 94 0 +6.5e-04 -4.0000000000000009e-04 8.5e-04 1.0 -2
.4492935982947066e-16 0.0 -2.4492935982947066e-16 -1.0 0.0 5.0e-05 17 99 0 104 1
05 29 91 96 97 0 110 -14 100 65 102 1.0e-08 115 61 104 12 101 +0 0 115 61 10 51
 101 66 0 100 116 62 0 +-8.5e-04 -3.9999999999999982e-04 8.5e-04 1.0 -2.44929359
82947066e-16 0.0 5.0e-05 -2.4492935982947066e-16 -1.0 0.0 81 1 102 67 6 100 0 0
 117 63 103 83 3 103 0.7215686440467834 0.5254902243614198 0.0431372560560703 15
 104 68 0 29 100 0 17 105 0 104 111 99 106 110 108 0 114 -18 106 69 0 125 91 121
 107 ?2 29 107 70 0 106 122 92 -6.5000000000000018e-04 -3.9999999999999986e-04 9
.0e-04 16 108 71 0 ?110 97 112 109 0 0 2 30 109 72 0 108 113 98 0 +-8.5e-04 -3.9
999999999999982e-04 9.0e-04 1.0 -2.4492935982947066e-16 0.0 17 110 0 161 95 125
 91 105 108 0 90 +17 111 0 104 29 105 25 114 112 0 0 +16 112 73 0 ?111 108 123 1
13 0 0 2 31 113 74 0 112 124 109 0 +-6.5000000000000018e-04 -3.9999999999999986e
-04 8.5e-04 1.0 -2.4492935982947066e-16 0.0 -2.4492935982947066e-16 -1.0 0.0 5.0
e-05 17 114 0 119 120 35 106 111 112 0 0 -14 115 75 117 1.0e-08 148 100 119 12 1
16 -0 0 148 100 10 50 116 76 0 115 149 101 0 +-6.5000000000000018e-04 -4.4999999
999999992e-04 0.0 1.0 -2.4492935982947066e-16 0.0 0.0 0.0 1.0 81 1 117 77 6 115
 0 0 150 102 118 83 3 118 0.7215686440467834 0.5254902243614198 0.04313725605607
03 15 119 78 0 114 115 0 17 120 0 119 126 114 121 125 123 0 162 +18 121 79 0 131
 106 127 122 ?2 29 122 80 0 121 128 107 -6.4999999999999982e-04 4.00000000000000
18e-04 9.0e-04 16 123 81 0 ?120 112 129 124 0 0 2 30 124 82 0 123 130 113 0 +-6.
5000000000000018e-04 -4.4999999999999982e-04 9.0e-04 2.4492935982947066e-16 1.0
 0.0 17 125 0 161 110 162 106 120 123 0 105 -17 126 0 119 132 120 127 131 129 0
 137 -18 127 83 0 126 121 133 128 ?2 29 128 84 0 127 134 122 -6.4999999999999982
e-04 4.5000000000000028e-04 8.5e-04 16 129 85 0 ?131 123 135 130 0 0 2 31 130 86
 0 129 136 124 0 +-6.5e-04 4.0000000000000018e-04 8.5e-04 1.0 -2.449293598294706
6e-16 0.0 2.4492935982947066e-16 1.0 0.0 5.0e-05 17 131 0 170 165 171 121 126 12
9 0 120 +17 132 0 119 138 126 133 137 135 0 180 -18 133 87 0 143 127 139 134 ?2
 29 134 88 0 133 140 128 -6.4999999999999982e-04 4.5000000000000028e-04 5.0e-05
 16 135 89 0 ?137 129 141 136 0 0 2 30 136 90 0 135 142 130 0 +-6.49999999999999
82e-04 4.5000000000000028e-04 0.0 0.0 0.0 1.0 17 137 0 179 174 180 127 132 135 0
 171 +17 138 0 119 144 132 139 143 141 0 156 -18 139 91 0 147 133 0 140 ?2 29 14
0 92 0 139 0 134 -6.4999999999999982e-04 4.0000000000000018e-04 -3.4694469519540
002e-21 16 141 93 0 ?143 135 145 142 0 0 2 31 142 94 0 141 146 136 0 +-6.5e-04 4
.0000000000000018e-04 5.0e-05 1.0 -2.4492935982947066e-16 0.0 2.4492935982947066
e-16 1.0 0.0 5.0e-05 17 143 0 188 183 156 133 138 141 0 132 +17 144 0 119 50 138
 46 147 145 0 45 -16 145 95 0 ?147 141 154 146 0 0 2 30 146 96 0 145 155 142 0 +
-6.5000000000000018e-04 -4.4999999999999982e-04 0.0 2.4492935982947066e-16 1.0 0
.0 17 147 0 152 153 56 139 144 145 0 138 +14 148 97 150 1.0e-08 157 115 152 12 1
49 -0 0 157 115 10 50 149 98 0 148 158 116 0 +-8.5e-04 -4.4999999999999982e-04 0
.0 0.0 0.0 1.0 1.0 -2.4492935982947066e-16 0.0 81 1 150 99 6 148 0 0 159 117 151
 83 3 151 0.7215686440467834 0.5254902243614198 0.0431372560560703 15 152 100 0
 153 148 0 17 153 0 152 71 147 67 156 154 0 66 +16 154 101 0 ?153 145 163 155 0
 0 2 30 155 102 0 154 164 146 0 +-8.4999999999999982e-04 4.0000000000000018e-04
 -6.9388939039070002e-21 1.0 -2.4492935982947066e-16 0.0 17 156 0 188 143 77 139
 153 154 0 0 -14 157 103 159 1.0e-08 166 148 161 12 158 +0 0 166 148 10 50 158 1
04 0 157 167 149 0 +-8.5e-04 -4.4999999999999982e-04 9.0e-04 0.0 0.0 1.0 1.0 -2.
4492935982947066e-16 0.0 81 1 159 105 6 157 0 0 168 150 160 83 3 160 0.721568644
0467834 0.5254902243614198 0.0431372560560703 15 161 106 0 125 157 0 17 162 0 16
1 125 95 121 165 163 0 0 -16 163 107 0 ?165 154 172 164 0 0 2 30 164 108 0 163 1
73 155 0 +-8.4999999999999982e-04 4.0000000000000018e-04 9.0e-04 1.0 -2.44929359
82947066e-16 0.0 17 165 0 170 89 131 85 162 163 0 84 +14 166 109 168 1.0e-08 175
 157 170 12 167 +0 0 175 157 10 51 167 110 0 166 176 158 0 +-8.4999999999999982e
-04 4.0000000000000018e-04 8.5e-04 1.0 -2.4492935982947066e-16 0.0 5.0e-05 2.449
2935982947066e-16 1.0 0.0 81 1 168 111 6 166 0 0 177 159 169 83 3 169 0.72156864
40467834 0.5254902243614198 0.0431372560560703 15 170 112 0 171 166 0 17 171 0 1
70 131 89 127 174 172 0 0 -16 172 113 0 ?174 163 181 173 0 0 2 30 173 114 0 172
 182 164 0 +-8.4999999999999982e-04 4.5000000000000028e-04 8.5e-04 1.0 -2.449293
5982947066e-16 0.0 17 174 0 179 83 137 79 171 172 0 78 +14 175 115 177 1.0e-08 1
84 166 179 12 176 +0 0 184 166 10 50 176 116 0 175 185 167 0 +-8.499999999999998
2e-04 4.5000000000000028e-04 0.0 2.4492935982947066e-16 1.0 0.0 0.0 0.0 1.0 81 1
 177 117 6 175 0 0 186 168 178 83 3 178 0.7215686440467834 0.5254902243614198 0.
0431372560560703 15 179 118 0 180 175 0 17 180 0 179 137 83 133 183 181 0 0 -16
 181 119 0 ?183 172 0 182 0 0 2 30 182 120 0 181 0 173 0 +-8.4999999999999982e-0
4 4.5000000000000028e-04 5.0e-05 1.0 -2.4492935982947066e-16 0.0 17 183 0 188 77
 143 73 180 181 0 83 +14 184 121 186 1.0e-08 0 175 188 12 185 +0 0 0 175 10 51 1
85 122 0 184 0 176 0 +-8.4999999999999982e-04 4.0000000000000018e-04 5.0e-05 1.0
 -2.4492935982947066e-16 0.0 5.0e-05 2.4492935982947066e-16 1.0 0.0 81 1 186 123
 6 184 0 0 0 177 187 83 3 187 0.7215686440467834 0.5254902243614198 0.0431372560
560703 15 188 124 0 183 184 0 12 189 188 0 190 0 0 0 0 1000.0 1.0e-08 0 0 0 1 0
 1 1 197 199 205 203 194 204 202 70 190 0 189 0 0 4 1 20 0 191 191 1 T74 20 191
 1 0 192 0 0 0 0 0 0 0 0 0 0 0 0 0 0 0 0 0 0 0 81 1 192 7 6 198 0 0 227 0 193 83
 3 193 0.800000011920929 0.800000011920929 0.800000011920929 19 194 1 0 189 196
 0 195 V13 195 2 0 189 0 0 0 0 194 198 19 196 3 0 189 0 194 197 S13 197 4 0 189
 0 198 0 0 196 0 14 198 5 192 1.0e-08 225 0 200 197 199 -0 0 225 0 195 50 199 6
 0 198 226 0 0 +-8.5e-04 -4.4999999999999982e-04 0.0 1.0 -2.4492935982947066e-16
 0.0 0.0 0.0 1.0 15 200 8 0 201 198 0 17 201 0 200 209 221 202 206 204 0 284 +18
 202 9 0 214 0 207 203 ?189 29 203 10 0 202 208 0 -8.4999999999999982e-04 4.0000
000000000018e-04 8.5e-04 16 204 11 0 ?201 0 212 205 0 0 189 30 205 12 0 204 213
 0 0 +-8.5e-04 -4.4999999999999974e-04 8.5e-04 2.4492935982947066e-16 1.0 0.0 17
 206 0 271 272 284 207 201 204 0 277 -18 207 13 0 221 202 210 208 ?189 29 208 14
 0 207 211 203 -8.5e-04 -3.9999999999999982e-04 8.5e-04 17 209 0 200 215 201 210
 214 212 0 256 -18 210 15 0 220 207 216 211 ?189 29 211 16 0 210 217 208 -8.4999
999999999982e-04 4.0000000000000018e-04 5.0e-05 16 212 17 0 ?214 204 218 213 0 0
 189 30 213 18 0 212 219 205 0 +-8.4999999999999982e-04 4.0000000000000018e-04 0
.0 0.0 0.0 1.0 17 214 0 292 293 305 202 209 212 0 201 +17 215 0 200 221 209 216
 220 218 0 235 -18 216 19 0 224 210 231 217 ?189 29 217 20 0 216 232 211 -8.5e-0
4 -3.9999999999999982e-04 5.0e-05 16 218 21 0 ?220 212 222 219 0 0 189 30 219 22
 0 218 223 213 0 +-8.5e-04 -4.4999999999999974e-04 5.0e-05 2.4492935982947066e-1
6 1.0 0.0 17 220 0 250 251 263 210 215 218 0 209 +17 221 0 200 201 215 207 224 2
22 0 206 +16 222 23 0 ?221 218 233 223 0 0 189 30 223 24 0 222 234 219 0 +-8.5e-
04 -3.9999999999999982e-04 0.0 0.0 0.0 1.0 17 224 0 229 230 242 216 221 222 0 21
5 -14 225 25 227 1.0e-08 246 198 229 197 226 +0 0 246 198 195 51 226 26 0 225 24
7 199 0 +-8.0e-04 -3.9999999999999982e-04 0.0 0.0 0.0 1.0 5.0e-05 -1.0 2.4492935
982947066e-16 0.0 81 1 227 27 6 225 0 0 248 192 228 83 3 228 0.800000011920929 0
.800000011920929 0.800000011920929 15 229 28 0 224 225 0 17 230 0 229 236 224 23
1 235 233 0 241 +18 231 29 0 230 216 237 232 ?189 29 232 30 0 231 238 217 -8.0e-
04 -4.4999999999999974e-04 5.0e-05 16 233 31 0 ?230 222 239 234 0 0 189 31 234 3
2 0 233 240 223 0 +-8.0e-04 -3.9999999999999982e-04 5.0e-05 0.0 0.0 1.0 -1.0 2.4
492935982947066e-16 0.0 5.0e-05 17 235 0 313 266 314 216 230 233 0 263 -17 236 0
 229 242 230 237 241 239 0 245 +18 237 33 0 236 231 252 238 ?189 29 238 34 0 237
 253 232 -8.0e-04 -4.4999999999999974e-04 8.5e-04 16 239 35 0 ?236 233 243 240 0
 0 189 30 240 36 0 239 244 234 0 +-8.0e-04 -4.4999999999999974e-04 0.0 0.0 0.0 1
.0 17 241 0 331 344 340 231 236 239 0 347 -17 242 0 229 224 236 207 245 243 0 0
 -16 243 37 0 ?245 239 254 244 0 0 189 31 244 38 0 243 255 240 0 +-8.0e-04 -3.99
99999999999982e-04 8.5e-04 0.0 0.0 1.0 -1.0 2.4492935982947066e-16 0.0 5.0e-05 1
7 245 0 322 323 277 237 242 243 0 340 +14 246 39 248 1.0e-08 267 225 250 197 247
 +0 0 267 225 195 51 247 40 0 246 268 226 0 +-8.0e-04 -4.4999999999999982e-04 5.
0e-05 2.4492935982947066e-16 1.0 0.0 5.0e-05 -1.0 2.4492935982947066e-16 0.0 81
 1 248 41 6 246 0 0 269 227 249 83 3 249 0.800000011920929 0.800000011920929 0.8
00000011920929 15 250 42 0 220 246 0 17 251 0 250 257 220 252 256 254 0 262 -18
 252 43 0 251 237 258 253 ?189 29 253 44 0 252 259 238 -7.9999999999999982e-04 4
.0000000000000018e-04 0.0 16 254 45 0 ?256 243 260 255 0 0 189 31 255 46 0 254 2
61 244 0 +-7.9999999999999982e-04 4.0000000000000018e-04 5.0e-05 2.4492935982947
066e-16 1.0 0.0 -1.0 2.4492935982947066e-16 0.0 5.0e-05 17 256 0 373 308 374 210
 251 254 0 305 +17 257 0 250 263 251 258 262 260 0 317 -18 258 47 0 257 252 273
 259 ?189 29 259 48 0 258 274 253 -8.0e-04 -3.9999999999999982e-04 0.0 16 260 49
 0 ?262 254 264 261 0 0 189 30 261 50 0 260 265 255 0 +-8.0e-04 -4.4999999999999
974e-04 -6.9388939039070002e-21 2.4492935982947066e-16 1.0 0.0 17 262 0 352 353
 365 252 257 260 0 358 +17 263 0 250 220 257 216 266 264 0 0 +16 264 51 0 ?263 2
60 275 265 0 0 189 31 265 52 0 264 276 261 0 +-8.0e-04 -3.9999999999999982e-04 5
.0e-05 2.4492935982947066e-16 1.0 0.0 -1.0 2.4492935982947066e-16 0.0 5.0e-05 17
 266 0 313 314 235 258 263 264 0 0 -14 267 53 269 1.0e-08 288 246 271 197 268 +0
 0 288 246 195 51 268 54 0 267 289 247 0 +-8.0e-04 -4.4999999999999982e-04 8.5e-
04 2.4492935982947066e-16 1.0 0.0 5.0e-05 -1.0 2.4492935982947066e-16 0.0 81 1 2
69 55 6 267 0 0 290 248 270 83 3 270 0.800000011920929 0.800000011920929 0.80000
0011920929 15 271 56 0 272 267 0 17 272 0 271 278 206 273 277 275 0 283 -18 273
 57 0 272 258 279 274 ?189 29 274 58 0 273 280 259 -8.0e-04 -3.9999999999999982e
-04 9.0e-04 16 275 59 0 ?277 264 281 276 0 0 189 31 276 60 0 275 282 265 0 +-8.0
e-04 -3.9999999999999982e-04 8.5e-04 -2.4492935982947066e-16 -1.0 0.0 -1.0 2.449
2935982947066e-16 0.0 5.0e-05 17 277 0 322 245 323 207 272 275 0 242 +17 278 0 2
71 284 272 279 283 281 0 287 +18 279 61 0 278 273 294 280 ?189 29 280 62 0 279 2
95 274 -7.9999999999999982e-04 4.0000000000000018e-04 9.0e-04 16 281 63 0 ?278 2
75 285 282 0 0 189 30 282 64 0 281 286 276 0 +-8.0e-04 -4.4999999999999974e-04 9
.0e-04 2.4492935982947066e-16 1.0 0.0 17 283 0 382 383 395 273 278 281 0 323 -17
 284 0 271 206 278 202 287 285 0 298 -16 285 65 0 ?287 281 296 286 0 0 189 31 28
6 66 0 285 297 282 0 +-7.9999999999999982e-04 4.0000000000000018e-04 8.5e-04 2.4
492935982947066e-16 1.0 0.0 -1.0 2.4492935982947066e-16 0.0 5.0e-05 17 287 0 403
 404 298 279 284 285 0 395 +14 288 67 290 1.0e-08 309 267 292 197 289 +0 0 309 2
67 195 51 289 68 0 288 310 268 0 +-7.9999999999999982e-04 4.0000000000000018e-04
 0.0 0.0 0.0 1.0 5.0e-05 -1.0 2.4492935982947066e-16 0.0 81 1 290 69 6 288 0 0 3
11 269 291 83 3 291 0.800000011920929 0.800000011920929 0.800000011920929 15 292
 70 0 293 288 0 17 293 0 292 299 214 294 298 296 0 404 -18 294 71 0 293 279 300
 295 ?189 29 295 72 0 294 301 280 -7.9999999999999982e-04 4.5000000000000028e-04
 8.5e-04 16 296 73 0 ?298 285 302 297 0 0 189 31 297 74 0 296 303 286 0 +-7.9999
999999999982e-04 4.0000000000000018e-04 8.5e-04 0.0 0.0 1.0 -1.0 2.4492935982947
066e-16 0.0 5.0e-05 17 298 0 403 287 404 202 293 296 0 0 +17 299 0 292 305 293 3
00 304 302 0 413 -18 300 75 0 308 294 333 301 ?189 29 301 76 0 300 334 295 -7.99
99999999999982e-04 4.5000000000000028e-04 5.0e-05 16 302 77 0 ?304 296 306 303 0
 0 189 30 303 78 0 302 307 297 0 +-7.9999999999999982e-04 4.5000000000000028e-04
 0.0 0.0 0.0 1.0 17 304 0 412 419 413 294 299 302 0 424 +17 305 0 292 214 299 21
0 308 306 0 0 -16 306 79 0 ?308 302 315 307 0 0 189 31 307 80 0 306 316 303 0 +-
7.9999999999999982e-04 4.0000000000000018e-04 5.0e-05 0.0 0.0 -1.0 -1.0 2.449293
5982947066e-16 0.0 5.0e-05 17 308 0 373 374 256 300 305 306 0 299 +14 309 81 311
 1.0e-08 318 288 313 197 310 +0 0 318 288 195 53 310 82 0 309 319 289 0 +-8.0e-0
4 -3.9999999999999982e-04 5.0e-05 5.0e-05 0.0 0.0 1.0 -1.0 2.4492935982947066e-1
6 0.0 81 1 311 83 6 309 0 0 320 290 312 83 3 312 0.800000011920929 0.80000001192
0929 0.800000011920929 15 313 84 0 266 309 0 17 314 0 313 235 266 231 317 315 0
 0 +16 315 85 0 ?314 306 324 316 0 0 189 31 316 86 0 315 325 307 0 +-8.0e-04 -3.
9999999999999982e-04 5.0e-05 -1.0 3.0616169978684065e-16 0.0 -3.0616169978684065
e-16 -1.0 0.0 5.0e-05 17 317 0 433 368 347 258 314 315 0 365 -14 318 87 320 1.0e
-08 327 309 322 197 319 +0 0 327 309 195 53 319 88 0 318 328 310 0 +-8.0e-04 -3.
9999999999999982e-04 8.5e-04 5.0e-05 0.0 0.0 -1.0 -1.0 2.4492935982947066e-16 0.
0 81 1 320 89 6 318 0 0 329 311 321 83 3 321 0.800000011920929 0.800000011920929
 0.800000011920929 15 322 90 0 245 318 0 17 323 0 322 277 245 273 326 324 0 388
 -16 324 91 0 ?326 315 335 325 0 0 189 31 325 92 0 324 336 316 0 +-8.0e-04 -3.99
99999999999982e-04 8.5e-04 1.0 -3.0616169978684065e-16 0.0 -3.0616169978684065e-
16 -1.0 0.0 5.0e-05 17 326 0 442 343 388 237 323 324 0 0 +14 327 93 329 1.0e-08
 348 318 331 197 328 -0 0 348 318 195 50 328 94 0 327 349 319 0 +-8.5e-04 -4.499
9999999999982e-04 0.0 2.4492935982947066e-16 1.0 0.0 0.0 0.0 1.0 81 1 329 95 6 3
27 0 0 350 320 330 83 3 330 0.800000011920929 0.800000011920929 0.80000001192092
9 15 331 96 0 332 327 0 17 332 0 331 340 344 333 337 335 0 446 +18 333 97 0 343
 300 338 334 ?189 29 334 98 0 333 339 301 -6.5000000000000018e-04 -4.49999999999
99982e-04 8.5e-04 16 335 99 0 ?332 324 341 336 0 0 189 30 336 100 0 335 342 325
 0 +-6.5000000000000018e-04 -4.4999999999999982e-04 0.0 0.0 0.0 1.0 17 337 0 451
 437 446 338 332 335 0 434 -18 338 101 0 344 333 354 339 ?189 29 339 102 0 338 3
55 334 -6.5000000000000018e-04 -4.4999999999999982e-04 5.0e-05 17 340 0 331 241
 332 237 343 341 0 326 -16 341 103 0 ?343 335 345 342 0 0 189 30 342 104 0 341 3
46 336 0 +-8.5e-04 -4.4999999999999974e-04 8.5e-04 1.0 -2.4492935982947066e-16 0
.0 17 343 0 442 443 326 333 340 341 0 332 +17 344 0 331 332 241 338 347 345 0 33
7 +16 345 105 0 ?344 341 356 346 0 0 189 30 346 106 0 345 357 342 0 +-8.5e-04 -4
.4999999999999974e-04 5.0e-05 1.0 -2.4492935982947066e-16 0.0 17 347 0 433 317 4
34 231 344 345 0 314 -14 348 107 350 1.0e-08 369 327 352 197 349 -0 0 369 327 19
5 50 349 108 0 348 370 328 0 +-8.5e-04 -4.4999999999999982e-04 0.0 0.0 0.0 1.0 1
.0 -2.4492935982947066e-16 0.0 81 1 350 109 6 348 0 0 371 329 351 83 3 351 0.800
000011920929 0.800000011920929 0.800000011920929 15 352 110 0 353 348 0 17 353 0
 352 359 262 354 358 356 0 455 +18 354 111 0 364 338 360 355 ?189 29 355 112 0 3
54 361 339 -6.4999999999999982e-04 4.0000000000000018e-04 -3.4694469519540002e-2
1 16 356 113 0 ?353 345 362 357 0 0 189 30 357 114 0 356 363 346 0 +-8.499999999
9999982e-04 4.0000000000000018e-04 -6.9388939039070002e-21 1.0 -2.44929359829470
66e-16 0.0 17 358 0 464 377 455 252 353 356 0 374 -17 359 0 352 365 353 360 364
 362 0 437 -18 360 115 0 368 354 384 361 ?189 29 361 116 0 360 385 355 -6.500000
0000000018e-04 -3.9999999999999986e-04 -3.4694469519540002e-21 16 362 117 0 ?364
 356 366 363 0 0 189 30 363 118 0 362 367 357 0 +-6.5000000000000018e-04 -4.4999
999999999982e-04 0.0 2.4492935982947066e-16 1.0 0.0 17 364 0 451 452 437 354 359
 362 0 353 +17 365 0 352 262 359 258 368 366 0 266 -16 366 119 0 ?368 362 375 36
7 0 0 189 30 367 120 0 366 376 363 0 +-8.5e-04 -3.9999999999999982e-04 -6.938893
9039070002e-21 1.0 -2.4492935982947066e-16 0.0 17 368 0 433 434 317 360 365 366
 0 359 +14 369 121 371 1.0e-08 378 348 373 197 370 +0 0 378 348 195 53 370 122 0
 369 379 349 0 +-7.9999999999999982e-04 4.0000000000000018e-04 5.0e-05 5.0e-05 0
.0 0.0 1.0 -1.0 2.4492935982947066e-16 0.0 81 1 371 123 6 369 0 0 380 350 372 83
 3 372 0.800000011920929 0.800000011920929 0.800000011920929 15 373 124 0 308 36
9 0 17 374 0 373 256 308 252 377 375 0 0 -16 375 125 0 ?377 366 386 376 0 0 189
 31 376 126 0 375 387 367 0 +-7.9999999999999982e-04 4.0000000000000018e-04 5.0e
-05 1.0 -1.8369701987210066e-16 0.0 1.8369701987210066e-16 1.0 0.0 5.0e-05 17 37
7 0 464 416 358 300 374 375 0 0 +14 378 127 380 1.0e-08 399 369 382 197 379 +0 0
 399 369 195 50 379 128 0 378 400 370 0 +-8.5e-04 -4.4999999999999982e-04 9.0e-0
4 0.0 0.0 1.0 1.0 -2.4492935982947066e-16 0.0 81 1 380 129 6 378 0 0 401 371 381
 83 3 381 0.800000011920929 0.800000011920929 0.800000011920929 15 382 130 0 283
 378 0 17 383 0 382 389 283 384 388 386 0 394 +18 384 131 0 383 360 390 385 ?189
 29 385 132 0 384 391 361 -6.5000000000000018e-04 -3.9999999999999986e-04 9.0e-0
4 16 386 133 0 ?383 375 392 387 0 0 189 30 387 134 0 386 393 376 0 +-8.5e-04 -3.
9999999999999982e-04 9.0e-04 1.0 -2.4492935982947066e-16 0.0 17 388 0 442 326 44
3 273 383 386 0 0 -17 389 0 382 395 383 390 394 392 0 456 +18 390 135 0 398 384
 417 391 ?189 29 391 136 0 390 418 385 -6.4999999999999982e-04 4.000000000000001
8e-04 9.0e-04 16 392 137 0 ?389 386 396 393 0 0 189 30 393 138 0 392 397 387 0 +
-6.5000000000000018e-04 -4.4999999999999982e-04 9.0e-04 2.4492935982947066e-16 1
.0 0.0 17 394 0 451 446 456 384 389 392 0 443 -17 395 0 382 283 389 279 398 396
 0 407 -16 396 139 0 ?398 392 405 397 0 0 189 30 397 140 0 396 406 393 0 +-8.499
9999999999982e-04 4.0000000000000018e-04 9.0e-04 1.0 -2.4492935982947066e-16 0.0
 17 398 0 469 459 407 390 395 396 0 389 +14 399 141 401 1.0e-08 408 378 403 197
 400 +0 0 408 378 195 53 400 142 0 399 409 379 0 +-7.9999999999999982e-04 4.0000
000000000018e-04 8.5e-04 5.0e-05 -2.4492935982947066e-16 -1.0 0.0 -1.0 2.4492935
982947066e-16 0.0 81 1 401 143 6 399 0 0 410 380 402 83 3 402 0.800000011920929
 0.800000011920929 0.800000011920929 15 403 144 0 287 399 0 17 404 0 403 298 287
 294 407 405 0 304 -16 405 145 0 ?407 396 414 406 0 0 189 31 406 146 0 405 415 3
97 0 +-7.9999999999999982e-04 4.0000000000000018e-04 8.5e-04 1.0 -2.449293598294
7066e-16 6.1232339957370003e-17 -6.1232339957370003e-17 1.4997597826619152e-32 1
.0 5.0e-05 17 407 0 469 398 424 279 404 405 0 0 +14 408 147 410 1.0e-08 429 399
 412 197 409 +0 0 429 399 195 50 409 148 0 408 430 400 0 +-8.4999999999999982e-0
4 4.5000000000000028e-04 0.0 2.4492935982947066e-16 1.0 0.0 0.0 0.0 1.0 81 1 410
 149 6 408 0 0 431 401 411 83 3 411 0.800000011920929 0.800000011920929 0.800000
011920929 15 412 150 0 413 408 0 17 413 0 412 304 425 300 416 414 0 377 -16 414
 151 0 ?416 405 422 415 0 0 189 30 415 152 0 414 423 406 0 +-8.4999999999999982e
-04 4.5000000000000028e-04 5.0e-05 1.0 -2.4492935982947066e-16 0.0 17 416 0 464
 455 377 417 413 414 0 425 +18 417 153 0 416 390 420 418 ?189 29 418 154 0 417 4
21 391 -6.4999999999999982e-04 4.5000000000000028e-04 5.0e-05 17 419 0 412 425 3
04 420 424 422 0 459 +18 420 155 0 428 417 0 421 ?189 29 421 156 0 420 0 418 -6.
4999999999999982e-04 4.5000000000000028e-04 8.5e-04 16 422 157 0 ?419 414 426 42
3 0 0 189 30 423 158 0 422 427 415 0 +-8.4999999999999982e-04 4.5000000000000028
e-04 8.5e-04 1.0 -2.4492935982947066e-16 0.0 17 424 0 469 407 459 294 419 422 0
 0 -17 425 0 412 413 419 417 428 426 0 452 -16 426 159 0 ?428 422 435 427 0 0 18
9 30 427 160 0 426 436 423 0 +-6.4999999999999982e-04 4.5000000000000028e-04 0.0
 0.0 0.0 1.0 17 428 0 451 456 452 420 425 426 0 419 +14 429 161 431 1.0e-08 438
 408 433 197 430 +0 0 438 408 195 51 430 162 0 429 439 409 0 +-8.5e-04 -3.999999
9999999982e-04 5.0e-05 1.0 -2.4492935982947066e-16 0.0 5.0e-05 -2.44929359829470
66e-16 -1.0 0.0 81 1 431 163 6 429 0 0 440 410 432 83 3 432 0.800000011920929 0.
800000011920929 0.800000011920929 15 433 164 0 317 429 0 17 434 0 433 347 368 33
8 437 435 0 0 -16 435 165 0 ?437 426 444 436 0 0 189 31 436 166 0 435 445 427 0
 +-6.5000000000000018e-04 -3.9999999999999986e-04 5.0e-05 1.0 -2.449293598294706
6e-16 0.0 -2.4492935982947066e-16 -1.0 0.0 5.0e-05 17 437 0 451 364 337 360 434
 435 0 0 +14 438 167 440 1.0e-08 447 429 442 197 439 +0 0 447 429 195 51 439 168
 0 438 448 430 0 +-8.5e-04 -3.9999999999999982e-04 8.5e-04 1.0 -2.44929359829470
66e-16 0.0 5.0e-05 -2.4492935982947066e-16 -1.0 0.0 81 1 440 169 6 438 0 0 449 4
31 441 83 3 441 0.800000011920929 0.800000011920929 0.800000011920929 15 442 170
 0 343 438 0 17 443 0 442 388 343 384 446 444 0 0 -16 444 171 0 ?446 435 453 445
 0 0 189 31 445 172 0 444 454 436 0 +-6.5000000000000018e-04 -3.9999999999999986
e-04 8.5e-04 1.0 -2.4492935982947066e-16 0.0 -2.4492935982947066e-16 -1.0 0.0 5.
0e-05 17 446 0 451 337 394 333 443 444 0 0 +14 447 173 449 1.0e-08 460 438 451 1
97 448 +0 0 460 438 195 50 448 174 0 447 461 439 0 +-6.5000000000000018e-04 -4.4
999999999999992e-04 0.0 1.0 -2.4492935982947066e-16 0.0 0.0 0.0 1.0 81 1 449 175
 6 447 0 0 462 440 450 83 3 450 0.800000011920929 0.800000011920929 0.8000000119
20929 15 451 176 0 337 447 0 17 452 0 451 428 364 417 455 453 0 0 +16 453 177 0
 ?452 444 457 454 0 0 189 31 454 178 0 453 458 445 0 +-6.5e-04 4.000000000000001
8e-04 5.0e-05 1.0 -2.4492935982947066e-16 0.0 2.4492935982947066e-16 1.0 0.0 5.0
e-05 17 455 0 464 358 416 354 452 453 0 0 -17 456 0 451 394 428 390 459 457 0 0
 +16 457 179 0 ?456 453 0 458 0 0 189 31 458 180 0 457 0 454 0 +-6.5e-04 4.00000
00000000018e-04 8.5e-04 1.0 -2.4492935982947066e-16 0.0 2.4492935982947066e-16 1
.0 0.0 5.0e-05 17 459 0 469 424 398 420 456 457 0 0 -14 460 181 462 1.0e-08 465
 447 464 197 461 +0 0 465 447 195 51 461 182 0 460 466 448 0 +-8.499999999999998
2e-04 4.0000000000000018e-04 5.0e-05 1.0 -2.4492935982947066e-16 0.0 5.0e-05 2.4
492935982947066e-16 1.0 0.0 81 1 462 183 6 460 0 0 467 449 463 83 3 463 0.800000
011920929 0.800000011920929 0.800000011920929 15 464 184 0 416 460 0 14 465 185
 467 1.0e-08 0 460 469 197 466 +0 0 0 460 195 51 466 186 0 465 0 461 0 +-8.49999
99999999982e-04 4.0000000000000018e-04 8.5e-04 1.0 -2.4492935982947066e-16 0.0 5
.0e-05 2.4492935982947066e-16 1.0 0.0 81 1 467 187 6 465 0 0 0 462 468 83 3 468
 0.800000011920929 0.800000011920929 0.800000011920929 15 469 188 0 424 465 0 12
 470 188 0 471 0 0 0 0 1000.0 1.0e-08 0 0 0 1 0 1 1 478 480 486 484 475 485 483
 70 471 0 470 0 0 4 1 20 0 472 472 1 T74 20 472 1 0 473 0 0 0 0 0 0 0 0 0 0 0 0
 0 0 0 0 0 0 0 81 1 473 7 6 479 0 0 508 0 474 83 3 474 0.800000011920929 0.80000
0011920929 0.800000011920929 19 475 1 0 470 477 0 476 V13 476 2 0 470 0 0 0 0 47
5 479 19 477 3 0 470 0 475 478 S13 478 4 0 470 0 479 0 0 477 0 14 479 5 473 1.0e
-08 506 0 481 478 480 -0 0 506 0 476 50 480 6 0 479 507 0 0 +-8.5e-04 -4.4999999
999999982e-04 0.0 2.4492935982947066e-16 1.0 0.0 0.0 0.0 1.0 15 481 8 0 482 479
 0 17 482 0 481 490 502 483 487 485 0 532 +18 483 9 0 495 0 488 484 ?470 29 484
 10 0 483 489 0 7.9999999999999982e-04 -4.5000000000000018e-04 8.5e-04 16 485 11
 0 ?482 0 493 486 0 0 470 30 486 12 0 485 494 0 0 +7.9999999999999982e-04 -4.500
0000000000018e-04 0.0 0.0 0.0 1.0 17 487 0 531 538 532 488 482 485 0 523 -18 488
 13 0 502 483 491 489 ?470 29 489 14 0 488 492 484 7.9999999999999982e-04 -4.500
0000000000018e-04 5.0e-05 17 490 0 481 496 482 491 495 493 0 565 -18 491 15 0 50
1 488 497 492 ?470 29 492 16 0 491 498 489 6.4999999999999982e-04 -4.50000000000
00018e-04 8.5e-04 16 493 17 0 ?495 485 499 494 0 0 470 30 494 18 0 493 500 486 0
 +-8.5e-04 -4.4999999999999974e-04 8.5e-04 1.0 -2.4492935982947066e-16 0.0 17 49
5 0 552 553 565 483 490 493 0 558 +17 496 0 481 502 490 497 501 499 0 516 -18 49
7 19 0 505 491 512 498 ?470 29 498 20 0 497 513 492 6.4999999999999982e-04 -4.50
00000000000018e-04 5.0e-05 16 499 21 0 ?501 493 503 500 0 0 470 30 500 22 0 499
 504 494 0 +6.4999999999999982e-04 -4.5000000000000018e-04 0.0 0.0 0.0 1.0 17 50
1 0 573 568 516 491 496 499 0 490 +17 502 0 481 482 496 488 505 503 0 487 +16 50
3 23 0 ?502 499 514 504 0 0 470 30 504 24 0 503 515 500 0 +-8.5e-04 -4.499999999
9999974e-04 5.0e-05 1.0 -2.4492935982947066e-16 0.0 17 505 0 510 511 523 497 502
 503 0 496 -14 506 25 508 1.0e-08 527 479 510 478 507 +0 0 527 479 476 51 507 26
 0 506 528 480 0 +-8.5e-04 -3.9999999999999982e-04 5.0e-05 1.0 -2.44929359829470
66e-16 0.0 5.0e-05 -2.4492935982947066e-16 -1.0 0.0 81 1 508 27 6 506 0 0 529 47
3 509 83 3 509 0.800000011920929 0.800000011920929 0.800000011920929 15 510 28 0
 511 506 0 17 511 0 510 517 505 512 516 514 0 522 +18 512 29 0 511 497 518 513 ?
470 29 513 30 0 512 519 498 6.4999999999999982e-04 -4.0000000000000009e-04 -3.46
94469519540002e-21 16 514 31 0 ?511 503 520 515 0 0 470 31 515 32 0 514 521 504
 0 +6.5e-04 -4.0000000000000009e-04 5.0e-05 1.0 -2.4492935982947066e-16 0.0 -2.4
492935982947066e-16 -1.0 0.0 5.0e-05 17 516 0 573 501 598 497 511 514 0 0 -17 51
7 0 510 523 511 518 522 520 0 610 +18 518 33 0 622 512 536 519 ?470 29 519 34 0
 518 537 513 7.9999999999999982e-04 -4.0000000000000018e-04 0.0 16 520 35 0 ?517
 514 524 521 0 0 470 30 521 36 0 520 525 515 0 +-8.5e-04 -3.9999999999999982e-04
 -6.9388939039070002e-21 1.0 -2.4492935982947066e-16 0.0 17 522 0 615 601 622 51
2 517 520 0 598 -17 523 0 510 505 517 488 526 524 0 543 +16 524 37 0 ?523 520 53
3 525 0 0 470 31 525 38 0 524 534 521 0 +7.9999999999999982e-04 -4.0000000000000
018e-04 5.0e-05 -1.0 1.8369701987210066e-16 0.0 -1.8369701987210066e-16 -1.0 0.0
 5.0e-05 17 526 0 606 607 543 518 523 524 0 517 -14 527 39 529 1.0e-08 548 506 5
31 478 528 +0 0 548 506 476 51 528 40 0 527 549 507 0 +7.9999999999999982e-04 -4
.0000000000000018e-04 0.0 0.0 0.0 1.0 5.0e-05 1.0 -2.4492935982947066e-16 0.0 81
 1 529 41 6 527 0 0 550 508 530 83 3 530 0.800000011920929 0.800000011920929 0.8
00000011920929 15 531 42 0 532 527 0 17 532 0 531 487 544 483 535 533 0 0 +16 53
3 43 0 ?532 524 541 534 0 0 470 31 534 44 0 533 542 525 0 +7.9999999999999982e-0
4 -4.0000000000000018e-04 8.5e-04 0.0 0.0 -1.0 1.0 -2.4492935982947066e-16 0.0 5
.0e-05 17 535 0 651 652 558 536 532 533 0 643 -18 536 45 0 535 518 539 537 ?470
 29 537 46 0 536 540 519 8.4999999999999982e-04 -4.0000000000000018e-04 8.5e-04
 17 538 0 531 544 487 539 543 541 0 547 -18 539 47 0 636 536 554 540 ?470 29 540
 48 0 539 555 537 8.4999999999999982e-04 -4.0000000000000018e-04 5.0e-05 16 541
 49 0 ?543 533 545 542 0 0 470 31 542 50 0 541 546 534 0 +7.9999999999999982e-04
 -4.0000000000000018e-04 5.0e-05 0.0 0.0 -1.0 1.0 -2.4492935982947066e-16 0.0 5.
0e-05 17 543 0 606 526 607 488 538 541 0 0 +17 544 0 531 532 538 536 547 545 0 0
 +16 545 51 0 ?544 541 556 546 0 0 470 30 546 52 0 545 557 542 0 +8.499999999999
9982e-04 -4.0000000000000018e-04 0.0 0.0 0.0 1.0 17 547 0 630 631 643 539 544 54
5 0 607 -14 548 53 550 1.0e-08 569 527 552 478 549 +0 0 569 527 476 51 549 54 0
 548 570 528 0 +-8.5e-04 -3.9999999999999982e-04 8.5e-04 1.0 -2.4492935982947066
e-16 0.0 5.0e-05 -2.4492935982947066e-16 -1.0 0.0 81 1 550 55 6 548 0 0 571 529
 551 83 3 551 0.800000011920929 0.800000011920929 0.800000011920929 15 552 56 0
 495 548 0 17 553 0 552 559 495 554 558 556 0 564 -18 554 57 0 553 539 560 555 ?
470 29 555 58 0 554 561 540 7.9999999999999982e-04 -4.0000000000000018e-04 9.0e-
04 16 556 59 0 ?558 545 562 557 0 0 470 31 557 60 0 556 563 546 0 +7.99999999999
99982e-04 -4.0000000000000018e-04 8.5e-04 1.0 -1.8369701987210066e-16 0.0 -1.836
9701987210066e-16 -1.0 0.0 5.0e-05 17 558 0 651 535 652 483 553 556 0 482 +17 55
9 0 552 565 553 560 564 562 0 568 -18 560 61 0 559 554 575 561 ?470 29 561 62 0
 560 576 555 6.4999999999999982e-04 -4.0000000000000009e-04 9.0e-04 16 562 63 0
 ?564 556 566 563 0 0 470 30 563 64 0 562 567 557 0 +-8.5e-04 -3.999999999999998
2e-04 9.0e-04 1.0 -2.4492935982947066e-16 0.0 17 564 0 660 661 579 554 559 562 0
 652 +17 565 0 552 495 559 491 568 566 0 0 +16 566 65 0 ?565 562 577 567 0 0 470
 31 567 66 0 566 578 563 0 +6.5e-04 -4.0000000000000009e-04 8.5e-04 1.0 -2.44929
35982947066e-16 0.0 -2.4492935982947066e-16 -1.0 0.0 5.0e-05 17 568 0 573 574 50
1 560 565 566 0 579 -14 569 67 571 1.0e-08 602 548 573 478 570 -0 0 602 548 476
 50 570 68 0 569 603 549 0 +6.5e-04 -4.5000000000000018e-04 0.0 1.0 -2.449293598
2947066e-16 0.0 0.0 0.0 1.0 81 1 571 69 6 569 0 0 604 550 572 83 3 572 0.8000000
11920929 0.800000011920929 0.800000011920929 15 573 70 0 568 569 0 17 574 0 573
 580 568 575 579 577 0 667 +18 575 71 0 585 560 581 576 ?470 29 576 72 0 575 582
 561 6.5000000000000018e-04 3.9999999999999986e-04 9.0e-04 16 577 73 0 ?574 566
 583 578 0 0 470 30 578 74 0 577 584 567 0 +6.4999999999999982e-04 -4.5000000000
000018e-04 9.0e-04 2.4492935982947066e-16 1.0 0.0 17 579 0 660 564 667 560 574 5
77 0 0 -17 580 0 573 586 574 581 585 583 0 691 -18 581 75 0 591 575 587 582 ?470
 29 582 76 0 581 588 576 6.5000000000000018e-04 4.4999999999999992e-04 8.5e-04 1
6 583 77 0 ?585 577 589 584 0 0 470 31 584 78 0 583 590 578 0 +6.500000000000001
8e-04 3.9999999999999986e-04 8.5e-04 1.0 -2.4492935982947066e-16 0.0 2.449293598
2947066e-16 1.0 0.0 5.0e-05 17 585 0 690 670 691 575 580 583 0 574 +17 586 0 573
 592 580 587 591 589 0 597 -18 587 79 0 586 581 593 588 ?470 29 588 80 0 587 594
 582 6.5000000000000018e-04 4.4999999999999992e-04 5.0e-05 16 589 81 0 ?591 583
 595 590 0 0 470 30 590 82 0 589 596 584 0 +6.5000000000000018e-04 4.49999999999
99992e-04 0.0 0.0 0.0 1.0 17 591 0 705 694 681 581 586 589 0 580 +17 592 0 573 5
98 586 593 597 595 0 0 -18 593 83 0 621 587 617 594 ?470 29 594 84 0 593 618 588
 6.5000000000000018e-04 3.9999999999999986e-04 -3.4694469519540002e-21 16 595 85
 0 ?597 589 599 596 0 0 470 31 596 86 0 595 600 590 0 +6.5000000000000018e-04 3.
9999999999999986e-04 5.0e-05 1.0 -2.4492935982947066e-16 0.0 2.4492935982947066e
-16 1.0 0.0 5.0e-05 17 597 0 675 676 621 587 592 595 0 681 +17 598 0 573 516 592
 512 601 599 0 0 -16 599 87 0 ?601 595 608 600 0 0 470 30 600 88 0 599 609 596 0
 +6.4999999999999982e-04 -4.5000000000000018e-04 0.0 2.4492935982947066e-16 1.0
 0.0 17 601 0 615 616 522 593 598 599 0 592 +14 602 89 604 1.0e-08 611 569 606 4
78 603 +0 0 611 569 476 53 603 90 0 602 612 570 0 +7.9999999999999982e-04 -4.000
0000000000018e-04 5.0e-05 5.0e-05 0.0 0.0 1.0 1.0 -2.4492935982947066e-16 0.0 81
 1 604 91 6 602 0 0 613 571 605 83 3 605 0.800000011920929 0.800000011920929 0.8
00000011920929 15 606 92 0 543 602 0 17 607 0 606 543 526 539 610 608 0 0 +16 60
8 93 0 ?607 599 619 609 0 0 470 31 609 94 0 608 620 600 0 +7.9999999999999982e-0
4 -4.0000000000000018e-04 5.0e-05 -2.4492935982947066e-16 -1.0 0.0 1.0 -2.449293
5982947066e-16 0.0 5.0e-05 17 610 0 714 625 636 518 607 608 0 0 -14 611 95 613 1
.0e-08 626 602 615 478 612 -0 0 626 602 476 50 612 96 0 611 627 603 0 +-8.5e-04
 -4.4999999999999982e-04 0.0 0.0 0.0 1.0 1.0 -2.4492935982947066e-16 0.0 81 1 61
3 97 6 611 0 0 628 604 614 83 3 614 0.800000011920929 0.800000011920929 0.800000
011920929 15 615 98 0 616 611 0 17 616 0 615 622 601 617 621 619 0 682 +18 617 9
9 0 625 593 632 618 ?470 29 618 100 0 617 633 594 8.0e-04 3.9999999999999974e-04
 0.0 16 619 101 0 ?616 608 623 620 0 0 470 30 620 102 0 619 624 609 0 +-8.499999
9999999982e-04 4.0000000000000018e-04 -6.9388939039070002e-21 1.0 -2.44929359829
47066e-16 0.0 17 621 0 675 597 682 593 616 619 0 601 -17 622 0 615 522 616 518 6
25 623 0 526 -16 623 103 0 ?625 619 634 624 0 0 470 30 624 104 0 623 635 620 0 +
7.9999999999999982e-04 -4.5000000000000018e-04 -6.9388939039070002e-21 2.4492935
982947066e-16 1.0 0.0 17 625 0 714 715 610 617 622 623 0 616 +14 626 105 628 1.0
e-08 647 611 630 478 627 +0 0 647 611 476 50 627 106 0 626 648 612 0 +8.49999999
99999982e-04 -4.5000000000000028e-04 0.0 1.0 -2.4492935982947066e-16 0.0 0.0 0.0
 1.0 81 1 628 107 6 626 0 0 649 613 629 83 3 629 0.800000011920929 0.80000001192
0929 0.800000011920929 15 630 108 0 547 626 0 17 631 0 630 637 547 632 636 634 0
 642 +18 632 109 0 631 617 638 633 ?470 29 633 110 0 632 639 618 8.5e-04 3.99999
99999999974e-04 5.0e-05 16 634 111 0 ?631 623 640 635 0 0 470 30 635 112 0 634 6
41 624 0 +8.4999999999999982e-04 -4.5000000000000028e-04 5.0e-05 2.4492935982947
066e-16 1.0 0.0 17 636 0 714 610 715 539 631 634 0 538 -17 637 0 630 643 631 638
 642 640 0 646 +18 638 113 0 637 632 662 639 ?470 29 639 114 0 638 663 633 8.5e-
04 3.9999999999999974e-04 8.5e-04 16 640 115 0 ?637 634 644 641 0 0 470 30 641 1
16 0 640 645 635 0 +8.5e-04 3.9999999999999974e-04 0.0 0.0 0.0 1.0 17 642 0 732
 733 737 632 637 640 0 736 -17 643 0 630 547 637 536 646 644 0 655 -16 644 117 0
 ?646 640 653 645 0 0 470 30 645 118 0 644 654 641 0 +8.4999999999999982e-04 -4.
5000000000000028e-04 8.5e-04 2.4492935982947066e-16 1.0 0.0 17 646 0 723 724 655
 638 643 644 0 727 +14 647 119 649 1.0e-08 656 626 651 478 648 +0 0 656 626 476
 53 648 120 0 647 657 627 0 +7.9999999999999982e-04 -4.0000000000000018e-04 8.5e
-04 5.0e-05 0.0 0.0 -1.0 1.0 -2.4492935982947066e-16 0.0 81 1 649 121 6 647 0 0
 658 628 650 83 3 650 0.800000011920929 0.800000011920929 0.800000011920929 15 6
51 122 0 652 647 0 17 652 0 651 558 535 554 655 653 0 666 -16 653 123 0 ?655 644
 664 654 0 0 470 31 654 124 0 653 665 645 0 +7.9999999999999982e-04 -4.000000000
0000018e-04 8.5e-04 2.4492935982947066e-16 1.0 0.0 1.0 -2.4492935982947066e-16 0
.0 5.0e-05 17 655 0 723 646 666 536 652 653 0 544 +14 656 125 658 1.0e-08 671 64
7 660 478 657 +0 0 671 647 476 50 657 126 0 656 672 648 0 +-8.5e-04 -4.499999999
9999982e-04 9.0e-04 0.0 0.0 1.0 1.0 -2.4492935982947066e-16 0.0 81 1 658 127 6 6
56 0 0 673 649 659 83 3 659 0.800000011920929 0.800000011920929 0.80000001192092
9 15 660 128 0 579 656 0 17 661 0 660 667 564 662 666 664 0 724 +18 662 129 0 66
1 638 677 663 ?470 29 663 130 0 662 678 639 8.0e-04 3.9999999999999974e-04 9.0e-
04 16 664 131 0 ?661 653 668 665 0 0 470 30 665 132 0 664 669 654 0 +7.999999999
9999982e-04 -4.5000000000000018e-04 9.0e-04 2.4492935982947066e-16 1.0 0.0 17 66
6 0 723 655 724 554 661 664 0 0 -17 667 0 660 579 661 575 670 668 0 0 -16 668 13
3 0 ?670 664 679 669 0 0 470 30 669 134 0 668 680 665 0 +-8.4999999999999982e-04
 4.0000000000000018e-04 9.0e-04 1.0 -2.4492935982947066e-16 0.0 17 670 0 690 697
 585 662 667 668 0 700 +14 671 135 673 1.0e-08 686 656 675 478 672 +0 0 686 656
 476 51 672 136 0 671 687 657 0 +-8.4999999999999982e-04 4.0000000000000018e-04
 5.0e-05 1.0 -2.4492935982947066e-16 0.0 5.0e-05 2.4492935982947066e-16 1.0 0.0
 81 1 673 137 6 671 0 0 688 658 674 83 3 674 0.800000011920929 0.800000011920929
 0.800000011920929 15 675 138 0 676 671 0 17 676 0 675 682 597 677 681 679 0 706
 +18 677 139 0 685 662 695 678 ?470 29 678 140 0 677 696 663 8.0e-04 4.499999999
9999974e-04 5.0e-05 16 679 141 0 ?676 668 683 680 0 0 470 30 680 142 0 679 684 6
69 0 +-8.4999999999999982e-04 4.5000000000000028e-04 5.0e-05 1.0 -2.449293598294
7066e-16 0.0 17 681 0 705 591 706 587 676 679 0 0 -17 682 0 675 621 676 617 685
 683 0 718 -16 683 143 0 ?685 679 692 684 0 0 470 31 684 144 0 683 693 680 0 +8.
0e-04 3.9999999999999974e-04 5.0e-05 1.0 -3.0616169978684065e-16 0.0 3.061616997
8684065e-16 1.0 0.0 5.0e-05 17 685 0 745 736 718 677 682 683 0 733 +14 686 145 6
88 1.0e-08 701 671 690 478 687 +0 0 701 671 476 51 687 146 0 686 702 672 0 +-8.4
999999999999982e-04 4.0000000000000018e-04 8.5e-04 1.0 -2.4492935982947066e-16 0
.0 5.0e-05 2.4492935982947066e-16 1.0 0.0 81 1 688 147 6 686 0 0 703 673 689 83
 3 689 0.800000011920929 0.800000011920929 0.800000011920929 15 690 148 0 691 68
6 0 17 691 0 690 585 697 581 694 692 0 0 -16 692 149 0 ?694 683 698 693 0 0 470
 30 693 150 0 692 699 684 0 +-8.4999999999999982e-04 4.5000000000000028e-04 8.5e
-04 1.0 -2.4492935982947066e-16 0.0 17 694 0 705 706 591 695 691 692 0 709 +18 6
95 151 0 740 677 0 696 ?470 29 696 152 0 695 0 678 8.0e-04 4.4999999999999974e-0
4 8.5e-04 17 697 0 690 691 670 695 700 698 0 0 -16 698 153 0 ?700 692 707 699 0
 0 470 31 699 154 0 698 708 693 0 +8.0e-04 3.9999999999999974e-04 8.5e-04 1.0 -2
.4492935982947066e-16 -6.1232339957370003e-17 6.1232339957370003e-17 -1.49975978
26619152e-32 1.0 5.0e-05 17 700 0 750 727 740 662 697 698 0 0 +14 701 155 703 1.
0e-08 710 686 705 478 702 +0 0 710 686 476 50 702 156 0 701 711 687 0 +-8.499999
9999999982e-04 4.5000000000000028e-04 0.0 2.4492935982947066e-16 1.0 0.0 0.0 0.0
 1.0 81 1 703 157 6 701 0 0 712 688 704 83 3 704 0.800000011920929 0.80000001192
0929 0.800000011920929 15 705 158 0 681 701 0 17 706 0 705 681 694 677 709 707 0
 0 -16 707 159 0 ?709 698 716 708 0 0 470 30 708 160 0 707 717 699 0 +8.0e-04 4.
4999999999999974e-04 0.0 0.0 0.0 1.0 17 709 0 732 737 733 695 706 707 0 697 +14
 710 161 712 1.0e-08 719 701 714 478 711 +0 0 719 701 476 51 711 162 0 710 720 7
02 0 +7.9999999999999982e-04 -4.5000000000000018e-04 5.0e-05 2.4492935982947066e
-16 1.0 0.0 5.0e-05 1.0 -2.4492935982947066e-16 0.0 81 1 712 163 6 710 0 0 721 7
03 713 83 3 713 0.800000011920929 0.800000011920929 0.800000011920929 15 714 164
 0 610 710 0 17 715 0 714 636 625 632 718 716 0 0 +16 716 165 0 ?715 707 725 717
 0 0 470 31 717 166 0 716 726 708 0 +8.0e-04 3.9999999999999974e-04 5.0e-05 -2.4
492935982947066e-16 -1.0 0.0 1.0 -2.4492935982947066e-16 0.0 5.0e-05 17 718 0 74
5 685 736 617 715 716 0 0 -14 719 167 721 1.0e-08 728 710 723 478 720 +0 0 728 7
10 476 51 720 168 0 719 729 711 0 +7.9999999999999982e-04 -4.5000000000000018e-0
4 8.5e-04 2.4492935982947066e-16 1.0 0.0 5.0e-05 1.0 -2.4492935982947066e-16 0.0
 81 1 721 169 6 719 0 0 730 712 722 83 3 722 0.800000011920929 0.800000011920929
 0.800000011920929 15 723 170 0 646 719 0 17 724 0 723 666 646 662 727 725 0 670
 +16 725 171 0 ?724 716 734 726 0 0 470 31 726 172 0 725 735 717 0 +8.0e-04 3.99
99999999999974e-04 8.5e-04 -2.4492935982947066e-16 -1.0 0.0 1.0 -2.4492935982947
066e-16 0.0 5.0e-05 17 727 0 750 740 700 638 724 725 0 737 -14 728 173 730 1.0e-
08 741 719 732 478 729 +0 0 741 719 476 51 729 174 0 728 742 720 0 +8.0e-04 3.99
99999999999974e-04 0.0 0.0 0.0 1.0 5.0e-05 1.0 -2.4492935982947066e-16 0.0 81 1
 730 175 6 728 0 0 743 721 731 83 3 731 0.800000011920929 0.800000011920929 0.80
0000011920929 15 732 176 0 642 728 0 17 733 0 732 709 642 677 736 734 0 676 +16
 734 177 0 ?733 725 738 735 0 0 470 31 735 178 0 734 739 726 0 +8.0e-04 3.999999
9999999974e-04 5.0e-05 0.0 0.0 1.0 1.0 -2.4492935982947066e-16 0.0 5.0e-05 17 73
6 0 745 718 685 632 733 734 0 715 -17 737 0 732 642 709 638 740 738 0 0 +16 738
 179 0 ?737 734 0 739 0 0 470 31 739 180 0 738 0 735 0 +8.0e-04 3.99999999999999
74e-04 8.5e-04 0.0 0.0 -1.0 1.0 -2.4492935982947066e-16 0.0 5.0e-05 17 740 0 750
 700 727 695 737 738 0 694 -14 741 181 743 1.0e-08 746 728 745 478 742 +0 0 746
 728 476 53 742 182 0 741 747 729 0 +8.0e-04 3.9999999999999974e-04 5.0e-05 5.0e
-05 0.0 0.0 1.0 1.0 -2.4492935982947066e-16 0.0 81 1 743 183 6 741 0 0 748 730 7
44 83 3 744 0.800000011920929 0.800000011920929 0.800000011920929 15 745 184 0 7
18 741 0 14 746 185 748 1.0e-08 0 741 750 478 747 +0 0 0 741 476 53 747 186 0 74
6 0 742 0 +8.0e-04 3.9999999999999974e-04 8.5e-04 5.0e-05 -2.4492935982947066e-1
6 -1.0 0.0 1.0 -2.4492935982947066e-16 0.0 81 1 748 187 6 746 0 0 0 743 749 83 3
 749 0.800000011920929 0.800000011920929 0.800000011920929 15 750 188 0 740 746
 0 1 0 
