<svg width="35.00000112mm" height="17.99999956mm" viewBox="0 0 13779528 7086614"  version="1.1" xmlns="http://www.w3.org/2000/svg" xmlns:xlink="http://www.w3.org/1999/xlink">
<desc>
Origin 0 0 Bound 37350000 29300000 13779528 7086614
</desc>
<g fill-rule="evenodd" fill="rgb(128, 128, 0)" stroke="black" stroke-width="1" transform="translate(0, 7086614) scale(1, -1) translate(-37350000, -29300000)">
<path id="N" d="M 51904120.00 35900000.00 L 51904120.00 35591915.00 L 53962205.00 35591916.00 L 54000474.00 35576064.00 L 54138269.00 35438269.00 L 54154121.00 35400000.00 L 54138267.29 35361730.29 L 54000474.00 35223936.00 L 53962202.59 35208085.00 L 51904120.00 35208085.00 L 51904120.00 34591915.00 L 53962205.00 34591916.00 L 54000474.00 34576064.00 L 54138269.00 34438269.00 L 54154121.00 34400000.00 L 54138267.29 34361730.29 L 54000474.00 34223936.00 L 53962202.59 34208085.00 L 51904120.00 34208085.00 L 51904120.00 33591915.00 L 53962205.00 33591916.00 L 54000474.00 33576064.00 L 54138269.00 33438269.00 L 54154121.00 33400000.00 L 54138267.29 33361730.29 L 54000474.00 33223936.00 L 53962202.59 33208085.00 L 51904120.00 33208085.00 L 51904120.00 32591915.00 L 53962205.00 32591916.00 L 54000474.00 32576064.00 L 54138269.00 32438269.00 L 54154121.00 32400000.00 L 54138267.29 32361730.29 L 54000474.00 32223936.00 L 53962202.59 32208085.00 L 51904120.00 32208085.00 L 51904120.00 31591915.00 L 53962205.00 31591916.00 L 54000474.00 31576064.00 L 54138269.00 31438269.00 L 54154121.00 31400000.00 L 54138267.29 31361730.29 L 54000474.00 31223936.00 L 53962202.59 31208085.00 L 51904120.00 31208085.00 L 51904120.00 30591915.00 L 53962205.00 30591916.00 L 54000474.00 30576064.00 L 54138269.00 30438269.00 L 54154121.00 30400000.00 L 54138267.29 30361730.29 L 54000474.00 30223936.00 L 53962202.59 30208085.00 L 51904120.00 30208085.00 L 51904120.00 29900000.00 L 51888269.00 29861731.00 L 51850000.00 29845880.00 L 50850000.00 29845880.00 L 50811731.00 29861731.00 L 50795880.00 29900000.00 L 50795880.00 30100000.00 L 50811731.00 30138269.00 L 50850000.00 30154120.00 L 50995880.00 30154120.00 L 50995880.00 30645880.00 L 50850000.00 30645880.00 L 50811731.00 30661731.00 L 50795880.00 30700000.00 L 50795880.00 31100000.00 L 50811731.00 31138269.00 L 50850000.00 31154120.00 L 50995880.00 31154120.00 L 50995880.00 31645880.00 L 50850000.00 31645880.00 L 50811731.00 31661731.00 L 50795880.00 31700000.00 L 50795880.00 32100000.00 L 50811731.00 32138269.00 L 50850000.00 32154120.00 L 50995880.00 32154120.00 L 50995880.00 32645880.00 L 50850000.00 32645880.00 L 50811731.00 32661731.00 L 50795880.00 32700000.00 L 50795880.00 33100000.00 L 50811731.00 33138269.00 L 50850000.00 33154120.00 L 50995880.00 33154120.00 L 50995880.00 33645880.00 L 50850000.00 33645880.00 L 50811731.00 33661731.00 L 50795880.00 33700000.00 L 50795880.00 34100000.00 L 50811731.00 34138269.00 L 50850000.00 34154120.00 L 50995880.00 34154120.00 L 50995880.00 34645880.00 L 50850000.00 34645880.00 L 50811731.00 34661731.00 L 50795880.00 34700000.00 L 50795880.00 35100000.00 L 50811731.00 35138269.00 L 50850000.00 35154120.00 L 50995880.00 35154120.00 L 50995880.00 35645880.00 L 50850000.00 35645880.00 L 50811731.00 35661731.00 L 50795880.00 35700000.00 L 50795880.00 35900000.00 L 50811731.00 35938269.00 L 50850000.00 35954120.00 L 51850000.00 35954120.00 L 51888269.00 35938269.00 L 51904120.00 35900000.00  zM 53939787.12 30483675.00 L 51904120.00 30483675.00 L 51904120.00 30316325.00 L 53939787.12 30316325.00 L 54023462.72 30400000.00 L 53939787.12 30483675.00  zM 53939787.12 31483675.00 L 51904120.00 31483675.00 L 51904120.00 31316325.00 L 53939787.12 31316325.00 L 54023462.72 31400000.00 L 53939787.12 31483675.00  zM 53939787.12 32483675.00 L 51904120.00 32483675.00 L 51904120.00 32316325.00 L 53939787.12 32316325.00 L 54023462.72 32400000.00 L 53939787.12 32483675.00  zM 51795880.00 35845880.00 L 50904120.00 35845880.00 L 50904120.00 35754120.00 L 51050000.00 35754120.00 L 51088269.00 35738269.00 L 51104120.00 35700000.00 L 51104120.00 35100000.00 L 51088269.00 35061731.00 L 51050000.00 35045880.00 L 50904120.00 35045880.00 L 50904120.00 34754120.00 L 51050000.00 34754120.00 L 51088269.00 34738269.00 L 51104120.00 34700000.00 L 51104120.00 34100000.00 L 51088269.00 34061731.00 L 51050000.00 34045880.00 L 50904120.00 34045880.00 L 50904120.00 33754120.00 L 51050000.00 33754120.00 L 51088269.00 33738269.00 L 51104120.00 33700000.00 L 51104120.00 33100000.00 L 51088269.00 33061731.00 L 51050000.00 33045880.00 L 50904120.00 33045880.00 L 50904120.00 32754120.00 L 51050000.00 32754120.00 L 51088269.00 32738269.00 L 51104120.00 32700000.00 L 51104120.00 32100000.00 L 51088269.00 32061731.00 L 51050000.00 32045880.00 L 50904120.00 32045880.00 L 50904120.00 31754120.00 L 51050000.00 31754120.00 L 51088269.00 31738269.00 L 51104120.00 31700000.00 L 51104120.00 31100000.00 L 51088269.00 31061731.00 L 51050000.00 31045880.00 L 50904120.00 31045880.00 L 50904120.00 30754120.00 L 51050000.00 30754120.00 L 51088269.00 30738269.00 L 51104120.00 30700000.00 L 51104120.00 30100000.00 L 51088269.00 30061731.00 L 51050000.00 30045880.00 L 50904120.00 30045880.00 L 50904120.00 29954120.00 L 51795880.00 29954120.00 L 51795880.00 35845880.00  zM 53939787.12 33483675.00 L 51904120.00 33483675.00 L 51904120.00 33316325.00 L 53939787.12 33316325.00 L 54023462.72 33400000.00 L 53939787.12 33483675.00  zM 53939787.12 35483675.00 L 51904120.00 35483675.00 L 51904120.00 35316325.00 L 53939787.12 35316325.00 L 54023462.72 35400000.00 L 53939787.12 35483675.00  zM 53939787.12 34483675.00 L 51904120.00 34483675.00 L 51904120.00 34316325.00 L 53939787.12 34316325.00 L 54023462.72 34400000.00 L 53939787.12 34483675.00  z"/>
<path id="N" d="M 50467622.93 31516276.98 L 50511467.93 31507951.98 A 117196.43 117196.43 0 0 0 50571407.94 31465771.99 L 50581397.94 31445792.00 L 50586947.95 31420817.00 L 50587502.95 31400837.00 L 50579177.96 31370867.00 L 50569187.96 31354771.99 L 50555867.96 31341451.99 L 50534222.96 31326466.99 L 50500922.97 31314256.98 L 50402132.97 31287061.96 L 50376047.97 31276516.96 L 50359397.98 31263751.96 L 50350517.98 31250986.96 L 50346077.98 31233226.96 L 50349407.99 31211581.96 L 50361617.99 31191601.96 L 50377712.99 31179391.96 L 50398802.99 31170511.96 L 50430992.99 31165516.97 L 50464847.99 31166626.98 L 50496482.99 31174396.98 L 50518127.99 31185496.99 L 50534222.99 31199371.99 L 50546987.98 31221016.99 L 50554757.98 31253761.99 L 50602487.98 31249322.00 L 50601377.98 31235447.00 L 50595827.99 31210472.00 L 50586392.99 31188272.00 L 50573627.99 31169401.99 L 50555313.00 31152196.99 L 50529783.00 31136101.99 L 50498148.00 31125556.98 L 50448198.00 31119451.97 L 50410458.00 31121671.97 L 50378268.00 31129441.96 L 50353848.00 31140541.96 L 50334978.00 31154416.95 L 50318327.99 31171621.95 L 50304452.99 31196596.95 L 50297237.98 31228786.95 A 95867.55 95867.55 0 0 0 50336087.97 31310926.95 L 50357732.97 31324801.96 L 50379377.96 31333681.96 L 50469287.96 31356991.98 L 50504807.96 31369201.98 L 50524787.96 31379746.99 L 50533112.95 31390846.99 L 50538662.95 31406386.99 L 50538107.95 31422481.99 L 50532557.95 31436911.99 L 50519792.94 31453561.99 L 50499257.94 31464106.98 L 50467067.94 31470211.98 L 50435987.94 31470766.97 L 50411012.94 31465216.97 L 50388812.94 31455226.96 L 50377157.94 31444681.96 L 50366057.95 31427476.96 L 50357732.95 31398061.96 L 50308892.95 31401946.95 L 50310002.95 31414156.95 L 50315552.95 31435801.95 L 50322767.94 31451896.95 L 50335532.94 31471321.95 L 50351627.94 31486861.96 L 50374937.93 31501291.96 L 50403797.93 31510726.97 L 50445977.93 31516831.97 L 50467622.93 31516276.98  z"/>
<path id="N" d="M 50467622.93 32516276.98 L 50511467.93 32507951.98 A 117196.43 117196.43 0 0 0 50571407.94 32465771.99 L 50581397.94 32445792.00 L 50586947.95 32420817.00 L 50587502.95 32400837.00 L 50579177.96 32370867.00 L 50569187.96 32354771.99 L 50555867.96 32341451.99 L 50534222.96 32326466.99 L 50500922.97 32314256.98 L 50402132.97 32287061.96 L 50376047.97 32276516.96 L 50359397.98 32263751.96 L 50350517.98 32250986.96 L 50346077.98 32233226.96 L 50349407.99 32211581.96 L 50361617.99 32191601.96 L 50377712.99 32179391.96 L 50398802.99 32170511.96 L 50430992.99 32165516.97 L 50464847.99 32166626.98 L 50496482.99 32174396.98 L 50518127.99 32185496.99 L 50534222.99 32199371.99 L 50546987.98 32221016.99 L 50554757.98 32253761.99 L 50602487.98 32249322.00 L 50601377.98 32235447.00 L 50595827.99 32210472.00 L 50586392.99 32188272.00 L 50573627.99 32169401.99 L 50555313.00 32152196.99 L 50529783.00 32136101.99 L 50498148.00 32125556.98 L 50448198.00 32119451.97 L 50410458.00 32121671.97 L 50378268.00 32129441.96 L 50353848.00 32140541.96 L 50334978.00 32154416.95 L 50318327.99 32171621.95 L 50304452.99 32196596.95 L 50297237.98 32228786.95 A 95867.55 95867.55 0 0 0 50336087.97 32310926.95 L 50357732.97 32324801.96 L 50379377.96 32333681.96 L 50469287.96 32356991.98 L 50504807.96 32369201.98 L 50524787.96 32379746.99 L 50533112.95 32390846.99 L 50538662.95 32406386.99 L 50538107.95 32422481.99 L 50532557.95 32436911.99 L 50519792.94 32453561.99 L 50499257.94 32464106.98 L 50467067.94 32470211.98 L 50435987.94 32470766.97 L 50411012.94 32465216.97 L 50388812.94 32455226.96 L 50377157.94 32444681.96 L 50366057.95 32427476.96 L 50357732.95 32398061.96 L 50308892.95 32401946.95 L 50310002.95 32414156.95 L 50315552.95 32435801.95 L 50322767.94 32451896.95 L 50335532.94 32471321.95 L 50351627.94 32486861.96 L 50374937.93 32501291.96 L 50403797.93 32510726.97 L 50445977.93 32516831.97 L 50467622.93 32516276.98  z"/>
<path id="N" d="M 39592869.93 29980174.69 L 39620064.94 29965189.70 L 39645594.94 29945209.70 L 39664464.94 29921344.71 L 39677229.95 29896924.71 L 39689994.96 29859739.71 L 39698319.96 29809234.71 A 236460.34 236460.34 0 0 0 39680559.98 29704894.71 L 39667794.99 29681029.71 L 39646704.99 29654944.70 L 39619510.00 29631079.70 L 39595645.00 29617759.69 L 39562900.00 29606659.69 L 39529045.00 29600554.68 L 39496855.00 29601109.68 L 39463555.00 29607214.67 L 39429700.00 29619424.66 L 39406390.00 29633299.66 L 39381969.99 29656054.66 L 39361989.99 29681584.65 L 39347559.98 29710999.65 L 39337014.98 29746519.65 L 39332019.97 29782594.65 L 39332574.96 29818669.65 L 39336459.96 29846974.65 L 39348669.95 29888599.65 L 39363099.95 29916904.65 L 39373644.94 29931334.65 L 39394734.94 29953534.66 L 39417489.94 29970739.66 L 39451899.93 29986834.67 L 39468549.93 29991274.67 L 39510174.93 29997379.68 A 180284.28 180284.28 0 0 0 39592869.93 29980174.69  zM 39501294.94 29952979.68 L 39476319.94 29947429.67 L 39451899.94 29937439.67 L 39435804.94 29926339.67 L 39418044.95 29908579.66 L 39400284.95 29881384.66 L 39390294.96 29851969.66 L 39384744.96 29819779.66 L 39384189.97 29784814.66 L 39389184.98 29748739.66 L 39398619.98 29720434.66 L 39411939.98 29694904.66 L 39428034.99 29676034.66 L 39451344.99 29659939.67 L 39474654.99 29650504.67 L 39501294.99 29644399.68 L 39526269.99 29643844.68 L 39554019.99 29649394.69 L 39577329.99 29659384.69 L 39598974.99 29673814.69 L 39616179.99 29691019.70 L 39631164.98 29717104.70 L 39642264.97 29753179.70 L 39646149.97 29780929.70 L 39645039.96 29822554.70 L 39640599.96 29848639.70 L 39630609.95 29879164.70 L 39616734.95 29905249.70 L 39600639.94 29923009.69 A 146243.38 146243.38 0 0 1 39501294.94 29952979.68  z"/>
<path id="N" d="M 50430992.93 33515721.97 L 50475392.93 33507396.98 L 50504252.94 33496851.98 L 50527562.94 33482976.99 L 50552537.94 33459666.99 L 50572517.95 33432471.99 L 50586947.95 33401947.00 L 50596937.96 33365872.00 L 50601932.96 33330352.00 L 50601377.97 33295387.00 L 50595272.98 33258757.00 L 50583062.98 33221572.00 L 50569187.99 33197151.99 L 50558087.99 33183276.99 L 50535332.99 33161076.99 L 50509248.00 33143316.98 L 50473728.00 33129441.98 L 50440428.00 33122226.97 L 50411568.00 33119451.97 L 50375493.00 33121671.96 L 50344413.00 33128331.95 L 50309448.00 33140541.95 L 50282252.99 33155526.94 L 50246732.99 33179391.94 L 50246732.97 33322026.94 L 50409902.97 33322026.97 L 50409902.97 33276516.97 L 50296682.97 33276516.95 L 50296682.99 33204366.95 L 50303342.99 33198816.95 L 50339972.99 33179391.95 L 50368277.99 33169956.96 L 50409347.99 33164961.97 L 50436542.99 33167736.97 L 50472617.99 33177726.98 A 123868.54 123868.54 0 0 1 50531447.98 33229341.99 L 50543102.98 33260976.99 L 50549207.97 33300936.99 L 50549762.96 33334791.99 L 50545877.96 33361986.99 L 50536997.95 33393066.99 L 50520347.95 33423591.99 L 50505362.94 33440796.98 L 50484827.94 33455226.98 L 50460407.94 33466326.98 L 50439872.94 33470766.97 A 145827.38 145827.38 0 0 1 50358287.94 33463551.96 L 50334977.94 33450231.95 L 50320547.95 33436356.95 L 50307782.95 33414711.95 L 50298902.95 33390291.95 L 50252837.95 33402501.94 L 50256722.95 33416376.94 L 50266712.95 33439686.94 L 50281142.94 33464106.94 L 50298347.94 33481311.95 L 50323322.94 33497406.95 L 50347742.93 33507396.96 L 50384927.93 33515166.96 L 50421002.93 33516831.97 L 50430992.93 33515721.97  z"/>
<path id="N" d="M 39549479.93 30652274.70 L 39582779.93 30646169.71 L 39612749.93 30635624.71 L 39639389.94 30620639.72 L 39663254.94 30598439.72 L 39682679.95 30572909.73 L 39697109.95 30544604.73 L 39706544.96 30509084.73 L 39711539.96 30473009.73 L 39710984.97 30437489.73 L 39705989.98 30400859.73 L 39693224.98 30356459.73 L 39674354.99 30322604.72 L 39659369.99 30304844.72 L 39636615.00 30283754.72 L 39617190.00 30272654.71 L 39583890.00 30262109.71 L 39537825.00 30256004.70 L 39500085.00 30258779.69 L 39465675.00 30269324.69 L 39437370.00 30283754.68 L 39422384.99 30295409.68 L 39403514.99 30317609.68 L 39385754.98 30348689.67 L 39372434.98 30384209.67 L 39423494.98 30396974.68 L 39434039.98 30364784.68 L 39450689.99 30337589.69 L 39469559.99 30319274.69 L 39499529.99 30305399.69 L 39521174.99 30300404.70 L 39548924.99 30299849.70 L 39572234.99 30304844.71 L 39596099.99 30314279.71 L 39612194.99 30324824.71 L 39628844.99 30342584.72 L 39643274.98 30365894.72 L 39653819.98 30400859.72 L 39659369.97 30440264.72 L 39658259.96 30485219.72 L 39649934.95 30525179.72 L 39636614.95 30555704.72 L 39616634.94 30580124.71 L 39594989.94 30595664.71 L 39570014.94 30605099.71 L 39547814.94 30608984.70 L 39518399.94 30609539.70 L 39495089.94 30603989.69 L 39472889.94 30593999.69 L 39451244.95 30572909.69 L 39439034.95 30552929.68 L 39429044.95 30529619.68 L 39379094.95 30541274.67 L 39382424.95 30551264.67 L 39394079.95 30576794.68 L 39407954.94 30597329.68 L 39430154.94 30621194.68 L 39457349.93 30637844.69 L 39497309.93 30649499.69 L 39531164.93 30653384.70 L 39549479.93 30652274.70  z"/>
<path id="N" d="M 39936869.93 30652274.77 L 39970169.93 30646169.78 L 40000139.93 30635624.78 L 40026779.94 30620639.79 L 40050644.94 30598439.79 L 40070069.95 30572909.79 L 40084499.95 30544604.80 L 40093934.96 30509084.80 L 40098929.96 30473009.80 L 40098374.97 30437489.80 L 40093379.98 30400859.80 L 40080614.98 30356459.80 L 40061744.99 30322604.79 L 40046759.99 30304844.79 L 40024005.00 30283754.79 L 40004580.00 30272654.78 L 39971280.00 30262109.78 L 39925215.00 30256004.77 L 39887475.00 30258779.76 L 39853065.00 30269324.76 L 39824760.00 30283754.75 L 39809774.99 30295409.75 L 39790904.99 30317609.74 L 39773144.98 30348689.74 L 39759824.98 30384209.74 L 39810884.98 30396974.75 L 39821429.98 30364784.75 L 39838079.99 30337589.75 L 39856949.99 30319274.76 L 39886919.99 30305399.76 L 39908564.99 30300404.77 L 39936314.99 30299849.77 L 39959624.99 30304844.77 L 39983489.99 30314279.78 L 39999584.99 30324824.78 L 40016234.99 30342584.78 L 40030664.98 30365894.79 L 40041209.98 30400859.79 L 40046759.97 30440264.79 L 40045649.96 30485219.79 L 40037324.95 30525179.79 L 40024004.95 30555704.79 L 40004024.94 30580124.78 L 39982379.94 30595664.78 L 39957404.94 30605099.77 L 39935204.94 30608984.77 L 39905789.94 30609539.76 L 39882479.94 30603989.76 L 39860279.94 30593999.76 L 39838634.95 30572909.75 L 39826424.95 30552929.75 L 39816434.95 30529619.75 L 39766484.95 30541274.74 L 39769814.95 30551264.74 L 39781469.95 30576794.74 L 39795344.94 30597329.75 L 39817544.94 30621194.75 L 39844739.93 30637844.75 L 39884699.93 30649499.76 L 39918554.93 30653384.77 L 39936869.93 30652274.77  z"/>
<path id="N" d="M 40324259.93 30652274.84 L 40357559.93 30646169.84 L 40387529.93 30635624.85 L 40414169.94 30620639.85 L 40438034.94 30598439.86 L 40457459.95 30572909.86 L 40471889.95 30544604.86 L 40481324.96 30509084.87 L 40486319.96 30473009.87 L 40485764.97 30437489.87 L 40480769.98 30400859.87 L 40468004.98 30356459.86 L 40449134.99 30322604.86 L 40434149.99 30304844.86 L 40411395.00 30283754.85 L 40391970.00 30272654.85 L 40358670.00 30262109.84 L 40312605.00 30256004.84 L 40274865.00 30258779.83 L 40240455.00 30269324.82 L 40212150.00 30283754.82 L 40197164.99 30295409.82 L 40178294.99 30317609.81 L 40160534.98 30348689.81 L 40147214.98 30384209.81 L 40198274.98 30396974.82 L 40208819.98 30364784.82 L 40225469.99 30337589.82 L 40244339.99 30319274.82 L 40274309.99 30305399.83 L 40295954.99 30300404.83 L 40323704.99 30299849.84 L 40347014.99 30304844.84 L 40370879.99 30314279.85 L 40386974.99 30324824.85 L 40403624.99 30342584.85 L 40418054.98 30365894.85 L 40428599.98 30400859.86 L 40434149.97 30440264.86 L 40433039.96 30485219.86 L 40424714.95 30525179.86 L 40411394.95 30555704.85 L 40391414.94 30580124.85 L 40369769.94 30595664.85 L 40344794.94 30605099.84 L 40322594.94 30608984.84 L 40293179.94 30609539.83 L 40269869.94 30603989.83 L 40247669.94 30593999.82 L 40226024.95 30572909.82 L 40213814.95 30552929.82 L 40203824.95 30529619.82 L 40153874.95 30541274.81 L 40157204.95 30551264.81 L 40168859.95 30576794.81 L 40182734.94 30597329.81 L 40204934.94 30621194.82 L 40232129.93 30637844.82 L 40272089.93 30649499.83 L 40305944.93 30653384.83 L 40324259.93 30652274.84  z"/>
<path id="N" d="M 49572962.93 32515721.82 L 49606262.93 32509616.83 L 49636232.93 32499071.83 L 49662872.94 32484086.84 L 49686737.94 32461886.84 L 49706162.95 32436356.84 L 49720592.95 32408051.85 L 49730027.96 32372531.85 L 49735022.96 32336456.85 L 49734467.97 32300936.85 L 49729472.98 32264306.85 L 49716707.98 32219906.85 L 49697837.99 32186051.84 L 49682852.99 32168291.84 L 49660098.00 32147201.84 L 49640673.00 32136101.83 L 49607373.00 32125556.83 L 49561308.00 32119451.82 L 49523568.00 32122226.81 L 49489158.00 32132771.81 L 49460853.00 32147201.80 L 49445867.99 32158856.80 L 49426997.99 32181056.79 L 49409237.98 32212136.79 L 49395917.98 32247656.79 L 49446977.98 32260421.80 L 49457522.98 32228231.80 L 49474172.99 32201036.80 L 49493042.99 32182721.81 L 49523012.99 32168846.81 L 49544657.99 32163851.82 L 49572407.99 32163296.82 L 49595717.99 32168291.82 L 49619582.99 32177726.83 L 49635677.99 32188271.83 L 49652327.99 32206031.83 L 49666757.98 32229341.84 L 49677302.98 32264306.84 L 49682852.97 32303711.84 L 49681742.96 32348666.84 L 49673417.95 32388626.84 L 49660097.95 32419151.84 L 49640117.94 32443571.83 L 49618472.94 32459111.83 L 49593497.94 32468546.82 L 49571297.94 32472431.82 L 49541882.94 32472986.81 L 49518572.94 32467436.81 L 49496372.94 32457446.81 L 49474727.95 32436356.80 L 49462517.95 32416376.80 L 49452527.95 32393066.80 L 49402577.95 32404721.79 L 49405907.95 32414711.79 L 49417562.95 32440241.79 L 49431437.94 32460776.80 L 49453637.94 32484641.80 L 49480832.93 32501291.80 L 49520792.93 32512946.81 L 49554647.93 32516831.82 L 49572962.93 32515721.82  z"/>
<path id="N" d="M 50056922.93 30515721.90 L 50090222.93 30509616.91 L 50120192.93 30499071.92 L 50146832.94 30484086.92 L 50170697.94 30461886.92 L 50190122.95 30436356.93 L 50204552.95 30408051.93 L 50213987.96 30372531.93 L 50218982.96 30336456.93 L 50218427.97 30300936.93 L 50213432.98 30264306.93 L 50200667.98 30219906.93 L 50181797.99 30186051.93 L 50166812.99 30168291.92 L 50144058.00 30147201.92 L 50124633.00 30136101.92 L 50091333.00 30125556.91 L 50045268.00 30119451.90 L 50007528.00 30122226.90 L 49973118.00 30132771.89 L 49944813.00 30147201.89 L 49929827.99 30158856.88 L 49910957.99 30181056.88 L 49893197.98 30212136.88 L 49879877.98 30247656.87 L 49930937.98 30260421.88 L 49941482.98 30228231.88 L 49958132.99 30201036.89 L 49977002.99 30182721.89 L 50006972.99 30168846.90 L 50028617.99 30163851.90 L 50056367.99 30163296.90 L 50079677.99 30168291.91 L 50103542.99 30177726.91 L 50119637.99 30188271.92 L 50136287.99 30206031.92 L 50150717.98 30229341.92 L 50161262.98 30264306.92 L 50166812.97 30303711.92 L 50165702.96 30348666.92 L 50157377.95 30388626.92 L 50144057.95 30419151.92 L 50124077.94 30443571.92 L 50102432.94 30459111.91 L 50077457.94 30468546.91 L 50055257.94 30472431.90 L 50025842.94 30472986.90 L 50002532.94 30467436.90 L 49980332.94 30457446.89 L 49958687.95 30436356.89 L 49946477.95 30416376.89 L 49936487.95 30393066.88 L 49886537.95 30404721.87 L 49889867.95 30414711.88 L 49901522.95 30440241.88 L 49915397.94 30460776.88 L 49937597.94 30484641.88 L 49964792.93 30501291.89 L 50004752.93 30512946.90 L 50038607.93 30516831.90 L 50056922.93 30515721.90  z"/>
<path id="N" d="M 49669532.93 30515721.84 L 49702832.93 30509616.84 L 49732802.93 30499071.85 L 49759442.94 30484086.85 L 49783307.94 30461886.86 L 49802732.95 30436356.86 L 49817162.95 30408051.86 L 49826597.96 30372531.86 L 49831592.96 30336456.87 L 49831037.97 30300936.87 L 49826042.98 30264306.86 L 49813277.98 30219906.86 L 49794407.99 30186051.86 L 49779422.99 30168291.86 L 49756668.00 30147201.85 L 49737243.00 30136101.85 L 49703943.00 30125556.84 L 49657878.00 30119451.83 L 49620138.00 30122226.83 L 49585728.00 30132771.82 L 49557423.00 30147201.82 L 49542437.99 30158856.81 L 49523567.99 30181056.81 L 49505807.98 30212136.81 L 49492487.98 30247656.81 L 49543547.98 30260421.81 L 49554092.98 30228231.82 L 49570742.99 30201036.82 L 49589612.99 30182721.82 L 49619582.99 30168846.83 L 49641227.99 30163851.83 L 49668977.99 30163296.84 L 49692287.99 30168291.84 L 49716152.99 30177726.85 L 49732247.99 30188271.85 L 49748897.99 30206031.85 L 49763327.98 30229341.85 L 49773872.98 30264306.86 L 49779422.97 30303711.86 L 49778312.96 30348666.86 L 49769987.95 30388626.85 L 49756667.95 30419151.85 L 49736687.94 30443571.85 L 49715042.94 30459111.84 L 49690067.94 30468546.84 L 49667867.94 30472431.84 L 49638452.94 30472986.83 L 49615142.94 30467436.83 L 49592942.94 30457446.82 L 49571297.95 30436356.82 L 49559087.95 30416376.82 L 49549097.95 30393066.82 L 49499147.95 30404721.81 L 49502477.95 30414711.81 L 49514132.95 30440241.81 L 49528007.94 30460776.81 L 49550207.94 30484641.82 L 49577402.93 30501291.82 L 49617362.93 30512946.83 L 49651217.93 30516831.83 L 49669532.93 30515721.84  z"/>
<path id="N" d="M 41250000.00 30262665.00 L 41103480.00 30262664.97 L 41059080.00 30265994.97 L 41032440.00 30271544.96 L 41006355.00 30283199.96 L 40993589.99 30292634.96 A 118867.79 118867.79 0 0 0 40959734.98 30373109.95 L 40962509.98 30397529.95 L 40969169.97 30415844.95 L 40978049.97 30430829.95 L 40994699.97 30448034.96 L 41012459.97 30459134.96 L 41032439.96 30467459.96 L 41014679.96 30478559.96 L 40994699.96 30499094.96 L 40984709.96 30518519.95 L 40978604.95 30544604.95 L 40980824.95 30567359.95 L 40989149.94 30590114.95 L 41000249.94 30607319.96 L 41014124.94 30621194.96 L 41034659.93 30634514.96 L 41057969.93 30641729.97 L 41090714.93 30646169.97 L 41249999.93 30646725.00 L 41250000.00 30262665.00  zM 41198939.97 30440264.99 L 41097929.97 30440264.97 L 41057969.97 30434714.97 A 62285.29 62285.29 0 0 1 41012459.98 30367559.96 L 41015789.98 30350909.96 L 41025779.99 30332039.96 L 41037434.99 30321494.96 L 41058524.99 30312059.97 L 41072954.99 30309284.97 L 41198939.99 30308174.99 L 41198939.97 30440264.99  zM 41198939.94 30601214.99 L 41107919.94 30601214.98 L 41077949.94 30598439.97 A 50188.76 50188.76 0 0 1 41029109.95 30549044.96 L 41030219.95 30528509.96 L 41036879.96 30511304.96 L 41047424.96 30500204.96 L 41064629.96 30490769.97 L 41089604.96 30486884.97 L 41198939.96 30485774.99 L 41198939.94 30601214.99  z"/>
<path id="N" d="M 39268195.00 29606659.64 L 39121675.00 29606659.61 L 39077275.00 29609989.60 L 39050635.00 29615539.60 L 39024550.00 29627194.59 L 39011784.99 29636629.59 A 118867.79 118867.79 0 0 0 38977929.98 29717104.59 L 38980704.98 29741524.59 L 38987364.97 29759839.59 L 38996244.97 29774824.59 L 39012894.97 29792029.59 L 39030654.97 29803129.59 L 39050634.96 29811454.60 L 39032874.96 29822554.59 L 39012894.96 29843089.59 L 39002904.96 29862514.59 L 38996799.95 29888599.59 L 38999019.95 29911354.59 L 39007344.94 29934109.59 L 39018444.94 29951314.59 L 39032319.94 29965189.59 L 39052854.93 29978509.60 L 39076164.93 29985724.60 L 39108909.93 29990164.61 L 39268194.93 29990719.64 L 39268195.00 29606659.64  zM 39217134.97 29784259.63 L 39116124.97 29784259.61 L 39076164.97 29778709.60 A 62285.29 62285.29 0 0 1 39030654.98 29711554.59 L 39033984.98 29694904.59 L 39043974.99 29676034.60 L 39055629.99 29665489.60 L 39076719.99 29656054.60 L 39091149.99 29653279.60 L 39217134.99 29652169.63 L 39217134.97 29784259.63  zM 39217134.94 29945209.63 L 39126114.94 29945209.61 L 39096144.94 29942434.61 A 50188.76 50188.76 0 0 1 39047304.95 29893039.60 L 39048414.95 29872504.60 L 39055074.96 29855299.60 L 39065619.96 29844199.60 L 39082824.96 29834764.60 L 39107799.96 29830879.61 L 39217134.96 29829769.63 L 39217134.94 29945209.63  z"/>
<path id="N" d="M 40585339.00 34401953.00 L 40591680.00 34386646.00 L 40591680.00 34372263.22 L 40621370.00 34401953.00 L 40636677.00 34408293.00 L 40651984.00 34401953.00 L 40658324.00 34386646.00 L 40651984.00 34371339.00 L 40622294.22 34341649.00 L 40636677.00 34341649.00 L 40651984.00 34335308.00 L 40658325.00 34320001.00 L 40651984.00 34304694.00 L 40636677.00 34298353.00 L 40622294.22 34298353.00 L 40651984.00 34268663.00 L 40658324.00 34253356.00 L 40651984.00 34238049.00 L 40636677.00 34231709.00 L 40621370.00 34238049.00 L 40591680.00 34267738.78 L 40591680.00 34253356.00 L 40585339.00 34238049.00 L 40570032.00 34231708.00 L 40554725.00 34238049.00 L 40548384.00 34253356.00 L 40548384.00 34267738.22 L 40518694.00 34238048.00 L 40503387.00 34231708.00 L 40488079.00 34238048.00 L 40481739.00 34253356.00 L 40488079.00 34268663.00 L 40517769.22 34298353.00 L 40503387.00 34298353.00 L 40488080.00 34304694.00 L 40481739.00 34320001.00 L 40488080.00 34335308.00 L 40503387.00 34341649.00 L 40517769.22 34341649.00 L 40488079.00 34371339.00 L 40481739.00 34386646.00 L 40488079.00 34401954.00 L 40503387.00 34408294.00 L 40518694.00 34401954.00 L 40548384.00 34372263.78 L 40548384.00 34386646.00 L 40554725.00 34401953.00 L 40570032.00 34408294.00 L 40585339.00 34401953.00  z"/>
<path id="N" d="M 50652488.00 35169452.00 L 50601428.00 35169451.99 L 50601427.97 35339836.99 L 50535937.97 35339836.98 L 50516512.97 35338171.98 L 50493202.97 35328736.97 L 50470447.98 35308201.97 L 50447692.98 35277121.96 L 50378318.00 35169451.95 L 50315048.00 35169451.94 L 50381092.98 35273791.95 L 50396077.98 35294881.96 L 50423272.97 35324851.96 L 50452687.97 35343721.97 L 50443807.97 35345941.96 L 50417722.97 35352601.96 L 50397742.97 35361481.96 L 50379982.96 35372581.95 A 89005.11 89005.11 0 0 0 50348902.96 35424751.95 L 50345572.95 35444731.95 L 50347792.95 35470816.95 L 50358892.94 35501896.95 L 50374987.94 35522986.95 L 50394967.94 35538526.95 L 50415502.93 35546296.96 L 50453242.93 35552401.97 L 50652487.93 35553512.00 L 50652488.00 35169452.00  zM 50601427.94 35510776.99 L 50465452.94 35510221.97 L 50441587.94 35505226.96 L 50421607.94 35495791.96 L 50411062.94 35485801.96 L 50402737.95 35470816.96 A 60280.08 60280.08 0 0 1 50446027.96 35388121.96 L 50472667.96 35384791.97 L 50601427.96 35383681.99 L 50601427.94 35510776.99  z"/>
<path id="N" d="M 41571984.00 32225275.00 L 41578325.00 32209968.00 L 41578325.00 32110001.00 L 41576040.00 32100320.00 L 41571984.00 32094694.00 L 41563523.00 32089465.00 L 41556677.00 32088353.00 L 41546996.00 32090638.00 L 41484921.07 32121675.00 L 41465675.19 32121675.00 L 41445035.00 32101034.19 L 41445035.00 32052322.81 L 41465676.19 32031681.00 L 41514387.81 32031681.00 L 41541370.00 32058664.00 L 41556677.00 32065003.00 L 41571985.00 32058664.00 L 41578324.00 32043356.00 L 41571985.00 32028049.00 L 41538661.00 31994726.00 L 41523354.00 31988385.00 L 41456709.00 31988385.00 L 41441401.00 31994726.00 L 41408079.00 32028049.00 L 41401739.00 32043356.00 L 41401739.00 32110001.00 L 41408080.00 32125309.00 L 41441402.00 32158630.00 L 41456709.00 32164971.00 L 41490032.00 32164971.00 L 41499713.00 32162686.00 L 41535029.00 32145028.26 L 41535029.00 32188320.00 L 41423387.00 32188320.00 L 41408080.00 32194661.00 L 41401739.00 32209968.00 L 41408080.00 32225275.00 L 41423387.00 32231616.00 L 41556677.00 32231616.00 L 41571984.00 32225275.00  z"/>
<path id="N" d="M 49784418.00 33126111.86 L 49633458.00 33126666.83 L 49589058.00 33131106.82 L 49557978.00 33141096.82 L 49531337.99 33156636.81 L 49509692.99 33178836.81 L 49492487.99 33204921.81 L 49481387.98 33230451.80 L 49474172.98 33255426.80 L 49468067.97 33293721.80 L 49467512.96 33338676.80 L 49471952.96 33371421.80 A 172640.38 172640.38 0 0 0 49517462.94 33466881.81 L 49536887.94 33484086.81 L 49555757.94 33494631.82 L 49578512.93 33502956.82 L 49615697.93 33509061.83 L 49784417.93 33510171.86 L 49784418.00 33126111.86  zM 49733357.94 33464661.85 L 49644557.94 33464661.83 L 49612367.94 33461886.83 L 49588502.94 33456891.82 L 49567967.94 33445236.82 L 49552427.95 33430806.82 L 49539107.95 33413046.81 L 49527452.95 33385296.81 L 49521347.96 33354771.81 L 49519127.96 33326466.81 L 49522457.97 33278181.81 A 148078.06 148078.06 0 0 1 49557422.99 33198261.82 L 49579622.99 33183276.82 L 49600712.99 33176061.82 L 49630127.99 33172731.83 L 49733357.99 33171621.85 L 49733357.94 33464661.85  z"/>
<path id="N" d="M 49720593.00 31126111.85 L 49569633.00 31126666.82 L 49525233.00 31131106.81 L 49494153.00 31141096.81 L 49467512.99 31156636.80 L 49445867.99 31178836.80 L 49428662.99 31204921.79 L 49417562.98 31230451.79 L 49410347.98 31255426.79 L 49404242.97 31293721.79 L 49403687.96 31338676.79 L 49408127.96 31371421.79 A 172640.38 172640.38 0 0 0 49453637.94 31466881.80 L 49473062.94 31484086.80 L 49491932.94 31494631.81 L 49514687.93 31502956.81 L 49551872.93 31509061.82 L 49720592.93 31510171.85 L 49720593.00 31126111.85  zM 49669532.94 31464661.84 L 49580732.94 31464661.82 L 49548542.94 31461886.82 L 49524677.94 31456891.81 L 49504142.94 31445236.81 L 49488602.95 31430806.81 L 49475282.95 31413046.80 L 49463627.95 31385296.80 L 49457522.96 31354771.80 L 49455302.96 31326466.80 L 49458632.97 31278181.80 A 148078.06 148078.06 0 0 1 49493597.99 31198261.81 L 49515797.99 31183276.81 L 49536887.99 31176061.81 L 49566302.99 31172731.82 L 49669532.99 31171621.84 L 49669532.94 31464661.84  z"/>
<path id="N" d="M 49887648.00 34119451.88 L 49736688.00 34120006.85 L 49692288.00 34124446.84 L 49661208.00 34134436.84 L 49634567.99 34149976.83 L 49612922.99 34172176.83 L 49595717.99 34198261.82 L 49584617.98 34223791.82 L 49577402.98 34248766.82 L 49571297.97 34287061.82 L 49570742.96 34332016.82 L 49575182.96 34364761.82 A 172640.38 172640.38 0 0 0 49620692.94 34460221.83 L 49640117.94 34477426.83 L 49658987.94 34487971.84 L 49681742.93 34496296.84 L 49718927.93 34502401.85 L 49887647.93 34503511.88 L 49887648.00 34119451.88  zM 49836587.94 34458001.87 L 49747787.94 34458001.85 L 49715597.94 34455226.84 L 49691732.94 34450231.84 L 49671197.94 34438576.84 L 49655657.95 34424146.83 L 49642337.95 34406386.83 L 49630682.95 34378636.83 L 49624577.96 34348111.83 L 49622357.96 34319806.83 L 49625687.97 34271521.83 A 148078.06 148078.06 0 0 1 49660652.99 34191601.84 L 49682852.99 34176616.84 L 49703942.99 34169401.84 L 49733357.99 34166071.85 L 49836587.99 34164961.87 L 49836587.94 34458001.87  z"/>
<path id="N" d="M 49907678.00 35169451.87 L 49756718.00 35170006.84 L 49712318.00 35174446.84 L 49681238.00 35184436.83 L 49654597.99 35199976.83 L 49632952.99 35222176.82 L 49615747.99 35248261.82 L 49604647.98 35273791.82 L 49597432.98 35298766.82 L 49591327.97 35337061.81 L 49590772.96 35382016.81 L 49595212.96 35414761.82 A 172640.38 172640.38 0 0 0 49640722.94 35510221.82 L 49660147.94 35527426.83 L 49679017.94 35537971.83 L 49701772.93 35546296.83 L 49738957.93 35552401.84 L 49907677.93 35553511.87 L 49907678.00 35169451.87  zM 49856617.94 35508001.86 L 49767817.94 35508001.85 L 49735627.94 35505226.84 L 49711762.94 35500231.84 L 49691227.94 35488576.83 L 49675687.95 35474146.83 L 49662367.95 35456386.83 L 49650712.95 35428636.82 L 49644607.96 35398111.82 L 49642387.96 35369806.82 L 49645717.97 35321521.82 A 148078.06 148078.06 0 0 1 49680682.99 35241601.83 L 49702882.99 35226616.83 L 49723972.99 35219401.84 L 49753387.99 35216071.84 L 49856617.99 35214961.86 L 49856617.94 35508001.86  z"/>
<path id="N" d="M 41163068.00 35689331.00 L 41229713.00 35656009.00 L 41235339.00 35651953.00 L 41301984.00 35585309.00 L 41308325.00 35570001.00 L 41308325.00 35503356.00 L 41301984.00 35488049.00 L 41268661.00 35454725.00 L 41253354.00 35448385.00 L 41186709.00 35448385.00 L 41171401.00 35454726.00 L 41138079.00 35488049.00 L 41131739.00 35503356.00 L 41131739.00 35536678.00 L 41138079.00 35551985.00 L 41171401.00 35585308.00 L 41186709.00 35591649.00 L 41234414.55 35591649.00 L 41207210.97 35618852.99 L 41143706.00 35650605.00 L 41132851.00 35663122.00 L 41134024.00 35679649.00 L 41146541.00 35690504.00 L 41163068.00 35689331.00  zM 41265029.00 35548353.00 L 41195676.19 35548353.00 L 41175035.00 35527711.19 L 41175035.00 35512322.81 L 41195676.19 35491681.00 L 41244387.19 35491681.00 L 41265029.00 35512322.19 L 41265029.00 35548353.00  z"/>
<path id="N" d="M 41468596.00 35685276.00 L 41501919.00 35651954.00 L 41508260.00 35636646.00 L 41508260.00 35503356.00 L 41501919.00 35488049.00 L 41468596.00 35454725.00 L 41453289.00 35448385.00 L 41386644.00 35448385.00 L 41371336.00 35454726.00 L 41338014.00 35488049.00 L 41331675.00 35503356.00 L 41338015.00 35518664.00 L 41353322.00 35525003.00 L 41368630.00 35518663.00 L 41395611.19 35491681.00 L 41444322.19 35491681.00 L 41464964.00 35512322.19 L 41464964.00 35627678.81 L 41444322.19 35648320.00 L 41395610.81 35648320.00 L 41368629.00 35621339.00 L 41353322.00 35614999.00 L 41338015.00 35621339.00 L 41331675.00 35636646.00 L 41338015.00 35651953.00 L 41371336.00 35685275.00 L 41386644.00 35691616.00 L 41453289.00 35691616.00 L 41468596.00 35685276.00  z"/>
<path id="N" d="M 41738596.00 32225276.00 L 41771919.00 32191954.00 L 41778260.00 32176646.00 L 41778260.00 32043356.00 L 41771919.00 32028049.00 L 41738596.00 31994725.00 L 41723289.00 31988385.00 L 41656644.00 31988385.00 L 41641336.00 31994726.00 L 41608014.00 32028049.00 L 41601675.00 32043356.00 L 41608015.00 32058664.00 L 41623322.00 32065003.00 L 41638630.00 32058663.00 L 41665611.19 32031681.00 L 41714322.19 32031681.00 L 41734964.00 32052322.19 L 41734964.00 32167678.81 L 41714322.19 32188320.00 L 41665610.81 32188320.00 L 41638629.00 32161339.00 L 41623322.00 32154999.00 L 41608015.00 32161339.00 L 41601675.00 32176646.00 L 41608015.00 32191953.00 L 41641336.00 32225275.00 L 41656644.00 32231616.00 L 41723289.00 32231616.00 L 41738596.00 32225276.00  z"/>
<path id="N" d="M 41189604.98 29714329.97 L 41193489.99 29684359.97 L 41200149.99 29667709.97 L 41211804.99 29655499.98 L 41225124.99 29648839.98 L 41247324.99 29645509.98 L 41264529.99 29648284.98 L 41277294.99 29653834.99 L 41290614.99 29664934.99 L 41299494.99 29687689.99 L 41303934.98 29721544.99 L 41349999.98 29714885.00 L 41349999.98 29704340.00 L 41346669.99 29677145.00 L 41340009.99 29656055.00 L 41325580.00 29629970.00 L 41307265.00 29615539.99 L 41287840.00 29607214.99 L 41251765.00 29599999.98 L 41223460.00 29602219.98 L 41197375.00 29609434.97 L 41179060.00 29619424.97 L 41165185.00 29632744.97 L 41152974.99 29649394.97 L 41143539.99 29676589.96 L 41139099.98 29712109.96 L 41138544.93 29990719.96 L 41189604.93 29990719.97 L 41189604.98 29714329.97  z"/>
<path id="N" d="M 49049935.00 36145783.00 L 49004087.00 36145783.00 L 49004087.00 35722483.00 L 49072353.00 35654217.00 L 49127484.00 35654217.00 L 49211601.00 35738334.00 A 54121.84 54121.84 0 0 0 49288139.00 35661796.00 L 49188171.00 35561828.00 L 49149899.59 35545977.00 L 49049935.00 35545977.00 L 49011666.00 35561828.00 L 48911698.00 35661796.00 L 48895847.00 35700067.41 L 48895847.00 36145783.00 L 48849999.00 36145783.00 A 54118.70 54118.70 0 0 0 48849999.00 36254023.00 L 49049935.00 36254023.00 A 54121.84 54121.84 0 0 0 49049935.00 36145783.00  z"/>
<path id="N" d="M 48588365.00 36238172.00 L 48688333.00 36138204.00 A 54121.84 54121.84 0 1 0 48604216.00 36069245.00 L 48604216.00 35654217.00 L 48650064.00 35654217.00 A 54118.70 54118.70 0 0 0 48650064.00 35545977.00 L 48450129.00 35545977.00 A 54118.70 54118.70 0 0 0 48450129.00 35654217.00 L 48495976.00 35654217.00 L 48495975.00 36199903.00 A 54122.11 54122.11 0 0 0 48588365.00 36238172.00  z"/>
<path id="N" d="M 40851919.00 34435275.00 L 40858260.00 34419968.00 L 40858260.00 34253356.00 L 40851919.00 34238049.00 L 40818596.00 34204725.00 L 40803289.00 34198385.00 L 40736644.00 34198385.00 L 40721336.00 34204726.00 L 40688014.00 34238049.00 L 40681674.00 34253356.00 L 40681674.00 34419968.00 L 40688015.00 34435275.00 L 40703322.00 34441616.00 L 40718629.00 34435275.00 L 40724970.00 34419968.00 L 40724970.00 34262322.81 L 40745611.19 34241681.00 L 40794322.19 34241681.00 L 40814964.00 34262322.19 L 40814964.00 34419968.00 L 40821305.00 34435275.00 L 40836612.00 34441616.00 L 40851919.00 34435275.00  z"/>
<path id="N" d="M 40817655.00 30262664.92 L 40835415.01 30217154.93 L 40845960.01 30204944.93 L 40859280.01 30197729.93 L 40876485.01 30195509.93 L 40903125.01 30199949.94 L 40898130.02 30156104.94 L 40877040.02 30150554.93 A 74222.71 74222.71 0 0 0 40823205.02 30165539.93 L 40805445.01 30187184.92 L 40787685.01 30222704.92 L 40667804.95 30541274.90 L 40714979.95 30541274.91 L 40774919.98 30378659.92 L 40794899.99 30315389.92 L 40801559.99 30339809.92 L 40873154.95 30541274.93 L 40923104.95 30541274.94 L 40817655.00 30262664.92  z"/>
<path id="N" d="M 50162373.00 31126111.92 L 50109093.00 31126111.91 L 50028062.95 31418596.90 L 50016962.94 31462441.90 L 49923723.00 31126111.88 L 49873773.00 31126111.87 L 49768322.93 31510171.85 L 49819937.93 31510171.86 L 49879877.98 31263196.87 L 49898747.99 31181056.88 L 49915397.98 31260976.88 L 49984217.93 31510171.89 L 50045822.93 31510171.90 L 50118527.98 31250431.92 L 50136287.99 31179391.92 L 50139062.99 31193821.92 L 50210102.93 31510171.93 L 50262827.93 31510171.94 L 50162373.00 31126111.92  z"/>
<path id="N" d="M 50162373.00 32126111.92 L 50109093.00 32126111.91 L 50028062.95 32418596.90 L 50016962.94 32462441.90 L 49923723.00 32126111.88 L 49873773.00 32126111.87 L 49768322.93 32510171.85 L 49819937.93 32510171.86 L 49879877.98 32263196.87 L 49898747.99 32181056.88 L 49915397.98 32260976.88 L 49984217.93 32510171.89 L 50045822.93 32510171.90 L 50118527.98 32250431.92 L 50136287.99 32179391.92 L 50139062.99 32193821.92 L 50210102.93 32510171.93 L 50262827.93 32510171.94 L 50162373.00 32126111.92  z"/>
<path id="N" d="M 42267339.00 34146788.00 L 42278435.00 34120000.00 L 42278435.00 33670000.00 L 42267339.00 33643212.00 L 42240551.00 33632116.00 L 41059449.00 33632116.00 L 41032661.00 33643212.00 L 41021565.00 33670000.00 L 41021565.00 34120000.00 L 41032661.00 34146788.00 L 41059449.00 34157884.00 L 42240551.00 34157884.00 L 42267339.00 34146788.00  zM 42202667.00 34082116.00 L 41097333.00 34082116.00 L 41097333.00 33707884.00 L 42202667.00 33707884.00 L 42202667.00 34082116.00  z"/>
<path id="N" d="M 42260007.44 33230007.44 m -81557.07 0 a 81557.07 81557.07 0 1 1 163114.14 0a 81557.07 81557.07 0 1 1 -163114.14 0"/>
<path id="N" d="M 50156872.97 35368141.91 L 50305058.00 35169451.94 L 50244008.00 35169451.93 L 50128567.97 35329291.91 L 50015903.00 35169451.89 L 49953188.00 35169451.88 L 50096932.96 35370916.90 L 49963732.93 35553511.88 L 50019232.93 35553511.89 L 50095822.95 35451391.90 L 50126902.96 35408101.91 L 50135227.96 35421976.91 L 50227357.93 35553511.93 L 50287852.93 35553511.94 L 50156872.97 35368141.91  z"/>
<path id="N" d="M 50136842.97 34318141.92 L 50285028.00 34119451.94 L 50223978.00 34119451.93 L 50108537.97 34279291.91 L 49995873.00 34119451.89 L 49933158.00 34119451.88 L 50076902.96 34320916.91 L 49943702.93 34503511.88 L 49999202.93 34503511.89 L 50075792.95 34401391.91 L 50106872.96 34358101.91 L 50115197.96 34371976.91 L 50207327.93 34503511.93 L 50267822.93 34503511.94 L 50136842.97 34318141.92  z"/>
<path id="N" d="M 40222240.00 29606659.80 L 40171180.00 29606659.79 L 40171179.98 29739859.79 L 40108464.97 29800354.78 L 39971935.00 29606659.76 L 39904780.00 29606659.75 L 40072944.96 29834764.78 L 39911994.93 29990719.75 L 39981369.93 29990719.76 L 40171179.97 29799799.79 L 40171179.93 29990719.79 L 40222239.93 29990719.80 L 40222240.00 29606659.80  z"/>
<path id="N" d="M 38255319.94 29974069.46 L 38280849.94 29945209.46 L 38320254.95 29914684.47 L 38354664.95 29895814.48 L 38354664.96 29850304.48 L 38329689.96 29861404.47 L 38295279.95 29880274.47 L 38260314.95 29906914.46 L 38260315.00 29606659.46 L 38213140.00 29606659.45 L 38213139.93 29992384.45 L 38243664.93 29992384.46 L 38255319.94 29974069.46  z"/>
<path id="N" d="M 40607965.00 29606659.87 L 40559125.00 29606659.86 L 40559124.95 29908024.86 L 40358215.00 29606659.83 L 40305490.00 29606659.82 L 40305489.93 29990719.82 L 40354329.93 29990719.83 L 40354329.99 29688799.83 L 40555794.93 29990719.86 L 40607964.93 29990719.87 L 40607965.00 29606659.87  z"/>
<path id="N" d="M 41680133.00 35248243.00 L 41692614.00 35218110.00 L 41692614.00 34981890.00 L 41680133.00 34951757.00 L 41650000.00 34939276.00 L 41619867.00 34951757.00 L 41607386.00 34981890.00 L 41607386.00 35218110.00 L 41619867.00 35248243.00 L 41650000.00 35260724.00 L 41680133.00 35248243.00  z"/>
<path id="N" d="M 50172363.00 33126111.92 L 50123523.00 33126111.92 L 50123522.95 33427476.92 L 49922613.00 33126111.88 L 49869888.00 33126111.87 L 49869887.93 33510171.87 L 49918727.93 33510171.88 L 49918727.99 33208251.88 L 50120192.93 33510171.92 L 50172362.93 33510171.92 L 50172363.00 33126111.92  z"/>
<path id="N" d="M 38620510.00 29606659.52 L 38567230.00 29606659.51 L 38417379.93 29990719.49 L 38468994.93 29990719.50 L 38573334.98 29711554.51 L 38593869.99 29648839.52 L 38603859.99 29681584.52 L 38713749.93 29990719.54 L 38769249.93 29990719.55 L 38620510.00 29606659.52  z"/>
<path id="N" d="M 50453748.00 30126111.97 L 50400468.00 30126111.96 L 50250617.93 30510171.94 L 50302232.93 30510171.95 L 50406572.98 30231006.97 L 50427107.99 30168291.97 L 50437097.99 30201036.97 L 50546987.93 30510171.99 L 50602487.93 30510172.00 L 50453748.00 30126111.97  z"/>
<path id="N" d="M 50602487.94 34458002.00 L 50475947.94 34458001.98 L 50475948.00 34119451.98 L 50424888.00 34119451.97 L 50424887.94 34458001.97 L 50298347.94 34458001.95 L 50298347.93 34503511.95 L 50602487.93 34503512.00 L 50602487.94 34458002.00  z"/>
<path id="N" d="M 42044016.66 33790000.00 m -64942.34 0 a 64942.34 64942.34 0 1 1 129884.69 0a 64942.34 64942.34 0 1 1 -129884.69 0"/>
<path id="N" d="M 41057515.00 29606659.95 L 40817200.00 29606659.91 L 40817199.99 29652169.91 L 41006454.99 29652169.94 L 41006454.93 29990719.94 L 41057514.93 29990719.95 L 41057515.00 29606659.95  z"/>
<path id="N" d="M 38932974.98 29722099.58 L 38787009.98 29722099.55 L 38787009.97 29769274.55 L 38932974.97 29769274.58 L 38932974.98 29722099.58  z"/>
<path id="N" d="M 40748380.00 29606659.89 L 40697320.00 29606659.89 L 40697319.93 29990719.89 L 40748379.93 29990719.89 L 40748380.00 29606659.89  z"/>
<path id="N" d="M 39887019.98 29722099.74 L 39741054.98 29722099.72 L 39741054.97 29769274.72 L 39887019.97 29769274.74 L 39887019.98 29722099.74  z"/>
</g>
</svg>
