<svg width="35.00000112mm" height="17.99999956mm" viewBox="0 0 13779528 7086614"  version="1.1" xmlns="http://www.w3.org/2000/svg" xmlns:xlink="http://www.w3.org/1999/xlink">
<desc>
Origin 0 0 Bound 37350000 29300000 13779528 7086614
</desc>
<g fill-rule="evenodd" fill="rgb(255, 255, 0)" stroke="black" stroke-width="1" transform="translate(0, 7086614) scale(1, -1) translate(-37350000, -29300000)">
<path id="N" d="M 51904120.00 35900000.00 L 51904120.00 35591915.00 L 53962205.00 35591916.00 L 54000474.00 35576064.00 L 54138269.00 35438269.00 L 54154121.00 35400000.00 L 54138267.29 35361730.29 L 54000474.00 35223936.00 L 53962202.59 35208085.00 L 51904120.00 35208085.00 L 51904120.00 34591915.00 L 53962205.00 34591916.00 L 54000474.00 34576064.00 L 54138269.00 34438269.00 L 54154121.00 34400000.00 L 54138267.29 34361730.29 L 54000474.00 34223936.00 L 53962202.59 34208085.00 L 51904120.00 34208085.00 L 51904120.00 33591915.00 L 53962205.00 33591916.00 L 54000474.00 33576064.00 L 54138269.00 33438269.00 L 54154121.00 33400000.00 L 54138267.29 33361730.29 L 54000474.00 33223936.00 L 53962202.59 33208085.00 L 51904120.00 33208085.00 L 51904120.00 32591915.00 L 53962205.00 32591916.00 L 54000474.00 32576064.00 L 54138269.00 32438269.00 L 54154121.00 32400000.00 L 54138267.29 32361730.29 L 54000474.00 32223936.00 L 53962202.59 32208085.00 L 51904120.00 32208085.00 L 51904120.00 31591915.00 L 53962205.00 31591916.00 L 54000474.00 31576064.00 L 54138269.00 31438269.00 L 54154121.00 31400000.00 L 54138267.29 31361730.29 L 54000474.00 31223936.00 L 53962202.59 31208085.00 L 51904120.00 31208085.00 L 51904120.00 30591915.00 L 53962205.00 30591916.00 L 54000474.00 30576064.00 L 54138269.00 30438269.00 L 54154121.00 30400000.00 L 54138267.29 30361730.29 L 54000474.00 30223936.00 L 53962202.59 30208085.00 L 51904120.00 30208085.00 L 51904120.00 29900000.00 L 51888269.00 29861731.00 L 51850000.00 29845880.00 L 50850000.00 29845880.00 L 50811731.00 29861731.00 L 50795880.00 29900000.00 L 50795880.00 30100000.00 L 50811731.00 30138269.00 L 50850000.00 30154120.00 L 50995880.00 30154120.00 L 50995880.00 30645880.00 L 50850000.00 30645880.00 L 50811731.00 30661731.00 L 50795880.00 30700000.00 L 50795880.00 31100000.00 L 50811731.00 31138269.00 L 50850000.00 31154120.00 L 50995880.00 31154120.00 L 50995880.00 31645880.00 L 50850000.00 31645880.00 L 50811731.00 31661731.00 L 50795880.00 31700000.00 L 50795880.00 32100000.00 L 50811731.00 32138269.00 L 50850000.00 32154120.00 L 50995880.00 32154120.00 L 50995880.00 32645880.00 L 50850000.00 32645880.00 L 50811731.00 32661731.00 L 50795880.00 32700000.00 L 50795880.00 33100000.00 L 50811731.00 33138269.00 L 50850000.00 33154120.00 L 50995880.00 33154120.00 L 50995880.00 33645880.00 L 50850000.00 33645880.00 L 50811731.00 33661731.00 L 50795880.00 33700000.00 L 50795880.00 34100000.00 L 50811731.00 34138269.00 L 50850000.00 34154120.00 L 50995880.00 34154120.00 L 50995880.00 34645880.00 L 50850000.00 34645880.00 L 50811731.00 34661731.00 L 50795880.00 34700000.00 L 50795880.00 35100000.00 L 50811731.00 35138269.00 L 50850000.00 35154120.00 L 50995880.00 35154120.00 L 50995880.00 35645880.00 L 50850000.00 35645880.00 L 50811731.00 35661731.00 L 50795880.00 35700000.00 L 50795880.00 35900000.00 L 50811731.00 35938269.00 L 50850000.00 35954120.00 L 51850000.00 35954120.00 L 51888269.00 35938269.00 L 51904120.00 35900000.00  zM 51795880.00 35845880.00 L 50904120.00 35845880.00 L 50904120.00 35754120.00 L 51050000.00 35754120.00 L 51088269.00 35738269.00 L 51104120.00 35700000.00 L 51104120.00 35100000.00 L 51088269.00 35061731.00 L 51050000.00 35045880.00 L 50904120.00 35045880.00 L 50904120.00 34754120.00 L 51050000.00 34754120.00 L 51088269.00 34738269.00 L 51104120.00 34700000.00 L 51104120.00 34100000.00 L 51088269.00 34061731.00 L 51050000.00 34045880.00 L 50904120.00 34045880.00 L 50904120.00 33754120.00 L 51050000.00 33754120.00 L 51088269.00 33738269.00 L 51104120.00 33700000.00 L 51104120.00 33100000.00 L 51088269.00 33061731.00 L 51050000.00 33045880.00 L 50904120.00 33045880.00 L 50904120.00 32754120.00 L 51050000.00 32754120.00 L 51088269.00 32738269.00 L 51104120.00 32700000.00 L 51104120.00 32100000.00 L 51088269.00 32061731.00 L 51050000.00 32045880.00 L 50904120.00 32045880.00 L 50904120.00 31754120.00 L 51050000.00 31754120.00 L 51088269.00 31738269.00 L 51104120.00 31700000.00 L 51104120.00 31100000.00 L 51088269.00 31061731.00 L 51050000.00 31045880.00 L 50904120.00 31045880.00 L 50904120.00 30754120.00 L 51050000.00 30754120.00 L 51088269.00 30738269.00 L 51104120.00 30700000.00 L 51104120.00 30100000.00 L 51088269.00 30061731.00 L 51050000.00 30045880.00 L 50904120.00 30045880.00 L 50904120.00 29954120.00 L 51795880.00 29954120.00 L 51795880.00 35845880.00  zM 53939787.12 30483675.00 L 51904120.00 30483675.00 L 51904120.00 30316325.00 L 53939787.12 30316325.00 L 54023462.72 30400000.00 L 53939787.12 30483675.00  zM 53939787.12 35483675.00 L 51904120.00 35483675.00 L 51904120.00 35316325.00 L 53939787.12 35316325.00 L 54023462.72 35400000.00 L 53939787.12 35483675.00  zM 53939787.12 31483675.00 L 51904120.00 31483675.00 L 51904120.00 31316325.00 L 53939787.12 31316325.00 L 54023462.72 31400000.00 L 53939787.12 31483675.00  zM 53939787.12 32483675.00 L 51904120.00 32483675.00 L 51904120.00 32316325.00 L 53939787.12 32316325.00 L 54023462.72 32400000.00 L 53939787.12 32483675.00  zM 53939787.12 33483675.00 L 51904120.00 33483675.00 L 51904120.00 33316325.00 L 53939787.12 33316325.00 L 54023462.72 33400000.00 L 53939787.12 33483675.00  zM 53939787.12 34483675.00 L 51904120.00 34483675.00 L 51904120.00 34316325.00 L 53939787.12 34316325.00 L 54023462.72 34400000.00 L 53939787.12 34483675.00  z"/>
<path id="N" d="M 49601953.00 36071953.00 L 49608293.00 36056645.00 L 49601953.00 36041338.00 L 49572262.78 36011648.00 L 49586645.00 36011648.00 L 49601952.00 36005307.00 L 49608293.00 35990000.00 L 49601952.00 35974693.00 L 49586645.00 35968352.00 L 49572262.78 35968352.00 L 49601953.00 35938662.00 L 49608293.00 35923355.00 L 49601953.00 35908047.00 L 49586645.00 35901707.00 L 49571338.00 35908047.00 L 49541648.00 35937737.22 L 49541648.00 35923355.00 L 49535307.00 35908048.00 L 49520000.00 35901707.00 L 49504693.00 35908048.00 L 49498352.00 35923355.00 L 49498352.00 35937737.78 L 49468662.00 35908048.00 L 49453355.00 35901708.00 L 49438048.00 35908048.00 L 49431708.00 35923355.00 L 49438048.00 35938662.00 L 49467737.78 35968352.00 L 49453355.00 35968352.00 L 49438048.00 35974693.00 L 49431707.00 35990000.00 L 49438048.00 36005307.00 L 49453355.00 36011648.00 L 49467737.78 36011648.00 L 49438048.00 36041338.00 L 49431708.00 36056645.00 L 49438048.00 36071952.00 L 49453355.00 36078292.00 L 49468662.00 36071952.00 L 49498352.00 36042262.22 L 49498352.00 36056645.00 L 49504693.00 36071952.00 L 49520000.00 36078293.00 L 49535307.00 36071952.00 L 49541648.00 36056645.00 L 49541648.00 36042262.78 L 49571338.00 36071953.00 L 49586645.00 36078293.00 L 49601953.00 36071953.00  z"/>
<path id="N" d="M 47768598.00 32025275.00 L 47801920.00 31991954.00 L 47808261.00 31976646.00 L 47808261.00 31943323.00 L 47801920.00 31928016.00 L 47783905.54 31910001.00 L 47801921.00 31891985.00 L 47808261.00 31876678.00 L 47808261.00 31843356.00 L 47801921.00 31828049.00 L 47768599.00 31794726.00 L 47753291.00 31788385.00 L 47686646.00 31788385.00 L 47671339.00 31794726.00 L 47638015.00 31828049.00 L 47631676.00 31843356.00 L 47638015.00 31858664.00 L 47653323.00 31865003.00 L 47668630.00 31858664.00 L 47695612.19 31831681.00 L 47744323.81 31831681.00 L 47764965.00 31852322.81 L 47764965.00 31867711.19 L 47744323.81 31888353.00 L 47719968.00 31888353.00 L 47704661.00 31894694.00 L 47698320.00 31910001.00 L 47704661.00 31925308.00 L 47719968.00 31931649.00 L 47744324.19 31931649.00 L 47764965.00 31952289.19 L 47764965.00 31967679.19 L 47744324.81 31988320.00 L 47695612.81 31988320.00 L 47668630.00 31961338.00 L 47653323.00 31954999.00 L 47638015.00 31961339.00 L 47631676.00 31976646.00 L 47638016.00 31991954.00 L 47671339.00 32025276.00 L 47686646.00 32031616.00 L 47753291.00 32031616.00 L 47768598.00 32025275.00  z"/>
<path id="N" d="M 45798598.00 30005275.00 L 45831920.00 29971954.00 L 45838261.00 29956646.00 L 45838261.00 29923323.00 L 45831920.00 29908016.00 L 45813905.54 29890001.00 L 45831921.00 29871985.00 L 45838261.00 29856678.00 L 45838261.00 29823356.00 L 45831921.00 29808049.00 L 45798599.00 29774726.00 L 45783291.00 29768385.00 L 45716646.00 29768385.00 L 45701339.00 29774726.00 L 45668015.00 29808049.00 L 45661675.00 29823356.00 L 45661675.00 29856678.00 L 45668016.00 29871985.00 L 45686031.00 29890000.54 L 45668016.00 29908015.00 L 45661675.00 29923323.00 L 45661675.00 29956646.00 L 45668016.00 29971954.00 L 45701339.00 30005276.00 L 45716646.00 30011616.00 L 45783291.00 30011616.00 L 45798598.00 30005275.00  zM 45774323.81 29868353.00 L 45725612.81 29868353.00 L 45704971.00 29847711.81 L 45704971.00 29832322.81 L 45725612.19 29811681.00 L 45774323.81 29811681.00 L 45794965.00 29832322.81 L 45794965.00 29847711.19 L 45774323.81 29868353.00  zM 45774324.81 29968320.00 L 45725612.81 29968320.00 L 45704971.00 29947678.81 L 45704971.00 29932290.19 L 45725612.81 29911649.00 L 45774324.19 29911649.00 L 45794965.00 29932289.19 L 45794965.00 29947679.19 L 45774324.81 29968320.00  z"/>
<path id="N" d="M 47218598.00 29995275.00 L 47251920.00 29961954.00 L 47258261.00 29946646.00 L 47258261.00 29913323.00 L 47251920.00 29898016.00 L 47233905.54 29880001.00 L 47251921.00 29861985.00 L 47258261.00 29846678.00 L 47258261.00 29813356.00 L 47251921.00 29798049.00 L 47218599.00 29764726.00 L 47203291.00 29758385.00 L 47136646.00 29758385.00 L 47121339.00 29764726.00 L 47088015.00 29798049.00 L 47081676.00 29813356.00 L 47088015.00 29828664.00 L 47103323.00 29835003.00 L 47118630.00 29828664.00 L 47145612.19 29801681.00 L 47194323.81 29801681.00 L 47214965.00 29822322.81 L 47214965.00 29837711.19 L 47194323.81 29858353.00 L 47169968.00 29858353.00 L 47154661.00 29864694.00 L 47148320.00 29880001.00 L 47154661.00 29895308.00 L 47169968.00 29901649.00 L 47194324.19 29901649.00 L 47214965.00 29922289.19 L 47214965.00 29937679.19 L 47194324.81 29958320.00 L 47145612.81 29958320.00 L 47118630.00 29931338.00 L 47103323.00 29924999.00 L 47088015.00 29931339.00 L 47081676.00 29946646.00 L 47088016.00 29961954.00 L 47121339.00 29995276.00 L 47136646.00 30001616.00 L 47203291.00 30001616.00 L 47218598.00 29995275.00  z"/>
<path id="N" d="M 47811920.00 33875275.00 L 47818261.00 33859968.00 L 47811920.00 33844661.00 L 47796613.00 33838320.00 L 47684971.00 33838320.00 L 47684971.00 33795028.26 L 47720287.00 33812686.00 L 47729968.00 33814971.00 L 47763291.00 33814971.00 L 47778598.00 33808630.00 L 47811920.00 33775309.00 L 47818261.00 33760001.00 L 47818261.00 33693356.00 L 47811921.00 33678049.00 L 47778599.00 33644726.00 L 47763291.00 33638385.00 L 47696646.00 33638385.00 L 47681339.00 33644726.00 L 47648015.00 33678049.00 L 47641676.00 33693356.00 L 47648015.00 33708664.00 L 47663323.00 33715003.00 L 47678630.00 33708664.00 L 47705612.19 33681681.00 L 47754323.81 33681681.00 L 47774965.00 33702322.81 L 47774965.00 33751034.19 L 47754324.81 33771675.00 L 47735078.93 33771675.00 L 47673004.00 33740638.00 L 47663323.00 33738353.00 L 47656477.00 33739465.00 L 47648016.00 33744694.00 L 47643960.00 33750320.00 L 47641675.00 33760001.00 L 47641675.00 33859968.00 L 47648016.00 33875275.00 L 47663323.00 33881616.00 L 47796613.00 33881616.00 L 47811920.00 33875275.00  z"/>
<path id="N" d="M 41848599.00 33185275.00 L 41881920.00 33151953.00 L 41888261.00 33136646.00 L 41888261.00 33003356.00 L 41881921.00 32988049.00 L 41848599.00 32954726.00 L 41833291.00 32948385.00 L 41766646.00 32948385.00 L 41751339.00 32954725.00 L 41718016.00 32988049.00 L 41711676.00 33003356.00 L 41718016.00 33018663.00 L 41733323.00 33025003.00 L 41748630.00 33018663.00 L 41775612.81 32991681.00 L 41824323.81 32991681.00 L 41844965.00 33012322.81 L 41844965.00 33048353.00 L 41766646.00 33048353.00 L 41751339.00 33054693.00 L 41718016.00 33088015.00 L 41711675.00 33103323.00 L 41711675.00 33136646.00 L 41718016.00 33151954.00 L 41751339.00 33185276.00 L 41766646.00 33191616.00 L 41833291.00 33191616.00 L 41848599.00 33185275.00  zM 41824324.19 33148320.00 L 41775612.81 33148320.00 L 41754971.00 33127678.81 L 41754971.00 33112290.19 L 41775612.81 33091649.00 L 41844965.00 33091649.00 L 41844965.00 33127679.81 L 41824324.19 33148320.00  z"/>
<path id="N" d="M 44750000.00 36254120.00 L 44788269.00 36238269.00 L 44804120.00 36200000.00 L 44804120.00 35200000.00 L 44788269.00 35161731.00 L 44750000.00 35145880.00 L 42650000.00 35145880.00 L 42611731.00 35161731.00 L 42595880.00 35200000.00 L 42595880.00 36200000.00 L 42611731.00 36238269.00 L 42650000.00 36254120.00 L 44750000.00 36254120.00  zM 43145880.00 36145880.00 L 42704120.00 36145880.00 L 42704120.00 35254120.00 L 43145880.00 35254120.00 L 43145880.00 36145880.00  zM 43645880.00 36145880.00 L 43254120.00 36145880.00 L 43254120.00 35254120.00 L 43645880.00 35254120.00 L 43645880.00 36145880.00  zM 44527582.08 36145880.00 L 44254120.00 36145880.00 L 44254120.00 35254120.00 L 44695880.00 35254120.00 L 44695880.00 35977582.92 L 44527582.08 36145880.00  zM 44145880.00 36145880.00 L 43754120.00 36145880.00 L 43754120.00 35254120.00 L 44145880.00 35254120.00 L 44145880.00 36145880.00  zM 44695880.00 36145880.00 L 44680657.54 36145880.00 L 44695880.00 36130657.46 L 44695880.00 36145880.00  z"/>
<path id="N" d="M 47825976.00 34839649.00 L 47827149.00 34823122.00 L 47816294.00 34810605.00 L 47752789.03 34778852.99 L 47725585.45 34751649.00 L 47773291.00 34751649.00 L 47788599.00 34745308.00 L 47821921.00 34711985.00 L 47828261.00 34696678.00 L 47828261.00 34663356.00 L 47821921.00 34648049.00 L 47788599.00 34614726.00 L 47773291.00 34608385.00 L 47706646.00 34608385.00 L 47691339.00 34614725.00 L 47658016.00 34648049.00 L 47651675.00 34663356.00 L 47651675.00 34730001.00 L 47658016.00 34745309.00 L 47724661.00 34811953.00 L 47730287.00 34816009.00 L 47796932.00 34849331.00 L 47813459.00 34850504.00 L 47825976.00 34839649.00  zM 47764323.81 34708353.00 L 47694971.00 34708353.00 L 47694971.00 34672322.19 L 47715612.81 34651681.00 L 47764323.81 34651681.00 L 47784965.00 34672322.81 L 47784965.00 34687711.19 L 47764323.81 34708353.00  z"/>
<path id="N" d="M 37922019.00 35355275.00 L 37955340.00 35321953.00 L 37961680.00 35306646.00 L 37955340.00 35291339.00 L 37940033.00 35284999.00 L 37924726.00 35291339.00 L 37897744.19 35318320.00 L 37849032.81 35318320.00 L 37828391.00 35297678.81 L 37828391.00 35182322.19 L 37849032.81 35161681.00 L 37897743.81 35161681.00 L 37924725.00 35188663.00 L 37940033.00 35195003.00 L 37955340.00 35188664.00 L 37961680.00 35173356.00 L 37955341.00 35158049.00 L 37922019.00 35124726.00 L 37906711.00 35118385.00 L 37840066.00 35118385.00 L 37824759.00 35124725.00 L 37791436.00 35158049.00 L 37785095.00 35173356.00 L 37785095.00 35306646.00 L 37791436.00 35321954.00 L 37824759.00 35355276.00 L 37840066.00 35361616.00 L 37906711.00 35361616.00 L 37922019.00 35355275.00  z"/>
<path id="N" d="M 47018664.00 29995275.00 L 47051985.00 29961953.00 L 47058325.00 29946646.00 L 47051985.00 29931339.00 L 47036678.00 29924999.00 L 47021371.00 29931339.00 L 46994389.19 29958320.00 L 46945677.81 29958320.00 L 46925036.00 29937678.81 L 46925036.00 29822322.19 L 46945677.81 29801681.00 L 46994388.81 29801681.00 L 47021370.00 29828663.00 L 47036678.00 29835003.00 L 47051985.00 29828664.00 L 47058325.00 29813356.00 L 47051986.00 29798049.00 L 47018664.00 29764726.00 L 47003356.00 29758385.00 L 46936711.00 29758385.00 L 46921404.00 29764725.00 L 46888081.00 29798049.00 L 46881740.00 29813356.00 L 46881740.00 29946646.00 L 46888081.00 29961954.00 L 46921404.00 29995276.00 L 46936711.00 30001616.00 L 47003356.00 30001616.00 L 47018664.00 29995275.00  z"/>
<path id="N" d="M 46841986.00 36145275.00 L 46875307.00 36111953.00 L 46881647.00 36096646.00 L 46875307.00 36081339.00 L 46860000.00 36074999.00 L 46844693.00 36081339.00 L 46817711.19 36108320.00 L 46768999.81 36108320.00 L 46748358.00 36087678.81 L 46748358.00 35972322.19 L 46768999.81 35951681.00 L 46817710.81 35951681.00 L 46844692.00 35978663.00 L 46860000.00 35985003.00 L 46875307.00 35978664.00 L 46881647.00 35963356.00 L 46875308.00 35948049.00 L 46841986.00 35914726.00 L 46826678.00 35908385.00 L 46760033.00 35908385.00 L 46744726.00 35914725.00 L 46711403.00 35948049.00 L 46705062.00 35963356.00 L 46705062.00 36096646.00 L 46711403.00 36111954.00 L 46744726.00 36145276.00 L 46760033.00 36151616.00 L 46826678.00 36151616.00 L 46841986.00 36145275.00  z"/>
<path id="N" d="M 42168664.00 31385275.00 L 42201985.00 31351953.00 L 42208325.00 31336646.00 L 42201985.00 31321339.00 L 42186678.00 31314999.00 L 42171371.00 31321339.00 L 42144389.19 31348320.00 L 42095677.81 31348320.00 L 42075036.00 31327678.81 L 42075036.00 31212322.19 L 42095677.81 31191681.00 L 42144388.81 31191681.00 L 42171370.00 31218663.00 L 42186678.00 31225003.00 L 42201985.00 31218664.00 L 42208325.00 31203356.00 L 42201986.00 31188049.00 L 42168664.00 31154726.00 L 42153356.00 31148385.00 L 42086711.00 31148385.00 L 42071404.00 31154725.00 L 42038081.00 31188049.00 L 42031740.00 31203356.00 L 42031740.00 31336646.00 L 42038081.00 31351954.00 L 42071404.00 31385276.00 L 42086711.00 31391616.00 L 42153356.00 31391616.00 L 42168664.00 31385275.00  z"/>
<path id="N" d="M 45598664.00 36155275.00 L 45631985.00 36121953.00 L 45638325.00 36106646.00 L 45631985.00 36091339.00 L 45616678.00 36084999.00 L 45601371.00 36091339.00 L 45574389.19 36118320.00 L 45525677.81 36118320.00 L 45505036.00 36097678.81 L 45505036.00 35982322.19 L 45525677.81 35961681.00 L 45574388.81 35961681.00 L 45601370.00 35988663.00 L 45616678.00 35995003.00 L 45631985.00 35988664.00 L 45638325.00 35973356.00 L 45631986.00 35958049.00 L 45598664.00 35924726.00 L 45583356.00 35918385.00 L 45516711.00 35918385.00 L 45501404.00 35924725.00 L 45468081.00 35958049.00 L 45461740.00 35973356.00 L 45461740.00 36106646.00 L 45468081.00 36121954.00 L 45501404.00 36155276.00 L 45516711.00 36161616.00 L 45583356.00 36161616.00 L 45598664.00 36155275.00  z"/>
<path id="N" d="M 40786355.51 34042154.08 L 40791603.00 34042527.00 L 40797223.42 34037652.36 L 40804095.00 34034806.00 L 40806107.74 34029946.91 L 40810082.00 34026500.00 L 40810609.36 34019079.26 L 40813456.00 34012207.00 L 40813456.00 33854727.00 L 40810609.36 33847854.74 L 40810082.00 33840434.00 L 40806107.74 33836987.09 L 40804095.00 33832128.00 L 40797223.42 33829281.64 L 40791603.00 33824407.00 L 40786355.51 33824779.92 L 40781496.00 33822767.00 L 40774623.74 33825613.64 L 40767203.00 33826141.00 L 40609723.00 33904881.00 L 40595430.00 33919174.00 L 40593696.00 33923360.00 L 40593696.00 33943574.00 L 40595430.00 33947760.00 L 40609723.00 33962053.00 L 40767203.00 34040793.00 L 40774623.74 34041320.36 L 40781496.00 34044167.00 L 40786355.51 34042154.08  z"/>
<path id="N" d="M 39998663.00 30605275.00 L 40031985.00 30571954.00 L 40038326.00 30556646.00 L 40038326.00 30490001.00 L 40031986.00 30474694.00 L 39996748.00 30440577.47 L 40031985.00 30405341.00 L 40038325.00 30390033.00 L 40031985.00 30374726.00 L 40016678.00 30368386.00 L 40001370.00 30374726.00 L 39941066.90 30435030.00 L 39905036.00 30435030.00 L 39905036.00 30390033.00 L 39898695.00 30374726.00 L 39883388.00 30368385.00 L 39868081.00 30374726.00 L 39861740.00 30390033.00 L 39861740.00 30589968.00 L 39868081.00 30605275.00 L 39883388.00 30611616.00 L 39983356.00 30611616.00 L 39998663.00 30605275.00  zM 39974389.81 30568320.00 L 39905036.00 30568320.00 L 39905036.00 30478326.00 L 39974388.81 30478326.00 L 39995030.00 30498967.81 L 39995030.00 30547679.19 L 39974389.81 30568320.00  z"/>
<path id="N" d="M 41461985.00 36185275.00 L 41495307.00 36151954.00 L 41501648.00 36136646.00 L 41501648.00 36070001.00 L 41495308.00 36054694.00 L 41460070.00 36020577.47 L 41495307.00 35985341.00 L 41501647.00 35970033.00 L 41495307.00 35954726.00 L 41480000.00 35948386.00 L 41464692.00 35954726.00 L 41404388.90 36015030.00 L 41368358.00 36015030.00 L 41368358.00 35970033.00 L 41362017.00 35954726.00 L 41346710.00 35948385.00 L 41331403.00 35954726.00 L 41325062.00 35970033.00 L 41325062.00 36169968.00 L 41331403.00 36185275.00 L 41346710.00 36191616.00 L 41446678.00 36191616.00 L 41461985.00 36185275.00  zM 41437711.81 36148320.00 L 41368358.00 36148320.00 L 41368358.00 36058326.00 L 41437710.81 36058326.00 L 41458352.00 36078967.81 L 41458352.00 36127679.19 L 41437711.81 36148320.00  z"/>
<path id="N" d="M 47578663.00 33875275.00 L 47611985.00 33841954.00 L 47618326.00 33826646.00 L 47618326.00 33760001.00 L 47611986.00 33744694.00 L 47576748.00 33710577.47 L 47611985.00 33675341.00 L 47618325.00 33660033.00 L 47611985.00 33644726.00 L 47596678.00 33638386.00 L 47581370.00 33644726.00 L 47521066.90 33705030.00 L 47485036.00 33705030.00 L 47485036.00 33660033.00 L 47478695.00 33644726.00 L 47463388.00 33638385.00 L 47448081.00 33644726.00 L 47441740.00 33660033.00 L 47441740.00 33859968.00 L 47448081.00 33875275.00 L 47463388.00 33881616.00 L 47563356.00 33881616.00 L 47578663.00 33875275.00  zM 47554389.81 33838320.00 L 47485036.00 33838320.00 L 47485036.00 33748326.00 L 47554388.81 33748326.00 L 47575030.00 33768967.81 L 47575030.00 33817679.19 L 47554389.81 33838320.00  z"/>
<path id="N" d="M 47588663.00 34845275.00 L 47621985.00 34811954.00 L 47628326.00 34796646.00 L 47628326.00 34730001.00 L 47621986.00 34714694.00 L 47586748.00 34680577.47 L 47621985.00 34645341.00 L 47628325.00 34630033.00 L 47621985.00 34614726.00 L 47606678.00 34608386.00 L 47591370.00 34614726.00 L 47531066.90 34675030.00 L 47495036.00 34675030.00 L 47495036.00 34630033.00 L 47488695.00 34614726.00 L 47473388.00 34608385.00 L 47458081.00 34614726.00 L 47451740.00 34630033.00 L 47451740.00 34829968.00 L 47458081.00 34845275.00 L 47473388.00 34851616.00 L 47573356.00 34851616.00 L 47588663.00 34845275.00  zM 47564389.81 34808320.00 L 47495036.00 34808320.00 L 47495036.00 34718326.00 L 47564388.81 34718326.00 L 47585030.00 34738967.81 L 47585030.00 34787679.19 L 47564389.81 34808320.00  z"/>
<path id="N" d="M 41648663.00 33185275.00 L 41681985.00 33151954.00 L 41688326.00 33136646.00 L 41688326.00 33070001.00 L 41681986.00 33054694.00 L 41646748.00 33020577.47 L 41681985.00 32985341.00 L 41688325.00 32970033.00 L 41681985.00 32954726.00 L 41666678.00 32948386.00 L 41651370.00 32954726.00 L 41591066.90 33015030.00 L 41555036.00 33015030.00 L 41555036.00 32970033.00 L 41548695.00 32954726.00 L 41533388.00 32948385.00 L 41518081.00 32954726.00 L 41511740.00 32970033.00 L 41511740.00 33169968.00 L 41518081.00 33185275.00 L 41533388.00 33191616.00 L 41633356.00 33191616.00 L 41648663.00 33185275.00  zM 41624389.81 33148320.00 L 41555036.00 33148320.00 L 41555036.00 33058326.00 L 41624388.81 33058326.00 L 41645030.00 33078967.81 L 41645030.00 33127679.19 L 41624389.81 33148320.00  z"/>
<path id="N" d="M 47588663.00 32925275.00 L 47621985.00 32891954.00 L 47628326.00 32876646.00 L 47628326.00 32810001.00 L 47621986.00 32794694.00 L 47586748.00 32760577.47 L 47621985.00 32725341.00 L 47628325.00 32710033.00 L 47621985.00 32694726.00 L 47606678.00 32688386.00 L 47591370.00 32694726.00 L 47531066.90 32755030.00 L 47495036.00 32755030.00 L 47495036.00 32710033.00 L 47488695.00 32694726.00 L 47473388.00 32688385.00 L 47458081.00 32694726.00 L 47451740.00 32710033.00 L 47451740.00 32909968.00 L 47458081.00 32925275.00 L 47473388.00 32931616.00 L 47573356.00 32931616.00 L 47588663.00 32925275.00  zM 47564389.81 32888320.00 L 47495036.00 32888320.00 L 47495036.00 32798326.00 L 47564388.81 32798326.00 L 47585030.00 32818967.81 L 47585030.00 32867679.19 L 47564389.81 32888320.00  z"/>
<path id="N" d="M 41678663.00 32425275.00 L 41711985.00 32391954.00 L 41718326.00 32376646.00 L 41718326.00 32310001.00 L 41711986.00 32294694.00 L 41676748.00 32260577.47 L 41711985.00 32225341.00 L 41718325.00 32210033.00 L 41711985.00 32194726.00 L 41696678.00 32188386.00 L 41681370.00 32194726.00 L 41621066.90 32255030.00 L 41585036.00 32255030.00 L 41585036.00 32210033.00 L 41578695.00 32194726.00 L 41563388.00 32188385.00 L 41548081.00 32194726.00 L 41541740.00 32210033.00 L 41541740.00 32409968.00 L 41548081.00 32425275.00 L 41563388.00 32431616.00 L 41663356.00 32431616.00 L 41678663.00 32425275.00  zM 41654389.81 32388320.00 L 41585036.00 32388320.00 L 41585036.00 32298326.00 L 41654388.81 32298326.00 L 41675030.00 32318967.81 L 41675030.00 32367679.19 L 41654389.81 32388320.00  z"/>
<path id="N" d="M 40835356.00 31395275.00 L 40868678.00 31361954.00 L 40875019.00 31346646.00 L 40875019.00 31280001.00 L 40868679.00 31264694.00 L 40833441.00 31230577.47 L 40868678.00 31195341.00 L 40875018.00 31180033.00 L 40868678.00 31164726.00 L 40853371.00 31158386.00 L 40838063.00 31164726.00 L 40777759.90 31225030.00 L 40741729.00 31225030.00 L 40741729.00 31180033.00 L 40735388.00 31164726.00 L 40720081.00 31158385.00 L 40704774.00 31164726.00 L 40698433.00 31180033.00 L 40698433.00 31379968.00 L 40704774.00 31395275.00 L 40720081.00 31401616.00 L 40820049.00 31401616.00 L 40835356.00 31395275.00  zM 40811082.81 31358320.00 L 40741729.00 31358320.00 L 40741729.00 31268326.00 L 40811081.81 31268326.00 L 40831723.00 31288967.81 L 40831723.00 31337679.19 L 40811082.81 31358320.00  z"/>
<path id="N" d="M 47568663.00 32025275.00 L 47601985.00 31991954.00 L 47608326.00 31976646.00 L 47608326.00 31910001.00 L 47601986.00 31894694.00 L 47566748.00 31860577.47 L 47601985.00 31825341.00 L 47608325.00 31810033.00 L 47601985.00 31794726.00 L 47586678.00 31788386.00 L 47571370.00 31794726.00 L 47511066.90 31855030.00 L 47475036.00 31855030.00 L 47475036.00 31810033.00 L 47468695.00 31794726.00 L 47453388.00 31788385.00 L 47438081.00 31794726.00 L 47431740.00 31810033.00 L 47431740.00 32009968.00 L 47438081.00 32025275.00 L 47453388.00 32031616.00 L 47553356.00 32031616.00 L 47568663.00 32025275.00  zM 47544389.81 31988320.00 L 47475036.00 31988320.00 L 47475036.00 31898326.00 L 47544388.81 31898326.00 L 47565030.00 31918967.81 L 47565030.00 31967679.19 L 47544389.81 31988320.00  z"/>
<path id="N" d="M 45598663.00 30005275.00 L 45631985.00 29971954.00 L 45638326.00 29956646.00 L 45638326.00 29890001.00 L 45631986.00 29874694.00 L 45596748.00 29840577.47 L 45631985.00 29805341.00 L 45638325.00 29790033.00 L 45631985.00 29774726.00 L 45616678.00 29768386.00 L 45601370.00 29774726.00 L 45541066.90 29835030.00 L 45505036.00 29835030.00 L 45505036.00 29790033.00 L 45498695.00 29774726.00 L 45483388.00 29768385.00 L 45468081.00 29774726.00 L 45461740.00 29790033.00 L 45461740.00 29989968.00 L 45468081.00 30005275.00 L 45483388.00 30011616.00 L 45583356.00 30011616.00 L 45598663.00 30005275.00  zM 45574389.81 29968320.00 L 45505036.00 29968320.00 L 45505036.00 29878326.00 L 45574388.81 29878326.00 L 45595030.00 29898967.81 L 45595030.00 29947679.19 L 45574389.81 29968320.00  z"/>
<path id="N" d="M 40688679.00 34795275.00 L 40722001.00 34761954.00 L 40728342.00 34746646.00 L 40728342.00 34680001.00 L 40722002.00 34664694.00 L 40686764.00 34630577.47 L 40722001.00 34595341.00 L 40728341.00 34580033.00 L 40722001.00 34564726.00 L 40706694.00 34558386.00 L 40691386.00 34564726.00 L 40631082.90 34625030.00 L 40595052.00 34625030.00 L 40595052.00 34580033.00 L 40588711.00 34564726.00 L 40573404.00 34558385.00 L 40558097.00 34564726.00 L 40551756.00 34580033.00 L 40551756.00 34779968.00 L 40558097.00 34795275.00 L 40573404.00 34801616.00 L 40673372.00 34801616.00 L 40688679.00 34795275.00  zM 40664405.81 34758320.00 L 40595052.00 34758320.00 L 40595052.00 34668326.00 L 40664404.81 34668326.00 L 40685046.00 34688967.81 L 40685046.00 34737679.19 L 40664405.81 34758320.00  z"/>
<path id="N" d="M 41495356.00 33825275.00 L 41528678.00 33791954.00 L 41535019.00 33776646.00 L 41535019.00 33710001.00 L 41528679.00 33694694.00 L 41493441.00 33660577.47 L 41528678.00 33625341.00 L 41535018.00 33610033.00 L 41528678.00 33594726.00 L 41513371.00 33588386.00 L 41498063.00 33594726.00 L 41437759.90 33655030.00 L 41401729.00 33655030.00 L 41401729.00 33610033.00 L 41395388.00 33594726.00 L 41380081.00 33588385.00 L 41364774.00 33594726.00 L 41358433.00 33610033.00 L 41358433.00 33809968.00 L 41364774.00 33825275.00 L 41380081.00 33831616.00 L 41480049.00 33831616.00 L 41495356.00 33825275.00  zM 41471082.81 33788320.00 L 41401729.00 33788320.00 L 41401729.00 33698326.00 L 41471081.81 33698326.00 L 41491723.00 33718967.81 L 41491723.00 33767679.19 L 41471082.81 33788320.00  z"/>
<path id="N" d="M 41088599.00 33575275.00 L 41121920.00 33541953.00 L 41128261.00 33526646.00 L 41128261.00 33493323.00 L 41121921.00 33478016.00 L 41025585.28 33381681.00 L 41106613.00 33381681.00 L 41121920.00 33375340.00 L 41128261.00 33360033.00 L 41121920.00 33344726.00 L 41106613.00 33338385.00 L 40973323.00 33338385.00 L 40958016.00 33344726.00 L 40951675.00 33360033.00 L 40958016.00 33375340.00 L 41084965.00 33502289.95 L 41084965.00 33517679.81 L 41064324.19 33538320.00 L 41015612.81 33538320.00 L 40988630.00 33511338.00 L 40973323.00 33504999.00 L 40958015.00 33511339.00 L 40951676.00 33526646.00 L 40958016.00 33541954.00 L 40991339.00 33575276.00 L 41006646.00 33581616.00 L 41073291.00 33581616.00 L 41088599.00 33575275.00  z"/>
<path id="N" d="M 41628599.00 30635275.00 L 41661920.00 30601953.00 L 41668261.00 30586646.00 L 41668261.00 30553323.00 L 41661921.00 30538016.00 L 41565585.28 30441681.00 L 41646613.00 30441681.00 L 41661920.00 30435340.00 L 41668261.00 30420033.00 L 41661920.00 30404726.00 L 41646613.00 30398385.00 L 41513323.00 30398385.00 L 41498016.00 30404726.00 L 41491675.00 30420033.00 L 41498016.00 30435340.00 L 41624965.00 30562289.95 L 41624965.00 30577679.81 L 41604324.19 30598320.00 L 41555612.81 30598320.00 L 41528630.00 30571338.00 L 41513323.00 30564999.00 L 41498015.00 30571339.00 L 41491676.00 30586646.00 L 41498016.00 30601954.00 L 41531339.00 30635276.00 L 41546646.00 30641616.00 L 41613291.00 30641616.00 L 41628599.00 30635275.00  z"/>
<path id="N" d="M 41201905.00 31395275.00 L 41235226.00 31361953.00 L 41241567.00 31346646.00 L 41241567.00 31313323.00 L 41235227.00 31298016.00 L 41138891.28 31201681.00 L 41219919.00 31201681.00 L 41235226.00 31195340.00 L 41241567.00 31180033.00 L 41235226.00 31164726.00 L 41219919.00 31158385.00 L 41086629.00 31158385.00 L 41071322.00 31164726.00 L 41064981.00 31180033.00 L 41071322.00 31195340.00 L 41198271.00 31322289.95 L 41198271.00 31337679.81 L 41177630.19 31358320.00 L 41128918.81 31358320.00 L 41101936.00 31331338.00 L 41086629.00 31324999.00 L 41071321.00 31331339.00 L 41064982.00 31346646.00 L 41071322.00 31361954.00 L 41104645.00 31395276.00 L 41119952.00 31401616.00 L 41186597.00 31401616.00 L 41201905.00 31395275.00  z"/>
<path id="N" d="M 40198599.00 30605275.00 L 40231920.00 30571953.00 L 40238261.00 30556646.00 L 40238261.00 30523323.00 L 40231921.00 30508016.00 L 40135585.28 30411681.00 L 40216613.00 30411681.00 L 40231920.00 30405340.00 L 40238261.00 30390033.00 L 40231920.00 30374726.00 L 40216613.00 30368385.00 L 40083323.00 30368385.00 L 40068016.00 30374726.00 L 40061675.00 30390033.00 L 40068016.00 30405340.00 L 40194965.00 30532289.95 L 40194965.00 30547679.81 L 40174324.19 30568320.00 L 40125612.81 30568320.00 L 40098630.00 30541338.00 L 40083323.00 30534999.00 L 40068015.00 30541339.00 L 40061676.00 30556646.00 L 40068016.00 30571954.00 L 40101339.00 30605276.00 L 40116646.00 30611616.00 L 40183291.00 30611616.00 L 40198599.00 30605275.00  z"/>
<path id="N" d="M 42368599.00 31385275.00 L 42401920.00 31351953.00 L 42408261.00 31336646.00 L 42408261.00 31303323.00 L 42401921.00 31288016.00 L 42305585.28 31191681.00 L 42386613.00 31191681.00 L 42401920.00 31185340.00 L 42408261.00 31170033.00 L 42401920.00 31154726.00 L 42386613.00 31148385.00 L 42253323.00 31148385.00 L 42238016.00 31154726.00 L 42231675.00 31170033.00 L 42238016.00 31185340.00 L 42364965.00 31312289.95 L 42364965.00 31327679.81 L 42344324.19 31348320.00 L 42295612.81 31348320.00 L 42268630.00 31321338.00 L 42253323.00 31314999.00 L 42238015.00 31321339.00 L 42231676.00 31336646.00 L 42238016.00 31351954.00 L 42271339.00 31385276.00 L 42286646.00 31391616.00 L 42353291.00 31391616.00 L 42368599.00 31385275.00  z"/>
<path id="N" d="M 45798599.00 36155275.00 L 45804939.00 36139968.00 L 45804939.00 36061649.00 L 45816613.00 36061649.00 L 45831920.00 36055308.00 L 45838261.00 36040001.00 L 45831920.00 36024694.00 L 45816613.00 36018353.00 L 45804939.00 36018353.00 L 45804939.00 35940033.00 L 45798598.00 35924726.00 L 45783291.00 35918385.00 L 45767984.00 35924726.00 L 45761643.00 35940033.00 L 45761643.00 36018353.00 L 45683323.00 36018353.00 L 45668016.00 36024694.00 L 45661675.00 36040001.00 L 45668016.00 36055309.00 L 45767984.00 36155276.00 L 45783291.00 36161616.00 L 45798599.00 36155275.00  zM 45761643.00 36087705.37 L 45735586.37 36061649.00 L 45761643.00 36061649.00 L 45761643.00 36087705.37  z"/>
<path id="N" d="M 41861904.00 33825275.00 L 41895226.00 33791954.00 L 41901567.00 33776646.00 L 41901567.00 33643356.00 L 41895227.00 33628049.00 L 41861905.00 33594726.00 L 41846597.00 33588385.00 L 41779952.00 33588385.00 L 41764645.00 33594726.00 L 41731321.00 33628049.00 L 41724981.00 33643356.00 L 41724981.00 33776646.00 L 41731322.00 33791954.00 L 41764645.00 33825276.00 L 41779952.00 33831616.00 L 41846597.00 33831616.00 L 41861904.00 33825275.00  zM 41837630.81 33788320.00 L 41788918.81 33788320.00 L 41768277.00 33767678.81 L 41768277.00 33652322.81 L 41788918.19 33631681.00 L 41837629.81 33631681.00 L 41858271.00 33652322.81 L 41858271.00 33767679.19 L 41837630.81 33788320.00  z"/>
<path id="N" d="M 47788599.00 32925275.00 L 47794939.00 32909968.00 L 47794939.00 32831649.00 L 47806613.00 32831649.00 L 47821920.00 32825308.00 L 47828261.00 32810001.00 L 47821920.00 32794694.00 L 47806613.00 32788353.00 L 47794939.00 32788353.00 L 47794939.00 32710033.00 L 47788598.00 32694726.00 L 47773291.00 32688385.00 L 47757984.00 32694726.00 L 47751643.00 32710033.00 L 47751643.00 32788353.00 L 47673323.00 32788353.00 L 47658016.00 32794694.00 L 47651675.00 32810001.00 L 47658016.00 32825309.00 L 47757984.00 32925276.00 L 47773291.00 32931616.00 L 47788599.00 32925275.00  zM 47751643.00 32857705.37 L 47725586.37 32831649.00 L 47751643.00 32831649.00 L 47751643.00 32857705.37  z"/>
<path id="N" d="M 38155275.00 35355275.00 L 38161616.00 35339968.00 L 38161195.00 35135788.00 L 38155275.00 35124726.00 L 38151976.00 35122021.00 L 38139968.00 35118385.00 L 38135723.00 35118806.00 L 38124661.00 35124726.00 L 38028326.00 35268470.00 L 38028326.00 35140033.00 L 38021985.00 35124726.00 L 38006678.00 35118385.00 L 37991371.00 35124726.00 L 37985030.00 35140033.00 L 37985451.00 35344213.00 L 37991371.00 35355275.00 L 37994670.00 35357980.00 L 38006678.00 35361616.00 L 38010923.00 35361195.00 L 38021985.00 35355275.00 L 38118320.00 35211531.00 L 38118320.00 35339968.00 L 38124661.00 35355275.00 L 38139968.00 35361616.00 L 38155275.00 35355275.00  z"/>
<path id="N" d="M 42691985.00 35095275.00 L 42725307.00 35061954.00 L 42731648.00 35046646.00 L 42731648.00 34980001.00 L 42725308.00 34964694.00 L 42691986.00 34931371.00 L 42676678.00 34925030.00 L 42598358.00 34925030.00 L 42598358.00 34880033.00 L 42592017.00 34864726.00 L 42576710.00 34858385.00 L 42561403.00 34864726.00 L 42555062.00 34880033.00 L 42555062.00 35079968.00 L 42561403.00 35095275.00 L 42576710.00 35101616.00 L 42676678.00 35101616.00 L 42691985.00 35095275.00  zM 42667711.81 35058320.00 L 42598358.00 35058320.00 L 42598358.00 34968326.00 L 42667710.81 34968326.00 L 42688352.00 34988967.81 L 42688352.00 35037679.19 L 42667711.81 35058320.00  z"/>
<path id="N" d="M 40921985.00 33575275.00 L 40928326.00 33559968.00 L 40928326.00 33393356.00 L 40921986.00 33378049.00 L 40888664.00 33344726.00 L 40873356.00 33338385.00 L 40806711.00 33338385.00 L 40791404.00 33344725.00 L 40758081.00 33378049.00 L 40751740.00 33393356.00 L 40751740.00 33559968.00 L 40758081.00 33575275.00 L 40773388.00 33581616.00 L 40788695.00 33575275.00 L 40795036.00 33559968.00 L 40795036.00 33402322.19 L 40815677.81 33381681.00 L 40864388.81 33381681.00 L 40885030.00 33402322.81 L 40885030.00 33559968.00 L 40891371.00 33575275.00 L 40906678.00 33581616.00 L 40921985.00 33575275.00  z"/>
<path id="N" d="M 44755307.00 33505275.00 L 44761648.00 33489968.00 L 44761648.00 33323356.00 L 44755308.00 33308049.00 L 44721986.00 33274726.00 L 44706678.00 33268385.00 L 44640033.00 33268385.00 L 44624726.00 33274725.00 L 44591403.00 33308049.00 L 44585062.00 33323356.00 L 44585062.00 33489968.00 L 44591403.00 33505275.00 L 44606710.00 33511616.00 L 44622017.00 33505275.00 L 44628358.00 33489968.00 L 44628358.00 33332322.19 L 44648999.81 33311681.00 L 44697710.81 33311681.00 L 44718352.00 33332322.81 L 44718352.00 33489968.00 L 44724693.00 33505275.00 L 44740000.00 33511616.00 L 44755307.00 33505275.00  z"/>
<path id="N" d="M 44855276.00 33505275.00 L 44861616.00 33489968.00 L 44861616.00 33311681.00 L 44873290.00 33311681.00 L 44888597.00 33305340.00 L 44894938.00 33290033.00 L 44888597.00 33274726.00 L 44873290.00 33268385.00 L 44806645.00 33268385.00 L 44791338.00 33274726.00 L 44784997.00 33290033.00 L 44791338.00 33305340.00 L 44806645.00 33311681.00 L 44818320.00 33311681.00 L 44818320.00 33439833.90 L 44806645.00 33434999.00 L 44791337.00 33441339.00 L 44784998.00 33456646.00 L 44791338.00 33471954.00 L 44824661.00 33505276.00 L 44839968.00 33511616.00 L 44855276.00 33505275.00  z"/>
<path id="N" d="M 40968647.00 31395275.00 L 40974987.00 31379968.00 L 40974987.00 31201681.00 L 40986661.00 31201681.00 L 41001968.00 31195340.00 L 41008309.00 31180033.00 L 41001968.00 31164726.00 L 40986661.00 31158385.00 L 40920016.00 31158385.00 L 40904709.00 31164726.00 L 40898368.00 31180033.00 L 40904709.00 31195340.00 L 40920016.00 31201681.00 L 40931691.00 31201681.00 L 40931691.00 31329833.90 L 40920016.00 31324999.00 L 40904708.00 31331339.00 L 40898369.00 31346646.00 L 40904709.00 31361954.00 L 40938032.00 31395276.00 L 40953339.00 31401616.00 L 40968647.00 31395275.00  z"/>
<path id="N" d="M 41628647.00 33825275.00 L 41634987.00 33809968.00 L 41634987.00 33631681.00 L 41646661.00 33631681.00 L 41661968.00 33625340.00 L 41668309.00 33610033.00 L 41661968.00 33594726.00 L 41646661.00 33588385.00 L 41580016.00 33588385.00 L 41564709.00 33594726.00 L 41558368.00 33610033.00 L 41564709.00 33625340.00 L 41580016.00 33631681.00 L 41591691.00 33631681.00 L 41591691.00 33759833.90 L 41580016.00 33754999.00 L 41564708.00 33761339.00 L 41558369.00 33776646.00 L 41564709.00 33791954.00 L 41598032.00 33825276.00 L 41613339.00 33831616.00 L 41628647.00 33825275.00  z"/>
<path id="N" d="M 40821970.00 34795275.00 L 40828310.00 34779968.00 L 40828310.00 34601681.00 L 40839984.00 34601681.00 L 40855291.00 34595340.00 L 40861632.00 34580033.00 L 40855291.00 34564726.00 L 40839984.00 34558385.00 L 40773339.00 34558385.00 L 40758032.00 34564726.00 L 40751691.00 34580033.00 L 40758032.00 34595340.00 L 40773339.00 34601681.00 L 40785014.00 34601681.00 L 40785014.00 34729833.90 L 40773339.00 34724999.00 L 40758031.00 34731339.00 L 40751692.00 34746646.00 L 40758032.00 34761954.00 L 40791355.00 34795276.00 L 40806662.00 34801616.00 L 40821970.00 34795275.00  z"/>
<path id="N" d="M 40988583.00 34795275.00 L 40994923.00 34779968.00 L 40994923.00 34601681.00 L 41006597.00 34601681.00 L 41021904.00 34595340.00 L 41028245.00 34580033.00 L 41021904.00 34564726.00 L 41006597.00 34558385.00 L 40939952.00 34558385.00 L 40924645.00 34564726.00 L 40918304.00 34580033.00 L 40924645.00 34595340.00 L 40939952.00 34601681.00 L 40951627.00 34601681.00 L 40951627.00 34729833.90 L 40939952.00 34724999.00 L 40924644.00 34731339.00 L 40918305.00 34746646.00 L 40924645.00 34761954.00 L 40957968.00 34795276.00 L 40973275.00 34801616.00 L 40988583.00 34795275.00  z"/>
<path id="N" d="M 42825276.00 35095275.00 L 42831616.00 35079968.00 L 42831616.00 34901681.00 L 42843290.00 34901681.00 L 42858597.00 34895340.00 L 42864938.00 34880033.00 L 42858597.00 34864726.00 L 42843290.00 34858385.00 L 42776645.00 34858385.00 L 42761338.00 34864726.00 L 42754997.00 34880033.00 L 42761338.00 34895340.00 L 42776645.00 34901681.00 L 42788320.00 34901681.00 L 42788320.00 35029833.90 L 42776645.00 35024999.00 L 42761337.00 35031339.00 L 42754998.00 35046646.00 L 42761338.00 35061954.00 L 42794661.00 35095276.00 L 42809968.00 35101616.00 L 42825276.00 35095275.00  z"/>
<path id="N" d="M 38255244.00 35355275.00 L 38261584.00 35339968.00 L 38261584.00 35161681.00 L 38273258.00 35161681.00 L 38288565.00 35155340.00 L 38294906.00 35140033.00 L 38288565.00 35124726.00 L 38273258.00 35118385.00 L 38206613.00 35118385.00 L 38191306.00 35124726.00 L 38184965.00 35140033.00 L 38191306.00 35155340.00 L 38206613.00 35161681.00 L 38218288.00 35161681.00 L 38218288.00 35289833.90 L 38206613.00 35284999.00 L 38191305.00 35291339.00 L 38184966.00 35306646.00 L 38191306.00 35321954.00 L 38224629.00 35355276.00 L 38239936.00 35361616.00 L 38255244.00 35355275.00  z"/>
<path id="N" d="M 41595276.00 36185275.00 L 41601616.00 36169968.00 L 41601616.00 35991681.00 L 41613290.00 35991681.00 L 41628597.00 35985340.00 L 41634938.00 35970033.00 L 41628597.00 35954726.00 L 41613290.00 35948385.00 L 41546645.00 35948385.00 L 41531338.00 35954726.00 L 41524997.00 35970033.00 L 41531338.00 35985340.00 L 41546645.00 35991681.00 L 41558320.00 35991681.00 L 41558320.00 36119833.90 L 41546645.00 36114999.00 L 41531337.00 36121339.00 L 41524998.00 36136646.00 L 41531338.00 36151954.00 L 41564661.00 36185276.00 L 41579968.00 36191616.00 L 41595276.00 36185275.00  z"/>
<path id="N" d="M 46975276.00 36145275.00 L 46981616.00 36129968.00 L 46981616.00 35951681.00 L 46993290.00 35951681.00 L 47008597.00 35945340.00 L 47014938.00 35930033.00 L 47008597.00 35914726.00 L 46993290.00 35908385.00 L 46926645.00 35908385.00 L 46911338.00 35914726.00 L 46904997.00 35930033.00 L 46911338.00 35945340.00 L 46926645.00 35951681.00 L 46938320.00 35951681.00 L 46938320.00 36079833.90 L 46926645.00 36074999.00 L 46911337.00 36081339.00 L 46904998.00 36096646.00 L 46911338.00 36111954.00 L 46944661.00 36145276.00 L 46959968.00 36151616.00 L 46975276.00 36145275.00  z"/>
<path id="N" d="M 39765276.00 36115275.00 L 39771616.00 36099968.00 L 39771616.00 35921681.00 L 39783290.00 35921681.00 L 39798597.00 35915340.00 L 39804938.00 35900033.00 L 39798597.00 35884726.00 L 39783290.00 35878385.00 L 39716645.00 35878385.00 L 39701338.00 35884726.00 L 39694997.00 35900033.00 L 39701338.00 35915340.00 L 39716645.00 35921681.00 L 39728320.00 35921681.00 L 39728320.00 36049833.90 L 39716645.00 36044999.00 L 39701337.00 36051339.00 L 39694998.00 36066646.00 L 39701338.00 36081954.00 L 39734661.00 36115276.00 L 39749968.00 36121616.00 L 39765276.00 36115275.00  z"/>
<path id="N" d="M 41428664.00 30635275.00 L 41461985.00 30601953.00 L 41468326.00 30586646.00 L 41468326.00 30453356.00 L 41461986.00 30438049.00 L 41428664.00 30404726.00 L 41413356.00 30398385.00 L 41313388.00 30398385.00 L 41298081.00 30404726.00 L 41291740.00 30420033.00 L 41291740.00 30619968.00 L 41298081.00 30635275.00 L 41313388.00 30641616.00 L 41413356.00 30641616.00 L 41428664.00 30635275.00  zM 41404389.19 30598320.00 L 41335036.00 30598320.00 L 41335036.00 30441681.00 L 41404388.81 30441681.00 L 41425030.00 30462322.81 L 41425030.00 30577679.81 L 41404389.19 30598320.00  z"/>
<path id="N" d="M 39631986.00 36115275.00 L 39665307.00 36081953.00 L 39671648.00 36066646.00 L 39671648.00 35933356.00 L 39665308.00 35918049.00 L 39631986.00 35884726.00 L 39616678.00 35878385.00 L 39516710.00 35878385.00 L 39501403.00 35884726.00 L 39495062.00 35900033.00 L 39495062.00 36099968.00 L 39501403.00 36115275.00 L 39516710.00 36121616.00 L 39616678.00 36121616.00 L 39631986.00 36115275.00  zM 39607711.19 36078320.00 L 39538358.00 36078320.00 L 39538358.00 35921681.00 L 39607710.81 35921681.00 L 39628352.00 35942322.81 L 39628352.00 36057679.81 L 39607711.19 36078320.00  z"/>
<path id="N" d="M 41911920.00 32425275.00 L 41918261.00 32409968.00 L 41918261.00 32376646.00 L 41911920.00 32361339.00 L 41784971.00 32234389.05 L 41784971.00 32210033.00 L 41778630.00 32194726.00 L 41763323.00 32188385.00 L 41748016.00 32194726.00 L 41741675.00 32210033.00 L 41741675.00 32243356.00 L 41748015.00 32258663.00 L 41874965.00 32385612.05 L 41874965.00 32388320.00 L 41763323.00 32388320.00 L 41748016.00 32394661.00 L 41741675.00 32409968.00 L 41748016.00 32425275.00 L 41763323.00 32431616.00 L 41896613.00 32431616.00 L 41911920.00 32425275.00  z"/>
<path id="N" d="M 46354120.00 34000000.00 L 46354120.00 31800000.00 L 46338269.00 31761731.00 L 46300000.00 31745880.00 L 44100000.00 31745880.00 L 44061731.00 31761731.00 L 44045880.00 31800000.00 L 44045880.00 34000000.00 L 44061731.00 34038269.00 L 44100000.00 34054120.00 L 46300000.00 34054120.00 L 46338269.00 34038269.00 L 46354120.00 34000000.00  zM 46245880.00 33945880.00 L 44154120.00 33945880.00 L 44154120.00 31854120.00 L 46245880.00 31854120.00 L 46245880.00 33945880.00  z"/>
<path id="N" d="M 44499997.94 32199997.94 m -200709.51 0 a 200709.51 200709.51 0 1 1 401419.02 0a 200709.51 200709.51 0 1 1 -401419.02 0"/>
<path id="N" d="M 43749998.42 31149998.42 m -202313.97 0 a 202313.97 202313.97 0 1 1 404627.93 0a 202313.97 202313.97 0 1 1 -404627.93 0"/>
<path id="N" d="M 42458659.47 30049998.47 m -100354.75 0 a 100354.75 100354.75 0 1 1 200709.51 0a 100354.75 100354.75 0 1 1 -200709.51 0"/>
<path id="N" d="M 39675864.47 35599998.47 m -100354.75 0 a 100354.75 100354.75 0 1 1 200709.51 0a 100354.75 100354.75 0 1 1 -200709.51 0"/>
<path id="N" d="M 40679685.00 32575749.00 L 40689046.00 32553150.00 L 40689046.00 32427629.00 L 40814567.00 32427629.00 L 40837166.00 32418268.00 L 40846527.00 32395669.00 L 40837166.00 32373070.00 L 40814567.00 32363709.00 L 40657086.00 32363709.00 L 40634487.00 32373070.00 L 40625126.00 32395669.00 L 40625126.00 32553150.00 L 40634487.00 32575749.00 L 40657086.00 32585110.00 L 40679685.00 32575749.00  z"/>
<path id="N" d="M 41309607.00 33126930.00 L 41318968.00 33104331.00 L 41318968.00 32946850.00 L 41309607.00 32924251.00 L 41287008.00 32914890.00 L 41264409.00 32924251.00 L 41255048.00 32946850.00 L 41255048.00 33072371.00 L 41129527.00 33072371.00 L 41106928.00 33081732.00 L 41097567.00 33104331.00 L 41106928.00 33126930.00 L 41129527.00 33136291.00 L 41287008.00 33136291.00 L 41309607.00 33126930.00  z"/>
<path id="N" d="M 40837166.00 33126930.00 L 40846527.00 33104331.00 L 40837166.00 33081732.00 L 40814567.00 33072371.00 L 40689046.00 33072371.00 L 40689046.00 32946850.00 L 40679685.00 32924251.00 L 40657086.00 32914890.00 L 40634487.00 32924251.00 L 40625126.00 32946850.00 L 40625126.00 33104331.00 L 40634487.00 33126930.00 L 40657086.00 33136291.00 L 40814567.00 33136291.00 L 40837166.00 33126930.00  z"/>
<path id="N" d="M 41309607.00 32575749.00 L 41318968.00 32553150.00 L 41318968.00 32395669.00 L 41309607.00 32373070.00 L 41287008.00 32363709.00 L 41129527.00 32363709.00 L 41106928.00 32373070.00 L 41097567.00 32395669.00 L 41106928.00 32418268.00 L 41264409.00 32575749.00 L 41287008.00 32585110.00 L 41309607.00 32575749.00  z"/>
<path id="N" d="M 40720133.00 35945094.00 L 40732614.00 35914961.00 L 40720133.00 35884828.00 L 40690000.00 35872347.00 L 40020000.00 35872347.00 L 39989867.00 35884828.00 L 39977386.00 35914961.00 L 39989867.00 35945094.00 L 40020000.00 35957575.00 L 40690000.00 35957575.00 L 40720133.00 35945094.00  z"/>
<path id="N" d="M 48730133.00 32175015.00 L 48742614.00 32144882.00 L 48730133.00 32114749.00 L 48700000.00 32102268.00 L 48030708.00 32102268.00 L 48000575.00 32114749.00 L 47988094.00 32144882.00 L 48000575.00 32175015.00 L 48030708.00 32187496.00 L 48700000.00 32187496.00 L 48730133.00 32175015.00  z"/>
<path id="N" d="M 40720133.00 35315172.00 L 40732614.00 35285039.00 L 40720133.00 35254906.00 L 40690000.00 35242425.00 L 40020000.00 35242425.00 L 39989867.00 35254906.00 L 39977386.00 35285039.00 L 39989867.00 35315172.00 L 40020000.00 35327653.00 L 40690000.00 35327653.00 L 40720133.00 35315172.00  z"/>
<path id="N" d="M 41799818.00 29902968.00 L 41812299.00 29872835.00 L 41799818.00 29842702.00 L 41769685.00 29830221.00 L 41730315.00 29830221.00 L 41700182.00 29842702.00 L 41687701.00 29872835.00 L 41700182.00 29902968.00 L 41730315.00 29915449.00 L 41769685.00 29915449.00 L 41799818.00 29902968.00  z"/>
<path id="N" d="M 41799818.00 30257298.00 L 41812299.00 30227165.00 L 41799818.00 30197032.00 L 41769685.00 30184551.00 L 41730315.00 30184551.00 L 41700182.00 30197032.00 L 41687701.00 30227165.00 L 41700182.00 30257298.00 L 41730315.00 30269779.00 L 41769685.00 30269779.00 L 41799818.00 30257298.00  z"/>
<path id="N" d="M 48714779.00 31275015.00 L 48727260.00 31244882.00 L 48714779.00 31214749.00 L 48684646.00 31202268.00 L 48015354.00 31202268.00 L 47985221.00 31214749.00 L 47972740.00 31244882.00 L 47985221.00 31275015.00 L 48015354.00 31287496.00 L 48684646.00 31287496.00 L 48714779.00 31275015.00  z"/>
<path id="N" d="M 48738794.00 32780920.00 L 48751275.00 32750787.00 L 48738794.00 32720654.00 L 48708661.00 32708173.00 L 48039370.00 32708173.00 L 48009237.00 32720654.00 L 47996756.00 32750787.00 L 48009237.00 32780920.00 L 48039370.00 32793401.00 L 48708661.00 32793401.00 L 48738794.00 32780920.00  z"/>
<path id="N" d="M 48723440.00 31880920.00 L 48735921.00 31850787.00 L 48723440.00 31820654.00 L 48693307.00 31808173.00 L 48024016.00 31808173.00 L 47993883.00 31820654.00 L 47981402.00 31850787.00 L 47993883.00 31880920.00 L 48024016.00 31893401.00 L 48693307.00 31893401.00 L 48723440.00 31880920.00  z"/>
<path id="N" d="M 41265172.00 34507298.00 L 41277653.00 34477165.00 L 41277653.00 34122835.00 L 41265172.00 34092702.00 L 41235039.00 34080221.00 L 41204906.00 34092702.00 L 41192425.00 34122835.00 L 41192425.00 34477165.00 L 41204906.00 34507298.00 L 41235039.00 34519779.00 L 41265172.00 34507298.00  z"/>
<path id="N" d="M 41230133.00 31957298.00 L 41242614.00 31927165.00 L 41242614.00 31572835.00 L 41230133.00 31542702.00 L 41200000.00 31530221.00 L 41169867.00 31542702.00 L 41157386.00 31572835.00 L 41157386.00 31927165.00 L 41169867.00 31957298.00 L 41200000.00 31969779.00 L 41230133.00 31957298.00  z"/>
<path id="N" d="M 48730133.00 33685251.00 L 48742614.00 33655118.00 L 48730133.00 33624985.00 L 48700000.00 33612504.00 L 48030708.00 33612504.00 L 48000575.00 33624985.00 L 47988094.00 33655118.00 L 48000575.00 33685251.00 L 48030708.00 33697732.00 L 48700000.00 33697732.00 L 48730133.00 33685251.00  z"/>
<path id="N" d="M 48714779.00 34635251.00 L 48727260.00 34605118.00 L 48714779.00 34574985.00 L 48684646.00 34562504.00 L 48015354.00 34562504.00 L 47985221.00 34574985.00 L 47972740.00 34605118.00 L 47985221.00 34635251.00 L 48015354.00 34647732.00 L 48684646.00 34647732.00 L 48714779.00 34635251.00  z"/>
<path id="N" d="M 48706117.00 34029346.00 L 48718598.00 33999213.00 L 48706117.00 33969080.00 L 48675984.00 33956599.00 L 48006693.00 33956599.00 L 47976560.00 33969080.00 L 47964079.00 33999213.00 L 47976560.00 34029346.00 L 48006693.00 34041827.00 L 48675984.00 34041827.00 L 48706117.00 34029346.00  z"/>
<path id="N" d="M 48721471.00 33079346.00 L 48733952.00 33049213.00 L 48721471.00 33019080.00 L 48691338.00 33006599.00 L 48022047.00 33006599.00 L 47991914.00 33019080.00 L 47979433.00 33049213.00 L 47991914.00 33079346.00 L 48022047.00 33091827.00 L 48691338.00 33091827.00 L 48721471.00 33079346.00  z"/>
</g>
</svg>
