**ABCDEFGHIJKLMNOPQRSTUVWXYZabcdefghijklmnopqrstuvwxyz**************************
**PARASOLID !"#$%&'()*+,-./:;<=>?@[\]^_`{|}~0123456789**************************
**PART1;
MC=AMD64;
MC_MODEL=Intel64 Family 6 Model 158 Stepping 9, GenuineIntel;
MC_ID=unknown;
OS=Windows_NT;
OS_RELEASE=unknown;
FRU=CAD Exchanger 3.6.1 (cadexchanger.com);
APPL=unknown;
SITE=unknown;
USER=unknown;
FORMAT=text;
GUISE=transmit;
KEY=NXP-SOT1086-2_L_CMP-015-00005-1;
FILE=NXP-SOT1086-2_L_CMP-015-00005-1.x_t;
DATE=Fri Oct 11 13:35:49 2019;
**PART2;
SCH=SCH_1200000_12006;
USFLD_SIZE=0;
**PART3;
**END_OF_HEADER*****************************************************************
T51 : TRANSMIT FILE created by modeller version 120000017 SCH_1200000_120060 74
 3 1 3 0 2 20 148 12 2 10 0 3 0 0 0 0 1000 1e-008 0 0 0 1 0 3 1 19 7 13 11 18 12
 10 70 3 0 2 0 0 4 1 20 0 4 4 1 T74 20 4 1 0 5 0 0 0 0 0 0 0 0 0 0 0 0 0 0 0 0 0
 0 0 81 1 5 5 15 6 0 0 0 0 17 14 6 3 5 1e-008 0 0 8 19 7 +0 0 0 0 19 50 7 4 0 6
 0 0 0 +-0.0008395836451408905 0.001783333186535561 0.000901 -0 0 -1 -0.99999999
99999848 -1.748455531469491e-007 0 15 8 6 0 9 6 0 17 9 0 8 9 9 10 14 12 0 0 -18
 10 7 0 14 0 0 11 ?2 29 11 8 0 10 0 0 -0.0008395836451408905 0.00178333318653556
1 0.000901 16 12 9 0 ?14 0 0 13 0 0 2 31 13 10 0 12 0 0 0 +-0.001033333645140888
 0.001783333152659235 0.000901 0 -0 1 0.9999999999999848 1.748455531469491e-007
 0 0.00019375 17 14 0 0 0 0 10 9 12 0 9 +80 1 15 0 16 8001 0 0 0 0 3 5 0 0 FFFFT
FTFFFFFFF2 79 15 16 SDL/TYSA_COLOUR83 3 17 1 1 1 19 18 1 0 2 0 0 19 V13 19 2 0 2
 0 6 0 0 18 6 12 20 87 0 21 0 0 0 0 1000 1e-008 0 0 0 1 0 1 1 55 25 31 29 52 30
 28 70 21 0 20 0 0 4 1 20 0 22 22 1 T74 20 22 1 0 23 0 0 0 0 0 0 0 0 0 0 0 0 0 0
 0 0 0 0 0 81 1 23 7 15 24 0 0 58 0 51 14 24 5 23 1e-008 56 0 26 55 25 -0 0 56 0
 53 50 25 6 0 24 57 0 0 +-0.001549999597855204 -0.002300000271010572 0 0.9999999
999999848 1.748455531469491e-007 0 0 0 1 15 26 8 0 27 24 0 17 27 0 26 35 47 28 3
2 30 0 88 +18 28 9 0 40 0 33 29 ?20 29 29 10 0 28 34 0 -0.001550000402144749 0.0
02299999728989358 0.001 16 30 11 0 ?27 0 38 31 0 0 20 30 31 12 0 30 39 0 0 +-0.0
01549999597855204 -0.002300000271010572 0.001 -1.748455531469491e-007 0.99999999
99999848 0 17 32 0 81 72 88 33 27 30 0 69 -18 33 13 0 47 28 36 34 ?20 29 34 14 0
 33 37 29 -0.001549999597855204 -0.002300000271010572 0.001 17 35 0 26 41 27 36
 40 38 0 104 -18 36 15 0 46 33 42 37 ?20 29 37 16 0 36 43 34 -0.0015500004021447
49 0.002299999728989358 0 16 38 17 0 ?40 30 44 39 0 0 20 30 39 18 0 38 45 31 0 +
-0.001550000402144749 0.002299999728989358 0 0 0 1 17 40 0 103 91 104 28 35 38 0
 27 +17 41 0 26 47 35 42 46 44 0 76 -18 42 19 0 50 36 62 43 ?20 29 43 20 0 42 63
 37 -0.001549999597855204 -0.002300000271010572 0 16 44 21 0 ?46 38 48 45 0 0 20
 30 45 22 0 44 49 39 0 +-0.001549999597855204 -0.002300000271010572 0 -1.7484555
31469491e-007 0.9999999999999848 0 17 46 0 118 107 76 36 41 44 0 35 +17 47 0 26
 27 41 33 50 48 0 32 +16 48 23 0 ?47 44 64 49 0 0 20 30 49 24 0 48 65 45 0 +-0.0
01549999597855204 -0.002300000271010572 0 0 0 1 17 50 0 60 73 69 42 47 48 0 41 -
83 3 51 0.2000000029802322 0.2000000029802322 0.2000000029802322 19 52 1 0 20 54
 0 53 V13 53 2 0 20 0 0 0 0 52 24 19 54 3 0 20 0 52 55 S13 55 4 0 20 0 24 0 0 54
 0 14 56 25 58 1e-008 77 24 60 55 57 -0 0 77 24 53 50 57 26 0 56 78 25 0 +-0.001
549999597855204 -0.002300000271010572 0 -1.748455531469491e-007 0.99999999999998
48 0 0 0 1 81 1 58 27 15 56 0 0 79 23 59 83 3 59 0.2000000029802322 0.2000000029
802322 0.2000000029802322 15 60 28 0 61 56 0 17 61 0 60 69 73 62 66 64 0 0 +18 6
2 29 0 87 42 67 63 ?20 29 63 30 0 62 68 43 0.001550000402144749 -0.0022999997289
89358 0.001 16 64 31 0 ?61 48 70 65 0 0 20 30 65 32 0 64 71 49 0 +0.001550000402
144749 -0.002299999728989358 0 0 0 1 17 66 0 127 122 87 67 61 64 0 0 -18 67 33 0
 73 62 83 68 ?20 29 68 34 0 67 84 63 0.001550000402144749 -0.002299999728989358
 0 17 69 0 60 50 61 33 72 70 0 0 -16 70 35 0 ?72 64 74 71 0 0 20 30 71 36 0 70 7
5 65 0 +-0.001549999597855204 -0.002300000271010572 0.001 0.9999999999999848 1.7
48455531469491e-007 0 17 72 0 81 82 32 62 69 70 0 61 +17 73 0 60 61 50 67 76 74
 0 119 +16 74 37 0 ?73 70 85 75 0 0 20 30 75 38 0 74 86 71 0 +-0.001549999597855
204 -0.002300000271010572 0 0.9999999999999848 1.748455531469491e-007 0 17 76 0
 118 46 119 42 73 74 0 0 -14 77 39 79 1e-008 99 56 81 55 78 +0 0 99 56 53 50 78
 40 0 77 100 57 0 +-0.001549999597855204 -0.002300000271010572 0.001 0 0 1 0.999
9999999999848 1.748455531469491e-007 0 81 1 79 41 15 77 0 0 101 58 80 83 3 80 0.
2000000029802322 0.2000000029802322 0.2000000029802322 15 81 42 0 32 77 92 17 82
 0 81 88 72 83 87 85 0 113 +18 83 43 0 82 67 94 84 ?20 29 84 44 0 83 95 68 0.001
549999597855204 0.002300000271010572 0.001 16 85 45 0 ?82 74 89 86 0 0 20 30 86
 46 0 85 90 75 0 +0.001550000402144749 -0.002299999728989358 0.001 -1.7484555314
69491e-007 0.9999999999999848 0 17 87 0 127 66 113 62 82 85 0 72 -17 88 0 81 32
 82 28 91 89 0 0 -16 89 47 0 ?91 85 96 90 0 0 20 30 90 48 0 89 97 86 0 +-0.00155
0000402144749 0.002299999728989358 0.001 0.9999999999999848 1.748455531469491e-0
07 0 17 91 0 103 110 40 83 88 89 0 0 +15 92 49 0 93 77 0 17 93 0 92 93 93 94 98
 96 0 139 -18 94 50 0 98 83 108 95 ?20 29 95 51 0 94 109 84 -0.00083958364514089
05 0.001783333186535561 0.001 16 96 52 0 ?98 89 105 97 0 0 20 31 97 53 0 96 106
 90 0 +-0.001033333645140888 0.001783333152659235 0.001 0 -0 1 0.999999999999984
8 1.748455531469491e-007 0 0.00019375 17 98 0 132 142 139 94 93 96 0 93 +14 99 5
4 101 1e-008 114 77 103 55 100 +0 0 114 77 53 50 100 55 0 99 115 78 0 +-0.001550
000402144749 0.002299999728989358 0 -1.748455531469491e-007 0.9999999999999848 0
 0 0 1 81 1 101 56 15 99 0 0 116 79 102 83 3 102 0.2000000029802322 0.2000000029
802322 0.2000000029802322 15 103 57 0 104 99 0 17 104 0 103 40 110 36 107 105 0
 0 -16 105 58 0 ?107 96 111 106 0 0 20 30 106 59 0 105 112 97 0 +-0.001550000402
144749 0.002299999728989358 0 0.9999999999999848 1.748455531469491e-007 0 17 107
 0 118 119 46 108 104 105 0 0 +18 108 60 0 110 94 134 109 ?20 29 109 61 0 108 13
5 95 0.001549999597855204 0.002300000271010572 0 17 110 0 103 104 91 108 113 111
 0 122 -16 111 62 0 ?113 105 120 112 0 0 20 30 112 63 0 111 121 106 0 +0.0015499
99597855204 0.002300000271010572 0 0 0 1 17 113 0 127 87 122 83 110 111 0 91 +14
 114 64 116 1e-008 123 99 118 55 115 -0 0 123 99 53 50 115 65 0 114 124 100 0 +-
0.001549999597855204 -0.002300000271010572 0 0 0 1 0.9999999999999848 1.74845553
1469491e-007 0 81 1 116 66 15 114 0 0 125 101 117 83 3 117 0.2000000029802322 0.
2000000029802322 0.2000000029802322 15 118 67 0 107 114 0 17 119 0 118 76 107 67
 122 120 0 66 -16 120 68 0 ?122 111 136 121 0 0 20 30 121 69 0 120 137 112 0 +0.
001550000402144749 -0.002299999728989358 0 -1.748455531469491e-007 0.99999999999
99848 0 17 122 0 127 113 66 108 119 120 0 107 +14 123 70 125 1e-008 128 114 127
 55 124 +0 0 128 114 53 50 124 71 0 123 129 115 0 +0.001550000402144749 -0.00229
9999728989358 0 0.9999999999999848 1.748455531469491e-007 0 0 0 1 81 1 125 72 15
 123 0 0 130 116 126 83 3 126 0.2000000029802322 0.2000000029802322 0.2000000029
802322 15 127 73 0 66 123 0 14 128 74 130 1e-008 143 123 132 55 129 -0 0 143 123
 53 51 129 75 0 128 144 124 0 +-0.001033333645140888 0.001783333152659235 0.0009
000000000000001 0 0 1 0.00019375 0.9999999999999848 1.748455531469491e-007 0 81
 1 130 76 15 128 0 0 145 125 131 83 3 131 0.2000000029802322 0.2000000029802322
 0.2000000029802322 15 132 77 0 133 128 0 17 133 0 132 139 142 134 138 136 0 0 -
18 134 78 0 142 108 0 135 ?20 29 135 79 0 134 0 109 -0.0008395836451408905 0.001
783333186535561 0.0009 16 136 80 0 ?138 120 140 137 0 0 20 31 137 81 0 136 141 1
21 0 +-0.001033333645140888 0.001783333152659235 0.0009000000000000001 0 -0 1 0.
9999999999999848 1.748455531469491e-007 0 0.00019375 17 138 0 147 138 138 134 13
3 136 0 133 +17 139 0 132 98 133 94 142 140 0 0 +16 140 82 0 ?139 136 0 141 0 0
 20 30 141 83 0 140 0 137 0 +-0.0008395836451408905 0.001783333186535561 0.0009
 0 0 1 17 142 0 132 133 98 134 139 140 0 138 -14 143 84 145 1e-008 0 128 147 55
 144 +0 0 0 128 53 50 144 85 0 143 0 129 0 +-0.001033333645140888 0.001783333152
659235 0.0009000000000000001 0 0 1 0.9999999999999848 1.748455531469491e-007 0 8
1 1 145 86 15 143 0 0 0 130 146 83 3 146 0.2000000029802322 0.2000000029802322 0
.2000000029802322 15 147 87 0 138 143 0 12 148 82 0 149 0 0 0 0 1000 1e-008 0 0
 0 1 0 1 1 183 153 159 157 180 158 156 70 149 0 148 0 0 4 1 20 0 150 150 1 T74 2
0 150 1 0 151 0 0 0 0 0 0 0 0 0 0 0 0 0 0 0 0 0 0 0 81 1 151 7 15 152 0 0 186 0
 179 14 152 5 151 1e-008 184 0 154 183 153 -0 0 184 0 181 50 153 6 0 152 185 0 0
 +-0.0007999996328243262 -0.002100000139876411 -1e-006 -1.748455531469491e-007 0
.9999999999999848 0 0.9999999999999848 1.748455531469491e-007 0 15 154 8 0 155 1
52 0 17 155 0 154 163 175 156 160 158 0 194 +18 156 9 0 168 0 161 157 ?148 29 15
7 10 0 156 162 0 0.0008000003671756495 -0.002099999860123526 -1e-006 16 158 11 0
 ?155 0 166 159 0 0 148 30 159 12 0 158 167 0 0 +-0.0007999996328243262 -0.00210
0000139876411 -1e-006 0.9999999999999848 1.748455531469491e-007 0 17 160 0 264 2
55 194 161 155 158 0 252 -18 161 13 0 175 156 164 162 ?148 29 162 14 0 161 165 1
57 -0.0007999996328243262 -0.002100000139876411 -1e-006 17 163 0 154 169 155 164
 168 166 0 201 +18 164 15 0 174 161 170 165 ?148 29 165 16 0 164 171 162 0.00080
00003671756495 -0.002099999860123526 0 16 166 17 0 ?163 158 172 167 0 0 148 30 1
67 18 0 166 173 159 0 +0.0008000003671756495 -0.002099999860123526 -1e-006 0 0 1
 17 168 0 188 189 201 156 163 166 0 155 -17 169 0 154 175 163 170 174 172 0 259
 -18 170 19 0 178 164 190 171 ?148 29 171 20 0 170 191 165 -0.000799999632824326
2 -0.002100000139876411 0 16 172 21 0 ?174 166 176 173 0 0 148 30 173 22 0 172 1
77 167 0 +-0.0007999996328243262 -0.002100000139876411 0 0.9999999999999848 1.74
8455531469491e-007 0 17 174 0 269 204 259 164 169 172 0 163 +17 175 0 154 155 16
9 161 178 176 0 160 -16 176 23 0 ?178 172 192 177 0 0 148 30 177 24 0 176 193 17
3 0 +-0.0007999996328243262 -0.002100000139876411 -1e-006 0 0 1 17 178 0 251 256
 252 170 175 176 0 169 +83 3 179 0.800000011920929 0.800000011920929 0.800000011
920929 19 180 1 0 148 182 0 181 V13 181 2 0 148 0 0 0 0 180 152 19 182 3 0 148 0
 180 183 S13 183 4 0 148 0 152 0 0 182 0 14 184 25 186 1e-008 205 152 188 183 18
5 -0 0 205 152 181 50 185 26 0 184 206 153 0 +0.0008000003671756495 -0.002099999
860123526 -1e-006 -0.9999999999999848 -1.748455531469491e-007 0 -1.7484555314694
91e-007 0.9999999999999848 0 81 1 186 27 15 184 0 0 207 151 187 83 3 187 0.80000
0011920929 0.800000011920929 0.800000011920929 15 188 28 0 189 184 0 17 189 0 18
8 195 168 190 194 192 0 0 +18 190 29 0 215 170 196 191 ?148 29 191 30 0 190 197
 171 0.0007999996328243262 0.002100000139876411 -1e-006 16 192 31 0 ?189 176 198
 193 0 0 148 30 193 32 0 192 199 177 0 +0.0008000003671756495 -0.002099999860123
526 -1e-006 -1.748455531469491e-007 0.9999999999999848 0 17 194 0 264 160 215 15
6 189 192 0 0 -17 195 0 188 201 189 196 200 198 0 0 +18 196 33 0 222 190 211 197
 ?148 29 197 34 0 196 212 191 0.0007999996328243262 0.002100000139876411 0 16 19
8 35 0 ?195 192 202 199 0 0 148 30 199 36 0 198 203 193 0 +0.0007999996328243262
 0.002100000139876411 -1e-006 0 0 1 17 200 0 209 210 222 190 195 198 0 189 -17 2
01 0 188 168 195 164 204 202 0 0 -16 202 37 0 ?204 198 213 203 0 0 148 30 203 38
 0 202 214 199 0 +0.0008000003671756495 -0.002099999860123526 0 -1.7484555314694
91e-007 0.9999999999999848 0 17 204 0 269 225 174 196 201 202 0 195 +14 205 39 2
07 1e-008 226 184 209 183 206 -0 0 226 184 181 50 206 40 0 205 227 185 0 +0.0007
999996328243262 0.002100000139876411 -1e-006 1.748455531469491e-007 -0.999999999
9999848 0 -0.9999999999999848 -1.748455531469491e-007 0 81 1 207 41 15 205 0 0 2
28 186 208 83 3 208 0.800000011920929 0.800000011920929 0.800000011920929 15 209
 42 0 210 205 0 17 210 0 209 216 200 211 215 213 0 221 +18 211 43 0 236 196 217
 212 ?148 29 212 44 0 211 218 197 -0.0004500003671756547 0.002099999921319469 -1
e-006 16 213 45 0 ?210 202 219 214 0 0 148 30 214 46 0 213 220 203 0 +0.00079999
96328243262 0.002100000139876411 -1e-006 -0.9999999999999848 -1.748455531469491e
-007 0 17 215 0 264 194 236 190 210 213 0 200 -17 216 0 209 222 210 217 221 219
 0 0 +18 217 47 0 225 211 232 218 ?148 29 218 48 0 217 233 212 -0.00045000036717
56547 0.002099999921319469 0 16 219 49 0 ?216 213 223 220 0 0 148 30 220 50 0 21
9 224 214 0 +-0.0004500003671756547 0.002099999921319469 -1e-006 0 0 1 17 221 0
 230 231 243 211 216 219 0 0 -17 222 0 209 200 216 196 225 223 0 204 -16 223 51
 0 ?225 219 234 224 0 0 148 30 224 52 0 223 235 220 0 +0.0007999996328243262 0.0
02100000139876411 0 -0.9999999999999848 -1.748455531469491e-007 0 17 225 0 269 2
46 204 217 222 223 0 243 +14 226 53 228 1e-008 247 205 230 183 227 -0 0 247 205
 181 50 227 54 0 226 248 206 0 +-0.0004500003671756547 0.002099999921319469 -1e-
006 0.7071069048210131 -0.7071066575520605 0 -0.7071066575520605 -0.707106904821
0131 0 81 1 228 55 15 226 0 0 249 207 229 83 3 229 0.800000011920929 0.800000011
920929 0.800000011920929 15 230 56 0 231 226 0 17 231 0 230 237 221 232 236 234
 0 255 +18 232 57 0 242 217 238 233 ?148 29 233 58 0 232 239 218 -0.000800000305
9797058 0.001749999860123531 -1e-006 16 234 59 0 ?231 223 240 235 0 0 148 30 235
 60 0 234 241 224 0 +-0.0004500003671756547 0.002099999921319469 -1e-006 -0.7071
066575520605 -0.7071069048210131 0 17 236 0 264 215 255 211 231 234 0 210 -17 23
7 0 230 243 231 238 242 240 0 256 +18 238 61 0 237 232 0 239 ?148 29 239 62 0 23
8 0 233 -0.0008000003059797058 0.001749999860123531 0 16 240 63 0 ?237 234 244 2
41 0 0 148 30 241 64 0 240 245 235 0 +-0.0008000003059797058 0.00174999986012353
1 -1e-006 0 0 1 17 242 0 251 252 256 232 237 240 0 231 -17 243 0 230 221 237 217
 246 244 0 216 -16 244 65 0 ?246 240 253 245 0 0 148 30 245 66 0 244 254 241 0 +
-0.0004500003671756547 0.002099999921319469 0 -0.7071066575520605 -0.70710690482
10131 0 17 246 0 269 259 225 238 243 244 0 0 +14 247 67 249 1e-008 260 226 251 1
83 248 -0 0 260 226 181 50 248 68 0 247 261 227 0 +-0.0008000003059797058 0.0017
49999860123531 -1e-006 0.9999999999999848 1.748455531469491e-007 0 1.74845553146
9491e-007 -0.9999999999999848 0 81 1 249 69 15 247 0 0 262 228 250 83 3 250 0.80
0000011920929 0.800000011920929 0.800000011920929 15 251 70 0 252 247 0 17 252 0
 251 178 242 161 255 253 0 0 +16 253 71 0 ?252 244 257 254 0 0 148 30 254 72 0 2
53 258 245 0 +-0.0008000003059797058 0.001749999860123531 -1e-006 1.748455531469
491e-007 -0.9999999999999848 0 17 255 0 264 236 160 232 252 253 0 0 -17 256 0 25
1 242 178 238 259 257 0 246 -16 257 73 0 ?259 253 0 258 0 0 148 30 258 74 0 257
 0 254 0 +-0.0008000003059797058 0.001749999860123531 0 1.748455531469491e-007 -
0.9999999999999848 0 17 259 0 269 174 246 170 256 257 0 0 +14 260 75 262 1e-008
 265 247 264 183 261 +0 0 265 247 181 50 261 76 0 260 266 248 0 +-0.000799999632
8243262 -0.002100000139876411 -1e-006 0 0 -1 -0.9999999999999848 -1.748455531469
491e-007 0 81 1 262 77 15 260 0 0 267 249 263 83 3 263 0.800000011920929 0.80000
0011920929 0.800000011920929 15 264 78 0 255 260 0 14 265 79 267 1e-008 0 260 26
9 183 266 -0 0 0 260 181 50 266 80 0 265 0 261 0 +-0.0007999996328243262 -0.0021
00000139876411 0 0 0 -1 -0.9999999999999848 -1.748455531469491e-007 0 81 1 267 8
1 15 265 0 0 0 262 268 83 3 268 0.800000011920929 0.800000011920929 0.8000000119
20929 15 269 82 0 174 265 0 1 0 
