**ABCDEFGHIJKLMNOPQRSTUVWXYZabcdefghijklmnopqrstuvwxyz**************************
**PARASOLID !"#$%&'()*+,-./:;<=>?@[\]^_`{|}~0123456789**************************
**PART1;
MC=AMD64;
MC_MODEL=Intel64 Family 6 Model 151 Stepping 2, GenuineIntel;
MC_ID=unknown;
OS=Windows_NT;
OS_RELEASE=unknown;
FRU=CAD Exchanger 3.13.0 (cadexchanger.com);
APPL=unknown;
SITE=unknown;
USER=unknown;
FORMAT=text;
GUISE=transmit;
KEY=RESC0603(1608)_L_CMP-009-00176-3;
FILE=RESC0603(1608)_L_CMP-009-00176-3.x_t;
DATE=Sat Apr 15 02:56:48 2023;
**PART2;
SCH=SCH_1200000_12103;
USFLD_SIZE=0;
**PART3;
**END_OF_HEADER*****************************************************************
T51 : TRANSMIT FILE created by modeller version 120000017 SCH_1200000_121030 74
 4 1 4 0 2 273 542 643 12 2 180 0 3 0 0 0 0 1000.0 1.0e-08 0 0 0 1 0 1 1 12 14 2
0 18 9 19 17 70 3 0 2 0 0 4 1 20 0 4 4 1 T74 20 4 1 0 5 0 0 0 0 0 0 0 0 0 0 0 0
 0 0 0 0 0 0 0 81 1 5 7 6 13 0 0 42 0 8 80 1 6 0 7 8001 0 0 0 0 3 5 0 0 0 FFFFTF
TFFFFFFF2 79 15 7 SDL/TYSA_COLOUR83 3 8 0.8980392217636108 0.9176470637321472 0.
929411768913269 19 9 1 0 2 11 0 10 V13 10 2 0 2 0 0 0 0 9 13 19 11 3 0 2 0 9 12
 S13 12 4 0 2 0 13 0 0 11 0 14 13 5 5 1.0e-08 40 0 15 12 14 -0 0 40 0 10 50 14 6
 0 13 41 0 0 +-7.4991872000000006e-04 4.0008128000000047e-04 4.9999999999999832e
-05 1.2423149893063066e-16 -1.9675761151805574e-16 -1.0 2.4492935982947066e-16 1
.0 -1.9675761151805574e-16 15 15 8 0 16 13 0 17 16 0 15 24 36 17 21 19 0 29 -18
 17 9 0 16 0 22 18 ?2 29 18 10 0 17 23 0 -4.999187199999997e-04 4.00081280000000
29e-04 5.0000000000000293e-05 16 19 11 0 ?21 0 27 20 0 0 2 30 20 12 0 19 28 0 0
 +-4.999187199999997e-04 4.0008128000000038e-04 4.9999999999999866e-05 -2.449293
5982947066e-16 -1.0 1.9675761151805574e-16 17 21 0 244 226 174 22 16 19 0 36 +18
 22 13 0 21 17 25 23 ?2 29 23 14 0 22 26 18 -4.9991871999999998e-04 -3.999187199
999998e-04 5.0000000000000027e-05 17 24 0 15 30 16 25 29 27 0 35 -18 25 15 0 24
 22 31 26 ?2 29 26 16 0 25 32 23 -7.4991871999999998e-04 4.0008128000000038e-04
 5.000000000000016e-05 16 27 17 0 ?29 19 33 28 0 0 2 30 28 18 0 27 34 20 0 +-7.4
991871999999998e-04 4.0008128000000038e-04 5.000000000000016e-05 1.0 -2.44929359
82947066e-16 1.242314989306307e-16 17 29 0 160 171 85 17 24 27 0 174 +17 30 0 15
 36 24 31 35 33 0 39 -18 31 19 0 30 25 46 32 ?2 29 32 20 0 31 47 26 -7.499187200
0000006e-04 -3.999187199999998e-04 5.0000000000000284e-05 16 33 21 0 ?35 27 37 3
4 0 0 2 30 34 22 0 33 38 28 0 +-7.4991872000000006e-04 4.0008128000000047e-04 4.
9999999999999822e-05 1.0940408826878254e-16 1.0 -1.9675761151805574e-16 17 35 0
 73 80 74 25 30 33 0 85 +17 36 0 15 16 30 22 39 37 0 223 +16 37 23 0 ?36 33 48 3
8 0 0 2 30 38 24 0 37 49 34 0 +-7.4991872000000006e-04 -3.999187199999998e-04 5.
0000000000000284e-05 1.0 -2.4492935982947066e-16 1.242314989306307e-16 17 39 0 2
18 77 223 31 36 37 0 74 -14 40 25 42 1.0e-08 69 13 44 12 41 -0 0 69 13 10 50 41
 26 0 40 70 14 0 +-7.9991872000000024e-04 -3.999187199999998e-04 -1.381373898898
7861e-19 -1.2423149893063068e-16 6.1232339957367685e-17 1.0 -1.0 2.4492935982947
066e-16 -1.242314989306307e-16 81 1 42 27 6 40 0 0 71 5 43 83 3 43 0.89803922176
36108 0.9176470637321472 0.929411768913269 15 44 28 0 45 40 0 17 45 0 44 53 65 4
6 50 48 0 58 -18 46 29 0 45 31 51 47 ?2 29 47 30 0 46 52 32 -4.9991871999999998e
-04 -3.9991871999999988e-04 -7.3762885898551725e-20 16 48 31 0 ?50 37 56 49 0 0
 2 30 49 32 0 48 57 38 0 +-4.9991871999999998e-04 -3.9991871999999992e-04 -1.008
6794021068939e-19 2.4492935982947066e-16 1.0 -6.1232339957367659e-17 17 50 0 244
 174 226 51 45 48 0 65 +18 51 33 0 50 46 54 52 ?2 29 52 34 0 51 55 47 -4.9991871
99999997e-04 4.0008128000000021e-04 -1.4985381217658352e-19 17 53 0 44 59 45 54
 58 56 0 64 -18 54 35 0 106 51 60 55 ?2 29 55 36 0 54 61 52 -7.9991872000000042e
-04 -3.9991871999999974e-04 -1.1103233557774099e-19 16 56 37 0 ?58 48 62 57 0 0
 2 30 57 38 0 56 63 49 0 +-7.9991872000000042e-04 -3.9991871999999974e-04 -1.110
3233557774099e-19 1.0 -2.4492935982947066e-16 1.242314989306307e-16 17 58 0 218
 223 106 46 53 56 0 226 +17 59 0 44 65 53 60 64 62 0 68 -18 60 39 0 95 54 78 61
 ?2 29 61 40 0 60 79 55 -7.9991871999999998e-04 4.0008128000000038e-04 -1.871232
6185577274e-19 16 62 41 0 ?64 56 66 63 0 0 2 30 63 42 0 62 67 57 0 +-7.999187200
0000024e-04 -3.999187199999998e-04 -1.3813738988987861e-19 -2.4492935982947066e-
16 -1.0 6.1232339957367659e-17 17 64 0 94 101 95 54 59 62 0 0 +17 65 0 44 45 59
 51 68 66 0 171 +16 66 43 0 ?65 62 75 67 0 0 2 30 67 44 0 66 76 63 0 +-7.9991871
999999998e-04 4.0008128000000038e-04 -1.8712326185577274e-19 1.0 -2.449293598294
7066e-16 1.242314989306307e-16 17 68 0 160 98 171 60 65 66 0 0 -14 69 45 71 1.0e
-08 90 40 73 12 70 +0 0 90 40 10 50 70 46 0 69 91 41 0 +-7.4991871999999998e-04
 4.0008128000000056e-04 4.0e-04 1.0 -1.0940408826878259e-16 -2.4093381610788987e
-16 2.4093381610788987e-16 6.1232339957367597e-17 1.0 81 1 71 47 6 69 0 0 92 42
 72 83 3 72 0.8980392217636108 0.9176470637321472 0.929411768913269 15 73 48 0 7
4 69 0 17 74 0 73 35 86 31 77 75 0 0 +16 75 49 0 ?74 66 83 76 0 0 2 30 76 50 0 7
5 84 67 0 +-7.4991871999999998e-04 -3.9991871999999974e-04 3.9999999999999996e-0
4 -2.4093381610788987e-16 -6.1232339957367597e-17 -1.0 17 77 0 218 139 39 78 74
 75 0 136 -18 78 51 0 86 60 81 79 ?2 29 79 52 0 78 82 61 -7.4991871999999998e-04
 -3.9991871999999974e-04 3.9999999999999996e-04 17 80 0 73 86 35 81 85 83 0 89 -
18 81 53 0 145 78 99 82 ?2 29 82 54 0 81 100 79 -7.4991871999999998e-04 4.000812
8000000047e-04 4.0000000000000009e-04 16 83 55 0 ?85 75 87 84 0 0 2 30 84 56 0 8
3 88 76 0 +-7.4991871999999998e-04 4.0008128000000047e-04 4.0000000000000009e-04
 -2.4093381610788987e-16 -6.1232339957367597e-17 -1.0 17 85 0 160 29 145 25 80 8
3 0 0 +17 86 0 73 74 80 78 89 87 0 77 +16 87 57 0 ?86 83 96 88 0 0 2 30 88 58 0
 87 97 84 0 +-7.4991871999999998e-04 4.0008128000000056e-04 4.0e-04 -1.094040882
6878263e-16 -1.0 -7.4292931603320369e-17 17 89 0 115 140 136 81 86 87 0 0 -14 90
 59 92 1.0e-08 111 69 94 12 91 +0 0 111 69 10 50 91 60 0 90 112 70 0 +-7.9991872
000000006e-04 -3.999187199999998e-04 4.500000000000001e-04 -1.0 2.44929359829470
66e-16 2.4093381610788987e-16 -2.4093381610788987e-16 -6.1232339957367597e-17 -1
.0 81 1 92 61 6 90 0 0 113 71 93 83 3 93 0.8980392217636108 0.9176470637321472 0
.929411768913269 15 94 62 0 95 90 0 17 95 0 94 64 107 60 98 96 0 59 +16 96 63 0
 ?95 87 104 97 0 0 2 30 97 64 0 96 105 88 0 +-7.9991871999999988e-04 4.000812800
0000038e-04 4.5e-04 -2.4093381610788987e-16 -6.1232339957367597e-17 -1.0 17 98 0
 160 161 68 99 95 96 0 107 -18 99 65 0 98 81 102 100 ?2 29 100 66 0 99 103 82 -7
.9991871999999988e-04 4.0008128000000038e-04 4.5e-04 17 101 0 94 107 64 102 106
 104 0 110 -18 102 67 0 213 99 117 103 ?2 29 103 68 0 102 118 100 -7.99918720000
00006e-04 -3.999187199999998e-04 4.5e-04 16 104 69 0 ?106 96 108 105 0 0 2 30 10
5 70 0 104 109 97 0 +-7.9991872000000006e-04 -3.999187199999998e-04 4.5e-04 -2.4
093381610788987e-16 -6.1232339957367597e-17 -1.0 17 106 0 218 58 213 54 101 104
 0 53 +17 107 0 94 95 101 99 110 108 0 166 +16 108 71 0 ?107 104 119 109 0 0 2 3
0 109 72 0 108 120 105 0 +-7.9991872000000006e-04 -3.999187199999998e-04 4.5e-04
 2.4492935982947066e-16 1.0 -6.1232339957367659e-17 17 110 0 179 210 166 102 107
 108 0 0 -14 111 73 113 1.0e-08 156 90 115 12 112 -0 0 156 90 10 50 112 74 0 111
 157 91 0 +-0.0015764796970941 4.0008128000000065e-04 4.0e-04 -1.819652017745590
6e-32 -7.4292931603320369e-17 1.0 -2.4492935982947066e-16 -1.0 -7.42929316033203
69e-17 81 1 113 75 6 111 0 0 158 92 114 83 3 114 0.8980392217636108 0.9176470637
321472 0.929411768913269 15 115 76 0 116 111 0 17 116 0 115 124 152 117 121 119
 0 129 +18 117 77 0 116 102 122 118 ?2 29 118 78 0 117 123 103 -4.99918719999999
88e-04 -2.9991871999999988e-04 3.9999999999999992e-04 16 119 79 0 ?116 108 127 1
20 0 0 2 30 120 80 0 119 128 109 0 +-4.999187199999997e-04 4.0008128000000038e-0
4 4.0e-04 -1.0940408826878261e-16 -1.0 -7.4292931603320369e-17 17 121 0 231 236
 232 122 116 119 0 0 -18 122 81 0 152 117 125 123 ?2 29 123 82 0 122 126 118 -4.
9991871999999962e-04 3.0008128000000047e-04 3.9999999999999992e-04 17 124 0 115
 130 116 125 129 127 0 135 -18 125 83 0 124 122 131 126 ?2 29 126 84 0 125 132 1
23 -6.7991872000000004e-04 -2.9991871999999988e-04 3.9999999999999992e-04 16 127
 85 0 ?129 119 133 128 0 0 2 30 128 86 0 127 134 120 0 +-4.9991871999999998e-04
 -2.9991871999999988e-04 3.9999999999999992e-04 1.0 -2.4492935982947066e-16 0.0
 17 129 0 263 235 264 117 124 127 0 232 +17 130 0 115 136 124 131 135 133 0 139
 -18 131 87 0 222 125 141 132 ?2 29 132 88 0 131 142 126 -6.7991872000000004e-04
 -3.9991871999999988e-04 3.9999999999999996e-04 16 133 89 0 ?135 127 137 134 0 0
 2 30 134 90 0 133 138 128 0 +-6.7991872000000004e-04 -3.9991871999999992e-04 3.
9999999999999992e-04 2.4492935982947066e-16 1.0 7.4292931603320369e-17 17 135 0
 272 267 222 125 130 133 0 264 +17 136 0 115 89 130 78 139 137 0 0 -16 137 91 0
 ?139 133 143 138 0 0 2 30 138 92 0 137 144 134 0 +-0.0015764796970941 -3.999187
1999999952e-04 3.9999999999999992e-04 1.0 -2.4492935982947066e-16 0.0 17 139 0 2
18 219 77 131 136 137 0 0 +17 140 0 115 146 89 141 145 143 0 151 +18 141 93 0 14
0 131 147 142 ?2 29 142 94 0 141 148 132 -6.799187199999996e-04 4.00081280000000
38e-04 4.0e-04 16 143 95 0 ?140 137 149 144 0 0 2 30 144 96 0 143 150 138 0 +-0.
0015764796970941 4.0008128000000065e-04 4.0e-04 1.0 -2.4492935982947066e-16 0.0
 17 145 0 160 85 167 81 140 143 0 80 -17 146 0 115 152 140 147 151 149 0 155 -18
 147 97 0 146 141 162 148 ?2 29 148 98 0 147 163 142 -6.799187199999996e-04 3.00
08128000000056e-04 4.0e-04 16 149 99 0 ?151 143 153 150 0 0 2 30 150 100 0 149 1
54 144 0 +-6.799187199999996e-04 4.0008128000000047e-04 4.0e-04 2.44929359829470
66e-16 1.0 7.4292931603320369e-17 17 151 0 249 170 250 141 146 149 0 167 +17 152
 0 115 116 146 122 155 153 0 239 -16 153 101 0 ?155 149 164 154 0 0 2 30 154 102
 0 153 165 150 0 +-4.9991871999999962e-04 3.0008128000000047e-04 4.0e-04 -1.0 8.
4726390009919542e-16 4.4749198802576098e-32 17 155 0 258 253 239 147 152 153 0 2
50 +14 156 103 158 1.0e-08 175 111 160 12 157 -0 0 175 111 10 50 157 104 0 156 1
76 112 0 +-0.0015764796970941 4.0008128000000065e-04 4.500000000000001e-04 -2.44
92935982947066e-16 -1.0 6.1232339957367659e-17 1.0 -2.4492935982947066e-16 0.0 8
1 1 158 105 6 156 0 0 177 113 159 83 3 159 0.8980392217636108 0.9176470637321472
 0.929411768913269 15 160 106 0 161 156 0 17 161 0 160 167 98 162 166 164 0 0 +1
8 162 107 0 206 147 181 163 ?2 29 163 108 0 162 182 148 -6.799187199999996e-04 4
.0008128000000056e-04 4.5e-04 16 164 109 0 ?161 153 168 165 0 0 2 30 165 110 0 1
64 169 154 0 +-0.0015764796970941 4.0008128000000065e-04 4.5e-04 1.0 -2.44929359
82947066e-16 0.0 17 166 0 179 110 206 99 161 164 0 0 -17 167 0 160 145 161 141 1
70 168 0 0 -16 168 111 0 ?170 164 172 169 0 0 2 30 169 112 0 168 173 165 0 +-6.7
99187199999996e-04 4.0008128000000056e-04 -1.0000000000002116e-06 1.499759782661
8576e-32 6.1232339957367659e-17 1.0 17 170 0 249 209 151 162 167 168 0 161 +17 1
71 0 160 68 29 51 174 172 0 0 -16 172 113 0 ?174 168 183 173 0 0 2 30 173 114 0
 172 184 169 0 +-4.999187199999997e-04 4.0008128000000029e-04 2.2500000000000014
e-04 -1.2423149893063068e-16 6.1232339957367685e-17 1.0 17 174 0 244 21 50 17 17
1 172 0 0 +14 175 115 177 1.0e-08 214 156 179 12 176 -0 0 214 156 10 50 176 116
 0 175 215 157 0 +-0.0015764796970941 -3.9991871999999966e-04 4.500000000000001e
-04 -1.4997597826618576e-32 -6.1232339957367659e-17 -1.0 2.4492935982947066e-16
 1.0 -6.1232339957367659e-17 81 1 177 117 6 175 0 0 216 158 178 83 3 178 0.89803
92217636108 0.9176470637321472 0.929411768913269 15 179 118 0 180 175 0 17 180 0
 179 188 210 181 185 183 0 193 -18 181 119 0 180 162 186 182 ?2 29 182 120 0 181
 187 163 -6.7991872000000004e-04 -2.9991871999999988e-04 4.5e-04 16 183 121 0 ?1
85 172 191 184 0 0 2 30 184 122 0 183 192 173 0 +-6.7991872000000004e-04 -3.9991
871999999988e-04 4.5e-04 -2.4492935982947066e-16 -1.0 6.1232339957367659e-17 17
 185 0 272 222 267 186 180 183 0 210 +18 186 123 0 185 181 189 187 ?2 29 187 124
 0 186 190 182 -6.7991872000000004e-04 -3.9991871999999988e-04 4.5e-04 17 188 0
 179 194 180 189 193 191 0 199 -18 189 125 0 188 186 195 190 ?2 29 190 126 0 189
 196 187 -4.9991871999999998e-04 -2.9991871999999988e-04 4.5e-04 16 191 127 0 ?1
93 183 197 192 0 0 2 30 192 128 0 191 198 184 0 +-4.9991871999999998e-04 -2.9991
871999999988e-04 4.5e-04 -1.0 2.4492935982947066e-16 0.0 17 193 0 263 264 235 18
1 188 191 0 267 +17 194 0 179 200 188 195 199 197 0 236 +18 195 129 0 205 189 20
1 196 ?2 29 196 130 0 195 202 190 -4.999187199999997e-04 3.0008128000000052e-04
 4.5e-04 16 197 131 0 ?194 191 203 198 0 0 2 30 198 132 0 197 204 192 0 +-4.9991
871999999998e-04 -3.9991871999999988e-04 4.5e-04 3.8045463139015864e-16 1.0 -6.1
232339957367659e-17 17 199 0 231 232 236 189 194 197 0 235 -17 200 0 179 206 194
 201 205 203 0 209 -18 201 133 0 200 195 0 202 ?2 29 202 134 0 201 0 196 -6.7991
87199999996e-04 3.0008128000000056e-04 4.5e-04 16 203 135 0 ?205 197 207 204 0 0
 2 30 204 136 0 203 208 198 0 +-4.9991871999999962e-04 3.0008128000000047e-04 4.
5e-04 1.0 -8.4726390009919542e-16 3.6882353337860558e-32 17 205 0 258 239 253 19
5 200 203 0 194 +17 206 0 179 166 200 162 209 207 0 170 -16 207 137 0 ?209 203 2
11 208 0 0 2 30 208 138 0 207 212 204 0 +-6.799187199999996e-04 4.00081280000000
56e-04 4.5e-04 -2.4492935982947066e-16 -1.0 6.1232339957367659e-17 17 209 0 249
 250 170 201 206 207 0 253 +17 210 0 179 180 110 186 213 211 0 219 +16 211 139 0
 ?210 207 220 212 0 0 2 30 212 140 0 211 221 208 0 +-0.0015764796970941 -3.99918
71999999958e-04 4.5e-04 1.0 -2.4492935982947066e-16 0.0 17 213 0 218 106 219 102
 210 211 0 101 -14 214 141 216 1.0e-08 227 175 218 12 215 -0 0 227 175 10 50 215
 142 0 214 228 176 0 +-0.0015764796970941 -3.9991871999999958e-04 3.999999999999
9992e-04 2.4492935982947066e-16 1.0 1.022969832528134e-15 -2.5055534620597664e-3
1 -1.022969832528134e-15 1.0 81 1 216 143 6 214 0 0 229 177 217 83 3 217 0.89803
92217636108 0.9176470637321472 0.929411768913269 15 218 144 0 139 214 0 17 219 0
 218 213 139 186 222 220 0 0 +16 220 145 0 ?219 211 224 221 0 0 2 30 221 146 0 2
20 225 212 0 +-6.7991872000000004e-04 -3.9991871999999988e-04 -1.000000000000162
3e-06 1.4997597826618576e-32 6.1232339957367659e-17 1.0 17 222 0 272 135 185 131
 219 220 0 130 -17 223 0 218 39 58 22 226 224 0 0 -16 224 147 0 ?226 220 233 225
 0 0 2 30 225 148 0 224 234 221 0 +-4.9991871999999998e-04 -3.9991871999999958e-
04 2.2500000000000018e-04 1.2423149893063042e-16 -1.1454345124428693e-15 -1.0 17
 226 0 244 50 21 46 223 224 0 0 +14 227 149 229 1.0e-08 240 214 231 12 228 -0 0
 240 214 10 50 228 150 0 227 241 215 0 +-4.9991871999999998e-04 -3.9991871999999
988e-04 4.500000000000001e-04 -1.0 3.8045463139015854e-16 -2.1684043449710036e-1
5 2.1684043449710036e-15 -6.1232339957368192e-17 -1.0 81 1 229 151 6 227 0 0 242
 216 230 83 3 230 0.8980392217636108 0.9176470637321472 0.929411768913269 15 231
 152 0 199 227 0 17 232 0 231 121 199 117 235 233 0 0 -16 233 153 0 ?235 224 237
 234 0 0 2 30 234 154 0 233 238 225 0 +-4.9991871999999998e-04 -2.99918719999999
92e-04 -1.0000000000001685e-06 1.4997597826618576e-32 6.1232339957367659e-17 1.0
 17 235 0 263 193 129 189 232 233 0 0 +17 236 0 231 199 121 195 239 237 0 0 +16
 237 155 0 ?236 233 251 238 0 0 2 30 238 156 0 237 252 234 0 +-4.999187199999996
2e-04 3.0008128000000038e-04 -1.0000000000002054e-06 1.4997597826618576e-32 6.12
32339957367659e-17 1.0 17 239 0 258 155 205 122 236 237 0 121 -14 240 157 242 1.
0e-08 245 227 244 12 241 +0 0 245 227 10 50 241 158 0 240 246 228 0 +-4.99918719
99999988e-04 8.1280000000232402e-08 2.500000000000008e-05 1.0 -2.449293598294706
6e-16 1.242314989306307e-16 -1.2423149893063068e-16 6.1232339957367685e-17 1.0 8
1 1 242 159 6 240 0 0 247 229 243 83 3 243 0.8980392217636108 0.9176470637321472
 0.929411768913269 15 244 160 0 226 240 0 14 245 161 247 1.0e-08 254 240 249 12
 246 -0 0 254 240 10 50 246 162 0 245 255 241 0 +-6.799187199999996e-04 4.000812
8000000056e-04 -1.0000000000002116e-06 -1.0 2.4492935982947066e-16 0.0 -2.449293
5982947066e-16 -1.0 6.1232339957367659e-17 81 1 247 163 6 245 0 0 256 242 248 83
 3 248 0.8980392217636108 0.9176470637321472 0.929411768913269 15 249 164 0 151
 245 0 17 250 0 249 151 209 147 253 251 0 0 -16 251 165 0 ?253 237 265 252 0 0 2
 30 252 166 0 251 266 238 0 +-6.799187199999996e-04 3.0008128000000056e-04 -1.00
00000000002054e-06 1.4997597826618576e-32 6.1232339957367659e-17 1.0 17 253 0 25
8 205 155 201 250 251 0 0 +14 254 167 256 1.0e-08 259 245 258 12 255 -0 0 259 24
5 10 50 255 168 0 254 260 246 0 +-4.9991871999999962e-04 3.0008128000000038e-04
 -1.0000000000002054e-06 -8.4726390009919542e-16 -1.0 6.1232339957367659e-17 1.0
 -8.4726390009919542e-16 3.6882353337860558e-32 81 1 256 169 6 254 0 0 261 247 2
57 83 3 257 0.8980392217636108 0.9176470637321472 0.929411768913269 15 258 170 0
 155 254 0 14 259 171 261 1.0e-08 268 254 263 12 260 -0 0 268 254 10 50 260 172
 0 259 269 255 0 +-4.9991871999999998e-04 -2.9991871999999992e-04 -1.00000000000
01685e-06 2.4492935982947066e-16 1.0 -6.1232339957367659e-17 -1.0 2.449293598294
7066e-16 0.0 81 1 261 173 6 259 0 0 270 256 262 83 3 262 0.8980392217636108 0.91
76470637321472 0.929411768913269 15 263 174 0 129 259 0 17 264 0 263 129 193 125
 267 265 0 0 -16 265 175 0 ?267 251 0 266 0 0 2 30 266 176 0 265 0 252 0 +-6.799
1872000000004e-04 -2.9991871999999988e-04 -1.0000000000001685e-06 1.499759782661
8576e-32 6.1232339957367659e-17 1.0 17 267 0 272 185 135 181 264 265 0 0 +14 268
 177 270 1.0e-08 0 259 272 12 269 -0 0 0 259 10 50 269 178 0 268 0 260 0 +-6.799
1872000000004e-04 -3.9991871999999988e-04 -1.0000000000001623e-06 -1.0 2.4492935
982947066e-16 0.0 -2.4492935982947066e-16 -1.0 6.1232339957367659e-17 81 1 270 1
79 6 268 0 0 0 261 271 83 3 271 0.8980392217636108 0.9176470637321472 0.92941176
8913269 15 272 180 0 135 268 0 12 273 180 0 274 0 0 0 0 1000.0 1.0e-08 0 0 0 1 0
 1 1 281 283 289 287 278 288 286 70 274 0 273 0 0 4 1 20 0 275 275 1 T74 20 275
 1 0 276 0 0 0 0 0 0 0 0 0 0 0 0 0 0 0 0 0 0 0 81 1 276 7 6 282 0 0 311 0 277 83
 3 277 0.8980392217636108 0.9176470637321472 0.929411768913269 19 278 1 0 273 28
0 0 279 V13 279 2 0 273 0 0 0 0 278 282 19 280 3 0 273 0 278 281 S13 281 4 0 273
 0 282 0 0 280 0 14 282 5 276 1.0e-08 309 0 284 281 283 -0 0 309 0 279 50 283 6
 0 282 310 0 0 +7.5008128000000004e-04 4.0008128000000029e-04 4.9999999999999832
e-05 -1.242314989306307e-16 -1.9675761151805574e-16 -1.0 -4.4191219499997194e-17
 1.0 -1.9675761151805574e-16 15 284 8 0 285 282 0 17 285 0 284 293 305 286 290 2
88 0 298 +18 286 9 0 285 0 291 287 ?273 29 287 10 0 286 292 0 5.0008127999999985
e-04 -3.9991871999999988e-04 5.0000000000000027e-05 16 288 11 0 ?285 0 296 289 0
 0 273 30 289 12 0 288 297 0 0 +5.0008127999999985e-04 4.0008128000000029e-04 4.
9999999999999866e-05 4.4191219499997194e-17 -1.0 1.9675761151805574e-16 17 290 0
 513 443 495 291 285 288 0 305 -18 291 13 0 290 286 294 292 ?273 29 292 14 0 291
 295 287 5.0008127999999985e-04 4.0008128000000029e-04 5.0000000000000293e-05 17
 293 0 284 299 285 294 298 296 0 348 -18 294 15 0 304 291 300 295 ?273 29 295 16
 0 294 301 292 7.5008127999999986e-04 -3.9991871999999992e-04 5.0000000000000284
e-05 16 296 17 0 ?298 288 302 297 0 0 273 30 297 18 0 296 303 289 0 +7.500812799
9999986e-04 -3.9991871999999992e-04 5.0000000000000284e-05 -1.0 -4.4191219499997
194e-17 1.2423149893063073e-16 17 298 0 487 492 348 286 293 296 0 495 +17 299 0
 284 305 293 300 304 302 0 355 +18 300 19 0 299 294 315 301 ?273 29 301 20 0 300
 316 295 7.5008127999999994e-04 4.0008128000000029e-04 5.000000000000016e-05 16
 302 21 0 ?299 296 306 303 0 0 273 30 303 22 0 302 307 297 0 +7.5008128000000004
e-04 4.0008128000000029e-04 4.9999999999999822e-05 9.1334052060690905e-17 1.0 -1
.9675761151805574e-16 17 304 0 342 343 355 294 299 302 0 293 -17 305 0 284 285 2
99 291 308 306 0 440 +16 306 23 0 ?305 302 317 307 0 0 273 30 307 24 0 306 318 3
03 0 +7.5008127999999994e-04 4.0008128000000029e-04 5.000000000000016e-05 -1.0 -
4.4191219499997194e-17 1.2423149893063073e-16 17 308 0 429 358 440 300 305 306 0
 0 -14 309 25 311 1.0e-08 338 282 313 281 310 -0 0 338 282 279 50 310 26 0 309 3
39 283 0 +8.0008128000000003e-04 -3.9991872000000002e-04 -1.3813738988987861e-19
 1.2423149893063073e-16 6.1232339957367676e-17 1.0 1.0 4.4191219499997194e-17 -1
.2423149893063073e-16 81 1 311 27 6 309 0 0 340 276 312 83 3 312 0.8980392217636
108 0.9176470637321472 0.929411768913269 15 313 28 0 314 309 0 17 314 0 313 322
 334 315 319 317 0 327 +18 315 29 0 314 300 320 316 ?273 29 316 30 0 315 321 301
 5.0008127999999985e-04 4.0008128000000012e-04 -1.4985381217658354e-19 16 317 31
 0 ?314 306 325 318 0 0 273 30 318 32 0 317 326 307 0 +5.0008127999999985e-04 -3
.9991871999999998e-04 -1.0086794021068939e-19 -4.4191219499997194e-17 1.0 -6.123
2339957367659e-17 17 319 0 513 495 443 320 314 317 0 492 -18 320 33 0 319 315 32
3 321 ?273 29 321 34 0 320 324 316 5.0008127999999985e-04 -3.9991871999999992e-0
4 -7.3762885898551725e-20 17 322 0 313 328 314 323 327 325 0 369 -18 323 35 0 32
2 320 329 324 ?273 29 324 36 0 323 330 321 8.0008128000000003e-04 4.000812800000
0021e-04 -1.8712326185577276e-19 16 325 37 0 ?327 317 331 326 0 0 273 30 326 38
 0 325 332 318 0 +8.0008128000000003e-04 4.0008128000000021e-04 -1.8712326185577
276e-19 -1.0 -4.4191219499997194e-17 1.2423149893063073e-16 17 327 0 429 440 369
 315 322 325 0 443 +17 328 0 313 334 322 329 333 331 0 337 +18 329 39 0 328 323
 344 330 ?273 29 330 40 0 329 345 324 8.0008128000000021e-04 -3.9991871999999998
e-04 -1.1103233557774099e-19 16 331 41 0 ?328 325 335 332 0 0 273 30 332 42 0 33
1 336 326 0 +8.0008128000000003e-04 -3.9991872000000002e-04 -1.3813738988987861e
-19 4.4191219499997194e-17 -1.0 6.1232339957367659e-17 17 333 0 363 364 376 323
 328 331 0 0 -17 334 0 313 314 328 320 337 335 0 0 +16 335 43 0 ?334 331 346 336
 0 0 273 30 336 44 0 335 347 332 0 +8.0008128000000021e-04 -3.9991871999999998e-
04 -1.1103233557774099e-19 -1.0 -4.4191219499997194e-17 1.2423149893063073e-16 1
7 337 0 487 379 492 329 334 335 0 376 -14 338 45 340 1.0e-08 359 309 342 281 339
 +0 0 359 309 279 50 339 46 0 338 360 310 0 +7.5008127999999994e-04 4.0008128000
000038e-04 4.0e-04 -1.0 9.1334052060690869e-17 -2.4093381610788987e-16 -2.409338
1610788987e-16 6.123233995736765e-17 1.0 81 1 340 47 6 338 0 0 361 311 341 83 3
 341 0.8980392217636108 0.9176470637321472 0.929411768913269 15 342 48 0 343 338
 0 17 343 0 342 349 304 344 348 346 0 390 -18 344 49 0 354 329 350 345 ?273 29 3
45 50 0 344 351 330 7.5008127999999976e-04 -3.9991871999999992e-04 3.99999999999
99996e-04 16 346 51 0 ?348 335 352 347 0 0 273 30 347 52 0 346 353 336 0 +7.5008
127999999976e-04 -3.9991871999999992e-04 3.9999999999999996e-04 2.40933816107889
87e-16 -6.123233995736765e-17 -1.0 17 348 0 487 298 390 294 343 346 0 0 +17 349
 0 342 355 343 350 354 352 0 358 -18 350 53 0 349 344 365 351 ?273 29 351 54 0 3
50 366 345 7.5008127999999994e-04 4.0008128000000029e-04 4.0000000000000009e-04
 16 352 55 0 ?354 346 356 353 0 0 273 30 353 56 0 352 357 347 0 +7.5008127999999
994e-04 4.0008128000000038e-04 4.0e-04 -9.1334052060690816e-17 -1.0 -7.429293160
3320369e-17 17 354 0 384 385 421 344 349 352 0 343 +17 355 0 342 304 349 300 358
 356 0 308 +16 356 57 0 ?355 352 367 357 0 0 273 30 357 58 0 356 368 353 0 +7.50
08127999999994e-04 4.0008128000000029e-04 4.0000000000000009e-04 2.4093381610788
987e-16 -6.123233995736765e-17 -1.0 17 358 0 429 424 308 350 355 356 0 421 -14 3
59 59 361 1.0e-08 380 338 363 281 360 +0 0 380 338 279 50 360 60 0 359 381 339 0
 +8.0008127999999985e-04 -3.9991871999999998e-04 4.500000000000001e-04 1.0 4.419
1219499997194e-17 2.4093381610788987e-16 2.4093381610788987e-16 -6.1232339957367
65e-17 -1.0 81 1 361 61 6 359 0 0 382 340 362 83 3 362 0.8980392217636108 0.9176
470637321472 0.929411768913269 15 363 62 0 364 359 0 17 364 0 363 370 333 365 36
9 367 0 375 -18 365 63 0 436 350 371 366 ?273 29 366 64 0 365 372 351 8.00081279
99999985e-04 4.0008128000000021e-04 4.5e-04 16 367 65 0 ?369 356 373 368 0 0 273
 30 368 66 0 367 374 357 0 +8.0008127999999985e-04 4.0008128000000021e-04 4.5e-0
4 2.4093381610788987e-16 -6.123233995736765e-17 -1.0 17 369 0 429 327 436 323 36
4 367 0 333 +17 370 0 363 376 364 371 375 373 0 379 -18 371 67 0 463 365 386 372
 ?273 29 372 68 0 371 387 366 8.0008127999999985e-04 -3.9991871999999998e-04 4.5
e-04 16 373 69 0 ?375 367 377 374 0 0 273 30 374 70 0 373 378 368 0 +8.000812799
9999985e-04 -3.9991871999999998e-04 4.5e-04 -4.4191219499997194e-17 1.0 -6.12323
39957367659e-17 17 375 0 448 439 463 365 370 373 0 0 +17 376 0 363 333 370 329 3
79 377 0 0 +16 377 71 0 ?376 373 388 378 0 0 273 30 378 72 0 377 389 374 0 +8.00
08127999999985e-04 -3.9991871999999998e-04 4.5e-04 2.4093381610788987e-16 -6.123
233995736765e-17 -1.0 17 379 0 487 466 337 371 376 377 0 0 -14 380 73 382 1.0e-0
8 425 359 384 281 381 -0 0 425 359 279 50 381 74 0 380 426 360 0 +0.001576642257
0941 4.0008128000000029e-04 4.0e-04 2.0986624849953666e-32 -7.4292931603320369e-
17 1.0 4.4191219499997194e-17 -1.0 -7.4292931603320369e-17 81 1 382 75 6 380 0 0
 427 361 383 83 3 383 0.8980392217636108 0.9176470637321472 0.929411768913269 15
 384 76 0 385 380 0 17 385 0 384 391 354 386 390 388 0 0 +18 386 77 0 488 371 39
2 387 ?273 29 387 78 0 386 393 372 6.8008127999999966e-04 -3.9991871999999998e-0
4 3.9999999999999992e-04 16 388 79 0 ?385 377 394 389 0 0 273 30 389 80 0 388 39
5 378 0 +0.0015766422570941 -3.9991871999999992e-04 3.9999999999999992e-04 -1.0
 -4.4191219499997194e-17 1.770352960217306e-32 17 390 0 487 348 488 344 385 388
 0 0 -17 391 0 384 397 385 392 396 394 0 0 -18 392 81 0 533 386 398 393 ?273 29
 393 82 0 392 399 387 6.8008127999999966e-04 -2.999187200000002e-04 3.9999999999
999992e-04 16 394 83 0 ?396 388 400 395 0 0 273 30 395 84 0 394 401 389 0 +6.800
8127999999966e-04 -3.9991872000000024e-04 3.9999999999999992e-04 -2.449293598294
7066e-16 -1.0 -7.4292931603320369e-17 17 396 0 532 491 533 386 391 394 0 385 +17
 397 0 384 403 391 398 402 400 0 0 -18 398 85 0 504 392 404 399 ?273 29 399 86 0
 398 405 393 5.0008127999999985e-04 -2.9991872000000014e-04 3.9999999999999992e-
04 16 400 87 0 ?402 394 406 401 0 0 273 30 401 88 0 400 407 395 0 +5.00081279999
99985e-04 -2.9991872000000014e-04 3.9999999999999992e-04 1.0 -2.4492935982947066
e-16 -3.9183145027409578e-32 17 402 0 541 536 504 392 397 400 0 391 +17 403 0 38
4 409 397 404 408 406 0 0 -18 404 89 0 414 398 410 405 ?273 29 405 90 0 404 411
 399 5.0008127999999985e-04 3.0008127999999963e-04 4.0e-04 16 406 91 0 ?408 400
 412 407 0 0 273 30 407 92 0 406 413 401 0 +5.0008127999999985e-04 4.00081280000
00029e-04 4.0e-04 -9.1334052060690834e-17 -1.0 -7.4292931603320369e-17 17 408 0
 500 501 505 398 403 406 0 397 +17 409 0 384 415 403 410 414 412 0 420 -18 410 9
3 0 409 404 416 411 ?273 29 411 94 0 410 417 405 6.8008127999999992e-04 3.000812
7999999941e-04 4.0e-04 16 412 95 0 ?414 406 418 413 0 0 273 30 413 96 0 412 419
 407 0 +5.0008127999999994e-04 3.0008127999999963e-04 4.0e-04 -1.0 8.47263900099
19542e-16 8.3932343829985659e-32 17 414 0 518 508 519 404 409 412 0 505 +17 415
 0 384 421 409 416 420 418 0 424 -18 416 97 0 415 410 431 417 ?273 29 417 98 0 4
16 432 411 6.8008128000000028e-04 4.0008127999999941e-04 4.0000000000000009e-04
 16 418 99 0 ?420 412 422 419 0 0 273 30 419 100 0 418 423 413 0 +6.800812800000
0028e-04 4.0008127999999941e-04 4.0e-04 -4.5817380497714888e-15 -1.0 -7.42929316
03320369e-17 17 420 0 527 522 435 410 415 418 0 519 +17 421 0 384 354 415 350 42
4 422 0 0 -16 422 101 0 ?424 418 433 423 0 0 273 30 423 102 0 422 434 419 0 +0.0
015766422570941 4.0008128000000029e-04 4.0e-04 -1.0 -4.4191219499997194e-17 1.77
0352960217306e-32 17 424 0 429 430 358 416 421 422 0 435 +14 425 103 427 1.0e-08
 444 380 429 281 426 -0 0 444 380 279 50 426 104 0 425 445 381 0 +0.001576642257
0941 4.0008128000000029e-04 4.500000000000001e-04 4.4191219499997194e-17 -1.0 6.
1232339957367659e-17 -1.0 -4.4191219499997194e-17 1.770352960217306e-32 81 1 427
 105 6 425 0 0 446 382 428 83 3 428 0.8980392217636108 0.9176470637321472 0.9294
11768913269 15 429 106 0 424 425 0 17 430 0 429 436 424 431 435 433 0 0 +18 431
 107 0 472 416 450 432 ?273 29 432 108 0 431 451 417 6.8008128000000028e-04 4.00
08127999999941e-04 4.5e-04 16 433 109 0 ?430 422 437 434 0 0 273 30 434 110 0 43
3 438 423 0 +6.8008128000000028e-04 4.0008127999999941e-04 -1.0000000000002116e-
06 1.4997597826618576e-32 6.1232339957367659e-17 1.0 17 435 0 527 420 472 416 43
0 433 0 0 -17 436 0 429 369 430 365 439 437 0 364 -16 437 111 0 ?439 433 441 438
 0 0 273 30 438 112 0 437 442 434 0 +0.0015766422570941 4.0008128000000029e-04 4
.5e-04 -1.0 -4.4191219499997194e-17 1.770352960217306e-32 17 439 0 448 467 375 4
31 436 437 0 430 +17 440 0 429 308 327 291 443 441 0 0 +16 441 113 0 ?440 437 45
2 442 0 0 273 30 442 114 0 441 453 438 0 +5.0008127999999985e-04 4.0008128000000
029e-04 2.2500000000000014e-04 1.2423149893063073e-16 6.1232339957367676e-17 1.0
 17 443 0 513 319 290 315 440 441 0 0 -14 444 115 446 1.0e-08 483 425 448 281 44
5 -0 0 483 425 279 50 445 116 0 444 484 426 0 +0.0015766422570941 -3.99918719999
99992e-04 4.500000000000001e-04 -1.4997597826618576e-32 -6.1232339957367659e-17
 -1.0 -4.4191219499997194e-17 1.0 -6.1232339957367659e-17 81 1 446 117 6 444 0 0
 485 427 447 83 3 447 0.8980392217636108 0.9176470637321472 0.929411768913269 15
 448 118 0 449 444 0 17 449 0 448 457 479 450 454 452 0 462 -18 450 119 0 449 43
1 455 451 ?273 29 451 120 0 450 456 432 6.8008127999999966e-04 -2.99918720000000
2e-04 4.5e-04 16 452 121 0 ?454 441 460 453 0 0 273 30 453 122 0 452 461 442 0 +
5.0008127999999985e-04 -2.9991872000000014e-04 4.5e-04 -1.0 2.4492935982947066e-
16 0.0 17 454 0 541 504 536 455 449 452 0 501 +18 455 123 0 454 450 458 456 ?273
 29 456 124 0 455 459 451 5.0008127999999994e-04 -2.9991872000000014e-04 4.5e-04
 17 457 0 448 463 449 458 462 460 0 466 -18 458 125 0 457 455 468 459 ?273 29 45
9 126 0 458 469 456 6.8008127999999966e-04 -3.999187200000002e-04 4.5e-04 16 460
 127 0 ?462 452 464 461 0 0 273 30 461 128 0 460 465 453 0 +6.8008127999999966e-
04 -3.999187200000002e-04 4.5e-04 2.4492935982947066e-16 1.0 -6.1232339957367659
e-17 17 462 0 532 533 491 450 457 460 0 536 +17 463 0 448 375 457 371 466 464 0
 370 -16 464 129 0 ?466 460 470 465 0 0 273 30 465 130 0 464 471 461 0 +0.001576
6422570941 -3.9991871999999992e-04 4.5e-04 -1.0 -4.4191219499997194e-17 1.770352
960217306e-32 17 466 0 487 488 379 458 463 464 0 491 +17 467 0 448 473 439 468 4
72 470 0 478 -18 468 131 0 467 458 474 469 ?273 29 469 132 0 468 475 459 6.80081
27999999992e-04 3.0008127999999941e-04 4.5e-04 16 470 133 0 ?472 464 476 471 0 0
 273 30 471 134 0 470 477 465 0 +6.8008128000000028e-04 4.0008127999999941e-04 4
.5e-04 4.5817380497714888e-15 1.0 -6.1232339957367659e-17 17 472 0 527 435 522 4
31 467 470 0 439 +17 473 0 448 479 467 474 478 476 0 0 -18 474 135 0 482 468 0 4
75 ?273 29 475 136 0 474 0 469 5.0008127999999994e-04 3.0008127999999963e-04 4.5
e-04 16 476 137 0 ?478 470 480 477 0 0 273 30 477 138 0 476 481 471 0 +5.0008127
999999994e-04 3.0008127999999963e-04 4.5e-04 1.0 -8.4726390009919542e-16 3.68823
53337860558e-32 17 478 0 518 519 508 468 473 476 0 522 +17 479 0 448 449 473 455
 482 480 0 0 -16 480 139 0 ?482 476 489 481 0 0 273 30 481 140 0 480 490 477 0 +
5.0008127999999985e-04 -3.9991871999999998e-04 4.5e-04 -1.797164910606852e-16 1.
0 -6.1232339957367659e-17 17 482 0 500 505 501 474 479 480 0 508 +14 483 141 485
 1.0e-08 496 444 487 281 484 -0 0 496 444 279 50 484 142 0 483 497 445 0 +0.0015
766422570941 -3.9991871999999992e-04 3.9999999999999992e-04 -4.4191219499997194e
-17 1.0 1.022969832528134e-15 6.2909814013299181e-32 -1.022969832528134e-15 1.0
 81 1 485 143 6 483 0 0 498 446 486 83 3 486 0.8980392217636108 0.91764706373214
72 0.929411768913269 15 487 144 0 466 483 0 17 488 0 487 390 466 386 491 489 0 3
96 -16 489 145 0 ?491 480 493 490 0 0 273 30 490 146 0 489 494 481 0 +6.80081279
99999966e-04 -3.999187200000002e-04 -1.0000000000001623e-06 1.4997597826618576e-
32 6.1232339957367659e-17 1.0 17 491 0 532 462 396 458 488 489 0 0 +17 492 0 487
 337 298 320 495 493 0 334 +16 493 147 0 ?492 489 502 494 0 0 273 30 494 148 0 4
93 503 490 0 +5.0008127999999985e-04 -3.9991871999999966e-04 2.2500000000000018e
-04 -1.2423149893063068e-16 -1.1454345124428691e-15 -1.0 17 495 0 513 290 319 28
6 492 493 0 0 -14 496 149 498 1.0e-08 509 483 500 281 497 -0 0 509 483 279 50 49
7 150 0 496 510 484 0 +5.0008127999999985e-04 -3.9991871999999998e-04 4.50000000
0000001e-04 1.0 1.7971649106068506e-16 -2.1684043449710036e-15 -2.16840434497100
36e-15 -6.1232339957367756e-17 -1.0 81 1 498 151 6 496 0 0 511 485 499 83 3 499
 0.8980392217636108 0.9176470637321472 0.929411768913269 15 500 152 0 408 496 0
 17 501 0 500 482 408 455 504 502 0 479 +16 502 153 0 ?501 493 506 503 0 0 273 3
0 503 154 0 502 507 494 0 +5.0008127999999985e-04 -2.9991872000000014e-04 -1.000
0000000001685e-06 1.4997597826618576e-32 6.1232339957367659e-17 1.0 17 504 0 541
 402 454 398 501 502 0 408 -17 505 0 500 408 482 404 508 506 0 403 -16 506 155 0
 ?508 502 520 507 0 0 273 30 507 156 0 506 521 503 0 +5.0008127999999994e-04 3.0
008127999999963e-04 -1.0000000000002054e-06 1.4997597826618576e-32 6.12323399573
67659e-17 1.0 17 508 0 518 478 414 474 505 506 0 473 +14 509 157 511 1.0e-08 514
 496 513 281 510 +0 0 514 496 279 50 510 158 0 509 515 497 0 +5.0008127999999985
e-04 8.1280000000132038e-08 2.500000000000008e-05 -1.0 -4.4191219499997194e-17 1
.2423149893063073e-16 1.2423149893063073e-16 6.1232339957367676e-17 1.0 81 1 511
 159 6 509 0 0 516 498 512 83 3 512 0.8980392217636108 0.9176470637321472 0.9294
11768913269 15 513 160 0 495 509 0 14 514 161 516 1.0e-08 523 509 518 281 515 -0
 0 523 509 279 50 515 162 0 514 524 510 0 +5.0008127999999994e-04 3.000812799999
9963e-04 -1.0000000000002054e-06 -8.4726390009919542e-16 -1.0 6.1232339957367659
e-17 1.0 -8.4726390009919542e-16 3.6882353337860558e-32 81 1 516 163 6 514 0 0 5
25 511 517 83 3 517 0.8980392217636108 0.9176470637321472 0.929411768913269 15 5
18 164 0 414 514 0 17 519 0 518 414 478 410 522 520 0 0 -16 520 165 0 ?522 506 5
34 521 0 0 273 30 521 166 0 520 535 507 0 +6.8008127999999992e-04 3.000812799999
9941e-04 -1.0000000000002054e-06 1.4997597826618576e-32 6.1232339957367659e-17 1
.0 17 522 0 527 472 420 468 519 520 0 0 +14 523 167 525 1.0e-08 528 514 527 281
 524 -0 0 528 514 279 50 524 168 0 523 529 515 0 +6.8008128000000028e-04 4.00081
27999999941e-04 -1.0000000000002116e-06 1.0 -4.5817380497714888e-15 2.6555294403
259598e-31 4.5817380497714888e-15 1.0 -6.1232339957367659e-17 81 1 525 169 6 523
 0 0 530 516 526 83 3 526 0.8980392217636108 0.9176470637321472 0.92941176891326
9 15 527 170 0 420 523 0 14 528 171 530 1.0e-08 537 523 532 281 529 -0 0 537 523
 279 50 529 172 0 528 538 524 0 +6.8008127999999966e-04 -3.999187200000002e-04 -
1.0000000000001623e-06 1.0 -2.4492935982947066e-16 0.0 2.4492935982947066e-16 1.
0 -6.1232339957367659e-17 81 1 530 173 6 528 0 0 539 525 531 83 3 531 0.89803922
17636108 0.9176470637321472 0.929411768913269 15 532 174 0 396 528 0 17 533 0 53
2 396 462 392 536 534 0 402 -16 534 175 0 ?536 520 0 535 0 0 273 30 535 176 0 53
4 0 521 0 +6.8008127999999966e-04 -2.999187200000002e-04 -1.0000000000001685e-06
 1.4997597826618576e-32 6.1232339957367659e-17 1.0 17 536 0 541 454 402 450 533
 534 0 0 +14 537 177 539 1.0e-08 0 528 541 281 538 -0 0 0 528 279 50 538 178 0 5
37 0 529 0 +5.0008127999999985e-04 -2.9991872000000014e-04 -1.0000000000001685e-
06 2.4492935982947066e-16 1.0 -6.1232339957367659e-17 -1.0 2.4492935982947066e-1
6 0.0 81 1 539 179 6 537 0 0 0 530 540 83 3 540 0.8980392217636108 0.91764706373
21472 0.929411768913269 15 541 180 0 402 537 0 12 542 68 0 543 0 0 0 0 1000.0 1.
0e-08 0 0 0 1 0 1 1 550 552 558 556 547 557 555 70 543 0 542 0 0 4 1 20 0 544 54
4 1 T74 20 544 1 0 545 0 0 0 0 0 0 0 0 0 0 0 0 0 0 0 0 0 0 0 81 1 545 7 6 551 0
 0 580 0 546 83 3 546 0.0980392172932625 0.0980392172932625 0.0980392172932625 1
9 547 1 0 542 549 0 548 V13 548 2 0 542 0 0 0 0 547 551 19 549 3 0 542 0 547 550
 S13 550 4 0 542 0 551 0 0 549 0 14 551 5 545 1.0e-08 578 0 553 550 552 -0 0 578
 0 548 50 552 6 0 551 579 0 0 +0.0013016422570941 -3.9991872000000054e-04 4.5000
000000000392e-04 3.8045463139015864e-16 1.0 -6.1232339957367366e-17 -1.0 3.80454
63139015864e-16 -8.2985295010186189e-33 15 553 8 0 554 551 0 17 554 0 553 562 57
4 555 559 557 0 567 -18 555 9 0 554 0 560 556 ?542 29 556 10 0 555 561 0 5.00081
27999999985e-04 -3.9991872000000042e-04 4.5000000000000222e-04 16 557 11 0 ?559
 0 565 558 0 0 542 30 558 12 0 557 566 0 0 +5.0008127999999985e-04 -3.9991872000
000028e-04 4.5000000000000568e-04 -2.1684043449710036e-15 -6.123233995736654e-17
 -1.0 17 559 0 642 586 628 560 554 557 0 583 +18 560 13 0 559 555 563 561 ?542 2
9 561 14 0 560 564 556 5.0008127999999958e-04 -3.9991872000000028e-04 4.00000000
00000222e-04 17 562 0 553 568 554 563 567 565 0 573 +18 563 15 0 562 560 569 564
 ?542 29 564 16 0 563 570 561 -4.9991872000000006e-04 -3.9991871999999988e-04 4.
5e-04 16 565 17 0 ?562 557 571 566 0 0 542 30 566 18 0 565 572 558 0 +0.00130164
22570941 -3.9991872000000054e-04 4.5000000000000392e-04 -1.0 3.8045463139015854e
-16 -2.1684043449710036e-15 17 567 0 624 625 629 555 562 565 0 628 -17 568 0 553
 574 562 569 573 571 0 577 +18 569 19 0 568 563 587 570 ?542 29 570 20 0 569 588
 564 -4.9991871999999998e-04 -3.9991871999999988e-04 4.0e-04 16 571 21 0 ?568 56
5 575 572 0 0 542 30 572 22 0 571 576 566 0 +-4.9991872000000006e-04 -3.99918719
99999988e-04 4.5e-04 2.168404344971008e-15 -6.1232339957368192e-17 -1.0 17 573 0
 637 632 594 563 568 571 0 629 -17 574 0 553 554 568 560 577 575 0 0 -16 575 23
 0 ?577 571 584 576 0 0 542 30 576 24 0 575 585 572 0 +0.0013016422570941 -3.999
1872000000054e-04 4.0000000000000391e-04 -1.0 3.8045463139015854e-16 -2.16840434
49710036e-15 17 577 0 582 589 583 569 574 575 0 594 +14 578 25 580 1.0e-08 599 5
51 582 550 579 -0 0 599 551 548 50 579 26 0 578 600 552 0 +0.0013016422570941 -3
.9991872000000054e-04 4.0000000000000391e-04 -2.1684043449710036e-15 6.123233995
7368485e-17 1.0 -1.0 2.4492935982947049e-16 -2.1684043449710036e-15 81 1 580 27
 6 578 0 0 601 545 581 83 3 581 0.0980392172932625 0.0980392172932625 0.09803921
72932625 15 582 28 0 583 578 0 17 583 0 582 577 595 560 586 584 0 574 -16 584 29
 0 ?586 575 592 585 0 0 542 30 585 30 0 584 593 576 0 +5.0008127999999976e-04 -3
.9991872000000072e-04 4.0000000000000222e-04 -1.797164910606852e-16 1.0 -6.12323
39957368884e-17 17 586 0 642 607 559 587 583 584 0 604 +18 587 31 0 595 569 590
 588 ?542 29 588 32 0 587 591 570 5.0008127999999958e-04 4.0008127999999994e-04
 4.0000000000000222e-04 17 589 0 582 595 577 590 594 592 0 0 +18 590 33 0 598 58
7 608 591 ?542 29 591 34 0 590 609 588 -4.9991871999999962e-04 4.000812800000003
8e-04 4.0e-04 16 592 35 0 ?589 584 596 593 0 0 542 30 593 36 0 592 597 585 0 +-4
.9991871999999998e-04 -3.9991871999999988e-04 4.0e-04 3.8045463139015864e-16 1.0
 -6.1232339957367659e-17 17 594 0 637 573 615 569 589 592 0 0 -17 595 0 582 583
 589 587 598 596 0 586 -16 596 37 0 ?598 592 605 597 0 0 542 30 597 38 0 596 606
 593 0 +0.0013016422570941 4.0008127999999967e-04 4.0000000000000391e-04 -1.0 3.
8045463139015854e-16 -2.1684043449710036e-15 17 598 0 603 610 604 590 595 596 0
 615 +14 599 39 601 1.0e-08 620 578 603 550 600 -0 0 620 578 548 50 600 40 0 599
 621 579 0 +0.0013016422570941 4.0008127999999967e-04 4.5000000000000392e-04 -3.
8045463139015864e-16 -1.0 6.1232339957367659e-17 1.0 -3.8045463139015864e-16 8.2
985295010186189e-33 81 1 601 41 6 599 0 0 622 580 602 83 3 602 0.098039217293262
5 0.0980392172932625 0.0980392172932625 15 603 42 0 604 599 0 17 604 0 603 598 6
16 587 607 605 0 0 -16 605 43 0 ?607 596 613 606 0 0 542 30 606 44 0 605 614 597
 0 +5.0008127999999976e-04 4.0008127999999994e-04 4.5000000000000568e-04 2.16840
43449710036e-15 6.1232339957366833e-17 1.0 17 607 0 642 628 586 608 604 605 0 0
 +18 608 45 0 616 590 611 609 ?542 29 609 46 0 608 612 591 5.0008127999999985e-0
4 4.0008127999999994e-04 4.5000000000000222e-04 17 610 0 603 616 598 611 615 613
 0 632 +18 611 47 0 619 608 0 612 ?542 29 612 48 0 611 0 609 -4.9991871999999962
e-04 4.0008128000000038e-04 4.5e-04 16 613 49 0 ?610 605 617 614 0 0 542 30 614
 50 0 613 618 606 0 +-4.9991871999999962e-04 4.0008128000000038e-04 4.5e-04 1.49
97597826618576e-32 6.1232339957367659e-17 1.0 17 615 0 637 594 632 590 610 613 0
 589 -17 616 0 603 604 610 608 619 617 0 625 -16 617 51 0 ?619 613 626 618 0 0 5
42 30 618 52 0 617 627 614 0 +0.0013016422570941 4.0008127999999967e-04 4.500000
0000000392e-04 -1.0 3.8045463139015854e-16 -2.1684043449710036e-15 17 619 0 624
 629 625 611 616 617 0 610 +14 620 53 622 1.0e-08 633 599 624 550 621 -0 0 633 5
99 548 50 621 54 0 620 634 600 0 +0.0013016422570941 -3.9991872000000054e-04 4.5
000000000000392e-04 2.1684043449710036e-15 -6.1232339957368778e-17 -1.0 1.0 -2.4
492935982947049e-16 2.1684043449710036e-15 81 1 622 55 6 620 0 0 635 601 623 83
 3 623 0.0980392172932625 0.0980392172932625 0.0980392172932625 15 624 56 0 625
 620 0 17 625 0 624 619 567 608 628 626 0 607 -16 626 57 0 ?628 617 630 627 0 0
 542 30 627 58 0 626 631 618 0 +5.0008127999999985e-04 -3.9991872000000072e-04 4
.5000000000000222e-04 1.797164910606852e-16 -1.0 6.1232339957369169e-17 17 628 0
 642 559 607 555 625 626 0 0 +17 629 0 624 567 619 563 632 630 0 0 +16 630 59 0
 ?629 626 0 631 0 0 542 30 631 60 0 630 0 627 0 +-4.9991872000000006e-04 -3.9991
871999999988e-04 4.5e-04 -5.1597990295084673e-16 -1.0 6.1232339957367659e-17 17
 632 0 637 615 573 611 629 630 0 0 -14 633 61 635 1.0e-08 638 620 637 550 634 -0
 0 638 620 548 50 634 62 0 633 639 621 0 +-4.9991871999999998e-04 -3.99918719999
99988e-04 4.0e-04 1.0 -3.8045463139015854e-16 2.168404344971008e-15 -2.168404344
971008e-15 6.1232339957368192e-17 1.0 81 1 635 63 6 633 0 0 640 622 636 83 3 636
 0.0980392172932625 0.0980392172932625 0.0980392172932625 15 637 64 0 615 633 0
 14 638 65 640 1.0e-08 0 633 642 550 639 +0 0 0 633 548 50 639 66 0 638 0 634 0
 +5.0008127999999985e-04 -3.9991871999999998e-04 4.500000000000001e-04 1.0 1.797
1649106068506e-16 -2.1684043449710036e-15 -2.1684043449710036e-15 -6.12323399573
67756e-17 -1.0 81 1 640 67 6 638 0 0 0 635 641 83 3 641 0.0980392172932625 0.098
0392172932625 0.0980392172932625 15 642 68 0 628 638 0 12 643 68 0 644 0 0 0 0 1
000.0 1.0e-08 0 0 0 1 0 1 1 651 653 659 657 648 658 656 70 644 0 643 0 0 4 1 20
 0 645 645 1 T74 20 645 1 0 646 0 0 0 0 0 0 0 0 0 0 0 0 0 0 0 0 0 0 0 81 1 646 7
 6 652 0 0 681 0 647 83 3 647 0.843137264251709 0.8156862854957582 0.75294119119
64418 19 648 1 0 643 650 0 649 V13 649 2 0 643 0 0 0 0 648 652 19 650 3 0 643 0
 648 651 S13 651 4 0 643 0 652 0 0 650 0 14 652 5 646 1.0e-08 679 0 654 651 653
 -0 0 679 0 649 50 653 6 0 652 680 0 0 +-7.499187199999998e-04 4.000812800000002
1e-04 4.0e-04 1.0 -2.4492935982947066e-16 0.0 2.4492935982947066e-16 1.0 -6.1232
339957367659e-17 15 654 8 0 655 652 0 17 655 0 654 663 675 656 660 658 0 726 +18
 656 9 0 655 0 661 657 ?643 29 657 10 0 656 662 0 -7.499187199999998e-04 4.00081
28000000021e-04 5.0e-05 16 658 11 0 ?655 0 666 659 0 0 643 30 659 12 0 658 667 0
 0 +-7.499187199999998e-04 4.0008128000000021e-04 4.0e-04 -1.4997597826618576e-3
2 -6.1232339957367659e-17 -1.0 17 660 0 725 730 726 661 655 658 0 675 -18 661 13
 0 660 656 664 662 ?643 29 662 14 0 661 665 657 -7.499187199999998e-04 4.0008128
000000021e-04 4.0e-04 17 663 0 654 669 655 664 668 666 0 0 +18 664 15 0 689 661
 670 665 ?643 29 665 16 0 664 671 662 -7.4991871999999998e-04 -3.999187199999998
8e-04 5.0000000000000027e-05 16 666 17 0 ?663 658 672 667 0 0 643 30 667 18 0 66
6 673 659 0 +-7.499187199999998e-04 4.0008128000000029e-04 4.9999999999999974e-0
5 -2.4492935982947066e-16 -1.0 6.1232339957367659e-17 17 668 0 743 729 689 656 6
63 666 0 0 -17 669 0 654 675 663 670 674 672 0 0 -18 670 19 0 696 664 685 671 ?6
43 29 671 20 0 670 686 665 -7.4991871999999998e-04 -3.9991871999999992e-04 4.0e-
04 16 672 21 0 ?674 666 676 673 0 0 643 30 673 22 0 672 677 667 0 +-7.4991871999
999998e-04 -3.9991871999999992e-04 4.0e-04 -1.4997597826618576e-32 -6.1232339957
367659e-17 -1.0 17 674 0 683 684 696 664 669 672 0 663 +17 675 0 654 655 669 661
 678 676 0 733 -16 676 23 0 ?678 672 687 677 0 0 643 30 677 24 0 676 688 673 0 +
-7.499187199999998e-04 4.0008128000000021e-04 4.0e-04 -2.4492935982947066e-16 -1
.0 6.1232339957367659e-17 17 678 0 738 699 733 670 675 676 0 669 +14 679 25 681
 1.0e-08 700 652 683 651 680 -0 0 700 652 649 50 680 26 0 679 701 653 0 +7.50081
28000000004e-04 -3.9991872000000006e-04 4.0e-04 1.0036907016473673e-16 1.0 -6.12
32339957367659e-17 -1.0 1.0036907016473673e-16 8.8517648010865298e-33 81 1 681 2
7 6 679 0 0 702 646 682 83 3 682 0.843137264251709 0.8156862854957582 0.75294119
11964418 15 683 28 0 674 679 0 17 684 0 683 690 674 685 689 687 0 695 -18 685 29
 0 710 670 691 686 ?643 29 686 30 0 685 692 671 7.5008128000000004e-04 -3.999187
200000002e-04 5.0000000000000027e-05 16 687 31 0 ?689 676 693 688 0 0 643 30 688
 32 0 687 694 677 0 +-7.4991871999999998e-04 -3.9991871999999988e-04 5.000000000
0000027e-05 -1.0 2.4492935982947066e-16 0.0 17 689 0 743 668 710 664 684 687 0 6
74 +17 690 0 683 696 684 691 695 693 0 0 -18 691 33 0 699 685 706 692 ?643 29 69
2 34 0 691 707 686 7.5008128000000004e-04 -3.9991872000000006e-04 4.0e-04 16 693
 35 0 ?695 687 697 694 0 0 643 30 694 36 0 693 698 688 0 +7.5008128000000004e-04
 -3.9991872000000006e-04 4.0e-04 -1.4997597826618576e-32 -6.1232339957367659e-17
 -1.0 17 695 0 704 705 717 685 690 693 0 0 +17 696 0 683 674 690 670 699 697 0 6
78 -16 697 37 0 ?699 693 708 698 0 0 643 30 698 38 0 697 709 694 0 +7.5008128000
000004e-04 -3.9991872000000006e-04 4.0e-04 1.0 -1.0036907016473673e-16 -8.851764
8010865298e-33 17 699 0 738 720 678 691 696 697 0 717 +14 700 39 702 1.0e-08 721
 679 704 651 701 -0 0 721 679 649 50 701 40 0 700 722 680 0 +7.5008128000000022e
-04 4.0008128000000003e-04 4.0e-04 -1.0 1.0940408826878259e-16 8.298529501018622
4e-33 -1.0940408826878259e-16 -1.0 6.1232339957367659e-17 81 1 702 41 6 700 0 0
 723 681 703 83 3 703 0.843137264251709 0.8156862854957582 0.7529411911964418 15
 704 42 0 695 700 0 17 705 0 704 711 695 706 710 708 0 716 -18 706 43 0 729 691
 712 707 ?643 29 707 44 0 706 713 692 7.500812800000003e-04 4.0008127999999994e-
04 4.9999999999999974e-05 16 708 45 0 ?710 697 714 709 0 0 643 30 709 46 0 708 7
15 698 0 +7.500812800000003e-04 4.0008127999999994e-04 4.9999999999999974e-05 -2
.4492935982947066e-16 -1.0 6.1232339957367659e-17 17 710 0 743 689 729 685 705 7
08 0 684 +17 711 0 704 717 705 712 716 714 0 0 -18 712 47 0 720 706 0 713 ?643 2
9 713 48 0 712 0 707 7.5008128000000022e-04 4.0008127999999994e-04 4.0e-04 16 71
4 49 0 ?716 708 718 715 0 0 643 30 715 50 0 714 719 709 0 +7.5008128000000022e-0
4 4.0008127999999994e-04 4.0e-04 -1.4997597826618576e-32 -6.1232339957367659e-17
 -1.0 17 716 0 725 726 730 706 711 714 0 0 +17 717 0 704 695 711 691 720 718 0 6
90 -16 718 51 0 ?720 714 727 719 0 0 643 30 719 52 0 718 728 715 0 +7.5008128000
000022e-04 4.0008127999999994e-04 4.0e-04 1.0940408826878259e-16 1.0 -6.12323399
57367659e-17 17 720 0 738 733 699 712 717 718 0 730 +14 721 53 723 1.0e-08 734 7
00 725 651 722 -0 0 734 700 649 50 722 54 0 721 735 701 0 +7.5008128000000022e-0
4 4.0008128000000003e-04 4.0e-04 -1.365091425809202e-16 -1.0 6.1232339957367659e
-17 1.0 -1.365091425809202e-16 -6.6388236008148978e-33 81 1 723 55 6 721 0 0 736
 702 724 83 3 724 0.843137264251709 0.8156862854957582 0.7529411911964418 15 725
 56 0 716 721 0 17 726 0 725 660 716 656 729 727 0 668 +16 727 57 0 ?726 718 731
 728 0 0 643 30 728 58 0 727 732 719 0 +-7.499187199999998e-04 4.000812800000002
9e-04 4.9999999999999974e-05 -1.0 2.4492935982947066e-16 0.0 17 729 0 743 710 66
8 706 726 727 0 705 -17 730 0 725 716 660 712 733 731 0 711 -16 731 59 0 ?733 72
7 0 732 0 0 643 30 732 60 0 731 0 728 0 +7.5008128000000022e-04 4.00081279999999
94e-04 4.0e-04 -1.0 1.365091425809202e-16 6.6388236008148978e-33 17 733 0 738 67
8 720 661 730 731 0 0 +14 734 61 736 1.0e-08 739 721 738 651 735 -0 0 739 721 64
9 50 735 62 0 734 740 722 0 +-7.4991871999999998e-04 -3.9991871999999992e-04 4.0
e-04 -1.4997597826618576e-32 -6.1232339957367659e-17 -1.0 2.4492935982947066e-16
 1.0 -6.1232339957367659e-17 81 1 736 63 6 734 0 0 741 723 737 83 3 737 0.843137
264251709 0.8156862854957582 0.7529411911964418 15 738 64 0 699 734 0 14 739 65
 741 1.0e-08 0 734 743 651 740 -0 0 0 734 649 50 740 66 0 739 0 735 0 +-7.499187
199999998e-04 4.0008128000000029e-04 4.9999999999999974e-05 1.4997597826618576e-
32 6.1232339957367659e-17 1.0 -2.4492935982947066e-16 -1.0 6.1232339957367659e-1
7 81 1 741 67 6 739 0 0 0 736 742 83 3 742 0.843137264251709 0.8156862854957582
 0.7529411911964418 15 743 68 0 689 739 0 1 0 
